<?xml version="1.0" encoding="utf-8"?>
<!-- Generator: Adobe Illustrator 25.3.1, SVG Export Plug-In . SVG Version: 6.00 Build 0)  -->
<svg version="1.1" id="Capa_1" xmlns="http://www.w3.org/2000/svg" xmlns:xlink="http://www.w3.org/1999/xlink" x="0px" y="0px"
	 viewBox="0 0 120 120" style="enable-background:new 0 0 120 120;" xml:space="preserve">
<style type="text/css">
	.st0{fill:#AED3F2;fill-opacity:0;}
	.st1{fill:#5E6178;}
	.st2{fill:#6595BF;}
	.st3{fill:#F2E9E4;}
	.st4{fill:#A66D58;}
	.st5{fill:#D9A171;}
	.st6{fill:#FFFFFF;}
	.st7{fill:none;stroke:#A66D58;stroke-width:2;stroke-linecap:round;stroke-miterlimit:10;}
	.st8{opacity:0.31;fill:#4C7FA5;enable-background:new    ;}
	.st9{fill:#A9DCFF;}
	.st10{fill:#90D5FC;}
</style>
<g id="Grupo_54859" transform="translate(-601.827 -7479.34)">
	<rect id="Rectángulo_6858" x="601.8" y="7479.3" class="st0" width="120" height="120"/>
	<g id="Grupo_54858">
		<circle id="Elipse_4060" class="st1" cx="661.8" cy="7539.3" r="50"/>
		<g id="Grupo_54857">
			<path id="Trazado_102604" class="st2" d="M687.3,7524.5v-12.8c0-5.3-4.3-9.6-9.6-9.6h-34.3c-1.8,0-3.2,1.4-3.2,3.2
				c0,0.4,0.1,0.8,0.2,1.1l23.1,60.6c0.5,1.2,1.6,2.1,3,2.1h11.2c5.3,0,9.6-4.3,9.6-9.6L687.3,7524.5L687.3,7524.5z"/>
			<path id="Trazado_102605" class="st2" d="M687.3,7524.5v-12.8c0-5.3-4.3-9.6-9.6-9.6h-34.3c-1.8,0-3.2,1.4-3.2,3.2
				c0,0.4,0.1,0.8,0.2,1.1l23.1,60.6c0.5,1.2,1.6,2.1,3,2.1h11.2c5.3,0,9.6-4.3,9.6-9.6L687.3,7524.5L687.3,7524.5z"/>
			<path id="Trazado_102606" class="st3" d="M666.6,7566.2c-0.1,0-0.1,0-0.2-0.1l-23.1-60.6c0-0.1,0-0.1,0-0.2c0,0,0.1-0.1,0.1-0.1
				h34.3c3.6,0,6.6,2.9,6.6,6.6v47.8c0,3.6-2.9,6.6-6.6,6.6L666.6,7566.2z"/>
			<g id="Grupo_54856">
				<g id="Grupo_54853">
					<path id="Trazado_102607" class="st4" d="M675.2,7561.1l4.6,2.3v-17.4h-9.3v17.4L675.2,7561.1z"/>
				</g>
				<g id="Grupo_54854">
					<circle id="Elipse_4061" class="st5" cx="675.2" cy="7550.7" r="6.9"/>
				</g>
				<g id="Grupo_54855">
					<path id="Trazado_102608" class="st4" d="M675.2,7555.9c-2.9,0-5.2-2.3-5.2-5.2c0-2.9,2.3-5.2,5.2-5.2c2.9,0,5.2,2.3,5.2,5.2
						l0,0C680.4,7553.6,678,7555.9,675.2,7555.9z M675.2,7546.6c-2.2,0-4.1,1.8-4.1,4.1s1.8,4.1,4.1,4.1s4-1.8,4-4.1
						C679.2,7548.5,677.4,7546.6,675.2,7546.6z"/>
				</g>
				<path id="Trazado_102609" class="st6" d="M675.8,7550.1h-1.2c-0.4,0-0.6-0.3-0.6-0.7c0-0.3,0.3-0.6,0.6-0.6h1.2
					c0.4,0,0.6,0.3,0.6,0.6h1.2c0-1-0.8-1.8-1.8-1.8h0v-0.6h-1.2v0.6h0c-1,0-1.8,0.8-1.8,1.8s0.8,1.8,1.8,1.8h1.2
					c0.4,0,0.6,0.3,0.6,0.7c0,0.3-0.3,0.6-0.6,0.6h-1.2c-0.4,0-0.6-0.3-0.6-0.6h-1.2c0,1,0.8,1.8,1.8,1.8h0v0.6h1.2v-0.6h0
					c1,0,1.8-0.8,1.8-1.8S676.8,7550.1,675.8,7550.1L675.8,7550.1z"/>
			</g>
			<line id="Línea_260" class="st7" x1="678.5" y1="7512.1" x2="649.2" y2="7512.1"/>
			<line id="Línea_261" class="st7" x1="678.5" y1="7516.9" x2="649.2" y2="7516.9"/>
			<line id="Línea_262" class="st7" x1="678.5" y1="7521.6" x2="649.2" y2="7521.6"/>
			<line id="Línea_263" class="st7" x1="678.5" y1="7526.4" x2="649.2" y2="7526.4"/>
			<line id="Línea_264" class="st7" x1="678.5" y1="7531.1" x2="649.2" y2="7531.1"/>
			<line id="Línea_265" class="st7" x1="678.5" y1="7535.9" x2="649.2" y2="7535.9"/>
			<path id="Trazado_102610" class="st8" d="M671.4,7534.1H651l12.6,33c0.5,1.2,1.6,2.1,3,2.1h11.2c5.3,0,9.6-4.3,9.6-9.6v-25.5
				H671.4z"/>
			<path id="Trazado_102611" class="st9" d="M663.9,7508.9l-19.2-6.4c-3.4-1.1-7,0.8-8.1,4.1c-0.2,0.6-0.3,1.3-0.3,1.9v57.4
				c0,2.7,1.7,5.2,4.3,6l19.2,6.4c0.7,0.2,1.3,0.3,2,0.3c3.5,0,6.4-2.8,6.4-6.4V7515C668.2,7512.2,666.5,7509.8,663.9,7508.9
				L663.9,7508.9z"/>
			<path id="Trazado_102612" class="st10" d="M668.2,7540.5h-31.9v25.5c0,2.7,1.7,5.2,4.3,6l19.2,6.4c0.7,0.2,1.3,0.3,2,0.3
				c3.5,0,6.4-2.9,6.4-6.4V7540.5z"/>
		</g>
	</g>
</g>
</svg>
