<?xml version="1.0" encoding="utf-8"?>
<!-- Generator: Adobe Illustrator 25.2.3, SVG Export Plug-In . SVG Version: 6.00 Build 0)  -->
<svg version="1.1" id="Capa_1" xmlns="http://www.w3.org/2000/svg" xmlns:xlink="http://www.w3.org/1999/xlink" x="0px" y="0px"
	 viewBox="0 0 120 120" style="enable-background:new 0 0 120 120;" xml:space="preserve">
<style type="text/css">
	.st0{fill:#AED3F2;fill-opacity:0;}
	.st1{fill:#5E6178;}
	.st2{fill:#6595BF;}
	.st3{fill:#4C7FA5;}
	.st4{fill:#F5EDE9;}
	.st5{fill:#E2D1C9;}
	.st6{fill:#A9DCFF;}
	.st7{fill:#90D5FC;}
</style>
<g id="Grupo_54852" transform="translate(-463.958 -7479.34)">
	<rect id="Rectángulo_6857" x="483.96" y="7499.34" class="st0" width="80" height="80"/>
	<g id="Grupo_54851">
		<circle id="Elipse_4059" class="st1" cx="523.96" cy="7539.34" r="33.33"/>
		<g id="Grupo_54850">
			<path id="Trazado_102598" class="st2" d="M531.94,7542.22c-3.52-0.04-6.35-2.92-6.31-6.44c0.04-3.47,2.84-6.27,6.31-6.31h4.25
				v-8.5c0-3.52-2.86-6.37-6.38-6.38h-22.85c-1.17,0-2.12,0.95-2.12,2.12c0,0.26,0.05,0.52,0.14,0.76l15.41,40.38
				c0.31,0.82,1.1,1.37,1.99,1.37h7.44c3.52,0,6.37-2.86,6.38-6.38v-10.63H531.94z"/>
			<path id="Trazado_102599" class="st3" d="M525.57,7535.84H512l8.4,22.01c0.31,0.82,1.1,1.37,1.98,1.37h7.44
				c3.52,0,6.37-2.86,6.38-6.38v-10.63h-4.25C528.42,7542.21,525.57,7539.36,525.57,7535.84L525.57,7535.84z"/>
			<path id="Trazado_102600" class="st4" d="M541.75,7546.31c-0.79-0.33-1.31-1.1-1.31-1.96v-6.38h-8.5c-1.17,0-2.12-0.96-2.12-2.13
				c0-1.17,0.95-2.12,2.12-2.12h8.5v-6.38c0-1.17,0.95-2.12,2.12-2.12c0.56,0,1.1,0.22,1.5,0.62l8.5,8.5c0.83,0.83,0.83,2.17,0,3
				c0,0,0,0,0,0l-8.5,8.5C543.46,7546.45,542.55,7546.64,541.75,7546.31L541.75,7546.31z"/>
			<path id="Trazado_102601" class="st5" d="M553.19,7535.84h-23.38c0,1.17,0.95,2.12,2.13,2.13h8.5v6.38
				c0,1.17,0.95,2.12,2.12,2.12c0.56,0,1.1-0.22,1.5-0.62l8.5-8.5C552.97,7536.95,553.19,7536.41,553.19,7535.84z"/>
			<path id="Trazado_102602" class="st6" d="M520.56,7519.06l-12.77-4.26c-2.25-0.73-4.66,0.5-5.39,2.75
				c-0.14,0.42-0.21,0.85-0.21,1.29v38.25c0,1.82,1.16,3.44,2.88,4.03l12.77,4.26c0.44,0.14,0.89,0.21,1.35,0.21
				c2.35,0,4.25-1.9,4.25-4.25v-38.25C523.44,7521.27,522.28,7519.65,520.56,7519.06L520.56,7519.06z"/>
			<path id="Trazado_102603" class="st7" d="M523.44,7540.09h-21.25v17c0,1.82,1.16,3.44,2.88,4.03l12.77,4.26
				c0.44,0.14,0.89,0.21,1.35,0.21c2.35,0,4.25-1.9,4.25-4.25L523.44,7540.09z"/>
		</g>
	</g>
</g>
</svg>
