<?xml version="1.0" encoding="utf-8"?>
<!-- Generator: Adobe Illustrator 25.3.1, SVG Export Plug-In . SVG Version: 6.00 Build 0)  -->
<svg version="1.1" id="Capa_1" xmlns="http://www.w3.org/2000/svg" xmlns:xlink="http://www.w3.org/1999/xlink" x="0px" y="0px"
	 viewBox="0 0 120 120" style="enable-background:new 0 0 120 120;" xml:space="preserve">
<style type="text/css">
	.st0{fill:#AED3F2;fill-opacity:0;}
	.st1{fill:#5E6178;}
	.st2{fill:#6595BF;}
	.st3{fill:#4C7FA5;}
	.st4{fill:#F5EDE9;}
	.st5{fill:#E2D1C9;}
	.st6{fill:#A9DCFF;}
	.st7{fill:#90D5FC;}
</style>
<g id="Grupo_54852" transform="translate(-463.958 -7479.34)">
	<rect id="Rectángulo_6857" x="464" y="7479.3" class="st0" width="120" height="120"/>
	<g id="Grupo_54851">
		<circle id="Elipse_4059" class="st1" cx="524" cy="7539.3" r="50"/>
		<g id="Grupo_54850">
			<path id="Trazado_102598" class="st2" d="M535.9,7543.7c-5.3-0.1-9.5-4.4-9.5-9.7c0.1-5.2,4.3-9.4,9.5-9.5h6.4v-12.8
				c0-5.3-4.3-9.6-9.6-9.6h-34.3c-1.8,0-3.2,1.4-3.2,3.2c0,0.4,0.1,0.8,0.2,1.1l23.1,60.6c0.5,1.2,1.6,2.1,3,2.1h11.2
				c5.3,0,9.6-4.3,9.6-9.6v-15.9L535.9,7543.7L535.9,7543.7z"/>
			<path id="Trazado_102599" class="st3" d="M526.4,7534.1H506l12.6,33c0.5,1.2,1.6,2.1,3,2.1h11.2c5.3,0,9.6-4.3,9.6-9.6v-15.9
				h-6.4C530.6,7543.6,526.4,7539.4,526.4,7534.1L526.4,7534.1z"/>
			<path id="Trazado_102600" class="st4" d="M550.6,7549.8c-1.2-0.5-2-1.7-2-2.9v-9.6h-12.8c-1.8,0-3.2-1.4-3.2-3.2s1.4-3.2,3.2-3.2
				h12.8v-9.6c0-1.8,1.4-3.2,3.2-3.2c0.8,0,1.6,0.3,2.2,0.9l12.8,12.8c1.2,1.2,1.2,3.3,0,4.5l0,0l-12.8,12.8
				C553.2,7550,551.8,7550.3,550.6,7549.8L550.6,7549.8z"/>
			<path id="Trazado_102601" class="st5" d="M567.8,7534.1h-35.1c0,1.8,1.4,3.2,3.2,3.2h12.8v9.6c0,1.8,1.4,3.2,3.2,3.2
				c0.8,0,1.6-0.3,2.2-0.9l12.8-12.8C567.5,7535.8,567.8,7534.9,567.8,7534.1z"/>
			<path id="Trazado_102602" class="st6" d="M518.9,7508.9l-19.2-6.4c-3.4-1.1-7,0.8-8.1,4.1c-0.2,0.6-0.3,1.3-0.3,1.9v57.4
				c0,2.7,1.7,5.2,4.3,6l19.2,6.4c0.7,0.2,1.3,0.3,2,0.3c3.5,0,6.4-2.8,6.4-6.4V7515C523.2,7512.2,521.4,7509.8,518.9,7508.9
				L518.9,7508.9z"/>
			<path id="Trazado_102603" class="st7" d="M523.2,7540.5h-31.9v25.5c0,2.7,1.7,5.2,4.3,6l19.2,6.4c0.7,0.2,1.3,0.3,2,0.3
				c3.5,0,6.4-2.9,6.4-6.4V7540.5z"/>
		</g>
	</g>
</g>
</svg>
