<?xml version="1.0" encoding="utf-8"?>
<!-- Generator: Adobe Illustrator 25.2.3, SVG Export Plug-In . SVG Version: 6.00 Build 0)  -->
<svg version="1.1" id="Capa_1" xmlns="http://www.w3.org/2000/svg" xmlns:xlink="http://www.w3.org/1999/xlink" x="0px" y="0px"
	 viewBox="0 0 120 120" style="enable-background:new 0 0 120 120;" xml:space="preserve">
<style type="text/css">
	.st0{fill:#AED3F2;fill-opacity:0;}
	.st1{fill:#5E6178;}
	.st2{fill:#6595BF;}
	.st3{fill:#F2E9E4;}
	.st4{fill:#A66D58;}
	.st5{fill:#D9A171;}
	.st6{fill:#FFFFFF;}
	.st7{fill:none;stroke:#A66D58;stroke-width:2;stroke-linecap:round;stroke-miterlimit:10;}
	.st8{opacity:0.31;fill:#4C7FA5;enable-background:new    ;}
	.st9{fill:#A9DCFF;}
	.st10{fill:#90D5FC;}
</style>
<g id="Grupo_54859" transform="translate(-601.827 -7479.34)">
	<rect id="Rectángulo_6858" x="621.83" y="7499.34" class="st0" width="80" height="80"/>
	<g id="Grupo_54858">
		<circle id="Elipse_4060" class="st1" cx="661.83" cy="7539.34" r="33.33"/>
		<g id="Grupo_54857">
			<path id="Trazado_102604" class="st2" d="M678.83,7529.47v-8.5c0-3.52-2.86-6.37-6.38-6.38h-22.84c-1.17,0-2.12,0.95-2.12,2.12
				c0,0.26,0.05,0.52,0.14,0.76l15.41,40.38c0.31,0.82,1.1,1.37,1.99,1.37h7.44c3.52,0,6.37-2.86,6.38-6.38L678.83,7529.47
				L678.83,7529.47z"/>
			<path id="Trazado_102605" class="st2" d="M678.83,7529.47v-8.5c0-3.52-2.86-6.37-6.38-6.38h-22.84c-1.17,0-2.12,0.95-2.12,2.12
				c0,0.26,0.05,0.52,0.14,0.76l15.41,40.38c0.31,0.82,1.1,1.37,1.99,1.37h7.44c3.52,0,6.37-2.86,6.38-6.38L678.83,7529.47
				L678.83,7529.47z"/>
			<path id="Trazado_102606" class="st3" d="M665.02,7557.22c-0.05,0-0.1-0.03-0.11-0.08l-15.41-40.38
				c-0.02-0.04-0.01-0.08,0.01-0.11c0.02-0.03,0.06-0.05,0.1-0.05h22.85c2.42,0,4.37,1.96,4.38,4.38v31.88
				c0,2.42-1.96,4.37-4.38,4.38L665.02,7557.22z"/>
			<g id="Grupo_54856">
				<g id="Grupo_54853">
					<path id="Trazado_102607" class="st4" d="M670.71,7553.86l3.09,1.54v-11.58h-6.18v11.58L670.71,7553.86z"/>
				</g>
				<g id="Grupo_54854">
					<circle id="Elipse_4061" class="st5" cx="670.71" cy="7546.91" r="4.63"/>
				</g>
				<g id="Grupo_54855">
					<path id="Trazado_102608" class="st4" d="M670.71,7550.39c-1.92,0-3.47-1.56-3.47-3.47c0-1.92,1.56-3.47,3.47-3.47
						s3.47,1.56,3.47,3.47l0,0C674.18,7548.83,672.63,7550.39,670.71,7550.39z M670.71,7544.21c-1.49,0-2.7,1.21-2.7,2.7
						c0,1.49,1.21,2.7,2.7,2.7c1.49,0,2.7-1.21,2.7-2.7C673.41,7545.42,672.2,7544.21,670.71,7544.21z"/>
				</g>
				<path id="Trazado_102609" class="st6" d="M671.12,7546.53h-0.82c-0.24-0.01-0.42-0.22-0.41-0.46c0.01-0.22,0.19-0.4,0.41-0.41
					h0.82c0.24,0,0.43,0.19,0.43,0.43h0.77c0-0.67-0.54-1.21-1.21-1.21h-0.02v-0.43h-0.77v0.43h-0.02c-0.67,0-1.21,0.54-1.21,1.21
					s0.54,1.21,1.21,1.21h0.82c0.24,0.01,0.42,0.22,0.41,0.46c-0.01,0.22-0.19,0.4-0.41,0.41h-0.82c-0.24,0-0.43-0.19-0.43-0.43
					h-0.77c0,0.67,0.54,1.21,1.21,1.21h0.02v0.43h0.77v-0.43h0.02c0.67,0,1.21-0.54,1.21-1.21S671.79,7546.53,671.12,7546.53
					L671.12,7546.53z"/>
			</g>
			<line id="Línea_260" class="st7" x1="672.93" y1="7521.18" x2="653.38" y2="7521.18"/>
			<line id="Línea_261" class="st7" x1="672.93" y1="7524.35" x2="653.38" y2="7524.35"/>
			<line id="Línea_262" class="st7" x1="672.93" y1="7527.52" x2="653.38" y2="7527.52"/>
			<line id="Línea_263" class="st7" x1="672.93" y1="7530.69" x2="653.38" y2="7530.69"/>
			<line id="Línea_264" class="st7" x1="672.93" y1="7533.85" x2="653.38" y2="7533.85"/>
			<line id="Línea_265" class="st7" x1="672.93" y1="7537.03" x2="653.38" y2="7537.03"/>
			<path id="Trazado_102610" class="st8" d="M668.2,7535.84h-13.57l8.4,22.01c0.31,0.82,1.1,1.37,1.98,1.37h7.44
				c3.52,0,6.37-2.86,6.38-6.38v-17L668.2,7535.84z"/>
			<path id="Trazado_102611" class="st9" d="M663.2,7519.06l-12.77-4.26c-2.25-0.73-4.66,0.5-5.39,2.75
				c-0.14,0.42-0.21,0.85-0.21,1.29v38.25c0,1.82,1.16,3.44,2.88,4.03l12.77,4.26c0.44,0.14,0.89,0.21,1.35,0.21
				c2.35,0,4.25-1.9,4.25-4.25v-38.25C666.07,7521.27,664.92,7519.65,663.2,7519.06L663.2,7519.06z"/>
			<path id="Trazado_102612" class="st10" d="M666.08,7540.09h-21.25v17c0,1.82,1.16,3.44,2.88,4.03l12.77,4.26
				c0.44,0.14,0.89,0.21,1.35,0.21c2.35,0,4.25-1.9,4.25-4.25L666.08,7540.09z"/>
		</g>
	</g>
</g>
</svg>
