<?xml version="1.0" encoding="utf-8"?>
<!-- Generator: Adobe Illustrator 25.2.3, SVG Export Plug-In . SVG Version: 6.00 Build 0)  -->
<svg version="1.1" id="Capa_1" xmlns="http://www.w3.org/2000/svg" xmlns:xlink="http://www.w3.org/1999/xlink" x="0px" y="0px"
	 viewBox="0 0 120 120" style="enable-background:new 0 0 120 120;" xml:space="preserve">
<style type="text/css">
	.st0{fill:#AED3F2;fill-opacity:0;}
	.st1{fill:#5E6178;}
	.st2{fill:#6595BF;}
	.st3{fill:#4C7FA5;}
	.st4{fill:#F5EDE9;}
	.st5{fill:#A9DCFF;}
	.st6{fill:#E2D1C9;}
	.st7{fill:#90D5FC;}
</style>
<g id="Grupo_54849" transform="translate(-323.278 -7479.34)">
	<rect id="Rectángulo_6856" x="343.28" y="7499.34" class="st0" width="80" height="80"/>
	<g id="Grupo_54848">
		<circle id="Elipse_4058" class="st1" cx="383.28" cy="7539.34" r="33.33"/>
		<g id="Grupo_54847">
			<path id="Trazado_102592" class="st2" d="M401.51,7515.52c-0.4-0.58-1.07-0.93-1.78-0.93h-23.17c-3.57,0-6.46,2.9-6.47,6.47v1.68
				l0.26,0.22l8.62,8.62c2.52,2.52,2.53,6.61,0,9.14c0,0,0,0,0,0l-8.62,8.62l-0.26,0.22v3.83c0,3.57,2.9,6.46,6.47,6.47h7.54
				c0.89,0,1.69-0.55,2.01-1.39l15.62-40.94C402.01,7516.85,401.92,7516.11,401.51,7515.52z"/>
			<path id="Trazado_102593" class="st3" d="M394.64,7536.14h-13.76c0.01,1.72-0.68,3.36-1.89,4.57l-8.62,8.62l-0.26,0.22v3.83
				c0,3.57,2.9,6.46,6.47,6.47h7.54c0.89,0,1.69-0.55,2.01-1.39L394.64,7536.14z"/>
			<path id="Trazado_102594" class="st4" d="M364.97,7546.75c-0.8-0.33-1.33-1.12-1.33-1.99v-6.47h-8.62
				c-1.19,0-2.15-0.96-2.15-2.15s0.96-2.15,2.15-2.15h8.62v-6.47c0-1.19,0.96-2.16,2.15-2.16c0.57,0,1.12,0.23,1.53,0.63l8.62,8.62
				c0.84,0.84,0.84,2.2,0,3.04c0,0,0,0,0,0l-8.62,8.62C366.7,7546.9,365.78,7547.08,364.97,7546.75L364.97,7546.75z"/>
			<path id="Trazado_102595" class="st5" d="M398.9,7514.8l-12.95,4.32c-1.75,0.6-2.92,2.24-2.92,4.09V7562
				c0,2.38,1.93,4.31,4.31,4.31c0.47,0,0.93-0.07,1.37-0.21l12.95-4.32c1.75-0.6,2.92-2.24,2.92-4.09v-38.79
				c-0.02-2.4-1.97-4.33-4.37-4.31C399.77,7514.59,399.33,7514.67,398.9,7514.8L398.9,7514.8z"/>
			<path id="Trazado_102596" class="st6" d="M376.57,7536.14h-23.7c0,1.19,0.97,2.16,2.16,2.16h8.62v6.47
				c0,1.19,0.96,2.16,2.15,2.16c0.57,0,1.12-0.23,1.52-0.63l8.62-8.62C376.35,7537.26,376.57,7536.71,376.57,7536.14z"/>
			<path id="Trazado_102597" class="st7" d="M383.04,7540.45h21.55v17.24c0,1.85-1.17,3.49-2.92,4.09l-12.95,4.32
				c-0.44,0.14-0.91,0.21-1.37,0.21c-2.38,0-4.31-1.93-4.31-4.31V7540.45z"/>
		</g>
	</g>
</g>
</svg>
