<svg xmlns="http://www.w3.org/2000/svg" width="520" height="419.273" viewBox="0 0 520 419.273">
  <g id="Grupo_53898" data-name="Grupo 53898" transform="translate(-407.981 -3840.776)">
    <g id="freepik--background-complete--inject-257" transform="translate(407.981 3840.776)">
      <rect id="Rectángulo_6495" data-name="Rectángulo 6495" width="520" height="0.4" transform="translate(0 368.451)" fill="#ebebeb"/>
      <rect id="Rectángulo_6496" data-name="Rectángulo 6496" width="37.273" height="0.281" transform="translate(426.345 386.558)" fill="#ebebeb"/>
      <rect id="Rectángulo_6497" data-name="Rectángulo 6497" width="9.78" height="0.281" transform="translate(320.278 389.619)" fill="#ebebeb"/>
      <rect id="Rectángulo_6498" data-name="Rectángulo 6498" width="21.596" height="0.281" transform="translate(403.624 376.115)" fill="#ebebeb"/>
      <rect id="Rectángulo_6499" data-name="Rectángulo 6499" width="48.605" height="0.281" transform="translate(16.345 378.005)" fill="#ebebeb"/>
      <rect id="Rectángulo_6500" data-name="Rectángulo 6500" width="7.124" height="0.281" transform="translate(74.978 378.005)" fill="#ebebeb"/>
      <rect id="Rectángulo_6501" data-name="Rectángulo 6501" width="105.426" height="0.281" transform="translate(105.262 382.754)" fill="#ebebeb"/>
      <path id="Trazado_100867" data-name="Trazado 100867" d="M631.97,4159.035H414.67a6.426,6.426,0,0,1-6.415-6.426V3847.146a6.425,6.425,0,0,1,6.415-6.37h217.3a6.426,6.426,0,0,1,6.426,6.426h0v305.407A6.427,6.427,0,0,1,631.97,4159.035ZM414.67,3841a6.143,6.143,0,0,0-6.133,6.145v305.463a6.146,6.146,0,0,0,6.133,6.145h217.3a6.157,6.157,0,0,0,6.145-6.145V3847.146A6.155,6.155,0,0,0,631.97,3841Z" transform="translate(-407.946 -3840.776)" fill="#ebebeb"/>
      <path id="Trazado_100868" data-name="Trazado 100868" d="M848.283,4159.035H630.971a6.438,6.438,0,0,1-6.426-6.426V3847.146a6.436,6.436,0,0,1,6.426-6.37H848.283a6.425,6.425,0,0,1,6.4,6.37v305.463A6.426,6.426,0,0,1,848.283,4159.035ZM630.971,3841a6.155,6.155,0,0,0-6.145,6.145v305.463a6.157,6.157,0,0,0,6.145,6.145H848.283a6.157,6.157,0,0,0,6.145-6.145V3847.146a6.155,6.155,0,0,0-6.145-6.145Z" transform="translate(-380.827 -3840.776)" fill="#ebebeb"/>
      <rect id="Rectángulo_6502" data-name="Rectángulo 6502" width="172.465" height="142.159" transform="translate(21.882 59.319)" fill="#ebebeb"/>
      <rect id="Rectángulo_6503" data-name="Rectángulo 6503" width="22.384" height="22.384" transform="translate(33.496 73.251)" fill="#f5f5f5"/>
      <rect id="Rectángulo_6504" data-name="Rectángulo 6504" width="22.384" height="22.384" transform="translate(162.398 130.837)" fill="#f5f5f5"/>
      <rect id="Rectángulo_6505" data-name="Rectángulo 6505" width="22.384" height="22.384" transform="translate(61.214 85.045)" fill="#f5f5f5"/>
      <rect id="Rectángulo_6506" data-name="Rectángulo 6506" width="22.384" height="22.384" transform="translate(137.155 137.882)" fill="#f5f5f5"/>
      <rect id="Rectángulo_6507" data-name="Rectángulo 6507" width="32.22" height="42.81" transform="translate(40.181 138.399)" fill="#f5f5f5"/>
      <rect id="Rectángulo_6508" data-name="Rectángulo 6508" width="32.22" height="42.81" transform="translate(76.97 138.726)" fill="#f5f5f5"/>
      <rect id="Rectángulo_6509" data-name="Rectángulo 6509" width="32.22" height="42.81" transform="translate(141.364 74.838)" fill="#f5f5f5"/>
      <rect id="Rectángulo_6510" data-name="Rectángulo 6510" width="114.474" height="240.011" transform="translate(348.233 28.652)" fill="#ebebeb"/>
      <rect id="Rectángulo_6511" data-name="Rectángulo 6511" width="119.763" height="11.299" transform="translate(345.588 25.523)" fill="#e0e0e0"/>
      <rect id="Rectángulo_6512" data-name="Rectángulo 6512" width="119.763" height="5.649" transform="translate(345.588 41.448)" fill="#e0e0e0"/>
      <rect id="Rectángulo_6513" data-name="Rectángulo 6513" width="119.763" height="5.649" transform="translate(345.588 49.832)" fill="#e0e0e0"/>
      <rect id="Rectángulo_6514" data-name="Rectángulo 6514" width="119.763" height="5.649" transform="translate(345.588 58.216)" fill="#e0e0e0"/>
      <rect id="Rectángulo_6515" data-name="Rectángulo 6515" width="119.763" height="5.649" transform="translate(345.588 66.6)" fill="#e0e0e0"/>
      <rect id="Rectángulo_6516" data-name="Rectángulo 6516" width="119.763" height="5.649" transform="translate(345.588 74.973)" fill="#e0e0e0"/>
      <rect id="Rectángulo_6517" data-name="Rectángulo 6517" width="119.763" height="5.649" transform="translate(345.588 83.357)" fill="#e0e0e0"/>
      <rect id="Rectángulo_6518" data-name="Rectángulo 6518" width="119.763" height="5.649" transform="translate(345.588 91.741)" fill="#e0e0e0"/>
      <rect id="Rectángulo_6519" data-name="Rectángulo 6519" width="119.763" height="5.649" transform="translate(345.588 100.125)" fill="#e0e0e0"/>
      <rect id="Rectángulo_6520" data-name="Rectángulo 6520" width="119.763" height="5.649" transform="translate(345.588 108.509)" fill="#e0e0e0"/>
      <rect id="Rectángulo_6521" data-name="Rectángulo 6521" width="119.763" height="5.649" transform="translate(345.588 116.882)" fill="#e0e0e0"/>
      <rect id="Rectángulo_6522" data-name="Rectángulo 6522" width="119.763" height="5.649" transform="translate(345.588 125.266)" fill="#e0e0e0"/>
      <rect id="Rectángulo_6523" data-name="Rectángulo 6523" width="119.763" height="5.649" transform="translate(345.588 133.65)" fill="#e0e0e0"/>
      <rect id="Rectángulo_6524" data-name="Rectángulo 6524" width="119.763" height="5.649" transform="translate(345.588 142.034)" fill="#e0e0e0"/>
      <rect id="Rectángulo_6525" data-name="Rectángulo 6525" width="119.763" height="5.649" transform="translate(345.588 150.419)" fill="#e0e0e0"/>
      <rect id="Rectángulo_6526" data-name="Rectángulo 6526" width="119.763" height="5.649" transform="translate(345.588 158.803)" fill="#e0e0e0"/>
      <rect id="Rectángulo_6527" data-name="Rectángulo 6527" width="119.763" height="5.649" transform="translate(345.588 167.176)" fill="#e0e0e0"/>
      <rect id="Rectángulo_6528" data-name="Rectángulo 6528" width="119.763" height="5.649" transform="translate(345.588 175.56)" fill="#e0e0e0"/>
      <rect id="Rectángulo_6529" data-name="Rectángulo 6529" width="119.763" height="5.649" transform="translate(345.588 183.944)" fill="#e0e0e0"/>
      <rect id="Rectángulo_6530" data-name="Rectángulo 6530" width="119.763" height="5.649" transform="translate(345.588 192.328)" fill="#e0e0e0"/>
      <rect id="Rectángulo_6531" data-name="Rectángulo 6531" width="119.763" height="5.649" transform="translate(345.588 200.712)" fill="#e0e0e0"/>
      <rect id="Rectángulo_6532" data-name="Rectángulo 6532" width="119.763" height="5.649" transform="translate(345.588 209.085)" fill="#e0e0e0"/>
      <rect id="Rectángulo_6533" data-name="Rectángulo 6533" width="119.763" height="5.649" transform="translate(345.588 217.469)" fill="#e0e0e0"/>
      <rect id="Rectángulo_6534" data-name="Rectángulo 6534" width="119.763" height="5.649" transform="translate(345.588 225.853)" fill="#e0e0e0"/>
      <rect id="Rectángulo_6535" data-name="Rectángulo 6535" width="119.763" height="5.649" transform="translate(345.588 234.237)" fill="#e0e0e0"/>
      <rect id="Rectángulo_6536" data-name="Rectángulo 6536" width="119.763" height="5.649" transform="translate(345.588 242.621)" fill="#e0e0e0"/>
      <rect id="Rectángulo_6537" data-name="Rectángulo 6537" width="119.763" height="5.649" transform="translate(345.588 251.006)" fill="#e0e0e0"/>
      <rect id="Rectángulo_6538" data-name="Rectángulo 6538" width="119.763" height="5.649" transform="translate(345.588 259.378)" fill="#e0e0e0"/>
      <path id="Trazado_100869" data-name="Trazado 100869" d="M442.941,4140.617c-.169-1.125-4.108-28.326,3.781-37.712a8.526,8.526,0,0,1,6.606-3.218c15.924-.383,18.107,12.379,18.13,12.548l-1.879.293c-.079-.462-1.958-11.254-16.206-10.95a6.67,6.67,0,0,0-5.143,2.555c-7.338,8.733-3.376,35.933-3.376,36.2Z" transform="translate(-403.739 -3808.313)" fill="#ebebeb"/>
      <path id="Trazado_100870" data-name="Trazado 100870" d="M445.6,4138.688l-1.891-.056c0-.248.63-25.04-11.591-30.16-11.963-5.02-17.353,5.29-17.578,5.739l-1.7-.855c.068-.124,6.381-12.379,20.021-6.64C446.28,4112.343,445.639,4137.619,445.6,4138.688Z" transform="translate(-407.371 -3807.623)" fill="#ebebeb"/>
      <path id="Trazado_100871" data-name="Trazado 100871" d="M445.19,4143.366c0-.394-.113-39.6-7.754-51.07-7.338-11.006-19.132-5.83-19.683-5.627l-.788-1.733c.146-.067,13.808-6.1,22.046,6.28,7.968,11.94,8.08,50.485,8.08,52.116Z" transform="translate(-406.854 -3810.354)" fill="#ebebeb"/>
      <path id="Trazado_100872" data-name="Trazado 100872" d="M454.635,4101.145s-6.977,2.543-4.918,8.62,24.05,16.014,24.05,16.014,9.206-8.44.754-22.17S454.793,4096.812,454.635,4101.145Z" transform="translate(-402.795 -3808.837)" fill="#e0e0e0"/>
      <path id="Trazado_100873" data-name="Trazado 100873" d="M437.673,4090.443s4.94-.529,4.5-3.545-19.154-10.748-30.239,1.778c0,0,7.1,12.188,17.365,12.379S437.673,4090.443,437.673,4090.443Z" transform="translate(-407.485 -3810.56)" fill="#e0e0e0"/>
      <path id="Trazado_100874" data-name="Trazado 100874" d="M432.776,4107.835s3.376-2.757-.27-4.1-21.72-.957-21.911,16.88c0,0,21.022,3.489,23.633-3.32S432.776,4107.835,432.776,4107.835Z" transform="translate(-407.653 -3807.864)" fill="#e0e0e0"/>
      <path id="Trazado_100875" data-name="Trazado 100875" d="M461.371,4172.394H428.757l-3.522-35.708h39.647Z" transform="translate(-405.817 -3803.673)" fill="#ebebeb"/>
      <rect id="Rectángulo_6539" data-name="Rectángulo 6539" width="43.125" height="7.878" transform="translate(17.685 329.073)" fill="#e0e0e0"/>
      <path id="Trazado_100876" data-name="Trazado 100876" d="M807.428,4150.518s-6.358-13.876.9-27.549,9.374-16.881,4.738-19.694-6.752,10.938-6.752,10.938-3.905-9.453-.675-19.345,5.244-26.007.833-27.729-.833,20.1-4.659,27.538a64.1,64.1,0,0,1-3.736-16.228c-.518-7.945.3-20.64-3.174-23.892s-5.706-1-2.251,16.532a183.91,183.91,0,0,1,3.376,31.792s-7.54-23-12.6-23.633-5.064,6.752-.72,13.246,12.683,18.006,14.056,23.993c0,0-8.283-17.32-15.755-12.008s6.493,15.755,12.694,19.537,10.522,27.459,10.522,27.459Z" transform="translate(-361.478 -3814.129)" fill="#e0e0e0"/>
      <path id="Trazado_100877" data-name="Trazado 100877" d="M800.746,4155.631s6.19-13.966-1.238-27.527-9.577-16.757-4.974-19.626,6.887,10.837,6.887,10.837,3.781-9.509.439-19.345-5.548-25.884-1.125-27.729,1.125,20.088,4.985,27.47a64.435,64.435,0,0,0,3.545-16.284c.428-7.945-.54-20.617,2.892-23.926s5.683-1.125,2.487,16.5a183.669,183.669,0,0,0-3.016,31.837s7.27-23.115,12.323-23.859,5.143,6.7.889,13.224-12.481,18.22-13.775,24.2c0,0,8.069-17.432,15.575-12.233s-6.291,15.857-12.458,19.729S804,4156.5,804,4156.5Z" transform="translate(-359.816 -3813.513)" fill="#ebebeb"/>
      <path id="Trazado_100878" data-name="Trazado 100878" d="M830.852,4135.9H779.715l4.13,36.6h42.866Z" transform="translate(-361.371 -3803.772)" fill="#ebebeb"/>
      <path id="Trazado_100879" data-name="Trazado 100879" d="M705.321,4137.065l-3.376-.483c.608-4.209,4.119-12.166,13.122-12.166,10.669,0,15.969,6.156,16.509,12.255l-3.376.292c-.405-4.569-4.614-9.172-13.145-9.172C706.8,4127.792,705.434,4136.683,705.321,4137.065Z" transform="translate(-371.122 -3805.212)" fill="#e0e0e0"/>
      <rect id="Rectángulo_6540" data-name="Rectángulo 6540" width="65.711" height="39.231" rx="4.83" transform="translate(313.424 328.882)" fill="#ebebeb"/>
      <path id="Trazado_100880" data-name="Trazado 100880" d="M733.729,4172.418c-46.433,0-48.684-31.86-48.684-32.231l1.891-3.691c.068,1.181,3.725,32.5,46.85,32.5,17.736,0,33.064,0,34.617-3.376,1.362-2.994-5.3-10.646-15.958-22.924v-4.7c13.583,15.643,21.292,24.061,19.03,29.024C769.055,4172.2,758.792,4172.418,733.729,4172.418Z" transform="translate(-373.241 -3803.697)" fill="#e0e0e0"/>
    </g>
    <g id="freepik--Shadow--inject-257" transform="translate(428.434 4234.57)">
      <ellipse id="freepik--path--inject-257" cx="218.201" cy="12.739" rx="218.201" ry="12.739" fill="#f5f5f5"/>
    </g>
    <g id="freepik--Chart--inject-257" transform="translate(486.087 3881.008)">
      <path id="Trazado_100881" data-name="Trazado 100881" d="M731.024,3878.022a5.627,5.627,0,0,1,5.627,5.627v183.7a5.628,5.628,0,0,1-5.627,5.627H484.374a5.627,5.627,0,0,1-5.627-5.627V3883.56a5.626,5.626,0,0,1,5.627-5.627H731.024m0-1.407H484.374a6.988,6.988,0,0,0-6.989,6.989v183.832a6.989,6.989,0,0,0,6.989,6.988H731.024a6.989,6.989,0,0,0,6.989-6.988V3883.56a6.988,6.988,0,0,0-6.989-6.989Z" transform="translate(-477.385 -3876.526)" fill="#6595bf"/>
      <rect id="Rectángulo_6541" data-name="Rectángulo 6541" width="260.628" height="197.719" rx="6.21" transform="translate(0 0.09)" fill="#fff" opacity="0.7" style="isolation: isolate"/>
      <rect id="Rectángulo_6542" data-name="Rectángulo 6542" width="3.23" height="2.69" transform="translate(228.318 20.594)" fill="#6595bf"/>
      <path id="Trazado_100882" data-name="Trazado 100882" d="M683.484,4044.678h-3.219v-5.29h3.219Zm0-10.579h-3.219v-5.289h3.219Zm0-10.567h-3.219v-5.29h3.219Zm0-10.579h-3.219v-5.278h3.219Zm0-10.567h-3.219V3997.1h3.219Zm0-10.579h-3.219v-5.278h3.219Zm0-10.567h-3.219v-5.289h3.219Zm0-10.567h-3.219v-5.29h3.219Zm0-10.579h-3.219v-5.289h3.219Zm0-10.567h-3.219v-5.29h3.219Zm0-10.579h-3.219v-5.278h3.219Zm0-10.567h-3.219v-5.289h3.219Zm0-10.579h-3.219v-5.278h3.219Zm0-10.567h-3.219v-5.289h3.219Z" transform="translate(-451.947 -3873.339)" fill="#6595bf"/>
      <rect id="Rectángulo_6543" data-name="Rectángulo 6543" width="3.23" height="2.69" transform="translate(228.318 176.572)" fill="#6595bf"/>
      <path id="Trazado_100883" data-name="Trazado 100883" d="M510.145,4029.365h-3.23v-5.29h3.23Z" transform="translate(-473.682 -3858.025)" fill="#6595bf"/>
      <rect id="Rectángulo_6544" data-name="Rectángulo 6544" width="3.23" height="2.69" transform="translate(33.233 176.572)" fill="#6595bf"/>
      <path id="Trazado_100884" data-name="Trazado 100884" d="M544.815,4032.9h-3.23v-5.29h3.23Zm0-10.579h-3.23v-5.289h3.23Zm0-10.567h-3.23v-5.29h3.23Zm0-10.579h-3.23V3995.9h3.23Z" transform="translate(-469.335 -3861.559)" fill="#6595bf"/>
      <rect id="Rectángulo_6545" data-name="Rectángulo 6545" width="3.23" height="2.69" transform="translate(72.25 176.572)" fill="#6595bf"/>
      <path id="Trazado_100885" data-name="Trazado 100885" d="M579.485,4034.077h-3.23v-5.29h3.23Zm0-10.579h-3.23v-5.289h3.23Zm0-10.567h-3.23v-5.29h3.23Zm0-10.579h-3.23v-5.278h3.23Zm0-10.567h-3.23V3986.5h3.23Z" transform="translate(-464.988 -3862.737)" fill="#6595bf"/>
      <rect id="Rectángulo_6546" data-name="Rectángulo 6546" width="3.23" height="2.69" transform="translate(111.267 176.572)" fill="#6595bf"/>
      <path id="Trazado_100886" data-name="Trazado 100886" d="M614.155,4037.611h-3.23v-5.29h3.23Zm0-10.579h-3.23v-5.289h3.23Zm0-10.567h-3.23v-5.29h3.23Zm0-10.579h-3.23v-5.278h3.23Zm0-10.567h-3.23v-5.289h3.23Zm0-10.579h-3.23v-5.278h3.23Zm0-10.567h-3.23v-5.289h3.23Zm0-10.567h-3.23v-5.29h3.23Z" transform="translate(-460.641 -3866.271)" fill="#6595bf"/>
      <rect id="Rectángulo_6547" data-name="Rectángulo 6547" width="3.23" height="2.69" transform="translate(150.284 176.572)" fill="#6595bf"/>
      <path id="Trazado_100887" data-name="Trazado 100887" d="M648.825,4039.967h-3.23v-5.29h3.23Zm0-10.579h-3.23V4024.1h3.23Zm0-10.567h-3.23v-5.29h3.23Zm0-10.579h-3.23v-5.278h3.23Zm0-10.567h-3.23v-5.289h3.23Zm0-10.579h-3.23v-5.278h3.23Zm0-10.567h-3.23v-5.289h3.23Zm0-10.567h-3.23v-5.29h3.23Zm0-10.579h-3.23v-5.289h3.23Zm0-10.567h-3.23v-5.29h3.23Z" transform="translate(-456.294 -3868.626)" fill="#6595bf"/>
      <rect id="Rectángulo_6548" data-name="Rectángulo 6548" width="3.23" height="2.69" transform="translate(189.301 176.572)" fill="#6595bf"/>
      <g id="Grupo_53888" data-name="Grupo 53888" transform="translate(33.233 20.594)" opacity="0.7">
        <rect id="Rectángulo_6549" data-name="Rectángulo 6549" width="3.23" height="2.69" transform="translate(195.085)" fill="#fff"/>
        <path id="Trazado_100888" data-name="Trazado 100888" d="M683.484,4044.678h-3.219v-5.29h3.219Zm0-10.579h-3.219v-5.289h3.219Zm0-10.567h-3.219v-5.29h3.219Zm0-10.579h-3.219v-5.278h3.219Zm0-10.567h-3.219V3997.1h3.219Zm0-10.579h-3.219v-5.278h3.219Zm0-10.567h-3.219v-5.289h3.219Zm0-10.567h-3.219v-5.29h3.219Zm0-10.579h-3.219v-5.289h3.219Zm0-10.567h-3.219v-5.29h3.219Zm0-10.579h-3.219v-5.278h3.219Zm0-10.567h-3.219v-5.289h3.219Zm0-10.579h-3.219v-5.278h3.219Zm0-10.567h-3.219v-5.289h3.219Z" transform="translate(-485.179 -3893.933)" fill="#fff"/>
        <rect id="Rectángulo_6550" data-name="Rectángulo 6550" width="3.23" height="2.69" transform="translate(195.085 155.978)" fill="#fff"/>
        <path id="Trazado_100889" data-name="Trazado 100889" d="M510.145,4029.365h-3.23v-5.29h3.23Z" transform="translate(-506.915 -3878.619)" fill="#fff"/>
        <rect id="Rectángulo_6551" data-name="Rectángulo 6551" width="3.23" height="2.69" transform="translate(0 155.978)" fill="#fff"/>
        <path id="Trazado_100890" data-name="Trazado 100890" d="M544.815,4032.9h-3.23v-5.29h3.23Zm0-10.579h-3.23v-5.289h3.23Zm0-10.567h-3.23v-5.29h3.23Zm0-10.579h-3.23V3995.9h3.23Z" transform="translate(-502.568 -3882.153)" fill="#fff"/>
        <rect id="Rectángulo_6552" data-name="Rectángulo 6552" width="3.23" height="2.69" transform="translate(39.017 155.978)" fill="#fff"/>
        <path id="Trazado_100891" data-name="Trazado 100891" d="M579.485,4034.077h-3.23v-5.29h3.23Zm0-10.579h-3.23v-5.289h3.23Zm0-10.567h-3.23v-5.29h3.23Zm0-10.579h-3.23v-5.278h3.23Zm0-10.567h-3.23V3986.5h3.23Z" transform="translate(-498.221 -3883.332)" fill="#fff"/>
        <rect id="Rectángulo_6553" data-name="Rectángulo 6553" width="3.23" height="2.69" transform="translate(78.034 155.978)" fill="#fff"/>
        <path id="Trazado_100892" data-name="Trazado 100892" d="M614.155,4037.611h-3.23v-5.29h3.23Zm0-10.579h-3.23v-5.289h3.23Zm0-10.567h-3.23v-5.29h3.23Zm0-10.579h-3.23v-5.278h3.23Zm0-10.567h-3.23v-5.289h3.23Zm0-10.579h-3.23v-5.278h3.23Zm0-10.567h-3.23v-5.289h3.23Zm0-10.567h-3.23v-5.29h3.23Z" transform="translate(-493.874 -3886.865)" fill="#fff"/>
        <rect id="Rectángulo_6554" data-name="Rectángulo 6554" width="3.23" height="2.69" transform="translate(117.051 155.978)" fill="#fff"/>
        <path id="Trazado_100893" data-name="Trazado 100893" d="M648.825,4039.967h-3.23v-5.29h3.23Zm0-10.579h-3.23V4024.1h3.23Zm0-10.567h-3.23v-5.29h3.23Zm0-10.579h-3.23v-5.278h3.23Zm0-10.567h-3.23v-5.289h3.23Zm0-10.579h-3.23v-5.278h3.23Zm0-10.567h-3.23v-5.289h3.23Zm0-10.567h-3.23v-5.29h3.23Zm0-10.579h-3.23v-5.289h3.23Zm0-10.567h-3.23v-5.29h3.23Z" transform="translate(-489.527 -3889.221)" fill="#fff"/>
        <rect id="Rectángulo_6555" data-name="Rectángulo 6555" width="3.23" height="2.69" transform="translate(156.068 155.978)" fill="#fff"/>
      </g>
      <path id="Trazado_100894" data-name="Trazado 100894" d="M613.895,3953.526l37.362,7.022H690.2" transform="translate(-460.269 -3866.871)" fill="none" stroke="#d9a171" stroke-miterlimit="10" stroke-width="4"/>
      <path id="Trazado_100895" data-name="Trazado 100895" d="M704.051,3890.026a5.392,5.392,0,0,0-4.907,7.619l-32.2,34.054a5.38,5.38,0,0,0-7.337,5.02,4.332,4.332,0,0,0,0,.54l-30.3,16.228a5.317,5.317,0,0,0-3.376-1.25,5.4,5.4,0,0,0-5.391,5.391,5.546,5.546,0,0,0,.236,1.5l-31.274,24.916a5.28,5.28,0,0,0-2.611-.708,5.39,5.39,0,0,0-5.334,4.749l-29.474,8.08a5.368,5.368,0,0,0-9.633,3.286,5.16,5.16,0,0,0,.236,1.5l-31.274,24.973a5.251,5.251,0,0,0-2.611-.709,5.4,5.4,0,1,0,5.391,5.413v-.022a5.572,5.572,0,0,0-.236-1.5l31.286-24.916a5.272,5.272,0,0,0,2.611.709,5.391,5.391,0,0,0,5.323-4.738l29.474-8.091a5.368,5.368,0,0,0,9.645-3.286,5.57,5.57,0,0,0-.236-1.5l31.274-24.917a5.312,5.312,0,0,0,2.611.709,5.4,5.4,0,0,0,5.4-5.391,1.842,1.842,0,0,0-.056-.552l30.3-16.217a5.368,5.368,0,0,0,8.317-6.358l32.208-34.065a5.251,5.251,0,0,0,1.936.383,5.4,5.4,0,0,0,0-10.792Z" transform="translate(-474.124 -3874.833)" fill="#6595bf"/>
      <path id="Trazado_100896" data-name="Trazado 100896" d="M576,3971.427a1.563,1.563,0,0,0-1.429.912H542.65a2.1,2.1,0,0,1-2.1-2.1v-33.458H539.2v33.48a3.455,3.455,0,0,0,3.455,3.443h31.916a1.576,1.576,0,1,0,1.429-2.25Z" transform="translate(-469.635 -3868.971)" fill="#6595bf"/>
      <rect id="Rectángulo_6556" data-name="Rectángulo 6556" width="43.294" height="16.419" rx="2.59" transform="translate(48.583 58.475)" fill="#6595bf"/>
      <g id="Grupo_53889" data-name="Grupo 53889" transform="translate(48.583 58.475)" opacity="0.4">
        <path id="Trazado_100897" data-name="Trazado 100897" d="M576,3971.427a1.563,1.563,0,0,0-1.429.912H542.65a2.1,2.1,0,0,1-2.1-2.1v-33.458H539.2v33.48a3.455,3.455,0,0,0,3.455,3.443h31.916a1.576,1.576,0,1,0,1.429-2.25Z" transform="translate(-518.218 -3927.446)" fill="#fff"/>
        <rect id="Rectángulo_6557" data-name="Rectángulo 6557" width="43.294" height="16.419" rx="2.59" fill="#fff"/>
      </g>
      <path id="Trazado_100898" data-name="Trazado 100898" d="M613.146,3942.721v-48.245h-1.339v48.245a1.586,1.586,0,1,0,1.339,0Z" transform="translate(-460.646 -3874.275)" fill="#6595bf"/>
      <rect id="Rectángulo_6558" data-name="Rectángulo 6558" width="81.399" height="30.871" rx="4.87" transform="translate(111.132 4.759)" fill="#d9a171"/>
      <g id="Grupo_53890" data-name="Grupo 53890" transform="translate(150.244 30.329)" opacity="0.4">
        <path id="Trazado_100899" data-name="Trazado 100899" d="M613.146,3941.593v-38.117h-1.339v38.117a1.586,1.586,0,1,0,1.339,0Z" transform="translate(-610.89 -3903.476)" fill="#fff"/>
      </g>
      <path id="Trazado_100900" data-name="Trazado 100900" d="M717.359,4042.571H494.735a4.265,4.265,0,0,1,4.254-4.266h214.1a4.265,4.265,0,0,1,4.265,4.266Z" transform="translate(-475.209 -3856.241)" fill="#6595bf"/>
      <path id="Trazado_100901" data-name="Trazado 100901" d="M717.359,4042.571H494.735a4.265,4.265,0,0,1,4.254-4.266h214.1a4.265,4.265,0,0,1,4.265,4.266Z" transform="translate(-475.209 -3856.241)" fill="#fff" opacity="0.4" style="isolation: isolate"/>
      <circle id="Elipse_4025" data-name="Elipse 4025" cx="3.86" cy="3.86" r="3.86" transform="translate(69.875 120.754)" fill="#fff" opacity="0.2" style="isolation: isolate"/>
      <circle id="Elipse_4026" data-name="Elipse 4026" cx="3.86" cy="3.86" r="3.86" transform="translate(108.926 110.04)" fill="#fff" opacity="0.4" style="isolation: isolate"/>
      <circle id="Elipse_4027" data-name="Elipse 4027" cx="3.86" cy="3.86" r="3.86" transform="translate(147.966 78.934)" fill="#fff" opacity="0.6" style="isolation: isolate"/>
      <g id="Grupo_53891" data-name="Grupo 53891" transform="translate(184.568 87.859)">
        <circle id="Elipse_4028" data-name="Elipse 4028" cx="5.818" cy="5.818" r="5.818" fill="#a66d58" style="isolation: isolate"/>
        <circle id="Elipse_4029" data-name="Elipse 4029" cx="3.86" cy="3.86" r="3.86" transform="translate(1.958 1.958)" fill="#d9a171" style="isolation: isolate"/>
      </g>
      <g id="Grupo_53892" data-name="Grupo 53892" transform="translate(224.657 87.859)">
        <circle id="Elipse_4030" data-name="Elipse 4030" cx="5.818" cy="5.818" r="5.818" fill="#a66d58" style="isolation: isolate"/>
        <circle id="Elipse_4031" data-name="Elipse 4031" cx="3.86" cy="3.86" r="3.86" transform="translate(1.958 1.958)" fill="#d9a171" style="isolation: isolate"/>
      </g>
      <circle id="Elipse_4032" data-name="Elipse 4032" cx="3.86" cy="3.86" r="3.86" transform="translate(187.016 58.025)" fill="#fff" opacity="0.8" style="isolation: isolate"/>
      <circle id="Elipse_4033" data-name="Elipse 4033" cx="3.86" cy="3.86" r="3.86" transform="translate(226.067 16.734)" fill="#fff"/>
    </g>
    <g id="freepik--character-2--inject-257" transform="translate(718.973 3873.557)">
      <g id="freepik--group--inject-257">
        <path id="Trazado_100902" data-name="Trazado 100902" d="M803.751,4038.776l4.794,12.6s5.492,3.095,5.908,3.973,1.632,11.614.765,12.75-12.053-1.823-12.075-2.993-.551-10.759-.551-10.759l-6.437-13.775Z" transform="translate(-670.302 -3848.731)" fill="#e4897b"/>
        <path id="Trazado_100903" data-name="Trazado 100903" d="M783.318,3950.406c8.339,5,9.228,50.383,10.567,54.626s17.826,50.98,17.826,50.98l-11.591,4.5s-16.487-34.718-20.043-44.542-5.942-32.074-5.942-32.074Z" transform="translate(-673.063 -3859.812)" fill="#6595bf"/>
        <path id="Trazado_100904" data-name="Trazado 100904" d="M783.318,3950.406c8.339,5,9.228,50.383,10.567,54.626s17.826,50.98,17.826,50.98l-11.591,4.5s-16.487-34.718-20.043-44.542-5.942-32.074-5.942-32.074Z" transform="translate(-673.063 -3859.812)" opacity="0.2" style="isolation: isolate"/>
        <path id="Trazado_100905" data-name="Trazado 100905" d="M779.311,3945.767c-12.559-6.9-28.787-5.447-28.787-5.447l-14.472,20.46-20.426,73.026,3,2.735,1.283-5.8,55.538,5.627.934,7.563,3.2-1.564,1.891-89.772Z" transform="translate(-680.399 -3861.092)" fill="#6595bf"/>
        <path id="Trazado_100906" data-name="Trazado 100906" d="M779.311,3945.767c-12.559-6.9-28.787-5.447-28.787-5.447l-14.472,20.46-20.426,73.026,3,2.735,1.283-5.8,55.538,5.627.934,7.563,3.2-1.564,1.891-89.772Z" transform="translate(-680.399 -3861.092)" opacity="0.4" style="isolation: isolate"/>
        <path id="Trazado_100907" data-name="Trazado 100907" d="M704.515,3901.349l-4.006-13.583a55.18,55.18,0,0,0,.709-8.666c-.236-2.476-6.055-7.213-7.878-8.879s-9.363,3.736-9,4.906,4.76,10.343,6.156,11.4l2.251,1.271,3.477,17.106Z" transform="translate(-684.324 -3869.905)" fill="#e4897b"/>
        <path id="Trazado_100908" data-name="Trazado 100908" d="M742.436,3947.9c-12.739-6.527-22.451-16.611-26.019-22.508s-14.067-36.744-14.067-36.744l-11.085,1.688s6.674,37.892,10.241,46.141,36.316,38.184,36.316,38.184Z" transform="translate(-683.454 -3867.555)" fill="#6595bf"/>
        <path id="Trazado_100909" data-name="Trazado 100909" d="M742.436,3947.9c-12.739-6.527-22.451-16.611-26.019-22.508s-14.067-36.744-14.067-36.744l-11.085,1.688s6.674,37.892,10.241,46.141,36.316,38.184,36.316,38.184Z" transform="translate(-683.454 -3867.555)" opacity="0.2" style="isolation: isolate"/>
        <path id="Trazado_100910" data-name="Trazado 100910" d="M730.584,4196.52l-9.127.968-1.722-19.694,9.138-.968Z" transform="translate(-679.884 -3831.422)" fill="#e4897b"/>
        <path id="Trazado_100911" data-name="Trazado 100911" d="M770.922,4196.019h-8.846l-.732-20.493H770.2Z" transform="translate(-674.667 -3831.585)" fill="#e4897b"/>
        <path id="Trazado_100912" data-name="Trazado 100912" d="M762.735,4192.827h10.747a.774.774,0,0,1,.754.607l1.744,7.878a1.307,1.307,0,0,1-1.013,1.542,1.291,1.291,0,0,1-.281,0c-3.477-.056-6.01-.27-10.376-.27-2.69,0-10.8.281-14.517.281s-4.2-3.669-2.678-4.006c6.82-1.485,11.952-3.545,14.135-5.5A2.122,2.122,0,0,1,762.735,4192.827Z" transform="translate(-676.552 -3829.416)" fill="#344154"/>
        <path id="Trazado_100913" data-name="Trazado 100913" d="M758.545,4194.457a2.653,2.653,0,0,1-1.7-.45,1.224,1.224,0,0,1-.439-1.125.619.619,0,0,1,.36-.585c.979-.507,3.838,1.249,4.153,1.452a.2.2,0,0,1,.1.2.215.215,0,0,1-.158.181A10.989,10.989,0,0,1,758.545,4194.457Zm-1.317-1.834a.434.434,0,0,0-.27.056c-.056,0-.124.079-.135.248a.867.867,0,0,0,.281.754,4.306,4.306,0,0,0,3.151.157A8.41,8.41,0,0,0,757.228,4192.623Z" transform="translate(-675.287 -3829.494)" fill="#6595bf"/>
        <path id="Trazado_100914" data-name="Trazado 100914" d="M760.606,4194.364h-.1c-.912-.5-2.678-2.442-2.5-3.376a.686.686,0,0,1,.675-.551,1.123,1.123,0,0,1,.889.27c1.024.833,1.238,3.376,1.249,3.5a.25.25,0,0,1-.1.191A.2.2,0,0,1,760.606,4194.364Zm-1.778-3.545h-.1c-.27,0-.293.158-.3.214-.112.574,1.013,2.048,1.924,2.735A4.966,4.966,0,0,0,759.3,4191,.754.754,0,0,0,758.828,4190.819Z" transform="translate(-675.087 -3829.717)" fill="#6595bf"/>
        <path id="Trazado_100915" data-name="Trazado 100915" d="M722.235,4192.577h10.747a.774.774,0,0,1,.754.607l1.744,7.878a1.306,1.306,0,0,1-1.013,1.541,1.232,1.232,0,0,1-.281,0c-3.477-.056-6.01-.27-10.376-.27-2.69,0-10.8.281-14.517.281s-4.2-3.669-2.678-4.006c6.82-1.485,11.952-3.545,14.135-5.5A2.122,2.122,0,0,1,722.235,4192.577Z" transform="translate(-681.63 -3829.448)" fill="#344154"/>
        <path id="Trazado_100916" data-name="Trazado 100916" d="M718.045,4194.207a2.656,2.656,0,0,1-1.7-.45,1.225,1.225,0,0,1-.439-1.125.617.617,0,0,1,.36-.585c.979-.507,3.838,1.249,4.153,1.452a.2.2,0,0,1,.1.2.214.214,0,0,1-.158.18A10.958,10.958,0,0,1,718.045,4194.207Zm-1.317-1.834a.435.435,0,0,0-.27.056c-.056,0-.124.079-.135.248a.868.868,0,0,0,.281.754,4.306,4.306,0,0,0,3.151.157A8.42,8.42,0,0,0,716.728,4192.373Z" transform="translate(-680.366 -3829.525)" fill="#6595bf"/>
        <path id="Trazado_100917" data-name="Trazado 100917" d="M720.106,4194.114H720c-.912-.5-2.678-2.441-2.5-3.376a.686.686,0,0,1,.675-.551,1.123,1.123,0,0,1,.889.27c1.024.833,1.238,3.376,1.249,3.5a.25.25,0,0,1-.1.191A.2.2,0,0,1,720.106,4194.114Zm-1.778-3.59h-.1c-.27,0-.293.158-.3.214-.112.574,1.013,2.049,1.924,2.735a4.962,4.962,0,0,0-1.047-2.769A.752.752,0,0,0,718.328,4190.524Z" transform="translate(-680.165 -3829.748)" fill="#6595bf"/>
        <path id="Trazado_100918" data-name="Trazado 100918" d="M728.873,4176.826l-9.138.968.9,10.163,9.127-.968Z" transform="translate(-679.884 -3831.422)" opacity="0.2" style="isolation: isolate"/>
        <path id="Trazado_100919" data-name="Trazado 100919" d="M770.2,4175.536h-8.857l.383,10.567h8.857Z" transform="translate(-674.667 -3831.584)" opacity="0.2" style="isolation: isolate"/>
        <path id="Trazado_100920" data-name="Trazado 100920" d="M772.529,4015.776H725.578c-4.5,24.388-18.445,110.659-8.418,187.523l15.9-1.969s-1.474-102.027,12.548-139.75c1.621,20.189,3.534,41.639,5.2,53.107,4.085,28.134,12.829,89.614,12.829,89.614h16.183s-3.309-58.847-4.839-86.5C773.317,4087.8,772.619,4021.966,772.529,4015.776Z" transform="translate(-680.652 -3851.615)" fill="#344154"/>
        <path id="Trazado_100921" data-name="Trazado 100921" d="M742.653,4058.337a125.791,125.791,0,0,0-5.244,20.313c-1.317-18.006,3.939-37.014,3.939-37.014Z" transform="translate(-677.694 -3848.372)" opacity="0.2" style="isolation: isolate"/>
        <path id="Trazado_100922" data-name="Trazado 100922" d="M715.31,4186.649l19.672-2.926-.6-5.447-20.471,2.689Z" transform="translate(-680.614 -3831.24)" fill="#6595bf"/>
        <path id="Trazado_100923" data-name="Trazado 100923" d="M715.31,4186.649l19.672-2.926-.6-5.447-20.471,2.689Z" transform="translate(-680.614 -3831.24)" fill="#fff" opacity="0.6" style="isolation: isolate"/>
        <path id="Trazado_100924" data-name="Trazado 100924" d="M756.425,4184.092h19.087v-5.706l-19.807-.371Z" transform="translate(-675.374 -3831.273)" fill="#6595bf"/>
        <path id="Trazado_100925" data-name="Trazado 100925" d="M756.425,4184.092h19.087v-5.706l-19.807-.371Z" transform="translate(-675.374 -3831.273)" fill="#fff" opacity="0.6" style="isolation: isolate"/>
        <path id="Trazado_100926" data-name="Trazado 100926" d="M723.963,4016.3h47.266v5.627l-47.874-.574Z" transform="translate(-679.43 -3851.55)" fill="#344154"/>
        <path id="Trazado_100927" data-name="Trazado 100927" d="M723.963,4016.3h47.266v5.627l-47.874-.574Z" transform="translate(-679.43 -3851.55)" fill="#fff" opacity="0.2" style="isolation: isolate"/>
        <rect id="Rectángulo_6559" data-name="Rectángulo 6559" width="1.688" height="9.993" transform="translate(74.918 162.214)" fill="#344154"/>
        <rect id="Rectángulo_6560" data-name="Rectángulo 6560" width="1.688" height="9.993" transform="translate(51.004 162.214)" fill="#344154"/>
        <path id="Trazado_100928" data-name="Trazado 100928" d="M738.341,3941.3s29.823,2.082,51.273,10.252c0,0-15.519,47.975-18.423,75.963l-47.266-1.812S727.256,3969.228,738.341,3941.3Z" transform="translate(-679.359 -3860.954)" fill="#6595bf"/>
        <path id="Trazado_100929" data-name="Trazado 100929" d="M789.611,3951.546s-3.095,9.565-6.752,22.631c-1.362,4.862-2.813,10.207-4.22,15.755-3.264,12.9-6.3,26.75-7.428,37.6l-47.266-1.812s3.376-56.472,14.45-84.4C738.339,3941.293,768.161,3943.375,789.611,3951.546Z" transform="translate(-679.356 -3860.951)" fill="#fff" opacity="0.7" style="isolation: isolate"/>
        <path id="Trazado_100930" data-name="Trazado 100930" d="M769.868,3948.385c-4.738,3.376-15.058.72-15.058.72s-6.336-2.555-4.727-4.445c3.928-.18,6.01-1.767,7.056-3.973a11.418,11.418,0,0,0,.9-4.366,22.908,22.908,0,0,0,0-2.487l14.056-8.058C769.655,3931.887,766.211,3943.3,769.868,3948.385Z" transform="translate(-676.111 -3862.9)" fill="#e4897b"/>
        <path id="Trazado_100931" data-name="Trazado 100931" d="M767.569,3930.866c-1.418,7.709-8.069,9.116-11.254,9.183a11.421,11.421,0,0,0,.9-4.366Z" transform="translate(-675.297 -3862.261)" opacity="0.2" style="isolation: isolate"/>
        <path id="Trazado_100932" data-name="Trazado 100932" d="M760.493,3903.6s-8.114,9.284-5.177,16.712,15.136-11.7,15.136-11.7Z" transform="translate(-675.503 -3865.681)" fill="#344154"/>
        <path id="Trazado_100933" data-name="Trazado 100933" d="M766.465,3938.313a11.063,11.063,0,0,1-13.021-3.219,12.276,12.276,0,0,1-2.847-8.609,10.565,10.565,0,0,1,.135-1.305c1.317-7.99,7.461-19.525,16.734-19.413a12,12,0,0,1,10.646,17.466C774.2,3931.1,772.295,3935.9,766.465,3938.313Z" transform="translate(-676.017 -3865.409)" fill="#e4897b"/>
        <path id="Trazado_100934" data-name="Trazado 100934" d="M763.444,3918.89c-.225.664-.844,1.046-1.272.855s-.551-.867-.281-1.52.855-1.035,1.283-.855S763.725,3918.215,763.444,3918.89Z" transform="translate(-674.616 -3863.959)" fill="#344154"/>
        <path id="Trazado_100935" data-name="Trazado 100935" d="M756.845,3916.11c-.236.664-.855,1.035-1.283.855s-.551-.866-.281-1.519.855-1.035,1.283-.855S757.1,3915.48,756.845,3916.11Z" transform="translate(-675.445 -3864.308)" fill="#344154"/>
        <path id="Trazado_100936" data-name="Trazado 100936" d="M759.238,3917.106a25.2,25.2,0,0,1-5.5,4.3,4.111,4.111,0,0,0,2.915,1.924Z" transform="translate(-675.621 -3863.987)" fill="#de5753"/>
        <path id="Trazado_100937" data-name="Trazado 100937" d="M766.486,3917.821a.417.417,0,0,1-.3-.3,3.376,3.376,0,0,0-1.936-2.341.418.418,0,0,1-.259-.529h0a.427.427,0,0,1,.529-.259h0a4.13,4.13,0,0,1,2.465,2.915.4.4,0,0,1-.259.511l-.022.007Z" transform="translate(-674.338 -3864.33)" fill="#344154"/>
        <path id="Trazado_100938" data-name="Trazado 100938" d="M756.054,3926.115h0a6.451,6.451,0,0,0,5.919.405.225.225,0,0,0-.18-.405h0a6.182,6.182,0,0,1-5.492-.4.212.212,0,0,0-.293.056h0a.224.224,0,0,0,.056.3Z" transform="translate(-675.34 -3862.912)" fill="#344154"/>
        <path id="Trazado_100939" data-name="Trazado 100939" d="M754.815,3912.664a.549.549,0,0,1-.236-.079.427.427,0,0,1,0-.6h0a4.106,4.106,0,0,1,3.691-1,.416.416,0,0,1,.293.506h0a.429.429,0,0,1-.518.281h0a3.375,3.375,0,0,0-2.915.844A.476.476,0,0,1,754.815,3912.664Z" transform="translate(-675.53 -3864.766)" fill="#344154"/>
        <path id="Trazado_100940" data-name="Trazado 100940" d="M774.444,3910.116l-2.093,3.286a2.87,2.87,0,0,1-.259,3.894c-2.521,2.4-3.027,7.742-1.654,10.624,0,0,.686-1.238,1.609-.428s-2.532,7.292-6.122,9.442c0,0,4.5-1.339,9.622-7.428,4.715-5.627,7.484-10.882,7.349-14Z" transform="translate(-674.092 -3864.863)" fill="#344154"/>
        <path id="Trazado_100941" data-name="Trazado 100941" d="M776.627,3929.237a8.3,8.3,0,0,1-6.043,2.025c-2.915-.214-3.376-3.061-1.744-5.3,1.474-1.981,4.783-4.321,7.3-2.971S778.652,3927.425,776.627,3929.237Z" transform="translate(-673.844 -3863.299)" fill="#e4897b"/>
        <path id="Trazado_100942" data-name="Trazado 100942" d="M770.286,3910.614s1.4-1.306,1.508,1.632,1.879,4.929,5.886,7,5.278,2.251,5.278,2.251,6.516-6.156-.293-13.167c0,0,.315-3.612-3.973-5.965-7.371-4.051-17.488-2.374-21.045,1.722a5.93,5.93,0,0,0-1.283,6.133S768,3904.042,770.286,3910.614Z" transform="translate(-675.336 -3866.127)" fill="#344154"/>
        <path id="Trazado_100943" data-name="Trazado 100943" d="M769.181,3941.324l-13.043,4.142-.2-4.569-4.749,1.069a3.769,3.769,0,0,0-2.937,3.635l-.068,4.975,5.188-2.094s-7.731,18.142-8.744,43.89c0,0,2.948-27.752,10.961-43.192l1.9,3.5,15.755-5.424Z" transform="translate(-676.763 -3861.004)" fill="#6595bf"/>
        <path id="Trazado_100944" data-name="Trazado 100944" d="M769.181,3941.324l-13.043,4.142-.2-4.569-4.749,1.069a3.769,3.769,0,0,0-2.937,3.635l-.068,4.975,5.188-2.094s-7.731,18.142-8.744,43.89c0,0,2.948-27.752,10.961-43.192l1.9,3.5,15.755-5.424Z" transform="translate(-676.763 -3861.004)" fill="#fff" opacity="0.6" style="isolation: isolate"/>
        <rect id="Rectángulo_6561" data-name="Rectángulo 6561" width="8.744" height="6.302" transform="translate(57.328 163.767)" fill="#6595bf"/>
        <rect id="Rectángulo_6562" data-name="Rectángulo 6562" width="8.744" height="6.302" transform="translate(57.328 163.767)" fill="#fff" opacity="0.4" style="isolation: isolate"/>
        <path id="Trazado_100945" data-name="Trazado 100945" d="M748.208,3942.185s-23.318,61.626-28.664,91.043l-3.5-1.9s13.437-67.433,23.34-90.031Z" transform="translate(-680.347 -3860.954)" fill="#6595bf"/>
        <path id="Trazado_100946" data-name="Trazado 100946" d="M774.195,3947.556s-9.881,49.607-5.368,90.267l5.368-1.193s6.493-64.89,9.937-85.867Z" transform="translate(-673.877 -3860.169)" fill="#6595bf"/>
        <path id="Trazado_100947" data-name="Trazado 100947" d="M742.045,3950.209l.912-8.1,4.276-1.8A11.424,11.424,0,0,1,742.045,3950.209Z" transform="translate(-677.087 -3861.078)" fill="#6595bf"/>
        <path id="Trazado_100948" data-name="Trazado 100948" d="M742.045,3950.209l.912-8.1,4.276-1.8A11.424,11.424,0,0,1,742.045,3950.209Z" transform="translate(-677.087 -3861.078)" opacity="0.2" style="isolation: isolate"/>
        <path id="Trazado_100949" data-name="Trazado 100949" d="M772.326,3955.837a14.89,14.89,0,0,1,0-10.691l4,3.544Z" transform="translate(-673.414 -3860.471)" fill="#6595bf"/>
        <path id="Trazado_100950" data-name="Trazado 100950" d="M772.326,3955.837a14.89,14.89,0,0,1,0-10.691l4,3.544Z" transform="translate(-673.414 -3860.471)" opacity="0.2" style="isolation: isolate"/>
        <rect id="Rectángulo_6563" data-name="Rectángulo 6563" width="43.71" height="29.721" rx="1.19" transform="translate(114.075 214.126) rotate(-12.59)" fill="#344154"/>
        <rect id="Rectángulo_6564" data-name="Rectángulo 6564" width="43.71" height="29.721" rx="1.19" transform="translate(114.075 214.126) rotate(-12.59)" fill="#fff" opacity="0.2" style="isolation: isolate"/>
        <path id="Trazado_100951" data-name="Trazado 100951" d="M814.633,4100.161l-16.588-15.283c2.251-23.4,26.053-30.892,26.053-30.892l5.627,25.276S810.323,4081.018,814.633,4100.161Z" transform="translate(-670.065 -3846.824)" fill="#6595bf"/>
        <path id="Trazado_100952" data-name="Trazado 100952" d="M814.633,4100.161l-16.588-15.283c2.251-23.4,26.053-30.892,26.053-30.892l5.627,25.276S810.323,4081.018,814.633,4100.161Z" transform="translate(-670.065 -3846.824)" fill="#fff" opacity="0.7" style="isolation: isolate"/>
        <path id="Trazado_100953" data-name="Trazado 100953" d="M822.431,4070.958l-1.992-8.924a1.43,1.43,0,0,1,1.076-1.712l.05-.01,2.465-.551a1.44,1.44,0,0,1,1.716,1.1l.006.028,1.992,8.924a1.441,1.441,0,0,1-1.1,1.716l-.027.006-2.465.551a1.441,1.441,0,0,1-1.716-1.1Zm2.251-9.881a.4.4,0,0,0-.484-.3l-2.465.551a.4.4,0,0,0-.316.477v.007l1.992,8.924a.417.417,0,0,0,.484.3l2.476-.551a.406.406,0,0,0,.3-.484Z" transform="translate(-667.262 -3846.105)" fill="#6595bf"/>
        <g id="Grupo_53893" data-name="Grupo 53893" transform="translate(153.141 213.621)" opacity="0.4">
          <path id="Trazado_100954" data-name="Trazado 100954" d="M822.431,4070.958l-1.992-8.924a1.43,1.43,0,0,1,1.076-1.712l.05-.01,2.465-.551a1.44,1.44,0,0,1,1.716,1.1l.006.028,1.992,8.924a1.441,1.441,0,0,1-1.1,1.716l-.027.006-2.465.551a1.441,1.441,0,0,1-1.716-1.1Zm2.251-9.881a.4.4,0,0,0-.484-.3l-2.465.551a.4.4,0,0,0-.316.477v.007l1.992,8.924a.417.417,0,0,0,.484.3l2.476-.551a.406.406,0,0,0,.3-.484Z" transform="translate(-820.403 -4059.726)" fill="#fff"/>
        </g>
      </g>
    </g>
    <g id="freepik--character-1--inject-257" transform="translate(436.725 3956.341)">
      <path id="Trazado_100955" data-name="Trazado 100955" d="M489.7,4019.44h5.627s3.3,1.485,5,1.125,12.379-6.628,11.783-7.7-23.374,1.2-23.374,1.2Z" transform="translate(-426.6 -3934.799)" fill="#d9a171"/>
      <path id="Trazado_100956" data-name="Trazado 100956" d="M498.009,4074.6s-.563,8.384-1.722,21.382c-.416,4.749-.912,10.129-1.5,15.913-2.521,25.119-6.572,58.419-12.3,85.327l-5.627-.09s-4.175-40.626,2.813-67.737l-.709-19.256-.5-13.268-.822-22.317Z" transform="translate(-428.244 -3927.028)" fill="#d9a171"/>
      <path id="Trazado_100957" data-name="Trazado 100957" d="M477.822,4078.482s-1.778,7.349-4.828,18.895c-.9,3.376-1.9,7.158-3,11.2-6.752,24.837-17.218,60.388-28.326,88.151l-5.548-1.047s2.8-40.75,14.3-66.273l3.05-22.666,1.125-8.452,3.14-23.272Z" transform="translate(-433.198 -3926.971)" fill="#d9a171"/>
      <path id="Trazado_100958" data-name="Trazado 100958" d="M452.672,4095.8l18.389-.912c-.9,3.376-1.9,7.158-3,11.2l-16.521-1.834Z" transform="translate(-431.264 -3924.479)" opacity="0.2" style="isolation: isolate"/>
      <path id="Trazado_100959" data-name="Trazado 100959" d="M495.971,4093.636c-.416,4.75-.912,10.129-1.5,15.913l-15.834-1.756-.5-13.268Z" transform="translate(-427.928 -3924.635)" opacity="0.2" style="isolation: isolate"/>
      <path id="Trazado_100960" data-name="Trazado 100960" d="M450.131,3985.866c-3.669,1.441-2.375,35.551,4.051,44.779s44.07-4.907,44.07-4.907l-.9-8.26-33.559.1Z" transform="translate(-431.694 -3938.148)" fill="#344154"/>
      <path id="Trazado_100961" data-name="Trazado 100961" d="M531.861,4013.365l-40,2.4,4.76-29.26a1.394,1.394,0,0,1,1.294-1.125l37.914-2.251a.776.776,0,0,1,.81.9Z" transform="translate(-426.207 -3938.492)" fill="#344154"/>
      <path id="Trazado_100962" data-name="Trazado 100962" d="M531.861,4013.365l-40,2.4,4.76-29.26a1.394,1.394,0,0,1,1.294-1.125l37.914-2.251a.776.776,0,0,1,.81.9Z" transform="translate(-426.207 -3938.492)" fill="#fff" opacity="0.2" style="isolation: isolate"/>
      <path id="Trazado_100963" data-name="Trazado 100963" d="M531.4,4013.4l-40,2.4,4.76-29.26a1.383,1.383,0,0,1,1.294-1.125l37.914-2.25a.767.767,0,0,1,.81.889Z" transform="translate(-426.265 -3938.489)" fill="#344154"/>
      <path id="Trazado_100964" data-name="Trazado 100964" d="M530.129,4012.408l-37.464,2.251,4.625-28.472,37.464-2.251Z" transform="translate(-426.107 -3938.39)" fill="#6595bf"/>
      <path id="Trazado_100965" data-name="Trazado 100965" d="M530.129,4012.408l-37.464,2.251,4.625-28.472,37.464-2.251Z" transform="translate(-426.107 -3938.39)" fill="#fff" opacity="0.4" style="isolation: isolate"/>
      <path id="Trazado_100966" data-name="Trazado 100966" d="M533.7,4010.026l.079,1.44a1.464,1.464,0,0,1-1.362,1.542l-57.755,3.488a1.452,1.452,0,0,1-1.542-1.355v-.006l-.09-1.429Z" transform="translate(-428.568 -3935.119)" fill="#344154"/>
      <path id="Trazado_100967" data-name="Trazado 100967" d="M533.7,4010.026l.079,1.44a1.464,1.464,0,0,1-1.362,1.542l-57.755,3.488a1.452,1.452,0,0,1-1.542-1.355v-.006l-.09-1.429Z" transform="translate(-428.568 -3935.119)" fill="#fff" opacity="0.2" style="isolation: isolate"/>
      <path id="Trazado_100968" data-name="Trazado 100968" d="M529.952,4010.026l.079,1.44a1.464,1.464,0,0,1-1.362,1.542l-24.061,1.44a1.452,1.452,0,0,1-1.553-1.328l-.09-1.44Z" transform="translate(-424.816 -3935.119)" fill="#fff" opacity="0.2" style="isolation: isolate"/>
      <g id="Grupo_53894" data-name="Grupo 53894" transform="translate(71.374 52.59)" opacity="0.4">
        <path id="Trazado_100969" data-name="Trazado 100969" d="M498.475,4006.424l-1.531.09.641-3.669,1.531-.09Z" transform="translate(-496.945 -3988.62)" fill="#fff"/>
        <path id="Trazado_100970" data-name="Trazado 100970" d="M501.067,4006.518l-1.542.09,1.035-5.942,1.542-.09Z" transform="translate(-496.621 -3988.894)" fill="#fff"/>
        <path id="Trazado_100971" data-name="Trazado 100971" d="M503.645,4006.611l-1.53.09,1.429-8.215,1.531-.09Z" transform="translate(-496.297 -3989.167)" fill="#fff"/>
        <path id="Trazado_100972" data-name="Trazado 100972" d="M506.237,4006.578l-1.542.09,1.632-9.352,1.542-.09Z" transform="translate(-495.973 -3989.314)" fill="#fff"/>
        <path id="Trazado_100973" data-name="Trazado 100973" d="M508.815,4006.544l-1.531.09,1.823-10.488,1.542-.09Z" transform="translate(-495.648 -3989.461)" fill="#fff"/>
        <path id="Trazado_100974" data-name="Trazado 100974" d="M511.407,4006.639l-1.542.09,2.228-12.762,1.531-.1Z" transform="translate(-495.325 -3989.735)" fill="#fff"/>
        <path id="Trazado_100975" data-name="Trazado 100975" d="M513.985,4006.352l-1.531.09,2.026-11.625,1.531-.1Z" transform="translate(-495 -3989.629)" fill="#fff"/>
        <path id="Trazado_100976" data-name="Trazado 100976" d="M516.577,4006.065l-1.542.09,1.834-10.488,1.531-.1Z" transform="translate(-494.677 -3989.522)" fill="#fff"/>
        <path id="Trazado_100977" data-name="Trazado 100977" d="M519.157,4006.159l-1.542.09,2.228-12.762,1.542-.1Z" transform="translate(-494.353 -3989.796)" fill="#fff"/>
        <path id="Trazado_100978" data-name="Trazado 100978" d="M521.747,4006.378l-1.542.09,2.813-16.183,1.542-.09Z" transform="translate(-494.028 -3990.195)" fill="#fff"/>
      </g>
      <path id="Trazado_100979" data-name="Trazado 100979" d="M502.377,4112.339c6.842-62.065-4.985-83.177-4.985-83.177l-33.379-5.705a151.162,151.162,0,0,0-2.8,18.681s-3.207,11.479-4.231,14.63a165.789,165.789,0,0,0-7.371,55.537Z" transform="translate(-431.521 -3933.435)" fill="#6595bf"/>
      <g id="Grupo_53895" data-name="Grupo 53895" transform="translate(17.94 90.099)" opacity="0.2">
        <path id="Trazado_100980" data-name="Trazado 100980" d="M502.381,4112.33H449.611s-.27-3.973-.079-10.489a165.662,165.662,0,0,1,7.45-45.015c1.024-3.185,4.231-14.63,4.231-14.63q.123-1.126.236-2.25a135.03,135.03,0,0,1,2.566-16.419l33.368,5.626S509.223,4050.265,502.381,4112.33Z" transform="translate(-449.464 -4023.526)"/>
      </g>
      <path id="Trazado_100981" data-name="Trazado 100981" d="M481.385,4076.92s-13.5,17.151-31.86,23.386a165.662,165.662,0,0,1,7.45-45.016c1.024-3.185,4.231-14.63,4.231-14.63q.123-1.126.236-2.25l34.414-2.634s-12.469,12.5-25.884,15.755C470.03,4051.531,470.581,4070.089,481.385,4076.92Z" transform="translate(-431.516 -3931.89)" opacity="0.2" style="isolation: isolate"/>
      <path id="Trazado_100982" data-name="Trazado 100982" d="M478.175,3959.921c0,.709.371,1.283.844,1.283s.844-.585.844-1.305-.394-1.283-.855-1.283S478.175,3959.224,478.175,3959.921Z" transform="translate(-427.924 -3941.565)" fill="#344154"/>
      <path id="Trazado_100983" data-name="Trazado 100983" d="M476.9,3958.545a.429.429,0,0,0,.405-.168,3.372,3.372,0,0,1,2.667-1.418.428.428,0,0,0,.45-.394.417.417,0,0,0-.393-.439h0a4.152,4.152,0,0,0-3.376,1.745.415.415,0,0,0,.068.584h0Z" transform="translate(-428.126 -3941.877)" fill="#344154"/>
      <path id="Trazado_100984" data-name="Trazado 100984" d="M478.7,3961.356a17.874,17.874,0,0,0,2.082,4.367,2.852,2.852,0,0,1-2.4.292Z" transform="translate(-427.898 -3941.222)" fill="#de726f"/>
      <path id="Trazado_100985" data-name="Trazado 100985" d="M464.226,3975.631a1.589,1.589,0,0,0,.27.2,12.231,12.231,0,0,0,4.31,2.1c4.558,1.058,7.675.428,9.712-1.632h0c2.847-3.095,3.556-8.575,3.151-15.193a24.751,24.751,0,0,0-1.44-7.72v-.124a1.762,1.762,0,0,0-.113-.281,9,9,0,0,0-6.64-5.5,18.18,18.18,0,0,0-3.905-.439C456.664,3946.911,454.345,3968.271,464.226,3975.631Z" transform="translate(-430.44 -3943.015)" fill="#d9a171"/>
      <path id="Trazado_100986" data-name="Trazado 100986" d="M463.955,3973.226a11.969,11.969,0,0,0,4.355,1.812c4.58.934,7.675.079,9.656-2.071a12.8,12.8,0,0,1-8.193-.45A6.672,6.672,0,0,0,463.955,3973.226Z" transform="translate(-429.707 -3939.868)" opacity="0.2" style="isolation: isolate"/>
      <path id="Trazado_100987" data-name="Trazado 100987" d="M462.849,3984.675c-.8,3.668,3.961,5.165,3.961,5.165,7.776-3.32,9.217-7.461,9.217-7.461-6.493-3.376-4.614-12.953-4.614-12.953l-1.317.653-9.262,1.812s2.566,4.929,2.9,6.055h0C465.494,3983.853,462.849,3984.675,462.849,3984.675Z" transform="translate(-430.098 -3940.21)" fill="#d9a171"/>
      <path id="Trazado_100988" data-name="Trazado 100988" d="M480.993,3953.677s.709,9-7.878,12.931c0,0-3.68,9.4-9.093,9.521-7.394.18-13.9-10.32-11.344-21.022C456.02,3941.219,477.054,3940.093,480.993,3953.677Z" transform="translate(-431.192 -3943.389)" fill="#344154"/>
      <path id="Trazado_100989" data-name="Trazado 100989" d="M475.245,3962.164c0-1.407-1.125-3.781-3.376-3.455s-3.534,5.931,2.048,7.18C474.761,3966.081,475.245,3965.124,475.245,3962.164Z" transform="translate(-428.955 -3941.557)" fill="#d9a171"/>
      <path id="Trazado_100990" data-name="Trazado 100990" d="M465.247,3944.141s8.632-2.183,13.392,1.294c5.627,4.051,7.686,8.238,1.125,14.742,0,0-14.484-4.692-19.3-3.7a51.564,51.564,0,0,0-8.26,2.4C451.158,3949.307,460.431,3942.183,465.247,3944.141Z" transform="translate(-431.191 -3943.465)" fill="#344154"/>
      <path id="Trazado_100991" data-name="Trazado 100991" d="M479.708,3949.206s4,2.724,2.161,6.921-7.214,4.3-7.214,4.3" transform="translate(-428.365 -3942.745)" fill="none" stroke="#263238" stroke-linecap="round" stroke-linejoin="round" stroke-width="0.5"/>
      <path id="Trazado_100992" data-name="Trazado 100992" d="M477.957,3961.875s-2.251,10.421,1.283,19.312c0,0-20.482,7.1-27.606,3.241s-.6-16.813-.293-24.286,3.545-18.512,14.382-16.037S477.957,3961.875,477.957,3961.875Z" transform="translate(-431.667 -3943.429)" fill="#344154"/>
      <path id="Trazado_100993" data-name="Trazado 100993" d="M493.715,4202.211a11.041,11.041,0,0,0-3.522-1.914h0s-3.838-3.815-5.627-15.271l-5.031-1.317a4.3,4.3,0,0,0-4.569,1.79,2.374,2.374,0,0,0-.315.664,29.26,29.26,0,0,0-.54,3.725,102.924,102.924,0,0,0-.068,12.582h.9l.36-7.878c.135-2.689,2.251.461,2.78,3.376s1.834,5.964,7.72,6.1C492.6,4204.158,495.448,4203.887,493.715,4202.211Z" transform="translate(-428.462 -3913.357)" fill="#344154"/>
      <path id="Trazado_100994" data-name="Trazado 100994" d="M474.683,4186.184c-.326-2.679-.428-7.337-.428-7.337l11.164,1.237s-1.35,5.3-.236,9.285C479.556,4187.883,474.683,4186.184,474.683,4186.184Z" transform="translate(-428.415 -3913.952)" fill="#344154"/>
      <path id="Trazado_100995" data-name="Trazado 100995" d="M453.355,4202.211a11.041,11.041,0,0,0-3.522-1.914h0s-3.838-3.815-5.627-15.271l-5.03-1.317a4.3,4.3,0,0,0-4.569,1.79,2.374,2.374,0,0,0-.315.664,29.26,29.26,0,0,0-.54,3.725,102.918,102.918,0,0,0-.068,12.582h.9l.36-7.878c.135-2.689,2.251.461,2.78,3.376s1.834,5.964,7.72,6.1C452.24,4204.158,455.088,4203.887,453.355,4202.211Z" transform="translate(-433.523 -3913.357)" fill="#344154"/>
      <path id="Trazado_100996" data-name="Trazado 100996" d="M434.334,4186.184c-.338-2.679-.439-7.337-.439-7.337l11.164,1.237s-1.35,5.3-.236,9.285C439.2,4187.883,434.334,4186.184,434.334,4186.184Z" transform="translate(-433.476 -3913.952)" fill="#344154"/>
      <path id="Trazado_100997" data-name="Trazado 100997" d="M449.945,3986.731s7.124-2.791,13.5-4.5A107.976,107.976,0,0,1,478.6,3979.6a100.749,100.749,0,0,1,14.517-.574c-.135,2.341-.236,4.5-.326,6.617-.124,2.734-.214,5.267-.27,7.619-.112,4.412-.1,8.193,0,11.546a112.671,112.671,0,0,0,2.645,21.743l7.2,17.477-43.181,5.5,2.442-17.208h0c-7.157-20.853-10.23-31.837-11.389-38.072C448.977,3987.282,449.945,3986.731,449.945,3986.731Z" transform="translate(-431.508 -3939.013)" fill="#344154"/>
      <path id="Trazado_100998" data-name="Trazado 100998" d="M449.945,3986.731s7.124-2.791,13.5-4.5A107.976,107.976,0,0,1,478.6,3979.6a100.749,100.749,0,0,1,14.517-.574c-.135,2.341-.236,4.5-.326,6.617-.124,2.734-.214,5.267-.27,7.619-.112,4.412-.1,8.193,0,11.546a112.671,112.671,0,0,0,2.645,21.743l7.2,17.477-43.181,5.5,2.442-17.208h0c-7.157-20.853-10.23-31.837-11.389-38.072C448.977,3987.282,449.945,3986.731,449.945,3986.731Z" transform="translate(-431.508 -3939.013)" fill="#fff" opacity="0.1" style="isolation: isolate"/>
      <path id="Trazado_100999" data-name="Trazado 100999" d="M526.376,4019.776l9.791,2.915a19.8,19.8,0,0,1,3.567-.743c1.035,0,9.937,3.376,11.13,4.5s-5.627,7.124-6,7.417-9.588-3.376-10.027-3.556-.6-1.564-.6-1.564L523.405,4026Z" transform="translate(-422.253 -3933.897)" fill="#d9a171"/>
      <path id="Trazado_101000" data-name="Trazado 101000" d="M488.613,3978.976c5.391,3.556,18.94,37.272,20.718,38.162s28.135,8.452,28.135,8.452l-3.286,8.215s-28.855-5.143-31.747-7.158-14.416-22.958-14.416-22.958a53.438,53.438,0,0,1-2.431-14.034A18.615,18.615,0,0,1,488.613,3978.976Z" transform="translate(-426.996 -3939.012)" fill="#344154"/>
    </g>
    <g id="freepik--Device--inject-257" transform="translate(540.82 4082.734)">
      <rect id="Rectángulo_6565" data-name="Rectángulo 6565" width="8.013" height="42.697" transform="translate(118.689 121.609)" fill="#6595bf"/>
      <rect id="Rectángulo_6566" data-name="Rectángulo 6566" width="4.637" height="42.697" transform="translate(122.066 121.609)" fill="#6595bf"/>
      <rect id="Rectángulo_6567" data-name="Rectángulo 6567" width="4.637" height="42.697" transform="translate(122.066 121.609)" opacity="0.2" style="isolation: isolate"/>
      <path id="Trazado_101001" data-name="Trazado 101001" d="M639.5,4163.835v17.59l-4.637-1.576-3.376-1.148v-14.866Z" transform="translate(-512.796 -4042.227)" opacity="0.2" style="isolation: isolate"/>
      <rect id="Rectángulo_6568" data-name="Rectángulo 6568" width="8.013" height="42.697" transform="translate(152.451 121.609)" fill="#6595bf"/>
      <rect id="Rectángulo_6569" data-name="Rectángulo 6569" width="8.013" height="42.697" transform="translate(48.916 121.609)" fill="#6595bf"/>
      <rect id="Rectángulo_6570" data-name="Rectángulo 6570" width="8.013" height="42.697" transform="translate(48.916 121.609)" opacity="0.2" style="isolation: isolate"/>
      <path id="Trazado_101002" data-name="Trazado 101002" d="M682.316,4145.855v62.932h-5.987V4169.95h-74.2v38.837H591.149V4169.95H573.041v38.837h-3.556v-62.932Z" transform="translate(-520.569 -4044.481)" fill="#6595bf"/>
      <path id="Trazado_101003" data-name="Trazado 101003" d="M591.517,4146.958h-1.992v-9.892h3.984Z" transform="translate(-518.057 -4045.583)" fill="#344154"/>
      <path id="Trazado_101004" data-name="Trazado 101004" d="M679.359,4145.855v62.932h-5.987V4169.95h-74.2v38.837h-6.111v-62.932Z" transform="translate(-517.613 -4044.481)" opacity="0.2" style="isolation: isolate"/>
      <path id="Trazado_101005" data-name="Trazado 101005" d="M656.9,4129.733h.068l-19.4-4.693a4.739,4.739,0,0,0-1.339-.214h-43.7a4.828,4.828,0,0,0-4.817,4.389l-.878,9.318a4.817,4.817,0,0,0,3.3,5.019h0l.3.079.371.09,18.94,4.625h0a4.777,4.777,0,0,0,1.215.169H654.6a4.841,4.841,0,0,0,4.817-4.389l.878-9.318A4.838,4.838,0,0,0,656.9,4129.733Z" transform="translate(-518.396 -4047.118)" fill="#344154"/>
      <path id="Trazado_101006" data-name="Trazado 101006" d="M656.9,4129.733h.068l-19.4-4.693a4.739,4.739,0,0,0-1.339-.214h-43.7a4.828,4.828,0,0,0-4.817,4.389l-.878,9.318a4.817,4.817,0,0,0,3.3,5.019h0l.3.079.371.09,18.94,4.625h0a4.777,4.777,0,0,0,1.215.169H654.6a4.841,4.841,0,0,0,4.817-4.389l.878-9.318A4.838,4.838,0,0,0,656.9,4129.733Z" transform="translate(-518.396 -4047.118)" fill="#fff" opacity="0.2" style="isolation: isolate"/>
      <path id="Trazado_101007" data-name="Trazado 101007" d="M652.451,4147.972H608.775a4.852,4.852,0,0,1-4.848-4.854c0-.145.007-.29.02-.436l.878-9.318a4.838,4.838,0,0,1,4.817-4.389h43.7a4.851,4.851,0,0,1,4.848,4.853c0,.145-.007.292-.02.437l-.878,9.318A4.839,4.839,0,0,1,652.451,4147.972Z" transform="translate(-516.251 -4046.598)" fill="#fff" opacity="0.1" style="isolation: isolate"/>
      <g id="Grupo_53896" data-name="Grupo 53896" transform="translate(96.103 87.867)" opacity="0.1">
        <path id="Trazado_101008" data-name="Trazado 101008" d="M637.482,4138.628a5.5,5.5,0,0,1-5.413,4.783,4.279,4.279,0,0,1-4.428-4.12,4.2,4.2,0,0,1,.028-.663,5.514,5.514,0,0,1,5.413-4.772,4.268,4.268,0,0,1,4.4,4.772Z" transform="translate(-609.381 -4133.853)" fill="#fff"/>
        <path id="Trazado_101009" data-name="Trazado 101009" d="M648.533,4140.012H641.41a.642.642,0,0,1-.668-.613.68.68,0,0,1,0-.107l.214-2.025a.831.831,0,0,1,.822-.72h7.18a.642.642,0,0,1,.669.613.679.679,0,0,1,0,.107l-.214,2.025A.833.833,0,0,1,648.533,4140.012Z" transform="translate(-607.738 -4133.516)" fill="#fff"/>
        <path id="Trazado_101010" data-name="Trazado 101010" d="M613.947,4143.489h-2.532l.259-2.453h2.532Z" transform="translate(-611.415 -4132.953)" fill="#fff"/>
        <path id="Trazado_101011" data-name="Trazado 101011" d="M617.036,4143.489h-2.521l.259-2.453h2.521Z" transform="translate(-611.026 -4132.953)" fill="#fff"/>
      </g>
      <path id="Trazado_101012" data-name="Trazado 101012" d="M529.908,4080.516a1.191,1.191,0,0,1-.731-.259l-2.757-2.33a1.126,1.126,0,1,1,1.452-1.722l2.757,2.33a1.125,1.125,0,0,1-.72,1.98Z" transform="translate(-526.019 -4053.248)" fill="#6595bf"/>
      <path id="Trazado_101013" data-name="Trazado 101013" d="M543.182,4091.643a1.19,1.19,0,0,1-.731-.259q-4.5-3.792-9-7.551a1.126,1.126,0,0,1,1.317-1.826,1.179,1.179,0,0,1,.124.1q4.5,3.758,9,7.551a1.125,1.125,0,0,1-.72,1.98Z" transform="translate(-525.147 -4052.514)" fill="#6595bf"/>
      <path id="Trazado_101014" data-name="Trazado 101014" d="M552.766,4099.79a1.124,1.124,0,0,1-.731-.271l-5.346-4.5a1.13,1.13,0,1,1,1.463-1.722l5.334,4.5a1.126,1.126,0,0,1,.136,1.585h0A1.128,1.128,0,0,1,552.766,4099.79Z" transform="translate(-523.478 -4051.105)" fill="#6595bf"/>
      <path id="Trazado_101015" data-name="Trazado 101015" d="M575.876,4119.433a1.127,1.127,0,0,1-.72-.259q-9.4-7.879-18.726-15.89l-.27-.236a1.125,1.125,0,0,1-.136-1.586h0a1.124,1.124,0,0,1,1.587-.124h0l.281.236q9.33,7.945,18.715,15.879a1.126,1.126,0,0,1-.731,1.981Z" transform="translate(-522.29 -4050.097)" fill="#6595bf"/>
      <path id="Trazado_101016" data-name="Trazado 101016" d="M584.451,4126.527a1.129,1.129,0,0,1-.72-.259l-5.391-4.5a1.124,1.124,0,0,1-.136-1.585h0a1.124,1.124,0,0,1,1.576-.135l5.391,4.5a1.125,1.125,0,0,1,.147,1.584v0A1.126,1.126,0,0,1,584.451,4126.527Z" transform="translate(-519.509 -4047.75)" fill="#6595bf"/>
      <path id="Trazado_101017" data-name="Trazado 101017" d="M571.13,4064.552a1.125,1.125,0,0,1-1.024-.653l-1.519-3.376a1.125,1.125,0,0,1,2.046-.938l0,0,1.519,3.376a1.125,1.125,0,0,1-.551,1.485A1.028,1.028,0,0,1,571.13,4064.552Z" transform="translate(-520.695 -4055.38)" fill="#6595bf"/>
      <path id="Trazado_101018" data-name="Trazado 101018" d="M580.624,4084.827a1.125,1.125,0,0,1-1.024-.652c-2.386-5.245-4.5-9.791-6.572-13.887a1.13,1.13,0,1,1,2.026-1c2.048,4.13,4.2,8.688,6.595,13.955a1.126,1.126,0,0,1-.563,1.485A1.142,1.142,0,0,1,580.624,4084.827Z" transform="translate(-520.14 -4054.161)" fill="#6595bf"/>
      <path id="Trazado_101019" data-name="Trazado 101019" d="M585.584,4096.086a1.126,1.126,0,0,1-1.035-.664c-.822-1.879-1.643-3.748-2.476-5.627a1.125,1.125,0,0,1,2.059-.9q1.249,2.8,2.476,5.627a1.124,1.124,0,0,1-.573,1.484h0A1.142,1.142,0,0,1,585.584,4096.086Z" transform="translate(-519 -4051.701)" fill="#6595bf"/>
      <path id="Trazado_101020" data-name="Trazado 101020" d="M598.056,4123.4a1.128,1.128,0,0,1-1.013-.63c-3.691-7.461-7.135-15.147-10.3-22.35a1.126,1.126,0,0,1,.573-1.486h0a1.125,1.125,0,0,1,1.484.573h0c3.151,7.18,6.583,14.844,10.252,22.26a1.126,1.126,0,0,1-1,1.632Z" transform="translate(-518.417 -4050.376)" fill="#6595bf"/>
      <path id="Trazado_101021" data-name="Trazado 101021" d="M608.99,4069.821a1.126,1.126,0,0,1-1.125-1.125V4056.9a1.125,1.125,0,1,1,2.251,0v11.805A1.126,1.126,0,0,1,608.99,4069.821Z" transform="translate(-515.757 -4055.776)" fill="#6595bf"/>
      <path id="Trazado_101022" data-name="Trazado 101022" d="M609.058,4081.175a1.126,1.126,0,0,1-1.125-1.125l-.068-5.908a1.125,1.125,0,1,1,2.251,0l.068,5.919a1.126,1.126,0,0,1-1.125,1.125Z" transform="translate(-515.757 -4053.614)" fill="#6595bf"/>
      <path id="Trazado_101023" data-name="Trazado 101023" d="M609.1,4110.511h0a1.126,1.126,0,0,1-1.125-1.125v-24a1.125,1.125,0,0,1,1.125-1.125h0a1.125,1.125,0,0,1,1.125,1.125c0,8.1.056,16.183,0,24.027A1.126,1.126,0,0,1,609.1,4110.511Z" transform="translate(-515.743 -4052.205)" fill="#6595bf"/>
      <path id="Trazado_101024" data-name="Trazado 101024" d="M608.99,4121.694h0a1.126,1.126,0,0,1-1.125-1.125c0-2.329.056-4.647.079-6.978a1.125,1.125,0,1,1,2.251,0c0,2.33,0,4.648-.079,6.978A1.126,1.126,0,0,1,608.99,4121.694Z" transform="translate(-515.757 -4048.668)" fill="#6595bf"/>
      <path id="Trazado_101025" data-name="Trazado 101025" d="M645.736,4079.815a1.237,1.237,0,0,1-.63-.169,1.126,1.126,0,0,1-.388-1.544l.006-.009,3.376-5.56a1.125,1.125,0,1,1,2.081.857,1.142,1.142,0,0,1-.156.268l-3.376,5.571A1.127,1.127,0,0,1,645.736,4079.815Z" transform="translate(-511.156 -4053.762)" fill="#6595bf"/>
      <path id="Trazado_101026" data-name="Trazado 101026" d="M631.97,4103.85a1.126,1.126,0,0,1-.968-1.7c3.219-5.469,7.506-12.649,12.064-19.638a1.125,1.125,0,0,1,1.884,1.23l0,.008c-4.5,6.944-8.8,14.09-12.008,19.548A1.126,1.126,0,0,1,631.97,4103.85Z" transform="translate(-512.876 -4052.488)" fill="#6595bf"/>
      <path id="Trazado_101027" data-name="Trazado 101027" d="M625.53,4113.305a1.185,1.185,0,0,1-.574-.158,1.124,1.124,0,0,1-.394-1.541l3.466-5.909a1.122,1.122,0,1,1,1.937,1.133v0l-3.466,5.919A1.127,1.127,0,0,1,625.53,4113.305Z" transform="translate(-513.683 -4049.585)" fill="#6595bf"/>
      <path id="Trazado_101028" data-name="Trazado 101028" d="M619.6,4122.991a1.144,1.144,0,0,1-.585-.169,1.127,1.127,0,0,1-.376-1.547l0-.006q1.4-2.252,2.768-4.5a1.125,1.125,0,0,1,1.936,1.125c-.923,1.52-1.846,3.039-2.791,4.558A1.131,1.131,0,0,1,619.6,4122.991Z" transform="translate(-514.427 -4048.187)" fill="#6595bf"/>
      <g id="Grupo_53897" data-name="Grupo 53897" opacity="0.7">
        <path id="Trazado_101029" data-name="Trazado 101029" d="M529.908,4080.516a1.191,1.191,0,0,1-.731-.259l-2.757-2.33a1.126,1.126,0,1,1,1.452-1.722l2.757,2.33a1.125,1.125,0,0,1-.72,1.98Z" transform="translate(-526.019 -4053.248)" fill="#fff"/>
        <path id="Trazado_101030" data-name="Trazado 101030" d="M543.182,4091.643a1.19,1.19,0,0,1-.731-.259q-4.5-3.792-9-7.551a1.126,1.126,0,0,1,1.317-1.826,1.179,1.179,0,0,1,.124.1q4.5,3.758,9,7.551a1.125,1.125,0,0,1-.72,1.98Z" transform="translate(-525.147 -4052.514)" fill="#fff"/>
        <path id="Trazado_101031" data-name="Trazado 101031" d="M552.766,4099.79a1.124,1.124,0,0,1-.731-.271l-5.346-4.5a1.13,1.13,0,1,1,1.463-1.722l5.334,4.5a1.126,1.126,0,0,1,.136,1.585h0A1.128,1.128,0,0,1,552.766,4099.79Z" transform="translate(-523.478 -4051.105)" fill="#fff"/>
        <path id="Trazado_101032" data-name="Trazado 101032" d="M575.876,4119.433a1.127,1.127,0,0,1-.72-.259q-9.4-7.879-18.726-15.89l-.27-.236a1.125,1.125,0,0,1-.136-1.586h0a1.124,1.124,0,0,1,1.587-.124h0l.281.236q9.33,7.945,18.715,15.879a1.126,1.126,0,0,1-.731,1.981Z" transform="translate(-522.29 -4050.097)" fill="#fff"/>
        <path id="Trazado_101033" data-name="Trazado 101033" d="M584.451,4126.527a1.129,1.129,0,0,1-.72-.259l-5.391-4.5a1.124,1.124,0,0,1-.136-1.585h0a1.124,1.124,0,0,1,1.576-.135l5.391,4.5a1.125,1.125,0,0,1,.147,1.584v0A1.126,1.126,0,0,1,584.451,4126.527Z" transform="translate(-519.509 -4047.75)" fill="#fff"/>
        <path id="Trazado_101034" data-name="Trazado 101034" d="M571.13,4064.552a1.125,1.125,0,0,1-1.024-.653l-1.519-3.376a1.125,1.125,0,0,1,2.046-.938l0,0,1.519,3.376a1.125,1.125,0,0,1-.551,1.485A1.028,1.028,0,0,1,571.13,4064.552Z" transform="translate(-520.695 -4055.38)" fill="#fff"/>
        <path id="Trazado_101035" data-name="Trazado 101035" d="M580.624,4084.827a1.125,1.125,0,0,1-1.024-.652c-2.386-5.245-4.5-9.791-6.572-13.887a1.13,1.13,0,1,1,2.026-1c2.048,4.13,4.2,8.688,6.595,13.955a1.126,1.126,0,0,1-.563,1.485A1.142,1.142,0,0,1,580.624,4084.827Z" transform="translate(-520.14 -4054.161)" fill="#fff"/>
        <path id="Trazado_101036" data-name="Trazado 101036" d="M585.584,4096.086a1.126,1.126,0,0,1-1.035-.664c-.822-1.879-1.643-3.748-2.476-5.627a1.125,1.125,0,0,1,2.059-.9q1.249,2.8,2.476,5.627a1.124,1.124,0,0,1-.573,1.484h0A1.142,1.142,0,0,1,585.584,4096.086Z" transform="translate(-519 -4051.701)" fill="#fff"/>
        <path id="Trazado_101037" data-name="Trazado 101037" d="M598.056,4123.4a1.128,1.128,0,0,1-1.013-.63c-3.691-7.461-7.135-15.147-10.3-22.35a1.126,1.126,0,0,1,.573-1.486h0a1.125,1.125,0,0,1,1.484.573h0c3.151,7.18,6.583,14.844,10.252,22.26a1.126,1.126,0,0,1-1,1.632Z" transform="translate(-518.417 -4050.376)" fill="#fff"/>
        <path id="Trazado_101038" data-name="Trazado 101038" d="M608.99,4069.821a1.126,1.126,0,0,1-1.125-1.125V4056.9a1.125,1.125,0,1,1,2.251,0v11.805A1.126,1.126,0,0,1,608.99,4069.821Z" transform="translate(-515.757 -4055.776)" fill="#fff"/>
        <path id="Trazado_101039" data-name="Trazado 101039" d="M609.058,4081.175a1.126,1.126,0,0,1-1.125-1.125l-.068-5.908a1.125,1.125,0,1,1,2.251,0l.068,5.919a1.126,1.126,0,0,1-1.125,1.125Z" transform="translate(-515.757 -4053.614)" fill="#fff"/>
        <path id="Trazado_101040" data-name="Trazado 101040" d="M609.1,4110.511h0a1.126,1.126,0,0,1-1.125-1.125v-24a1.125,1.125,0,0,1,1.125-1.125h0a1.125,1.125,0,0,1,1.125,1.125c0,8.1.056,16.183,0,24.027A1.126,1.126,0,0,1,609.1,4110.511Z" transform="translate(-515.743 -4052.205)" fill="#fff"/>
        <path id="Trazado_101041" data-name="Trazado 101041" d="M608.99,4121.694h0a1.126,1.126,0,0,1-1.125-1.125c0-2.329.056-4.647.079-6.978a1.125,1.125,0,1,1,2.251,0c0,2.33,0,4.648-.079,6.978A1.126,1.126,0,0,1,608.99,4121.694Z" transform="translate(-515.757 -4048.668)" fill="#fff"/>
        <path id="Trazado_101042" data-name="Trazado 101042" d="M645.736,4079.815a1.237,1.237,0,0,1-.63-.169,1.126,1.126,0,0,1-.388-1.544l.006-.009,3.376-5.56a1.125,1.125,0,1,1,2.081.857,1.142,1.142,0,0,1-.156.268l-3.376,5.571A1.127,1.127,0,0,1,645.736,4079.815Z" transform="translate(-511.156 -4053.762)" fill="#fff"/>
        <path id="Trazado_101043" data-name="Trazado 101043" d="M631.97,4103.85a1.126,1.126,0,0,1-.968-1.7c3.219-5.469,7.506-12.649,12.064-19.638a1.125,1.125,0,0,1,1.884,1.23l0,.008c-4.5,6.944-8.8,14.09-12.008,19.548A1.126,1.126,0,0,1,631.97,4103.85Z" transform="translate(-512.876 -4052.488)" fill="#fff"/>
        <path id="Trazado_101044" data-name="Trazado 101044" d="M625.53,4113.305a1.185,1.185,0,0,1-.574-.158,1.124,1.124,0,0,1-.394-1.541l3.466-5.909a1.122,1.122,0,1,1,1.937,1.133v0l-3.466,5.919A1.127,1.127,0,0,1,625.53,4113.305Z" transform="translate(-513.683 -4049.585)" fill="#fff"/>
        <path id="Trazado_101045" data-name="Trazado 101045" d="M619.6,4122.991a1.144,1.144,0,0,1-.585-.169,1.127,1.127,0,0,1-.376-1.547l0-.006q1.4-2.252,2.768-4.5a1.125,1.125,0,0,1,1.936,1.125c-.923,1.52-1.846,3.039-2.791,4.558A1.131,1.131,0,0,1,619.6,4122.991Z" transform="translate(-514.427 -4048.187)" fill="#fff"/>
      </g>
    </g>
    <text id="Próximo_año" data-name="Próximo 
año" transform="translate(609.771 3885.718)" fill="#fff" font-size="12" font-family="Roboto-Bold, Roboto" font-weight="700"><tspan x="7.958" y="13">Próximo </tspan><tspan x="20.67" y="27.4">año</tspan></text>
  </g>
</svg>
