<svg xmlns="http://www.w3.org/2000/svg" xmlns:xlink="http://www.w3.org/1999/xlink" width="441.936" height="456.862" viewBox="0 0 441.936 456.862">
  <defs>
    <clipPath id="clip-path">
      <rect id="Rectángulo_6575" data-name="Rectángulo 6575" width="353.1" height="255.01" transform="translate(407.517 3847.275)" fill="none"/>
    </clipPath>
  </defs>
  <g id="Grupo_53906" data-name="Grupo 53906" transform="translate(-321.031 -3784.67)">
    <g id="freepik--background-simple--inject-276">
      <path id="Trazado_101046" data-name="Trazado 101046" d="M337.976,3955.435s-17.89,76.46,31.94,143.08,136.72,92.49,206.551,115.33,135.239-3.53,159.77-62.22-25-90.29-36-166.94-2.15-98.68-53.12-157.09-155.58-57-226.3,2.95S337.976,3955.435,337.976,3955.435Z" fill="#d9a171"/>
      <path id="Trazado_101047" data-name="Trazado 101047" d="M337.976,3955.435s-17.89,76.46,31.94,143.08,136.72,92.49,206.551,115.33,135.239-3.53,159.77-62.22-25-90.29-36-166.94-2.15-98.68-53.12-157.09-155.58-57-226.3,2.95S337.976,3955.435,337.976,3955.435Z" fill="#fff" opacity="0.7" style="isolation: isolate"/>
    </g>
    <g id="freepik--Page--inject-276">
      <path id="Trazado_101048" data-name="Trazado 101048" d="M501.746,3840.045l-9.89-15.76h-87v283.72h358.11v-267.96Z" fill="#344154"/>
      <rect id="Rectángulo_6571" data-name="Rectángulo 6571" width="353.1" height="255.01" transform="translate(407.517 3847.275)" fill="#fff"/>
      <g id="Grupo_53901" data-name="Grupo 53901">
        <g id="Grupo_53900" data-name="Grupo 53900" clip-path="url(#clip-path)">
          <g id="Grupo_53899" data-name="Grupo 53899">
            <rect id="Rectángulo_6572" data-name="Rectángulo 6572" width="8.2" height="259.13" transform="translate(754.146 3845.095)" opacity="0.17" style="isolation: isolate"/>
            <rect id="Rectángulo_6573" data-name="Rectángulo 6573" width="8.2" height="100.35" transform="translate(754.146 4001.765)" opacity="0.17" style="isolation: isolate"/>
            <rect id="Rectángulo_6574" data-name="Rectángulo 6574" width="354.96" height="13.87" transform="translate(406.116 3843.835)" fill="#d9a171" stroke="#263238" stroke-miterlimit="10" stroke-width="1"/>
          </g>
        </g>
      </g>
      <rect id="Rectángulo_6576" data-name="Rectángulo 6576" width="353.1" height="255.01" transform="translate(407.517 3847.275)" fill="none" stroke="#263238" stroke-linecap="round" stroke-linejoin="round" stroke-width="1"/>
      <g id="Grupo_53902" data-name="Grupo 53902" opacity="0.17">
        <path id="Trazado_101049" data-name="Trazado 101049" d="M591.486,3871.075h-24.7a2.18,2.18,0,0,1-2.18-2.18h0a2.18,2.18,0,0,1,2.18-2.18h24.7a2.19,2.19,0,0,1,2.18,2.18h0A2.189,2.189,0,0,1,591.486,3871.075Z"/>
        <path id="Trazado_101050" data-name="Trazado 101050" d="M640.886,3871.075h-24.7a2.19,2.19,0,0,1-2.18-2.18h0a2.192,2.192,0,0,1,2.18-2.18h24.7a2.18,2.18,0,0,1,2.18,2.18h0A2.18,2.18,0,0,1,640.886,3871.075Z"/>
        <path id="Trazado_101051" data-name="Trazado 101051" d="M690.326,3871.075h-24.7a2.18,2.18,0,0,1-2.18-2.18h0a2.18,2.18,0,0,1,2.18-2.18h24.7a2.19,2.19,0,0,1,2.18,2.18h0A2.189,2.189,0,0,1,690.326,3871.075Z"/>
        <path id="Trazado_101052" data-name="Trazado 101052" d="M739.7,3871.075H715a2.19,2.19,0,0,1-2.18-2.18h0a2.192,2.192,0,0,1,2.18-2.18h24.7a2.18,2.18,0,0,1,2.18,2.18h0A2.18,2.18,0,0,1,739.7,3871.075Z"/>
      </g>
      <line id="Línea_221" data-name="Línea 221" x2="318.07" transform="translate(426.776 4062.465)" fill="none" stroke="#263238" stroke-miterlimit="10" stroke-width="0.5"/>
      <line id="Línea_222" data-name="Línea 222" y1="2.46" transform="translate(426.776 4060.005)" fill="none" stroke="#263238" stroke-miterlimit="10" stroke-width="0.5"/>
      <line id="Línea_223" data-name="Línea 223" y1="2.46" transform="translate(466.536 4060.005)" fill="none" stroke="#263238" stroke-miterlimit="10" stroke-width="0.5"/>
      <line id="Línea_224" data-name="Línea 224" y1="2.46" transform="translate(506.297 4060.005)" fill="none" stroke="#263238" stroke-miterlimit="10" stroke-width="0.5"/>
      <line id="Línea_225" data-name="Línea 225" y1="2.46" transform="translate(546.057 4060.005)" fill="none" stroke="#263238" stroke-miterlimit="10" stroke-width="0.5"/>
      <line id="Línea_226" data-name="Línea 226" y1="2.46" transform="translate(585.807 4060.005)" fill="none" stroke="#263238" stroke-miterlimit="10" stroke-width="0.5"/>
      <line id="Línea_227" data-name="Línea 227" y1="2.46" transform="translate(625.566 4060.005)" fill="none" stroke="#263238" stroke-miterlimit="10" stroke-width="0.5"/>
      <line id="Línea_228" data-name="Línea 228" y1="2.46" transform="translate(665.326 4060.005)" fill="none" stroke="#263238" stroke-miterlimit="10" stroke-width="0.5"/>
      <line id="Línea_229" data-name="Línea 229" y1="2.46" transform="translate(705.086 4060.005)" fill="none" stroke="#263238" stroke-miterlimit="10" stroke-width="0.5"/>
      <line id="Línea_230" data-name="Línea 230" y1="2.46" transform="translate(744.846 4060.005)" fill="none" stroke="#263238" stroke-miterlimit="10" stroke-width="0.5"/>
      <line id="Línea_231" data-name="Línea 231" x1="39.76" y2="12.3" transform="translate(446.656 3985.525)" fill="none" stroke="#263238" stroke-linecap="round" stroke-miterlimit="10" stroke-width="2"/>
      <line id="Línea_232" data-name="Línea 232" x1="39.76" y2="27.05" transform="translate(486.417 3958.475)" fill="none" stroke="#263238" stroke-linecap="round" stroke-miterlimit="10" stroke-width="2"/>
      <line id="Línea_233" data-name="Línea 233" x1="39.75" y2="36.88" transform="translate(526.177 3921.595)" fill="none" stroke="#263238" stroke-linecap="round" stroke-miterlimit="10" stroke-width="2"/>
      <line id="Línea_234" data-name="Línea 234" x1="39.76" y2="3.69" transform="translate(565.927 3917.905)" fill="none" stroke="#263238" stroke-linecap="round" stroke-miterlimit="10" stroke-width="2"/>
      <line id="Línea_235" data-name="Línea 235" x1="39.76" y1="27.05" transform="translate(605.686 3917.905)" fill="none" stroke="#263238" stroke-linecap="round" stroke-miterlimit="10" stroke-width="2"/>
      <line id="Línea_236" data-name="Línea 236" x1="39.76" y1="25.82" transform="translate(645.446 3944.955)" fill="none" stroke="#263238" stroke-linecap="round" stroke-miterlimit="10" stroke-width="2"/>
      <line id="Línea_237" data-name="Línea 237" x1="39.76" y2="54.1" transform="translate(685.206 3916.675)" fill="none" stroke="#263238" stroke-linecap="round" stroke-miterlimit="10" stroke-width="2"/>
      <path id="Trazado_101053" data-name="Trazado 101053" d="M446.656,3992.755h0a5.07,5.07,0,0,1,5.071,5.07h0a5.07,5.07,0,0,1-5.071,5.06h0a5.07,5.07,0,0,1-5.07-5.06h0a5.07,5.07,0,0,1,5.07-5.07Z" fill="#d9a171" stroke="#263238" stroke-miterlimit="10" stroke-width="1"/>
      <path id="Trazado_101054" data-name="Trazado 101054" d="M486.416,3980.455h0a5.069,5.069,0,0,1,5.07,5.07h0a5.069,5.069,0,0,1-5.069,5.07h0a5.07,5.07,0,0,1-5.07-5.07h0a5.07,5.07,0,0,1,5.07-5.07Z" fill="#d9a171" stroke="#263238" stroke-miterlimit="10" stroke-width="1"/>
      <path id="Trazado_101055" data-name="Trazado 101055" d="M526.177,3953.415h0a5.06,5.06,0,0,1,5.059,5.06h0a5.058,5.058,0,0,1-5.049,5.07h-.01a5.07,5.07,0,0,1-5.071-5.07h0A5.071,5.071,0,0,1,526.177,3953.415Z" fill="#d9a171" stroke="#263238" stroke-miterlimit="10" stroke-width="1"/>
      <path id="Trazado_101056" data-name="Trazado 101056" d="M565.927,3916.525h0a5.07,5.07,0,0,1,5.07,5.07h0a5.07,5.07,0,0,1-5.07,5.07h0a5.069,5.069,0,0,1-5.06-5.07h0A5.07,5.07,0,0,1,565.927,3916.525Z" fill="#d9a171" stroke="#263238" stroke-miterlimit="10" stroke-width="1"/>
      <path id="Trazado_101057" data-name="Trazado 101057" d="M605.686,3912.845h0a5.06,5.06,0,0,1,5.07,5.05v.01h0a5.069,5.069,0,0,1-5.07,5.07h0a5.06,5.06,0,0,1-5.06-5.06v-.01h0a5.051,5.051,0,0,1,5.04-5.06Z" fill="#d9a171" stroke="#263238" stroke-miterlimit="10" stroke-width="1"/>
      <path id="Trazado_101058" data-name="Trazado 101058" d="M645.446,3939.885h0a5.069,5.069,0,0,1,5.07,5.07h0a5.069,5.069,0,0,1-5.07,5.07h0a5.07,5.07,0,0,1-5.07-5.07h0a5.07,5.07,0,0,1,5.07-5.07Z" fill="#d9a171" stroke="#263238" stroke-miterlimit="10" stroke-width="1"/>
      <path id="Trazado_101059" data-name="Trazado 101059" d="M685.2,3965.705h0a5.065,5.065,0,0,1,5.065,5.065h0a5.064,5.064,0,0,1-5.065,5.065h0a5.065,5.065,0,0,1-5.065-5.065h0A5.065,5.065,0,0,1,685.2,3965.705Z" fill="#d9a171" stroke="#263238" stroke-miterlimit="10" stroke-width="1"/>
      <path id="Trazado_101060" data-name="Trazado 101060" d="M724.967,3911.615h0a5.051,5.051,0,0,1,5.06,5.04v.02h0a5.06,5.06,0,0,1-5.05,5.07h-.01a5.07,5.07,0,0,1-5.07-5.07h0a5.06,5.06,0,0,1,5.059-5.06Z" fill="#d9a171" stroke="#263238" stroke-miterlimit="10" stroke-width="1"/>
      <path id="Trazado_101061" data-name="Trazado 101061" d="M446.647,4026.035l40.9-10.4,38.82,1.39,38.82,8.31,40.9-22.87,40.21,18.02,38.83,1.39,40.2-11.09" fill="none" stroke="#787878" stroke-linecap="round" stroke-miterlimit="10" stroke-width="2"/>
      <path id="Trazado_101062" data-name="Trazado 101062" d="M446.656,4021.175h0a5.07,5.07,0,0,1,5.071,5.07h0a5.07,5.07,0,0,1-5.07,5.07h0a5.07,5.07,0,0,1-5.07-5.07h0A5.07,5.07,0,0,1,446.656,4021.175Z" fill="#344154" stroke="#263238" stroke-miterlimit="10" stroke-width="1"/>
      <path id="Trazado_101063" data-name="Trazado 101063" d="M486.416,4011h0a5.069,5.069,0,0,1,5.07,5.06h0a5.069,5.069,0,0,1-5.069,5.07h0a5.069,5.069,0,0,1-5.09-5.049V4016h0A5.072,5.072,0,0,1,486.416,4011Z" fill="#344154" stroke="#263238" stroke-miterlimit="10" stroke-width="1"/>
      <path id="Trazado_101064" data-name="Trazado 101064" d="M526.177,4011.645h0a5.061,5.061,0,0,1,5.06,5.06v.01h0a5.059,5.059,0,0,1-5.059,5.06h0a5.07,5.07,0,0,1-5.071-5.06h0a5.07,5.07,0,0,1,5.07-5.07Z" fill="#344154" stroke="#263238" stroke-miterlimit="10" stroke-width="1"/>
      <path id="Trazado_101065" data-name="Trazado 101065" d="M565.927,4019.825h0a5.071,5.071,0,0,1,5.07,5.06h0a5.071,5.071,0,0,1-5.02,5.12h-.05a5.068,5.068,0,0,1-5.06-5.07h0a5.068,5.068,0,0,1,5.029-5.109Z" fill="#344154" stroke="#263238" stroke-miterlimit="10" stroke-width="1"/>
      <path id="Trazado_101066" data-name="Trazado 101066" d="M605.686,3997.415h0a5.069,5.069,0,0,1,5.07,5.07h0a5.059,5.059,0,0,1-5.06,5.06h-.01a5.05,5.05,0,0,1-5.06-5.04v-.02h0a5.061,5.061,0,0,1,5.05-5.07Z" fill="#344154" stroke="#263238" stroke-miterlimit="10" stroke-width="1"/>
      <path id="Trazado_101067" data-name="Trazado 101067" d="M645.446,4014.065h0a5.069,5.069,0,0,1,5.07,5.07h0a5.06,5.06,0,0,1-5.06,5.06h-.01a5.06,5.06,0,0,1-5.07-5.05v-.01h0a5.07,5.07,0,0,1,5.07-5.07Z" fill="#344154" stroke="#263238" stroke-miterlimit="10" stroke-width="1"/>
      <path id="Trazado_101068" data-name="Trazado 101068" d="M685.2,4015.615h0a5.065,5.065,0,0,1,5.065,5.065h0a5.064,5.064,0,0,1-5.065,5.065h0a5.065,5.065,0,0,1-5.065-5.065h0A5.065,5.065,0,0,1,685.2,4015.615Z" fill="#344154" stroke="#263238" stroke-miterlimit="10" stroke-width="1"/>
      <path id="Trazado_101069" data-name="Trazado 101069" d="M724.967,4005.9h0a5.061,5.061,0,0,1,5.06,5.06v.05h0a5.06,5.06,0,0,1-5.05,5.07h-.01a5.07,5.07,0,0,1-5.07-5.07h0a5.069,5.069,0,0,1,5.029-5.11Z" fill="#344154" stroke="#263238" stroke-miterlimit="10" stroke-width="1"/>
      <line id="Línea_238" data-name="Línea 238" x2="40.18" transform="translate(506.656 3866.215)" fill="none" stroke="#263238" stroke-miterlimit="10" stroke-width="1"/>
      <line id="Línea_239" data-name="Línea 239" x2="40.18" transform="translate(506.656 3873.055)" fill="none" stroke="#263238" stroke-miterlimit="10" stroke-width="1"/>
      <line id="Línea_240" data-name="Línea 240" x2="40.18" transform="translate(506.656 3879.895)" fill="none" stroke="#263238" stroke-miterlimit="10" stroke-width="1"/>
      <line id="Línea_241" data-name="Línea 241" x2="40.18" transform="translate(506.656 3886.735)" fill="none" stroke="#263238" stroke-miterlimit="10" stroke-width="1"/>
      <rect id="Rectángulo_6577" data-name="Rectángulo 6577" width="96.59" height="34.66" transform="translate(616.226 3888.075)" fill="#344154" stroke="#263238" stroke-linecap="round" stroke-linejoin="round" stroke-width="1"/>
      <path id="Trazado_101070" data-name="Trazado 101070" d="M695.516,3903.325h28.43v11.1" fill="none" stroke="#263238" stroke-linecap="round" stroke-linejoin="round" stroke-width="1"/>
      <line id="Línea_242" data-name="Línea 242" x2="46.44" transform="translate(649.076 3927.595)" fill="none" stroke="#263238" stroke-linecap="round" stroke-linejoin="round" stroke-width="1"/>
      <line id="Línea_243" data-name="Línea 243" x2="46.44" transform="translate(649.076 3931.055)" fill="none" stroke="#263238" stroke-linecap="round" stroke-linejoin="round" stroke-width="1"/>
      <line id="Línea_244" data-name="Línea 244" x2="46.44" transform="translate(649.076 3934.525)" fill="none" stroke="#263238" stroke-linecap="round" stroke-linejoin="round" stroke-width="1"/>
      <rect id="Rectángulo_6578" data-name="Rectángulo 6578" width="106.891" height="34.66" transform="translate(590.415 4037.815)" fill="#6e6e6e" stroke="#263238" stroke-linecap="round" stroke-linejoin="round" stroke-width="1"/>
      <path id="Trazado_101071" data-name="Trazado 101071" d="M695.516,4053.065h28.43V4019.1" fill="none" stroke="#263238" stroke-linecap="round" stroke-linejoin="round" stroke-width="1"/>
      <line id="Línea_245" data-name="Línea 245" x2="46.44" transform="translate(649.076 4077.335)" fill="none" stroke="#263238" stroke-linecap="round" stroke-linejoin="round" stroke-width="1"/>
      <line id="Línea_246" data-name="Línea 246" x2="46.44" transform="translate(649.076 4080.795)" fill="none" stroke="#263238" stroke-linecap="round" stroke-linejoin="round" stroke-width="1"/>
      <line id="Línea_247" data-name="Línea 247" x2="46.44" transform="translate(649.076 4084.265)" fill="none" stroke="#263238" stroke-linecap="round" stroke-linejoin="round" stroke-width="1"/>
      <g id="Grupo_53903" data-name="Grupo 53903">
        <path id="Trazado_101072" data-name="Trazado 101072" d="M612.167,4056.525v4.509H609.53v-12.8h4.992a5.789,5.789,0,0,1,2.536.527,3.892,3.892,0,0,1,1.683,1.5,4.173,4.173,0,0,1,.589,2.21,3.674,3.674,0,0,1-1.288,2.967,5.364,5.364,0,0,1-3.564,1.085Zm0-2.136h2.355a2.316,2.316,0,0,0,1.6-.492,1.787,1.787,0,0,0,.55-1.406,2.113,2.113,0,0,0-.554-1.521,2.068,2.068,0,0,0-1.529-.6h-2.417Z" fill="#f2e9e4"/>
        <path id="Trazado_101073" data-name="Trazado 101073" d="M626.8,4058.4h-4.623l-.878,2.637h-2.8l4.764-12.8H625.7l4.79,12.8h-2.8Zm-3.911-2.136h3.2l-1.609-4.79Z" fill="#f2e9e4"/>
        <path id="Trazado_101074" data-name="Trazado 101074" d="M638.323,4057.676a1.355,1.355,0,0,0-.527-1.147,6.95,6.95,0,0,0-1.9-.843,13.492,13.492,0,0,1-2.171-.875,3.547,3.547,0,0,1-2.179-3.173,3.088,3.088,0,0,1,.584-1.85,3.815,3.815,0,0,1,1.679-1.27,6.306,6.306,0,0,1,2.456-.457,5.755,5.755,0,0,1,2.444.5,3.88,3.88,0,0,1,1.665,1.4,3.663,3.663,0,0,1,.593,2.056h-2.636a1.728,1.728,0,0,0-.554-1.367,2.278,2.278,0,0,0-1.556-.487,2.437,2.437,0,0,0-1.5.408,1.291,1.291,0,0,0-.536,1.077,1.235,1.235,0,0,0,.629,1.046,7.092,7.092,0,0,0,1.85.791,7.989,7.989,0,0,1,3.278,1.679,3.341,3.341,0,0,1,1.028,2.5,3.079,3.079,0,0,1-1.256,2.606,5.5,5.5,0,0,1-3.384.945,6.54,6.54,0,0,1-2.69-.541,4.257,4.257,0,0,1-1.85-1.481,3.79,3.79,0,0,1-.637-2.18H633.8q0,2.118,2.531,2.119a2.462,2.462,0,0,0,1.468-.383A1.245,1.245,0,0,0,638.323,4057.676Z" fill="#f2e9e4"/>
        <path id="Trazado_101075" data-name="Trazado 101075" d="M645.556,4061.034H642.92v-12.8h2.636Z" fill="#f2e9e4"/>
        <path id="Trazado_101076" data-name="Trazado 101076" d="M652.728,4057.861l2.9-9.624h2.935l-4.456,12.8h-2.751l-4.438-12.8h2.926Z" fill="#f2e9e4"/>
        <path id="Trazado_101077" data-name="Trazado 101077" d="M670.166,4054.925a7.73,7.73,0,0,1-.668,3.314,5.04,5.04,0,0,1-1.912,2.2,5.646,5.646,0,0,1-5.691.009,5.081,5.081,0,0,1-1.933-2.184,7.506,7.506,0,0,1-.695-3.265v-.633a7.688,7.688,0,0,1,.681-3.327,5.079,5.079,0,0,1,1.925-2.206,5.641,5.641,0,0,1,5.687,0,5.079,5.079,0,0,1,1.925,2.206,7.665,7.665,0,0,1,.681,3.318Zm-2.672-.58a5.376,5.376,0,0,0-.721-3.058,2.545,2.545,0,0,0-4.1-.013,5.316,5.316,0,0,0-.73,3.027v.624a5.446,5.446,0,0,0,.721,3.041,2.524,2.524,0,0,0,4.113.04,5.42,5.42,0,0,0,.721-3.037Z" fill="#f2e9e4"/>
        <path id="Trazado_101078" data-name="Trazado 101078" d="M678.717,4057.676a1.352,1.352,0,0,0-.527-1.147,6.924,6.924,0,0,0-1.9-.843,13.5,13.5,0,0,1-2.171-.875,3.548,3.548,0,0,1-2.18-3.173,3.089,3.089,0,0,1,.585-1.85,3.811,3.811,0,0,1,1.678-1.27,6.315,6.315,0,0,1,2.457-.457,5.75,5.75,0,0,1,2.443.5,3.889,3.889,0,0,1,1.666,1.4,3.671,3.671,0,0,1,.593,2.056h-2.637a1.728,1.728,0,0,0-.553-1.367,2.279,2.279,0,0,0-1.556-.487,2.433,2.433,0,0,0-1.5.408,1.291,1.291,0,0,0-.536,1.077,1.234,1.234,0,0,0,.628,1.046,7.107,7.107,0,0,0,1.85.791,8,8,0,0,1,3.279,1.679,3.345,3.345,0,0,1,1.028,2.5,3.08,3.08,0,0,1-1.257,2.606,5.5,5.5,0,0,1-3.384.945,6.538,6.538,0,0,1-2.689-.541,4.251,4.251,0,0,1-1.85-1.481,3.79,3.79,0,0,1-.637-2.18h2.645q0,2.118,2.531,2.119a2.46,2.46,0,0,0,1.468-.383A1.243,1.243,0,0,0,678.717,4057.676Z" fill="#f2e9e4"/>
      </g>
      <g id="Grupo_53904" data-name="Grupo 53904">
        <path id="Trazado_101079" data-name="Trazado 101079" d="M634.614,3909.98h-4.623l-.879,2.637h-2.8l4.764-12.8h2.443l4.79,12.8h-2.8Zm-3.911-2.135h3.2l-1.608-4.791Z" fill="#f2e9e4"/>
        <path id="Trazado_101080" data-name="Trazado 101080" d="M649.362,3908.354a4.53,4.53,0,0,1-1.525,3.252,5.354,5.354,0,0,1-3.625,1.187,4.814,4.814,0,0,1-3.872-1.657,6.8,6.8,0,0,1-1.411-4.548v-.783a7.668,7.668,0,0,1,.651-3.252,4.869,4.869,0,0,1,1.859-2.157,5.806,5.806,0,0,1,6.376.435,4.869,4.869,0,0,1,1.565,3.331h-2.637a2.677,2.677,0,0,0-.69-1.8,2.552,2.552,0,0,0-1.806-.559,2.24,2.24,0,0,0-1.973.945,5.293,5.293,0,0,0-.673,2.931v.967a5.663,5.663,0,0,0,.629,3.032,2.2,2.2,0,0,0,1.982.958,2.6,2.6,0,0,0,1.823-.558,2.514,2.514,0,0,0,.69-1.727Z" fill="#f2e9e4"/>
        <path id="Trazado_101081" data-name="Trazado 101081" d="M660.471,3901.956h-3.92v10.661h-2.636v-10.661h-3.867v-2.136h10.423Z" fill="#f2e9e4"/>
        <path id="Trazado_101082" data-name="Trazado 101082" d="M664.778,3912.617h-2.637v-12.8h2.637Z" fill="#f2e9e4"/>
        <path id="Trazado_101083" data-name="Trazado 101083" d="M671.95,3909.444l2.9-9.624h2.936l-4.456,12.8h-2.751l-4.439-12.8h2.927Z" fill="#f2e9e4"/>
        <path id="Trazado_101084" data-name="Trazado 101084" d="M689.387,3906.509a7.714,7.714,0,0,1-.668,3.313,5.026,5.026,0,0,1-1.911,2.2,5.646,5.646,0,0,1-5.691.009,5.084,5.084,0,0,1-1.934-2.184,7.506,7.506,0,0,1-.694-3.265v-.633a7.688,7.688,0,0,1,.681-3.327,5.073,5.073,0,0,1,1.925-2.206,5.64,5.64,0,0,1,5.686,0,5.066,5.066,0,0,1,1.925,2.206,7.666,7.666,0,0,1,.681,3.318Zm-2.671-.581a5.387,5.387,0,0,0-.721-3.058,2.546,2.546,0,0,0-4.1-.013,5.326,5.326,0,0,0-.729,3.028v.624a5.45,5.45,0,0,0,.721,3.041,2.523,2.523,0,0,0,4.113.039,5.424,5.424,0,0,0,.721-3.036Z" fill="#f2e9e4"/>
        <path id="Trazado_101085" data-name="Trazado 101085" d="M697.939,3909.26a1.352,1.352,0,0,0-.527-1.147,6.913,6.913,0,0,0-1.9-.844,13.533,13.533,0,0,1-2.171-.875,3.546,3.546,0,0,1-2.179-3.173,3.094,3.094,0,0,1,.584-1.85,3.814,3.814,0,0,1,1.679-1.27,6.33,6.33,0,0,1,2.457-.457,5.75,5.75,0,0,1,2.443.5,3.88,3.88,0,0,1,1.665,1.4,3.663,3.663,0,0,1,.594,2.056h-2.637a1.725,1.725,0,0,0-.554-1.366,2.27,2.27,0,0,0-1.555-.488,2.427,2.427,0,0,0-1.5.409,1.286,1.286,0,0,0-.536,1.076,1.233,1.233,0,0,0,.628,1.046,7.107,7.107,0,0,0,1.85.791,7.986,7.986,0,0,1,3.278,1.679,3.342,3.342,0,0,1,1.029,2.5,3.08,3.08,0,0,1-1.257,2.606,5.5,5.5,0,0,1-3.384.945,6.52,6.52,0,0,1-2.689-.541,4.254,4.254,0,0,1-1.851-1.481,3.8,3.8,0,0,1-.637-2.179h2.646q0,2.118,2.531,2.118a2.462,2.462,0,0,0,1.468-.383A1.242,1.242,0,0,0,697.939,3909.26Z" fill="#f2e9e4"/>
      </g>
    </g>
    <g id="freepik--Plants--inject-276">
      <path id="Trazado_101086" data-name="Trazado 101086" d="M723.647,4193.785s-26.49-46.52-20.381-58.35,21.74,9.46,21.74,9.46-13.59-43.37-6.109-62.29,20.369,0,21.049,13.4-2.71,36.28-2.71,36.28,5.43-47.32,18.34-33.12-16.31,61.5-16.31,61.5,19.7-11,19,3.16-23.769,26.81-23.769,26.81" fill="#d9a171"/>
      <path id="Trazado_101087" data-name="Trazado 101087" d="M723.876,4185.115s-24.55-22.87-12.55-33.11,18.22,11,18.22,11-13.2-65.45,8.18-67.82,5.6,56.82,5.6,56.82,18.231-25.23,17-4.73-28.29,37.85-28.29,37.85" fill="none" stroke="#263238" stroke-miterlimit="10" stroke-width="1"/>
      <line id="Línea_248" data-name="Línea 248" x1="16.57" y1="17.95" transform="translate(719.346 4163.005)" fill="none" stroke="#263238" stroke-miterlimit="10" stroke-width="1"/>
      <line id="Línea_249" data-name="Línea 249" y1="52.47" x2="4.48" transform="translate(732.466 4129.865)" fill="none" stroke="#263238" stroke-miterlimit="10" stroke-width="1"/>
      <line id="Línea_250" data-name="Línea 250" y1="19.67" x2="14.84" transform="translate(731.776 4158.865)" fill="none" stroke="#263238" stroke-miterlimit="10" stroke-width="1"/>
      <path id="Trazado_101088" data-name="Trazado 101088" d="M753.247,4174.875h-45.83l4.58,54.05h36.66Z" fill="#344154"/>
    </g>
    <g id="freepik--Character--inject-276">
      <path id="Trazado_101089" data-name="Trazado 101089" d="M369.326,4043.755s2.47,54.5,4.67,73.49a287.6,287.6,0,0,1,1.82,49.88c-.78,17.13,3.11,47.18,3.11,47.88v4s-6,9.1-9.32,12-5.1,5.77-4,7.32,4.21,4,12.86,1.77,12-4.66,14-7.54a19.759,19.759,0,0,1,5.32-4.88,97.162,97.162,0,0,1,11.31,3.11c5.77,2,10.43,4.21,17.08,4.21s8-4.21,6.43-6.21-12.64-7.54-14.41-11.09-.89-6.43-.89-14.42,1.94-28.52,2.56-39.2,13.76-44.15,16.11-60.9,5.55-34.22,5.83-42.67.16-16,.16-16,.18-.89-.65-4.63-1.059-3.73-21.849-1.89a349.426,349.426,0,0,1-41,1.41C372.006,4039.185,369.866,4041.065,369.326,4043.755Z" fill="#d9a171" stroke="#263238" stroke-linecap="round" stroke-linejoin="round" stroke-width="1"/>
      <path id="Trazado_101090" data-name="Trazado 101090" d="M412.666,4074.2s-2.88,49-7.18,66.71-6.38,48.1-6.38,57.88-.66,17.08-.66,17.08" fill="none" stroke="#263238" stroke-linecap="round" stroke-linejoin="round" stroke-width="1"/>
      <line id="Línea_251" data-name="Línea 251" y1="10.41" x2="9.3" transform="translate(412.436 4073.345)" fill="none" stroke="#263238" stroke-linecap="round" stroke-linejoin="round" stroke-width="1"/>
      <line id="Línea_252" data-name="Línea 252" x1="2.59" y2="15.74" transform="translate(384.316 4049.605)" fill="none" stroke="#263238" stroke-linecap="round" stroke-linejoin="round" stroke-width="1"/>
      <line id="Línea_253" data-name="Línea 253" x2="0.24" y2="2.67" transform="translate(392.827 4067.955)" fill="none" stroke="#263238" stroke-linecap="round" stroke-linejoin="round" stroke-width="1"/>
      <line id="Línea_254" data-name="Línea 254" x2="1.28" y2="13.92" transform="translate(391.206 4050.365)" fill="none" stroke="#263238" stroke-linecap="round" stroke-linejoin="round" stroke-width="1"/>
      <path id="Trazado_101091" data-name="Trazado 101091" d="M415.176,4046.905l-.21,16.1,5.52-3.56.85-12.35" fill="none" stroke="#263238" stroke-linecap="round" stroke-linejoin="round" stroke-width="1"/>
      <line id="Línea_255" data-name="Línea 255" x2="1.61" y2="14.6" transform="translate(436.966 4047.335)" fill="none" stroke="#263238" stroke-linecap="round" stroke-linejoin="round" stroke-width="1"/>
      <line id="Línea_256" data-name="Línea 256" x1="2.81" y2="11.01" transform="translate(431.776 4046.975)" fill="none" stroke="#263238" stroke-linecap="round" stroke-linejoin="round" stroke-width="1"/>
      <path id="Trazado_101092" data-name="Trazado 101092" d="M448.736,3950.935c-1.41-3.34-21.41-8.67-30.41-11.8s-19.57-3.36-22.19-1.69c0,0-15.48,8.65-26.64,12.7s-18.12,6.63-19,9.65c-.69,2.43-4.13,36-5.43,48.78-.5,2.35-1.32,6-2,8.26-1.12,3.45,3,11.06,9.69,13.73s9.4-2.27,11.2-6.32c1.34-3,2.81-6.57,3.46-8.38.26,1.5,2.55,15.09,1.06,20.51-1.64,5.74-1.15,10.11,2.45,11.63s68.71-4.11,69.74-3.17,5.21-.94,6.73-4.84a13.8,13.8,0,0,0,0-9.5c-.62-1.24-1.26-5.89-1.26-5.89s5.35,2.31,10.13,1.38,9.47-6.81,9.68-14.76S450.166,3954.275,448.736,3950.935Z" fill="#344154" stroke="#263238" stroke-linecap="round" stroke-linejoin="round" stroke-width="1"/>
      <path id="Trazado_101093" data-name="Trazado 101093" d="M362.136,3980.575c-.42-2.87-.7-4.85-.75-5.26" fill="none" stroke="#828282" stroke-linecap="round" stroke-linejoin="round" stroke-width="1"/>
      <path id="Trazado_101094" data-name="Trazado 101094" d="M367.326,4015.865s-2.52-16.94-4.29-28.94" fill="none" stroke="#828282" stroke-linecap="round" stroke-linejoin="round" stroke-width="1"/>
      <line id="Línea_257" data-name="Línea 257" x1="0.59" y1="59.8" transform="translate(445.536 3964.825)" fill="none" stroke="#828282" stroke-linecap="round" stroke-linejoin="round" stroke-width="1"/>
      <circle id="Elipse_4034" data-name="Elipse 4034" cx="20.89" cy="20.89" r="20.89" transform="translate(391.096 3979.928)" fill="#d9a171"/>
      <path id="Trazado_101095" data-name="Trazado 101095" d="M418.326,3939.135c-9.07-3.13-19.57-3.36-22.19-1.69,0,0-3.6,2-8.57,4.54-.24,1.75-.38,4,.22,5.06,1.08,1.93,20,24.46,23.61,23.59s14.91-24.49,15.32-27.91a5.772,5.772,0,0,1,.11-.86C423.576,3940.865,420.586,3939.925,418.326,3939.135Z" fill="#fff" stroke="#263238" stroke-linecap="round" stroke-linejoin="round" stroke-width="1"/>
      <path id="Trazado_101096" data-name="Trazado 101096" d="M343.076,4002.935a44.326,44.326,0,0,0,9.75,5.51c4.61,1.64,9.79,6.36,10.55,10.58s1.24,8.59-3.55,12.5-11.31.51-16.66-4.78-6.61-17.56-8-20.05S337.116,3999.665,343.076,4002.935Z" fill="#fff" stroke="#263238" stroke-linecap="round" stroke-linejoin="round" stroke-width="1"/>
      <path id="Trazado_101097" data-name="Trazado 101097" d="M344.826,4007s1.59-5.45-.36-7.92-6.55-6.79-7.33-11.57-1.37-8.16-3.33-7.79-3.12,6.24-2.27,9.46,1.86,6.58,1.65,8.15-2.71,2.67-3,5.8,3.13,12.76,5.36,15.07,8.65,0,10.33-3.59S344.826,4007,344.826,4007Z" fill="#fff" stroke="#263238" stroke-linecap="round" stroke-linejoin="round" stroke-width="1"/>
      <path id="Trazado_101098" data-name="Trazado 101098" d="M329.086,4013.215s0,2.83,3.59,4.09,8.28-1.94,6.61-7.39a14.8,14.8,0,0,0-3.65.87C334.256,4011.415,331.536,4014,329.086,4013.215Z" fill="#fff" stroke="#263238" stroke-linecap="round" stroke-linejoin="round" stroke-width="1"/>
      <path id="Trazado_101099" data-name="Trazado 101099" d="M326.776,4009.205s.13,2.83,1.48,4.33,5.59,1.45,8.78-.12,2.87-5.51,2.11-6.61-1-.52-2.26.24-5.32,1.52-7,1.6S327.606,4008.745,326.776,4009.205Z" fill="#fff" stroke="#263238" stroke-linecap="round" stroke-linejoin="round" stroke-width="1"/>
      <path id="Trazado_101100" data-name="Trazado 101100" d="M325.836,4004s-2.3,2.51-.63,4.85,6.92,2.52,10,1.39,3.8-3.24,3.71-5.24-1.65-2.19-2.79-2.14S325.836,4004,325.836,4004Z" fill="#fff" stroke="#263238" stroke-linecap="round" stroke-linejoin="round" stroke-width="1"/>
      <path id="Trazado_101101" data-name="Trazado 101101" d="M333.756,3997.405s-7.95-.2-10.16.89a3.84,3.84,0,0,0-1.612,5.186c.047.09.1.178.152.264,1.06,1.51,8,1.2,10.8.65s3.77-1.31,3.67-3.57A4,4,0,0,0,333.756,3997.405Z" fill="#fff" stroke="#263238" stroke-linecap="round" stroke-linejoin="round" stroke-width="1"/>
      <path id="Trazado_101102" data-name="Trazado 101102" d="M475.686,3982.595s-15.6,12.33-21.68,15.73-6.26,18.29-3.77,23.13,8.75,5.28,15.36,1,17-22.6,19.77-29.68,3.71-8.81,3.71-8.81,5.83.3,9.571-1.57,4.41-9,4.38-12.82,1-6.42-2.45-7-8.73,1.1-8.73,1.1a47.013,47.013,0,0,0,.15-9.08c-.46-3.94-3.13-3.4-4-1.8s-1.06,7.85-2.84,12.47a115.59,115.59,0,0,1-6.72,14.19A19.116,19.116,0,0,1,475.686,3982.595Z" fill="#fff" stroke="#263238" stroke-linecap="round" stroke-linejoin="round" stroke-width="1"/>
      <path id="Trazado_101103" data-name="Trazado 101103" d="M502.576,3975.425s.42,2.81-.66,4.14-6.58,1.71-8,.79-1.48-4.47,2.19-4.78A51.747,51.747,0,0,1,502.576,3975.425Z" fill="#fff" stroke="#263238" stroke-linecap="round" stroke-linejoin="round" stroke-width="1"/>
      <path id="Trazado_101104" data-name="Trazado 101104" d="M504.037,3970.115s1.55,2.76.509,4.79-5.259,2.79-8,2.07-1.759-4.46-.95-5.35,2.95-.56,3.941-.6A43.582,43.582,0,0,0,504.037,3970.115Z" fill="#fff" stroke="#263238" stroke-linecap="round" stroke-linejoin="round" stroke-width="1"/>
      <path id="Trazado_101105" data-name="Trazado 101105" d="M505,3966.235a3,3,0,0,1,.86,3.37c-.9,1.88-3.55,2.85-6.37,3.26s-3.9-1.66-4-3.64a2.361,2.361,0,0,1,2.039-2.642,2.331,2.331,0,0,1,.391-.018Z" fill="#fff" stroke="#263238" stroke-linecap="round" stroke-linejoin="round" stroke-width="1"/>
      <path id="Trazado_101106" data-name="Trazado 101106" d="M496.736,3962.225s-1.059,4.72.81,5.35,8.77-.4,9.55-1.86,1.18-5.29-.53-5.5-9.139,1.55-9.139,1.55S497.7,3961.465,496.736,3962.225Z" fill="#fff" stroke="#263238" stroke-linecap="round" stroke-linejoin="round" stroke-width="1"/>
      <path id="Trazado_101107" data-name="Trazado 101107" d="M491.846,3963.715a10.229,10.229,0,0,0,.72,3.37c.62,1.25,2.45,4,.331,7.36" fill="#fff" stroke="#263238" stroke-linecap="round" stroke-linejoin="round" stroke-width="1"/>
      <path id="Trazado_101108" data-name="Trazado 101108" d="M393.326,4221.185s-2.21-5.1-7.31-6.21-7.1,4-7.1,4-6,9.1-9.32,12-5.1,5.77-4,7.32,4.21,4,12.86,1.77,12-4.66,14-7.54a19.758,19.758,0,0,1,5.32-4.88l.67-11.75Z" fill="#fff" stroke="#263238" stroke-linecap="round" stroke-linejoin="round" stroke-width="1"/>
      <path id="Trazado_101109" data-name="Trazado 101109" d="M389.126,4230.945c-2.66,3.77-5.32,6.21-14.19,6.65-5,.25-7.89-.63-9.46-1.44a2.283,2.283,0,0,0,.14,2.11c1.11,1.55,4.21,4,12.86,1.77s12-4.66,14-7.54a19.75,19.75,0,0,1,5.32-4.88l.18-3.08C397.466,4224.745,391.676,4227.335,389.126,4230.945Z" fill="#fff" stroke="#263238" stroke-linecap="round" stroke-linejoin="round" stroke-width="1"/>
      <path id="Trazado_101110" data-name="Trazado 101110" d="M426.166,4234.935c6.65,0,8-4.21,6.43-6.21s-12.64-7.54-14.41-11.09a10.5,10.5,0,0,1-1.09-4.44c-6.57-.99-9.77,5.81-9.77,5.81l-8.87-3.1-.67,11.75a97.162,97.162,0,0,1,11.31,3.11C414.856,4232.715,419.516,4234.935,426.166,4234.935Z" fill="#fff" stroke="#263238" stroke-linecap="round" stroke-linejoin="round" stroke-width="1"/>
      <path id="Trazado_101111" data-name="Trazado 101111" d="M410.636,4228.725a84.253,84.253,0,0,0-12.68-4.19h0v3.12a99.289,99.289,0,0,1,11.1,3.07c5.77,2,10.43,4.21,17.08,4.21,4.32,0,6.38-1.77,6.89-3.56C425.376,4236,415,4230.805,410.636,4228.725Z" fill="#fff" stroke="#263238" stroke-linecap="round" stroke-linejoin="round" stroke-width="1"/>
      <path id="Trazado_101112" data-name="Trazado 101112" d="M391.506,3929.865s1.26,12.13,1.94,14.65,14.54,20.6,16.68,17.81,10.49-18.76,11-20.48.08-10.64.08-10.64a20.737,20.737,0,0,1-15.9,2.42C396.106,3931.355,391.506,3929.865,391.506,3929.865Z" fill="#fff" stroke="#263238" stroke-linecap="round" stroke-linejoin="round" stroke-width="1"/>
      <path id="Trazado_101113" data-name="Trazado 101113" d="M386.556,3908.4s-3.23-4.67-6.81-3.39-2.49,7.76.07,11,6.43,4.1,7.37,0A13.07,13.07,0,0,0,386.556,3908.4Z" fill="#fff" stroke="#263238" stroke-linecap="round" stroke-linejoin="round" stroke-width="1"/>
      <path id="Trazado_101114" data-name="Trazado 101114" d="M423.866,3902.735s2.44-5.64,4.74-1.63.48,10.46-.9,11.38-3,.27-3.37-2.4Q423.918,3906.425,423.866,3902.735Z" fill="#fff" stroke="#263238" stroke-linecap="round" stroke-linejoin="round" stroke-width="1"/>
      <path id="Trazado_101115" data-name="Trazado 101115" d="M378.936,3890.315c-.66-6.19,4.68-15.38,11.54-17.39a32.411,32.411,0,0,1,12.27-1.27s-.65-4.93,5.57-5.35,11.38,7.13,9.56,10.62-4.09,3.59-4.09,3.59l11.76,28s1.57,3.34,2.08,11.53-2.82,12.75-9.31,16.59-16.24,1.44-23.34-1.92-8.32-8.55-8.69-13.5.59-15-2.24-21.16S379.426,3895,378.936,3890.315Z" fill="#344154" stroke="#263238" stroke-linecap="round" stroke-linejoin="round" stroke-width="1"/>
      <path id="Trazado_101116" data-name="Trazado 101116" d="M415.836,3878.855s-9.39-3.82-17.909-1-12.911,9.07-11.881,13.15,2.93,8.23,3.25,15.3,1.66,17.79,8.89,21,8.93,3.14,9.56,1.41,1.25-3.88,3.92-4.29,2.69,3.14,3.88,4.22,4.44-2,8.06-6.6,2.43-12,.86-18.47-1.62-10.7-2.56-15.9S417.716,3879.625,415.836,3878.855Z" fill="#fff" stroke="#263238" stroke-linecap="round" stroke-linejoin="round" stroke-width="1"/>
      <path id="Trazado_101117" data-name="Trazado 101117" d="M406.536,3895.725a49.494,49.494,0,0,0-11.19.22c-5.91.84-6.7,2.29-6.65,3.28s.48,7.49,5.24,9.4,13-.73,14-2.9.82-10,.82-10Z" fill="#d9a171" stroke="#263238" stroke-linecap="round" stroke-linejoin="round" stroke-width="1"/>
      <path id="Trazado_101118" data-name="Trazado 101118" d="M413.726,3894.835a49.367,49.367,0,0,1,10.82-2.83c5.91-.82,7.071.36,7.3,1.32s1.6,7.34-2.46,10.49-12.71,2.87-14.3,1.07-3.53-9.35-3.53-9.35Z" fill="#d9a171" stroke="#263238" stroke-linecap="round" stroke-linejoin="round" stroke-width="1"/>
      <line id="Línea_258" data-name="Línea 258" y1="0.27" x2="2.75" transform="translate(408.806 3895.495)" fill="none" stroke="#263238" stroke-linecap="round" stroke-linejoin="round" stroke-width="1"/>
      <line id="Línea_259" data-name="Línea 259" x1="2.99" y2="7.18" transform="translate(385.676 3898.665)" fill="none" stroke="#fff" stroke-linecap="round" stroke-linejoin="round" stroke-width="1"/>
      <path id="Trazado_101119" data-name="Trazado 101119" d="M411.816,3899.595s4.14,10,2.91,10.93-6,2.54-7.21.46" fill="none" stroke="#263238" stroke-linecap="round" stroke-linejoin="round" stroke-width="1"/>
      <path id="Trazado_101120" data-name="Trazado 101120" d="M399.946,3916s10.38,3.93,19.38-1.44" fill="none" stroke="#263238" stroke-linecap="round" stroke-linejoin="round" stroke-width="1"/>
      <path id="Trazado_101121" data-name="Trazado 101121" d="M391.556,3893.565s2.191-4.77,9.46-3.83" fill="none" stroke="#263238" stroke-linecap="round" stroke-linejoin="round" stroke-width="2"/>
      <path id="Trazado_101122" data-name="Trazado 101122" d="M412.616,3892.185s4.08-3.73,8.28-1.79" fill="none" stroke="#263238" stroke-linecap="round" stroke-linejoin="round" stroke-width="2"/>
      <path id="Trazado_101123" data-name="Trazado 101123" d="M423.266,3895.325s-.5,5.14.6,7.41" fill="none" stroke="#263238" stroke-linecap="round" stroke-linejoin="round" stroke-width="1"/>
      <path id="Trazado_101124" data-name="Trazado 101124" d="M401.256,3902.455c0,1.3-.46,2.38-1.15,2.42s-1.31-1-1.37-2.3.46-2.38,1.15-2.41S401.2,3901.155,401.256,3902.455Z" fill="#344154"/>
      <path id="Trazado_101125" data-name="Trazado 101125" d="M418.156,3900.595c.06,1.3-.46,2.38-1.15,2.41s-1.3-1-1.36-2.3.45-2.38,1.15-2.41S418.1,3899.285,418.156,3900.595Z" fill="#344154"/>
    </g>
    <g id="Grupo_53905" data-name="Grupo 53905">
      <path id="Trazado_101126" data-name="Trazado 101126" d="M417.084,4009.418a4.161,4.161,0,0,0-1.034-2.966,9.379,9.379,0,0,0-3.511-2.034,41.446,41.446,0,0,1-4.273-1.852,13.6,13.6,0,0,1-3.079-2.114,8.488,8.488,0,0,1-2-2.806,9.424,9.424,0,0,1-.716-3.841,8.519,8.519,0,0,1,2.455-6.295,10.353,10.353,0,0,1,6.522-2.864v-4.863h3.636v4.931a9.491,9.491,0,0,1,6.295,3.353,11.043,11.043,0,0,1,2.273,7.215h-6.568a6.269,6.269,0,0,0-1.125-4.079,3.716,3.716,0,0,0-3.011-1.352,3.828,3.828,0,0,0-2.886,1.056,4.024,4.024,0,0,0-1.023,2.921,3.842,3.842,0,0,0,1,2.772,11.014,11.014,0,0,0,3.716,2.136,41.455,41.455,0,0,1,4.465,2.057,12.9,12.9,0,0,1,2.955,2.182,8.441,8.441,0,0,1,1.84,2.772,9.536,9.536,0,0,1,.637,3.625,8.485,8.485,0,0,1-2.409,6.273,10.566,10.566,0,0,1-6.636,2.84v4.523h-3.614v-4.5a10.924,10.924,0,0,1-7.215-3.307,10.653,10.653,0,0,1-2.557-7.465h6.568a6.041,6.041,0,0,0,1.284,4.147,4.685,4.685,0,0,0,3.693,1.444,4.514,4.514,0,0,0,3.159-1.057A3.669,3.669,0,0,0,417.084,4009.418Z" fill="#344154"/>
    </g>
  </g>
</svg>
