<svg xmlns="http://www.w3.org/2000/svg" width="417.015" height="404.247" viewBox="0 0 417.015 404.247">
  <g id="Grupo_54049" data-name="Grupo 54049" transform="translate(-834.427 -3833.957)">
    <g id="Grupo_53907" data-name="Grupo 53907">
      <path id="Rectángulo_6579" data-name="Rectángulo 6579" d="M2.746,0H59.563a2.746,2.746,0,0,1,2.746,2.746V59.563a2.747,2.747,0,0,1-2.747,2.747H2.747A2.747,2.747,0,0,1,0,59.563V2.746A2.746,2.746,0,0,1,2.746,0Z" transform="translate(920.396 3833.957)" fill="#f0f0f0"/>
      <path id="Trazado_101127" data-name="Trazado 101127" d="M969.759,3849.333h-.075a12.411,12.411,0,0,0-3.823.3,10.747,10.747,0,0,0,3.424.3c-.194.2-.47.5-.824.886-.771.865-1.788,2.007-3.029,3.4l-9.971,11.478-4.211-2.814-2.179-1.451-.222-.148-.172.2c-4.453,5.206-8.391,9.855-11.2,13.216-1.35,1.632-2.458,2.974-3.293,3.983a11.92,11.92,0,0,0-1.14,1.5,11.948,11.948,0,0,0,1.308-1.357l3.433-3.863c2.853-3.248,6.782-7.776,11.174-12.889l1.958,1.307,4.433,2.948.22.146.168-.2,9.987-11.81,2.894-3.513c.372-.461.635-.8.8-1.019h.043a10.856,10.856,0,0,0,.3,3.448,12.071,12.071,0,0,0,.3-3.747v-.3Z" fill="#e1e1e1"/>
    </g>
    <g id="Grupo_53908" data-name="Grupo 53908">
      <path id="Trazado_101128" data-name="Trazado 101128" d="M1127.623,3875.545H1158.1a30.482,30.482,0,1,1-31.186-30.473Z" fill="#f0f0f0"/>
      <path id="Trazado_101129" data-name="Trazado 101129" d="M1135.839,3868.114l-.689-30.481a32.147,32.147,0,0,1,21.946,8.636,31.332,31.332,0,0,1,9.213,21.372Z" fill="#ececec"/>
    </g>
    <g id="Grupo_53910" data-name="Grupo 53910">
      <path id="Trazado_101130" data-name="Trazado 101130" d="M1140.035,4001.016c-.175,5.594.147,22.676.147,22.676l5.039-5.039h28.111a1.787,1.787,0,0,0,1.787-1.786v-15.8a1.786,1.786,0,0,0-1.787-1.786h-31.51A1.788,1.788,0,0,0,1140.035,4001.016Z" fill="#ececec"/>
      <g id="Grupo_53909" data-name="Grupo 53909">
        <path id="Trazado_101131" data-name="Trazado 101131" d="M1154.418,4009a1.323,1.323,0,1,1-1.323-1.323A1.323,1.323,0,0,1,1154.418,4009Z" fill="#e1e1e1"/>
        <path id="Trazado_101132" data-name="Trazado 101132" d="M1158.874,4009a1.323,1.323,0,1,1-1.323-1.323A1.323,1.323,0,0,1,1158.874,4009Z" fill="#e1e1e1"/>
        <path id="Trazado_101133" data-name="Trazado 101133" d="M1163.33,4009a1.323,1.323,0,1,1-1.323-1.323A1.323,1.323,0,0,1,1163.33,4009Z" fill="#e1e1e1"/>
      </g>
    </g>
    <path id="Trazado_101134" data-name="Trazado 101134" d="M910.816,4089.9c.746-9.737,7.913-24.8,16.705-29.047a28.624,28.624,0,0,1,27.911,2.008c5.515,3.723,9.692,9.39,15.727,12.193,11.93,5.539,26.081-2.308,34.414-12.485s13.554-22.807,22.977-31.983a47.61,47.61,0,0,1,68.092,1.7c6.411,6.9,10.615,15.5,15.76,23.392s11.763,15.461,20.708,18.412c12.3,4.054,26.169-1.9,34.869-11.487s13.215-22.177,16.982-34.563,7.091-25.143,14.015-36.082,18.316-19.991,31.258-20.337v117.9Z" fill="#f0f0f0"/>
    <g id="Grupo_53911" data-name="Grupo 53911">
      <path id="Trazado_101135" data-name="Trazado 101135" d="M1251.442,4237.943c0,.144-93.36.261-208.5.261-115.179,0-208.518-.117-208.518-.261s93.339-.26,208.518-.26C1158.082,4237.683,1251.442,4237.8,1251.442,4237.943Z" fill="#344154"/>
    </g>
    <g id="Grupo_53917" data-name="Grupo 53917">
      <g id="Grupo_53912" data-name="Grupo 53912">
        <path id="Trazado_101136" data-name="Trazado 101136" d="M1172.283,3986.453a3.62,3.62,0,0,0,.6-.12,1.981,1.981,0,0,0,1.224-1.2,3.518,3.518,0,0,0,.111-1.3q-.006-.739-.012-1.612c-.007-1.168-.015-2.512-.024-4.022-.02-6.071-.048-14.825-.083-25.633-.01-5.413-.02-11.339-.032-17.7q-.006-4.772-.013-9.861,0-2.543-.005-5.156c-.014-.853.025-1.791-.031-2.59a1.761,1.761,0,0,0-1.619-1.453l-46.535.015a1.746,1.746,0,0,0-1.743,1.688q0,1.536,0,3.061,0,3.057,0,6.075,0,6.031,0,11.877c-.006,7.787-.011,15.3-.016,22.454s-.016,13.953-.024,20.317q0,1.194,0,2.366a8.91,8.91,0,0,0,.029,1.127,1.792,1.792,0,0,0,1.34,1.415,5.238,5.238,0,0,0,1.083.053l2.237,0,8.494.017,25.631.082,6.969.049,1.812.026c.408.009.617.027.617.027s-.209.017-.617.026l-1.812.026-6.969.049-25.631.083-8.494.017-2.237,0a5.463,5.463,0,0,1-1.179-.061,2.207,2.207,0,0,1-1.658-1.741,8.861,8.861,0,0,1-.04-1.2q0-1.173,0-2.366c-.007-6.364-.015-13.163-.024-20.317s-.009-14.667-.015-22.454q0-5.841,0-11.877,0-3.016,0-6.075,0-1.533,0-3.076a2.268,2.268,0,0,1,2.263-2.194l46.566.028a2.237,2.237,0,0,1,2.056,1.85c.068.96.017,1.782.032,2.671q0,2.613-.006,5.156-.006,5.083-.013,9.861c-.011,6.362-.022,12.288-.032,17.7-.035,10.808-.063,19.562-.082,25.633-.009,1.51-.018,2.854-.024,4.022q-.008.872-.013,1.612a3.584,3.584,0,0,1-.142,1.338,2.021,2.021,0,0,1-1.307,1.218A1.558,1.558,0,0,1,1172.283,3986.453Z" fill="#344154"/>
      </g>
      <g id="Grupo_53913" data-name="Grupo 53913">
        <path id="Trazado_101137" data-name="Trazado 101137" d="M1152.362,3929.551c-6.8-1.509-14.266,2.186-16.177,9.193-1.837,6.733,2.606,14.587,9.36,16.418a13.962,13.962,0,0,0,16.335-8.75c2.426-7.19-2.188-14.936-9.141-17.229-.807-.266-1.128.975-.348,1.261,5.929,2.172,10.188,8.572,8.416,14.982-1.685,6.1-8.829,10.178-14.936,8.556-5.868-1.559-9.656-7.858-8.91-13.728.913-7.187,8.523-11.493,15.295-10.317.25.044.361-.33.106-.386Z" fill="#344154"/>
      </g>
      <g id="Grupo_53914" data-name="Grupo 53914">
        <path id="Trazado_101138" data-name="Trazado 101138" d="M1145.6,3954.959a13.761,13.761,0,0,0,17.032-9.03c2.122-7.307-2.605-15.2-9.72-17.376-1.642-.5-2.228,1.922-.695,2.521,6.027,2.359,10.02,8.89,7.638,15.3-2.119,5.7-8.366,8.453-14.148,7.8-.464-.053-.521.66-.107.788Z" fill="#d9a171"/>
      </g>
      <g id="Grupo_53915" data-name="Grupo 53915">
        <path id="Trazado_101139" data-name="Trazado 101139" d="M1162.979,3966.914c0,.144-6.189.261-13.822.261s-13.823-.117-13.823-.261,6.188-.26,13.823-.26S1162.979,3966.77,1162.979,3966.914Z" fill="#d9a171"/>
      </g>
      <g id="Grupo_53916" data-name="Grupo 53916">
        <path id="Trazado_101140" data-name="Trazado 101140" d="M1162.979,3971.107c0,.144-6.189.261-13.822.261s-13.823-.117-13.823-.261,6.188-.26,13.823-.26S1162.979,3970.964,1162.979,3971.107Z" fill="#d9a171"/>
      </g>
    </g>
    <g id="Grupo_53929" data-name="Grupo 53929">
      <path id="Trazado_101141" data-name="Trazado 101141" d="M974.535,3872.045v92.46a3.719,3.719,0,0,0,3.719,3.719h123.16a3.719,3.719,0,0,0,3.719-3.719v-95.674a3.719,3.719,0,0,0-3.816-3.718l-123.16,3.214A3.72,3.72,0,0,0,974.535,3872.045Z" fill="#e1e1e1"/>
      <g id="Grupo_53918" data-name="Grupo 53918">
        <path id="Trazado_101142" data-name="Trazado 101142" d="M1094.137,3888.224c-.046.1-1.569-.786-4.556-1.731a29.3,29.3,0,0,0-13.068-.97,28.581,28.581,0,0,0-8.618,2.77,40.627,40.627,0,0,0-8.474,6.094c-2.779,2.453-5.537,5.237-8.719,7.811a30.068,30.068,0,0,1-11.128,6.022,16.822,16.822,0,0,1-6.5.392,21.032,21.032,0,0,1-6.02-1.859,105.207,105.207,0,0,1-10.085-6,31.45,31.45,0,0,0-9.485-4.252,28.153,28.153,0,0,0-9.023-.692,29.054,29.054,0,0,0-12.455,4.055c-2.673,1.633-3.934,2.862-4.005,2.776a6.2,6.2,0,0,1,.905-.89,21.569,21.569,0,0,1,2.9-2.206,28.417,28.417,0,0,1,21.866-3.824,31.952,31.952,0,0,1,9.763,4.271,107.816,107.816,0,0,0,10.018,5.9,17.161,17.161,0,0,0,11.883,1.391,29.381,29.381,0,0,0,10.772-5.824c3.131-2.516,5.9-5.283,8.722-7.74a40.812,40.812,0,0,1,8.7-6.142,28.865,28.865,0,0,1,22.165-1.441,23.161,23.161,0,0,1,3.347,1.44A6.316,6.316,0,0,1,1094.137,3888.224Z" fill="#375a64"/>
      </g>
      <g id="Grupo_53921" data-name="Grupo 53921">
        <g id="Grupo_53919" data-name="Grupo 53919">
          <rect id="Rectángulo_6580" data-name="Rectángulo 6580" width="12.046" height="32.581" transform="translate(1003.622 3909.944)" fill="#375a64"/>
          <rect id="Rectángulo_6581" data-name="Rectángulo 6581" width="12.046" height="32.581" transform="translate(1054.739 3909.944)" fill="#375a64"/>
          <rect id="Rectángulo_6582" data-name="Rectángulo 6582" width="12.046" height="51.713" transform="translate(1071.779 3890.811)" fill="#6595bf"/>
          <rect id="Rectángulo_6583" data-name="Rectángulo 6583" width="12.046" height="10.965" transform="translate(988.032 3932.268)" fill="#375a64"/>
          <rect id="Rectángulo_6584" data-name="Rectángulo 6584" width="12.047" height="17.868" transform="translate(1020.661 3924.656)" fill="#375a64"/>
          <rect id="Rectángulo_6585" data-name="Rectángulo 6585" width="12.046" height="21.97" transform="translate(1037.7 3920.555)" fill="#aed3f2"/>
        </g>
      </g>
      <g id="Grupo_53928" data-name="Grupo 53928">
        <g id="Grupo_53922" data-name="Grupo 53922">
          <path id="Trazado_101144" data-name="Trazado 101144" d="M1016.154,3946.365c0,.267-2.915.483-6.508.483s-6.509-.216-6.509-.483,2.914-.484,6.509-.484S1016.154,3946.1,1016.154,3946.365Z" fill="#344154"/>
        </g>
        <g id="Grupo_53923" data-name="Grupo 53923">
          <path id="Trazado_101145" data-name="Trazado 101145" d="M1001.163,3946.365c0,.267-2.914.483-6.508.483s-6.509-.216-6.509-.483,2.914-.484,6.509-.484S1001.163,3946.1,1001.163,3946.365Z" fill="#344154"/>
        </g>
        <g id="Grupo_53924" data-name="Grupo 53924">
          <path id="Trazado_101146" data-name="Trazado 101146" d="M1086.2,3946.365c0,.267-3.294.483-7.356.483s-7.358-.216-7.358-.483,3.293-.484,7.358-.484S1086.2,3946.1,1086.2,3946.365Z" fill="#344154"/>
        </g>
        <g id="Grupo_53925" data-name="Grupo 53925">
          <ellipse id="Elipse_4035" data-name="Elipse 4035" cx="7.357" cy="0.484" rx="7.357" ry="0.484" transform="translate(1053.589 3945.881)" fill="#344154"/>
        </g>
        <g id="Grupo_53926" data-name="Grupo 53926">
          <path id="Trazado_101147" data-name="Trazado 101147" d="M1049.747,3946.365c0,.267-2.915.484-6.508.484s-6.509-.217-6.509-.484,2.914-.485,6.509-.485S1049.747,3946.1,1049.747,3946.365Z" fill="#344154"/>
        </g>
        <g id="Grupo_53927" data-name="Grupo 53927">
          <path id="Trazado_101148" data-name="Trazado 101148" d="M1032.142,3946.365c0,.267-2.915.484-6.508.484s-6.509-.217-6.509-.484,2.914-.485,6.509-.485S1032.142,3946.1,1032.142,3946.365Z" fill="#344154"/>
        </g>
      </g>
    </g>
    <g id="Grupo_53933" data-name="Grupo 53933">
      <g id="Grupo_53930" data-name="Grupo 53930">
        <path id="Trazado_101149" data-name="Trazado 101149" d="M1071.412,3986.974a1.27,1.27,0,0,1,.206,0,1.612,1.612,0,0,1,.591.172,1.707,1.707,0,0,1,.72.709,2.666,2.666,0,0,1,.206,1.379c.012,2.123.029,5.226.05,9.221s.028,8.91.045,14.6q.011,4.272.02,9.121,0,1.21.005,2.456,0,.623,0,1.254a2.357,2.357,0,0,1-.242,1.32,1.855,1.855,0,0,1-1.091.861,5.841,5.841,0,0,1-1.348.076l-2.656,0,.186-.186c.005,2.884.009,6,.015,9.223v.532l-.352-.4-8.169-9.214.162.074-84.222.043h-5.883c-.336,0-.626.01-1-.008a1.933,1.933,0,0,1-1.654-1.332,2,2,0,0,1-.091-.552v-6.276q0-7.674,0-15.109t.007-14.583l0-1.792a1.918,1.918,0,0,1,1.049-1.632,1.991,1.991,0,0,1,.966-.208h2.632l6.911.005,48.364.055,32.606.083,8.865.049,2.3.026c.52.009.786.026.786.026s-.266.018-.786.027l-2.3.026-8.865.049-32.606.082-48.364.057-6.911,0h-2.632a1.48,1.48,0,0,0-.743.155,1.42,1.42,0,0,0-.776,1.212l0,1.772q0,7.146.006,14.583t.005,15.109v5.786a2.885,2.885,0,0,0,.068.883,1.412,1.412,0,0,0,1.208.973c.275.014.636,0,.95.007h5.883l84.222.044h.1l.064.073,8.145,9.235-.352.132c.005-3.225.01-6.339.015-9.223v-.188h.187l2.656,0a5.693,5.693,0,0,0,1.248-.057,1.493,1.493,0,0,0,.882-.691,2.013,2.013,0,0,0,.2-1.144q0-.631,0-1.254,0-1.245,0-2.456.011-4.844.02-9.121c.018-5.689.033-10.589.045-14.6s.038-7.1.05-9.221a2.6,2.6,0,0,0-.172-1.342,1.68,1.68,0,0,0-.674-.7A2.056,2.056,0,0,0,1071.412,3986.974Z" fill="#344154"/>
      </g>
      <path id="Trazado_101150" data-name="Trazado 101150" d="M972.525,4020.711c.841-2.929,1.816-5.915,3.77-8.254s5.121-3.907,8.072-3.148c4.663,1.2,6.919,7.412,11.691,8.05,2.638.353,5.208-1.227,6.909-3.274s2.747-4.543,4.048-6.864c1.954-3.484,4.632-6.713,8.222-8.464s8.2-1.759,11.343.712c5.382,4.237,4.632,13.592,10.366,17.337a8.3,8.3,0,0,0,9.243-.275c2.542-1.884,3.849-5.146,6.524-6.836,3.1-1.957,7.405-1.19,10.21,1.17s4.274,5.992,4.806,9.618" fill="#d9a171"/>
      <g id="Grupo_53931" data-name="Grupo 53931">
        <path id="Trazado_101151" data-name="Trazado 101151" d="M1065.8,4003.893a.93.93,0,0,1-.235-.09l-.663-.31a17.479,17.479,0,0,0-2.656-.9,21.263,21.263,0,0,0-10.2.3,38.9,38.9,0,0,0-6.671,2.481c-2.328,1.081-4.743,2.4-7.315,3.733a58.212,58.212,0,0,1-8.333,3.694,24.341,24.341,0,0,1-9.695,1.353,32.214,32.214,0,0,1-9.5-2.4c-2.942-1.178-5.655-2.577-8.241-3.875-5.14-2.635-9.953-4.745-14.276-5.391a20.4,20.4,0,0,0-10.164.742,19.375,19.375,0,0,0-3.393,1.669c-.006-.008.06-.061.194-.16l.6-.425a14.031,14.031,0,0,1,2.528-1.274,20.164,20.164,0,0,1,10.291-.916c4.4.609,9.279,2.712,14.435,5.326,2.594,1.288,5.3,2.67,8.215,3.83a31.929,31.929,0,0,0,9.35,2.354,23.957,23.957,0,0,0,9.495-1.318,58.632,58.632,0,0,0,8.274-3.637c2.571-1.323,5-2.626,7.354-3.7a38.6,38.6,0,0,1,6.762-2.446,20.965,20.965,0,0,1,10.339-.136A11.682,11.682,0,0,1,1065.8,4003.893Z" fill="#344154"/>
      </g>
      <g id="Grupo_53932" data-name="Grupo 53932">
        <path id="Trazado_101152" data-name="Trazado 101152" d="M1021.179,3997.518a1.052,1.052,0,1,1-1.052-1.051A1.052,1.052,0,0,1,1021.179,3997.518Z" fill="#375a64"/>
        <path id="Trazado_101153" data-name="Trazado 101153" d="M983.494,4001.965a1.052,1.052,0,1,1-1.051-1.052A1.051,1.051,0,0,1,983.494,4001.965Z" fill="#375a64"/>
        <path id="Trazado_101154" data-name="Trazado 101154" d="M1058.469,4001.97a1.051,1.051,0,1,1-1.051-1.051A1.051,1.051,0,0,1,1058.469,4001.97Z" fill="#375a64"/>
      </g>
    </g>
    <g id="Grupo_54006" data-name="Grupo 54006">
      <path id="Trazado_101155" data-name="Trazado 101155" d="M1129.493,4150.259h9.375c4.366,0,13.738-11.5-37.107-10.182-33.421.862-35.614,5.795-33.922,8.677a4.156,4.156,0,0,0,3.91,1.952c.815-.059,1.9-.071,3.175-.066l-.8,3.527h0l-18.606,82.218,3.243-.282,13.737-45.273,26.212-1,1.5,48.118h4.111l.991-48.371.126,0,2.77-.106,23.237-.892,13.765,49.374h3.945Zm-55.041,34.137,9.172-30.229,1.038-3.423h0c3.847,0,8.335-.089,12.829-.089l1.028,32.987Zm34.562-1.083h0l-1.016.032-2.558.081.679-33.167h14.647l9.034,32.4Z" fill="#375a64"/>
      <g id="Grupo_54004" data-name="Grupo 54004">
        <g id="Grupo_53947" data-name="Grupo 53947">
          <g id="Grupo_53934" data-name="Grupo 53934">
            <path id="Trazado_101156" data-name="Trazado 101156" d="M1045.748,4232.3v-10.628l19.044-.128.158,15.892-1.18.088c-5.254.339-26.733,1-30.253-.092C1029.591,4236.214,1045.748,4232.3,1045.748,4232.3Z" fill="#d9a171"/>
          </g>
          <g id="Grupo_53936" data-name="Grupo 53936">
            <g id="Grupo_53935" data-name="Grupo 53935">
              <path id="Trazado_101157" data-name="Trazado 101157" d="M1033.066,4236.456c0,.179,7.123.324,15.909.324s15.91-.145,15.91-.324-7.122-.324-15.91-.324S1033.066,4236.277,1033.066,4236.456Z" fill="#344154"/>
            </g>
          </g>
          <g id="Grupo_53938" data-name="Grupo 53938">
            <g id="Grupo_53937" data-name="Grupo 53937">
              <path id="Trazado_101158" data-name="Trazado 101158" d="M1045.413,4234.466c.157-.083.022-.645-.387-1.2s-.906-.85-1.03-.725.133.6.509,1.108S1045.254,4234.551,1045.413,4234.466Z" fill="#344154"/>
            </g>
          </g>
          <g id="Grupo_53940" data-name="Grupo 53940">
            <g id="Grupo_53939" data-name="Grupo 53939">
              <path id="Trazado_101159" data-name="Trazado 101159" d="M1044.2,4235.165c.166-.062.08-.692-.3-1.354s-.868-1.062-1.006-.953.1.654.443,1.271S1044.029,4235.23,1044.2,4235.165Z" fill="#344154"/>
            </g>
          </g>
          <g id="Grupo_53942" data-name="Grupo 53942">
            <g id="Grupo_53941" data-name="Grupo 53941">
              <path id="Trazado_101160" data-name="Trazado 101160" d="M1059.148,4236.385c.074.051.358-.228.769-.7a12.524,12.524,0,0,1,1.671-1.673,4.38,4.38,0,0,1,2.06-.9c.579-.077.959.013.991-.081.034-.069-.32-.335-1.006-.376a3.788,3.788,0,0,0-2.44.844,6.936,6.936,0,0,0-1.645,1.917C1059.223,4235.967,1059.075,4236.335,1059.148,4236.385Z" fill="#344154"/>
            </g>
          </g>
          <g id="Grupo_53944" data-name="Grupo 53944">
            <g id="Grupo_53943" data-name="Grupo 53943">
              <path id="Trazado_101161" data-name="Trazado 101161" d="M1045.355,4232.468c-.093.15.234.518.777.717s1.032.131,1.058-.044-.358-.385-.834-.562S1045.449,4232.313,1045.355,4232.468Z" fill="#344154"/>
            </g>
          </g>
          <g id="Grupo_53946" data-name="Grupo 53946">
            <g id="Grupo_53945" data-name="Grupo 53945">
              <path id="Trazado_101162" data-name="Trazado 101162" d="M1045.654,4231.44c-.018.178.49.331,1.133.339s1.154-.13,1.142-.308-.52-.33-1.133-.338S1045.671,4231.262,1045.654,4231.44Z" fill="#344154"/>
            </g>
          </g>
        </g>
        <g id="Grupo_53961" data-name="Grupo 53961">
          <g id="Grupo_53948" data-name="Grupo 53948">
            <path id="Trazado_101163" data-name="Trazado 101163" d="M1085.948,4232.3v-10.628l19.044-.128.157,15.892-1.18.088c-5.253.339-26.732,1-30.252-.092C1069.791,4236.214,1085.948,4232.3,1085.948,4232.3Z" fill="#d9a171"/>
          </g>
          <g id="Grupo_53950" data-name="Grupo 53950">
            <g id="Grupo_53949" data-name="Grupo 53949">
              <path id="Trazado_101164" data-name="Trazado 101164" d="M1073.266,4236.456c0,.179,7.124.324,15.91.324s15.909-.145,15.909-.324-7.122-.324-15.909-.324S1073.266,4236.277,1073.266,4236.456Z" fill="#344154"/>
            </g>
          </g>
          <g id="Grupo_53952" data-name="Grupo 53952">
            <g id="Grupo_53951" data-name="Grupo 53951">
              <path id="Trazado_101165" data-name="Trazado 101165" d="M1085.613,4234.466c.157-.083.022-.645-.387-1.2s-.9-.85-1.029-.725.133.6.508,1.108S1085.454,4234.551,1085.613,4234.466Z" fill="#344154"/>
            </g>
          </g>
          <g id="Grupo_53954" data-name="Grupo 53954">
            <g id="Grupo_53953" data-name="Grupo 53953">
              <path id="Trazado_101166" data-name="Trazado 101166" d="M1084.4,4235.165c.166-.062.08-.692-.295-1.354s-.867-1.062-1.006-.953.1.654.443,1.271S1084.23,4235.23,1084.4,4235.165Z" fill="#344154"/>
            </g>
          </g>
          <g id="Grupo_53956" data-name="Grupo 53956">
            <g id="Grupo_53955" data-name="Grupo 53955">
              <path id="Trazado_101167" data-name="Trazado 101167" d="M1099.348,4236.385c.074.051.358-.228.769-.7a12.524,12.524,0,0,1,1.671-1.673,4.38,4.38,0,0,1,2.06-.9c.579-.077.959.013.992-.081.033-.069-.321-.335-1.007-.376a3.788,3.788,0,0,0-2.44.844,6.954,6.954,0,0,0-1.645,1.917C1099.423,4235.967,1099.276,4236.335,1099.348,4236.385Z" fill="#344154"/>
            </g>
          </g>
          <g id="Grupo_53958" data-name="Grupo 53958">
            <g id="Grupo_53957" data-name="Grupo 53957">
              <path id="Trazado_101168" data-name="Trazado 101168" d="M1085.555,4232.468c-.092.15.234.518.777.717s1.032.131,1.058-.044-.358-.385-.834-.562S1085.65,4232.313,1085.555,4232.468Z" fill="#344154"/>
            </g>
          </g>
          <g id="Grupo_53960" data-name="Grupo 53960">
            <g id="Grupo_53959" data-name="Grupo 53959">
              <path id="Trazado_101169" data-name="Trazado 101169" d="M1085.854,4231.44c-.017.178.49.331,1.134.339s1.154-.13,1.142-.308-.52-.33-1.134-.338S1085.871,4231.262,1085.854,4231.44Z" fill="#344154"/>
            </g>
          </g>
        </g>
        <path id="Trazado_101170" data-name="Trazado 101170" d="M1140.518,4041.621c-.784-.174-1.756-.073-2.224-.727-.426-.594-.128-1.411.12-2.1a9.964,9.964,0,0,0,.07-6.884,7.765,7.765,0,0,0-2.866-3.611,3.265,3.265,0,0,0,.483-.621,4.314,4.314,0,0,0,.54-2.184,4.82,4.82,0,0,0-1.463-3.646,2.318,2.318,0,0,0-3.13-.04,1.592,1.592,0,0,0-.044,2.329,1.454,1.454,0,0,0,1.52.191.709.709,0,0,0,.383-.381,1.811,1.811,0,0,1-.427.285,1.277,1.277,0,0,1-1.224-2.22,2,2,0,0,1,2.686.119,4.47,4.47,0,0,1,1.267,3.361,3.887,3.887,0,0,1-.5,1.953,2.844,2.844,0,0,1-.49.6,6.439,6.439,0,0,0-1.718-.7c-1.291-.314-2.7-.237-3.878-.848a4.708,4.708,0,0,1-2.1-2.522c-.007-.117-.02-.232-.018-.35a49.523,49.523,0,0,1,.718-5.185,15.9,15.9,0,0,0-.136-4.968,9.327,9.327,0,0,0-4.764-6.7,6.52,6.52,0,0,0-5.554-.1,5.047,5.047,0,0,0-1.284.853c-.095.092-.151.155-.207.217a4.571,4.571,0,0,0-1.527,1.223l-3.086,27.778,22.6,13.811a16.85,16.85,0,0,0,5.15-1.043,5.7,5.7,0,0,0,3.44-3.743A3.492,3.492,0,0,0,1140.518,4041.621Zm-14.838-29.09a8.717,8.717,0,0,0-4.59-4.992,5.966,5.966,0,0,0-4.568.079,5.823,5.823,0,0,1,1.324-.767,6.409,6.409,0,0,1,5.308.244,9.012,9.012,0,0,1,4.458,6.463,15.643,15.643,0,0,1,.1,4.816c-.125,1.247-.475,2.511-.642,3.855a26.734,26.734,0,0,1-.211-2.861A20.842,20.842,0,0,0,1125.68,4012.531Z" fill="#344154"/>
        <g id="Grupo_53968" data-name="Grupo 53968">
          <path id="Trazado_101171" data-name="Trazado 101171" d="M1119,4012.5a2.428,2.428,0,0,0-.884-1.341,3.668,3.668,0,0,0-2.7-.121l-.052-6.375-12.466-10.1-6.681,3.47a10.461,10.461,0,0,0-5.644,9.382c.049,5.139.178,12.111.517,16.066.581,6.8,7.462,7.357,7.462,7.357s.3,2.45.5,4.886c0,.013-1.513,20.131,5.57,19.95,5.22-.133,8.727-11.1,10.212-16.874l.782-3.17,0-.164.027-.133-.028,0-.156-19.091.216.219a1.479,1.479,0,0,0,1.646.2,3.046,3.046,0,0,0,1.635-1.742A3.8,3.8,0,0,0,1119,4012.5Z" fill="#ffbf9d"/>
          <g id="Grupo_53963" data-name="Grupo 53963">
            <path id="Trazado_101172" data-name="Trazado 101172" d="M1092.179,4012.379a.872.872,0,1,0,.851-.892A.872.872,0,0,0,1092.179,4012.379Z" fill="#344154"/>
            <g id="Grupo_53962" data-name="Grupo 53962">
              <path id="Trazado_101173" data-name="Trazado 101173" d="M1091.313,4011.45c.115.11.745-.453,1.682-.526s1.652.361,1.746.234c.047-.058-.074-.262-.388-.466a2.314,2.314,0,0,0-2.737.234C1091.343,4011.179,1091.257,4011.4,1091.313,4011.45Z" fill="#344154"/>
            </g>
          </g>
          <g id="Grupo_53965" data-name="Grupo 53965">
            <path id="Trazado_101174" data-name="Trazado 101174" d="M1102.286,4012.079a.871.871,0,1,0,.849-.892A.87.87,0,0,0,1102.286,4012.079Z" fill="#344154"/>
            <g id="Grupo_53964" data-name="Grupo 53964">
              <path id="Trazado_101175" data-name="Trazado 101175" d="M1101.721,4011.143c.115.11.746-.453,1.682-.526s1.652.361,1.747.233c.047-.057-.075-.261-.389-.465a2.315,2.315,0,0,0-2.736.233C1101.751,4010.872,1101.666,4011.095,1101.721,4011.143Z" fill="#344154"/>
            </g>
          </g>
          <g id="Grupo_53966" data-name="Grupo 53966">
            <path id="Trazado_101176" data-name="Trazado 101176" d="M1098.519,4019.2a5.874,5.874,0,0,1-1.544.122,1.581,1.581,0,0,1-.409-.026.6.6,0,0,1-.415-.333,1.524,1.524,0,0,1,.068-.991l.565-1.968a34.356,34.356,0,0,1,1.689-4.989,34.436,34.436,0,0,1-1.3,5.1l-.6,1.959a1.332,1.332,0,0,0-.116.753c.05.167.279.2.519.205A5.947,5.947,0,0,1,1098.519,4019.2Z" fill="#344154"/>
          </g>
          <path id="Trazado_101177" data-name="Trazado 101177" d="M1101.761,4019.969c.065-.078-2.706,1.67-4.62,1.717a2.6,2.6,0,0,0,3.131.807A2.154,2.154,0,0,0,1101.761,4019.969Z" fill="#fafafa"/>
          <path id="Trazado_101178" data-name="Trazado 101178" d="M1098.544,4030.831a17.006,17.006,0,0,0,8.945-3.265s-1.923,5.047-8.756,4.931Z" fill="#ff9a6c"/>
          <path id="Trazado_101179" data-name="Trazado 101179" d="M1089.61,4008.227c2.963.412,5.151-.4,8.053-1.13s5.657-2.645,6.667-5.46a10.235,10.235,0,0,0,2.481,4.993c.277.305.8.587,1.045.256a.743.743,0,0,0,.029-.624q-.3-1.188-.6-2.374a19.2,19.2,0,0,0,3.952,4.951c1.656,1.326,6.7,3.387,5.939,1.406-.191-.5,1.5-15.921-13.16-16.151S1089.61,4008.227,1089.61,4008.227Z" fill="#344154"/>
          <g id="Grupo_53967" data-name="Grupo 53967">
            <path id="Trazado_101180" data-name="Trazado 101180" d="M1115.59,4012.619c-.041-.043.253-.351.883-.333a1.657,1.657,0,0,1,1,2.873,1.626,1.626,0,0,1-1,.4c-.63.016-.924-.293-.882-.336.035-.072.355.074.838-.029a1.293,1.293,0,0,0,.005-2.544C1115.945,4012.547,1115.624,4012.692,1115.59,4012.619Z" fill="#ff9a6c"/>
          </g>
        </g>
        <g id="Grupo_53992" data-name="Grupo 53992">
          <g id="Grupo_53990" data-name="Grupo 53990">
            <path id="Trazado_101181" data-name="Trazado 101181" d="M1139.976,4060.517l2.52-.51s-5.491-24.681-24.569-24.681c-.8,0-1.557,0-2.293.005,0,.007-.011.055-.026.128l0,.164-.782,3.17c-1.485,5.77-4.992,16.741-10.212,16.874-6.608.169-5.735-17.322-5.588-19.682a1.645,1.645,0,0,0-.484.128s-20.752,1.155-29.958,19.354l16,11.69,3.915-2.364s1.276,25.744-.922,32.749c-2.486,7.926-6.325,16.7-6.325,16.7,17.6-1.371,37.6-.588,58.934,1.385l-14.256-52.259A48.577,48.577,0,0,0,1139.976,4060.517Z" fill="#d9a171"/>
            <g id="Grupo_53988" data-name="Grupo 53988">
              <g id="Grupo_53969" data-name="Grupo 53969">
                <path id="Trazado_101182" data-name="Trazado 101182" d="M1122.809,4072.863c.024.023-.125.229-.444.557a8.967,8.967,0,0,1-1.512,1.216,10.548,10.548,0,0,1-12.121-.441,8.911,8.911,0,0,1-1.42-1.322c-.294-.351-.428-.567-.4-.588.069-.063.713.719,2.037,1.609a10.926,10.926,0,0,0,11.716.427C1122.046,4073.528,1122.746,4072.8,1122.809,4072.863Z" fill="#344154"/>
              </g>
              <g id="Grupo_53970" data-name="Grupo 53970">
                <path id="Trazado_101183" data-name="Trazado 101183" d="M1132.055,4086.59a6.389,6.389,0,0,1-.435-1.232c-.271-.9-.612-2.042-1.02-3.4-.852-2.873-2.04-6.839-3.419-11.2s-2.694-8.286-3.652-11.125c-.449-1.345-.826-2.474-1.124-3.368a6.216,6.216,0,0,1-.353-1.257,6.306,6.306,0,0,1,.543,1.188c.319.775.757,1.908,1.281,3.313,1.048,2.812,2.417,6.725,3.8,11.091s2.516,8.353,3.278,11.254c.381,1.451.675,2.629.861,3.447A6.275,6.275,0,0,1,1132.055,4086.59Z" fill="#344154"/>
              </g>
              <g id="Grupo_53971" data-name="Grupo 53971">
                <path id="Trazado_101184" data-name="Trazado 101184" d="M1125.86,4047.127a9.418,9.418,0,0,1-4.822-2.061,23.189,23.189,0,0,1,4.822,2.061Z" fill="#344154"/>
              </g>
              <g id="Grupo_53972" data-name="Grupo 53972">
                <path id="Trazado_101185" data-name="Trazado 101185" d="M1130.781,4055.687a17.341,17.341,0,0,1,1.889-5.686,17.382,17.382,0,0,1-1.889,5.686Z" fill="#344154"/>
              </g>
              <g id="Grupo_53973" data-name="Grupo 53973">
                <path id="Trazado_101186" data-name="Trazado 101186" d="M1113.653,4061.841a23.7,23.7,0,0,1,2.448-5.052,11.314,11.314,0,0,1-2.448,5.052Z" fill="#344154"/>
              </g>
              <g id="Grupo_53974" data-name="Grupo 53974">
                <path id="Trazado_101187" data-name="Trazado 101187" d="M1110.551,4067.263a10.972,10.972,0,0,1-3.96-4.387c.12-.086.979.916,2.066,2.116A11.892,11.892,0,0,1,1110.551,4067.263Z" fill="#344154"/>
              </g>
              <g id="Grupo_53975" data-name="Grupo 53975">
                <path id="Trazado_101188" data-name="Trazado 101188" d="M1122.977,4066.448a9.274,9.274,0,0,1-2.141,2.859,14.891,14.891,0,0,1-2.473,2.14l-.74.452.586-.592c.139-.14.23-.207.26-.185s0,.129-.089.307l-.154-.14c.35-.427,1.236-1.3,2.234-2.342A18.505,18.505,0,0,1,1122.977,4066.448Z" fill="#344154"/>
              </g>
              <g id="Grupo_53976" data-name="Grupo 53976">
                <path id="Trazado_101189" data-name="Trazado 101189" d="M1125.621,4084.293a10.6,10.6,0,0,1-5.075-3.006,42.445,42.445,0,0,1,5.075,3.006Z" fill="#344154"/>
              </g>
              <g id="Grupo_53977" data-name="Grupo 53977">
                <path id="Trazado_101190" data-name="Trazado 101190" d="M1113.1,4080.219a17.546,17.546,0,0,1-3.42,4.963,17.606,17.606,0,0,1,3.42-4.963Z" fill="#344154"/>
              </g>
              <g id="Grupo_53978" data-name="Grupo 53978">
                <path id="Trazado_101191" data-name="Trazado 101191" d="M1104.875,4081.022a5.962,5.962,0,0,1-2.091-1.3c-1.065-.834-1.858-1.6-1.769-1.715a5.981,5.981,0,0,1,2.091,1.3C1104.171,4080.141,1104.964,4080.909,1104.875,4081.022Z" fill="#344154"/>
              </g>
              <g id="Grupo_53979" data-name="Grupo 53979">
                <path id="Trazado_101192" data-name="Trazado 101192" d="M1100.424,4068.889c.083.118-.7.818-1.746,1.565s-1.964,1.257-2.047,1.14.7-.818,1.745-1.565S1100.34,4068.773,1100.424,4068.889Z" fill="#344154"/>
              </g>
              <g id="Grupo_53980" data-name="Grupo 53980">
                <path id="Trazado_101193" data-name="Trazado 101193" d="M1098.728,4062.679c-.114.087-.837-.673-1.614-1.7s-1.314-1.926-1.2-2.013.837.673,1.614,1.7S1098.843,4062.593,1098.728,4062.679Z" fill="#344154"/>
              </g>
              <g id="Grupo_53981" data-name="Grupo 53981">
                <path id="Trazado_101194" data-name="Trazado 101194" d="M1116.554,4046.276a13.314,13.314,0,1,1,1.466-2.186A6.825,6.825,0,0,1,1116.554,4046.276Z" fill="#344154"/>
              </g>
              <g id="Grupo_53982" data-name="Grupo 53982">
                <path id="Trazado_101195" data-name="Trazado 101195" d="M1094.275,4047.313a15.684,15.684,0,1,1-2.287-1.713A7.993,7.993,0,0,1,1094.275,4047.313Z" fill="#344154"/>
              </g>
              <g id="Grupo_53983" data-name="Grupo 53983">
                <path id="Trazado_101196" data-name="Trazado 101196" d="M1082.609,4044.325c.124.073-.246.926-.827,1.9s-1.151,1.712-1.274,1.639.246-.926.826-1.9S1082.486,4044.252,1082.609,4044.325Z" fill="#344154"/>
              </g>
              <g id="Grupo_53984" data-name="Grupo 53984">
                <path id="Trazado_101197" data-name="Trazado 101197" d="M1094.739,4111.869a14.531,14.531,0,1,1-2.133-1.74A7.471,7.471,0,0,1,1094.739,4111.869Z" fill="#344154"/>
              </g>
              <g id="Grupo_53985" data-name="Grupo 53985">
                <path id="Trazado_101198" data-name="Trazado 101198" d="M1128.168,4108.265a7.164,7.164,0,0,1-1.631,2.157c-1.006,1.093-1.907,1.9-2.013,1.8a7.2,7.2,0,0,1,1.63-2.156C1127.16,4108.975,1128.062,4108.168,1128.168,4108.265Z" fill="#344154"/>
              </g>
              <g id="Grupo_53986" data-name="Grupo 53986">
                <path id="Trazado_101199" data-name="Trazado 101199" d="M1105.454,4112.011c-.144-.037-.029-.921-.034-2s-.11-1.965.034-2,.49.843.487,2S1105.587,4112.05,1105.454,4112.011Z" fill="#344154"/>
              </g>
              <g id="Grupo_53987" data-name="Grupo 53987">
                <path id="Trazado_101200" data-name="Trazado 101200" d="M1117.27,4112.2a14.052,14.052,0,1,1-2.168-1.622A7.206,7.206,0,0,1,1117.27,4112.2Z" fill="#344154"/>
              </g>
            </g>
            <g id="Grupo_53989" data-name="Grupo 53989">
              <path id="Trazado_101201" data-name="Trazado 101201" d="M1140.185,4115.624a2.6,2.6,0,0,1-.6-.012l-1.716-.134-6.3-.565c-5.32-.463-12.673-1.117-20.815-1.251-8.146-.155-15.523.048-20.859.255l-6.319.269-1.72.066a2.445,2.445,0,0,1-.6-.013,2.667,2.667,0,0,1,.595-.092l1.713-.163c1.49-.126,3.647-.284,6.315-.435,5.337-.3,12.725-.564,20.887-.409,8.165.135,15.527.85,20.841,1.407,2.657.284,4.8.541,6.287.729l1.7.232A2.613,2.613,0,0,1,1140.185,4115.624Z" fill="#344154"/>
            </g>
          </g>
          <g id="Grupo_53991" data-name="Grupo 53991" opacity="0.2">
            <path id="Trazado_101202" data-name="Trazado 101202" d="M1122.052,4055.012l5,33.248s4.634-.04,5.477-1.377Z"/>
            <path id="Trazado_101203" data-name="Trazado 101203" d="M1122.052,4055.012l5,33.248s4.634-.04,5.477-1.377Z"/>
          </g>
        </g>
        <g id="Grupo_54003" data-name="Grupo 54003">
          <path id="Trazado_101204" data-name="Trazado 101204" d="M1093.02,4113.606c-11.769.911-18.2.1-31.144,1.315a18.485,18.485,0,0,0-16.061,17.9l-2.268,97.809h23.788l3.757-87.692,7.015.888c-.9,32.84,2.529,86.8,2.529,86.8l26.414-1.29-1.509-84.221s35.531,2.412,34.644-29.492C1140.185,4115.624,1112.2,4112.233,1093.02,4113.606Z" fill="#344154"/>
          <g id="Grupo_53993" data-name="Grupo 53993">
            <path id="Trazado_101205" data-name="Trazado 101205" d="M1100.134,4113.351a13.5,13.5,0,0,1-1.8.308c-1.16.174-2.839.424-4.9.8a30.21,30.21,0,0,0-7.053,1.874,14.07,14.07,0,0,0-3.59,2.295,11.563,11.563,0,0,0-2.721,3.639,20.377,20.377,0,0,0-1.695,8.68c.029,2.763.1,5.272.08,7.373s-.092,3.8-.172,4.976c-.042.587-.08,1.041-.114,1.349a1.644,1.644,0,0,1-.078.468,13.383,13.383,0,0,1-.011-1.825c.018-1.174.039-2.87.007-4.967-.056-2.126-.12-4.619-.192-7.374a20.43,20.43,0,0,1,1.706-8.907,11.975,11.975,0,0,1,2.85-3.793,14.387,14.387,0,0,1,3.735-2.352,29.08,29.08,0,0,1,7.186-1.8c2.077-.333,3.768-.529,4.938-.64.586-.056,1.041-.091,1.35-.108A1.7,1.7,0,0,1,1100.134,4113.351Z" fill="#375a64"/>
          </g>
          <g id="Grupo_53994" data-name="Grupo 53994">
            <path id="Trazado_101206" data-name="Trazado 101206" d="M1068.993,4136.8a19.35,19.35,0,0,1,1.291,2.97,7.055,7.055,0,0,1,.807,3.161,19.412,19.412,0,0,1-1.29-2.969A7.078,7.078,0,0,1,1068.993,4136.8Z" fill="#375a64"/>
          </g>
          <g id="Grupo_53995" data-name="Grupo 53995">
            <path id="Trazado_101207" data-name="Trazado 101207" d="M1070.921,4134.854a12.088,12.088,0,0,1,.692,4.025,8.69,8.69,0,0,1-.522,4.056c-.152-.029.116-1.82,0-4.033A23.9,23.9,0,0,1,1070.921,4134.854Z" fill="#375a64"/>
          </g>
          <g id="Grupo_53998" data-name="Grupo 53998">
            <g id="Grupo_53996" data-name="Grupo 53996">
              <path id="Trazado_101208" data-name="Trazado 101208" d="M1103.741,4136.692a13.89,13.89,0,0,1,1.156,4.163,25.808,25.808,0,0,1,.644,4.261,13.906,13.906,0,0,1-1.156-4.164A25.938,25.938,0,0,1,1103.741,4136.692Z" fill="#375a64"/>
            </g>
            <g id="Grupo_53997" data-name="Grupo 53997">
              <path id="Trazado_101209" data-name="Trazado 101209" d="M1106.123,4136.679a16.279,16.279,0,0,1-.46,8.437,40.049,40.049,0,0,1,.267-4.217A39.629,39.629,0,0,1,1106.123,4136.679Z" fill="#375a64"/>
            </g>
          </g>
          <g id="Grupo_53999" data-name="Grupo 53999">
            <path id="Trazado_101210" data-name="Trazado 101210" d="M1066.721,4224.912c0,.143-5.211.26-11.637.26s-11.637-.117-11.637-.26,5.209-.261,11.637-.261S1066.721,4224.768,1066.721,4224.912Z" fill="#375a64"/>
          </g>
          <g id="Grupo_54000" data-name="Grupo 54000">
            <path id="Trazado_101211" data-name="Trazado 101211" d="M1106.724,4224.475c0,.144-5.927.26-13.236.26s-13.239-.116-13.239-.26,5.926-.26,13.239-.26S1106.724,4224.332,1106.724,4224.475Z" fill="#375a64"/>
          </g>
          <g id="Grupo_54001" data-name="Grupo 54001">
            <path id="Trazado_101212" data-name="Trazado 101212" d="M1137.027,4130.263a1.473,1.473,0,0,1-.337.027l-.989.025-3.8.044-13.982.069-9.651.032a22.8,22.8,0,0,0-5.277.609,8.344,8.344,0,0,0-4.63,2.869,9.593,9.593,0,0,0-1.7,5.494c-.1,2.018.113,4.094.192,6.225.116,4.246.236,8.642.359,13.144.5,18.011.923,34.318,1.075,46.125.08,5.9.1,10.68.1,13.982-.011,1.625-.02,2.9-.026,3.8-.009.411-.015.738-.021.988a1.568,1.568,0,0,1-.025.337,1.66,1.66,0,0,1-.028-.337c-.008-.25-.018-.576-.031-.988-.017-.9-.041-2.176-.072-3.8-.063-3.333-.154-8.1-.266-13.977-.247-11.8-.725-28.1-1.227-46.117-.12-4.5-.237-8.9-.349-13.139-.074-2.111-.286-4.2-.179-6.268a10.064,10.064,0,0,1,1.819-5.763,8.8,8.8,0,0,1,4.893-3.019,23.141,23.141,0,0,1,5.387-.6l9.659.031,13.981.1,3.8.053.988.027A1.76,1.76,0,0,1,1137.027,4130.263Z" fill="#375a64"/>
          </g>
          <path id="Trazado_101213" data-name="Trazado 101213" d="M1075.288,4143.467s-.924-11.853,3.525-18.666l-.706,19.022Z" opacity="0.2"/>
          <g id="Grupo_54002" data-name="Grupo 54002">
            <path id="Trazado_101214" data-name="Trazado 101214" d="M1077.208,4132.195a1.024,1.024,0,0,1-.268-.031l-.779-.143c-.682-.125-1.688-.327-2.995-.471a12.8,12.8,0,0,0-4.726.276,8.1,8.1,0,0,0-2.651,1.245,6.653,6.653,0,0,0-2.054,2.517c-1.019,2.1-1.125,4.73-1.181,7.486-.068,2.777-.142,5.741-.219,8.859-.166,6.244-.347,13.1-.538,20.3-.426,14.387-.811,27.407-1.092,36.88-.163,4.688-.3,8.494-.39,11.174-.056,1.288-.1,2.3-.133,3.037-.019.322-.034.582-.047.79a.136.136,0,1,1-.053,0c0-.209,0-.469-.005-.791.009-.735.021-1.752.036-3.04.053-2.682.13-6.49.224-11.179.241-9.474.573-22.5.939-36.884.2-7.2.4-14.054.579-20.3.094-3.117.184-6.081.268-8.858.076-2.755.195-5.446,1.281-7.635a6.967,6.967,0,0,1,2.19-2.623,8.323,8.323,0,0,1,2.771-1.259,12.728,12.728,0,0,1,4.825-.2,29.975,29.975,0,0,1,2.993.571l.768.192A1.068,1.068,0,0,1,1077.208,4132.195Z" fill="#375a64"/>
          </g>
        </g>
        <path id="Trazado_101215" data-name="Trazado 101215" d="M1075.369,4056.769s-25.117,25.182-29.909,30.818c-4.086,4.806-1.42,13.881,2,14.271s58.784-.362,58.784-.362l-.734-11.324s-35.854.161-36.907-.5,20.738-22.69,20.738-22.69Z" fill="#ffbf9d"/>
        <path id="Trazado_101216" data-name="Trazado 101216" d="M1141.762,4060.059s7.63,23.125,8.555,25.86,5.66,14.295-3.339,15.263-57.305,0-57.305,0l-3.594-11.687s46.69-.118,46.453-2.612-7.091-23.383-7.091-23.383Z" fill="#ffbf9d"/>
      </g>
      <g id="Grupo_54005" data-name="Grupo 54005">
        <path id="Trazado_101217" data-name="Trazado 101217" d="M1039.834,4052.843l17.352,48.065,79.872-.034-.555-2.349-29.969-1.1-14.753-45.319Z" fill="#344154"/>
        <path id="Trazado_101218" data-name="Trazado 101218" d="M1075.434,4074.724a2.827,2.827,0,1,1-3.32-2.732A3.059,3.059,0,0,1,1075.434,4074.724Z" fill="#fafafa"/>
      </g>
      <path id="Trazado_101219" data-name="Trazado 101219" d="M1178.368,4099.859H985.589v137.986h4.091V4107.989h188.688v129.954H1226.6V4099.859Z" fill="#6595bf"/>
    </g>
    <g id="Grupo_54048" data-name="Grupo 54048">
      <g id="Grupo_54020" data-name="Grupo 54020">
        <g id="Grupo_54007" data-name="Grupo 54007">
          <path id="Trazado_101220" data-name="Trazado 101220" d="M946.218,4232.458v-10.329l-18.508-.123-.153,15.444,1.147.085c5.105.33,25.98.97,29.4-.089C961.92,4236.264,946.218,4232.458,946.218,4232.458Z" fill="#d9a171"/>
        </g>
        <g id="Grupo_54009" data-name="Grupo 54009">
          <g id="Grupo_54008" data-name="Grupo 54008">
            <path id="Trazado_101221" data-name="Trazado 101221" d="M958.542,4236.5c0,.174-6.922.315-15.461.315s-15.462-.141-15.462-.315,6.922-.315,15.462-.315S958.542,4236.327,958.542,4236.5Z" fill="#344154"/>
          </g>
        </g>
        <g id="Grupo_54011" data-name="Grupo 54011">
          <g id="Grupo_54010" data-name="Grupo 54010">
            <path id="Trazado_101222" data-name="Trazado 101222" d="M946.543,4234.565c-.152-.08-.021-.626.376-1.163s.881-.826,1-.705-.129.579-.494,1.077S946.7,4234.648,946.543,4234.565Z" fill="#344154"/>
          </g>
        </g>
        <g id="Grupo_54013" data-name="Grupo 54013">
          <g id="Grupo_54012" data-name="Grupo 54012">
            <path id="Trazado_101223" data-name="Trazado 101223" d="M947.724,4235.246c-.161-.061-.078-.672.286-1.316s.844-1.033.979-.926-.1.634-.431,1.235S947.888,4235.309,947.724,4235.246Z" fill="#344154"/>
          </g>
        </g>
        <g id="Grupo_54015" data-name="Grupo 54015">
          <g id="Grupo_54014" data-name="Grupo 54014">
            <path id="Trazado_101224" data-name="Trazado 101224" d="M933.2,4236.43c-.072.051-.348-.22-.748-.675a12.094,12.094,0,0,0-1.624-1.625,4.236,4.236,0,0,0-2-.875c-.563-.076-.933.011-.964-.079-.033-.068.311-.326.978-.366a3.678,3.678,0,0,1,2.371.821,6.745,6.745,0,0,1,1.6,1.862C933.122,4236.025,933.265,4236.383,933.2,4236.43Z" fill="#344154"/>
          </g>
        </g>
        <g id="Grupo_54017" data-name="Grupo 54017">
          <g id="Grupo_54016" data-name="Grupo 54016">
            <path id="Trazado_101225" data-name="Trazado 101225" d="M946.6,4232.624c.091.146-.227.5-.755.7s-1,.127-1.028-.043.348-.375.811-.547S946.508,4232.474,946.6,4232.624Z" fill="#344154"/>
          </g>
        </g>
        <g id="Grupo_54019" data-name="Grupo 54019">
          <g id="Grupo_54018" data-name="Grupo 54018">
            <path id="Trazado_101226" data-name="Trazado 101226" d="M946.309,4231.626c.017.173-.476.321-1.1.33s-1.122-.127-1.11-.3.505-.321,1.1-.329S946.292,4231.453,946.309,4231.626Z" fill="#344154"/>
          </g>
        </g>
      </g>
      <path id="Trazado_101227" data-name="Trazado 101227" d="M999.892,3924.37l.171-3.125a26.667,26.667,0,0,0,.4-5.247,7.7,7.7,0,0,0-.461-2.567,11.77,11.77,0,0,0-1.405-2.932,1.009,1.009,0,0,1,.882-1.692c.881.226,2.684,2.317,3.5,5.437s2.918-1.5,3.714-3.169,3.5-6.719,4.21-6.88c1.037-.238,1.482.83.648,2.479-.845,1.669-2.987,6.769-2.085,7.147a4.794,4.794,0,0,1,1.971-.084.519.519,0,0,1,.409.438,6.034,6.034,0,0,0,.292,1.436s1.241-.4,1.552.129a5.482,5.482,0,0,1,.405,1.739s.943-.419,1.44-.1c1.075.7-.082,2.169-.082,2.169a105.2,105.2,0,0,1-8.333,10.488l-7.271-5.85" fill="#ffbf9d"/>
      <g id="Grupo_54021" data-name="Grupo 54021">
        <path id="Trazado_101228" data-name="Trazado 101228" d="M910.985,3924.164l-.122,39.887,17.112.816.494-9.7s6.078,1.207,7.646-4.438c1-3.6.752-31.472.752-31.472Z" fill="#ffbf9d"/>
        <path id="Trazado_101229" data-name="Trazado 101229" d="M935.885,3913.071c-5.206,1.687-6.462,2.249-8.8,2.436-2.239.18-18.185.193-19.631,9.131a6.434,6.434,0,0,1-.451-1.313,22.528,22.528,0,0,1-.2-2.64,3.314,3.314,0,0,0-.311,2.757,4.6,4.6,0,0,0,.17.577c-.1-.107-.2-.215-.321-.317a5.036,5.036,0,0,0-2.023-1.075c-.574-.141-.942-.11-.95-.047a13.684,13.684,0,0,1,2.632,1.516,6.716,6.716,0,0,1,1.345,1.6c0,.041-.008.078-.008.12,0,0-3.411-1.5-2.513,4.684s4.936,11.429,5.429,21.546c0,0,14.136,1.686,16.649-3.747l2.112-6.234s-3.4-.553-3-3.288c.548-3.784,3.439-3.881,5.593-2.2l2.48-6.645s6.282-4.121,6.641-6.744S941.09,3911.385,935.885,3913.071Z" fill="#344154"/>
      </g>
      <g id="Grupo_54024" data-name="Grupo 54024">
        <path id="Trazado_101230" data-name="Trazado 101230" d="M863.649,4224.738l-2.508,11.157,17.277,2.135.619-11.055Z" fill="#d9a171"/>
        <g id="Grupo_54022" data-name="Grupo 54022">
          <path id="Trazado_101231" data-name="Trazado 101231" d="M871.448,4225.285a50.905,50.905,0,0,1-1.651,10.161,50.89,50.89,0,0,1,1.651-10.161Z" fill="#344154"/>
        </g>
        <g id="Grupo_54023" data-name="Grupo 54023">
          <path id="Trazado_101232" data-name="Trazado 101232" d="M878.486,4236.815a13.415,13.415,0,0,1-2.5-.314l-5.994-.972c-2.341-.39-4.457-.783-5.977-1.123a11.134,11.134,0,0,1-2.433-.676,13.372,13.372,0,0,1,2.5.314l5.994.971c2.341.39,4.456.785,5.976,1.124A11.114,11.114,0,0,1,878.486,4236.815Z" fill="#344154"/>
        </g>
      </g>
      <g id="Grupo_54031" data-name="Grupo 54031">
        <path id="Trazado_101233" data-name="Trazado 101233" d="M889.26,4049.328,857.292,4229l27.383,1.552s29.082-154.879,33.351-155.266c1.789-.162,2.506,154.042,3.943,153.714s29.582.5,29.582.5-3.808-182.461-3.741-182.465S889.26,4049.328,889.26,4049.328Z" fill="#344154"/>
        <g id="Grupo_54030" data-name="Grupo 54030">
          <g id="Grupo_54025" data-name="Grupo 54025">
            <path id="Trazado_101234" data-name="Trazado 101234" d="M929.711,4071.518c.03.141-4.715,1.269-10.6,2.518s-10.677,2.149-10.707,2.009,4.714-1.268,10.6-2.518S929.681,4071.378,929.711,4071.518Z" fill="#375a64"/>
          </g>
          <g id="Grupo_54026" data-name="Grupo 54026">
            <path id="Trazado_101235" data-name="Trazado 101235" d="M886.673,4220.007c0,.143-6.193.068-13.822-.167s-13.81-.545-13.806-.689,6.192-.068,13.822.168S886.677,4219.863,886.673,4220.007Z" fill="#375a64"/>
          </g>
          <g id="Grupo_54027" data-name="Grupo 54027">
            <path id="Trazado_101236" data-name="Trazado 101236" d="M951.344,4220.021c0,.144-6.686.062-14.922-.184s-14.912-.562-14.908-.705,6.684-.062,14.923.184S951.348,4219.878,951.344,4220.021Z" fill="#375a64"/>
          </g>
          <g id="Grupo_54028" data-name="Grupo 54028">
            <path id="Trazado_101237" data-name="Trazado 101237" d="M902.923,4076.493c.14.03-6.633,32.084-15.128,71.584s-15.5,71.511-15.638,71.48,6.632-32.076,15.129-71.589S902.782,4076.463,902.923,4076.493Z" fill="#375a64"/>
          </g>
          <g id="Grupo_54029" data-name="Grupo 54029">
            <path id="Trazado_101238" data-name="Trazado 101238" d="M936.547,4219.577a1.894,1.894,0,0,1-.039-.371c-.015-.272-.035-.631-.06-1.089-.042-.987-.1-2.394-.18-4.188-.15-3.638-.328-8.9-.518-15.41-.38-13.013-.752-31-.85-50.86s.107-37.858.361-50.875c.127-6.508.255-11.774.369-15.413.06-1.8.108-3.2.14-4.19.021-.457.038-.817.05-1.088a1.925,1.925,0,0,1,.035-.371,1.955,1.955,0,0,1,.018.372c0,.272,0,.632,0,1.09-.01.989-.024,2.4-.042,4.192-.049,3.67-.118,8.928-.2,15.414-.16,13.016-.3,31-.208,50.867s.412,37.839.7,50.854c.148,6.484.268,11.742.352,15.412.036,1.8.063,3.2.083,4.191,0,.458.006.818.008,1.091A2.173,2.173,0,0,1,936.547,4219.577Z" fill="#375a64"/>
          </g>
        </g>
      </g>
      <g id="Grupo_54047" data-name="Grupo 54047">
        <path id="Trazado_101239" data-name="Trazado 101239" d="M997.066,3923.47s-21.2,31.979-23,33.776-35,5.286-35,5.286c-10.193-2.3-43.152-1.542-49.378,3.043h0c-5.386,2.98-11.932,9.954-15.3,26.531-5.749,28.278-11.5,38.7,0,42.651a75.705,75.705,0,0,0,14.156,3.335l-.318,12.8,59.6-3.7-3.051-31.785c-.358-8.924-.524-18.226-.745-26.464,3.728-1.413,38.387-14.531,40.767-14.871,2.515-.36,25.206-42.334,25.206-42.334C1010.72,3926.7,997.066,3923.47,997.066,3923.47Z" fill="#d9a171"/>
        <g id="Grupo_54032" data-name="Grupo 54032">
          <path id="Trazado_101240" data-name="Trazado 101240" d="M890.174,3981.347c.144,0-.175,15.577-.712,34.779s-1.09,34.771-1.234,34.767.176-15.574.713-34.782S890.031,3981.343,890.174,3981.347Z" fill="#344154"/>
        </g>
        <g id="Grupo_54033" data-name="Grupo 54033">
          <path id="Trazado_101241" data-name="Trazado 101241" d="M977.054,3964.445a10.389,10.389,0,0,1-1.736-3.509,26.261,26.261,0,0,1-1.248-3.69,10.339,10.339,0,0,1,1.736,3.508A26.206,26.206,0,0,1,977.054,3964.445Z" fill="#344154"/>
        </g>
        <g id="Grupo_54034" data-name="Grupo 54034">
          <path id="Trazado_101242" data-name="Trazado 101242" d="M979.431,3961.723a17.682,17.682,0,0,1-2.841-2.034,9.042,9.042,0,0,1-2.52-2.443,17.791,17.791,0,0,1,2.842,2.034A9.012,9.012,0,0,1,979.431,3961.723Z" fill="#344154"/>
        </g>
        <g id="Grupo_54035" data-name="Grupo 54035">
          <path id="Trazado_101243" data-name="Trazado 101243" d="M1008.852,3934.245a12.71,12.71,0,0,1-2.009-1.208c-1.215-.775-2.913-1.815-4.848-2.853s-3.744-1.872-5.063-2.453a12.633,12.633,0,0,1-2.119-1,9.026,9.026,0,0,1,2.257.66,42.216,42.216,0,0,1,9.981,5.344A9.033,9.033,0,0,1,1008.852,3934.245Z" fill="#344154"/>
        </g>
        <g id="Grupo_54036" data-name="Grupo 54036">
          <path id="Trazado_101244" data-name="Trazado 101244" d="M889.46,4016.279a11.7,11.7,0,0,1-3.686-.378,9.862,9.862,0,0,1-3.516-1.182,20.448,20.448,0,0,1,3.622.672A15.329,15.329,0,0,1,889.46,4016.279Z" fill="#344154"/>
        </g>
        <g id="Grupo_54037" data-name="Grupo 54037">
          <path id="Trazado_101245" data-name="Trazado 101245" d="M944.513,3962.08a29.667,29.667,0,0,0-3.2.751,12.387,12.387,0,0,0-8.522,11.946,29.748,29.748,0,0,0,.33,3.266,2.642,2.642,0,0,1-.322-.838,10.746,10.746,0,0,1-.376-2.42,12.163,12.163,0,0,1,8.778-12.3,10.7,10.7,0,0,1,2.411-.432A2.616,2.616,0,0,1,944.513,3962.08Z" fill="#344154"/>
        </g>
        <g id="Grupo_54038" data-name="Grupo 54038">
          <path id="Trazado_101246" data-name="Trazado 101246" d="M947.824,4047.187c.009.144-13.326,1.09-29.78,2.113s-29.807,1.735-29.816,1.591,13.323-1.088,29.783-2.112S947.815,4047.045,947.824,4047.187Z" fill="#344154"/>
        </g>
        <g id="Grupo_54039" data-name="Grupo 54039">
          <path id="Trazado_101247" data-name="Trazado 101247" d="M924.085,3961.452a4.272,4.272,0,0,1,.175.742c.044.246.121.548.165.911s.072.793.116,1.259a19.535,19.535,0,0,1-1.291,7.917,18.7,18.7,0,0,1-7.424,9.2,11.931,11.931,0,0,1-1.519.816,13.981,13.981,0,0,1-1.624.674c-1.11.4-2.26.74-3.4,1.144a15.306,15.306,0,0,0-3.3,1.544,11.856,11.856,0,0,0-2.707,2.554,69.021,69.021,0,0,0-3.94,6.388,13.49,13.49,0,0,1-4.895,5.095,11.3,11.3,0,0,1-6.289,1.164,15.032,15.032,0,0,1-5.364-1.531,24.213,24.213,0,0,1-6.461-4.765c-.672-.67-1.171-1.211-1.508-1.578a4.12,4.12,0,0,1-.489-.585,4.185,4.185,0,0,1,.564.512l1.574,1.505a25.265,25.265,0,0,0,6.48,4.578,14.8,14.8,0,0,0,5.239,1.434,10.922,10.922,0,0,0,6.027-1.156,13.1,13.1,0,0,0,4.688-4.941,67.361,67.361,0,0,1,3.964-6.441,12.3,12.3,0,0,1,2.834-2.667,15.765,15.765,0,0,1,3.413-1.591l3.4-1.132a13.315,13.315,0,0,0,1.587-.65,11.414,11.414,0,0,0,1.475-.781,18.5,18.5,0,0,0,7.33-8.92,20.092,20.092,0,0,0,1.431-7.774q-.038-.695-.067-1.25c-.028-.362-.087-.664-.114-.911A4.182,4.182,0,0,1,924.085,3961.452Z" fill="#344154"/>
        </g>
        <g id="Grupo_54040" data-name="Grupo 54040">
          <path id="Trazado_101248" data-name="Trazado 101248" d="M946.653,4034.981a7.86,7.86,0,0,1-.666-.426,6.129,6.129,0,0,0-2.062-.844,29.808,29.808,0,0,0-3.561-.318c-1.389-.112-2.98-.123-4.747-.187a23.422,23.422,0,0,1-5.741-.805,19.276,19.276,0,0,1-6-2.888,16.776,16.776,0,0,1-4.907-5.484,16.03,16.03,0,0,1-2.012-7.635,13.839,13.839,0,0,1,7.595-12.533,12.569,12.569,0,0,1,3.281-1.095,19.981,19.981,0,0,1,3.234-.265,47.6,47.6,0,0,0,5.736-.17,8.3,8.3,0,0,0,6.687-4.166,6.345,6.345,0,0,0,.621-2.141c.06-.512.052-.786.079-.786a.594.594,0,0,1,.025.2,4.412,4.412,0,0,1,0,.594,5.97,5.97,0,0,1-.542,2.219,7.085,7.085,0,0,1-2.342,2.752,9.773,9.773,0,0,1-4.477,1.692,45.888,45.888,0,0,1-5.778.236,19.791,19.791,0,0,0-3.16.285,12.21,12.21,0,0,0-3.15,1.073,13.4,13.4,0,0,0-7.288,12.1,15.6,15.6,0,0,0,1.938,7.392,16.383,16.383,0,0,0,4.743,5.342,19.024,19.024,0,0,0,5.84,2.862,23.386,23.386,0,0,0,5.64.851c1.755.088,3.354.125,4.755.265a27.283,27.283,0,0,1,3.58.41,5.824,5.824,0,0,1,2.076.955,4.911,4.911,0,0,1,.464.37C946.61,4034.926,946.658,4034.974,946.653,4034.981Z" fill="#344154"/>
        </g>
        <g id="Grupo_54041" data-name="Grupo 54041">
          <path id="Trazado_101249" data-name="Trazado 101249" d="M913.53,4049.628a10.224,10.224,0,0,0-.116-2.143,7.5,7.5,0,0,0-3.079-4.738,6.981,6.981,0,0,0-1.7-.831,10.471,10.471,0,0,0-2.045-.378,21.9,21.9,0,0,1-4.684-.635,5.967,5.967,0,0,1-2.245-1.356,7.275,7.275,0,0,1-1.523-2.261,10.477,10.477,0,0,1-.651-5.592c.558-3.847,2.246-7.158,2.542-10.417a10.28,10.28,0,0,0-.408-4.529,6.521,6.521,0,0,0-2.321-3.137,7.613,7.613,0,0,0-5.481-1.4,10.982,10.982,0,0,0-2.065.58,4.964,4.964,0,0,1,2.033-.78,7.669,7.669,0,0,1,5.729,1.3,6.865,6.865,0,0,1,2.511,3.288,10.6,10.6,0,0,1,.479,4.725c-.288,3.371-1.973,6.718-2.5,10.437a10.033,10.033,0,0,0,.6,5.321,6.793,6.793,0,0,0,1.4,2.107,5.5,5.5,0,0,0,2.051,1.258,22.141,22.141,0,0,0,4.576.659,10.841,10.841,0,0,1,2.121.425,7.294,7.294,0,0,1,1.792.912,7.562,7.562,0,0,1,3.068,5.007,6.127,6.127,0,0,1,.032,1.622A2.284,2.284,0,0,1,913.53,4049.628Z" fill="#344154"/>
        </g>
        <g id="Grupo_54042" data-name="Grupo 54042">
          <path id="Trazado_101250" data-name="Trazado 101250" d="M911.536,3994.29c-.014-.022.207-.213.7-.361a3.341,3.341,0,0,1,2.161.144,3.379,3.379,0,0,1,1.259.88,3.036,3.036,0,0,1,.727,1.625,3.5,3.5,0,0,1-1.73,3.5,3.46,3.46,0,0,1-3.852-.6,2.93,2.93,0,0,1-.882-1.55,3.242,3.242,0,0,1,.071-1.537,3.18,3.18,0,0,1,1.246-1.771c.435-.286.727-.325.733-.3.018.043-.243.148-.609.462a3.205,3.205,0,0,0-1.013,1.7,2.646,2.646,0,0,0,.779,2.641,3.018,3.018,0,0,0,3.286.493,3.06,3.06,0,0,0,1.494-2.977,2.772,2.772,0,0,0-1.656-2.226,3.411,3.411,0,0,0-1.97-.283C911.807,3994.206,911.556,3994.331,911.536,3994.29Z" fill="#344154"/>
        </g>
        <g id="Grupo_54043" data-name="Grupo 54043">
          <path id="Trazado_101251" data-name="Trazado 101251" d="M881.556,4036.926c-.111-.024.359-1.758.47-4.619a20.508,20.508,0,0,0-.026-2.336c-.015-.84-.152-1.728-.265-2.665a27.767,27.767,0,0,0-4.432-11.344,26.736,26.736,0,0,0-1.611-2.139,20.086,20.086,0,0,0-1.565-1.735c-2.02-2.029-3.541-2.985-3.474-3.077a5.78,5.78,0,0,1,1.073.651,10.251,10.251,0,0,1,1.185.877,16.892,16.892,0,0,1,1.474,1.286,18.885,18.885,0,0,1,1.636,1.719,24.922,24.922,0,0,1,1.678,2.148,26.672,26.672,0,0,1,4.51,11.545,24.858,24.858,0,0,1,.222,2.716,18.959,18.959,0,0,1-.037,2.373,16.793,16.793,0,0,1-.213,1.943,10.322,10.322,0,0,1-.276,1.45A5.818,5.818,0,0,1,881.556,4036.926Z" fill="#344154"/>
        </g>
        <g id="Grupo_54044" data-name="Grupo 54044">
          <path id="Trazado_101252" data-name="Trazado 101252" d="M985.317,3973.626a11.329,11.329,0,0,1-1.49-.659c-.949-.441-2.327-1.068-4.079-1.709a30.625,30.625,0,0,0-6.322-1.6,20.91,20.91,0,0,0-7.9.39,15.823,15.823,0,0,0-6.944,3.662,13.365,13.365,0,0,0-3.569,5.329,10.794,10.794,0,0,0-.6,4.3c.077,1.036.241,1.6.185,1.61a1.292,1.292,0,0,1-.142-.4,7.658,7.658,0,0,1-.245-1.191,10.294,10.294,0,0,1,.456-4.441,13.4,13.4,0,0,1,3.59-5.562,16,16,0,0,1,7.144-3.817,20.859,20.859,0,0,1,8.1-.36,29.074,29.074,0,0,1,6.388,1.727,37.968,37.968,0,0,1,4.039,1.872c.461.251.816.452,1.051.6S985.325,3973.611,985.317,3973.626Z" fill="#344154"/>
        </g>
        <g id="Grupo_54045" data-name="Grupo 54045">
          <path id="Trazado_101253" data-name="Trazado 101253" d="M993.5,3928.828c.013-.012.106.069.272.235a7.618,7.618,0,0,1,.689.762,11.67,11.67,0,0,1,1.852,3.3,13.416,13.416,0,0,1,.792,5.558,13.63,13.63,0,0,1-2.175,6.517,13.241,13.241,0,0,1-5.187,4.5,13.822,13.822,0,0,1-5.425,1.44,12.177,12.177,0,0,1-3.765-.346,7.83,7.83,0,0,1-.979-.313c-.22-.082-.332-.133-.326-.15a17.228,17.228,0,0,0,5.044.442,13.962,13.962,0,0,0,5.236-1.5,13.041,13.041,0,0,0,4.968-4.362,13.533,13.533,0,0,0,1.47-11.665A16.434,16.434,0,0,0,993.5,3928.828Z" fill="#344154"/>
        </g>
        <g id="Grupo_54046" data-name="Grupo 54046">
          <path id="Trazado_101254" data-name="Trazado 101254" d="M928.212,3961.319a144.979,144.979,0,0,1-17.374.133,144.979,144.979,0,0,1,17.374-.133Z" fill="#344154"/>
        </g>
      </g>
    </g>
  </g>
</svg>
