<?xml version="1.0" encoding="utf-8"?>
<!-- Generator: Adobe Illustrator 25.2.3, SVG Export Plug-In . SVG Version: 6.00 Build 0)  -->
<svg version="1.1" id="Capa_1" xmlns="http://www.w3.org/2000/svg" xmlns:xlink="http://www.w3.org/1999/xlink" x="0px" y="0px"
	 viewBox="0 0 573 200.68" style="enable-background:new 0 0 573 200.68;" xml:space="preserve">
<style type="text/css">
	.st0{fill:#F6F6F6;}
	.st1{fill:#FFFFFF;}
	.st2{fill:#12263F;}
	.st3{font-family:'Roboto-Bold';}
	.st4{font-size:13.4545px;}
	.st5{font-family:'Roboto-Regular';}
	.st6{font-size:11.9596px;}
	.st7{fill:#D9A171;}
	.st8{font-size:17.9394px;}
</style>
<g transform="translate(-528 -3517.324)">
	<rect x="614.5" y="3588.02" class="st0" width="400" height="52.32"/>
	<rect x="614.5" y="3640.34" class="st1" width="400" height="52.32"/>
	<text transform="matrix(0.9339 0 0 1 629.8574 3668.7419)" class="st2 st3 st4">Ingreso</text>
	<text transform="matrix(0.9339 0 0 1 629.8574 3618.6619)" class="st2 st3 st4">Activo largo plazo</text>
	<text transform="matrix(0.9339 0 0 1 774.3604 3613.4294)" class="st2 st5 st6">Activo </text>
	<text transform="matrix(0.9339 0 0 1 774.3604 3629.1267)" class="st2 st5 st6">largo plazo</text>
	<text transform="matrix(0.9339 0 0 1 774.3604 3660.5203)" class="st2 st5 st6">Ingreso </text>
	<text transform="matrix(0.9339 0 0 1 774.3604 3676.2166)" class="st2 st5 st6">financiero</text>
	<text transform="matrix(0.9339 0 0 1 853.2432 3618.6619)" class="st2 st5 st6">22.272,11</text>
	<text transform="matrix(0.9339 0 0 1 937.0127 3670.9841)" class="st2 st5 st6">22.272,11</text>
	<path class="st7" d="M614.5,3542.66h399.95v45.35H614.5V3542.66z"/>
	<text transform="matrix(0.9339 0 0 1 632.4688 3570.0759)" class="st1 st3 st8">Clasificación</text>
	<text transform="matrix(0.9339 0 0 1 760.6934 3571.5706)" class="st1 st3 st8">Cuentas</text>
	<text transform="matrix(0.9339 0 0 1 861.2158 3571.5706)" class="st1 st3 st8">Debe</text>
	<text transform="matrix(0.9339 0 0 1 941.4551 3571.5706)" class="st1 st3 st8">Haber</text>
</g>
</svg>
