<?xml version="1.0" encoding="utf-8"?>
<!-- Generator: Adobe Illustrator 25.2.3, SVG Export Plug-In . SVG Version: 6.00 Build 0)  -->
<svg version="1.1" id="Capa_1" xmlns="http://www.w3.org/2000/svg" xmlns:xlink="http://www.w3.org/1999/xlink" x="0px" y="0px"
	 viewBox="0 0 573 201.2" style="enable-background:new 0 0 573 201.2;" xml:space="preserve">
<style type="text/css">
	.st0{fill:#F6F6F6;}
	.st1{fill:#FFFFFF;}
	.st2{fill:#12263F;}
	.st3{fill:none;stroke:#AFAFAF;stroke-linecap:round;}
	.st4{fill:#D9A171;}
</style>
<g id="Grupo_54981" transform="translate(-528 -3517.324)">
	<rect id="Rectángulo_5397" x="614.5" y="3588" class="st0" width="400" height="52.3"/>
	<rect id="Rectángulo_5398" x="614.5" y="3640.3" class="st1" width="400" height="52.3"/>
	<path id="Trazado_102718" class="st2" d="M632.8,3668.7h-2.1v-9.6h2.1V3668.7z M636.1,3661.6l0.1,0.8c0.4-0.6,1.2-1,1.9-1
		c0.6,0,1.2,0.2,1.5,0.7c0.4,0.6,0.6,1.3,0.5,2v4.6h-2.1v-4.5c0-0.3,0-0.6-0.2-0.8c-0.2-0.2-0.5-0.3-0.7-0.3c-0.4,0-0.7,0.2-0.9,0.5
		v5h-2.1v-7.1H636.1z M641.1,3665.1c0-0.7,0.1-1.3,0.3-1.9c0.2-0.5,0.5-1,0.9-1.3c0.4-0.3,0.9-0.5,1.4-0.4c0.6,0,1.2,0.2,1.6,0.7
		l0.1-0.6h1.9v6.8c0,0.6-0.1,1.1-0.4,1.6c-0.3,0.5-0.7,0.8-1.2,1.1c-0.6,0.3-1.2,0.4-1.8,0.4c-0.5,0-1-0.1-1.4-0.3
		c-0.4-0.2-0.8-0.4-1-0.8l0.9-1.3c0.4,0.5,0.9,0.8,1.5,0.7c0.7,0.1,1.3-0.4,1.4-1.1c0-0.1,0-0.2,0-0.4v-0.2
		c-0.4,0.5-0.9,0.7-1.5,0.7c-0.8,0-1.5-0.3-2-1C641.3,3667.1,641,3666.2,641.1,3665.1L641.1,3665.1z M643.1,3665.3
		c0,0.5,0.1,1,0.3,1.4c0.2,0.3,0.5,0.5,0.9,0.5c0.4,0,0.8-0.1,1-0.5v-3c-0.2-0.3-0.6-0.5-1-0.5c-0.4,0-0.7,0.2-0.9,0.5
		C643.2,3664.2,643.1,3664.7,643.1,3665.3L643.1,3665.3z M652.6,3663.6l-0.7-0.1c-0.5-0.1-1,0.2-1.3,0.7v4.5h-2.1v-7.1h1.9l0.1,0.9
		c0.2-0.6,0.8-1,1.5-1c0.2,0,0.4,0,0.6,0.1L652.6,3663.6z M656.5,3668.9c-0.9,0-1.8-0.3-2.5-1c-0.6-0.7-1-1.6-0.9-2.5v-0.2
		c0-0.7,0.1-1.3,0.4-1.9c0.2-0.5,0.6-1,1.1-1.3c0.5-0.3,1.1-0.5,1.7-0.5c0.8,0,1.6,0.3,2.2,0.9c0.6,0.7,0.9,1.6,0.8,2.6v0.9h-4.1
		c0.1,0.4,0.2,0.7,0.5,0.9c0.3,0.2,0.6,0.4,1,0.3c0.6,0,1.2-0.2,1.5-0.7l0.9,1.2c-0.3,0.4-0.7,0.7-1.1,0.9
		C657.6,3668.8,657,3668.9,656.5,3668.9L656.5,3668.9z M656.3,3663.2c-0.6,0-1,0.4-1.1,1.3h2.1v-0.2c0-0.3-0.1-0.6-0.3-0.8
		C656.8,3663.3,656.6,3663.2,656.3,3663.2z M663.6,3666.7c0-0.2-0.1-0.4-0.3-0.5c-0.3-0.2-0.7-0.3-1-0.4c-0.4-0.1-0.9-0.3-1.3-0.5
		c-0.3-0.2-0.6-0.4-0.8-0.7c-0.2-0.3-0.3-0.6-0.3-1c0-0.6,0.3-1.2,0.8-1.6c0.6-0.4,1.3-0.7,2-0.6c0.7,0,1.5,0.2,2.1,0.6
		c0.5,0.4,0.8,1,0.8,1.7h-2.1c0-0.6-0.3-0.9-0.8-0.9c-0.2,0-0.4,0.1-0.5,0.2c-0.1,0.1-0.2,0.3-0.2,0.5c0,0.2,0.1,0.4,0.3,0.5
		c0.3,0.2,0.6,0.3,0.9,0.3c0.4,0.1,0.7,0.2,1,0.3c0.9,0.2,1.5,1,1.5,2c0,0.6-0.3,1.2-0.8,1.6c-0.6,0.4-1.4,0.6-2.1,0.6
		c-0.5,0-1-0.1-1.5-0.3c-0.4-0.2-0.8-0.5-1-0.9c-0.2-0.3-0.4-0.8-0.4-1.2h1.9c0,0.3,0.1,0.5,0.3,0.7c0.2,0.2,0.5,0.2,0.8,0.2
		c0.2,0,0.4,0,0.6-0.2C663.5,3667.1,663.6,3666.9,663.6,3666.7L663.6,3666.7z M666.3,3665.1c0-0.7,0.1-1.3,0.4-1.9
		c0.2-0.5,0.6-1,1.1-1.3c0.5-0.3,1.1-0.5,1.7-0.4c0.9,0,1.7,0.3,2.3,1c0.6,0.7,0.9,1.7,0.9,2.7v0.1c0,1-0.3,1.9-0.9,2.6
		c-0.6,0.7-1.5,1-2.3,1c-0.8,0-1.7-0.3-2.3-0.9c-0.6-0.7-0.9-1.5-0.9-2.5L666.3,3665.1z M668.4,3665.3c0,0.5,0.1,1,0.3,1.4
		c0.2,0.3,0.5,0.5,0.9,0.5c0.7,0,1.1-0.6,1.1-1.8v-0.2c0-1.3-0.4-1.9-1.1-1.9c-0.7,0-1.1,0.5-1.1,1.6L668.4,3665.3z"/>
	<path id="Trazado_102715" class="st2" d="M635.6,3616.9h-3l-0.5,1.8h-2.3l3.3-9.6h2l3.3,9.6h-2.3L635.6,3616.9z M633.2,3615.1h1.9
		l-1-3.3L633.2,3615.1z M641.8,3617.1c0.2,0,0.5-0.1,0.7-0.3c0.2-0.2,0.3-0.4,0.2-0.7h1.9c0,0.7-0.3,1.4-0.8,1.9
		c-0.6,0.5-1.3,0.8-2,0.7c-0.9,0-1.7-0.3-2.3-1c-0.6-0.7-0.9-1.7-0.8-2.7v-0.1c0-0.7,0.1-1.3,0.4-1.9c0.2-0.5,0.6-1,1.1-1.3
		c0.5-0.3,1.1-0.5,1.7-0.4c0.8,0,1.5,0.2,2.1,0.8c0.5,0.5,0.8,1.3,0.8,2.1h-1.9c0-0.3-0.1-0.6-0.3-0.8c-0.2-0.2-0.4-0.3-0.7-0.3
		c-0.5,0-0.8,0.4-0.9,1.1c0,0.3,0,0.6,0,1c0,0.5,0,1,0.2,1.5C641.2,3616.9,641.5,3617.1,641.8,3617.1z M647.9,3609.8v1.8h1.1v1.5
		h-1.1v3.3c0,0.2,0,0.4,0.1,0.6c0.2,0.1,0.3,0.2,0.5,0.2c0.2,0,0.3,0,0.5,0v1.6c-0.4,0.1-0.8,0.2-1.2,0.2c-0.6,0.1-1.1-0.1-1.6-0.5
		c-0.4-0.4-0.6-1-0.5-1.6v-3.5H645v-1.5h0.8v-1.8H647.9z M652,3618.7h-2.1v-7.1h2.1V3618.7z M649.8,3609.7c0-0.3,0.1-0.6,0.3-0.8
		c0.5-0.4,1.2-0.4,1.7,0c0.2,0.2,0.3,0.5,0.3,0.8c0,0.3-0.1,0.6-0.3,0.8c-0.5,0.4-1.2,0.4-1.7,0
		C649.9,3610.3,649.8,3610,649.8,3609.7z M655.9,3616l1-4.5h2.2l-2.2,7.1h-2.1l-2.2-7.1h2.2L655.9,3616z M659.4,3615
		c0-0.7,0.1-1.3,0.4-1.9c0.2-0.5,0.6-1,1.1-1.3c0.5-0.3,1.1-0.5,1.7-0.4c0.9,0,1.7,0.3,2.3,1c0.6,0.7,0.9,1.7,0.9,2.7v0.1
		c0,1-0.3,1.9-0.9,2.6c-0.6,0.7-1.5,1-2.3,1c-0.8,0-1.7-0.3-2.3-0.9c-0.6-0.7-0.9-1.5-0.9-2.5L659.4,3615z M661.5,3615.2
		c0,0.5,0.1,1,0.3,1.4c0.2,0.3,0.5,0.5,0.9,0.5c0.7,0,1.1-0.6,1.1-1.8v-0.2c0-1.3-0.4-1.9-1.1-1.9c-0.7,0-1.1,0.5-1.1,1.6
		L661.5,3615.2z M672.1,3618.7H670v-10.1h2.1V3618.7z M677.1,3618.7c-0.1-0.2-0.2-0.4-0.2-0.6c-0.4,0.5-1,0.8-1.6,0.8
		c-0.6,0-1.2-0.2-1.6-0.6c-0.4-0.4-0.7-0.9-0.7-1.5c0-0.7,0.3-1.4,0.8-1.7c0.7-0.4,1.5-0.6,2.3-0.6h0.6v-0.4c0-0.7-0.3-1-0.8-1
		c-0.4-0.1-0.7,0.2-0.7,0.6c0,0.1,0,0.1,0,0.2h-2.1c0-0.7,0.3-1.3,0.8-1.7c0.6-0.5,1.3-0.7,2.1-0.6c0.7,0,1.4,0.2,2,0.7
		c0.5,0.5,0.8,1.1,0.8,1.8v3.1c0,0.5,0.1,1,0.3,1.5v0.1H677.1z M675.8,3617.2c0.2,0,0.4-0.1,0.6-0.2c0.2-0.1,0.3-0.2,0.4-0.4v-1.1
		h-0.6c-0.7,0-1.1,0.3-1.1,1c0,0.2,0.1,0.4,0.2,0.5C675.4,3617.2,675.6,3617.2,675.8,3617.2L675.8,3617.2z M684,3613.6l-0.7-0.1
		c-0.5-0.1-1,0.2-1.3,0.7v4.5H680v-7.1h1.9l0.1,0.9c0.2-0.6,0.8-1,1.5-1c0.2,0,0.4,0,0.6,0.1L684,3613.6z M684.5,3615
		c0-0.7,0.1-1.3,0.3-1.9c0.2-0.5,0.5-1,1-1.3c0.4-0.3,0.9-0.5,1.4-0.4c0.6,0,1.2,0.2,1.6,0.7l0.1-0.6h1.9v6.8c0,0.6-0.1,1.1-0.4,1.6
		c-0.3,0.5-0.7,0.8-1.2,1.1c-0.6,0.3-1.2,0.4-1.8,0.4c-0.5,0-1-0.1-1.4-0.3c-0.4-0.2-0.8-0.4-1-0.8l0.9-1.3c0.4,0.5,0.9,0.8,1.5,0.7
		c0.7,0.1,1.3-0.4,1.4-1.1c0-0.1,0-0.2,0-0.4v-0.2c-0.4,0.5-0.9,0.7-1.5,0.7c-0.8,0-1.5-0.3-2-1C684.7,3617,684.5,3616.1,684.5,3615
		L684.5,3615z M686.6,3615.2c0,0.5,0.1,1,0.3,1.4c0.2,0.3,0.5,0.5,0.9,0.5c0.4,0,0.8-0.1,1-0.5v-3c-0.2-0.3-0.6-0.5-1-0.5
		c-0.4,0-0.7,0.2-0.9,0.5C686.7,3614.1,686.6,3614.7,686.6,3615.2L686.6,3615.2z M691.7,3615c0-0.7,0.1-1.3,0.4-1.9
		c0.2-0.5,0.6-1,1.1-1.3c0.5-0.3,1.1-0.5,1.7-0.4c0.9,0,1.7,0.3,2.3,1c0.6,0.7,0.9,1.7,0.9,2.7v0.1c0,1-0.3,1.9-0.9,2.6
		c-0.6,0.7-1.5,1-2.3,1c-0.8,0-1.7-0.3-2.3-0.9c-0.6-0.7-0.9-1.5-0.9-2.5L691.7,3615z M693.8,3615.2c0,0.5,0.1,1,0.3,1.4
		c0.2,0.3,0.5,0.5,0.9,0.5c0.7,0,1.1-0.6,1.1-1.8v-0.2c0-1.3-0.4-1.9-1.1-1.9c-0.7,0-1.1,0.5-1.1,1.6L693.8,3615.2z M708.3,3615.2
		c0,0.9-0.2,1.9-0.7,2.6c-0.4,0.6-1.1,1-1.9,1c-0.6,0-1.1-0.2-1.5-0.7v3.3h-2.1v-9.8h1.9l0.1,0.7c0.4-0.5,1-0.8,1.6-0.8
		c0.7,0,1.5,0.3,1.9,1C708.1,3613.2,708.4,3614.1,708.3,3615.2L708.3,3615.2z M706.3,3615c0-1.3-0.3-1.9-1-1.9
		c-0.4-0.1-0.8,0.2-1,0.6v2.8c0.2,0.4,0.6,0.6,1,0.6c0.7,0,1-0.6,1-1.8V3615z M711.4,3618.7h-2.1v-10.1h2.1V3618.7z M716.4,3618.7
		c-0.1-0.2-0.2-0.4-0.2-0.6c-0.4,0.5-1,0.8-1.6,0.8c-0.6,0-1.2-0.2-1.6-0.6c-0.4-0.4-0.7-0.9-0.7-1.5c0-0.7,0.3-1.4,0.8-1.7
		c0.7-0.4,1.5-0.6,2.3-0.6h0.6v-0.4c0-0.7-0.3-1-0.8-1c-0.4-0.1-0.7,0.2-0.7,0.6c0,0.1,0,0.1,0,0.2h-2.1c0-0.7,0.3-1.3,0.8-1.7
		c0.6-0.5,1.3-0.7,2.1-0.6c0.7,0,1.4,0.2,2,0.7c0.5,0.5,0.8,1.1,0.8,1.8v3.1c0,0.5,0.1,1,0.3,1.5v0.1H716.4z M715.1,3617.2
		c0.2,0,0.4-0.1,0.6-0.2c0.2-0.1,0.3-0.2,0.4-0.4v-1.1h-0.6c-0.7,0-1.1,0.3-1.1,1c0,0.2,0.1,0.4,0.2,0.5
		C714.8,3617.2,715,3617.2,715.1,3617.2L715.1,3617.2z M721.8,3617h3v1.7h-5.6v-1.2l2.9-4.2h-2.8v-1.7h5.4v1.2L721.8,3617z
		 M725.5,3615c0-0.7,0.1-1.3,0.4-1.9c0.2-0.5,0.6-1,1.1-1.3c0.5-0.3,1.1-0.5,1.7-0.4c0.9,0,1.7,0.3,2.3,1c0.6,0.7,0.9,1.7,0.9,2.7
		v0.1c0,1-0.3,1.9-0.9,2.6c-0.6,0.7-1.5,1-2.3,1c-0.8,0-1.7-0.3-2.3-0.9c-0.6-0.7-0.9-1.5-0.9-2.5L725.5,3615z M727.5,3615.2
		c0,0.5,0.1,1,0.3,1.4c0.2,0.3,0.5,0.5,0.9,0.5c0.7,0,1.1-0.6,1.1-1.8v-0.2c0-1.3-0.4-1.9-1.1-1.9c-0.7,0-1.1,0.5-1.1,1.6
		L727.5,3615.2z"/>
	<path id="Trazado_102716" class="st2" d="M781.1,3610.7c-0.1,0.8-0.4,1.5-0.9,2.1c-0.6,0.5-1.3,0.8-2.1,0.7c-0.9,0-1.7-0.4-2.3-1.1
		c-0.6-0.8-0.9-1.8-0.8-2.9v-0.8c0-0.7,0.1-1.4,0.4-2.1c0.2-0.6,0.6-1,1.1-1.4c0.5-0.3,1.1-0.5,1.7-0.5c0.7,0,1.5,0.2,2,0.8
		c0.5,0.6,0.8,1.3,0.9,2.1h-1.1c0-0.5-0.2-1.1-0.6-1.5c-0.4-0.3-0.8-0.5-1.3-0.5c-0.6,0-1.2,0.3-1.6,0.8c-0.4,0.7-0.6,1.5-0.6,2.3
		v0.8c0,0.8,0.2,1.5,0.5,2.2c0.3,0.5,0.9,0.8,1.5,0.8c0.5,0,1-0.1,1.3-0.4c0.4-0.4,0.6-0.9,0.6-1.5H781.1z M783.5,3613.4h-1v-9h1
		V3613.4z M786.2,3613.4h-1v-6.3h1V3613.4z M785.1,3605.4c0-0.2,0-0.3,0.2-0.4c0.1-0.1,0.3-0.2,0.4-0.2c0.2,0,0.3,0.1,0.4,0.2
		c0.1,0.1,0.2,0.3,0.2,0.4c0,0.2-0.1,0.3-0.2,0.4c-0.1,0.1-0.3,0.2-0.4,0.2c-0.2,0-0.3-0.1-0.4-0.2
		C785.2,3605.8,785.1,3605.6,785.1,3605.4z M790.3,3613.5c-0.7,0-1.4-0.3-2-0.8c-0.5-0.6-0.8-1.4-0.8-2.3v-0.2
		c0-0.6,0.1-1.2,0.3-1.7c0.2-0.5,0.5-0.9,0.9-1.2c0.4-0.3,0.8-0.4,1.3-0.4c0.7,0,1.3,0.3,1.8,0.8c0.5,0.7,0.7,1.5,0.6,2.3v0.4h-4
		c0,0.6,0.2,1.1,0.5,1.5c0.3,0.4,0.8,0.6,1.2,0.6c0.3,0,0.6-0.1,0.9-0.2c0.3-0.2,0.5-0.4,0.6-0.6l0.6,0.5
		C792,3613.1,791.2,3613.6,790.3,3613.5L790.3,3613.5z M790.1,3607.9c-0.4,0-0.8,0.2-1,0.5c-0.3,0.4-0.5,0.8-0.5,1.3h3v-0.1
		c0-0.5-0.1-0.9-0.4-1.3C790.9,3608,790.5,3607.9,790.1,3607.9z M794.7,3607.1l0,0.8c0.4-0.6,1.1-0.9,1.8-0.9c1.2,0,1.9,0.8,1.9,2.3
		v4.2h-1v-4.2c0-0.4-0.1-0.7-0.3-1c-0.2-0.2-0.6-0.4-0.9-0.3c-0.3,0-0.6,0.1-0.9,0.3c-0.2,0.2-0.4,0.4-0.6,0.7v4.5h-1v-6.3H794.7z
		 M801.3,3605.6v1.5h1.1v0.8h-1.1v3.9c0,0.2,0,0.4,0.1,0.6c0.1,0.1,0.3,0.2,0.5,0.2c0.2,0,0.3,0,0.5-0.1v0.9
		c-0.3,0.1-0.5,0.1-0.8,0.1c-0.4,0-0.8-0.1-1-0.4c-0.2-0.4-0.4-0.8-0.3-1.2v-3.9h-1.1v-0.8h1.1v-1.5H801.3z M806,3613.5
		c-0.7,0-1.4-0.3-2-0.8c-0.5-0.6-0.8-1.4-0.8-2.3v-0.2c0-0.6,0.1-1.2,0.3-1.7c0.2-0.5,0.5-0.9,0.9-1.2c0.4-0.3,0.8-0.4,1.3-0.4
		c0.7,0,1.3,0.3,1.8,0.8c0.5,0.7,0.7,1.5,0.6,2.3v0.4h-4c0,0.6,0.2,1.1,0.5,1.5c0.3,0.4,0.8,0.6,1.2,0.6c0.3,0,0.6-0.1,0.9-0.2
		c0.3-0.2,0.5-0.4,0.6-0.6l0.6,0.5C807.7,3613.1,806.9,3613.6,806,3613.5L806,3613.5z M805.9,3607.9c-0.4,0-0.8,0.2-1,0.5
		c-0.3,0.4-0.5,0.8-0.5,1.3h3v-0.1c0-0.5-0.1-0.9-0.4-1.3C806.6,3608,806.2,3607.9,805.9,3607.9L805.9,3607.9z M812.9,3611.8
		c0-0.3-0.1-0.5-0.3-0.7c-0.3-0.2-0.7-0.4-1.1-0.4c-0.4-0.1-0.8-0.2-1.2-0.4c-0.3-0.1-0.5-0.3-0.7-0.6c-0.1-0.2-0.2-0.5-0.2-0.8
		c0-0.5,0.2-1,0.6-1.3c0.4-0.4,1-0.6,1.6-0.5c0.6,0,1.2,0.2,1.6,0.6c0.4,0.3,0.6,0.9,0.6,1.4h-1c0-0.3-0.1-0.6-0.3-0.8
		c-0.2-0.2-0.6-0.3-0.9-0.3c-0.3,0-0.6,0.1-0.9,0.3c-0.2,0.2-0.3,0.4-0.3,0.7c0,0.2,0.1,0.5,0.3,0.6c0.3,0.2,0.7,0.3,1,0.4
		c0.4,0.1,0.8,0.2,1.2,0.4c0.3,0.1,0.5,0.3,0.7,0.6c0.2,0.3,0.2,0.6,0.2,0.9c0,0.5-0.2,1-0.6,1.4c-0.5,0.4-1.1,0.5-1.6,0.5
		c-0.4,0-0.9-0.1-1.3-0.3c-0.3-0.2-0.6-0.4-0.9-0.7c-0.2-0.3-0.3-0.7-0.3-1h1c0,0.3,0.2,0.7,0.4,0.9c0.3,0.2,0.6,0.3,1,0.3
		c0.3,0,0.6-0.1,0.9-0.2C812.8,3612.3,812.9,3612,812.9,3611.8L812.9,3611.8z M821.6,3613.4c-0.1-0.2-0.1-0.4-0.1-0.7
		c-0.4,0.5-1,0.8-1.7,0.8c-0.5,0-1-0.2-1.4-0.5c-0.4-0.3-0.6-0.8-0.6-1.3c0-0.6,0.2-1.2,0.7-1.5c0.6-0.4,1.3-0.6,2-0.5h1v-0.5
		c0-0.3-0.1-0.7-0.3-0.9c-0.3-0.2-0.6-0.4-0.9-0.3c-0.3,0-0.6,0.1-0.9,0.3c-0.2,0.2-0.4,0.4-0.4,0.7h-1c0-0.3,0.1-0.7,0.3-0.9
		c0.2-0.3,0.5-0.5,0.9-0.7c0.4-0.2,0.8-0.3,1.2-0.3c0.6,0,1.1,0.2,1.6,0.5c0.4,0.4,0.6,0.9,0.6,1.5v2.9c0,0.5,0.1,0.9,0.2,1.4v0.1
		H821.6z M820,3612.6c0.3,0,0.6-0.1,0.9-0.3c0.3-0.2,0.5-0.4,0.6-0.7v-1.3h-0.8c-1.2,0-1.9,0.4-1.9,1.2c0,0.3,0.1,0.6,0.3,0.8
		C819.4,3612.5,819.7,3612.6,820,3612.6L820,3612.6z M776.2,3629.1h-1v-9h1V3629.1z M781.5,3629.1c-0.1-0.2-0.1-0.4-0.1-0.7
		c-0.4,0.5-1,0.8-1.7,0.8c-0.5,0-1-0.2-1.4-0.5c-0.4-0.3-0.6-0.8-0.6-1.3c0-0.6,0.2-1.2,0.7-1.5c0.6-0.4,1.3-0.6,2-0.5h1v-0.5
		c0-0.3-0.1-0.7-0.3-0.9c-0.3-0.2-0.6-0.4-0.9-0.3c-0.3,0-0.6,0.1-0.9,0.3c-0.2,0.2-0.4,0.4-0.4,0.7h-1c0-0.3,0.1-0.7,0.3-0.9
		c0.2-0.3,0.5-0.5,0.9-0.7c0.4-0.2,0.8-0.3,1.2-0.3c0.6,0,1.1,0.2,1.6,0.5c0.4,0.4,0.6,0.9,0.6,1.5v2.9c0,0.5,0.1,0.9,0.2,1.4v0.1
		H781.5z M779.8,3628.3c0.3,0,0.6-0.1,0.9-0.3c0.3-0.2,0.5-0.4,0.6-0.7v-1.3h-0.8c-1.2,0-1.9,0.4-1.9,1.2c0,0.3,0.1,0.6,0.3,0.8
		C779.2,3628.2,779.5,3628.3,779.8,3628.3z M786.8,3623.8c-0.2,0-0.3,0-0.5,0c-0.6-0.1-1.1,0.3-1.3,0.9v4.5h-1v-6.3h1l0,0.7
		c0.3-0.5,0.8-0.9,1.4-0.8c0.2,0,0.3,0,0.4,0.1L786.8,3623.8z M787.4,3625.9c0-0.8,0.2-1.7,0.6-2.4c0.4-0.6,1-0.9,1.7-0.9
		c0.7,0,1.3,0.3,1.7,0.8l0-0.7h0.9v6.2c0,0.7-0.2,1.4-0.7,1.9c-0.5,0.5-1.2,0.7-1.8,0.7c-0.4,0-0.9-0.1-1.2-0.3
		c-0.4-0.2-0.7-0.4-0.9-0.8l0.5-0.7c0.4,0.5,1,0.9,1.6,0.9c0.4,0,0.8-0.1,1.1-0.4c0.3-0.3,0.4-0.8,0.4-1.2v-0.5
		c-0.4,0.5-1,0.8-1.7,0.7c-0.7,0-1.3-0.3-1.7-0.9C787.6,3627.6,787.4,3626.8,787.4,3625.9z M788.5,3626c0,0.6,0.1,1.2,0.4,1.7
		c0.3,0.4,0.7,0.6,1.1,0.6c0.6,0,1.2-0.3,1.4-0.9v-2.9c-0.3-0.6-0.8-0.9-1.4-0.9c-0.5,0-0.9,0.2-1.2,0.6
		C788.6,3624.8,788.4,3625.4,788.5,3626L788.5,3626z M793.7,3625.9c0-0.6,0.1-1.1,0.3-1.7c0.2-0.5,0.5-0.9,0.9-1.1
		c0.4-0.3,0.9-0.4,1.4-0.4c0.7,0,1.5,0.3,1.9,0.9c0.5,0.7,0.8,1.5,0.7,2.4v0.1c0,0.6-0.1,1.1-0.3,1.7c-0.2,0.5-0.5,0.9-0.9,1.1
		c-0.4,0.3-0.9,0.4-1.4,0.4c-0.7,0-1.5-0.3-1.9-0.9C793.9,3627.7,793.7,3626.8,793.7,3625.9L793.7,3625.9z M794.7,3626
		c0,0.6,0.1,1.2,0.5,1.7c0.5,0.7,1.5,0.9,2.2,0.3c0.1-0.1,0.2-0.2,0.3-0.3c0.3-0.5,0.5-1.2,0.5-1.8c0-0.6-0.1-1.2-0.5-1.7
		c-0.3-0.4-0.7-0.7-1.2-0.6c-0.5,0-0.9,0.2-1.2,0.6C794.8,3624.8,794.7,3625.4,794.7,3626L794.7,3626z M808.1,3626
		c0,0.8-0.2,1.6-0.6,2.3c-0.4,0.6-1,0.9-1.7,0.9c-0.6,0-1.3-0.2-1.7-0.7v3h-1v-8.7h0.9l0,0.7c0.4-0.5,1.1-0.9,1.7-0.8
		c0.7,0,1.3,0.3,1.7,0.9C807.9,3624.3,808.1,3625.1,808.1,3626L808.1,3626z M807.1,3625.9c0-0.6-0.1-1.2-0.4-1.7
		c-0.3-0.4-0.7-0.6-1.2-0.6c-0.6,0-1.1,0.3-1.4,0.9v3c0.3,0.6,0.8,0.9,1.4,0.9c0.5,0,0.9-0.2,1.2-0.6
		C807,3627.2,807.1,3626.6,807.1,3625.9z M810.5,3629.1h-1v-9h1V3629.1z M815.7,3629.1c-0.1-0.2-0.1-0.4-0.1-0.7
		c-0.4,0.5-1,0.8-1.7,0.8c-0.5,0-1-0.2-1.4-0.5c-0.4-0.3-0.6-0.8-0.6-1.3c0-0.6,0.2-1.2,0.7-1.5c0.6-0.4,1.3-0.6,2-0.5h1v-0.5
		c0-0.3-0.1-0.7-0.3-0.9c-0.3-0.2-0.6-0.4-0.9-0.3c-0.3,0-0.6,0.1-0.9,0.3c-0.2,0.2-0.4,0.4-0.4,0.7h-1c0-0.3,0.1-0.7,0.3-0.9
		c0.2-0.3,0.5-0.5,0.9-0.7c0.4-0.2,0.8-0.3,1.2-0.3c0.6,0,1.1,0.2,1.6,0.5c0.4,0.4,0.6,0.9,0.6,1.5v2.9c0,0.5,0.1,0.9,0.2,1.4v0.1
		H815.7z M814,3628.3c0.3,0,0.6-0.1,0.9-0.3c0.3-0.2,0.5-0.4,0.6-0.7v-1.3h-0.8c-1.2,0-1.9,0.4-1.9,1.2c0,0.3,0.1,0.6,0.3,0.8
		C813.5,3628.2,813.7,3628.3,814,3628.3L814,3628.3z M819.1,3628.2h3.5v0.9h-4.7v-0.8l3.3-4.6h-3.2v-0.9h4.5v0.8L819.1,3628.2z
		 M823.3,3625.9c0-0.6,0.1-1.1,0.3-1.7c0.2-0.5,0.5-0.9,0.9-1.1c0.4-0.3,0.9-0.4,1.4-0.4c0.7,0,1.5,0.3,1.9,0.9
		c0.5,0.7,0.8,1.5,0.7,2.4v0.1c0,0.6-0.1,1.1-0.3,1.7c-0.2,0.5-0.5,0.9-0.9,1.1c-0.4,0.3-0.9,0.4-1.4,0.4c-0.7,0-1.5-0.3-1.9-0.9
		C823.6,3627.7,823.3,3626.8,823.3,3625.9L823.3,3625.9z M824.3,3626c0,0.6,0.1,1.2,0.5,1.7c0.5,0.7,1.5,0.9,2.2,0.3
		c0.1-0.1,0.2-0.2,0.3-0.3c0.3-0.5,0.5-1.2,0.5-1.8c0-0.6-0.1-1.2-0.5-1.7c-0.3-0.4-0.7-0.7-1.2-0.6c-0.5,0-0.9,0.2-1.2,0.6
		C824.5,3624.8,824.3,3625.4,824.3,3626L824.3,3626z"/>
	<path id="Trazado_102719" class="st2" d="M776.4,3660.5h-1v-8.5h1V3660.5z M779.1,3654.2l0,0.8c0.4-0.6,1.1-0.9,1.8-0.9
		c1.2,0,1.9,0.8,1.9,2.3v4.2h-1v-4.2c0-0.4-0.1-0.7-0.3-1c-0.2-0.2-0.6-0.4-0.9-0.3c-0.3,0-0.6,0.1-0.9,0.3
		c-0.2,0.2-0.4,0.4-0.6,0.7v4.5h-1v-6.3H779.1z M784.1,3657.3c0-0.8,0.2-1.7,0.6-2.4c0.4-0.6,1-0.9,1.7-0.9c0.7,0,1.3,0.3,1.7,0.8
		l0-0.7h0.9v6.2c0,0.7-0.2,1.4-0.7,1.9c-0.5,0.5-1.2,0.7-1.8,0.7c-0.4,0-0.9-0.1-1.2-0.3c-0.4-0.2-0.7-0.4-0.9-0.8l0.5-0.6
		c0.4,0.5,1,0.9,1.6,0.9c0.4,0,0.8-0.1,1.1-0.4c0.3-0.3,0.4-0.8,0.4-1.2v-0.5c-0.4,0.5-1,0.8-1.7,0.7c-0.7,0-1.3-0.3-1.7-0.9
		C784.3,3659,784,3658.2,784.1,3657.3z M785.1,3657.4c0,0.6,0.1,1.2,0.4,1.7c0.3,0.4,0.7,0.6,1.1,0.6c0.6,0,1.2-0.3,1.4-0.9v-2.9
		c-0.3-0.6-0.8-0.9-1.4-0.9c-0.5,0-0.9,0.2-1.2,0.6C785.2,3656.2,785.1,3656.8,785.1,3657.4L785.1,3657.4z M793.4,3655.2
		c-0.2,0-0.3,0-0.5,0c-0.6-0.1-1.1,0.3-1.3,0.9v4.5h-1v-6.3h1l0,0.7c0.3-0.5,0.8-0.9,1.4-0.8c0.2,0,0.3,0,0.4,0.1L793.4,3655.2z
		 M796.8,3660.6c-0.7,0-1.4-0.3-2-0.8c-0.5-0.6-0.8-1.4-0.8-2.3v-0.2c0-0.6,0.1-1.2,0.3-1.7c0.2-0.5,0.5-0.9,0.9-1.2
		c0.4-0.3,0.8-0.4,1.3-0.4c0.7,0,1.3,0.3,1.8,0.8c0.5,0.7,0.7,1.5,0.6,2.3v0.4h-4c0,0.6,0.2,1.1,0.5,1.5c0.3,0.4,0.8,0.6,1.2,0.6
		c0.3,0,0.6-0.1,0.9-0.2c0.3-0.2,0.5-0.4,0.6-0.6l0.6,0.5C798.6,3660.2,797.7,3660.7,796.8,3660.6L796.8,3660.6z M796.7,3655
		c-0.4,0-0.8,0.2-1,0.5c-0.3,0.4-0.5,0.8-0.5,1.3h3v-0.1c0-0.5-0.1-0.9-0.4-1.3C797.4,3655.1,797.1,3655,796.7,3655L796.7,3655z
		 M803.7,3658.8c0-0.3-0.1-0.5-0.3-0.7c-0.3-0.2-0.7-0.4-1.1-0.4c-0.4-0.1-0.8-0.2-1.2-0.4c-0.3-0.1-0.5-0.3-0.7-0.6
		c-0.1-0.2-0.2-0.5-0.2-0.8c0-0.5,0.2-1,0.6-1.3c0.4-0.4,1-0.6,1.6-0.5c0.6,0,1.2,0.2,1.6,0.6c0.4,0.3,0.6,0.9,0.6,1.4h-1
		c0-0.3-0.1-0.6-0.3-0.8c-0.2-0.2-0.6-0.3-0.9-0.3c-0.3,0-0.6,0.1-0.9,0.3c-0.2,0.2-0.3,0.4-0.3,0.7c0,0.2,0.1,0.5,0.3,0.6
		c0.3,0.2,0.7,0.3,1,0.4c0.4,0.1,0.8,0.2,1.2,0.4c0.3,0.1,0.5,0.3,0.7,0.6c0.2,0.3,0.2,0.6,0.2,0.9c0,0.5-0.2,1-0.6,1.4
		c-0.5,0.4-1.1,0.5-1.6,0.5c-0.4,0-0.9-0.1-1.3-0.3c-0.3-0.2-0.6-0.4-0.9-0.7c-0.2-0.3-0.3-0.7-0.3-1h1c0,0.3,0.2,0.7,0.4,0.9
		c0.3,0.2,0.6,0.3,1,0.3c0.3,0,0.6-0.1,0.9-0.2C803.6,3659.4,803.7,3659.1,803.7,3658.8L803.7,3658.8z M805.8,3657.3
		c0-0.6,0.1-1.1,0.3-1.7c0.2-0.5,0.5-0.9,0.9-1.1c0.4-0.3,0.9-0.4,1.4-0.4c0.7,0,1.5,0.3,1.9,0.9c0.5,0.7,0.8,1.5,0.7,2.4v0.1
		c0,0.6-0.1,1.1-0.3,1.7c-0.2,0.5-0.5,0.9-0.9,1.1c-0.4,0.3-0.9,0.4-1.4,0.4c-0.7,0-1.5-0.3-1.9-0.9
		C806,3659.1,805.7,3658.2,805.8,3657.3L805.8,3657.3z M806.8,3657.4c0,0.6,0.1,1.2,0.5,1.7c0.5,0.7,1.5,0.9,2.2,0.3
		c0.1-0.1,0.2-0.2,0.3-0.3c0.3-0.5,0.5-1.2,0.5-1.8c0-0.6-0.1-1.2-0.5-1.7c-0.3-0.4-0.7-0.7-1.2-0.6c-0.5,0-0.9,0.2-1.2,0.6
		C806.9,3656.1,806.8,3656.8,806.8,3657.4L806.8,3657.4z M775.5,3676.2v-5.5h-0.9v-0.8h0.9v-0.5c0-0.6,0.2-1.2,0.6-1.6
		c0.4-0.4,1-0.6,1.6-0.6c0.5,0,1.1,0.1,1.5,0.4l-0.2,0.9c-0.4-0.2-0.9-0.3-1.3-0.3c-0.3,0-0.7,0.1-0.9,0.3c-0.2,0.3-0.3,0.6-0.3,0.9
		v0.5h1.2v0.8h-1.2v5.5H775.5z M779.7,3676.2h-1v-6.3h1V3676.2z M782.3,3669.9l0,0.8c0.4-0.6,1.1-0.9,1.8-0.9c1.2,0,1.9,0.8,1.9,2.3
		v4.2h-1v-4.2c0-0.4-0.1-0.7-0.3-1c-0.2-0.2-0.6-0.4-0.9-0.3c-0.3,0-0.6,0.1-0.9,0.3c-0.2,0.2-0.4,0.4-0.6,0.7v4.5h-1v-6.3H782.3z
		 M791.1,3676.2c-0.1-0.2-0.1-0.4-0.1-0.7c-0.4,0.5-1,0.8-1.7,0.8c-0.5,0-1-0.2-1.4-0.5c-0.4-0.3-0.6-0.8-0.6-1.3
		c0-0.6,0.2-1.2,0.7-1.5c0.6-0.4,1.3-0.6,2-0.5h1v-0.5c0-0.3-0.1-0.7-0.3-0.9c-0.3-0.2-0.6-0.4-0.9-0.3c-0.3,0-0.6,0.1-0.9,0.3
		c-0.2,0.2-0.4,0.4-0.4,0.7h-1c0-0.3,0.1-0.7,0.3-0.9c0.2-0.3,0.5-0.5,0.9-0.7c0.4-0.2,0.8-0.3,1.2-0.3c0.6,0,1.1,0.2,1.6,0.5
		c0.4,0.4,0.6,0.9,0.6,1.5v2.9c0,0.5,0.1,0.9,0.2,1.4v0.1H791.1z M789.4,3675.4c0.3,0,0.6-0.1,0.9-0.3c0.3-0.2,0.5-0.4,0.6-0.7v-1.3
		h-0.8c-1.2,0-1.9,0.4-1.9,1.2c0,0.3,0.1,0.6,0.3,0.8C788.9,3675.3,789.1,3675.4,789.4,3675.4z M794.5,3669.9l0,0.8
		c0.4-0.6,1.1-0.9,1.8-0.9c1.2,0,1.9,0.8,1.9,2.3v4.2h-1v-4.2c0-0.4-0.1-0.7-0.3-1c-0.2-0.2-0.6-0.4-0.9-0.3c-0.3,0-0.6,0.1-0.9,0.3
		c-0.2,0.2-0.4,0.4-0.6,0.7v4.5h-1v-6.3L794.5,3669.9z M802.1,3675.5c0.3,0,0.7-0.1,0.9-0.4c0.3-0.2,0.4-0.5,0.4-0.9h1
		c0,0.4-0.1,0.7-0.3,1c-0.2,0.3-0.5,0.6-0.9,0.8c-0.4,0.2-0.7,0.3-1.1,0.3c-0.7,0-1.4-0.3-1.9-0.9c-0.5-0.7-0.8-1.5-0.7-2.4v-0.2
		c0-0.6,0.1-1.1,0.3-1.6c0.2-0.5,0.5-0.8,0.9-1.1c0.4-0.3,0.9-0.4,1.4-0.4c0.6,0,1.2,0.2,1.6,0.6c0.4,0.4,0.7,1,0.7,1.7h-0.9
		c0-0.4-0.2-0.7-0.4-1c-0.3-0.3-0.6-0.4-1-0.4c-0.5,0-0.9,0.2-1.2,0.6c-0.3,0.5-0.5,1.1-0.4,1.7v0.2c0,0.6,0.1,1.2,0.4,1.7
		C801.2,3675.3,801.6,3675.5,802.1,3675.5z M806.7,3676.2h-1v-6.3h1V3676.2z M805.6,3668.2c0-0.2,0-0.3,0.2-0.4
		c0.1-0.1,0.3-0.2,0.4-0.2c0.2,0,0.3,0.1,0.4,0.2c0.1,0.1,0.2,0.3,0.2,0.4c0,0.2-0.1,0.3-0.2,0.4c-0.1,0.1-0.3,0.2-0.4,0.2
		c-0.2,0-0.3-0.1-0.4-0.2C805.6,3668.5,805.6,3668.4,805.6,3668.2z M810.7,3676.3c-0.7,0-1.4-0.3-2-0.8c-0.5-0.6-0.8-1.4-0.8-2.3
		v-0.2c0-0.6,0.1-1.2,0.3-1.7c0.2-0.5,0.5-0.9,0.9-1.2c0.4-0.3,0.8-0.4,1.3-0.4c0.7,0,1.3,0.3,1.8,0.8c0.5,0.7,0.7,1.5,0.6,2.3v0.4
		h-4c0,0.6,0.2,1.1,0.5,1.5c0.3,0.4,0.8,0.6,1.2,0.6c0.3,0,0.6-0.1,0.9-0.2c0.3-0.2,0.5-0.4,0.6-0.6l0.6,0.5
		C812.5,3675.9,811.6,3676.4,810.7,3676.3L810.7,3676.3z M810.6,3670.7c-0.4,0-0.8,0.2-1,0.5c-0.3,0.4-0.5,0.8-0.5,1.3h3v-0.1
		c0-0.5-0.1-0.9-0.4-1.3C811.3,3670.8,811,3670.7,810.6,3670.7L810.6,3670.7z M817,3670.9c-0.2,0-0.3,0-0.5,0
		c-0.6-0.1-1.1,0.3-1.4,0.9v4.5h-1v-6.3h1l0,0.7c0.3-0.5,0.8-0.9,1.4-0.8c0.2,0,0.3,0,0.4,0.1L817,3670.9z M817.6,3673
		c0-0.6,0.1-1.1,0.3-1.7c0.2-0.5,0.5-0.9,0.9-1.1c0.4-0.3,0.9-0.4,1.4-0.4c0.7,0,1.5,0.3,1.9,0.9c0.5,0.7,0.8,1.5,0.7,2.4v0.1
		c0,0.6-0.1,1.1-0.3,1.7c-0.2,0.5-0.5,0.9-0.9,1.1c-0.4,0.3-0.9,0.4-1.4,0.4c-0.7,0-1.5-0.3-1.9-0.9
		C817.8,3674.8,817.5,3673.9,817.6,3673L817.6,3673z M818.6,3673.1c0,0.6,0.1,1.2,0.5,1.7c0.5,0.7,1.5,0.9,2.2,0.3
		c0.1-0.1,0.2-0.2,0.3-0.3c0.3-0.5,0.5-1.2,0.5-1.8c0-0.6-0.1-1.2-0.5-1.7c-0.3-0.4-0.7-0.7-1.2-0.6c-0.5,0-0.9,0.2-1.2,0.6
		C818.7,3671.8,818.6,3672.5,818.6,3673.1L818.6,3673.1z"/>
	<path id="Trazado_102717" class="st2" d="M859.1,3618.7h-5.2v-0.8l2.7-3.3c0.3-0.4,0.6-0.8,0.8-1.2c0.2-0.3,0.2-0.6,0.2-1
		c0-0.4-0.1-0.8-0.4-1.1c-0.3-0.3-0.6-0.4-1-0.4c-0.4,0-0.9,0.1-1.2,0.5c-0.3,0.3-0.4,0.8-0.4,1.3h-1c0-0.7,0.2-1.4,0.7-1.9
		c0.5-0.5,1.2-0.8,1.9-0.7c0.6,0,1.3,0.2,1.8,0.6c0.4,0.4,0.7,1,0.6,1.7c0,0.8-0.5,1.8-1.5,3l-2.1,2.5h4V3618.7z M865.4,3618.7h-5.2
		v-0.8l2.7-3.3c0.3-0.4,0.6-0.8,0.8-1.2c0.2-0.3,0.2-0.6,0.2-1c0-0.4-0.1-0.8-0.4-1.1c-0.3-0.3-0.6-0.4-1-0.4
		c-0.4,0-0.9,0.1-1.2,0.5c-0.3,0.3-0.4,0.8-0.4,1.3h-1c0-0.7,0.2-1.4,0.7-1.9c0.5-0.5,1.2-0.8,1.9-0.7c0.6,0,1.3,0.2,1.8,0.6
		c0.4,0.4,0.7,1,0.6,1.7c0,0.8-0.5,1.8-1.5,3l-2.1,2.5h4L865.4,3618.7z M866.6,3618.1c0-0.2,0.1-0.3,0.2-0.5
		c0.1-0.1,0.3-0.2,0.5-0.2c0.2,0,0.3,0.1,0.5,0.2c0.1,0.1,0.2,0.3,0.2,0.5c0,0.2-0.1,0.3-0.2,0.4c-0.1,0.1-0.3,0.2-0.5,0.2
		c-0.3,0-0.6-0.2-0.6-0.5C866.6,3618.2,866.6,3618.1,866.6,3618.1L866.6,3618.1z M874.6,3618.7h-5.2v-0.8l2.7-3.3
		c0.3-0.4,0.6-0.8,0.8-1.2c0.2-0.3,0.2-0.6,0.2-1c0-0.4-0.1-0.8-0.4-1.1c-0.3-0.3-0.6-0.4-1-0.4c-0.4,0-0.9,0.1-1.2,0.5
		c-0.3,0.3-0.4,0.8-0.4,1.3h-1c0-0.7,0.2-1.4,0.7-1.9c0.5-0.5,1.2-0.8,1.9-0.7c0.6,0,1.3,0.2,1.8,0.6c0.4,0.4,0.7,1,0.6,1.7
		c0,0.8-0.5,1.8-1.5,3l-2.1,2.5h4V3618.7z M880.8,3610.8l-3.3,7.9h-1.1l3.3-7.6h-4.3v-0.9h5.4L880.8,3610.8z M887.1,3618.7h-5.2
		v-0.8l2.7-3.3c0.3-0.4,0.6-0.8,0.8-1.2c0.2-0.3,0.2-0.6,0.2-1c0-0.4-0.1-0.8-0.4-1.1c-0.3-0.3-0.6-0.4-1-0.4
		c-0.4,0-0.9,0.1-1.2,0.5c-0.3,0.3-0.4,0.8-0.4,1.3h-1c0-0.7,0.2-1.4,0.7-1.9c0.5-0.5,1.2-0.8,1.9-0.7c0.6,0,1.3,0.2,1.7,0.6
		c0.4,0.4,0.7,1,0.6,1.7c0,0.8-0.5,1.8-1.5,3l-2.1,2.5h4L887.1,3618.7z M888.3,3620.4l-0.6-0.4c0.3-0.5,0.5-1,0.5-1.6v-1h1v0.8
		c0,0.4-0.1,0.8-0.3,1.2C888.8,3619.8,888.6,3620.1,888.3,3620.4z M893.7,3618.7h-1v-7.2l-2,0.8v-1l2.9-1.2h0.2V3618.7z M900,3618.7
		h-1v-7.2l-2,0.8v-1l2.9-1.2h0.2L900,3618.7z"/>
	<path id="Trazado_102720" class="st2" d="M942.9,3671h-5.2v-0.8l2.7-3.3c0.3-0.4,0.6-0.8,0.8-1.2c0.2-0.3,0.2-0.6,0.2-1
		c0-0.4-0.1-0.8-0.4-1.1c-0.3-0.3-0.6-0.4-1-0.4c-0.4,0-0.9,0.1-1.2,0.5c-0.3,0.3-0.4,0.8-0.4,1.3h-1c0-0.7,0.2-1.4,0.7-1.9
		c0.5-0.5,1.2-0.8,1.9-0.7c0.6,0,1.3,0.2,1.8,0.6c0.4,0.4,0.7,1,0.6,1.7c0,0.8-0.5,1.8-1.5,3l-2.1,2.5h4V3671z M949.1,3671h-5.2
		v-0.8l2.7-3.3c0.3-0.4,0.6-0.8,0.8-1.2c0.2-0.3,0.2-0.6,0.2-1c0-0.4-0.1-0.8-0.4-1.1c-0.3-0.3-0.6-0.4-1-0.4
		c-0.4,0-0.9,0.1-1.2,0.5c-0.3,0.3-0.4,0.8-0.4,1.3h-1c0-0.7,0.2-1.4,0.7-1.9c0.5-0.5,1.2-0.8,1.9-0.7c0.6,0,1.3,0.2,1.8,0.6
		c0.4,0.4,0.7,1,0.6,1.7c0,0.8-0.5,1.8-1.5,3l-2.1,2.5h4L949.1,3671z M950.3,3670.4c0-0.2,0.1-0.3,0.2-0.5c0.1-0.1,0.3-0.2,0.5-0.2
		c0.2,0,0.3,0.1,0.5,0.2c0.1,0.1,0.2,0.3,0.2,0.5c0,0.2-0.1,0.3-0.2,0.4c-0.1,0.1-0.3,0.2-0.5,0.2c-0.3,0-0.6-0.2-0.6-0.5
		C950.3,3670.5,950.3,3670.5,950.3,3670.4L950.3,3670.4z M958.4,3671h-5.2v-0.8l2.7-3.3c0.3-0.4,0.6-0.8,0.8-1.2
		c0.2-0.3,0.2-0.6,0.2-1c0-0.4-0.1-0.8-0.4-1.1c-0.3-0.3-0.6-0.4-1-0.4c-0.4,0-0.9,0.1-1.2,0.5c-0.3,0.3-0.4,0.8-0.4,1.3h-1
		c0-0.7,0.2-1.4,0.7-1.9c0.5-0.5,1.2-0.8,1.9-0.7c0.6,0,1.3,0.2,1.8,0.6c0.4,0.4,0.7,1,0.6,1.7c0,0.8-0.5,1.8-1.5,3l-2.1,2.5h4V3671
		z M964.6,3663.1l-3.3,7.9h-1.1l3.3-7.6h-4.3v-0.9h5.4L964.6,3663.1z M970.9,3671h-5.2v-0.8l2.7-3.3c0.3-0.4,0.6-0.8,0.8-1.2
		c0.2-0.3,0.2-0.6,0.2-1c0-0.4-0.1-0.8-0.4-1.1c-0.3-0.3-0.6-0.4-1-0.4c-0.4,0-0.9,0.1-1.2,0.5c-0.3,0.3-0.4,0.8-0.4,1.3h-1
		c0-0.7,0.2-1.4,0.7-1.9c0.5-0.5,1.2-0.8,1.9-0.7c0.6,0,1.3,0.2,1.7,0.6c0.4,0.4,0.7,1,0.6,1.7c0,0.8-0.5,1.8-1.5,3l-2.1,2.5h4
		L970.9,3671z M972,3672.7l-0.6-0.4c0.3-0.5,0.5-1,0.5-1.6v-1h1v0.8c0,0.4-0.1,0.8-0.3,1.2C972.6,3672.1,972.3,3672.4,972,3672.7z
		 M977.5,3671h-1v-7.2l-2,0.8v-1l2.9-1.2h0.2V3671z M983.8,3671h-1v-7.2l-2,0.8v-1l2.9-1.2h0.2L983.8,3671z"/>
	<line id="Línea_138" class="st3" x1="752" y1="3588" x2="752" y2="3692.7"/>
	<line id="Línea_139" class="st3" x1="839.3" y1="3588" x2="839.3" y2="3692.7"/>
	<line id="Línea_140" class="st3" x1="925.1" y1="3588" x2="925.1" y2="3692.7"/>
	<path id="Trazado_99533" class="st4" d="M614.5,3542.7h400v45.4h-400V3542.7z"/>
	<path id="Trazado_102711" class="st1" d="M643,3565.8c0,0.8-0.3,1.6-0.7,2.4c-0.4,0.7-1,1.2-1.7,1.6c-0.8,0.4-1.7,0.6-2.5,0.6
		c-1.4,0.1-2.8-0.5-3.7-1.6c-1-1.3-1.4-3-1.4-4.6v-0.6c0-1.1,0.2-2.2,0.6-3.3c0.4-0.9,1-1.6,1.8-2.2c0.8-0.5,1.7-0.8,2.7-0.8
		c1.3-0.1,2.5,0.4,3.5,1.2c0.9,0.9,1.4,2.1,1.5,3.4h-2.9c0-0.6-0.2-1.2-0.5-1.7c-0.4-0.4-1-0.6-1.6-0.5c-0.6,0-1.2,0.3-1.6,0.9
		c-0.4,0.9-0.6,1.8-0.5,2.7v0.9c-0.1,1,0.1,2,0.5,2.9c0.4,0.6,1,0.9,1.6,0.9c0.5,0,1.1-0.1,1.5-0.5c0.4-0.4,0.6-1,0.6-1.6
		L643,3565.8z M647.1,3570.1h-2.8v-13.5h2.8L647.1,3570.1z M653.8,3570.1c-0.1-0.3-0.2-0.6-0.3-0.8c-0.5,0.7-1.3,1.1-2.1,1
		c-0.8,0-1.5-0.3-2.1-0.8c-0.6-0.5-0.9-1.3-0.9-2c0-0.9,0.4-1.8,1.1-2.3c0.9-0.6,2-0.9,3.1-0.8h0.9v-0.5c0-0.9-0.4-1.3-1.1-1.3
		c-0.5-0.1-0.9,0.3-1,0.8c0,0.1,0,0.2,0,0.3h-2.8c0-0.9,0.4-1.7,1.1-2.2c0.8-0.6,1.8-0.9,2.8-0.9c1-0.1,1.9,0.3,2.7,0.9
		c0.7,0.6,1,1.5,1,2.4v4.2c0,0.7,0.1,1.4,0.4,2v0.1H653.8z M652.1,3568.1c0.3,0,0.6-0.1,0.9-0.2c0.2-0.1,0.4-0.3,0.5-0.5v-1.5h-0.8
		c-1,0-1.4,0.5-1.4,1.4c0,0.2,0.1,0.5,0.3,0.7C651.6,3568.1,651.9,3568.2,652.1,3568.1z M662.4,3567.4c0-0.3-0.1-0.5-0.4-0.6
		c-0.4-0.2-0.9-0.4-1.4-0.5c-0.6-0.1-1.2-0.3-1.7-0.6c-0.4-0.2-0.8-0.6-1-1c-0.2-0.4-0.4-0.8-0.3-1.3c0-0.8,0.4-1.7,1-2.2
		c0.8-0.6,1.7-0.9,2.6-0.8c1-0.1,2,0.2,2.8,0.8c0.7,0.5,1.1,1.3,1.1,2.2h-2.8c0-0.8-0.4-1.1-1.1-1.1c-0.3,0-0.5,0.1-0.7,0.3
		c-0.2,0.2-0.3,0.4-0.3,0.6c0,0.3,0.1,0.5,0.4,0.6c0.4,0.2,0.7,0.3,1.1,0.4c0.5,0.1,0.9,0.2,1.4,0.4c1.3,0.5,2,1.4,2,2.6
		c0,0.9-0.4,1.7-1.1,2.1c-0.8,0.6-1.8,0.9-2.8,0.8c-0.7,0-1.4-0.1-2-0.4c-0.6-0.3-1-0.7-1.4-1.2c-0.3-0.5-0.5-1-0.5-1.6h2.6
		c0,0.4,0.1,0.7,0.4,1c0.3,0.2,0.6,0.3,1,0.3c0.3,0,0.6-0.1,0.8-0.2C662.3,3567.9,662.4,3567.7,662.4,3567.4z M669.2,3570.1h-2.8
		v-9.5h2.8V3570.1z M666.3,3558.2c0-0.4,0.1-0.8,0.4-1c0.3-0.3,0.7-0.4,1.1-0.4c0.4,0,0.8,0.1,1.1,0.4c0.3,0.3,0.4,0.6,0.4,1
		c0,0.4-0.1,0.8-0.4,1c-0.3,0.3-0.7,0.4-1.1,0.4c-0.4,0-0.8-0.1-1.1-0.4C666.4,3558.9,666.3,3558.5,666.3,3558.2L666.3,3558.2z
		 M671.6,3570.1v-7.4h-1.3v-2.1h1.3v-0.3c0-1.1,0.4-2.2,1.2-2.9c0.9-0.7,1.9-1,3-0.9c1,0,1.9,0.2,2.9,0.5l-0.4,2.3l-0.5-0.1
		c-0.6-0.2-1.2-0.3-1.9-0.3c-1.1,0-1.6,0.5-1.6,1.5v0.2h1.7v2h-1.7v7.4H671.6z M679.9,3570.1h-2.8v-9.5h2.8L679.9,3570.1z
		 M685.3,3568c0.3,0,0.7-0.1,0.9-0.3c0.2-0.3,0.3-0.6,0.3-0.9h2.6c0,1-0.4,1.9-1,2.6c-0.7,0.7-1.7,1-2.7,1c-1.1,0.1-2.3-0.4-3-1.3
		c-0.8-1-1.2-2.3-1.1-3.6v-0.1c0-0.9,0.2-1.7,0.5-2.5c0.3-0.7,0.8-1.3,1.4-1.7c0.7-0.4,1.4-0.6,2.2-0.6c1-0.1,2,0.3,2.7,1
		c0.7,0.7,1.1,1.7,1,2.8h-2.6c0-0.4-0.1-0.8-0.3-1.1c-0.2-0.3-0.6-0.4-0.9-0.4c-0.7,0-1.1,0.5-1.3,1.5c0,0.4-0.1,0.9-0.1,1.3
		c-0.1,0.7,0.1,1.4,0.3,2C684.5,3567.8,684.9,3568,685.3,3568L685.3,3568z M695.3,3570.1c-0.1-0.3-0.2-0.6-0.3-0.8
		c-0.5,0.7-1.3,1.1-2.1,1c-0.8,0-1.5-0.3-2.1-0.8c-0.6-0.5-0.9-1.3-0.9-2c0-0.9,0.4-1.8,1.1-2.3c0.9-0.6,2-0.9,3.1-0.8h0.9v-0.5
		c0-0.9-0.4-1.3-1.1-1.3c-0.5-0.1-0.9,0.3-1,0.8c0,0.1,0,0.2,0,0.3h-2.8c0-0.9,0.4-1.7,1.1-2.2c0.8-0.6,1.8-0.9,2.8-0.9
		c1-0.1,1.9,0.3,2.7,0.9c0.7,0.6,1,1.5,1,2.4v4.2c0,0.7,0.1,1.4,0.4,2v0.1H695.3z M693.5,3568.1c0.3,0,0.6-0.1,0.9-0.2
		c0.2-0.1,0.4-0.3,0.5-0.5v-1.5h-0.8c-1,0-1.4,0.5-1.4,1.4c0,0.2,0.1,0.5,0.3,0.7C693.1,3568.1,693.3,3568.2,693.5,3568.1z
		 M702.9,3568c0.3,0,0.7-0.1,0.9-0.3c0.2-0.3,0.3-0.6,0.3-0.9h2.6c0,1-0.4,1.9-1,2.6c-0.7,0.7-1.7,1-2.7,1c-1.1,0.1-2.3-0.4-3-1.3
		c-0.8-1-1.2-2.3-1.1-3.6v-0.1c0-0.9,0.2-1.7,0.5-2.5c0.3-0.7,0.8-1.3,1.4-1.7c0.7-0.4,1.4-0.6,2.2-0.6c1-0.1,2,0.3,2.7,1
		c0.7,0.7,1.1,1.7,1,2.8h-2.6c0-0.4-0.1-0.8-0.3-1.1c-0.2-0.3-0.6-0.4-0.9-0.4c-0.7,0-1.1,0.5-1.3,1.5c0,0.4-0.1,0.9-0.1,1.3
		c0,0.7,0.1,1.4,0.3,2C702.1,3567.8,702.5,3568,702.9,3568L702.9,3568z M710.8,3570.1H708v-9.5h2.8V3570.1z M707.9,3558.2
		c0-0.4,0.1-0.8,0.4-1c0.3-0.3,0.7-0.4,1.1-0.4c0.4,0,0.8,0.1,1.1,0.4c0.3,0.3,0.4,0.6,0.4,1c0,0.4-0.1,0.8-0.4,1
		c-0.3,0.3-0.7,0.4-1.1,0.4c-0.4,0-0.8-0.1-1.1-0.4C708,3558.9,707.8,3558.5,707.9,3558.2L707.9,3558.2z M712.1,3565.2
		c0-0.9,0.2-1.7,0.5-2.5c0.3-0.7,0.8-1.3,1.5-1.7c0.7-0.4,1.5-0.6,2.3-0.6c1.2-0.1,2.3,0.4,3.1,1.3c0.8,1,1.2,2.3,1.1,3.6v0.1
		c0.1,1.3-0.3,2.6-1.1,3.5c-0.8,0.9-2,1.4-3.1,1.3c-1.1,0.1-2.2-0.4-3-1.2c-0.8-0.9-1.2-2.1-1.2-3.3L712.1,3565.2z M714.9,3565.4
		c0,0.7,0.1,1.3,0.4,1.9c0.3,0.4,0.7,0.6,1.1,0.6c1,0,1.5-0.8,1.5-2.4v-0.3c0-1.7-0.5-2.5-1.5-2.5c-0.9,0-1.4,0.7-1.5,2.2
		L714.9,3565.4z M716.8,3556.6h2.9l-2.3,2.8l-2.2,0L716.8,3556.6z M724.4,3560.6l0.1,1.1c0.6-0.8,1.5-1.3,2.5-1.3
		c0.8-0.1,1.5,0.3,2.1,0.9c0.5,0.8,0.8,1.7,0.7,2.7v6.1H727v-6c0-0.4-0.1-0.7-0.3-1.1c-0.3-0.3-0.6-0.4-1-0.3c-0.5,0-1,0.2-1.2,0.7
		v6.7h-2.8v-9.5H724.4z"/>
	<path id="Trazado_102712" class="st1" d="M771.2,3567.3c0,0.8-0.3,1.6-0.7,2.4c-0.4,0.7-1,1.2-1.7,1.6c-0.8,0.4-1.7,0.6-2.5,0.6
		c-1.4,0.1-2.8-0.5-3.7-1.6c-1-1.3-1.4-3-1.3-4.6v-0.6c0-1.1,0.2-2.2,0.6-3.3c0.4-0.9,1-1.6,1.8-2.2c0.8-0.5,1.7-0.8,2.7-0.8
		c1.3-0.1,2.5,0.4,3.5,1.2c0.9,0.9,1.4,2.1,1.5,3.4h-2.9c0-0.6-0.2-1.2-0.5-1.7c-0.4-0.4-1-0.6-1.6-0.5c-0.6,0-1.2,0.3-1.6,0.9
		c-0.4,0.9-0.6,1.8-0.5,2.7v0.9c-0.1,1,0.1,2,0.5,2.9c0.4,0.6,1,0.9,1.6,0.9c0.5,0,1.1-0.1,1.5-0.5c0.4-0.4,0.6-1,0.6-1.6
		L771.2,3567.3z M777.7,3570.5c-0.6,0.8-1.4,1.2-2.4,1.2c-0.8,0.1-1.6-0.3-2.2-0.9c-0.5-0.7-0.8-1.7-0.7-2.6v-6.1h2.8v6.2
		c-0.1,0.6,0.3,1.1,0.8,1.2c0.1,0,0.2,0,0.3,0c0.5,0,1.1-0.2,1.4-0.7v-6.6h2.8v9.5h-2.6L777.7,3570.5z M786.2,3571.7
		c-1.2,0.1-2.4-0.4-3.3-1.3c-0.8-0.9-1.3-2.1-1.3-3.4v-0.2c0-0.9,0.2-1.8,0.5-2.6c0.3-0.7,0.8-1.3,1.5-1.7c0.7-0.4,1.5-0.6,2.3-0.6
		c1.1-0.1,2.2,0.4,2.9,1.2c0.8,1,1.2,2.2,1.1,3.5v1.1h-5.5c0.1,0.5,0.3,0.9,0.6,1.3c0.4,0.3,0.8,0.5,1.3,0.5c0.8,0,1.5-0.3,2-1
		l1.3,1.6c-0.4,0.5-0.9,1-1.5,1.2C787.6,3571.6,786.9,3571.8,786.2,3571.7z M785.9,3564.2c-0.8,0-1.3,0.6-1.4,1.7h2.8v-0.2
		c0-0.4-0.1-0.8-0.3-1.1C786.6,3564.3,786.3,3564.2,785.9,3564.2z M793.6,3562.1l0.1,1.1c0.6-0.8,1.5-1.3,2.5-1.3
		c0.8-0.1,1.5,0.3,2.1,0.9c0.5,0.8,0.8,1.7,0.7,2.7v6.1h-2.8v-6c0-0.4-0.1-0.7-0.3-1.1c-0.3-0.3-0.6-0.4-1-0.3c-0.5,0-1,0.2-1.2,0.7
		v6.7H791v-9.5L793.6,3562.1z M803.7,3559.7v2.4h1.5v2h-1.5v4.3c0,0.3,0,0.5,0.2,0.7c0.2,0.2,0.5,0.2,0.7,0.2c0.2,0,0.5,0,0.7-0.1
		v2.1c-0.5,0.2-1,0.3-1.6,0.3c-0.8,0.1-1.5-0.2-2.1-0.7c-0.5-0.6-0.7-1.4-0.7-2.2v-4.7h-1.1v-2.1h1.1v-2.4L803.7,3559.7z
		 M811.2,3571.6c-0.1-0.3-0.2-0.6-0.3-0.8c-0.5,0.7-1.3,1.1-2.1,1c-0.8,0-1.5-0.3-2.1-0.8c-0.6-0.5-0.9-1.3-0.9-2
		c0-0.9,0.4-1.8,1.1-2.3c0.9-0.6,2-0.9,3.1-0.8h0.9v-0.5c0-0.9-0.4-1.3-1.1-1.3c-0.5-0.1-0.9,0.3-1,0.8c0,0.1,0,0.2,0,0.3H806
		c0-0.9,0.4-1.7,1.1-2.2c0.8-0.6,1.8-0.9,2.8-0.9c1-0.1,1.9,0.3,2.7,0.9c0.7,0.6,1,1.5,1,2.4v4.2c0,0.7,0.1,1.4,0.4,2v0.1H811.2z
		 M809.5,3569.6c0.3,0,0.6-0.1,0.9-0.2c0.2-0.1,0.4-0.3,0.5-0.5v-1.5H810c-1,0-1.4,0.5-1.4,1.4c0,0.2,0.1,0.5,0.3,0.7
		C809,3569.6,809.3,3569.7,809.5,3569.6z M819.8,3568.9c0-0.3-0.1-0.5-0.4-0.6c-0.4-0.2-0.9-0.4-1.4-0.5c-0.6-0.1-1.2-0.3-1.7-0.6
		c-0.4-0.2-0.8-0.6-1-1c-0.2-0.4-0.4-0.8-0.3-1.3c0-0.8,0.4-1.7,1-2.2c0.8-0.6,1.7-0.9,2.6-0.8c1-0.1,2,0.2,2.8,0.8
		c0.7,0.5,1.1,1.3,1.1,2.2h-2.8c0-0.8-0.4-1.1-1.1-1.1c-0.3,0-0.5,0.1-0.7,0.3c-0.2,0.2-0.3,0.4-0.3,0.6c0,0.3,0.1,0.5,0.4,0.6
		c0.4,0.2,0.7,0.3,1.1,0.4c0.5,0.1,0.9,0.2,1.4,0.4c1.3,0.5,2,1.4,2,2.6c0,0.9-0.4,1.7-1.1,2.1c-0.8,0.6-1.8,0.9-2.8,0.8
		c-0.7,0-1.4-0.1-2-0.4c-0.6-0.3-1-0.7-1.4-1.2c-0.3-0.5-0.5-1-0.5-1.6h2.6c0,0.4,0.1,0.7,0.4,1c0.3,0.2,0.6,0.3,1,0.3
		c0.3,0,0.6-0.1,0.8-0.2C819.7,3569.4,819.8,3569.2,819.8,3568.9z"/>
	<path id="Trazado_102713" class="st1" d="M862.1,3571.6v-12.8h3.8c1,0,2,0.2,2.8,0.8c0.8,0.5,1.5,1.3,2,2.2c0.5,1,0.7,2,0.7,3.1
		v0.6c0,1.1-0.2,2.2-0.7,3.1c-0.4,0.9-1.1,1.7-1.9,2.2c-0.9,0.5-1.8,0.8-2.8,0.8H862.1z M865,3561.2v8h1c0.7,0,1.5-0.3,1.9-0.9
		c0.5-0.8,0.7-1.8,0.7-2.8v-0.6c0.1-1-0.2-2-0.7-2.8c-0.5-0.6-1.2-1-1.9-0.9H865z M877.1,3571.7c-1.2,0.1-2.4-0.4-3.3-1.3
		c-0.8-0.9-1.3-2.1-1.3-3.4v-0.2c0-0.9,0.2-1.8,0.5-2.6c0.3-0.7,0.8-1.3,1.5-1.7c0.7-0.4,1.5-0.6,2.3-0.6c1.1-0.1,2.2,0.4,2.9,1.2
		c0.8,1,1.2,2.2,1.1,3.5v1.1h-5.5c0.1,0.5,0.3,0.9,0.6,1.3c0.4,0.3,0.8,0.5,1.3,0.5c0.8,0,1.5-0.3,2-1l1.3,1.6
		c-0.4,0.5-0.9,1-1.5,1.2C878.5,3571.6,877.8,3571.8,877.1,3571.7z M876.8,3564.2c-0.8,0-1.3,0.6-1.4,1.7h2.8v-0.2
		c0-0.4-0.1-0.8-0.3-1.1C877.5,3564.3,877.2,3564.2,876.8,3564.2L876.8,3564.2z M890.2,3566.9c0.1,1.3-0.2,2.5-0.9,3.6
		c-0.6,0.8-1.6,1.3-2.5,1.3c-0.9,0-1.7-0.4-2.2-1.1l-0.1,1H882v-13.5h2.8v4.7c0.5-0.6,1.2-1,2-0.9c1-0.1,1.9,0.4,2.6,1.3
		c0.7,1.1,1,2.3,0.9,3.6V3566.9z M887.4,3566.7c0-0.7-0.1-1.3-0.3-1.9c-0.2-0.4-0.6-0.6-1-0.6c-0.5-0.1-1,0.2-1.3,0.8v3.8
		c0.3,0.5,0.8,0.8,1.3,0.8c0.6,0,1.1-0.4,1.2-1C887.4,3567.9,887.4,3567.3,887.4,3566.7z M895.7,3571.7c-1.2,0.1-2.4-0.4-3.3-1.3
		c-0.8-0.9-1.3-2.1-1.3-3.4v-0.2c0-0.9,0.2-1.8,0.5-2.6c0.3-0.7,0.8-1.3,1.5-1.7c0.7-0.4,1.5-0.6,2.3-0.6c1.1-0.1,2.2,0.4,2.9,1.2
		c0.8,1,1.2,2.2,1.1,3.5v1.1h-5.5c0.1,0.5,0.3,0.9,0.6,1.3c0.4,0.3,0.8,0.5,1.3,0.5c0.8,0,1.5-0.3,2-1l1.3,1.6
		c-0.4,0.5-0.9,1-1.5,1.2C897,3571.6,896.4,3571.8,895.7,3571.7z M895.3,3564.2c-0.8,0-1.3,0.6-1.4,1.7h2.8v-0.2
		c0-0.4-0.1-0.8-0.3-1.1C896.1,3564.3,895.7,3564.2,895.3,3564.2L895.3,3564.2z"/>
	<path id="Trazado_102714" class="st1" d="M952.3,3571.6h-2.9v-5.3h-4.2v5.3h-2.9v-12.8h2.9v5.1h4.2v-5.1h2.9V3571.6z M959,3571.6
		c-0.1-0.3-0.2-0.6-0.3-0.8c-0.5,0.7-1.3,1.1-2.1,1c-0.8,0-1.5-0.3-2.1-0.8c-0.6-0.5-0.9-1.3-0.9-2c0-0.9,0.4-1.8,1.1-2.3
		c0.9-0.6,2-0.9,3.1-0.8h0.9v-0.5c0-0.9-0.4-1.3-1.1-1.3c-0.5-0.1-0.9,0.3-1,0.8c0,0.1,0,0.2,0,0.3h-2.8c0-0.9,0.4-1.7,1.1-2.2
		c0.8-0.6,1.8-0.9,2.8-0.9c1-0.1,1.9,0.3,2.7,0.9c0.7,0.6,1,1.5,1,2.4v4.2c0,0.7,0.1,1.4,0.4,2v0.1H959z M957.3,3569.6
		c0.3,0,0.6-0.1,0.9-0.2c0.2-0.1,0.4-0.3,0.5-0.5v-1.5h-0.8c-1,0-1.4,0.5-1.4,1.4c0,0.2,0.1,0.5,0.3,0.7
		C956.8,3569.6,957,3569.7,957.3,3569.6z M971.1,3566.9c0.1,1.3-0.2,2.5-0.9,3.6c-0.6,0.8-1.6,1.3-2.5,1.3c-0.9,0-1.7-0.4-2.2-1.1
		l-0.1,1h-2.5v-13.5h2.8v4.7c0.5-0.6,1.2-1,2-0.9c1-0.1,1.9,0.4,2.6,1.3c0.7,1.1,1,2.3,0.9,3.6V3566.9z M968.3,3566.7
		c0-0.7-0.1-1.3-0.3-1.9c-0.2-0.4-0.6-0.6-1-0.6c-0.5-0.1-1,0.2-1.3,0.8v3.8c0.3,0.5,0.8,0.8,1.3,0.8c0.6,0,1.1-0.4,1.2-1
		C968.3,3567.9,968.4,3567.3,968.3,3566.7z M976.6,3571.7c-1.2,0.1-2.4-0.4-3.3-1.3c-0.8-0.9-1.3-2.1-1.3-3.4v-0.2
		c0-0.9,0.2-1.8,0.5-2.6c0.3-0.7,0.8-1.3,1.5-1.7c0.7-0.4,1.5-0.6,2.3-0.6c1.1-0.1,2.2,0.4,2.9,1.2c0.8,1,1.2,2.2,1.1,3.5v1.1h-5.5
		c0.1,0.5,0.3,0.9,0.6,1.3c0.4,0.3,0.8,0.5,1.3,0.5c0.8,0,1.5-0.3,2-1l1.3,1.6c-0.4,0.5-0.9,1-1.5,1.2
		C978,3571.6,977.3,3571.8,976.6,3571.7z M976.3,3564.2c-0.8,0-1.3,0.6-1.4,1.7h2.8v-0.2c0-0.4-0.1-0.8-0.3-1.1
		C977,3564.3,976.7,3564.2,976.3,3564.2L976.3,3564.2z M986.8,3564.8l-0.9-0.1c-0.7-0.1-1.3,0.2-1.7,0.9v6h-2.8v-9.5h2.6l0.1,1.2
		c0.3-0.8,1.1-1.4,1.9-1.4c0.3,0,0.5,0,0.8,0.1L986.8,3564.8z"/>
</g>
</svg>
