<?xml version="1.0" encoding="utf-8"?>
<!-- Generator: Adobe Illustrator 25.2.3, SVG Export Plug-In . SVG Version: 6.00 Build 0)  -->
<svg version="1.1" id="Capa_1" xmlns="http://www.w3.org/2000/svg" xmlns:xlink="http://www.w3.org/1999/xlink" x="0px" y="0px"
	 viewBox="0 0 573 298.6" style="enable-background:new 0 0 573 298.6;" xml:space="preserve">
<style type="text/css">
	.st0{fill:#F6F6F6;}
	.st1{fill:#FFFFFF;}
	.st2{fill:#12263F;}
	.st3{font-family:'Roboto-Bold';}
	.st4{font-size:12.0766px;}
	.st5{font-family:'Roboto-Regular';}
	.st6{font-size:10.7348px;}
	.st7{fill:none;stroke:#AFAFAF;stroke-linecap:round;}
	.st8{fill:#D9A171;}
	.st9{font-size:16.1022px;}
</style>
<g id="Grupo_54960" transform="translate(-477 -2327.183)">
	<rect id="Rectángulo_6896" x="548.5" y="2416.9" class="st0" width="430" height="69.6"/>
	<rect id="Rectángulo_6895" x="548.5" y="2494.4" class="st1" width="430" height="81.8"/>
	<text transform="matrix(1.1185 0 0 1 565.0098 2520.9331)" class="st2 st3 st4">Ingresos de valores </text>
	<text transform="matrix(1.1185 0 0 1 565.0098 2539.0483)" class="st2 st3 st4">representativos de </text>
	<text transform="matrix(1.1185 0 0 1 565.0098 2557.1636)" class="st2 st3 st4">deuda</text>
	<text transform="matrix(1.1185 0 0 1 565.0098 2444.4487)" class="st2 st3 st4">Valores </text>
	<text transform="matrix(1.1185 0 0 1 565.0098 2462.563)" class="st2 st3 st4">representativos de </text>
	<text transform="matrix(1.1185 0 0 1 565.0098 2480.6782)" class="st2 st3 st4">deudas corto plazo</text>
	<text transform="matrix(1.1185 0 0 1 730.0796 2458.1919)" class="st2 st5 st6">27.976,45</text>
	<text transform="matrix(1.1185 0 0 1 871.9385 2542.2095)" class="st2 st5 st6">27.976,45</text>
	<line id="Línea_275" class="st7" x1="696.3" y1="2417" x2="696.3" y2="2576.2"/>
	<line id="Línea_274" class="st7" x1="832.9" y1="2417" x2="832.9" y2="2576.2"/>
	<path id="Trazado_102709" class="st8" d="M548.5,2376.2h429.9v40.7H548.5V2376.2z"/>
	<text transform="matrix(1.1185 0 0 1 586.0029 2400.8384)" class="st1 st3 st9">CUENTA</text>
	<text transform="matrix(1.1185 0 0 1 724.8291 2402.2876)" class="st1 st3 st9">DÉBITOS</text>
	<text transform="matrix(1.1185 0 0 1 860.6865 2400.8384)" class="st1 st3 st9">CRÉDITOS</text>
</g>
</svg>
