<?xml version="1.0" encoding="utf-8"?>
<!-- Generator: Adobe Illustrator 25.2.3, SVG Export Plug-In . SVG Version: 6.00 Build 0)  -->
<svg version="1.1" id="Capa_1" xmlns="http://www.w3.org/2000/svg" xmlns:xlink="http://www.w3.org/1999/xlink" x="0px" y="0px"
	 viewBox="0 0 573 298.6" style="enable-background:new 0 0 573 298.6;" xml:space="preserve">
<style type="text/css">
	.st0{fill:#F6F6F6;}
	.st1{fill:#FFFFFF;}
	.st2{fill:#12263F;}
	.st3{fill:none;stroke:#AFAFAF;stroke-linecap:round;}
	.st4{fill:#D9A171;}
</style>
<g id="Grupo_54960" transform="translate(-477 -2327.183)">
	<rect id="Rectángulo_6896" x="563.5" y="2402.1" class="st0" width="400" height="87"/>
	<rect id="Rectángulo_6895" x="563.5" y="2499" class="st1" width="400" height="102.3"/>
	<path id="Trazado_102792" class="st2" d="M581.8,2532.1h-2.1v-10.7h2.1V2532.1z M585.1,2524.1l0.1,0.9c0.4-0.7,1.2-1.1,1.9-1.1
		c0.6-0.1,1.2,0.2,1.5,0.7c0.4,0.7,0.6,1.4,0.5,2.2v5.1h-2.1v-5c0-0.3,0-0.6-0.2-0.9c-0.2-0.2-0.5-0.3-0.7-0.3
		c-0.4,0-0.7,0.2-0.9,0.6v5.6h-2.1v-8H585.1z M590.1,2528.1c0-0.7,0.1-1.5,0.3-2.1c0.2-0.6,0.5-1.1,0.9-1.4c0.4-0.3,0.9-0.5,1.4-0.5
		c0.6,0,1.2,0.3,1.6,0.8l0.1-0.7h1.9v7.7c0,0.6-0.1,1.3-0.4,1.8c-0.3,0.5-0.7,0.9-1.2,1.2c-0.6,0.3-1.2,0.4-1.8,0.4
		c-0.5,0-1-0.1-1.4-0.3c-0.4-0.2-0.8-0.5-1-0.9l0.9-1.5c0.4,0.5,0.9,0.8,1.5,0.8c0.7,0.1,1.3-0.5,1.4-1.3c0-0.1,0-0.3,0-0.4v-0.3
		c-0.4,0.5-0.9,0.8-1.5,0.8c-0.8,0-1.5-0.4-2-1.1C590.3,2530.3,590,2529.2,590.1,2528.1L590.1,2528.1z M592.1,2528.2
		c0,0.5,0.1,1.1,0.3,1.6c0.2,0.4,0.5,0.6,0.9,0.6c0.4,0,0.8-0.2,1-0.5v-3.4c-0.2-0.4-0.6-0.6-1-0.5c-0.4,0-0.7,0.2-0.9,0.6
		C592.2,2527,592.1,2527.6,592.1,2528.2L592.1,2528.2z M601.6,2526.4l-0.7-0.1c-0.5-0.1-1,0.2-1.3,0.7v5h-2.1v-8h1.9l0.1,1
		c0.2-0.7,0.8-1.2,1.5-1.2c0.2,0,0.4,0,0.6,0.1L601.6,2526.4z M605.5,2532.3c-0.9,0-1.8-0.3-2.5-1.1c-0.6-0.7-1-1.8-0.9-2.9v-0.2
		c0-0.7,0.1-1.5,0.4-2.2c0.2-0.6,0.6-1.1,1.1-1.4c0.5-0.4,1.1-0.5,1.7-0.5c0.8-0.1,1.6,0.3,2.2,1c0.6,0.8,0.9,1.8,0.8,2.9v1h-4.1
		c0.1,0.4,0.2,0.8,0.5,1.1c0.3,0.3,0.6,0.4,1,0.4c0.6,0,1.2-0.3,1.5-0.8l0.9,1.3c-0.3,0.5-0.7,0.8-1.1,1
		C606.6,2532.1,606,2532.3,605.5,2532.3L605.5,2532.3z M605.3,2525.9c-0.6,0-1,0.5-1.1,1.4h2.1v-0.2c0-0.3-0.1-0.7-0.3-0.9
		C605.8,2526,605.6,2525.9,605.3,2525.9z M612.6,2529.9c0-0.2-0.1-0.4-0.3-0.5c-0.3-0.2-0.7-0.3-1-0.4c-0.4-0.1-0.9-0.3-1.3-0.5
		c-0.3-0.2-0.6-0.5-0.8-0.8c-0.2-0.3-0.3-0.7-0.3-1.1c0-0.7,0.3-1.4,0.8-1.8c0.6-0.5,1.3-0.8,2-0.7c0.7,0,1.5,0.2,2.1,0.7
		c0.5,0.4,0.8,1.1,0.8,1.9h-2.1c0-0.6-0.3-1-0.8-1c-0.2,0-0.4,0.1-0.5,0.2c-0.1,0.1-0.2,0.3-0.2,0.5c0,0.2,0.1,0.4,0.3,0.5
		c0.3,0.2,0.6,0.3,0.9,0.3c0.4,0.1,0.7,0.2,1,0.3c0.9,0.2,1.5,1.1,1.5,2.2c0,0.7-0.3,1.4-0.8,1.8c-0.6,0.5-1.4,0.7-2.1,0.7
		c-0.5,0-1-0.1-1.5-0.4c-0.4-0.2-0.8-0.6-1-1c-0.2-0.4-0.4-0.9-0.4-1.3h1.9c0,0.3,0.1,0.6,0.3,0.8c0.2,0.2,0.5,0.3,0.8,0.3
		c0.2,0,0.4-0.1,0.6-0.2C612.5,2530.3,612.6,2530.1,612.6,2529.9L612.6,2529.9z M615.3,2528c0-0.7,0.1-1.5,0.4-2.1
		c0.2-0.6,0.6-1.1,1.1-1.4c0.5-0.3,1.1-0.5,1.7-0.5c0.9-0.1,1.7,0.3,2.3,1.1c0.6,0.8,0.9,1.9,0.9,3v0.1c0,1.1-0.3,2.1-0.9,3
		c-0.6,0.7-1.5,1.1-2.3,1.1c-0.8,0-1.7-0.3-2.3-1c-0.6-0.7-0.9-1.7-0.9-2.8L615.3,2528z M617.4,2528.2c0,0.6,0.1,1.1,0.3,1.6
		c0.2,0.3,0.5,0.5,0.9,0.5c0.7,0,1.1-0.7,1.1-2v-0.3c0-1.4-0.4-2.1-1.1-2.1c-0.7,0-1.1,0.6-1.1,1.9L617.4,2528.2z M626.1,2529.9
		c0-0.2-0.1-0.4-0.3-0.5c-0.3-0.2-0.7-0.3-1-0.4c-0.4-0.1-0.9-0.3-1.3-0.5c-0.3-0.2-0.6-0.5-0.8-0.8c-0.2-0.3-0.3-0.7-0.3-1.1
		c0-0.7,0.3-1.4,0.8-1.8c0.6-0.5,1.3-0.8,2-0.7c0.7,0,1.5,0.2,2.1,0.7c0.5,0.4,0.8,1.1,0.8,1.9H626c0-0.6-0.3-1-0.8-1
		c-0.2,0-0.4,0.1-0.5,0.2c-0.1,0.1-0.2,0.3-0.2,0.5c0,0.2,0.1,0.4,0.3,0.5c0.3,0.2,0.6,0.3,0.9,0.3c0.4,0.1,0.7,0.2,1,0.3
		c0.9,0.2,1.5,1.2,1.5,2.2c0,0.7-0.3,1.4-0.8,1.8c-0.6,0.5-1.4,0.7-2.1,0.7c-0.5,0-1-0.1-1.5-0.4c-0.4-0.2-0.8-0.6-1-1
		c-0.2-0.4-0.4-0.9-0.4-1.3h1.9c0,0.3,0.1,0.6,0.3,0.8c0.2,0.2,0.5,0.3,0.8,0.3c0.2,0,0.4-0.1,0.6-0.2
		C626,2530.3,626.1,2530.1,626.1,2529.9L626.1,2529.9z M631.9,2528.1c0-1.1,0.2-2.1,0.7-3c0.4-0.7,1.2-1.1,1.9-1.1
		c0.6,0,1.1,0.3,1.5,0.8v-4h2.1v11.3h-1.9l-0.1-0.9c-0.4,0.6-1,1-1.6,1c-0.7,0-1.4-0.4-1.9-1.1
		C632.1,2530.3,631.9,2529.2,631.9,2528.1L631.9,2528.1z M634,2528.2c0,1.4,0.3,2.1,1,2.1c0.4,0,0.8-0.2,1-0.7v-3
		c-0.2-0.5-0.6-0.7-1-0.7c-0.6,0-1,0.6-1,1.9L634,2528.2z M642.5,2532.3c-0.9,0-1.8-0.3-2.5-1.1c-0.6-0.7-1-1.8-0.9-2.9v-0.2
		c0-0.7,0.1-1.5,0.4-2.2c0.2-0.6,0.6-1.1,1.1-1.4c0.5-0.4,1.1-0.5,1.7-0.5c0.8-0.1,1.6,0.3,2.2,1c0.6,0.8,0.9,1.8,0.8,2.9v1h-4.1
		c0.1,0.4,0.2,0.8,0.5,1.1c0.3,0.3,0.6,0.4,1,0.4c0.6,0,1.2-0.3,1.5-0.8l0.9,1.3c-0.3,0.5-0.7,0.8-1.1,1
		C643.5,2532.1,643,2532.3,642.5,2532.3L642.5,2532.3z M642.2,2525.9c-0.6,0-1,0.5-1.1,1.4h2.1v-0.2c0-0.3-0.1-0.7-0.3-0.9
		C642.8,2526,642.5,2525.9,642.2,2525.9z M651.9,2529.2l1-5h2.2l-2.2,8h-2.1l-2.2-8h2.2L651.9,2529.2z M659.4,2532.1
		c-0.1-0.2-0.2-0.5-0.2-0.7c-0.4,0.6-1,0.9-1.6,0.9c-0.6,0-1.2-0.2-1.6-0.7c-0.4-0.4-0.7-1.1-0.7-1.7c0-0.8,0.3-1.5,0.8-2
		c0.7-0.5,1.5-0.7,2.3-0.7h0.6v-0.4c0-0.7-0.3-1.1-0.8-1.1c-0.4-0.1-0.7,0.2-0.7,0.7c0,0.1,0,0.1,0,0.2h-2.1c0-0.8,0.3-1.5,0.8-1.9
		c0.6-0.5,1.3-0.8,2.1-0.7c0.7,0,1.4,0.2,2,0.7c0.5,0.5,0.8,1.3,0.8,2v3.5c0,0.6,0.1,1.2,0.3,1.7v0.1H659.4z M658.1,2530.5
		c0.2,0,0.4-0.1,0.6-0.2c0.2-0.1,0.3-0.3,0.4-0.4v-1.3h-0.6c-0.7,0-1.1,0.4-1.1,1.2c0,0.2,0.1,0.4,0.2,0.5
		C657.7,2530.4,657.9,2530.5,658.1,2530.5L658.1,2530.5z M664.5,2532.1h-2.1v-11.3h2.1L664.5,2532.1z M665.5,2528
		c0-0.7,0.1-1.5,0.4-2.1c0.2-0.6,0.6-1.1,1.1-1.4c0.5-0.3,1.1-0.5,1.7-0.5c0.9-0.1,1.7,0.3,2.3,1.1c0.6,0.8,0.9,1.9,0.9,3v0.1
		c0,1.1-0.3,2.1-0.9,3c-0.6,0.7-1.5,1.1-2.3,1.1c-0.8,0-1.7-0.3-2.3-1c-0.6-0.7-0.9-1.7-0.9-2.8L665.5,2528z M667.6,2528.2
		c0,0.6,0.1,1.1,0.3,1.6c0.2,0.3,0.5,0.5,0.9,0.5c0.7,0,1.1-0.7,1.1-2v-0.3c0-1.4-0.4-2.1-1.1-2.1c-0.7,0-1.1,0.6-1.1,1.9
		L667.6,2528.2z M676.8,2526.4l-0.7-0.1c-0.5-0.1-1,0.2-1.3,0.7v5h-2.1v-8h1.9l0.1,1c0.2-0.7,0.8-1.2,1.5-1.2c0.2,0,0.4,0,0.6,0.1
		L676.8,2526.4z M680.8,2532.3c-0.9,0-1.8-0.3-2.5-1.1c-0.6-0.7-1-1.8-0.9-2.9v-0.2c0-0.7,0.1-1.5,0.4-2.2c0.2-0.6,0.6-1.1,1.1-1.4
		c0.5-0.4,1.1-0.5,1.7-0.5c0.8-0.1,1.6,0.3,2.2,1c0.6,0.8,0.9,1.8,0.8,2.9v1h-4.1c0.1,0.4,0.2,0.8,0.5,1.1c0.3,0.3,0.6,0.4,1,0.4
		c0.6,0,1.2-0.3,1.5-0.8l0.9,1.3c-0.3,0.5-0.7,0.8-1.1,1C681.8,2532.1,681.3,2532.3,680.8,2532.3L680.8,2532.3z M680.6,2525.9
		c-0.6,0-1,0.5-1.1,1.4h2.1v-0.2c0-0.3-0.1-0.7-0.3-0.9C681.1,2526,680.8,2525.9,680.6,2525.9L680.6,2525.9z M687.9,2529.9
		c0-0.2-0.1-0.4-0.3-0.5c-0.3-0.2-0.7-0.3-1-0.4c-0.4-0.1-0.9-0.3-1.3-0.5c-0.3-0.2-0.6-0.5-0.8-0.8c-0.2-0.3-0.3-0.7-0.3-1.1
		c0-0.7,0.3-1.4,0.8-1.8c0.6-0.5,1.3-0.8,2-0.7c0.7,0,1.5,0.2,2.1,0.7c0.5,0.4,0.8,1.1,0.8,1.9h-2.1c0-0.6-0.3-1-0.8-1
		c-0.2,0-0.4,0.1-0.5,0.2c-0.1,0.1-0.2,0.3-0.2,0.5c0,0.2,0.1,0.4,0.3,0.5c0.3,0.2,0.6,0.3,0.9,0.3c0.4,0.1,0.7,0.2,1,0.3
		c0.9,0.2,1.5,1.1,1.5,2.2c0,0.7-0.3,1.4-0.8,1.8c-0.6,0.5-1.4,0.7-2.1,0.7c-0.5,0-1-0.1-1.5-0.4c-0.4-0.2-0.8-0.6-1-1
		c-0.2-0.4-0.4-0.9-0.4-1.3h1.9c0,0.3,0.1,0.6,0.3,0.8c0.2,0.2,0.5,0.3,0.8,0.3c0.2,0,0.4-0.1,0.6-0.2
		C687.8,2530.3,687.9,2530.1,687.9,2529.9z M583.5,2549l-0.7-0.1c-0.5-0.1-1,0.2-1.3,0.7v5h-2.1v-8h1.9l0.1,1
		c0.2-0.7,0.8-1.2,1.5-1.2c0.2,0,0.4,0,0.6,0.1L583.5,2549z M587.4,2554.9c-0.9,0-1.8-0.3-2.5-1.1c-0.6-0.7-1-1.8-0.9-2.9v-0.2
		c0-0.7,0.1-1.5,0.4-2.2c0.2-0.6,0.6-1.1,1.1-1.4c0.5-0.4,1.1-0.5,1.7-0.5c0.8-0.1,1.6,0.3,2.2,1c0.6,0.8,0.9,1.8,0.8,2.9v1h-4.1
		c0.1,0.4,0.2,0.8,0.5,1.1c0.3,0.3,0.6,0.4,1,0.4c0.6,0,1.2-0.3,1.5-0.8l0.9,1.3c-0.3,0.5-0.7,0.8-1.1,1
		C588.5,2554.8,587.9,2554.9,587.4,2554.9L587.4,2554.9z M587.2,2548.5c-0.6,0-1,0.5-1.1,1.4h2.1v-0.2c0-0.3-0.1-0.7-0.3-0.9
		C587.7,2548.6,587.5,2548.5,587.2,2548.5z M597.2,2550.8c0,1.1-0.2,2.1-0.7,3c-0.4,0.7-1.1,1.1-1.9,1.1c-0.6,0-1.1-0.3-1.5-0.8v3.7
		h-2.1v-11h1.9l0.1,0.7c0.4-0.6,1-0.9,1.6-0.9c0.7,0,1.5,0.4,1.9,1.1c0.5,0.9,0.7,1.9,0.7,3L597.2,2550.8z M595.1,2550.7
		c0-1.4-0.3-2.1-1-2.1c-0.4-0.1-0.8,0.2-1,0.6v3.1c0.2,0.4,0.6,0.7,1,0.7c0.7,0,1-0.7,1-2V2550.7z M602.1,2549l-0.7-0.1
		c-0.5-0.1-1,0.2-1.3,0.7v5h-2.1v-8h1.9l0.1,1c0.2-0.7,0.8-1.2,1.5-1.2c0.2,0,0.4,0,0.6,0.1L602.1,2549z M606.1,2554.9
		c-0.9,0-1.8-0.3-2.5-1.1c-0.6-0.7-1-1.8-0.9-2.9v-0.2c0-0.7,0.1-1.5,0.4-2.2c0.2-0.6,0.6-1.1,1.1-1.4c0.5-0.4,1.1-0.5,1.7-0.5
		c0.8-0.1,1.6,0.3,2.2,1c0.6,0.8,0.9,1.8,0.8,2.9v1h-4.1c0.1,0.4,0.2,0.8,0.5,1.1c0.3,0.3,0.6,0.4,1,0.4c0.6,0,1.2-0.3,1.5-0.8
		l0.9,1.3c-0.3,0.5-0.7,0.8-1.1,1C607.1,2554.8,606.6,2554.9,606.1,2554.9L606.1,2554.9z M605.9,2548.5c-0.6,0-1,0.5-1.1,1.4h2.1
		v-0.2c0-0.3-0.1-0.7-0.3-0.9C606.4,2548.6,606.1,2548.5,605.9,2548.5z M613.2,2552.5c0-0.2-0.1-0.4-0.3-0.5c-0.3-0.2-0.7-0.3-1-0.4
		c-0.4-0.1-0.9-0.3-1.3-0.5c-0.3-0.2-0.6-0.5-0.8-0.8c-0.2-0.3-0.3-0.7-0.3-1.1c0-0.7,0.3-1.4,0.8-1.8c0.6-0.5,1.3-0.8,2-0.7
		c0.7,0,1.5,0.2,2.1,0.7c0.5,0.4,0.8,1.1,0.8,1.9h-2.1c0-0.6-0.3-1-0.8-1c-0.2,0-0.4,0.1-0.5,0.2c-0.1,0.1-0.2,0.3-0.2,0.5
		c0,0.2,0.1,0.4,0.3,0.5c0.3,0.2,0.6,0.3,0.9,0.3c0.4,0.1,0.7,0.2,1,0.3c0.9,0.2,1.5,1.2,1.5,2.2c0,0.7-0.3,1.4-0.8,1.8
		c-0.6,0.5-1.4,0.7-2.1,0.7c-0.5,0-1-0.1-1.5-0.4c-0.4-0.2-0.8-0.6-1-1c-0.2-0.4-0.4-0.9-0.4-1.3h1.9c0,0.3,0.1,0.6,0.3,0.8
		c0.2,0.2,0.5,0.3,0.8,0.3c0.2,0,0.4-0.1,0.6-0.2C613.1,2552.9,613.2,2552.7,613.2,2552.5L613.2,2552.5z M619.4,2554.9
		c-0.9,0-1.8-0.3-2.5-1.1c-0.6-0.7-1-1.8-0.9-2.9v-0.2c0-0.7,0.1-1.5,0.4-2.2c0.2-0.6,0.6-1.1,1.1-1.4c0.5-0.4,1.1-0.5,1.7-0.5
		c0.8-0.1,1.6,0.3,2.2,1c0.6,0.8,0.9,1.8,0.8,2.9v1h-4.1c0.1,0.4,0.2,0.8,0.5,1.1c0.3,0.3,0.6,0.4,1,0.4c0.6,0,1.2-0.3,1.5-0.8
		l0.9,1.3c-0.3,0.5-0.7,0.8-1.1,1C620.4,2554.8,619.9,2554.9,619.4,2554.9L619.4,2554.9z M619.1,2548.5c-0.6,0-1,0.5-1.1,1.4h2.1
		v-0.2c0-0.3-0.1-0.7-0.3-0.9C619.7,2548.6,619.4,2548.5,619.1,2548.5z M624.9,2546.8l0.1,0.9c0.4-0.7,1.2-1.1,1.9-1.1
		c0.6-0.1,1.2,0.2,1.5,0.7c0.4,0.7,0.6,1.4,0.5,2.2v5.1h-2.1v-5c0-0.3,0-0.6-0.2-0.9c-0.2-0.2-0.5-0.3-0.7-0.3
		c-0.4,0-0.7,0.2-0.9,0.6v5.6H623v-8L624.9,2546.8z M632.5,2544.8v2h1.1v1.7h-1.1v3.7c0,0.2,0,0.4,0.1,0.6c0.2,0.1,0.3,0.2,0.5,0.2
		c0.2,0,0.3,0,0.5,0v1.8c-0.4,0.1-0.8,0.2-1.2,0.2c-0.6,0.1-1.1-0.2-1.6-0.6c-0.4-0.5-0.6-1.2-0.5-1.8v-4h-0.8v-1.7h0.8v-2
		L632.5,2544.8z M638.1,2554.8c-0.1-0.2-0.2-0.5-0.2-0.7c-0.4,0.6-1,0.9-1.6,0.9c-0.6,0-1.2-0.2-1.6-0.7c-0.4-0.4-0.7-1.1-0.7-1.7
		c0-0.8,0.3-1.5,0.8-2c0.7-0.5,1.5-0.7,2.3-0.7h0.6v-0.4c0-0.7-0.3-1.1-0.8-1.1c-0.4-0.1-0.7,0.2-0.7,0.7c0,0.1,0,0.1,0,0.2h-2.1
		c0-0.8,0.3-1.5,0.8-1.9c0.6-0.5,1.3-0.8,2.1-0.7c0.7,0,1.4,0.2,2,0.7c0.5,0.5,0.8,1.3,0.8,2v3.5c0,0.6,0.1,1.2,0.3,1.7v0.1H638.1z
		 M636.8,2553.1c0.2,0,0.4-0.1,0.6-0.2c0.2-0.1,0.3-0.3,0.4-0.4v-1.3h-0.6c-0.7,0-1.1,0.4-1.1,1.2c0,0.2,0.1,0.4,0.2,0.5
		C636.5,2553.1,636.7,2553.1,636.8,2553.1z M643.5,2544.8v2h1.1v1.7h-1.1v3.7c0,0.2,0,0.4,0.1,0.6c0.2,0.1,0.3,0.2,0.5,0.2
		c0.2,0,0.3,0,0.5,0v1.8c-0.4,0.1-0.8,0.2-1.2,0.2c-0.6,0.1-1.1-0.2-1.6-0.6c-0.4-0.5-0.6-1.2-0.5-1.8v-4h-0.8v-1.7h0.8v-2H643.5z
		 M647.6,2554.8h-2.1v-8h2.1V2554.8z M645.4,2544.7c0-0.3,0.1-0.7,0.3-0.9c0.5-0.5,1.2-0.5,1.7,0c0.4,0.4,0.4,1.2,0.1,1.7
		c0,0,0,0.1-0.1,0.1c-0.5,0.5-1.2,0.5-1.7,0C645.5,2545.4,645.4,2545.1,645.4,2544.7z M651.5,2551.8l1-5h2.2l-2.2,8h-2.1l-2.2-8h2.2
		L651.5,2551.8z M655,2550.7c0-0.7,0.1-1.5,0.4-2.1c0.2-0.6,0.6-1.1,1.1-1.4c0.5-0.3,1.1-0.5,1.7-0.5c0.9-0.1,1.7,0.3,2.3,1.1
		c0.6,0.8,0.9,1.9,0.9,3v0.1c0,1.1-0.3,2.1-0.9,3c-0.6,0.7-1.5,1.1-2.3,1.1c-0.8,0-1.7-0.3-2.3-1c-0.6-0.7-0.9-1.7-0.9-2.8
		L655,2550.7z M657,2550.8c0,0.6,0.1,1.1,0.3,1.6c0.2,0.3,0.5,0.5,0.9,0.5c0.7,0,1.1-0.7,1.1-2v-0.3c0-1.4-0.4-2.1-1.1-2.1
		c-0.7,0-1.1,0.6-1.1,1.9L657,2550.8z M665.8,2552.5c0-0.2-0.1-0.4-0.3-0.5c-0.3-0.2-0.7-0.3-1-0.4c-0.4-0.1-0.9-0.3-1.3-0.5
		c-0.3-0.2-0.6-0.5-0.8-0.8c-0.2-0.3-0.3-0.7-0.3-1.1c0-0.7,0.3-1.4,0.8-1.8c0.6-0.5,1.3-0.8,2-0.7c0.7,0,1.5,0.2,2.1,0.7
		c0.5,0.4,0.8,1.1,0.8,1.9h-2.1c0-0.6-0.3-1-0.8-1c-0.2,0-0.4,0.1-0.5,0.2c-0.1,0.1-0.2,0.3-0.2,0.5c0,0.2,0.1,0.4,0.3,0.5
		c0.3,0.2,0.6,0.3,0.9,0.3c0.4,0.1,0.7,0.2,1,0.3c0.9,0.2,1.5,1.1,1.5,2.2c0,0.7-0.3,1.4-0.8,1.8c-0.6,0.5-1.4,0.7-2.1,0.7
		c-0.5,0-1-0.1-1.5-0.4c-0.4-0.2-0.8-0.6-1-1c-0.2-0.4-0.4-0.9-0.4-1.3h1.9c0,0.3,0.1,0.6,0.3,0.8c0.2,0.2,0.5,0.3,0.8,0.3
		c0.2,0,0.4-0.1,0.6-0.2C665.7,2552.9,665.8,2552.7,665.8,2552.5L665.8,2552.5z M671.6,2550.7c0-1.1,0.2-2.1,0.7-3
		c0.4-0.7,1.2-1.1,1.9-1.1c0.6,0,1.1,0.3,1.5,0.8v-4h2.1v11.3h-1.9l-0.1-0.9c-0.4,0.6-1,1-1.6,1c-0.7,0-1.4-0.4-1.9-1.1
		C671.8,2552.9,671.5,2551.8,671.6,2550.7L671.6,2550.7z M673.7,2550.9c0,1.4,0.3,2.1,1,2.1c0.4,0,0.8-0.2,1-0.7v-3
		c-0.2-0.5-0.6-0.7-1-0.7c-0.6,0-1,0.6-1,1.9L673.7,2550.9z M682.1,2554.9c-0.9,0-1.8-0.3-2.5-1.1c-0.6-0.7-1-1.8-0.9-2.9v-0.2
		c0-0.7,0.1-1.5,0.4-2.2c0.2-0.6,0.6-1.1,1.1-1.4c0.5-0.4,1.1-0.5,1.7-0.5c0.8-0.1,1.6,0.3,2.2,1c0.6,0.8,0.9,1.8,0.8,2.9v1h-4.1
		c0.1,0.4,0.2,0.8,0.5,1.1c0.3,0.3,0.6,0.4,1,0.4c0.6,0,1.2-0.3,1.5-0.8l0.9,1.3c-0.3,0.5-0.7,0.8-1.1,1
		C683.2,2554.8,682.7,2554.9,682.1,2554.9L682.1,2554.9z M681.9,2548.5c-0.6,0-1,0.5-1.1,1.4h2.1v-0.2c0-0.3-0.1-0.7-0.3-0.9
		C682.4,2548.6,682.2,2548.5,681.9,2548.5z M579.2,2573.3c0-1.1,0.2-2.1,0.7-3c0.4-0.7,1.2-1.1,1.9-1.1c0.6,0,1.1,0.3,1.5,0.8v-4
		h2.1v11.3h-1.9l-0.1-0.9c-0.4,0.6-1,1-1.6,1c-0.7,0-1.4-0.4-1.9-1.1C579.4,2575.5,579.1,2574.4,579.2,2573.3z M581.2,2573.5
		c0,1.4,0.3,2.1,1,2.1c0.4,0,0.8-0.2,1-0.7v-3c-0.2-0.5-0.6-0.7-1-0.7c-0.6,0-1,0.6-1,1.9L581.2,2573.5z M589.7,2577.5
		c-0.9,0-1.8-0.3-2.5-1.1c-0.6-0.7-1-1.8-0.9-2.9v-0.2c0-0.7,0.1-1.5,0.4-2.2c0.2-0.6,0.6-1.1,1.1-1.4c0.5-0.4,1.1-0.5,1.7-0.5
		c0.8,0,1.6,0.3,2.2,1c0.6,0.8,0.9,1.8,0.8,2.9v1h-4.1c0.1,0.4,0.2,0.8,0.5,1.1c0.3,0.3,0.6,0.4,1,0.4c0.6,0,1.2-0.3,1.5-0.8
		l0.9,1.3c-0.3,0.5-0.7,0.8-1.1,1C590.8,2577.4,590.2,2577.5,589.7,2577.5z M589.5,2571.2c-0.6,0-1,0.5-1.1,1.4h2.1v-0.2
		c0-0.3-0.1-0.7-0.3-0.9C590,2571.3,589.8,2571.2,589.5,2571.2z M597.3,2576.5c-0.4,0.7-1.1,1-1.8,1c-0.6,0.1-1.2-0.2-1.7-0.8
		c-0.4-0.6-0.6-1.4-0.6-2.2v-5.2h2.1v5.2c-0.1,0.5,0.2,0.9,0.6,1c0.1,0,0.1,0,0.2,0c0.4,0,0.8-0.2,1-0.6v-5.6h2.1v8h-1.9
		L597.3,2576.5z M600.2,2573.3c0-1.1,0.2-2.1,0.7-3c0.4-0.7,1.2-1.1,1.9-1.1c0.6,0,1.1,0.3,1.5,0.8v-4h2.1v11.3h-1.9l-0.1-0.9
		c-0.4,0.6-1,1-1.6,1c-0.7,0-1.4-0.4-1.9-1.1C600.4,2575.5,600.1,2574.4,600.2,2573.3L600.2,2573.3z M602.2,2573.5
		c0,1.4,0.3,2.1,1,2.1c0.4,0,0.8-0.2,1-0.7v-3c-0.2-0.5-0.6-0.7-1-0.7c-0.6,0-1,0.6-1,1.9L602.2,2573.5z M611.2,2577.4
		c-0.1-0.2-0.2-0.5-0.2-0.7c-0.4,0.6-1,0.9-1.6,0.9c-0.6,0-1.2-0.2-1.6-0.7c-0.4-0.4-0.7-1.1-0.7-1.7c0-0.8,0.3-1.5,0.8-2
		c0.7-0.5,1.5-0.7,2.3-0.7h0.6v-0.4c0-0.7-0.3-1.1-0.8-1.1c-0.4-0.1-0.7,0.2-0.7,0.7c0,0.1,0,0.1,0,0.2h-2.1c0-0.8,0.3-1.5,0.8-1.9
		c0.6-0.5,1.3-0.8,2.1-0.7c0.7,0,1.4,0.2,2,0.7c0.5,0.5,0.8,1.3,0.8,2v3.5c0,0.6,0.1,1.2,0.3,1.7v0.1H611.2z M609.9,2575.8
		c0.2,0,0.4-0.1,0.6-0.2c0.2-0.1,0.3-0.3,0.4-0.4v-1.3h-0.6c-0.7,0-1.1,0.4-1.1,1.2c0,0.2,0.1,0.4,0.2,0.5
		C609.6,2575.7,609.8,2575.8,609.9,2575.8L609.9,2575.8z"/>
	<path id="Trazado_102790" class="st2" d="M583,2433.6l1.8-7.8h2.4l-3,10.7h-2.4l-3-10.7h2.4L583,2433.6z M591.2,2436.5
		c-0.1-0.2-0.2-0.5-0.2-0.7c-0.4,0.6-1,0.9-1.6,0.9c-0.6,0-1.2-0.2-1.6-0.7c-0.4-0.4-0.7-1.1-0.7-1.7c0-0.8,0.3-1.5,0.8-2
		c0.7-0.5,1.5-0.7,2.3-0.7h0.6v-0.4c0-0.7-0.3-1.1-0.8-1.1c-0.4-0.1-0.7,0.2-0.7,0.7c0,0.1,0,0.1,0,0.2h-2.1c0-0.8,0.3-1.5,0.8-1.9
		c0.6-0.5,1.3-0.8,2.1-0.7c0.7,0,1.4,0.2,2,0.7c0.5,0.5,0.8,1.3,0.8,2v3.5c0,0.6,0.1,1.2,0.3,1.7v0.1H591.2z M589.9,2434.9
		c0.2,0,0.4-0.1,0.6-0.2c0.2-0.1,0.3-0.3,0.4-0.4v-1.3h-0.6c-0.7,0-1.1,0.4-1.1,1.2c0,0.2,0.1,0.4,0.2,0.5
		C589.5,2434.8,589.7,2434.9,589.9,2434.9z M596.3,2436.5h-2.1v-11.3h2.1V2436.5z M597.3,2432.4c0-0.7,0.1-1.5,0.4-2.1
		c0.2-0.6,0.6-1.1,1.1-1.4c0.5-0.3,1.1-0.5,1.7-0.5c0.9-0.1,1.7,0.3,2.3,1.1c0.6,0.8,0.9,1.9,0.9,3v0.1c0,1.1-0.3,2.1-0.9,3
		c-0.6,0.7-1.5,1.1-2.3,1.1c-0.8,0-1.7-0.3-2.3-1c-0.6-0.7-0.9-1.7-0.9-2.8L597.3,2432.4z M599.4,2432.6c0,0.6,0.1,1.1,0.3,1.6
		c0.2,0.3,0.5,0.5,0.9,0.5c0.7,0,1.1-0.7,1.1-2v-0.3c0-1.4-0.4-2.1-1.1-2.1c-0.7,0-1.1,0.6-1.1,1.9L599.4,2432.6z M608.7,2430.8
		l-0.7-0.1c-0.5-0.1-1,0.2-1.3,0.7v5h-2.1v-8h1.9l0.1,1c0.2-0.7,0.8-1.2,1.5-1.2c0.2,0,0.4,0,0.6,0.1L608.7,2430.8z M612.6,2436.6
		c-0.9,0-1.8-0.3-2.5-1.1c-0.6-0.7-1-1.8-0.9-2.9v-0.2c0-0.7,0.1-1.5,0.4-2.2c0.2-0.6,0.6-1.1,1.1-1.4c0.5-0.4,1.1-0.5,1.7-0.5
		c0.8,0,1.6,0.3,2.2,1c0.6,0.8,0.9,1.8,0.8,2.9v1h-4.1c0.1,0.4,0.2,0.8,0.5,1.1c0.3,0.3,0.6,0.4,1,0.4c0.6,0,1.2-0.3,1.5-0.8
		l0.9,1.3c-0.3,0.5-0.7,0.8-1.1,1C613.7,2436.5,613.1,2436.7,612.6,2436.6L612.6,2436.6z M612.4,2430.3c-0.6,0-1,0.5-1.1,1.4h2.1
		v-0.2c0-0.3-0.1-0.7-0.3-0.9C612.9,2430.4,612.7,2430.3,612.4,2430.3z M619.7,2434.3c0-0.2-0.1-0.4-0.3-0.5c-0.3-0.2-0.7-0.3-1-0.4
		c-0.4-0.1-0.9-0.3-1.3-0.5c-0.3-0.2-0.6-0.5-0.8-0.8c-0.2-0.3-0.3-0.7-0.3-1.1c0-0.7,0.3-1.4,0.8-1.8c0.6-0.5,1.3-0.8,2-0.7
		c0.7,0,1.5,0.2,2.1,0.7c0.5,0.4,0.8,1.1,0.8,1.9h-2.1c0-0.6-0.3-1-0.8-1c-0.2,0-0.4,0.1-0.5,0.2c-0.1,0.1-0.2,0.3-0.2,0.5
		c0,0.2,0.1,0.4,0.3,0.5c0.3,0.2,0.6,0.3,0.9,0.3c0.4,0.1,0.7,0.2,1,0.3c0.9,0.2,1.5,1.1,1.5,2.2c0,0.7-0.3,1.4-0.8,1.8
		c-0.6,0.5-1.4,0.7-2.1,0.7c-0.5,0-1-0.1-1.5-0.4c-0.4-0.2-0.8-0.6-1-1c-0.2-0.4-0.4-0.9-0.4-1.3h1.9c0,0.3,0.1,0.6,0.3,0.8
		c0.2,0.2,0.5,0.3,0.8,0.3c0.2,0,0.4-0.1,0.6-0.2C619.6,2434.7,619.7,2434.5,619.7,2434.3L619.7,2434.3z M583.5,2453.4l-0.7-0.1
		c-0.5-0.1-1,0.2-1.3,0.7v5h-2.1v-8h1.9l0.1,1c0.2-0.7,0.8-1.2,1.5-1.2c0.2,0,0.4,0,0.6,0.1L583.5,2453.4z M587.4,2459.3
		c-0.9,0-1.8-0.3-2.5-1.1c-0.6-0.7-1-1.8-0.9-2.9v-0.2c0-0.7,0.1-1.5,0.4-2.2c0.2-0.6,0.6-1.1,1.1-1.4c0.5-0.4,1.1-0.5,1.7-0.5
		c0.8-0.1,1.6,0.3,2.2,1c0.6,0.8,0.9,1.8,0.8,2.9v1h-4.1c0.1,0.4,0.2,0.8,0.5,1.1c0.3,0.3,0.6,0.4,1,0.4c0.6,0,1.2-0.3,1.5-0.8
		l0.9,1.3c-0.3,0.5-0.7,0.8-1.1,1C588.5,2459.2,587.9,2459.3,587.4,2459.3L587.4,2459.3z M587.2,2452.9c-0.6,0-1,0.5-1.1,1.4h2.1
		v-0.2c0-0.3-0.1-0.7-0.3-0.9C587.7,2453,587.5,2452.9,587.2,2452.9z M597.2,2455.2c0,1.1-0.2,2.1-0.7,3c-0.4,0.7-1.1,1.1-1.9,1.1
		c-0.6,0-1.1-0.3-1.5-0.8v3.7h-2.1v-11h1.9l0.1,0.7c0.4-0.6,1-0.9,1.6-0.9c0.7,0,1.5,0.4,1.9,1.1c0.5,0.9,0.7,1.9,0.7,3
		L597.2,2455.2z M595.1,2455.1c0-1.4-0.3-2.1-1-2.1c-0.4-0.1-0.8,0.2-1,0.6v3.1c0.2,0.4,0.6,0.7,1,0.7c0.7,0,1-0.7,1-2V2455.1z
		 M602.1,2453.4l-0.7-0.1c-0.5-0.1-1,0.2-1.3,0.7v5h-2.1v-8h1.9l0.1,1c0.2-0.7,0.8-1.2,1.5-1.2c0.2,0,0.4,0,0.6,0.1L602.1,2453.4z
		 M606.1,2459.3c-0.9,0-1.8-0.3-2.5-1.1c-0.6-0.7-1-1.8-0.9-2.9v-0.2c0-0.7,0.1-1.5,0.4-2.2c0.2-0.6,0.6-1.1,1.1-1.4
		c0.5-0.4,1.1-0.5,1.7-0.5c0.8-0.1,1.6,0.3,2.2,1c0.6,0.8,0.9,1.8,0.8,2.9v1h-4.1c0.1,0.4,0.2,0.8,0.5,1.1c0.3,0.3,0.6,0.4,1,0.4
		c0.6,0,1.2-0.3,1.5-0.8l0.9,1.3c-0.3,0.5-0.7,0.8-1.1,1C607.1,2459.2,606.6,2459.3,606.1,2459.3L606.1,2459.3z M605.9,2452.9
		c-0.6,0-1,0.5-1.1,1.4h2.1v-0.2c0-0.3-0.1-0.7-0.3-0.9C606.4,2453,606.1,2452.9,605.9,2452.9z M613.2,2456.9c0-0.2-0.1-0.4-0.3-0.5
		c-0.3-0.2-0.7-0.3-1-0.4c-0.4-0.1-0.9-0.3-1.3-0.5c-0.3-0.2-0.6-0.5-0.8-0.8c-0.2-0.3-0.3-0.7-0.3-1.1c0-0.7,0.3-1.4,0.8-1.8
		c0.6-0.5,1.3-0.8,2-0.7c0.7,0,1.5,0.2,2.1,0.7c0.5,0.4,0.8,1.1,0.8,1.9h-2.1c0-0.6-0.3-1-0.8-1c-0.2,0-0.4,0.1-0.5,0.2
		c-0.1,0.1-0.2,0.3-0.2,0.5c0,0.2,0.1,0.4,0.3,0.5c0.3,0.2,0.6,0.3,0.9,0.3c0.4,0.1,0.7,0.2,1,0.3c0.9,0.2,1.5,1.2,1.5,2.2
		c0,0.7-0.3,1.4-0.8,1.8c-0.6,0.5-1.4,0.7-2.1,0.7c-0.5,0-1-0.1-1.5-0.4c-0.4-0.2-0.8-0.6-1-1c-0.2-0.4-0.4-0.9-0.4-1.3h1.9
		c0,0.3,0.1,0.6,0.3,0.8c0.2,0.2,0.5,0.3,0.8,0.3c0.2,0,0.4-0.1,0.6-0.2C613.1,2457.3,613.2,2457.1,613.2,2456.9L613.2,2456.9z
		 M619.4,2459.3c-0.9,0-1.8-0.3-2.5-1.1c-0.6-0.7-1-1.8-0.9-2.9v-0.2c0-0.7,0.1-1.5,0.4-2.2c0.2-0.6,0.6-1.1,1.1-1.4
		c0.5-0.4,1.1-0.5,1.7-0.5c0.8-0.1,1.6,0.3,2.2,1c0.6,0.8,0.9,1.8,0.8,2.9v1h-4.1c0.1,0.4,0.2,0.8,0.5,1.1c0.3,0.3,0.6,0.4,1,0.4
		c0.6,0,1.2-0.3,1.5-0.8l0.9,1.3c-0.3,0.5-0.7,0.8-1.1,1C620.4,2459.2,619.9,2459.3,619.4,2459.3L619.4,2459.3z M619.1,2452.9
		c-0.6,0-1,0.5-1.1,1.4h2.1v-0.2c0-0.3-0.1-0.7-0.3-0.9C619.7,2453,619.4,2452.9,619.1,2452.9z M624.9,2451.2l0.1,0.9
		c0.4-0.7,1.2-1.1,1.9-1.1c0.6-0.1,1.2,0.2,1.5,0.7c0.4,0.7,0.6,1.4,0.5,2.2v5.1h-2.1v-5c0-0.3,0-0.6-0.2-0.9
		c-0.2-0.2-0.5-0.3-0.7-0.3c-0.4,0-0.7,0.2-0.9,0.6v5.6H623v-8L624.9,2451.2z M632.5,2449.2v2h1.1v1.7h-1.1v3.7c0,0.2,0,0.4,0.1,0.6
		c0.2,0.1,0.3,0.2,0.5,0.2c0.2,0,0.3,0,0.5,0v1.8c-0.4,0.1-0.8,0.2-1.2,0.2c-0.6,0.1-1.1-0.2-1.6-0.6c-0.4-0.5-0.6-1.2-0.5-1.8v-4
		h-0.8v-1.7h0.8v-2L632.5,2449.2z M638.1,2459.1c-0.1-0.2-0.2-0.5-0.2-0.7c-0.4,0.6-1,0.9-1.6,0.9c-0.6,0-1.2-0.2-1.6-0.7
		c-0.4-0.4-0.7-1.1-0.7-1.7c0-0.8,0.3-1.5,0.8-2c0.7-0.5,1.5-0.7,2.3-0.7h0.6v-0.4c0-0.7-0.3-1.1-0.8-1.1c-0.4-0.1-0.7,0.2-0.7,0.7
		c0,0.1,0,0.1,0,0.2h-2.1c0-0.8,0.3-1.5,0.8-1.9c0.6-0.5,1.3-0.8,2.1-0.7c0.7,0,1.4,0.2,2,0.7c0.5,0.5,0.8,1.3,0.8,2v3.5
		c0,0.6,0.1,1.2,0.3,1.7v0.1H638.1z M636.8,2457.5c0.2,0,0.4-0.1,0.6-0.2c0.2-0.1,0.3-0.3,0.4-0.4v-1.3h-0.6c-0.7,0-1.1,0.4-1.1,1.2
		c0,0.2,0.1,0.4,0.2,0.5C636.5,2457.5,636.7,2457.5,636.8,2457.5z M643.5,2449.2v2h1.1v1.7h-1.1v3.7c0,0.2,0,0.4,0.1,0.6
		c0.2,0.1,0.3,0.2,0.5,0.2c0.2,0,0.3,0,0.5,0v1.8c-0.4,0.1-0.8,0.2-1.2,0.2c-0.6,0.1-1.1-0.2-1.6-0.6c-0.4-0.5-0.6-1.2-0.5-1.8v-4
		h-0.8v-1.7h0.8v-2H643.5z M647.6,2459.1h-2.1v-8h2.1V2459.1z M645.4,2449.1c0-0.3,0.1-0.7,0.3-0.9c0.5-0.5,1.2-0.5,1.7,0
		c0.4,0.4,0.4,1.2,0.1,1.7c0,0,0,0.1-0.1,0.1c-0.5,0.5-1.2,0.5-1.7,0C645.5,2449.8,645.4,2449.4,645.4,2449.1z M651.5,2456.2l1-5
		h2.2l-2.2,8h-2.1l-2.2-8h2.2L651.5,2456.2z M655,2455.1c0-0.7,0.1-1.5,0.4-2.1c0.2-0.6,0.6-1.1,1.1-1.4c0.5-0.3,1.1-0.5,1.7-0.5
		c0.9-0.1,1.7,0.3,2.3,1.1c0.6,0.8,0.9,1.9,0.9,3v0.1c0,1.1-0.3,2.1-0.9,3c-0.6,0.7-1.5,1.1-2.3,1.1c-0.8,0-1.7-0.3-2.3-1
		c-0.6-0.7-0.9-1.7-0.9-2.8L655,2455.1z M657,2455.2c0,0.6,0.1,1.1,0.3,1.6c0.2,0.3,0.5,0.5,0.9,0.5c0.7,0,1.1-0.7,1.1-2v-0.3
		c0-1.4-0.4-2.1-1.1-2.1c-0.7,0-1.1,0.6-1.1,1.9L657,2455.2z M665.8,2456.9c0-0.2-0.1-0.4-0.3-0.5c-0.3-0.2-0.7-0.3-1-0.4
		c-0.4-0.1-0.9-0.3-1.3-0.5c-0.3-0.2-0.6-0.5-0.8-0.8c-0.2-0.3-0.3-0.7-0.3-1.1c0-0.7,0.3-1.4,0.8-1.8c0.6-0.5,1.3-0.8,2-0.7
		c0.7,0,1.5,0.2,2.1,0.7c0.5,0.4,0.8,1.1,0.8,1.9h-2.1c0-0.6-0.3-1-0.8-1c-0.2,0-0.4,0.1-0.5,0.2c-0.1,0.1-0.2,0.3-0.2,0.5
		c0,0.2,0.1,0.4,0.3,0.5c0.3,0.2,0.6,0.3,0.9,0.3c0.4,0.1,0.7,0.2,1,0.3c0.9,0.2,1.5,1.1,1.5,2.2c0,0.7-0.3,1.4-0.8,1.8
		c-0.6,0.5-1.4,0.7-2.1,0.7c-0.5,0-1-0.1-1.5-0.4c-0.4-0.2-0.8-0.6-1-1c-0.2-0.4-0.4-0.9-0.4-1.3h1.9c0,0.3,0.1,0.6,0.3,0.8
		c0.2,0.2,0.5,0.3,0.8,0.3c0.2,0,0.4-0.1,0.6-0.2C665.7,2457.3,665.8,2457.1,665.8,2456.9L665.8,2456.9z M671.6,2455.1
		c0-1.1,0.2-2.1,0.7-3c0.4-0.7,1.2-1.1,1.9-1.1c0.6,0,1.1,0.3,1.5,0.8v-4h2.1v11.3h-1.9l-0.1-0.9c-0.4,0.6-1,1-1.6,1
		c-0.7,0-1.4-0.4-1.9-1.1C671.8,2457.3,671.5,2456.2,671.6,2455.1L671.6,2455.1z M673.7,2455.3c0,1.4,0.3,2.1,1,2.1
		c0.4,0,0.8-0.2,1-0.7v-3c-0.2-0.5-0.6-0.7-1-0.7c-0.6,0-1,0.6-1,1.9L673.7,2455.3z M682.1,2459.3c-0.9,0-1.8-0.3-2.5-1.1
		c-0.6-0.7-1-1.8-0.9-2.9v-0.2c0-0.7,0.1-1.5,0.4-2.2c0.2-0.6,0.6-1.1,1.1-1.4c0.5-0.4,1.1-0.5,1.7-0.5c0.8-0.1,1.6,0.3,2.2,1
		c0.6,0.8,0.9,1.8,0.8,2.9v1h-4.1c0.1,0.4,0.2,0.8,0.5,1.1c0.3,0.3,0.6,0.4,1,0.4c0.6,0,1.2-0.3,1.5-0.8l0.9,1.3
		c-0.3,0.5-0.7,0.8-1.1,1C683.2,2459.2,682.7,2459.3,682.1,2459.3L682.1,2459.3z M681.9,2452.9c-0.6,0-1,0.5-1.1,1.4h2.1v-0.2
		c0-0.3-0.1-0.7-0.3-0.9C682.4,2453,682.2,2452.9,681.9,2452.9z M579.2,2477.7c0-1.1,0.2-2.1,0.7-3c0.4-0.7,1.2-1.1,1.9-1.1
		c0.6,0,1.1,0.3,1.5,0.8v-4h2.1v11.3h-1.9l-0.1-0.9c-0.4,0.6-1,1-1.6,1c-0.7,0-1.4-0.4-1.9-1.1
		C579.4,2479.9,579.1,2478.8,579.2,2477.7z M581.2,2477.9c0,1.4,0.3,2.1,1,2.1c0.4,0,0.8-0.2,1-0.7v-3c-0.2-0.5-0.6-0.7-1-0.7
		c-0.6,0-1,0.6-1,1.9L581.2,2477.9z M589.7,2481.9c-0.9,0-1.8-0.3-2.5-1.1c-0.6-0.7-1-1.8-0.9-2.9v-0.2c0-0.7,0.1-1.5,0.4-2.2
		c0.2-0.6,0.6-1.1,1.1-1.4c0.5-0.4,1.1-0.5,1.7-0.5c0.8,0,1.6,0.3,2.2,1c0.6,0.8,0.9,1.8,0.8,2.9v1h-4.1c0.1,0.4,0.2,0.8,0.5,1.1
		c0.3,0.3,0.6,0.4,1,0.4c0.6,0,1.2-0.3,1.5-0.8l0.9,1.3c-0.3,0.5-0.7,0.8-1.1,1C590.8,2481.8,590.2,2481.9,589.7,2481.9z
		 M589.5,2475.6c-0.6,0-1,0.5-1.1,1.4h2.1v-0.2c0-0.3-0.1-0.7-0.3-0.9C590,2475.7,589.8,2475.6,589.5,2475.6z M597.3,2480.9
		c-0.4,0.7-1.1,1-1.8,1c-0.6,0.1-1.2-0.2-1.7-0.8c-0.4-0.6-0.6-1.4-0.6-2.2v-5.2h2.1v5.2c-0.1,0.5,0.2,0.9,0.6,1c0.1,0,0.1,0,0.2,0
		c0.4,0,0.8-0.2,1-0.6v-5.6h2.1v8h-1.9L597.3,2480.9z M600.2,2477.7c0-1.1,0.2-2.1,0.7-3c0.4-0.7,1.2-1.1,1.9-1.1
		c0.6,0,1.1,0.3,1.5,0.8v-4h2.1v11.3h-1.9l-0.1-0.9c-0.4,0.6-1,1-1.6,1c-0.7,0-1.4-0.4-1.9-1.1
		C600.4,2479.9,600.1,2478.8,600.2,2477.7L600.2,2477.7z M602.2,2477.9c0,1.4,0.3,2.1,1,2.1c0.4,0,0.8-0.2,1-0.7v-3
		c-0.2-0.5-0.6-0.7-1-0.7c-0.6,0-1,0.6-1,1.9L602.2,2477.9z M611.2,2481.8c-0.1-0.2-0.2-0.5-0.2-0.7c-0.4,0.6-1,0.9-1.6,0.9
		c-0.6,0-1.2-0.2-1.6-0.7c-0.4-0.4-0.7-1.1-0.7-1.7c0-0.8,0.3-1.5,0.8-2c0.7-0.5,1.5-0.7,2.3-0.7h0.6v-0.4c0-0.7-0.3-1.1-0.8-1.1
		c-0.4-0.1-0.7,0.2-0.7,0.7c0,0.1,0,0.1,0,0.2h-2.1c0-0.8,0.3-1.5,0.8-1.9c0.6-0.5,1.3-0.8,2.1-0.7c0.7,0,1.4,0.2,2,0.7
		c0.5,0.5,0.8,1.3,0.8,2v3.5c0,0.6,0.1,1.2,0.3,1.7v0.1H611.2z M609.9,2480.2c0.2,0,0.4-0.1,0.6-0.2c0.2-0.1,0.3-0.3,0.4-0.4v-1.3
		h-0.6c-0.7,0-1.1,0.4-1.1,1.2c0,0.2,0.1,0.4,0.2,0.5C609.6,2480.1,609.8,2480.2,609.9,2480.2L609.9,2480.2z M617.6,2479.5
		c0-0.2-0.1-0.4-0.3-0.5c-0.3-0.2-0.7-0.3-1-0.4c-0.4-0.1-0.9-0.3-1.3-0.5c-0.3-0.2-0.6-0.5-0.8-0.8c-0.2-0.3-0.3-0.7-0.3-1.1
		c0-0.7,0.3-1.4,0.8-1.8c0.6-0.5,1.3-0.8,2-0.7c0.7,0,1.5,0.2,2.1,0.7c0.5,0.4,0.8,1.1,0.8,1.9h-2.1c0-0.6-0.3-1-0.8-1
		c-0.2,0-0.4,0.1-0.5,0.2c-0.1,0.1-0.2,0.3-0.2,0.5c0,0.2,0.1,0.4,0.3,0.5c0.3,0.2,0.6,0.3,0.9,0.3c0.4,0.1,0.7,0.2,1,0.3
		c0.9,0.2,1.5,1.1,1.5,2.2c0,0.7-0.3,1.4-0.8,1.8c-0.6,0.5-1.4,0.7-2.1,0.7c-0.5,0-1-0.1-1.5-0.4c-0.4-0.2-0.8-0.6-1-1
		c-0.2-0.4-0.4-0.9-0.4-1.3h1.9c0,0.3,0.1,0.6,0.3,0.8c0.2,0.2,0.5,0.3,0.8,0.3c0.2,0,0.4-0.1,0.6-0.2
		C617.6,2479.9,617.6,2479.8,617.6,2479.5L617.6,2479.5z M626.5,2480c0.2,0,0.5-0.1,0.7-0.3c0.2-0.2,0.3-0.5,0.2-0.8h1.9
		c0,0.8-0.3,1.6-0.8,2.2c-0.6,0.6-1.3,0.9-2,0.8c-0.9,0.1-1.7-0.3-2.3-1.1c-0.6-0.8-0.9-1.9-0.8-3v-0.1c0-0.7,0.1-1.5,0.4-2.1
		c0.2-0.6,0.6-1.1,1.1-1.4c0.5-0.3,1.1-0.5,1.7-0.5c0.8,0,1.5,0.3,2.1,0.9c0.5,0.6,0.8,1.5,0.8,2.3h-1.9c0-0.3-0.1-0.7-0.3-0.9
		c-0.2-0.2-0.4-0.3-0.7-0.3c-0.5,0-0.8,0.4-0.9,1.2c0,0.4,0,0.7,0,1.1c0,0.6,0,1.1,0.2,1.7C625.9,2479.9,626.2,2480,626.5,2480z
		 M630,2477.7c0-0.7,0.1-1.5,0.4-2.1c0.2-0.6,0.6-1.1,1.1-1.4c0.5-0.3,1.1-0.5,1.7-0.5c0.9-0.1,1.7,0.3,2.3,1.1
		c0.6,0.8,0.9,1.9,0.9,3v0.1c0,1.1-0.3,2.1-0.9,3c-0.6,0.7-1.5,1.1-2.3,1.1c-0.8,0-1.7-0.3-2.3-1c-0.6-0.7-0.9-1.7-0.9-2.8
		L630,2477.7z M632.1,2477.9c0,0.6,0.1,1.1,0.3,1.6c0.2,0.3,0.5,0.5,0.9,0.5c0.7,0,1.1-0.7,1.1-2v-0.3c0-1.4-0.4-2.1-1.1-2.1
		c-0.7,0-1.1,0.6-1.1,1.9L632.1,2477.9z M641.3,2476.1l-0.7-0.1c-0.5-0.1-1,0.2-1.3,0.7v5h-2.1v-8h1.9l0.1,1
		c0.2-0.7,0.8-1.2,1.5-1.2c0.2,0,0.4,0,0.6,0.1L641.3,2476.1z M644.8,2471.8v2h1.1v1.7h-1.1v3.7c0,0.2,0,0.4,0.1,0.6
		c0.2,0.1,0.3,0.2,0.5,0.2c0.2,0,0.3,0,0.5,0v1.8c-0.4,0.1-0.8,0.2-1.2,0.2c-0.6,0.1-1.1-0.2-1.6-0.6c-0.4-0.5-0.6-1.2-0.5-1.8v-4
		h-0.8v-1.7h0.8v-2H644.8z M646.3,2477.7c0-0.7,0.1-1.5,0.4-2.1c0.2-0.6,0.6-1.1,1.1-1.4c0.5-0.3,1.1-0.5,1.7-0.5
		c0.9-0.1,1.7,0.3,2.3,1.1c0.6,0.8,0.9,1.9,0.9,3v0.1c0,1.1-0.3,2.1-0.9,3c-0.6,0.7-1.5,1.1-2.3,1.1c-0.8,0-1.7-0.3-2.3-1
		c-0.6-0.7-0.9-1.7-0.9-2.8L646.3,2477.7z M648.3,2477.9c0,0.6,0.1,1.1,0.3,1.6c0.2,0.3,0.5,0.5,0.9,0.5c0.7,0,1.1-0.7,1.1-2v-0.3
		c0-1.4-0.4-2.1-1.1-2.1c-0.7,0-1.1,0.6-1.1,1.9L648.3,2477.9z M662.9,2477.9c0,1.1-0.2,2.1-0.7,3c-0.4,0.7-1.1,1.1-1.9,1.1
		c-0.6,0-1.1-0.3-1.5-0.8v3.7h-2.1v-11h1.9l0.1,0.7c0.4-0.6,1-0.9,1.6-0.9c0.7,0,1.5,0.4,1.9,1.1c0.5,0.9,0.7,1.9,0.7,3
		L662.9,2477.9z M660.8,2477.7c0-1.4-0.3-2.1-1-2.1c-0.4-0.1-0.8,0.2-1,0.6v3.1c0.2,0.4,0.6,0.7,1,0.7c0.7,0,1-0.7,1-2V2477.7z
		 M666,2481.8h-2.1v-11.3h2.1L666,2481.8z M671,2481.8c-0.1-0.2-0.2-0.5-0.2-0.7c-0.4,0.6-1,0.9-1.6,0.9c-0.6,0-1.2-0.2-1.6-0.7
		c-0.4-0.4-0.7-1.1-0.7-1.7c0-0.8,0.3-1.5,0.8-2c0.7-0.5,1.5-0.7,2.3-0.7h0.6v-0.4c0-0.7-0.3-1.1-0.8-1.1c-0.4-0.1-0.7,0.2-0.7,0.7
		c0,0.1,0,0.1,0,0.2h-2.1c0-0.8,0.3-1.5,0.8-1.9c0.6-0.5,1.3-0.8,2.1-0.7c0.7,0,1.4,0.2,2,0.7c0.5,0.5,0.8,1.3,0.8,2v3.5
		c0,0.6,0.1,1.2,0.3,1.7v0.1H671z M669.7,2480.2c0.2,0,0.4-0.1,0.6-0.2c0.2-0.1,0.3-0.3,0.4-0.4v-1.3h-0.6c-0.7,0-1.1,0.4-1.1,1.2
		c0,0.2,0.1,0.4,0.2,0.5C669.3,2480.1,669.5,2480.2,669.7,2480.2z M676.3,2479.9h3v1.9h-5.6v-1.4l2.9-4.7h-2.8v-1.9h5.4v1.3
		L676.3,2479.9z M680,2477.7c0-0.7,0.1-1.5,0.4-2.1c0.2-0.6,0.6-1.1,1.1-1.4c0.5-0.3,1.1-0.5,1.7-0.5c0.9-0.1,1.7,0.3,2.3,1.1
		c0.6,0.8,0.9,1.9,0.9,3v0.1c0,1.1-0.3,2.1-0.9,3c-0.6,0.7-1.5,1.1-2.3,1.1c-0.8,0-1.7-0.3-2.3-1c-0.6-0.7-0.9-1.7-0.9-2.8
		L680,2477.7z M682.1,2477.9c0,0.6,0.1,1.1,0.3,1.6c0.2,0.3,0.5,0.5,0.9,0.5c0.7,0,1.1-0.7,1.1-2v-0.3c0-1.4-0.4-2.1-1.1-2.1
		c-0.7,0-1.1,0.6-1.1,1.9L682.1,2477.9z"/>
	<path id="Trazado_102791" class="st2" d="M738.3,2453.7h-5.2v-0.9l2.7-3.7c0.3-0.4,0.6-0.9,0.8-1.4c0.2-0.3,0.2-0.7,0.2-1.1
		c0-0.5-0.1-0.9-0.4-1.2c-0.3-0.3-0.6-0.5-1-0.5c-0.4,0-0.9,0.2-1.2,0.5c-0.3,0.4-0.4,0.9-0.4,1.4h-1c0-0.8,0.2-1.6,0.7-2.1
		c0.5-0.6,1.2-0.9,1.9-0.8c0.6,0,1.3,0.2,1.8,0.7c0.4,0.5,0.7,1.2,0.6,1.9c0,0.9-0.5,2.1-1.5,3.4l-2.1,2.8h4V2453.7z M744.5,2444.8
		l-3.3,8.9h-1.1l3.3-8.5h-4.3v-1h5.4L744.5,2444.8z M745.7,2453c0-0.2,0.1-0.4,0.2-0.5c0.1-0.1,0.3-0.2,0.5-0.2
		c0.2,0,0.3,0.1,0.5,0.2c0.1,0.1,0.2,0.3,0.2,0.5c0,0.2-0.1,0.4-0.2,0.5c-0.1,0.1-0.3,0.2-0.5,0.2c-0.3,0-0.6-0.2-0.6-0.6
		C745.7,2453.1,745.7,2453.1,745.7,2453L745.7,2453z M752.4,2449.5c-0.2,0.3-0.5,0.5-0.8,0.7c-0.3,0.2-0.6,0.3-1,0.3
		c-0.4,0-0.8-0.1-1.2-0.4c-0.3-0.3-0.6-0.7-0.8-1.1c-0.2-0.5-0.3-1.1-0.3-1.6c0-0.6,0.1-1.2,0.3-1.7c0.2-0.5,0.5-0.9,0.9-1.2
		c0.4-0.3,0.8-0.4,1.3-0.4c0.7,0,1.4,0.4,1.9,1.1c0.5,0.8,0.7,1.9,0.7,2.9v0.4c0,1.9-0.3,3.2-0.9,4.1c-0.7,0.9-1.7,1.4-2.8,1.3h-0.2
		v-1h0.2c0.7,0,1.4-0.2,1.9-0.8C752.2,2451.2,752.4,2450.4,752.4,2449.5z M750.9,2449.5c0.3,0,0.7-0.1,0.9-0.4
		c0.3-0.2,0.5-0.6,0.6-0.9v-0.5c0-0.7-0.1-1.4-0.4-1.9c-0.4-0.7-1.2-1-1.8-0.5c-0.1,0.1-0.2,0.2-0.3,0.4c-0.3,0.5-0.4,1-0.4,1.6
		c0,0.6,0.1,1.1,0.4,1.6C750.1,2449.3,750.5,2449.5,750.9,2449.5L750.9,2449.5z M760,2444.8l-3.3,8.9h-1.1l3.3-8.5h-4.3v-1h5.4
		L760,2444.8z M765.1,2444.1v1h-0.2c-0.7,0-1.4,0.3-1.9,0.8c-0.5,0.6-0.8,1.4-0.8,2.3c0.4-0.6,1.1-0.9,1.7-0.9
		c0.6,0,1.2,0.3,1.7,0.9c0.4,0.6,0.6,1.4,0.6,2.3c0,0.9-0.2,1.7-0.7,2.4c-0.5,0.6-1.1,0.9-1.8,0.9c-0.7,0-1.4-0.4-1.8-1.1
		c-0.5-0.8-0.7-1.7-0.7-2.7v-0.5c-0.1-1.4,0.3-2.9,0.9-4c0.7-1,1.7-1.5,2.8-1.4L765.1,2444.1z M763.7,2448.4c-0.7,0-1.3,0.5-1.6,1.3
		v0.4c0,0.7,0.1,1.3,0.4,1.9c0.2,0.4,0.7,0.7,1.1,0.7c0.4,0,0.8-0.2,1.1-0.6c0.3-0.5,0.4-1,0.4-1.6c0-0.6-0.1-1.1-0.4-1.6
		C764.5,2448.6,764.1,2448.4,763.7,2448.4L763.7,2448.4z M767.4,2455.6l-0.6-0.5c0.3-0.5,0.5-1.1,0.5-1.8v-1.1h1v1
		c0,0.5-0.1,0.9-0.3,1.3C768,2454.9,767.7,2455.3,767.4,2455.6L767.4,2455.6z M773.8,2450.5h1.1v1h-1.1v2.2h-1v-2.2h-3.6v-0.7
		l3.6-6.6h1.1V2450.5z M770.3,2450.5h2.5v-4.7l-0.1,0.3L770.3,2450.5z M776.3,2448.9l0.4-4.8h4.1v1.1h-3.2l-0.2,2.6
		c0.4-0.3,0.9-0.4,1.3-0.4c0.7,0,1.3,0.3,1.7,0.9c0.4,0.7,0.7,1.5,0.6,2.3c0,0.8-0.2,1.7-0.7,2.3c-0.5,0.6-1.2,0.9-1.9,0.8
		c-0.6,0-1.2-0.2-1.7-0.7c-0.5-0.5-0.7-1.2-0.8-1.9h1c0,0.5,0.2,0.9,0.5,1.2c0.3,0.3,0.7,0.4,1,0.4c0.4,0,0.8-0.2,1.1-0.6
		c0.3-0.5,0.4-1,0.4-1.6c0-0.6-0.1-1.1-0.4-1.5c-0.3-0.4-0.7-0.6-1.2-0.6c-0.4,0-0.7,0.1-1,0.3l-0.3,0.3L776.3,2448.9z"/>
	<path id="Trazado_102793" class="st2" d="M870.2,2558.7H865v-0.9l2.7-3.7c0.3-0.4,0.6-0.9,0.8-1.4c0.2-0.3,0.2-0.7,0.2-1.1
		c0-0.5-0.1-0.9-0.4-1.2c-0.3-0.3-0.6-0.5-1-0.5c-0.4,0-0.9,0.2-1.2,0.5c-0.3,0.4-0.4,0.9-0.4,1.4h-1c0-0.8,0.2-1.6,0.7-2.1
		c0.5-0.6,1.2-0.9,1.9-0.8c0.6,0,1.3,0.2,1.8,0.7c0.4,0.5,0.7,1.2,0.6,1.9c0,0.9-0.5,2.1-1.5,3.4l-2.1,2.8h4V2558.7z M876.4,2549.8
		l-3.3,8.9h-1.1l3.3-8.5h-4.3v-1h5.4L876.4,2549.8z M877.7,2558.1c0-0.2,0.1-0.4,0.2-0.5c0.1-0.1,0.3-0.2,0.5-0.2
		c0.2,0,0.3,0.1,0.5,0.2c0.1,0.1,0.2,0.3,0.2,0.5c0,0.2-0.1,0.4-0.2,0.5c-0.1,0.1-0.3,0.2-0.5,0.2c-0.3,0-0.6-0.2-0.6-0.6
		C877.7,2558.1,877.7,2558.1,877.7,2558.1L877.7,2558.1z M884.4,2554.5c-0.2,0.3-0.5,0.5-0.8,0.7c-0.3,0.2-0.6,0.3-1,0.3
		c-0.4,0-0.8-0.1-1.2-0.4c-0.3-0.3-0.6-0.7-0.8-1.1c-0.2-0.5-0.3-1.1-0.3-1.6c0-0.6,0.1-1.2,0.3-1.7c0.2-0.5,0.5-0.9,0.9-1.2
		c0.4-0.3,0.8-0.4,1.3-0.4c0.7,0,1.4,0.4,1.9,1.1c0.5,0.8,0.7,1.9,0.7,2.9v0.4c0,1.9-0.3,3.2-0.9,4.1c-0.7,0.9-1.7,1.4-2.8,1.3h-0.2
		v-1h0.2c0.7,0,1.4-0.2,1.9-0.8C884.1,2556.2,884.4,2555.4,884.4,2554.5z M882.8,2554.5c0.3,0,0.7-0.1,0.9-0.4
		c0.3-0.2,0.5-0.6,0.6-0.9v-0.5c0-0.7-0.1-1.4-0.4-1.9c-0.4-0.7-1.2-1-1.8-0.5c-0.1,0.1-0.2,0.2-0.3,0.4c-0.3,0.5-0.4,1-0.4,1.6
		c0,0.6,0.1,1.1,0.4,1.6C882,2554.3,882.4,2554.5,882.8,2554.5L882.8,2554.5z M891.9,2549.8l-3.3,8.9h-1.1l3.3-8.5h-4.3v-1h5.4
		L891.9,2549.8z M897,2549.2v1h-0.2c-0.7,0-1.4,0.3-1.9,0.8c-0.5,0.6-0.8,1.4-0.8,2.3c0.4-0.6,1.1-0.9,1.7-0.9
		c0.6,0,1.2,0.3,1.7,0.9c0.4,0.6,0.6,1.4,0.6,2.3c0,0.9-0.2,1.7-0.7,2.4c-0.5,0.6-1.1,0.9-1.8,0.9c-0.7,0-1.4-0.4-1.8-1.1
		c-0.5-0.8-0.7-1.7-0.7-2.7v-0.5c-0.1-1.4,0.3-2.9,0.9-4c0.7-1,1.7-1.5,2.8-1.4L897,2549.2z M895.7,2553.5c-0.7,0-1.3,0.5-1.6,1.3
		v0.4c0,0.7,0.1,1.3,0.4,1.9c0.2,0.4,0.7,0.7,1.1,0.7c0.4,0,0.8-0.2,1.1-0.6c0.3-0.5,0.4-1,0.4-1.6c0-0.6-0.1-1.1-0.4-1.6
		C896.5,2553.7,896.1,2553.4,895.7,2553.5L895.7,2553.5z M899.4,2560.6l-0.6-0.5c0.3-0.5,0.5-1.1,0.5-1.8v-1.1h1v1
		c0,0.5-0.1,0.9-0.3,1.3C899.9,2559.9,899.7,2560.3,899.4,2560.6L899.4,2560.6z M905.8,2555.5h1.1v1h-1.1v2.2h-1v-2.2h-3.6v-0.7
		l3.6-6.6h1.1V2555.5z M902.3,2555.5h2.5v-4.7l-0.1,0.3L902.3,2555.5z M908.3,2553.9l0.4-4.8h4.1v1.1h-3.2l-0.2,2.6
		c0.4-0.3,0.9-0.4,1.3-0.4c0.7,0,1.3,0.3,1.7,0.9c0.4,0.7,0.7,1.5,0.6,2.3c0,0.8-0.2,1.7-0.7,2.3c-0.5,0.6-1.2,0.9-1.9,0.8
		c-0.6,0-1.2-0.2-1.7-0.7c-0.5-0.5-0.7-1.2-0.8-1.9h1c0,0.5,0.2,0.9,0.5,1.2c0.3,0.3,0.7,0.4,1,0.4c0.4,0,0.8-0.2,1.1-0.6
		c0.3-0.5,0.4-1,0.4-1.6c0-0.6-0.1-1.1-0.4-1.5c-0.3-0.4-0.7-0.6-1.2-0.6c-0.4,0-0.7,0.1-1,0.3l-0.3,0.3L908.3,2553.9z"/>
	<line id="Línea_275" class="st3" x1="701" y1="2402.2" x2="701" y2="2601.2"/>
	<line id="Línea_274" class="st3" x1="828" y1="2402.2" x2="828" y2="2601.2"/>
	<path id="Trazado_102709" class="st4" d="M563.5,2351.2h400v50.9h-400V2351.2z"/>
	<path id="Trazado_102787" class="st1" d="M608.9,2377.1c0,0.9-0.3,1.8-0.7,2.6c-0.4,0.8-1,1.4-1.7,1.8c-0.8,0.4-1.7,0.6-2.5,0.6
		c-1.4,0.1-2.8-0.6-3.7-1.8c-1-1.5-1.4-3.3-1.4-5.2v-0.7c0-1.3,0.2-2.5,0.6-3.7c0.4-1,1-1.9,1.8-2.4c0.8-0.6,1.7-0.9,2.7-0.9
		c1.3-0.1,2.5,0.4,3.5,1.4c0.9,1,1.4,2.3,1.5,3.8h-2.9c0-0.7-0.2-1.4-0.5-1.9c-0.4-0.4-1-0.6-1.6-0.6c-0.6-0.1-1.2,0.3-1.6,1
		c-0.4,1-0.6,2-0.5,3.1v1c-0.1,1.1,0.1,2.2,0.5,3.3c0.4,0.7,1,1.1,1.6,1c0.5,0,1.1-0.2,1.5-0.6c0.4-0.5,0.6-1.1,0.6-1.8
		L608.9,2377.1z M619.6,2367.7v9.4c0,1-0.2,1.9-0.6,2.8c-0.4,0.8-0.9,1.4-1.6,1.8c-0.8,0.4-1.6,0.6-2.5,0.6
		c-1.2,0.1-2.5-0.4-3.4-1.4c-0.9-1-1.3-2.3-1.3-3.7v-9.4h2.9v9.5c0,1.6,0.6,2.3,1.8,2.3c0.5,0,1-0.2,1.4-0.6
		c0.3-0.5,0.5-1.2,0.5-1.9v-9.3H619.6z M628.8,2375.9h-4.5v3.4h5.3v2.7h-8.2v-14.3h8.2v2.7h-5.4v3h4.5L628.8,2375.9z M640.7,2382
		h-2.9l-4.2-8.9v8.9h-2.9v-14.3h2.9l4.2,8.9v-8.9h2.9L640.7,2382z M651.9,2370.3h-3.6v11.6h-2.9v-11.6h-3.5v-2.7h10L651.9,2370.3z
		 M658.9,2379.3H655l-0.7,2.7h-3.1l4.4-14.3h2.7l4.4,14.3h-3.1L658.9,2379.3z M655.7,2376.7h2.6l-1.3-5L655.7,2376.7z"/>
	<path id="Trazado_102788" class="st1" d="M728.4,2383.8v-14.3h3.8c1,0,2,0.3,2.8,0.9c0.8,0.6,1.5,1.4,2,2.4
		c0.5,1.1,0.7,2.3,0.7,3.5v0.7c0,1.2-0.2,2.4-0.7,3.5c-0.4,1-1.1,1.9-1.9,2.4c-0.9,0.6-1.8,0.9-2.8,0.9H728.4z M731.3,2372.2v9h1
		c0.7,0,1.5-0.3,1.9-1.1c0.5-0.9,0.7-2,0.7-3.1v-0.6c0.1-1.1-0.2-2.2-0.7-3.1c-0.5-0.7-1.2-1.1-1.9-1.1H731.3z M746.6,2377.7h-4.5
		v3.4h5.3v2.7h-8.2v-14.3h8.2v2.7h-5.4v3h4.5V2377.7z M744,2365.7h2.9l-2.3,3.1l-2.2,0L744,2365.7z M748.6,2383.8v-14.3h4.3
		c1.2-0.1,2.4,0.3,3.5,1c0.8,0.7,1.2,1.8,1.2,2.9c0,0.7-0.1,1.3-0.4,1.9c-0.3,0.5-0.7,0.9-1.3,1.2c0.6,0.2,1.1,0.5,1.4,1.1
		c0.3,0.6,0.5,1.3,0.5,2c0.1,1.2-0.3,2.4-1.1,3.2c-1,0.8-2.1,1.2-3.3,1.1H748.6z M751.5,2377.7v3.4h1.9c0.4,0,0.9-0.1,1.2-0.4
		c0.3-0.3,0.4-0.7,0.4-1.2c0.1-0.9-0.4-1.7-1.1-1.8c-0.1,0-0.2,0-0.4,0H751.5z M751.5,2375.5h1.5c0.5,0,0.9-0.1,1.3-0.4
		c0.3-0.3,0.4-0.7,0.4-1.2c0-0.5-0.1-1-0.4-1.3c-0.4-0.3-0.9-0.4-1.4-0.4h-1.4L751.5,2375.5z M762.5,2383.8h-2.9v-14.3h2.9V2383.8z
		 M773.8,2372.2h-3.6v11.6h-2.9v-11.6h-3.5v-2.7h10V2372.2z M784.9,2376.9c0,1.3-0.2,2.5-0.6,3.7c-0.4,1-1,1.9-1.8,2.5
		c-0.8,0.6-1.8,0.9-2.7,0.9c-0.9,0-1.9-0.3-2.7-0.8c-0.8-0.6-1.4-1.4-1.8-2.4c-0.5-1.1-0.7-2.3-0.7-3.6v-0.8c0-1.3,0.2-2.5,0.6-3.7
		c0.4-1,1-1.9,1.8-2.5c0.8-0.6,1.8-0.9,2.7-0.9c0.9,0,1.9,0.3,2.7,0.9c0.8,0.6,1.4,1.4,1.8,2.5c0.5,1.1,0.7,2.4,0.7,3.7V2376.9z
		 M782,2376.3c0.1-1.1-0.1-2.2-0.6-3.2c-0.4-0.7-1-1.1-1.7-1.1c-1.4,0-2.2,1.3-2.3,3.9l0,1.1c-0.1,1.1,0.1,2.2,0.6,3.2
		c0.4,0.7,1,1.2,1.7,1.1c0.7,0,1.3-0.4,1.7-1.1c0.4-1,0.6-2.1,0.6-3.2L782,2376.3z M792.5,2380c0-0.5-0.1-0.9-0.4-1.2
		c-0.5-0.4-1-0.7-1.6-0.9c-0.6-0.2-1.2-0.5-1.8-0.9c-1.5-0.9-2.3-2.2-2.3-3.8c0-0.8,0.2-1.5,0.6-2.1c0.4-0.6,1-1.1,1.6-1.4
		c0.8-0.3,1.6-0.5,2.4-0.5c0.8,0,1.6,0.2,2.3,0.6c0.6,0.3,1.2,0.9,1.6,1.6c0.4,0.7,0.6,1.5,0.6,2.3h-2.9c0-0.5-0.1-1-0.4-1.4
		c-0.3-0.3-0.8-0.5-1.2-0.5c-0.4,0-0.9,0.1-1.2,0.4c-0.3,0.2-0.4,0.6-0.4,1c0,0.4,0.2,0.8,0.5,1c0.5,0.4,1.1,0.7,1.7,0.9
		c0.7,0.3,1.4,0.6,2,1c1.2,0.7,1.9,2.1,1.9,3.7c0,1.2-0.4,2.3-1.2,2.9c-1,0.8-2.1,1.1-3.2,1.1c-0.9,0-1.8-0.2-2.6-0.6
		c-0.7-0.4-1.3-0.9-1.8-1.7c-0.4-0.7-0.6-1.6-0.6-2.5h2.9c0,0.6,0.1,1.2,0.5,1.7c0.5,0.4,1,0.6,1.6,0.5c0.4,0,0.8-0.1,1.1-0.4
		C792.4,2380.8,792.6,2380.4,792.5,2380z"/>
	<path id="Trazado_102789" class="st1" d="M864.4,2377.1c0,0.9-0.3,1.8-0.7,2.6c-0.4,0.8-1,1.4-1.7,1.8c-0.8,0.4-1.7,0.6-2.5,0.6
		c-1.4,0.1-2.8-0.6-3.7-1.8c-1-1.5-1.4-3.3-1.4-5.2v-0.7c0-1.3,0.2-2.5,0.6-3.7c0.4-1,1-1.9,1.8-2.4c0.8-0.6,1.7-0.9,2.7-0.9
		c1.3-0.1,2.5,0.4,3.5,1.4c0.9,1,1.4,2.3,1.5,3.8h-2.9c0-0.7-0.2-1.4-0.5-1.9c-0.4-0.4-1-0.6-1.6-0.6c-0.6-0.1-1.2,0.3-1.6,1
		c-0.4,1-0.6,2-0.5,3.1v1c-0.1,1.1,0.1,2.2,0.5,3.3c0.4,0.7,1,1.1,1.6,1c0.5,0,1.1-0.2,1.5-0.6c0.4-0.5,0.6-1.1,0.6-1.8
		L864.4,2377.1z M870.2,2376.9h-1.6v5.1h-2.9v-14.3h4.7c1.2-0.1,2.3,0.3,3.3,1.1c0.8,0.8,1.2,2,1.2,3.2c0,0.9-0.1,1.7-0.5,2.5
		c-0.4,0.7-0.9,1.3-1.6,1.6l2.5,5.8v0.1h-3.1L870.2,2376.9z M868.7,2374.3h1.8c0.5,0,0.9-0.1,1.2-0.5c0.3-0.4,0.4-0.9,0.4-1.4
		c0-0.5-0.1-1.1-0.4-1.5c-0.3-0.4-0.8-0.6-1.2-0.5h-1.8L868.7,2374.3z M884.1,2375.9h-4.5v3.4h5.3v2.7h-8.2v-14.3h8.2v2.7h-5.4v3
		h4.5L884.1,2375.9z M881.4,2363.8h2.9l-2.3,3.1l-2.2,0L881.4,2363.8z M886.1,2382v-14.3h3.8c1,0,2,0.3,2.8,0.9
		c0.8,0.6,1.5,1.4,2,2.4c0.5,1.1,0.7,2.3,0.7,3.5v0.7c0,1.2-0.2,2.4-0.7,3.5c-0.4,1-1.1,1.9-1.9,2.4c-0.9,0.6-1.8,0.9-2.8,0.9H886.1
		z M889,2370.3v9h1c0.7,0,1.5-0.3,1.9-1.1c0.5-0.9,0.7-2,0.7-3.1v-0.6c0.1-1.1-0.2-2.2-0.7-3.1c-0.5-0.7-1.2-1.1-1.9-1.1H889z
		 M900,2382h-2.9v-14.3h2.9V2382z M911.3,2370.3h-3.6v11.6h-2.9v-11.6h-3.5v-2.7h10V2370.3z M922.4,2375.1c0,1.3-0.2,2.5-0.6,3.7
		c-0.4,1-1,1.9-1.8,2.5c-0.8,0.6-1.8,0.9-2.7,0.9c-0.9,0-1.9-0.3-2.7-0.8c-0.8-0.6-1.4-1.4-1.8-2.4c-0.5-1.1-0.7-2.3-0.7-3.6v-0.8
		c0-1.3,0.2-2.5,0.6-3.7c0.4-1,1-1.9,1.8-2.5c0.8-0.6,1.8-0.9,2.7-0.9c0.9,0,1.9,0.3,2.7,0.9c0.8,0.6,1.4,1.4,1.8,2.5
		c0.5,1.1,0.7,2.4,0.7,3.7V2375.1z M919.5,2374.5c0.1-1.1-0.1-2.2-0.6-3.2c-0.4-0.7-1-1.1-1.7-1.1c-1.4,0-2.2,1.3-2.3,3.9l0,1.1
		c-0.1,1.1,0.1,2.2,0.6,3.2c0.4,0.7,1,1.2,1.7,1.1c0.7,0,1.3-0.4,1.7-1.1c0.4-1,0.6-2.1,0.6-3.2V2374.5z M930,2378.2
		c0-0.5-0.1-0.9-0.4-1.2c-0.5-0.4-1-0.7-1.6-0.9c-0.6-0.2-1.2-0.5-1.8-0.9c-1.5-0.9-2.3-2.2-2.3-3.8c0-0.8,0.2-1.5,0.6-2.1
		c0.4-0.6,1-1.1,1.6-1.4c0.8-0.3,1.6-0.5,2.4-0.5c0.8,0,1.6,0.2,2.3,0.6c0.6,0.3,1.2,0.9,1.6,1.6c0.4,0.7,0.6,1.5,0.6,2.3H930
		c0-0.5-0.1-1-0.4-1.4c-0.3-0.3-0.8-0.5-1.2-0.5c-0.4,0-0.9,0.1-1.2,0.4c-0.3,0.2-0.4,0.6-0.4,1c0,0.4,0.2,0.8,0.5,1
		c0.5,0.4,1.1,0.7,1.7,0.9c0.7,0.3,1.4,0.6,2,1c1.2,0.7,1.9,2.1,1.9,3.7c0,1.2-0.4,2.3-1.2,2.9c-1,0.8-2.1,1.1-3.2,1.1
		c-0.9,0-1.8-0.2-2.6-0.6c-0.7-0.4-1.3-0.9-1.8-1.7c-0.4-0.7-0.6-1.6-0.6-2.5h2.9c0,0.6,0.1,1.2,0.5,1.7c0.5,0.4,1,0.6,1.6,0.5
		c0.4,0,0.8-0.1,1.1-0.4C929.9,2379,930,2378.6,930,2378.2z"/>
</g>
</svg>
