<?xml version="1.0" encoding="utf-8"?>
<!-- Generator: Adobe Illustrator 25.2.3, SVG Export Plug-In . SVG Version: 6.00 Build 0)  -->
<svg version="1.1" id="Capa_1" xmlns="http://www.w3.org/2000/svg" xmlns:xlink="http://www.w3.org/1999/xlink" x="0px" y="0px"
	 viewBox="0 0 573 245" style="enable-background:new 0 0 573 245;" xml:space="preserve">
<style type="text/css">
	.st0{fill:#F6F6F6;}
	.st1{fill:#FFFFFF;}
	.st2{fill:#12263F;}
	.st3{font-family:'ArialMT';}
	.st4{font-size:14.721px;}
	.st5{font-size:13.0853px;}
	.st6{fill:none;stroke:#AFAFAF;stroke-linecap:round;}
	.st7{fill:#D9A171;}
	.st8{font-size:19.628px;}
</style>
<g id="Grupo_54963" transform="translate(-475 -2834.004)">
	<rect id="Rectángulo_6898" x="551.5" y="2905.9" class="st0" width="420" height="50.6"/>
	<rect id="Rectángulo_6899" x="551.5" y="2956.6" class="st1" width="420" height="99.7"/>
	<text transform="matrix(0.8963 0 0 1 567.6255 2990.1396)" class="st2 st3 st4">Valores </text>
	<text transform="matrix(0.8963 0 0 1 567.6255 3012.2217)" class="st2 st3 st4">representativos de </text>
	<text transform="matrix(0.8963 0 0 1 567.6255 3034.3027)" class="st2 st3 st4">deuda a corto plazo</text>
	<text transform="matrix(0.8963 0 0 1 567.6255 2939.4346)" class="st2 st3 st4">Bancos</text>
	<text transform="matrix(0.8963 0 0 1 728.8564 2939.4346)" class="st2 st3 st5">418.418,34</text>
	<text transform="matrix(0.8963 0 0 1 867.416 3005.5332)" class="st2 st3 st5">418.418,34</text>
	<line id="Línea_276" class="st6" x1="695.9" y1="2905.9" x2="695.9" y2="3056.3"/>
	<line id="Línea_277" class="st6" x1="829.3" y1="2881.4" x2="829.3" y2="3031.8"/>
	<path id="Trazado_102710" class="st7" d="M551.5,2856.3h419.9v49.6H551.5V2856.3z"/>
	<text transform="matrix(0.8963 0 0 1 588.1309 2886.2754)" class="st1 st3 st8">CUENTA</text>
	<text transform="matrix(0.8963 0 0 1 723.7285 2888.042)" class="st1 st3 st8">DÉBITOS</text>
	<text transform="matrix(0.8963 0 0 1 856.4258 2886.2754)" class="st1 st3 st8">CRÉDITOS</text>
</g>
</svg>
