<?xml version="1.0" encoding="utf-8"?>
<!-- Generator: Adobe Illustrator 25.2.3, SVG Export Plug-In . SVG Version: 6.00 Build 0)  -->
<svg version="1.1" id="Capa_1" xmlns="http://www.w3.org/2000/svg" xmlns:xlink="http://www.w3.org/1999/xlink" x="0px" y="0px"
	 viewBox="0 0 573 245" style="enable-background:new 0 0 573 245;" xml:space="preserve">
<style type="text/css">
	.st0{fill:#F6F6F6;}
	.st1{fill:#FFFFFF;}
	.st2{fill:#12263F;}
	.st3{fill:none;stroke:#AFAFAF;stroke-linecap:round;}
	.st4{fill:#D9A171;}
</style>
<g id="Grupo_54963" transform="translate(-475 -2834.004)">
	<rect id="Rectángulo_6898" x="561.5" y="2900.9" class="st0" width="400" height="55.7"/>
	<rect id="Rectángulo_6899" x="561.5" y="2956.6" class="st1" width="400" height="109.7"/>
	<path id="Trazado_102799" class="st2" d="M581,2990.4l1.8-8.4h2.4l-3,11.5h-2.4l-3-11.5h2.4L581,2990.4z M589.2,2993.5
		c-0.1-0.2-0.2-0.5-0.2-0.8c-0.4,0.6-1,1-1.6,0.9c-0.6,0-1.2-0.2-1.6-0.7c-0.4-0.5-0.7-1.1-0.7-1.8c0-0.8,0.3-1.6,0.8-2.1
		c0.7-0.5,1.5-0.8,2.3-0.7h0.6v-0.4c0-0.8-0.3-1.2-0.8-1.2c-0.4-0.1-0.7,0.2-0.7,0.7c0,0.1,0,0.2,0,0.2h-2.1c0-0.8,0.3-1.6,0.8-2
		c0.6-0.5,1.3-0.8,2.1-0.8c0.7-0.1,1.4,0.2,2,0.8c0.5,0.5,0.8,1.4,0.8,2.2v3.8c0,0.6,0.1,1.2,0.3,1.8v0.1H589.2z M587.9,2991.8
		c0.2,0,0.4-0.1,0.6-0.2c0.2-0.1,0.3-0.3,0.4-0.5v-1.4h-0.6c-0.7,0-1.1,0.4-1.1,1.2c0,0.2,0.1,0.4,0.2,0.6
		C587.5,2991.7,587.7,2991.8,587.9,2991.8z M594.3,2993.5h-2.1v-12.1h2.1V2993.5z M595.3,2989.2c0-0.8,0.1-1.6,0.4-2.3
		c0.2-0.6,0.6-1.2,1.1-1.5c0.5-0.4,1.1-0.6,1.7-0.5c0.9-0.1,1.7,0.4,2.3,1.2c0.6,0.9,0.9,2.1,0.9,3.2v0.1c0,1.2-0.3,2.3-0.9,3.2
		c-0.6,0.8-1.5,1.2-2.3,1.2c-0.8,0.1-1.7-0.3-2.3-1.1c-0.6-0.8-0.9-1.9-0.9-3L595.3,2989.2z M597.4,2989.3c0,0.6,0.1,1.2,0.3,1.7
		c0.2,0.4,0.5,0.6,0.9,0.6c0.7,0,1.1-0.7,1.1-2.2v-0.3c0-1.5-0.4-2.3-1.1-2.3c-0.7,0-1.1,0.7-1.1,2L597.4,2989.3z M606.7,2987.4
		l-0.7-0.1c-0.5-0.1-1,0.2-1.3,0.8v5.4h-2.1v-8.6h1.9l0.1,1.1c0.2-0.8,0.8-1.2,1.5-1.3c0.2,0,0.4,0,0.6,0.1L606.7,2987.4z
		 M610.6,2993.7c-0.9,0.1-1.8-0.4-2.5-1.2c-0.6-0.8-1-1.9-0.9-3.1v-0.2c0-0.8,0.1-1.6,0.4-2.3c0.2-0.6,0.6-1.2,1.1-1.6
		c0.5-0.4,1.1-0.6,1.7-0.5c0.8-0.1,1.6,0.4,2.2,1.1c0.6,0.9,0.9,2,0.8,3.1v1h-4.1c0.1,0.4,0.2,0.8,0.5,1.1c0.3,0.3,0.6,0.4,1,0.4
		c0.6,0,1.2-0.3,1.5-0.9l0.9,1.4c-0.3,0.5-0.7,0.9-1.1,1.1C611.7,2993.5,611.1,2993.7,610.6,2993.7L610.6,2993.7z M610.4,2986.9
		c-0.6,0-1,0.5-1.1,1.6h2.1v-0.2c0-0.4-0.1-0.7-0.3-1C610.9,2987,610.7,2986.8,610.4,2986.9z M617.7,2991.1c0-0.2-0.1-0.4-0.3-0.5
		c-0.3-0.2-0.7-0.3-1-0.4c-0.4-0.1-0.9-0.3-1.3-0.6c-0.3-0.2-0.6-0.5-0.8-0.9c-0.2-0.3-0.3-0.8-0.3-1.2c0-0.8,0.3-1.5,0.8-1.9
		c0.6-0.5,1.3-0.8,2-0.8c0.7,0,1.5,0.2,2.1,0.8c0.5,0.5,0.8,1.2,0.8,2h-2.1c0-0.7-0.3-1-0.8-1c-0.2,0-0.4,0.1-0.5,0.2
		c-0.1,0.1-0.2,0.4-0.2,0.6c0,0.2,0.1,0.5,0.3,0.6c0.3,0.2,0.6,0.3,0.9,0.4c0.4,0.1,0.7,0.2,1,0.3c0.9,0.2,1.5,1.2,1.5,2.4
		c0,0.8-0.3,1.5-0.8,1.9c-0.6,0.5-1.4,0.8-2.1,0.7c-0.5,0-1-0.1-1.5-0.4c-0.4-0.2-0.8-0.6-1-1.1c-0.2-0.4-0.4-0.9-0.4-1.4h1.9
		c0,0.3,0.1,0.7,0.3,0.9c0.2,0.2,0.5,0.3,0.8,0.3c0.2,0,0.4-0.1,0.6-0.2C617.6,2991.5,617.7,2991.3,617.7,2991.1L617.7,2991.1z
		 M581.5,3011.7l-0.7-0.1c-0.5-0.1-1,0.2-1.3,0.8v5.4h-2.1v-8.6h1.9l0.1,1.1c0.2-0.8,0.8-1.2,1.5-1.3c0.2,0,0.4,0,0.6,0.1
		L581.5,3011.7z M585.4,3018c-0.9,0.1-1.8-0.4-2.5-1.2c-0.6-0.8-1-1.9-0.9-3.1v-0.2c0-0.8,0.1-1.6,0.4-2.3c0.2-0.6,0.6-1.2,1.1-1.6
		c0.5-0.4,1.1-0.6,1.7-0.5c0.8-0.1,1.6,0.4,2.2,1.1c0.6,0.9,0.9,2,0.8,3.1v1h-4.1c0.1,0.4,0.2,0.8,0.5,1.1c0.3,0.3,0.6,0.4,1,0.4
		c0.6,0,1.2-0.3,1.5-0.9l0.9,1.4c-0.3,0.5-0.7,0.9-1.1,1.1C586.5,3017.8,585.9,3018,585.4,3018L585.4,3018z M585.2,3011.2
		c-0.6,0-1,0.5-1.1,1.6h2.1v-0.2c0-0.4-0.1-0.7-0.3-1C585.7,3011.3,585.5,3011.1,585.2,3011.2z M595.2,3013.6c0,1.1-0.2,2.2-0.7,3.2
		c-0.4,0.8-1.1,1.2-1.9,1.2c-0.6,0-1.1-0.3-1.5-0.9v4h-2.1v-11.8h1.9l0.1,0.8c0.4-0.6,1-1,1.6-0.9c0.7,0,1.5,0.4,1.9,1.2
		c0.5,0.9,0.7,2.1,0.7,3.2L595.2,3013.6z M593.1,3013.4c0-1.5-0.3-2.3-1-2.3c-0.4-0.1-0.8,0.2-1,0.7v3.4c0.2,0.5,0.6,0.8,1,0.7
		c0.7,0,1-0.7,1-2.2V3013.4z M600.1,3011.7l-0.7-0.1c-0.5-0.1-1,0.2-1.3,0.8v5.4h-2.1v-8.6h1.9l0.1,1.1c0.2-0.8,0.8-1.2,1.5-1.3
		c0.2,0,0.4,0,0.6,0.1L600.1,3011.7z M604.1,3018c-0.9,0.1-1.8-0.4-2.5-1.2c-0.6-0.8-1-1.9-0.9-3.1v-0.2c0-0.8,0.1-1.6,0.4-2.3
		c0.2-0.6,0.6-1.2,1.1-1.6c0.5-0.4,1.1-0.6,1.7-0.5c0.8-0.1,1.6,0.4,2.2,1.1c0.6,0.9,0.9,2,0.8,3.1v1h-4.1c0.1,0.4,0.2,0.8,0.5,1.1
		c0.3,0.3,0.6,0.4,1,0.4c0.6,0,1.2-0.3,1.5-0.9l0.9,1.4c-0.3,0.5-0.7,0.9-1.1,1.1C605.1,3017.8,604.6,3018,604.1,3018L604.1,3018z
		 M603.9,3011.2c-0.6,0-1,0.5-1.1,1.6h2.1v-0.2c0-0.4-0.1-0.7-0.3-1C604.4,3011.3,604.1,3011.1,603.9,3011.2z M611.2,3015.4
		c0-0.2-0.1-0.4-0.3-0.5c-0.3-0.2-0.7-0.3-1-0.4c-0.4-0.1-0.9-0.3-1.3-0.6c-0.3-0.2-0.6-0.5-0.8-0.9c-0.2-0.3-0.3-0.8-0.3-1.2
		c0-0.8,0.3-1.5,0.8-1.9c0.6-0.5,1.3-0.8,2-0.8c0.7,0,1.5,0.2,2.1,0.8c0.5,0.5,0.8,1.2,0.8,2h-2.1c0-0.7-0.3-1-0.8-1
		c-0.2,0-0.4,0.1-0.5,0.2c-0.1,0.1-0.2,0.4-0.2,0.6c0,0.2,0.1,0.5,0.3,0.6c0.3,0.2,0.6,0.3,0.9,0.4c0.4,0.1,0.7,0.2,1,0.3
		c0.9,0.2,1.5,1.2,1.5,2.4c0,0.8-0.3,1.5-0.8,1.9c-0.6,0.5-1.4,0.8-2.1,0.7c-0.5,0-1-0.1-1.5-0.4c-0.4-0.2-0.8-0.6-1-1.1
		c-0.2-0.4-0.4-0.9-0.4-1.4h1.9c0,0.3,0.1,0.7,0.3,0.9c0.2,0.2,0.5,0.3,0.8,0.3c0.2,0,0.4-0.1,0.6-0.2
		C611.1,3015.8,611.2,3015.6,611.2,3015.4L611.2,3015.4z M617.4,3018c-0.9,0.1-1.8-0.4-2.5-1.2c-0.6-0.8-1-1.9-0.9-3.1v-0.2
		c0-0.8,0.1-1.6,0.4-2.3c0.2-0.6,0.6-1.2,1.1-1.6c0.5-0.4,1.1-0.6,1.7-0.5c0.8-0.1,1.6,0.4,2.2,1.1c0.6,0.9,0.9,2,0.8,3.1v1h-4.1
		c0.1,0.4,0.2,0.8,0.5,1.1c0.3,0.3,0.6,0.4,1,0.4c0.6,0,1.2-0.3,1.5-0.9l0.9,1.4c-0.3,0.5-0.7,0.9-1.1,1.1
		C618.4,3017.8,617.9,3018,617.4,3018L617.4,3018z M617.1,3011.2c-0.6,0-1,0.5-1.1,1.6h2.1v-0.2c0-0.4-0.1-0.7-0.3-1
		C617.7,3011.3,617.4,3011.1,617.1,3011.2z M622.9,3009.3l0.1,1c0.4-0.8,1.2-1.2,1.9-1.2c0.6-0.1,1.2,0.2,1.5,0.8
		c0.4,0.7,0.6,1.5,0.5,2.4v5.5h-2.1v-5.4c0-0.3,0-0.7-0.2-1c-0.2-0.2-0.5-0.3-0.7-0.3c-0.4,0-0.7,0.2-0.9,0.6v6H621v-8.6
		L622.9,3009.3z M630.5,3007.1v2.1h1.1v1.9h-1.1v3.9c0,0.2,0,0.5,0.1,0.7c0.2,0.2,0.3,0.2,0.5,0.2c0.2,0,0.3,0,0.5,0v1.9
		c-0.4,0.2-0.8,0.2-1.2,0.2c-0.6,0.1-1.1-0.2-1.6-0.6c-0.4-0.5-0.6-1.3-0.5-2v-4.2h-0.8v-1.9h0.8v-2.1L630.5,3007.1z M636.1,3017.8
		c-0.1-0.2-0.2-0.5-0.2-0.8c-0.4,0.6-1,1-1.6,0.9c-0.6,0-1.2-0.2-1.6-0.7c-0.4-0.5-0.7-1.1-0.7-1.8c0-0.8,0.3-1.6,0.8-2.1
		c0.7-0.5,1.5-0.8,2.3-0.7h0.6v-0.4c0-0.8-0.3-1.2-0.8-1.2c-0.4-0.1-0.7,0.2-0.7,0.7c0,0.1,0,0.2,0,0.2h-2.1c0-0.8,0.3-1.6,0.8-2
		c0.6-0.5,1.3-0.8,2.1-0.8c0.7-0.1,1.4,0.2,2,0.8c0.5,0.5,0.8,1.4,0.8,2.2v3.8c0,0.6,0.1,1.2,0.3,1.8v0.1H636.1z M634.8,3016.1
		c0.2,0,0.4-0.1,0.6-0.2c0.2-0.1,0.3-0.3,0.4-0.5v-1.4h-0.6c-0.7,0-1.1,0.4-1.1,1.2c0,0.2,0.1,0.4,0.2,0.6
		C634.5,3016,634.7,3016.1,634.8,3016.1z M641.5,3007.1v2.1h1.1v1.9h-1.1v3.9c0,0.2,0,0.5,0.1,0.7c0.2,0.2,0.3,0.2,0.5,0.2
		c0.2,0,0.3,0,0.5,0v1.9c-0.4,0.2-0.8,0.2-1.2,0.2c-0.6,0.1-1.1-0.2-1.6-0.6c-0.4-0.5-0.6-1.3-0.5-2v-4.2h-0.8v-1.9h0.8v-2.1H641.5z
		 M645.6,3017.8h-2.1v-8.6h2.1V3017.8z M643.4,3007.1c0-0.4,0.1-0.7,0.3-0.9c0.5-0.5,1.2-0.5,1.7,0c0.4,0.5,0.4,1.3,0.1,1.8
		c0,0,0,0.1-0.1,0.1c-0.5,0.5-1.2,0.5-1.7,0C643.5,3007.8,643.4,3007.4,643.4,3007.1z M649.5,3014.6l1-5.4h2.2l-2.2,8.6h-2.1
		l-2.2-8.6h2.2L649.5,3014.6z M653,3013.5c0-0.8,0.1-1.6,0.4-2.3c0.2-0.6,0.6-1.2,1.1-1.5c0.5-0.4,1.1-0.6,1.7-0.5
		c0.9-0.1,1.7,0.4,2.3,1.2c0.6,0.9,0.9,2.1,0.9,3.2v0.1c0,1.2-0.3,2.3-0.9,3.2c-0.6,0.8-1.5,1.2-2.3,1.2c-0.8,0.1-1.7-0.3-2.3-1.1
		c-0.6-0.8-0.9-1.9-0.9-3L653,3013.5z M655,3013.6c0,0.6,0.1,1.2,0.3,1.7c0.2,0.4,0.5,0.6,0.9,0.6c0.7,0,1.1-0.7,1.1-2.2v-0.3
		c0-1.5-0.4-2.3-1.1-2.3c-0.7,0-1.1,0.7-1.1,2L655,3013.6z M663.8,3015.4c0-0.2-0.1-0.4-0.3-0.5c-0.3-0.2-0.7-0.3-1-0.4
		c-0.4-0.1-0.9-0.3-1.3-0.6c-0.3-0.2-0.6-0.5-0.8-0.9c-0.2-0.3-0.3-0.8-0.3-1.2c0-0.8,0.3-1.5,0.8-1.9c0.6-0.5,1.3-0.8,2-0.8
		c0.7,0,1.5,0.2,2.1,0.8c0.5,0.5,0.8,1.2,0.8,2h-2.1c0-0.7-0.3-1-0.8-1c-0.2,0-0.4,0.1-0.5,0.2c-0.1,0.1-0.2,0.4-0.2,0.6
		c0,0.2,0.1,0.5,0.3,0.6c0.3,0.2,0.6,0.3,0.9,0.4c0.4,0.1,0.7,0.2,1,0.3c0.9,0.2,1.5,1.2,1.5,2.4c0,0.8-0.3,1.5-0.8,1.9
		c-0.6,0.5-1.4,0.8-2.1,0.7c-0.5,0-1-0.1-1.5-0.4c-0.4-0.2-0.8-0.6-1-1.1c-0.2-0.4-0.4-0.9-0.4-1.4h1.9c0,0.3,0.1,0.7,0.3,0.9
		c0.2,0.2,0.5,0.3,0.8,0.3c0.2,0,0.4-0.1,0.6-0.2C663.7,3015.8,663.8,3015.6,663.8,3015.4L663.8,3015.4z M669.6,3013.5
		c0-1.1,0.2-2.3,0.7-3.2c0.4-0.8,1.2-1.2,1.9-1.2c0.6,0,1.1,0.3,1.5,0.9v-4.3h2.1v12.1h-1.9l-0.1-0.9c-0.4,0.7-1,1.1-1.6,1.1
		c-0.7,0-1.4-0.4-1.9-1.2C669.8,3015.8,669.5,3014.7,669.6,3013.5L669.6,3013.5z M671.7,3013.6c0,1.5,0.3,2.3,1,2.3
		c0.4,0,0.8-0.3,1-0.7v-3.3c-0.2-0.5-0.6-0.8-1-0.8c-0.6,0-1,0.7-1,2L671.7,3013.6z M680.1,3018c-0.9,0.1-1.8-0.4-2.5-1.2
		c-0.6-0.8-1-1.9-0.9-3.1v-0.2c0-0.8,0.1-1.6,0.4-2.3c0.2-0.6,0.6-1.2,1.1-1.6c0.5-0.4,1.1-0.6,1.7-0.5c0.8-0.1,1.6,0.4,2.2,1.1
		c0.6,0.9,0.9,2,0.8,3.1v1h-4.1c0.1,0.4,0.2,0.8,0.5,1.1c0.3,0.3,0.6,0.4,1,0.4c0.6,0,1.2-0.3,1.5-0.9l0.9,1.4
		c-0.3,0.5-0.7,0.9-1.1,1.1C681.2,3017.8,680.7,3018,680.1,3018L680.1,3018z M679.9,3011.2c-0.6,0-1,0.5-1.1,1.6h2.1v-0.2
		c0-0.4-0.1-0.7-0.3-1C680.4,3011.3,680.2,3011.1,679.9,3011.2z M577.2,3037.8c0-1.1,0.2-2.3,0.7-3.2c0.4-0.8,1.2-1.2,1.9-1.2
		c0.6,0,1.1,0.3,1.5,0.9v-4.3h2.1v12.1h-1.9l-0.1-0.9c-0.4,0.7-1,1.1-1.6,1.1c-0.7,0-1.4-0.4-1.9-1.2
		C577.4,3040.1,577.1,3038.9,577.2,3037.8z M579.2,3037.9c0,1.5,0.3,2.3,1,2.3c0.4,0,0.8-0.3,1-0.7v-3.3c-0.2-0.5-0.6-0.8-1-0.8
		c-0.6,0-1,0.7-1,2L579.2,3037.9z M587.7,3042.3c-0.9,0.1-1.8-0.4-2.5-1.2c-0.6-0.8-1-1.9-0.9-3.1v-0.2c0-0.8,0.1-1.6,0.4-2.3
		c0.2-0.6,0.6-1.2,1.1-1.6c0.5-0.4,1.1-0.6,1.7-0.5c0.8-0.1,1.6,0.4,2.2,1.1c0.6,0.9,0.9,2,0.8,3.1v1h-4.1c0.1,0.4,0.2,0.8,0.5,1.1
		c0.3,0.3,0.6,0.4,1,0.4c0.6,0,1.2-0.3,1.5-0.9l0.9,1.4c-0.3,0.5-0.7,0.9-1.1,1.1C588.8,3042.1,588.2,3042.3,587.7,3042.3z
		 M587.5,3035.4c-0.6,0-1,0.5-1.1,1.6h2.1v-0.2c0-0.4-0.1-0.7-0.3-1C588,3035.6,587.8,3035.4,587.5,3035.4z M595.3,3041.2
		c-0.4,0.7-1.1,1.1-1.8,1.1c-0.6,0.1-1.2-0.2-1.7-0.8c-0.4-0.7-0.6-1.5-0.6-2.4v-5.5h2.1v5.6c-0.1,0.5,0.2,1,0.6,1.1
		c0.1,0,0.1,0,0.2,0c0.4,0,0.8-0.2,1-0.7v-6h2.1v8.6h-1.9L595.3,3041.2z M598.2,3037.8c0-1.1,0.2-2.3,0.7-3.2
		c0.4-0.8,1.2-1.2,1.9-1.2c0.6,0,1.1,0.3,1.5,0.9v-4.3h2.1v12.1h-1.9l-0.1-0.9c-0.4,0.7-1,1.1-1.6,1.1c-0.7,0-1.4-0.4-1.9-1.2
		C598.4,3040.1,598.1,3038.9,598.2,3037.8L598.2,3037.8z M600.2,3037.9c0,1.5,0.3,2.3,1,2.3c0.4,0,0.8-0.3,1-0.7v-3.3
		c-0.2-0.5-0.6-0.8-1-0.8c-0.6,0-1,0.7-1,2L600.2,3037.9z M609.2,3042.1c-0.1-0.2-0.2-0.5-0.2-0.8c-0.4,0.6-1,1-1.6,0.9
		c-0.6,0-1.2-0.2-1.6-0.7c-0.4-0.5-0.7-1.1-0.7-1.8c0-0.8,0.3-1.6,0.8-2.1c0.7-0.5,1.5-0.8,2.3-0.7h0.6v-0.4c0-0.8-0.3-1.2-0.8-1.2
		c-0.4-0.1-0.7,0.2-0.7,0.7c0,0.1,0,0.2,0,0.2h-2.1c0-0.8,0.3-1.6,0.8-2c0.6-0.5,1.3-0.8,2.1-0.8c0.7-0.1,1.4,0.2,2,0.8
		c0.5,0.5,0.8,1.4,0.8,2.2v3.8c0,0.6,0.1,1.2,0.3,1.8v0.1H609.2z M607.9,3040.4c0.2,0,0.4-0.1,0.6-0.2c0.2-0.1,0.3-0.3,0.4-0.5v-1.4
		h-0.6c-0.7,0-1.1,0.4-1.1,1.2c0,0.2,0.1,0.4,0.2,0.6C607.6,3040.3,607.8,3040.4,607.9,3040.4L607.9,3040.4z M619,3042.1
		c-0.1-0.2-0.2-0.5-0.2-0.8c-0.4,0.6-1,1-1.6,0.9c-0.6,0-1.2-0.2-1.6-0.7c-0.4-0.5-0.7-1.1-0.7-1.8c0-0.8,0.3-1.6,0.8-2.1
		c0.7-0.5,1.5-0.8,2.3-0.7h0.6v-0.4c0-0.8-0.3-1.2-0.8-1.2c-0.4-0.1-0.7,0.2-0.7,0.7c0,0.1,0,0.2,0,0.2h-2.1c0-0.8,0.3-1.6,0.8-2
		c0.6-0.5,1.3-0.8,2.1-0.8c0.7-0.1,1.4,0.2,2,0.8c0.5,0.5,0.8,1.4,0.8,2.2v3.8c0,0.6,0.1,1.2,0.3,1.8v0.1H619z M617.7,3040.4
		c0.2,0,0.4-0.1,0.6-0.2c0.2-0.1,0.3-0.3,0.4-0.5v-1.4h-0.6c-0.7,0-1.1,0.4-1.1,1.2c0,0.2,0.1,0.4,0.2,0.6
		C617.4,3040.3,617.6,3040.4,617.7,3040.4z M627.9,3040.2c0.2,0,0.5-0.1,0.7-0.3c0.2-0.2,0.3-0.5,0.2-0.9h1.9c0,0.9-0.3,1.7-0.8,2.3
		c-0.6,0.6-1.3,0.9-2,0.9c-0.9,0.1-1.7-0.4-2.3-1.2c-0.6-0.9-0.9-2.1-0.8-3.2v-0.1c0-0.8,0.1-1.6,0.4-2.3c0.2-0.6,0.6-1.2,1.1-1.5
		c0.5-0.4,1.1-0.6,1.7-0.5c0.8-0.1,1.5,0.3,2.1,0.9c0.5,0.7,0.8,1.6,0.8,2.5h-1.9c0-0.4-0.1-0.7-0.3-1c-0.2-0.2-0.4-0.4-0.7-0.4
		c-0.5,0-0.8,0.4-0.9,1.3c0,0.4,0,0.8,0,1.2c0,0.6,0,1.2,0.2,1.8C627.3,3040,627.6,3040.2,627.9,3040.2L627.9,3040.2z M631.4,3037.7
		c0-0.8,0.1-1.6,0.4-2.3c0.2-0.6,0.6-1.2,1.1-1.5c0.5-0.4,1.1-0.6,1.7-0.5c0.9-0.1,1.7,0.4,2.3,1.2c0.6,0.9,0.9,2.1,0.9,3.2v0.1
		c0,1.2-0.3,2.3-0.9,3.2c-0.6,0.8-1.5,1.2-2.3,1.2c-0.8,0.1-1.7-0.3-2.3-1.1c-0.6-0.8-0.9-1.9-0.9-3L631.4,3037.7z M633.4,3037.9
		c0,0.6,0.1,1.2,0.3,1.7c0.2,0.4,0.5,0.6,0.9,0.6c0.7,0,1.1-0.7,1.1-2.2v-0.3c0-1.5-0.4-2.3-1.1-2.3c-0.7,0-1.1,0.7-1.1,2
		L633.4,3037.9z M642.7,3036l-0.7-0.1c-0.5-0.1-1,0.2-1.3,0.8v5.4h-2.1v-8.6h1.9l0.1,1.1c0.2-0.8,0.8-1.2,1.5-1.3
		c0.2,0,0.4,0,0.6,0.1L642.7,3036z M646.2,3031.4v2.1h1.1v1.9h-1.1v3.9c0,0.2,0,0.5,0.1,0.7c0.2,0.2,0.3,0.2,0.5,0.2
		c0.2,0,0.3,0,0.5,0v1.9c-0.4,0.2-0.8,0.2-1.2,0.2c-0.6,0.1-1.1-0.2-1.6-0.6c-0.4-0.5-0.6-1.3-0.5-2v-4.2h-0.8v-1.9h0.8v-2.1H646.2z
		 M647.6,3037.7c0-0.8,0.1-1.6,0.4-2.3c0.2-0.6,0.6-1.2,1.1-1.5c0.5-0.4,1.1-0.6,1.7-0.5c0.9-0.1,1.7,0.4,2.3,1.2
		c0.6,0.9,0.9,2.1,0.9,3.2v0.1c0,1.2-0.3,2.3-0.9,3.2c-0.6,0.8-1.5,1.2-2.3,1.2c-0.8,0.1-1.7-0.3-2.3-1.1c-0.6-0.8-0.9-1.9-0.9-3
		L647.6,3037.7z M649.7,3037.9c0,0.6,0.1,1.2,0.3,1.7c0.2,0.4,0.5,0.6,0.9,0.6c0.7,0,1.1-0.7,1.1-2.2v-0.3c0-1.5-0.4-2.3-1.1-2.3
		c-0.7,0-1.1,0.7-1.1,2L649.7,3037.9z M664.2,3037.9c0,1.1-0.2,2.2-0.7,3.2c-0.4,0.8-1.1,1.2-1.9,1.2c-0.6,0-1.1-0.3-1.5-0.9v4h-2.1
		v-11.8h1.9l0.1,0.8c0.4-0.6,1-1,1.6-0.9c0.7,0,1.5,0.4,1.9,1.2c0.5,0.9,0.7,2.1,0.7,3.2L664.2,3037.9z M662.2,3037.7
		c0-1.5-0.3-2.3-1-2.3c-0.4-0.1-0.8,0.2-1,0.7v3.4c0.2,0.5,0.6,0.8,1,0.7c0.7,0,1-0.7,1-2.2V3037.7z M667.3,3042.1h-2.1V3030h2.1
		V3042.1z M672.3,3042.1c-0.1-0.2-0.2-0.5-0.2-0.8c-0.4,0.6-1,1-1.6,0.9c-0.6,0-1.2-0.2-1.6-0.7c-0.4-0.5-0.7-1.1-0.7-1.8
		c0-0.8,0.3-1.6,0.8-2.1c0.7-0.5,1.5-0.8,2.3-0.7h0.6v-0.4c0-0.8-0.3-1.2-0.8-1.2c-0.4-0.1-0.7,0.2-0.7,0.7c0,0.1,0,0.2,0,0.2h-2.1
		c0-0.8,0.3-1.6,0.8-2c0.6-0.5,1.3-0.8,2.1-0.8c0.7-0.1,1.4,0.2,2,0.8c0.5,0.5,0.8,1.4,0.8,2.2v3.8c0,0.6,0.1,1.2,0.3,1.8v0.1H672.3
		z M671,3040.4c0.2,0,0.4-0.1,0.6-0.2c0.2-0.1,0.3-0.3,0.4-0.5v-1.4h-0.6c-0.7,0-1.1,0.4-1.1,1.2c0,0.2,0.1,0.4,0.2,0.6
		C670.7,3040.3,670.9,3040.4,671,3040.4L671,3040.4z M677.7,3040h3v2.1h-5.6v-1.5l2.9-5h-2.8v-2.1h5.4v1.4L677.7,3040z
		 M681.4,3037.7c0-0.8,0.1-1.6,0.4-2.3c0.2-0.6,0.6-1.2,1.1-1.5c0.5-0.4,1.1-0.6,1.7-0.5c0.9-0.1,1.7,0.4,2.3,1.2
		c0.6,0.9,0.9,2.1,0.9,3.2v0.1c0,1.2-0.3,2.3-0.9,3.2c-0.6,0.8-1.5,1.2-2.3,1.2c-0.8,0.1-1.7-0.3-2.3-1.1c-0.6-0.8-0.9-1.9-0.9-3
		L681.4,3037.7z M683.4,3037.9c0,0.6,0.1,1.2,0.3,1.7c0.2,0.4,0.5,0.6,0.9,0.6c0.7,0,1.1-0.7,1.1-2.2v-0.3c0-1.5-0.4-2.3-1.1-2.3
		c-0.7,0-1.1,0.7-1.1,2L683.4,3037.9z"/>
	<path id="Trazado_102797" class="st2" d="M577.5,2937.7v-11.5h3.2c0.9-0.1,1.8,0.2,2.6,0.8c0.6,0.5,0.9,1.4,0.9,2.4
		c0,0.5-0.1,1.1-0.3,1.5c-0.2,0.4-0.6,0.8-0.9,0.9c0.4,0.1,0.8,0.4,1.1,0.9c0.3,0.5,0.4,1,0.4,1.6c0.1,1-0.3,1.9-0.8,2.5
		c-0.7,0.6-1.6,0.9-2.5,0.9H577.5z M579.7,2932.9v2.8h1.4c0.3,0,0.6-0.1,0.9-0.3c0.2-0.2,0.3-0.6,0.3-1c0.1-0.7-0.3-1.3-0.8-1.4
		c-0.1,0-0.2,0-0.3,0H579.7z M579.7,2931h1.1c0.4,0,0.7-0.1,1-0.3c0.2-0.2,0.3-0.6,0.3-1c0-0.4-0.1-0.8-0.3-1.1
		c-0.3-0.2-0.7-0.4-1-0.3h-1.1V2931z M589.3,2937.7c-0.1-0.2-0.2-0.5-0.2-0.8c-0.4,0.6-1,1-1.6,0.9c-0.6,0-1.2-0.2-1.6-0.7
		c-0.4-0.5-0.7-1.1-0.7-1.8c0-0.8,0.3-1.6,0.8-2.1c0.7-0.5,1.5-0.8,2.3-0.7h0.6v-0.4c0-0.8-0.3-1.2-0.8-1.2
		c-0.4-0.1-0.7,0.2-0.7,0.7c0,0.1,0,0.2,0,0.2h-2.1c0-0.8,0.3-1.6,0.8-2c0.6-0.5,1.3-0.8,2.1-0.8c0.7-0.1,1.4,0.2,2,0.8
		c0.5,0.5,0.8,1.4,0.8,2.2v3.8c0,0.6,0.1,1.2,0.3,1.8v0.1H589.3z M588,2936c0.2,0,0.4-0.1,0.6-0.2c0.2-0.1,0.3-0.3,0.4-0.5v-1.4
		h-0.6c-0.7,0-1.1,0.4-1.1,1.2c0,0.2,0.1,0.4,0.2,0.6C587.6,2935.9,587.8,2936,588,2936L588,2936z M594.1,2929.2l0.1,1
		c0.4-0.8,1.2-1.2,1.9-1.2c0.6-0.1,1.2,0.2,1.5,0.8c0.4,0.7,0.6,1.5,0.5,2.4v5.5h-2.1v-5.4c0-0.3,0-0.7-0.2-1
		c-0.2-0.2-0.5-0.3-0.7-0.3c-0.4,0-0.7,0.2-0.9,0.6v6h-2.1v-8.6H594.1z M602.1,2935.8c0.2,0,0.5-0.1,0.7-0.3
		c0.2-0.2,0.3-0.5,0.2-0.9h1.9c0,0.9-0.3,1.7-0.8,2.3c-0.6,0.6-1.3,0.9-2,0.9c-0.9,0.1-1.7-0.4-2.3-1.2c-0.6-0.9-0.9-2.1-0.8-3.2
		v-0.1c0-0.8,0.1-1.6,0.4-2.3c0.2-0.6,0.6-1.2,1.1-1.5c0.5-0.4,1.1-0.6,1.7-0.5c0.8-0.1,1.5,0.3,2.1,0.9c0.5,0.7,0.8,1.6,0.8,2.5
		H603c0-0.4-0.1-0.7-0.3-1c-0.2-0.2-0.4-0.4-0.7-0.4c-0.5,0-0.8,0.4-0.9,1.3c0,0.4,0,0.8,0,1.2c0,0.6,0,1.2,0.2,1.8
		C601.5,2935.7,601.8,2935.9,602.1,2935.8L602.1,2935.8z M605.6,2933.4c0-0.8,0.1-1.6,0.4-2.3c0.2-0.6,0.6-1.2,1.1-1.5
		c0.5-0.4,1.1-0.6,1.7-0.5c0.9-0.1,1.7,0.4,2.3,1.2c0.6,0.9,0.9,2.1,0.9,3.2v0.1c0,1.2-0.3,2.3-0.9,3.2c-0.6,0.8-1.5,1.2-2.3,1.2
		c-0.8,0.1-1.7-0.3-2.3-1.1c-0.6-0.8-0.9-1.9-0.9-3L605.6,2933.4z M607.6,2933.6c0,0.6,0.1,1.2,0.3,1.7c0.2,0.4,0.5,0.6,0.9,0.6
		c0.7,0,1.1-0.7,1.1-2.2v-0.3c0-1.5-0.4-2.3-1.1-2.3c-0.7,0-1.1,0.7-1.1,2L607.6,2933.6z M616.4,2935.3c0-0.2-0.1-0.4-0.3-0.5
		c-0.3-0.2-0.7-0.3-1-0.4c-0.4-0.1-0.9-0.3-1.3-0.6c-0.3-0.2-0.6-0.5-0.8-0.9c-0.2-0.3-0.3-0.8-0.3-1.2c0-0.8,0.3-1.5,0.8-1.9
		c0.6-0.5,1.3-0.8,2-0.8c0.7,0,1.5,0.2,2.1,0.8c0.5,0.5,0.8,1.2,0.8,2h-2.1c0-0.7-0.3-1-0.8-1c-0.2,0-0.4,0.1-0.5,0.2
		c-0.1,0.1-0.2,0.4-0.2,0.6c0,0.2,0.1,0.5,0.3,0.6c0.3,0.2,0.6,0.3,0.9,0.4c0.4,0.1,0.7,0.2,1,0.3c0.9,0.2,1.5,1.2,1.5,2.4
		c0,0.8-0.3,1.5-0.8,1.9c-0.6,0.5-1.4,0.8-2.1,0.7c-0.5,0-1-0.1-1.5-0.4c-0.4-0.2-0.8-0.6-1-1.1c-0.2-0.4-0.4-0.9-0.4-1.4h1.9
		c0,0.3,0.1,0.7,0.3,0.9c0.2,0.2,0.5,0.3,0.8,0.3c0.2,0,0.4-0.1,0.6-0.2C616.3,2935.8,616.4,2935.6,616.4,2935.3L616.4,2935.3z"/>
	<path id="Trazado_102798" class="st2" d="M735.3,2934.3h1.1v1.1h-1.1v2.4h-1v-2.4h-3.6v-0.8l3.6-7.1h1.1V2934.3z M731.8,2934.3h2.5
		v-5l-0.1,0.3L731.8,2934.3z M740.7,2937.7h-1v-8.7l-2,1v-1.2l2.9-1.4h0.2V2937.7z M748.4,2930.2c0,0.5-0.1,1-0.3,1.4
		c-0.2,0.4-0.5,0.7-0.8,0.9c0.4,0.2,0.7,0.6,1,1c0.2,0.4,0.4,1,0.4,1.5c0,0.8-0.2,1.6-0.7,2.1c-0.5,0.5-1.2,0.8-1.8,0.8
		c-0.7,0-1.3-0.2-1.8-0.8c-0.5-0.5-0.7-1.3-0.7-2.1c0-0.5,0.1-1.1,0.3-1.5c0.2-0.5,0.6-0.8,1-1c-0.3-0.2-0.6-0.5-0.8-0.9
		c-0.2-0.4-0.3-0.9-0.3-1.4c0-0.8,0.2-1.5,0.6-2.1c0.5-0.5,1.1-0.8,1.7-0.8c0.6,0,1.2,0.2,1.7,0.8
		C748.2,2928.7,748.5,2929.4,748.4,2930.2z M747.6,2935c0-0.5-0.1-1-0.4-1.4c-0.3-0.4-0.7-0.6-1.1-0.5c-0.8-0.1-1.5,0.7-1.5,1.7
		c0,0.1,0,0.2,0,0.2c0,0.5,0.1,1,0.4,1.4c0.3,0.4,0.7,0.5,1.1,0.5c0.4,0,0.8-0.2,1.1-0.5C747.5,2936,747.6,2935.5,747.6,2935
		L747.6,2935z M746.1,2928.4c-0.4,0-0.7,0.2-1,0.5c-0.3,0.3-0.4,0.8-0.4,1.3c0,0.5,0.1,0.9,0.4,1.3c0.5,0.6,1.4,0.6,1.9,0
		c0.2-0.3,0.4-0.8,0.4-1.3c0-0.5-0.1-0.9-0.4-1.3C746.8,2928.6,746.4,2928.4,746.1,2928.4z M750,2937.1c0-0.2,0.1-0.4,0.2-0.6
		c0.1-0.2,0.3-0.2,0.5-0.2c0.2,0,0.3,0.1,0.5,0.2c0.1,0.2,0.2,0.4,0.2,0.6c0,0.2-0.1,0.4-0.2,0.5c-0.1,0.2-0.3,0.2-0.5,0.2
		c-0.3,0-0.6-0.2-0.6-0.6C750,2937.1,750,2937.1,750,2937.1L750,2937.1z M757.1,2934.3h1.1v1.1h-1.1v2.4h-1v-2.4h-3.6v-0.8l3.6-7.1
		h1.1V2934.3z M753.6,2934.3h2.5v-5l-0.1,0.3L753.6,2934.3z M762.4,2937.7h-1v-8.7l-2,1v-1.2l2.9-1.4h0.2V2937.7z M770.2,2930.2
		c0,0.5-0.1,1-0.3,1.4c-0.2,0.4-0.5,0.7-0.8,0.9c0.4,0.2,0.7,0.6,1,1c0.2,0.4,0.4,1,0.4,1.5c0,0.8-0.2,1.6-0.7,2.1
		c-1.1,1.1-2.6,1.1-3.7,0c-0.5-0.5-0.7-1.3-0.7-2.1c0-0.5,0.1-1.1,0.3-1.5c0.2-0.5,0.6-0.8,1-1c-0.3-0.2-0.6-0.5-0.8-0.9
		c-0.2-0.4-0.3-0.9-0.3-1.4c0-0.8,0.2-1.5,0.7-2.1c1-1,2.4-1,3.4,0C770,2928.7,770.2,2929.4,770.2,2930.2z M769.4,2935
		c0-0.5-0.1-1-0.4-1.4c-0.3-0.4-0.7-0.6-1.1-0.5c-0.8-0.1-1.5,0.7-1.5,1.7c0,0.1,0,0.2,0,0.2c0,0.5,0.1,1,0.4,1.4
		c0.7,0.7,1.6,0.7,2.2,0C769.2,2936,769.4,2935.5,769.4,2935z M767.8,2928.4c-0.4,0-0.7,0.2-1,0.5c-0.3,0.3-0.4,0.8-0.4,1.3
		c0,0.5,0.1,0.9,0.4,1.3c0.5,0.6,1.4,0.6,1.9,0c0.2-0.3,0.4-0.8,0.4-1.3c0-0.5-0.1-0.9-0.4-1.3
		C768.5,2928.6,768.2,2928.4,767.8,2928.4z M771.7,2939.8l-0.6-0.5c0.3-0.5,0.5-1.2,0.5-1.9v-1.2h1v1c0,0.5-0.1,1-0.3,1.4
		C772.2,2939.1,772,2939.5,771.7,2939.8L771.7,2939.8z M775.3,2932h0.8c0.4,0,0.8-0.2,1.1-0.5c0.3-0.3,0.4-0.8,0.4-1.3
		c0.1-0.9-0.4-1.7-1-1.8c-0.1,0-0.2,0-0.3,0c-0.4,0-0.8,0.1-1,0.5c-0.3,0.3-0.4,0.8-0.4,1.3h-1c0-0.8,0.2-1.5,0.7-2
		c0.5-0.5,1.1-0.8,1.8-0.8c0.6,0,1.3,0.2,1.8,0.8c0.4,0.6,0.7,1.3,0.6,2.1c0,0.5-0.1,0.9-0.3,1.3c-0.2,0.4-0.5,0.7-0.9,0.9
		c0.4,0.1,0.8,0.5,1,0.9c0.2,0.4,0.4,1,0.4,1.5c0,0.8-0.2,1.6-0.7,2.2c-0.5,0.6-1.2,0.8-1.8,0.8c-0.7,0-1.3-0.2-1.8-0.8
		c-0.5-0.5-0.7-1.3-0.7-2.1h1c0,0.5,0.1,1,0.4,1.3c0.3,0.3,0.7,0.5,1.1,0.5c0.4,0,0.8-0.1,1.1-0.5c0.3-0.4,0.4-0.9,0.4-1.4
		c0-0.5-0.1-1-0.4-1.4c-0.4-0.3-0.8-0.5-1.2-0.5h-0.8V2932z M784.4,2934.3h1.1v1.1h-1.1v2.4h-1v-2.4h-3.6v-0.8l3.6-7.1h1.1
		L784.4,2934.3z M780.9,2934.3h2.5v-5l-0.1,0.3L780.9,2934.3z"/>
	<path id="Trazado_102800" class="st2" d="M867.3,3007h1.1v1.1h-1.1v2.4h-1v-2.4h-3.6v-0.8l3.6-7.1h1.1V3007z M863.8,3007h2.5v-5
		l-0.1,0.3L863.8,3007z M872.6,3010.5h-1v-8.7l-2,1v-1.2l2.9-1.4h0.2V3010.5z M880.4,3002.9c0,0.5-0.1,1-0.3,1.4
		c-0.2,0.4-0.5,0.7-0.8,0.9c0.4,0.2,0.7,0.6,1,1c0.2,0.4,0.4,1,0.4,1.5c0,0.8-0.2,1.6-0.7,2.1c-0.5,0.5-1.2,0.8-1.8,0.8
		c-0.7,0-1.3-0.2-1.8-0.8c-0.5-0.5-0.7-1.3-0.7-2.1c0-0.5,0.1-1.1,0.3-1.5c0.2-0.5,0.6-0.8,1-1c-0.3-0.2-0.6-0.5-0.8-0.9
		c-0.2-0.4-0.3-0.9-0.3-1.4c0-0.8,0.2-1.5,0.6-2.1c0.5-0.5,1.1-0.8,1.7-0.8c0.6,0,1.2,0.2,1.7,0.8
		C880.2,3001.4,880.4,3002.1,880.4,3002.9z M879.6,3007.7c0-0.5-0.1-1-0.4-1.4c-0.3-0.4-0.7-0.6-1.1-0.5c-0.8-0.1-1.5,0.7-1.5,1.7
		c0,0.1,0,0.2,0,0.2c0,0.5,0.1,1,0.4,1.4c0.3,0.4,0.7,0.5,1.1,0.5c0.4,0,0.8-0.2,1.1-0.5C879.4,3008.7,879.6,3008.2,879.6,3007.7
		L879.6,3007.7z M878.1,3001.2c-0.4,0-0.7,0.2-1,0.5c-0.3,0.3-0.4,0.8-0.4,1.3c0,0.5,0.1,0.9,0.4,1.3c0.5,0.6,1.4,0.6,1.9,0
		c0.2-0.3,0.4-0.8,0.4-1.3c0-0.5-0.1-0.9-0.4-1.3C878.8,3001.3,878.4,3001.1,878.1,3001.2z M882,3009.8c0-0.2,0.1-0.4,0.2-0.6
		c0.1-0.2,0.3-0.2,0.5-0.2c0.2,0,0.3,0.1,0.5,0.2c0.1,0.2,0.2,0.4,0.2,0.6c0,0.2-0.1,0.4-0.2,0.5c-0.1,0.2-0.3,0.2-0.5,0.2
		c-0.3,0-0.6-0.2-0.6-0.6C882,3009.9,882,3009.8,882,3009.8L882,3009.8z M889,3007h1.1v1.1H889v2.4h-1v-2.4h-3.6v-0.8l3.6-7.1h1.1
		V3007z M885.6,3007h2.5v-5l-0.1,0.3L885.6,3007z M894.4,3010.5h-1v-8.7l-2,1v-1.2l2.9-1.4h0.2V3010.5z M902.1,3002.9
		c0,0.5-0.1,1-0.3,1.4c-0.2,0.4-0.5,0.7-0.8,0.9c0.4,0.2,0.7,0.6,1,1c0.2,0.4,0.4,1,0.4,1.5c0,0.8-0.2,1.6-0.7,2.1
		c-1.1,1.1-2.6,1.1-3.7,0c-0.5-0.5-0.7-1.3-0.7-2.1c0-0.5,0.1-1.1,0.3-1.5c0.2-0.5,0.6-0.8,1-1c-0.3-0.2-0.6-0.5-0.8-0.9
		c-0.2-0.4-0.3-0.9-0.3-1.4c0-0.8,0.2-1.5,0.7-2.1c1-1,2.4-1,3.4,0C901.9,3001.4,902.2,3002.1,902.1,3002.9z M901.3,3007.7
		c0-0.5-0.1-1-0.4-1.4c-0.3-0.4-0.7-0.6-1.1-0.5c-0.8-0.1-1.5,0.7-1.5,1.7c0,0.1,0,0.2,0,0.2c0,0.5,0.1,1,0.4,1.4
		c0.7,0.7,1.6,0.7,2.2,0C901.2,3008.7,901.3,3008.2,901.3,3007.7z M899.8,3001.2c-0.4,0-0.7,0.2-1,0.5c-0.3,0.3-0.4,0.8-0.4,1.3
		c0,0.5,0.1,0.9,0.4,1.3c0.5,0.6,1.4,0.6,1.9,0c0.2-0.3,0.4-0.8,0.4-1.3c0-0.5-0.1-0.9-0.4-1.3
		C900.5,3001.3,900.2,3001.1,899.8,3001.2z M903.7,3012.5l-0.6-0.5c0.3-0.5,0.5-1.2,0.5-1.9v-1.2h1v1c0,0.5-0.1,1-0.3,1.4
		C904.2,3011.8,904,3012.2,903.7,3012.5L903.7,3012.5z M907.3,3004.7h0.8c0.4,0,0.8-0.2,1.1-0.5c0.3-0.3,0.4-0.8,0.4-1.3
		c0.1-0.9-0.4-1.7-1-1.8c-0.1,0-0.2,0-0.3,0c-0.4,0-0.8,0.1-1,0.5c-0.3,0.3-0.4,0.8-0.4,1.3h-1c0-0.8,0.2-1.5,0.7-2
		c0.5-0.5,1.1-0.8,1.8-0.8c0.6,0,1.3,0.2,1.8,0.8c0.4,0.6,0.7,1.3,0.6,2.1c0,0.5-0.1,0.9-0.3,1.3c-0.2,0.4-0.5,0.7-0.9,0.9
		c0.4,0.1,0.8,0.5,1,0.9c0.2,0.4,0.4,1,0.4,1.5c0,0.8-0.2,1.6-0.7,2.2c-0.5,0.6-1.2,0.8-1.8,0.8c-0.7,0-1.3-0.2-1.8-0.8
		c-0.5-0.5-0.7-1.3-0.7-2.1h1c0,0.5,0.1,1,0.4,1.3c0.3,0.3,0.7,0.5,1.1,0.5c0.4,0,0.8-0.1,1.1-0.5c0.3-0.4,0.4-0.9,0.4-1.4
		c0-0.5-0.1-1-0.4-1.4c-0.4-0.3-0.8-0.5-1.2-0.5h-0.8V3004.7z M916.3,3007h1.1v1.1h-1.1v2.4h-1v-2.4h-3.6v-0.8l3.6-7.1h1.1
		L916.3,3007z M912.8,3007h2.5v-5l-0.1,0.3L912.8,3007z"/>
	<line id="Línea_276" class="st3" x1="699" y1="2900.9" x2="699" y2="3066.3"/>
	<line id="Línea_277" class="st3" x1="826" y1="2873.9" x2="826" y2="3039.3"/>
	<path id="Trazado_102710" class="st4" d="M561.5,2846.3h400v54.6h-400V2846.3z"/>
	<path id="Trazado_102794" class="st1" d="M606.9,2874.1c0,1-0.3,2-0.7,2.8c-0.4,0.8-1,1.5-1.7,1.9c-0.8,0.5-1.7,0.7-2.5,0.7
		c-1.4,0.1-2.8-0.6-3.7-2c-1-1.6-1.4-3.6-1.4-5.6v-0.8c0-1.4,0.2-2.7,0.6-3.9c0.4-1.1,1-2,1.8-2.6c0.8-0.6,1.7-0.9,2.7-0.9
		c1.3-0.1,2.5,0.4,3.5,1.5c0.9,1,1.4,2.5,1.5,4.1h-2.9c0-0.7-0.2-1.5-0.5-2c-0.4-0.5-1-0.7-1.6-0.6c-0.6-0.1-1.2,0.3-1.6,1
		c-0.4,1-0.6,2.2-0.5,3.3v1.1c-0.1,1.2,0.1,2.4,0.5,3.5c0.4,0.7,1,1.1,1.6,1.1c0.5,0,1.1-0.2,1.5-0.6c0.4-0.5,0.6-1.2,0.6-1.9
		L606.9,2874.1z M617.6,2863.9v10c0,1-0.2,2.1-0.6,3c-0.4,0.8-0.9,1.5-1.6,1.9c-0.8,0.5-1.6,0.7-2.5,0.7c-1.2,0.1-2.5-0.4-3.4-1.5
		c-0.9-1-1.3-2.5-1.3-4v-10.1h2.9v10.2c0,1.7,0.6,2.5,1.8,2.5c0.5,0,1-0.2,1.4-0.6c0.3-0.6,0.5-1.3,0.5-2.1v-10H617.6z
		 M626.8,2872.8h-4.5v3.7h5.3v2.8h-8.2v-15.3h8.2v2.9h-5.4v3.2h4.5L626.8,2872.8z M638.7,2879.3h-2.9l-4.2-9.6v9.6h-2.9v-15.3h2.9
		l4.2,9.6v-9.6h2.9L638.7,2879.3z M649.9,2866.8h-3.6v12.5h-2.9v-12.5h-3.5v-2.9h10L649.9,2866.8z M656.9,2876.4H653l-0.7,2.9h-3.1
		l4.4-15.3h2.7l4.4,15.3h-3.1L656.9,2876.4z M653.7,2873.5h2.6l-1.3-5.3L653.7,2873.5z"/>
	<path id="Trazado_102795" class="st1" d="M726.4,2881.2v-15.3h3.8c1,0,2,0.3,2.8,0.9c0.8,0.6,1.5,1.5,2,2.6
		c0.5,1.2,0.7,2.5,0.7,3.8v0.7c0,1.3-0.2,2.6-0.7,3.8c-0.4,1.1-1.1,2-1.9,2.6c-0.9,0.6-1.8,1-2.8,1H726.4z M729.3,2868.7v9.6h1
		c0.7,0.1,1.5-0.4,1.9-1.1c0.5-1,0.7-2.2,0.7-3.4v-0.7c0.1-1.2-0.2-2.4-0.7-3.4c-0.5-0.8-1.2-1.2-1.9-1.1H729.3z M744.6,2874.7h-4.5
		v3.7h5.3v2.8h-8.2v-15.3h8.2v2.9h-5.4v3.2h4.5V2874.7z M742,2861.8h2.9l-2.3,3.3l-2.2,0L742,2861.8z M746.6,2881.2v-15.3h4.3
		c1.2-0.1,2.4,0.3,3.5,1.1c0.8,0.7,1.2,1.9,1.2,3.1c0,0.7-0.1,1.4-0.4,2c-0.3,0.6-0.7,1-1.3,1.2c0.6,0.2,1.1,0.6,1.4,1.2
		c0.3,0.6,0.5,1.4,0.5,2.1c0.1,1.3-0.3,2.6-1.1,3.4c-1,0.8-2.1,1.2-3.3,1.2H746.6z M749.5,2874.7v3.7h1.9c0.4,0,0.9-0.1,1.2-0.5
		c0.3-0.3,0.4-0.8,0.4-1.3c0.1-0.9-0.4-1.8-1.1-1.9c-0.1,0-0.2,0-0.4,0H749.5z M749.5,2872.3h1.5c0.5,0,0.9-0.1,1.3-0.4
		c0.3-0.3,0.4-0.8,0.4-1.3c0-0.5-0.1-1.1-0.4-1.4c-0.4-0.3-0.9-0.5-1.4-0.4h-1.4L749.5,2872.3z M760.5,2881.2h-2.9v-15.3h2.9V2881.2
		z M771.8,2868.7h-3.6v12.5h-2.9v-12.5h-3.5v-2.9h10V2868.7z M782.9,2873.9c0,1.4-0.2,2.7-0.6,4c-0.4,1.1-1,2-1.8,2.7
		c-0.8,0.6-1.8,1-2.7,0.9c-0.9,0-1.9-0.3-2.7-0.9c-0.8-0.6-1.4-1.5-1.8-2.6c-0.5-1.2-0.7-2.5-0.7-3.8v-0.9c0-1.4,0.2-2.7,0.6-4
		c0.4-1.1,1-2,1.8-2.7c0.8-0.6,1.8-1,2.7-0.9c0.9,0,1.9,0.3,2.7,0.9c0.8,0.6,1.4,1.5,1.8,2.6c0.5,1.2,0.7,2.6,0.7,3.9V2873.9z
		 M780,2873.2c0.1-1.2-0.1-2.4-0.6-3.5c-0.4-0.8-1-1.2-1.7-1.2c-1.4,0-2.2,1.4-2.3,4.2l0,1.1c-0.1,1.2,0.1,2.4,0.6,3.5
		c0.4,0.8,1,1.3,1.7,1.2c0.7,0,1.3-0.4,1.7-1.2c0.4-1,0.6-2.2,0.6-3.4L780,2873.2z M790.5,2877.1c0-0.5-0.1-1-0.4-1.3
		c-0.5-0.4-1-0.7-1.6-0.9c-0.6-0.3-1.2-0.6-1.8-0.9c-1.5-1-2.3-2.3-2.3-4c0-0.8,0.2-1.6,0.6-2.2c0.4-0.7,1-1.2,1.6-1.5
		c0.8-0.4,1.6-0.6,2.4-0.5c0.8,0,1.6,0.2,2.3,0.6c0.6,0.4,1.2,0.9,1.6,1.7c0.4,0.7,0.6,1.6,0.6,2.5h-2.9c0-0.5-0.1-1.1-0.4-1.5
		c-0.3-0.4-0.8-0.5-1.2-0.5c-0.4,0-0.9,0.1-1.2,0.4c-0.3,0.3-0.4,0.7-0.4,1.1c0,0.4,0.2,0.8,0.5,1.1c0.5,0.4,1.1,0.8,1.7,1
		c0.7,0.3,1.4,0.6,2,1.1c1.2,0.7,1.9,2.3,1.9,4c0,1.2-0.4,2.4-1.2,3.2c-1,0.8-2.1,1.2-3.2,1.1c-0.9,0-1.8-0.2-2.6-0.7
		c-0.7-0.4-1.3-1-1.8-1.8c-0.4-0.8-0.6-1.7-0.6-2.7h2.9c0,0.7,0.1,1.3,0.5,1.8c0.5,0.4,1,0.7,1.6,0.6c0.4,0,0.8-0.1,1.1-0.4
		C790.4,2878,790.6,2877.6,790.5,2877.1z"/>
	<path id="Trazado_102796" class="st1" d="M862.4,2874.1c0,1-0.3,2-0.7,2.8c-0.4,0.8-1,1.5-1.7,1.9c-0.8,0.5-1.7,0.7-2.5,0.7
		c-1.4,0.1-2.8-0.6-3.7-2c-1-1.6-1.4-3.6-1.4-5.6v-0.8c0-1.4,0.2-2.7,0.6-3.9c0.4-1.1,1-2,1.8-2.6c0.8-0.6,1.7-0.9,2.7-0.9
		c1.3-0.1,2.5,0.4,3.5,1.5c0.9,1,1.4,2.5,1.5,4.1h-2.9c0-0.7-0.2-1.5-0.5-2c-0.4-0.5-1-0.7-1.6-0.6c-0.6-0.1-1.2,0.3-1.6,1
		c-0.4,1-0.6,2.2-0.5,3.3v1.1c-0.1,1.2,0.1,2.4,0.5,3.5c0.4,0.7,1,1.1,1.6,1.1c0.5,0,1.1-0.2,1.5-0.6c0.4-0.5,0.6-1.2,0.6-1.9
		L862.4,2874.1z M868.2,2873.8h-1.6v5.4h-2.9v-15.3h4.7c1.2-0.1,2.3,0.3,3.3,1.2c0.8,0.8,1.2,2.1,1.2,3.4c0,0.9-0.1,1.8-0.5,2.7
		c-0.4,0.8-0.9,1.4-1.6,1.7l2.5,6.2v0.2h-3.1L868.2,2873.8z M866.7,2871h1.8c0.5,0,0.9-0.2,1.2-0.6c0.3-0.4,0.4-1,0.4-1.5
		c0-0.6-0.1-1.1-0.4-1.6c-0.3-0.4-0.8-0.6-1.2-0.6h-1.8L866.7,2871z M882.1,2872.8h-4.5v3.7h5.3v2.8h-8.2v-15.3h8.2v2.9h-5.4v3.2
		h4.5L882.1,2872.8z M879.4,2859.8h2.9l-2.3,3.3l-2.2,0L879.4,2859.8z M884.1,2879.3v-15.3h3.8c1,0,2,0.3,2.8,0.9
		c0.8,0.6,1.5,1.5,2,2.6c0.5,1.2,0.7,2.5,0.7,3.8v0.7c0,1.3-0.2,2.6-0.7,3.8c-0.4,1.1-1.1,2-1.9,2.6c-0.9,0.6-1.8,1-2.8,1H884.1z
		 M887,2866.8v9.6h1c0.7,0.1,1.5-0.4,1.9-1.1c0.5-1,0.7-2.2,0.7-3.4v-0.7c0.1-1.2-0.2-2.4-0.7-3.4c-0.5-0.8-1.2-1.2-1.9-1.1H887z
		 M898,2879.3h-2.9v-15.3h2.9V2879.3z M909.3,2866.8h-3.6v12.5h-2.9v-12.5h-3.5v-2.9h10V2866.8z M920.4,2871.9c0,1.4-0.2,2.7-0.6,4
		c-0.4,1.1-1,2-1.8,2.7c-0.8,0.6-1.8,1-2.7,0.9c-0.9,0-1.9-0.3-2.7-0.9c-0.8-0.6-1.4-1.5-1.8-2.6c-0.5-1.2-0.7-2.5-0.7-3.8v-0.9
		c0-1.4,0.2-2.7,0.6-4c0.4-1.1,1-2,1.8-2.7c0.8-0.6,1.8-1,2.7-0.9c0.9,0,1.9,0.3,2.7,0.9c0.8,0.6,1.4,1.5,1.8,2.6
		c0.5,1.2,0.7,2.6,0.7,3.9V2871.9z M917.5,2871.3c0.1-1.2-0.1-2.4-0.6-3.5c-0.4-0.8-1-1.2-1.7-1.2c-1.4,0-2.2,1.4-2.3,4.2l0,1.1
		c-0.1,1.2,0.1,2.4,0.6,3.5c0.4,0.8,1,1.3,1.7,1.2c0.7,0,1.3-0.4,1.7-1.2c0.4-1,0.6-2.2,0.6-3.4V2871.3z M928,2875.2
		c0-0.5-0.1-1-0.4-1.3c-0.5-0.4-1-0.7-1.6-0.9c-0.6-0.3-1.2-0.6-1.8-0.9c-1.5-1-2.3-2.3-2.3-4c0-0.8,0.2-1.6,0.6-2.2
		c0.4-0.7,1-1.2,1.6-1.5c0.8-0.4,1.6-0.6,2.4-0.5c0.8,0,1.6,0.2,2.3,0.6c0.6,0.4,1.2,0.9,1.6,1.7c0.4,0.7,0.6,1.6,0.6,2.5H928
		c0-0.5-0.1-1.1-0.4-1.5c-0.3-0.4-0.8-0.5-1.2-0.5c-0.4,0-0.9,0.1-1.2,0.4c-0.3,0.3-0.4,0.7-0.4,1.1c0,0.4,0.2,0.8,0.5,1.1
		c0.5,0.4,1.1,0.8,1.7,1c0.7,0.3,1.4,0.6,2,1.1c1.2,0.7,1.9,2.3,1.9,4c0,1.2-0.4,2.4-1.2,3.2c-1,0.8-2.1,1.2-3.2,1.1
		c-0.9,0-1.8-0.2-2.6-0.7c-0.7-0.4-1.3-1-1.8-1.8c-0.4-0.8-0.6-1.7-0.6-2.7h2.9c0,0.7,0.1,1.3,0.5,1.8c0.5,0.4,1,0.7,1.6,0.6
		c0.4,0,0.8-0.1,1.1-0.4C927.9,2876,928,2875.6,928,2875.2z"/>
</g>
</svg>
