<?xml version="1.0" encoding="utf-8"?>
<!-- Generator: Adobe Illustrator 25.2.3, SVG Export Plug-In . SVG Version: 6.00 Build 0)  -->
<svg version="1.1" id="Capa_1" xmlns="http://www.w3.org/2000/svg" xmlns:xlink="http://www.w3.org/1999/xlink" x="0px" y="0px"
	 viewBox="0 0 573 245" style="enable-background:new 0 0 573 245;" xml:space="preserve">
<style type="text/css">
	.st0{fill:#F6F6F6;}
	.st1{fill:#FFFFFF;}
	.st2{fill:#12263F;}
	.st3{font-family:'Roboto-Bold';}
	.st4{font-size:16.1931px;}
	.st5{font-family:'Roboto-Regular';}
	.st6{font-size:14.3938px;}
	.st7{fill:none;stroke:#AFAFAF;stroke-linecap:round;}
	.st8{fill:#D9A171;}
	.st9{font-size:21.5908px;}
</style>
<g id="Grupo_54963" transform="translate(-475 -2834.004)">
	<rect id="Rectángulo_6898" x="551.5" y="2900.9" class="st0" width="420" height="55.7"/>
	<rect id="Rectángulo_6899" x="551.5" y="2956.6" class="st1" width="420" height="109.7"/>
	<text transform="matrix(0.8148 0 0 1 567.6255 2993.5234)" class="st2 st3 st4">Valores </text>
	<text transform="matrix(0.8148 0 0 1 567.6255 3017.8135)" class="st2 st3 st4">representativos de </text>
	<text transform="matrix(0.8148 0 0 1 567.6255 3042.1025)" class="st2 st3 st4">deuda a corto plazo</text>
	<text transform="matrix(0.8148 0 0 1 567.6255 2937.7476)" class="st2 st3 st4">Bancos</text>
	<text transform="matrix(0.8148 0 0 1 728.8564 2937.7476)" class="st2 st5 st6">418.418,34</text>
	<text transform="matrix(0.8148 0 0 1 867.416 3010.457)" class="st2 st5 st6">418.418,34</text>
	<line id="Línea_276" class="st7" x1="695.9" y1="2900.9" x2="695.9" y2="3066.3"/>
	<line id="Línea_277" class="st7" x1="829.3" y1="2873.9" x2="829.3" y2="3039.3"/>
	<path id="Trazado_102710" class="st8" d="M551.5,2846.3h419.9v54.6H551.5V2846.3z"/>
	<text transform="matrix(0.8148 0 0 1 588.1309 2879.2725)" class="st1 st3 st9">CUENTA</text>
	<text transform="matrix(0.8148 0 0 1 723.7285 2881.2158)" class="st1 st3 st9">DÉBITOS</text>
	<text transform="matrix(0.8148 0 0 1 856.4258 2879.2725)" class="st1 st3 st9">CRÉDITOS</text>
</g>
</svg>
