<svg xmlns="http://www.w3.org/2000/svg" width="1228" height="204.552" viewBox="0 0 1228 204.552">
  <g id="Grupo_55013" data-name="Grupo 55013" transform="translate(-180 -394.729)">
    <g id="Grupo_55007" data-name="Grupo 55007" transform="translate(-84 -5656.722)">
      <rect id="Rect치ngulo_5411" data-name="Rect치ngulo 5411" width="1228" height="54" transform="translate(264 6131.676)" fill="#f6f6f6"/>
      <rect id="Rect치ngulo_5412" data-name="Rect치ngulo 5412" width="1228" height="70" transform="translate(264 6185.676)" fill="#fff"/>
      <path id="Trazado_102753" data-name="Trazado 102753" d="M43.8,19l-.554-2.32H39.488l-.6,2.32h-4.1L39.128,6.4h4.711L47.926,19ZM41.413,9.139h-.088a6.123,6.123,0,0,1-.123.694q-.105.483-1.063,4.148h2.408l-.879-3.428A10.84,10.84,0,0,1,41.413,9.139ZM58.209,19l-4.447-6.082a14.5,14.5,0,0,1-.861-1.3h-.035q.053.932.053,2.092V19H49.4V6.4h3.586l4.263,5.783q.079.114.193.272t.229.325q.114.167.215.325a2,2,0,0,1,.154.281h.035a11.423,11.423,0,0,1-.053-1.336V6.4H61.54V19Zm.7-16.884a3.911,3.911,0,0,1-.527,2.219,1.731,1.731,0,0,1-1.521.769,2.874,2.874,0,0,1-1.494-.431q-.3-.176-.549-.334a.979.979,0,0,0-.532-.158.613.613,0,0,0-.527.272,1.323,1.323,0,0,0-.193.773H52.039a3.82,3.82,0,0,1,.541-2.241,1.722,1.722,0,0,1,1.472-.747,2.936,2.936,0,0,1,1.661.51q.255.158.483.286a1.011,1.011,0,0,0,.5.127.568.568,0,0,0,.483-.259,1.361,1.361,0,0,0,.185-.787ZM76.007,12.663a6.977,6.977,0,0,1-.817,3.4A5.828,5.828,0,0,1,72.9,18.389a6.9,6.9,0,0,1-6.517.026,5.691,5.691,0,0,1-2.263-2.259,6.659,6.659,0,0,1-.809-3.292A7.263,7.263,0,0,1,64.133,9.4a5.807,5.807,0,0,1,2.294-2.377,6.673,6.673,0,0,1,3.357-.839,6.486,6.486,0,0,1,3.239.8,5.483,5.483,0,0,1,2.206,2.294A7.192,7.192,0,0,1,76.007,12.663Zm-4.025.105a4.375,4.375,0,0,0-.6-2.452,1.867,1.867,0,0,0-1.635-.9,2.067,2.067,0,0,0-1.767.861,4.054,4.054,0,0,0-.633,2.435,4.007,4.007,0,0,0,.628,2.4,2,2,0,0,0,1.709.861,1.957,1.957,0,0,0,1.187-.387,2.477,2.477,0,0,0,.817-1.107A4.582,4.582,0,0,0,71.981,12.769ZM82.344,19V17.989a5.906,5.906,0,0,1,.264-1.863,4.681,4.681,0,0,1,.831-1.485,12.8,12.8,0,0,1,1.973-1.784,14.632,14.632,0,0,0,1.332-1.138,2.852,2.852,0,0,0,.492-.672,1.55,1.55,0,0,0,.163-.7q0-1.257-1.512-1.257A4.537,4.537,0,0,0,82.977,10.2V7.135A8.815,8.815,0,0,1,84.932,6.4,8.241,8.241,0,0,1,86.8,6.186a4.679,4.679,0,0,1,3.182.984,3.473,3.473,0,0,1,1.125,2.76,4.3,4.3,0,0,1-.589,2.312,6.978,6.978,0,0,1-2.188,1.978,14.479,14.479,0,0,0-1.622,1.156,1.027,1.027,0,0,0-.409.62h4.922V19Z" transform="translate(297 6209.676)" fill="#12263f"/>
      <path id="Trazado_102747" data-name="Trazado 102747" d="M44.845,19l-.554-2.32H40.53l-.6,2.32h-4.1L40.169,6.4H44.88L48.967,19ZM42.455,9.139h-.088a6.123,6.123,0,0,1-.123.694q-.105.483-1.063,4.148h2.408l-.879-3.428A10.84,10.84,0,0,1,42.455,9.139ZM59.25,19,54.8,12.918a14.5,14.5,0,0,1-.861-1.3h-.035q.053.932.053,2.092V19H50.444V6.4H54.03l4.263,5.783q.079.114.193.272t.229.325q.114.167.215.325a2,2,0,0,1,.154.281h.035a11.423,11.423,0,0,1-.053-1.336V6.4h3.516V19Zm.7-16.884a3.911,3.911,0,0,1-.527,2.219,1.731,1.731,0,0,1-1.521.769,2.874,2.874,0,0,1-1.494-.431q-.3-.176-.549-.334a.979.979,0,0,0-.532-.158.613.613,0,0,0-.527.272,1.323,1.323,0,0,0-.193.773H53.081a3.82,3.82,0,0,1,.541-2.241,1.722,1.722,0,0,1,1.472-.747,2.936,2.936,0,0,1,1.661.51q.255.158.483.286a1.011,1.011,0,0,0,.5.127.568.568,0,0,0,.483-.259,1.361,1.361,0,0,0,.185-.787ZM77.048,12.663a6.977,6.977,0,0,1-.817,3.4,5.828,5.828,0,0,1-2.285,2.329,6.9,6.9,0,0,1-6.517.026,5.691,5.691,0,0,1-2.263-2.259,6.659,6.659,0,0,1-.809-3.292A7.263,7.263,0,0,1,65.174,9.4a5.807,5.807,0,0,1,2.294-2.377,6.673,6.673,0,0,1,3.357-.839,6.486,6.486,0,0,1,3.239.8,5.483,5.483,0,0,1,2.206,2.294A7.192,7.192,0,0,1,77.048,12.663Zm-4.025.105a4.375,4.375,0,0,0-.6-2.452,1.867,1.867,0,0,0-1.635-.9,2.067,2.067,0,0,0-1.767.861,4.054,4.054,0,0,0-.633,2.435,4.007,4.007,0,0,0,.628,2.4,2,2,0,0,0,1.709.861,1.957,1.957,0,0,0,1.187-.387,2.477,2.477,0,0,0,.817-1.107A4.582,4.582,0,0,0,73.023,12.769ZM86.066,19V9.93a5.531,5.531,0,0,1-1.274.549,8.78,8.78,0,0,1-1.494.277V7.943a9.872,9.872,0,0,0,2.21-.637,11.407,11.407,0,0,0,2.1-1.191H89.81V19Z" transform="translate(297 6146)" fill="#12263f"/>
      <path id="Trazado_102748" data-name="Trazado 102748" d="M7.445,13.828a3.266,3.266,0,0,1-.285,1.379,3.045,3.045,0,0,1-.8,1.063,3.714,3.714,0,0,1-1.246.684,5.04,5.04,0,0,1-1.6.242,4.654,4.654,0,0,1-2.547-.609V15.211a4.081,4.081,0,0,0,2.594.891,3.525,3.525,0,0,0,1.059-.148,2.374,2.374,0,0,0,.813-.43,1.909,1.909,0,0,0,.523-.68,2.123,2.123,0,0,0,.184-.9q0-2.2-3.125-2.2h-.93V10.664h.883q2.766,0,2.766-2.062Q5.727,6.7,3.617,6.7a3.592,3.592,0,0,0-2.227.8V6.25a4.868,4.868,0,0,1,2.547-.641,3.913,3.913,0,0,1,1.273.2,2.918,2.918,0,0,1,.977.547,2.423,2.423,0,0,1,.629.844,2.6,2.6,0,0,1,.223,1.086A2.735,2.735,0,0,1,4.8,11.125v.031a3.534,3.534,0,0,1,1.055.277,2.814,2.814,0,0,1,.836.559,2.49,2.49,0,0,1,.551.809A2.582,2.582,0,0,1,7.445,13.828Zm9.164-.383a4.15,4.15,0,0,1-.266,1.508,3.624,3.624,0,0,1-.734,1.188,3.281,3.281,0,0,1-1.117.777,3.538,3.538,0,0,1-1.406.277,3.1,3.1,0,0,1-2.645-1.363,4.853,4.853,0,0,1-.707-1.613,8.74,8.74,0,0,1-.242-2.148,10.1,10.1,0,0,1,.324-2.652,6.444,6.444,0,0,1,.922-2.039A4.25,4.25,0,0,1,12.18,6.07a3.862,3.862,0,0,1,1.883-.461,4.535,4.535,0,0,1,1.859.32V7.141A3.949,3.949,0,0,0,14.094,6.7a2.724,2.724,0,0,0-1.352.336,3.1,3.1,0,0,0-1.031.949,4.63,4.63,0,0,0-.66,1.48,7.511,7.511,0,0,0-.23,1.93h.031a2.69,2.69,0,0,1,2.555-1.4,3.363,3.363,0,0,1,1.324.25,2.859,2.859,0,0,1,1.008.707,3.183,3.183,0,0,1,.645,1.09A4.148,4.148,0,0,1,16.609,13.445Zm-1.312.164a3.486,3.486,0,0,0-.148-1.055,2.288,2.288,0,0,0-.426-.8,1.836,1.836,0,0,0-.684-.5,2.3,2.3,0,0,0-.922-.176,2.158,2.158,0,0,0-.883.18,2.2,2.2,0,0,0-.7.488,2.286,2.286,0,0,0-.633,1.59,3.475,3.475,0,0,0,.164,1.082,2.8,2.8,0,0,0,.461.879,2.192,2.192,0,0,0,.707.59,1.931,1.931,0,0,0,.91.215,2.084,2.084,0,0,0,.883-.184,1.97,1.97,0,0,0,.68-.512,2.369,2.369,0,0,0,.438-.785A3.112,3.112,0,0,0,15.3,13.609Zm9.523-.031a3.771,3.771,0,0,1-.281,1.484,3.245,3.245,0,0,1-.8,1.141,3.586,3.586,0,0,1-1.254.734,4.9,4.9,0,0,1-1.633.258,4.511,4.511,0,0,1-2.32-.469V15.367a4.266,4.266,0,0,0,2.336.734,3.161,3.161,0,0,0,1.1-.18,2.439,2.439,0,0,0,.832-.5,2.141,2.141,0,0,0,.527-.773,2.618,2.618,0,0,0,.184-.992,2.125,2.125,0,0,0-.734-1.715,3.221,3.221,0,0,0-2.133-.621q-.227,0-.477.008t-.5.02q-.25.012-.488.027t-.434.039L19.125,5.8H24.3V6.953h-4.07l-.227,3.289q.25-.016.531-.027t.5-.012a5.028,5.028,0,0,1,1.594.234,3.377,3.377,0,0,1,1.191.668,2.8,2.8,0,0,1,.742,1.063A3.737,3.737,0,0,1,24.82,13.578Zm2.8,3.594A.829.829,0,0,1,27,16.914a.849.849,0,0,1-.254-.617A.862.862,0,0,1,27,15.676a.823.823,0,0,1,.613-.262.845.845,0,0,1,.625.262.855.855,0,0,1,.258.621.842.842,0,0,1-.258.617A.851.851,0,0,1,27.617,17.172Zm9.7-5.82a11.005,11.005,0,0,1-.254,2.492,5.807,5.807,0,0,1-.734,1.832,3.305,3.305,0,0,1-1.18,1.133,3.23,3.23,0,0,1-1.59.387,3.016,3.016,0,0,1-1.5-.371,3.152,3.152,0,0,1-1.113-1.082A5.484,5.484,0,0,1,30.25,14a10.8,10.8,0,0,1-.234-2.371,12.222,12.222,0,0,1,.246-2.594,5.933,5.933,0,0,1,.723-1.887A3.216,3.216,0,0,1,32.168,6a3.323,3.323,0,0,1,1.621-.387Q37.312,5.609,37.313,11.352ZM36,11.477Q36,6.7,33.727,6.7q-2.4,0-2.4,4.867,0,4.539,2.352,4.539Q36,16.1,36,11.477Zm9.938-.125a11.005,11.005,0,0,1-.254,2.492,5.807,5.807,0,0,1-.734,1.832,3.305,3.305,0,0,1-1.18,1.133,3.23,3.23,0,0,1-1.59.387,3.016,3.016,0,0,1-1.5-.371,3.152,3.152,0,0,1-1.113-1.082A5.484,5.484,0,0,1,38.875,14a10.8,10.8,0,0,1-.234-2.371,12.222,12.222,0,0,1,.246-2.594,5.933,5.933,0,0,1,.723-1.887A3.216,3.216,0,0,1,40.793,6a3.323,3.323,0,0,1,1.621-.387Q45.937,5.609,45.938,11.352Zm-1.312.125q0-4.781-2.273-4.781-2.4,0-2.4,4.867,0,4.539,2.352,4.539Q44.625,16.1,44.625,11.477Zm9.938-.125a11.005,11.005,0,0,1-.254,2.492,5.807,5.807,0,0,1-.734,1.832,3.305,3.305,0,0,1-1.18,1.133,3.23,3.23,0,0,1-1.59.387,3.016,3.016,0,0,1-1.5-.371,3.152,3.152,0,0,1-1.113-1.082A5.484,5.484,0,0,1,47.5,14a10.8,10.8,0,0,1-.234-2.371,12.222,12.222,0,0,1,.246-2.594,5.933,5.933,0,0,1,.723-1.887A3.216,3.216,0,0,1,49.418,6a3.323,3.323,0,0,1,1.621-.387Q54.562,5.609,54.563,11.352Zm-1.312.125q0-4.781-2.273-4.781-2.4,0-2.4,4.867,0,4.539,2.352,4.539Q53.25,16.1,53.25,11.477Zm4.438,3.742-1.25,3.844h-.914l.914-3.844Zm8.969-3.867a11.005,11.005,0,0,1-.254,2.492,5.807,5.807,0,0,1-.734,1.832,3.305,3.305,0,0,1-1.18,1.133,3.23,3.23,0,0,1-1.59.387,3.016,3.016,0,0,1-1.5-.371,3.152,3.152,0,0,1-1.113-1.082A5.484,5.484,0,0,1,59.594,14a10.8,10.8,0,0,1-.234-2.371,12.222,12.222,0,0,1,.246-2.594,5.933,5.933,0,0,1,.723-1.887A3.216,3.216,0,0,1,61.512,6a3.323,3.323,0,0,1,1.621-.387Q66.656,5.609,66.656,11.352Zm-1.312.125q0-4.781-2.273-4.781-2.4,0-2.4,4.867,0,4.539,2.352,4.539Q65.344,16.1,65.344,11.477Zm9.938-.125a11.005,11.005,0,0,1-.254,2.492,5.807,5.807,0,0,1-.734,1.832,3.305,3.305,0,0,1-1.18,1.133,3.23,3.23,0,0,1-1.59.387,3.016,3.016,0,0,1-1.5-.371,3.152,3.152,0,0,1-1.113-1.082A5.484,5.484,0,0,1,68.219,14a10.8,10.8,0,0,1-.234-2.371,12.222,12.222,0,0,1,.246-2.594,5.933,5.933,0,0,1,.723-1.887A3.217,3.217,0,0,1,70.137,6a3.323,3.323,0,0,1,1.621-.387Q75.281,5.609,75.281,11.352Zm-1.312.125Q73.969,6.7,71.7,6.7q-2.4,0-2.4,4.867,0,4.539,2.352,4.539Q73.969,16.1,73.969,11.477Z" transform="translate(520 6146)" fill="#12263f"/>
      <path id="Trazado_102754" data-name="Trazado 102754" d="M7.445,13.828a3.266,3.266,0,0,1-.285,1.379,3.045,3.045,0,0,1-.8,1.063,3.714,3.714,0,0,1-1.246.684,5.04,5.04,0,0,1-1.6.242,4.654,4.654,0,0,1-2.547-.609V15.211a4.081,4.081,0,0,0,2.594.891,3.525,3.525,0,0,0,1.059-.148,2.374,2.374,0,0,0,.813-.43,1.909,1.909,0,0,0,.523-.68,2.123,2.123,0,0,0,.184-.9q0-2.2-3.125-2.2h-.93V10.664h.883q2.766,0,2.766-2.062Q5.727,6.7,3.617,6.7a3.592,3.592,0,0,0-2.227.8V6.25a4.868,4.868,0,0,1,2.547-.641,3.913,3.913,0,0,1,1.273.2,2.918,2.918,0,0,1,.977.547,2.423,2.423,0,0,1,.629.844,2.6,2.6,0,0,1,.223,1.086A2.735,2.735,0,0,1,4.8,11.125v.031a3.534,3.534,0,0,1,1.055.277,2.814,2.814,0,0,1,.836.559,2.49,2.49,0,0,1,.551.809A2.582,2.582,0,0,1,7.445,13.828Zm9.023-3.1a11.159,11.159,0,0,1-.3,2.738,6.108,6.108,0,0,1-.891,2.031,3.942,3.942,0,0,1-1.43,1.266,4.145,4.145,0,0,1-1.922.434A4.6,4.6,0,0,1,9.969,16.8V15.578a3.981,3.981,0,0,0,1.984.523,2.881,2.881,0,0,0,1.355-.312,2.807,2.807,0,0,0,1.012-.91,4.468,4.468,0,0,0,.633-1.473,8.315,8.315,0,0,0,.219-2.008h-.031a2.559,2.559,0,0,1-2.5,1.445,3.361,3.361,0,0,1-1.32-.254,3.025,3.025,0,0,1-1.039-.719,3.289,3.289,0,0,1-.68-1.105,3.97,3.97,0,0,1-.242-1.414,4.119,4.119,0,0,1,.27-1.516,3.532,3.532,0,0,1,.75-1.184,3.356,3.356,0,0,1,1.141-.77,3.73,3.73,0,0,1,1.441-.273,3.191,3.191,0,0,1,1.5.34,3,3,0,0,1,1.1.992,4.9,4.9,0,0,1,.68,1.605A9.166,9.166,0,0,1,16.469,10.727ZM15.086,9.578a3.9,3.9,0,0,0-.168-1.18,2.856,2.856,0,0,0-.465-.91,2.086,2.086,0,0,0-.707-.586,1.957,1.957,0,0,0-.895-.207,2.029,2.029,0,0,0-.859.184,2.066,2.066,0,0,0-.691.516,2.462,2.462,0,0,0-.461.789,2.866,2.866,0,0,0-.168,1,3.277,3.277,0,0,0,.16,1.063,2.219,2.219,0,0,0,.457.793,1.974,1.974,0,0,0,.715.5,2.412,2.412,0,0,0,.926.172,2.121,2.121,0,0,0,.84-.168,2.224,2.224,0,0,0,.688-.453,2.088,2.088,0,0,0,.461-.672A2.066,2.066,0,0,0,15.086,9.578Zm10.133,1.773a11.005,11.005,0,0,1-.254,2.492,5.807,5.807,0,0,1-.734,1.832,3.305,3.305,0,0,1-1.18,1.133,3.23,3.23,0,0,1-1.59.387,3.016,3.016,0,0,1-1.5-.371,3.152,3.152,0,0,1-1.113-1.082A5.484,5.484,0,0,1,18.156,14a10.8,10.8,0,0,1-.234-2.371,12.222,12.222,0,0,1,.246-2.594,5.933,5.933,0,0,1,.723-1.887A3.216,3.216,0,0,1,20.074,6,3.323,3.323,0,0,1,21.7,5.609Q25.219,5.609,25.219,11.352Zm-1.312.125q0-4.781-2.273-4.781-2.4,0-2.4,4.867,0,4.539,2.352,4.539Q23.906,16.1,23.906,11.477Zm3.711,5.7A.829.829,0,0,1,27,16.914a.849.849,0,0,1-.254-.617A.862.862,0,0,1,27,15.676a.823.823,0,0,1,.613-.262.845.845,0,0,1,.625.262.855.855,0,0,1,.258.621.842.842,0,0,1-.258.617A.851.851,0,0,1,27.617,17.172ZM35.984,5.8v7.4h1.438v1.172H35.984V17H34.719V14.367H29.453V13.258q.734-.828,1.484-1.77t1.434-1.91q.684-.969,1.266-1.934a17.672,17.672,0,0,0,.98-1.848ZM30.9,13.2h3.82V7.711q-.586,1.023-1.109,1.828t-1,1.461q-.473.656-.9,1.188T30.9,13.2ZM44.609,5.8v7.4h1.438v1.172H44.609V17H43.344V14.367H38.078V13.258q.734-.828,1.484-1.77T41,9.578q.684-.969,1.266-1.934a17.672,17.672,0,0,0,.98-1.848Zm-5.086,7.4h3.82V7.711q-.586,1.023-1.109,1.828t-1,1.461q-.473.656-.9,1.188T39.523,13.2ZM52.25,17H50.969V7.32a2.965,2.965,0,0,1-.434.34,7.068,7.068,0,0,1-.641.379q-.355.188-.75.352a5.45,5.45,0,0,1-.77.258v-1.3a7.448,7.448,0,0,0,.895-.316q.473-.2.93-.445t.863-.516a6.854,6.854,0,0,0,.7-.527h.484Zm5.438-1.781-1.25,3.844h-.914l.914-3.844Zm1.7-1.344a2.981,2.981,0,0,1,.141-.895,3.24,3.24,0,0,1,.4-.84,3.33,3.33,0,0,1,.648-.711,3.091,3.091,0,0,1,.879-.508A3.322,3.322,0,0,1,60.3,9.879a2.466,2.466,0,0,1-.43-1.41,2.72,2.72,0,0,1,.238-1.141,2.748,2.748,0,0,1,.66-.906,3.052,3.052,0,0,1,1-.6,3.735,3.735,0,0,1,2.508,0,3.106,3.106,0,0,1,1,.6,2.7,2.7,0,0,1,.656.906,2.74,2.74,0,0,1,.234,1.133,2.466,2.466,0,0,1-.43,1.41A3.363,3.363,0,0,1,64.6,10.922a3.064,3.064,0,0,1,.867.508,3.378,3.378,0,0,1,.645.711,3.24,3.24,0,0,1,.4.84,2.981,2.981,0,0,1,.141.895,3.327,3.327,0,0,1-.266,1.344,3,3,0,0,1-.746,1.043,3.444,3.444,0,0,1-1.148.676,4.293,4.293,0,0,1-1.473.242,4.235,4.235,0,0,1-1.461-.242,3.5,3.5,0,0,1-1.148-.676,3.023,3.023,0,0,1-.754-1.043A3.285,3.285,0,0,1,59.391,13.875Zm1.391-.109a2.647,2.647,0,0,0,.16.945,2.038,2.038,0,0,0,.453.719,1.978,1.978,0,0,0,.711.457,2.568,2.568,0,0,0,.926.16,2.439,2.439,0,0,0,.906-.164,2.112,2.112,0,0,0,.715-.461,2.072,2.072,0,0,0,.469-.719,2.514,2.514,0,0,0,.168-.937,2.4,2.4,0,0,0-.16-.879,2.2,2.2,0,0,0-.457-.723,2.147,2.147,0,0,0-.711-.492,2.313,2.313,0,0,0-.93-.18,2.338,2.338,0,0,0-.895.168,2.14,2.14,0,0,0-.711.469,2.171,2.171,0,0,0-.473.719A2.391,2.391,0,0,0,60.781,13.766Zm.4-5.2a1.86,1.86,0,0,0,1.133,1.73,1.846,1.846,0,0,0,1.441,0,1.867,1.867,0,0,0,.59-.4,1.95,1.95,0,0,0,.4-.594,1.8,1.8,0,0,0,.148-.73,1.916,1.916,0,0,0-.145-.75,1.841,1.841,0,0,0-1.715-1.133,1.864,1.864,0,0,0-.754.148,1.821,1.821,0,0,0-.586.4,1.759,1.759,0,0,0-.379.6A2.02,2.02,0,0,0,61.18,8.57Zm13.977,2.156a11.159,11.159,0,0,1-.3,2.738,6.108,6.108,0,0,1-.891,2.031,3.942,3.942,0,0,1-1.43,1.266,4.145,4.145,0,0,1-1.922.434,4.6,4.6,0,0,1-1.953-.391V15.578a3.981,3.981,0,0,0,1.984.523A2.881,2.881,0,0,0,72,15.789a2.807,2.807,0,0,0,1.012-.91,4.469,4.469,0,0,0,.633-1.473,8.315,8.315,0,0,0,.219-2.008h-.031a2.559,2.559,0,0,1-2.5,1.445,3.361,3.361,0,0,1-1.32-.254,3.025,3.025,0,0,1-1.039-.719,3.289,3.289,0,0,1-.68-1.105,3.97,3.97,0,0,1-.242-1.414,4.119,4.119,0,0,1,.27-1.516,3.532,3.532,0,0,1,.75-1.184,3.356,3.356,0,0,1,1.141-.77,3.73,3.73,0,0,1,1.441-.273,3.191,3.191,0,0,1,1.5.34,3,3,0,0,1,1.1.992,4.9,4.9,0,0,1,.68,1.605A9.166,9.166,0,0,1,75.156,10.727ZM73.773,9.578a3.9,3.9,0,0,0-.168-1.18,2.856,2.856,0,0,0-.465-.91,2.086,2.086,0,0,0-.707-.586,1.957,1.957,0,0,0-.895-.207,2.029,2.029,0,0,0-.859.184,2.066,2.066,0,0,0-.691.516,2.462,2.462,0,0,0-.461.789,2.867,2.867,0,0,0-.168,1,3.277,3.277,0,0,0,.16,1.063,2.219,2.219,0,0,0,.457.793,1.973,1.973,0,0,0,.715.5,2.412,2.412,0,0,0,.926.172,2.122,2.122,0,0,0,.84-.168,2.224,2.224,0,0,0,.688-.453,2.088,2.088,0,0,0,.461-.672A2.066,2.066,0,0,0,73.773,9.578Z" transform="translate(520 6210)" fill="#12263f"/>
      <path id="Trazado_102749" data-name="Trazado 102749" d="M7.445,13.828a3.266,3.266,0,0,1-.285,1.379,3.045,3.045,0,0,1-.8,1.063,3.714,3.714,0,0,1-1.246.684,5.04,5.04,0,0,1-1.6.242,4.654,4.654,0,0,1-2.547-.609V15.211a4.081,4.081,0,0,0,2.594.891,3.525,3.525,0,0,0,1.059-.148,2.374,2.374,0,0,0,.813-.43,1.909,1.909,0,0,0,.523-.68,2.123,2.123,0,0,0,.184-.9q0-2.2-3.125-2.2h-.93V10.664h.883q2.766,0,2.766-2.062Q5.727,6.7,3.617,6.7a3.592,3.592,0,0,0-2.227.8V6.25a4.868,4.868,0,0,1,2.547-.641,3.913,3.913,0,0,1,1.273.2,2.918,2.918,0,0,1,.977.547,2.423,2.423,0,0,1,.629.844,2.6,2.6,0,0,1,.223,1.086A2.735,2.735,0,0,1,4.8,11.125v.031a3.534,3.534,0,0,1,1.055.277,2.814,2.814,0,0,1,.836.559,2.49,2.49,0,0,1,.551.809A2.582,2.582,0,0,1,7.445,13.828Zm9.164-.383a4.15,4.15,0,0,1-.266,1.508,3.624,3.624,0,0,1-.734,1.188,3.281,3.281,0,0,1-1.117.777,3.538,3.538,0,0,1-1.406.277,3.1,3.1,0,0,1-2.645-1.363,4.853,4.853,0,0,1-.707-1.613,8.74,8.74,0,0,1-.242-2.148,10.1,10.1,0,0,1,.324-2.652,6.444,6.444,0,0,1,.922-2.039A4.25,4.25,0,0,1,12.18,6.07a3.862,3.862,0,0,1,1.883-.461,4.535,4.535,0,0,1,1.859.32V7.141A3.949,3.949,0,0,0,14.094,6.7a2.724,2.724,0,0,0-1.352.336,3.1,3.1,0,0,0-1.031.949,4.63,4.63,0,0,0-.66,1.48,7.511,7.511,0,0,0-.23,1.93h.031a2.69,2.69,0,0,1,2.555-1.4,3.363,3.363,0,0,1,1.324.25,2.859,2.859,0,0,1,1.008.707,3.183,3.183,0,0,1,.645,1.09A4.148,4.148,0,0,1,16.609,13.445Zm-1.312.164a3.486,3.486,0,0,0-.148-1.055,2.288,2.288,0,0,0-.426-.8,1.836,1.836,0,0,0-.684-.5,2.3,2.3,0,0,0-.922-.176,2.158,2.158,0,0,0-.883.18,2.2,2.2,0,0,0-.7.488,2.286,2.286,0,0,0-.633,1.59,3.475,3.475,0,0,0,.164,1.082,2.8,2.8,0,0,0,.461.879,2.192,2.192,0,0,0,.707.59,1.931,1.931,0,0,0,.91.215,2.084,2.084,0,0,0,.883-.184,1.97,1.97,0,0,0,.68-.512,2.369,2.369,0,0,0,.438-.785A3.112,3.112,0,0,0,15.3,13.609Zm3.7,3.563a.829.829,0,0,1-.613-.258.849.849,0,0,1-.254-.617.862.862,0,0,1,.254-.621.823.823,0,0,1,.613-.262.845.845,0,0,1,.625.262.855.855,0,0,1,.258.621.842.842,0,0,1-.258.617A.851.851,0,0,1,18.992,17.172Zm9.172-3.344a3.266,3.266,0,0,1-.285,1.379,3.045,3.045,0,0,1-.8,1.063,3.714,3.714,0,0,1-1.246.684,5.04,5.04,0,0,1-1.6.242,4.654,4.654,0,0,1-2.547-.609V15.211a4.081,4.081,0,0,0,2.594.891,3.525,3.525,0,0,0,1.059-.148,2.374,2.374,0,0,0,.813-.43,1.909,1.909,0,0,0,.523-.68,2.123,2.123,0,0,0,.184-.9q0-2.2-3.125-2.2H22.8V10.664h.883q2.766,0,2.766-2.062,0-1.906-2.109-1.906a3.592,3.592,0,0,0-2.227.8V6.25a4.868,4.868,0,0,1,2.547-.641,3.913,3.913,0,0,1,1.273.2,2.918,2.918,0,0,1,.977.547,2.423,2.423,0,0,1,.629.844,2.6,2.6,0,0,1,.223,1.086,2.735,2.735,0,0,1-2.234,2.844v.031a3.534,3.534,0,0,1,1.055.277,2.814,2.814,0,0,1,.836.559,2.49,2.49,0,0,1,.551.809A2.582,2.582,0,0,1,28.164,13.828Zm9.164-.383a4.15,4.15,0,0,1-.266,1.508,3.624,3.624,0,0,1-.734,1.188,3.281,3.281,0,0,1-1.117.777A3.538,3.538,0,0,1,33.8,17.2a3.1,3.1,0,0,1-2.645-1.363,4.853,4.853,0,0,1-.707-1.613,8.74,8.74,0,0,1-.242-2.148,10.1,10.1,0,0,1,.324-2.652,6.444,6.444,0,0,1,.922-2.039A4.25,4.25,0,0,1,32.9,6.07a3.862,3.862,0,0,1,1.883-.461,4.535,4.535,0,0,1,1.859.32V7.141A3.949,3.949,0,0,0,34.813,6.7a2.724,2.724,0,0,0-1.352.336,3.1,3.1,0,0,0-1.031.949,4.63,4.63,0,0,0-.66,1.48,7.511,7.511,0,0,0-.23,1.93h.031a2.69,2.69,0,0,1,2.555-1.4,3.363,3.363,0,0,1,1.324.25,2.859,2.859,0,0,1,1.008.707,3.183,3.183,0,0,1,.645,1.09A4.148,4.148,0,0,1,37.328,13.445Zm-1.312.164a3.486,3.486,0,0,0-.148-1.055,2.288,2.288,0,0,0-.426-.8,1.836,1.836,0,0,0-.684-.5,2.3,2.3,0,0,0-.922-.176,2.158,2.158,0,0,0-.883.18,2.2,2.2,0,0,0-.7.488,2.286,2.286,0,0,0-.633,1.59,3.475,3.475,0,0,0,.164,1.082,2.8,2.8,0,0,0,.461.879,2.192,2.192,0,0,0,.707.59,1.931,1.931,0,0,0,.91.215,2.084,2.084,0,0,0,.883-.184,1.97,1.97,0,0,0,.68-.512,2.369,2.369,0,0,0,.438-.785A3.112,3.112,0,0,0,36.016,13.609ZM43.625,17H42.344V7.32a2.965,2.965,0,0,1-.434.34,7.068,7.068,0,0,1-.641.379q-.355.188-.75.352a5.45,5.45,0,0,1-.77.258v-1.3a7.448,7.448,0,0,0,.895-.316q.473-.2.93-.445t.863-.516a6.854,6.854,0,0,0,.7-.527h.484Zm5.438-1.781-1.25,3.844H46.9l.914-3.844Zm1.7-1.344a2.981,2.981,0,0,1,.141-.895,3.24,3.24,0,0,1,.4-.84,3.33,3.33,0,0,1,.648-.711,3.091,3.091,0,0,1,.879-.508A3.322,3.322,0,0,1,51.68,9.879a2.466,2.466,0,0,1-.43-1.41,2.72,2.72,0,0,1,.238-1.141,2.748,2.748,0,0,1,.66-.906,3.052,3.052,0,0,1,1-.6,3.735,3.735,0,0,1,2.508,0,3.106,3.106,0,0,1,1,.6,2.7,2.7,0,0,1,.656.906,2.74,2.74,0,0,1,.234,1.133,2.466,2.466,0,0,1-.43,1.41,3.363,3.363,0,0,1-1.141,1.043,3.064,3.064,0,0,1,.867.508,3.379,3.379,0,0,1,.645.711,3.24,3.24,0,0,1,.4.84,2.981,2.981,0,0,1,.141.895,3.327,3.327,0,0,1-.266,1.344,3,3,0,0,1-.746,1.043,3.444,3.444,0,0,1-1.148.676,4.293,4.293,0,0,1-1.473.242,4.235,4.235,0,0,1-1.461-.242,3.5,3.5,0,0,1-1.148-.676,3.023,3.023,0,0,1-.754-1.043A3.285,3.285,0,0,1,50.766,13.875Zm1.391-.109a2.647,2.647,0,0,0,.16.945,2.038,2.038,0,0,0,.453.719,1.978,1.978,0,0,0,.711.457,2.568,2.568,0,0,0,.926.16,2.439,2.439,0,0,0,.906-.164,2.112,2.112,0,0,0,.715-.461A2.073,2.073,0,0,0,56.5,14.7a2.514,2.514,0,0,0,.168-.937,2.4,2.4,0,0,0-.16-.879,2.2,2.2,0,0,0-.457-.723,2.147,2.147,0,0,0-.711-.492,2.313,2.313,0,0,0-.93-.18,2.338,2.338,0,0,0-.895.168,2.14,2.14,0,0,0-.711.469,2.171,2.171,0,0,0-.473.719A2.391,2.391,0,0,0,52.156,13.766Zm.4-5.2a1.86,1.86,0,0,0,1.133,1.73,1.846,1.846,0,0,0,1.441,0,1.867,1.867,0,0,0,.59-.4,1.95,1.95,0,0,0,.4-.594,1.8,1.8,0,0,0,.148-.73,1.916,1.916,0,0,0-.145-.75,1.841,1.841,0,0,0-1.715-1.133,1.864,1.864,0,0,0-.754.148,1.821,1.821,0,0,0-.586.4,1.759,1.759,0,0,0-.379.6A2.02,2.02,0,0,0,52.555,8.57Zm13.977,2.156a11.159,11.159,0,0,1-.3,2.738,6.108,6.108,0,0,1-.891,2.031,3.942,3.942,0,0,1-1.43,1.266,4.145,4.145,0,0,1-1.922.434,4.6,4.6,0,0,1-1.953-.391V15.578a3.981,3.981,0,0,0,1.984.523,2.881,2.881,0,0,0,1.355-.312,2.807,2.807,0,0,0,1.012-.91,4.469,4.469,0,0,0,.633-1.473,8.315,8.315,0,0,0,.219-2.008H65.2a2.559,2.559,0,0,1-2.5,1.445,3.361,3.361,0,0,1-1.32-.254,3.025,3.025,0,0,1-1.039-.719,3.289,3.289,0,0,1-.68-1.105,3.97,3.97,0,0,1-.242-1.414,4.119,4.119,0,0,1,.27-1.516,3.532,3.532,0,0,1,.75-1.184,3.356,3.356,0,0,1,1.141-.77,3.73,3.73,0,0,1,1.441-.273,3.191,3.191,0,0,1,1.5.34,3,3,0,0,1,1.1.992,4.9,4.9,0,0,1,.68,1.605A9.166,9.166,0,0,1,66.531,10.727ZM65.148,9.578A3.9,3.9,0,0,0,64.98,8.4a2.856,2.856,0,0,0-.465-.91,2.086,2.086,0,0,0-.707-.586,1.957,1.957,0,0,0-.895-.207,2.028,2.028,0,0,0-.859.184,2.066,2.066,0,0,0-.691.516,2.462,2.462,0,0,0-.461.789,2.866,2.866,0,0,0-.168,1,3.277,3.277,0,0,0,.16,1.063,2.219,2.219,0,0,0,.457.793,1.974,1.974,0,0,0,.715.5,2.412,2.412,0,0,0,.926.172,2.121,2.121,0,0,0,.84-.168,2.224,2.224,0,0,0,.688-.453,2.088,2.088,0,0,0,.461-.672A2.066,2.066,0,0,0,65.148,9.578Z" transform="translate(729 6146)" fill="#12263f"/>
      <path id="Trazado_102755" data-name="Trazado 102755" d="M7.445,13.828a3.266,3.266,0,0,1-.285,1.379,3.045,3.045,0,0,1-.8,1.063,3.714,3.714,0,0,1-1.246.684,5.04,5.04,0,0,1-1.6.242,4.654,4.654,0,0,1-2.547-.609V15.211a4.081,4.081,0,0,0,2.594.891,3.525,3.525,0,0,0,1.059-.148,2.374,2.374,0,0,0,.813-.43,1.909,1.909,0,0,0,.523-.68,2.123,2.123,0,0,0,.184-.9q0-2.2-3.125-2.2h-.93V10.664h.883q2.766,0,2.766-2.062Q5.727,6.7,3.617,6.7a3.592,3.592,0,0,0-2.227.8V6.25a4.868,4.868,0,0,1,2.547-.641,3.913,3.913,0,0,1,1.273.2,2.918,2.918,0,0,1,.977.547,2.423,2.423,0,0,1,.629.844,2.6,2.6,0,0,1,.223,1.086A2.735,2.735,0,0,1,4.8,11.125v.031a3.534,3.534,0,0,1,1.055.277,2.814,2.814,0,0,1,.836.559,2.49,2.49,0,0,1,.551.809A2.582,2.582,0,0,1,7.445,13.828Zm1.883.047a2.981,2.981,0,0,1,.141-.895,3.24,3.24,0,0,1,.4-.84,3.33,3.33,0,0,1,.648-.711,3.091,3.091,0,0,1,.879-.508,3.322,3.322,0,0,1-1.156-1.043,2.466,2.466,0,0,1-.43-1.41,2.719,2.719,0,0,1,.9-2.047,3.052,3.052,0,0,1,1-.6,3.735,3.735,0,0,1,2.508,0,3.106,3.106,0,0,1,1,.6,2.7,2.7,0,0,1,.656.906,2.74,2.74,0,0,1,.234,1.133,2.466,2.466,0,0,1-.43,1.41,3.363,3.363,0,0,1-1.141,1.043,3.064,3.064,0,0,1,.867.508,3.379,3.379,0,0,1,.645.711,3.24,3.24,0,0,1,.4.84,2.981,2.981,0,0,1,.141.895,3.327,3.327,0,0,1-.266,1.344,3,3,0,0,1-.746,1.043,3.444,3.444,0,0,1-1.148.676,4.293,4.293,0,0,1-1.473.242,4.235,4.235,0,0,1-1.461-.242,3.5,3.5,0,0,1-1.148-.676A3.023,3.023,0,0,1,9.6,15.219,3.285,3.285,0,0,1,9.328,13.875Zm1.391-.109a2.646,2.646,0,0,0,.16.945,2.038,2.038,0,0,0,.453.719,1.978,1.978,0,0,0,.711.457,2.568,2.568,0,0,0,.926.16,2.439,2.439,0,0,0,.906-.164,2.112,2.112,0,0,0,.715-.461,2.072,2.072,0,0,0,.469-.719,2.514,2.514,0,0,0,.168-.937,2.4,2.4,0,0,0-.16-.879,2.2,2.2,0,0,0-.457-.723,2.147,2.147,0,0,0-.711-.492,2.313,2.313,0,0,0-.93-.18,2.338,2.338,0,0,0-.895.168,2.14,2.14,0,0,0-.711.469,2.171,2.171,0,0,0-.473.719A2.391,2.391,0,0,0,10.719,13.766Zm.4-5.2A1.86,1.86,0,0,0,12.25,10.3a1.846,1.846,0,0,0,1.441,0,1.867,1.867,0,0,0,.59-.4,1.95,1.95,0,0,0,.4-.594,1.8,1.8,0,0,0,.148-.73,1.916,1.916,0,0,0-.145-.75,1.841,1.841,0,0,0-1.715-1.133,1.864,1.864,0,0,0-.754.148,1.821,1.821,0,0,0-.586.4,1.759,1.759,0,0,0-.379.6A2.02,2.02,0,0,0,11.117,8.57Zm7.875,8.6a.829.829,0,0,1-.613-.258.849.849,0,0,1-.254-.617.862.862,0,0,1,.254-.621.823.823,0,0,1,.613-.262.845.845,0,0,1,.625.262.855.855,0,0,1,.258.621.842.842,0,0,1-.258.617A.851.851,0,0,1,18.992,17.172Zm2.43-3.3a2.981,2.981,0,0,1,.141-.895,3.24,3.24,0,0,1,.4-.84,3.33,3.33,0,0,1,.648-.711,3.091,3.091,0,0,1,.879-.508,3.322,3.322,0,0,1-1.156-1.043,2.466,2.466,0,0,1-.43-1.41,2.719,2.719,0,0,1,.9-2.047,3.052,3.052,0,0,1,1-.6,3.735,3.735,0,0,1,2.508,0,3.106,3.106,0,0,1,1,.6,2.7,2.7,0,0,1,.656.906A2.74,2.74,0,0,1,28.2,8.469a2.466,2.466,0,0,1-.43,1.41,3.363,3.363,0,0,1-1.141,1.043,3.064,3.064,0,0,1,.867.508,3.379,3.379,0,0,1,.645.711,3.24,3.24,0,0,1,.4.84,2.981,2.981,0,0,1,.141.895,3.327,3.327,0,0,1-.266,1.344,3,3,0,0,1-.746,1.043,3.444,3.444,0,0,1-1.148.676,4.293,4.293,0,0,1-1.473.242,4.235,4.235,0,0,1-1.461-.242,3.5,3.5,0,0,1-1.148-.676,3.023,3.023,0,0,1-.754-1.043A3.285,3.285,0,0,1,21.422,13.875Zm1.391-.109a2.646,2.646,0,0,0,.16.945,2.038,2.038,0,0,0,.453.719,1.978,1.978,0,0,0,.711.457,2.568,2.568,0,0,0,.926.16,2.439,2.439,0,0,0,.906-.164,2.112,2.112,0,0,0,.715-.461,2.072,2.072,0,0,0,.469-.719,2.514,2.514,0,0,0,.168-.937,2.4,2.4,0,0,0-.16-.879,2.2,2.2,0,0,0-.457-.723,2.147,2.147,0,0,0-.711-.492,2.313,2.313,0,0,0-.93-.18,2.338,2.338,0,0,0-.895.168,2.14,2.14,0,0,0-.711.469,2.171,2.171,0,0,0-.473.719A2.391,2.391,0,0,0,22.813,13.766Zm.4-5.2a1.86,1.86,0,0,0,1.133,1.73,1.846,1.846,0,0,0,1.441,0,1.867,1.867,0,0,0,.59-.4,1.95,1.95,0,0,0,.4-.594,1.8,1.8,0,0,0,.148-.73,1.916,1.916,0,0,0-.145-.75,1.841,1.841,0,0,0-1.715-1.133,1.864,1.864,0,0,0-.754.148,1.821,1.821,0,0,0-.586.4,1.759,1.759,0,0,0-.379.6A2.02,2.02,0,0,0,23.211,8.57Zm13.977,2.156a11.159,11.159,0,0,1-.3,2.738,6.108,6.108,0,0,1-.891,2.031,3.942,3.942,0,0,1-1.43,1.266,4.145,4.145,0,0,1-1.922.434,4.6,4.6,0,0,1-1.953-.391V15.578a3.981,3.981,0,0,0,1.984.523,2.881,2.881,0,0,0,1.355-.312,2.807,2.807,0,0,0,1.012-.91,4.468,4.468,0,0,0,.633-1.473,8.315,8.315,0,0,0,.219-2.008h-.031a2.559,2.559,0,0,1-2.5,1.445,3.361,3.361,0,0,1-1.32-.254A3.025,3.025,0,0,1,31,11.871a3.289,3.289,0,0,1-.68-1.105,3.97,3.97,0,0,1-.242-1.414,4.119,4.119,0,0,1,.27-1.516,3.532,3.532,0,0,1,.75-1.184,3.356,3.356,0,0,1,1.141-.77,3.73,3.73,0,0,1,1.441-.273,3.191,3.191,0,0,1,1.5.34,3,3,0,0,1,1.1.992,4.9,4.9,0,0,1,.68,1.605A9.166,9.166,0,0,1,37.188,10.727ZM35.8,9.578a3.9,3.9,0,0,0-.168-1.18,2.856,2.856,0,0,0-.465-.91,2.086,2.086,0,0,0-.707-.586A1.957,1.957,0,0,0,33.57,6.7a2.028,2.028,0,0,0-.859.184,2.066,2.066,0,0,0-.691.516,2.462,2.462,0,0,0-.461.789,2.867,2.867,0,0,0-.168,1,3.277,3.277,0,0,0,.16,1.063,2.219,2.219,0,0,0,.457.793,1.974,1.974,0,0,0,.715.5,2.412,2.412,0,0,0,.926.172,2.121,2.121,0,0,0,.84-.168,2.224,2.224,0,0,0,.688-.453,2.088,2.088,0,0,0,.461-.672A2.066,2.066,0,0,0,35.8,9.578Zm10.148,3.867a4.15,4.15,0,0,1-.266,1.508,3.624,3.624,0,0,1-.734,1.188,3.281,3.281,0,0,1-1.117.777,3.538,3.538,0,0,1-1.406.277,3.1,3.1,0,0,1-2.645-1.363,4.853,4.853,0,0,1-.707-1.613,8.74,8.74,0,0,1-.242-2.148,10.1,10.1,0,0,1,.324-2.652,6.444,6.444,0,0,1,.922-2.039A4.25,4.25,0,0,1,41.523,6.07a3.862,3.862,0,0,1,1.883-.461,4.535,4.535,0,0,1,1.859.32V7.141A3.949,3.949,0,0,0,43.438,6.7a2.724,2.724,0,0,0-1.352.336,3.1,3.1,0,0,0-1.031.949,4.63,4.63,0,0,0-.66,1.48,7.511,7.511,0,0,0-.23,1.93H40.2a2.69,2.69,0,0,1,2.555-1.4,3.363,3.363,0,0,1,1.324.25,2.859,2.859,0,0,1,1.008.707,3.183,3.183,0,0,1,.645,1.09A4.148,4.148,0,0,1,45.953,13.445Zm-1.312.164a3.486,3.486,0,0,0-.148-1.055,2.288,2.288,0,0,0-.426-.8,1.836,1.836,0,0,0-.684-.5,2.3,2.3,0,0,0-.922-.176,2.158,2.158,0,0,0-.883.18,2.2,2.2,0,0,0-.7.488,2.286,2.286,0,0,0-.633,1.59,3.475,3.475,0,0,0,.164,1.082,2.8,2.8,0,0,0,.461.879,2.192,2.192,0,0,0,.707.59,1.931,1.931,0,0,0,.91.215,2.084,2.084,0,0,0,.883-.184,1.97,1.97,0,0,0,.68-.512,2.369,2.369,0,0,0,.438-.785A3.112,3.112,0,0,0,44.641,13.609Zm4.422,1.609-1.25,3.844H46.9l.914-3.844ZM56.7,5.8v7.4h1.438v1.172H56.7V17H55.438V14.367H50.172V13.258q.734-.828,1.484-1.77t1.434-1.91q.684-.969,1.266-1.934a17.672,17.672,0,0,0,.98-1.848Zm-5.086,7.4h3.82V7.711q-.586,1.023-1.109,1.828t-1,1.461q-.473.656-.9,1.188T51.617,13.2Zm14.641.383a3.771,3.771,0,0,1-.281,1.484,3.245,3.245,0,0,1-.8,1.141,3.586,3.586,0,0,1-1.254.734,4.9,4.9,0,0,1-1.633.258,4.511,4.511,0,0,1-2.32-.469V15.367A4.266,4.266,0,0,0,62.3,16.1a3.161,3.161,0,0,0,1.1-.18,2.439,2.439,0,0,0,.832-.5,2.141,2.141,0,0,0,.527-.773,2.618,2.618,0,0,0,.184-.992,2.125,2.125,0,0,0-.734-1.715,3.221,3.221,0,0,0-2.133-.621q-.227,0-.477.008t-.5.02q-.25.012-.488.027t-.434.039L60.563,5.8h5.18V6.953h-4.07l-.227,3.289q.25-.016.531-.027t.5-.012a5.028,5.028,0,0,1,1.594.234,3.377,3.377,0,0,1,1.191.668A2.8,2.8,0,0,1,66,12.168,3.737,3.737,0,0,1,66.258,13.578Z" transform="translate(729 6210)" fill="#12263f"/>
      <path id="Trazado_102750" data-name="Trazado 102750" d="M5.656,17H4.375V7.32a2.966,2.966,0,0,1-.434.34,7.068,7.068,0,0,1-.641.379q-.355.188-.75.352a5.451,5.451,0,0,1-.77.258v-1.3a7.448,7.448,0,0,0,.895-.316q.473-.2.93-.445t.863-.516a6.854,6.854,0,0,0,.7-.527h.484Zm10.938-5.648a11.005,11.005,0,0,1-.254,2.492,5.807,5.807,0,0,1-.734,1.832,3.305,3.305,0,0,1-1.18,1.133,3.23,3.23,0,0,1-1.59.387,3.016,3.016,0,0,1-1.5-.371,3.152,3.152,0,0,1-1.113-1.082A5.484,5.484,0,0,1,9.531,14,10.8,10.8,0,0,1,9.3,11.625a12.222,12.222,0,0,1,.246-2.594,5.933,5.933,0,0,1,.723-1.887A3.216,3.216,0,0,1,11.449,6a3.323,3.323,0,0,1,1.621-.387Q16.594,5.609,16.594,11.352Zm-1.312.125q0-4.781-2.273-4.781-2.4,0-2.4,4.867,0,4.539,2.352,4.539Q15.281,16.1,15.281,11.477Zm3.711,5.7a.829.829,0,0,1-.613-.258.849.849,0,0,1-.254-.617.862.862,0,0,1,.254-.621.823.823,0,0,1,.613-.262.845.845,0,0,1,.625.262.855.855,0,0,1,.258.621.842.842,0,0,1-.258.617A.851.851,0,0,1,18.992,17.172Zm9.57-6.445a11.159,11.159,0,0,1-.3,2.738,6.108,6.108,0,0,1-.891,2.031,3.942,3.942,0,0,1-1.43,1.266,4.145,4.145,0,0,1-1.922.434,4.6,4.6,0,0,1-1.953-.391V15.578a3.981,3.981,0,0,0,1.984.523,2.881,2.881,0,0,0,1.355-.312,2.807,2.807,0,0,0,1.012-.91,4.469,4.469,0,0,0,.633-1.473,8.315,8.315,0,0,0,.219-2.008h-.031a2.559,2.559,0,0,1-2.5,1.445,3.361,3.361,0,0,1-1.32-.254,3.025,3.025,0,0,1-1.039-.719,3.289,3.289,0,0,1-.68-1.105,3.97,3.97,0,0,1-.242-1.414,4.119,4.119,0,0,1,.27-1.516,3.532,3.532,0,0,1,.75-1.184,3.356,3.356,0,0,1,1.141-.77,3.73,3.73,0,0,1,1.441-.273,3.191,3.191,0,0,1,1.5.34,3,3,0,0,1,1.1.992,4.9,4.9,0,0,1,.68,1.605A9.166,9.166,0,0,1,28.563,10.727ZM27.18,9.578a3.9,3.9,0,0,0-.168-1.18,2.856,2.856,0,0,0-.465-.91A2.086,2.086,0,0,0,25.84,6.9a1.957,1.957,0,0,0-.895-.207,2.029,2.029,0,0,0-.859.184,2.066,2.066,0,0,0-.691.516,2.462,2.462,0,0,0-.461.789,2.867,2.867,0,0,0-.168,1,3.277,3.277,0,0,0,.16,1.063,2.219,2.219,0,0,0,.457.793,1.973,1.973,0,0,0,.715.5,2.412,2.412,0,0,0,.926.172,2.121,2.121,0,0,0,.84-.168,2.224,2.224,0,0,0,.688-.453,2.088,2.088,0,0,0,.461-.672A2.066,2.066,0,0,0,27.18,9.578Zm8.2-.844a2.316,2.316,0,0,0-.16-.9,1.739,1.739,0,0,0-1.09-1.016,2.555,2.555,0,0,0-.812-.125,2.688,2.688,0,0,0-.734.1,3.57,3.57,0,0,0-.7.281,4.3,4.3,0,0,0-.656.43,4.74,4.74,0,0,0-.59.555V6.688a3.831,3.831,0,0,1,1.207-.8,4.25,4.25,0,0,1,1.629-.277,3.932,3.932,0,0,1,1.273.2,2.92,2.92,0,0,1,1.016.582,2.691,2.691,0,0,1,.676.945,3.188,3.188,0,0,1,.246,1.289,4.42,4.42,0,0,1-.152,1.2,3.721,3.721,0,0,1-.461,1.016,4.9,4.9,0,0,1-.777.914,11.011,11.011,0,0,1-1.1.891q-.789.563-1.3.961a5.75,5.75,0,0,0-.812.746,2.165,2.165,0,0,0-.422.7,2.431,2.431,0,0,0-.121.8h5.578V17H30.2v-.555a4.622,4.622,0,0,1,.156-1.266,3.286,3.286,0,0,1,.516-1.039,5.767,5.767,0,0,1,.941-.984q.582-.492,1.426-1.109a9.014,9.014,0,0,0,1.02-.836,4.346,4.346,0,0,0,.66-.8,2.862,2.862,0,0,0,.355-.809A3.486,3.486,0,0,0,35.375,8.734Zm10.563,2.617a11.005,11.005,0,0,1-.254,2.492,5.807,5.807,0,0,1-.734,1.832,3.305,3.305,0,0,1-1.18,1.133,3.23,3.23,0,0,1-1.59.387,3.016,3.016,0,0,1-1.5-.371,3.152,3.152,0,0,1-1.113-1.082A5.484,5.484,0,0,1,38.875,14a10.8,10.8,0,0,1-.234-2.371,12.222,12.222,0,0,1,.246-2.594,5.933,5.933,0,0,1,.723-1.887A3.216,3.216,0,0,1,40.793,6a3.323,3.323,0,0,1,1.621-.387Q45.937,5.609,45.938,11.352Zm-1.312.125q0-4.781-2.273-4.781-2.4,0-2.4,4.867,0,4.539,2.352,4.539Q44.625,16.1,44.625,11.477Zm4.438,3.742-1.25,3.844H46.9l.914-3.844Zm8.969-3.867a11.005,11.005,0,0,1-.254,2.492,5.807,5.807,0,0,1-.734,1.832,3.305,3.305,0,0,1-1.18,1.133,3.23,3.23,0,0,1-1.59.387,3.016,3.016,0,0,1-1.5-.371,3.152,3.152,0,0,1-1.113-1.082A5.484,5.484,0,0,1,50.969,14a10.8,10.8,0,0,1-.234-2.371,12.222,12.222,0,0,1,.246-2.594A5.933,5.933,0,0,1,51.7,7.145,3.216,3.216,0,0,1,52.887,6a3.323,3.323,0,0,1,1.621-.387Q58.031,5.609,58.031,11.352Zm-1.312.125q0-4.781-2.273-4.781-2.4,0-2.4,4.867,0,4.539,2.352,4.539Q56.719,16.1,56.719,11.477Zm9.938-.125a11.005,11.005,0,0,1-.254,2.492,5.807,5.807,0,0,1-.734,1.832,3.305,3.305,0,0,1-1.18,1.133,3.23,3.23,0,0,1-1.59.387,3.016,3.016,0,0,1-1.5-.371,3.152,3.152,0,0,1-1.113-1.082A5.484,5.484,0,0,1,59.594,14a10.8,10.8,0,0,1-.234-2.371,12.222,12.222,0,0,1,.246-2.594,5.933,5.933,0,0,1,.723-1.887A3.216,3.216,0,0,1,61.512,6a3.323,3.323,0,0,1,1.621-.387Q66.656,5.609,66.656,11.352Zm-1.312.125q0-4.781-2.273-4.781-2.4,0-2.4,4.867,0,4.539,2.352,4.539Q65.344,16.1,65.344,11.477Z" transform="translate(950 6146)" fill="#12263f"/>
      <path id="Trazado_102756" data-name="Trazado 102756" d="M5.656,17H4.375V7.32a2.966,2.966,0,0,1-.434.34,7.068,7.068,0,0,1-.641.379q-.355.188-.75.352a5.451,5.451,0,0,1-.77.258v-1.3a7.448,7.448,0,0,0,.895-.316q.473-.2.93-.445t.863-.516a6.854,6.854,0,0,0,.7-.527h.484Zm10.938-5.648a11.005,11.005,0,0,1-.254,2.492,5.807,5.807,0,0,1-.734,1.832,3.305,3.305,0,0,1-1.18,1.133,3.23,3.23,0,0,1-1.59.387,3.016,3.016,0,0,1-1.5-.371,3.152,3.152,0,0,1-1.113-1.082A5.484,5.484,0,0,1,9.531,14,10.8,10.8,0,0,1,9.3,11.625a12.222,12.222,0,0,1,.246-2.594,5.933,5.933,0,0,1,.723-1.887A3.216,3.216,0,0,1,11.449,6a3.323,3.323,0,0,1,1.621-.387Q16.594,5.609,16.594,11.352Zm-1.312.125q0-4.781-2.273-4.781-2.4,0-2.4,4.867,0,4.539,2.352,4.539Q15.281,16.1,15.281,11.477Zm3.711,5.7a.829.829,0,0,1-.613-.258.849.849,0,0,1-.254-.617.862.862,0,0,1,.254-.621.823.823,0,0,1,.613-.262.845.845,0,0,1,.625.262.855.855,0,0,1,.258.621.842.842,0,0,1-.258.617A.851.851,0,0,1,18.992,17.172Zm9.57-6.445a11.159,11.159,0,0,1-.3,2.738,6.108,6.108,0,0,1-.891,2.031,3.942,3.942,0,0,1-1.43,1.266,4.145,4.145,0,0,1-1.922.434,4.6,4.6,0,0,1-1.953-.391V15.578a3.981,3.981,0,0,0,1.984.523,2.881,2.881,0,0,0,1.355-.312,2.807,2.807,0,0,0,1.012-.91,4.469,4.469,0,0,0,.633-1.473,8.315,8.315,0,0,0,.219-2.008h-.031a2.559,2.559,0,0,1-2.5,1.445,3.361,3.361,0,0,1-1.32-.254,3.025,3.025,0,0,1-1.039-.719,3.289,3.289,0,0,1-.68-1.105,3.97,3.97,0,0,1-.242-1.414,4.119,4.119,0,0,1,.27-1.516,3.532,3.532,0,0,1,.75-1.184,3.356,3.356,0,0,1,1.141-.77,3.73,3.73,0,0,1,1.441-.273,3.191,3.191,0,0,1,1.5.34,3,3,0,0,1,1.1.992,4.9,4.9,0,0,1,.68,1.605A9.166,9.166,0,0,1,28.563,10.727ZM27.18,9.578a3.9,3.9,0,0,0-.168-1.18,2.856,2.856,0,0,0-.465-.91A2.086,2.086,0,0,0,25.84,6.9a1.957,1.957,0,0,0-.895-.207,2.029,2.029,0,0,0-.859.184,2.066,2.066,0,0,0-.691.516,2.462,2.462,0,0,0-.461.789,2.867,2.867,0,0,0-.168,1,3.277,3.277,0,0,0,.16,1.063,2.219,2.219,0,0,0,.457.793,1.973,1.973,0,0,0,.715.5,2.412,2.412,0,0,0,.926.172,2.121,2.121,0,0,0,.84-.168,2.224,2.224,0,0,0,.688-.453,2.088,2.088,0,0,0,.461-.672A2.066,2.066,0,0,0,27.18,9.578Zm8.2-.844a2.316,2.316,0,0,0-.16-.9,1.739,1.739,0,0,0-1.09-1.016,2.555,2.555,0,0,0-.812-.125,2.688,2.688,0,0,0-.734.1,3.57,3.57,0,0,0-.7.281,4.3,4.3,0,0,0-.656.43,4.74,4.74,0,0,0-.59.555V6.688a3.831,3.831,0,0,1,1.207-.8,4.25,4.25,0,0,1,1.629-.277,3.932,3.932,0,0,1,1.273.2,2.92,2.92,0,0,1,1.016.582,2.691,2.691,0,0,1,.676.945,3.188,3.188,0,0,1,.246,1.289,4.42,4.42,0,0,1-.152,1.2,3.721,3.721,0,0,1-.461,1.016,4.9,4.9,0,0,1-.777.914,11.011,11.011,0,0,1-1.1.891q-.789.563-1.3.961a5.75,5.75,0,0,0-.812.746,2.165,2.165,0,0,0-.422.7,2.431,2.431,0,0,0-.121.8h5.578V17H30.2v-.555a4.622,4.622,0,0,1,.156-1.266,3.286,3.286,0,0,1,.516-1.039,5.767,5.767,0,0,1,.941-.984q.582-.492,1.426-1.109a9.014,9.014,0,0,0,1.02-.836,4.346,4.346,0,0,0,.66-.8,2.862,2.862,0,0,0,.355-.809A3.486,3.486,0,0,0,35.375,8.734Zm10.563,2.617a11.005,11.005,0,0,1-.254,2.492,5.807,5.807,0,0,1-.734,1.832,3.305,3.305,0,0,1-1.18,1.133,3.23,3.23,0,0,1-1.59.387,3.016,3.016,0,0,1-1.5-.371,3.152,3.152,0,0,1-1.113-1.082A5.484,5.484,0,0,1,38.875,14a10.8,10.8,0,0,1-.234-2.371,12.222,12.222,0,0,1,.246-2.594,5.933,5.933,0,0,1,.723-1.887A3.216,3.216,0,0,1,40.793,6a3.323,3.323,0,0,1,1.621-.387Q45.937,5.609,45.938,11.352Zm-1.312.125q0-4.781-2.273-4.781-2.4,0-2.4,4.867,0,4.539,2.352,4.539Q44.625,16.1,44.625,11.477Zm4.438,3.742-1.25,3.844H46.9l.914-3.844Zm8.969-3.867a11.005,11.005,0,0,1-.254,2.492,5.807,5.807,0,0,1-.734,1.832,3.305,3.305,0,0,1-1.18,1.133,3.23,3.23,0,0,1-1.59.387,3.016,3.016,0,0,1-1.5-.371,3.152,3.152,0,0,1-1.113-1.082A5.484,5.484,0,0,1,50.969,14a10.8,10.8,0,0,1-.234-2.371,12.222,12.222,0,0,1,.246-2.594A5.933,5.933,0,0,1,51.7,7.145,3.216,3.216,0,0,1,52.887,6a3.323,3.323,0,0,1,1.621-.387Q58.031,5.609,58.031,11.352Zm-1.312.125q0-4.781-2.273-4.781-2.4,0-2.4,4.867,0,4.539,2.352,4.539Q56.719,16.1,56.719,11.477Zm9.938-.125a11.005,11.005,0,0,1-.254,2.492,5.807,5.807,0,0,1-.734,1.832,3.305,3.305,0,0,1-1.18,1.133,3.23,3.23,0,0,1-1.59.387,3.016,3.016,0,0,1-1.5-.371,3.152,3.152,0,0,1-1.113-1.082A5.484,5.484,0,0,1,59.594,14a10.8,10.8,0,0,1-.234-2.371,12.222,12.222,0,0,1,.246-2.594,5.933,5.933,0,0,1,.723-1.887A3.216,3.216,0,0,1,61.512,6a3.323,3.323,0,0,1,1.621-.387Q66.656,5.609,66.656,11.352Zm-1.312.125q0-4.781-2.273-4.781-2.4,0-2.4,4.867,0,4.539,2.352,4.539Q65.344,16.1,65.344,11.477Z" transform="translate(950 6210)" fill="#12263f"/>
      <path id="Trazado_102751" data-name="Trazado 102751" d="M6.031,8.734a2.316,2.316,0,0,0-.16-.9A1.739,1.739,0,0,0,4.781,6.82,2.555,2.555,0,0,0,3.969,6.7a2.688,2.688,0,0,0-.734.1,3.57,3.57,0,0,0-.7.281,4.3,4.3,0,0,0-.656.43,4.74,4.74,0,0,0-.59.555V6.688a3.831,3.831,0,0,1,1.207-.8,4.25,4.25,0,0,1,1.629-.277,3.932,3.932,0,0,1,1.273.2,2.92,2.92,0,0,1,1.016.582,2.691,2.691,0,0,1,.676.945,3.188,3.188,0,0,1,.246,1.289,4.42,4.42,0,0,1-.152,1.2,3.721,3.721,0,0,1-.461,1.016,4.9,4.9,0,0,1-.777.914,11.011,11.011,0,0,1-1.1.891q-.789.563-1.3.961a5.75,5.75,0,0,0-.812.746,2.165,2.165,0,0,0-.422.7,2.43,2.43,0,0,0-.121.8H7.766V17H.852v-.555a4.622,4.622,0,0,1,.156-1.266,3.286,3.286,0,0,1,.516-1.039,5.767,5.767,0,0,1,.941-.984q.582-.492,1.426-1.109a9.014,9.014,0,0,0,1.02-.836,4.346,4.346,0,0,0,.66-.8,2.862,2.862,0,0,0,.355-.809A3.486,3.486,0,0,0,6.031,8.734ZM16.2,13.578a3.771,3.771,0,0,1-.281,1.484,3.245,3.245,0,0,1-.8,1.141,3.586,3.586,0,0,1-1.254.734,4.9,4.9,0,0,1-1.633.258,4.511,4.511,0,0,1-2.32-.469V15.367a4.266,4.266,0,0,0,2.336.734,3.161,3.161,0,0,0,1.1-.18,2.439,2.439,0,0,0,.832-.5,2.141,2.141,0,0,0,.527-.773,2.618,2.618,0,0,0,.184-.992,2.125,2.125,0,0,0-.734-1.715,3.221,3.221,0,0,0-2.133-.621q-.227,0-.477.008t-.5.02q-.25.012-.488.027t-.434.039L10.5,5.8h5.18V6.953h-4.07l-.227,3.289q.25-.016.531-.027t.5-.012a5.028,5.028,0,0,1,1.594.234,3.377,3.377,0,0,1,1.191.668,2.8,2.8,0,0,1,.742,1.063A3.737,3.737,0,0,1,16.2,13.578Zm2.8,3.594a.829.829,0,0,1-.613-.258.849.849,0,0,1-.254-.617.862.862,0,0,1,.254-.621.823.823,0,0,1,.613-.262.845.845,0,0,1,.625.262.855.855,0,0,1,.258.621.842.842,0,0,1-.258.617A.851.851,0,0,1,18.992,17.172ZM27.359,5.8v7.4H28.8v1.172H27.359V17H26.094V14.367H20.828V13.258q.734-.828,1.484-1.77t1.434-1.91q.684-.969,1.266-1.934a17.671,17.671,0,0,0,.98-1.848Zm-5.086,7.4h3.82V7.711q-.586,1.023-1.109,1.828t-1,1.461q-.473.656-.9,1.188T22.273,13.2ZM35.984,5.8v7.4h1.438v1.172H35.984V17H34.719V14.367H29.453V13.258q.734-.828,1.484-1.77t1.434-1.91q.684-.969,1.266-1.934a17.672,17.672,0,0,0,.98-1.848ZM30.9,13.2h3.82V7.711q-.586,1.023-1.109,1.828t-1,1.461q-.473.656-.9,1.188T30.9,13.2ZM43.625,17H42.344V7.32a2.965,2.965,0,0,1-.434.34,7.068,7.068,0,0,1-.641.379q-.355.188-.75.352a5.45,5.45,0,0,1-.77.258v-1.3a7.448,7.448,0,0,0,.895-.316q.473-.2.93-.445t.863-.516a6.854,6.854,0,0,0,.7-.527h.484Zm5.438-1.781-1.25,3.844H46.9l.914-3.844Zm1.7-1.344a2.981,2.981,0,0,1,.141-.895,3.24,3.24,0,0,1,.4-.84,3.33,3.33,0,0,1,.648-.711,3.091,3.091,0,0,1,.879-.508A3.322,3.322,0,0,1,51.68,9.879a2.466,2.466,0,0,1-.43-1.41,2.72,2.72,0,0,1,.238-1.141,2.748,2.748,0,0,1,.66-.906,3.052,3.052,0,0,1,1-.6,3.735,3.735,0,0,1,2.508,0,3.106,3.106,0,0,1,1,.6,2.7,2.7,0,0,1,.656.906,2.74,2.74,0,0,1,.234,1.133,2.466,2.466,0,0,1-.43,1.41,3.363,3.363,0,0,1-1.141,1.043,3.064,3.064,0,0,1,.867.508,3.379,3.379,0,0,1,.645.711,3.24,3.24,0,0,1,.4.84,2.981,2.981,0,0,1,.141.895,3.327,3.327,0,0,1-.266,1.344,3,3,0,0,1-.746,1.043,3.444,3.444,0,0,1-1.148.676,4.293,4.293,0,0,1-1.473.242,4.235,4.235,0,0,1-1.461-.242,3.5,3.5,0,0,1-1.148-.676,3.023,3.023,0,0,1-.754-1.043A3.285,3.285,0,0,1,50.766,13.875Zm1.391-.109a2.647,2.647,0,0,0,.16.945,2.038,2.038,0,0,0,.453.719,1.978,1.978,0,0,0,.711.457,2.568,2.568,0,0,0,.926.16,2.439,2.439,0,0,0,.906-.164,2.112,2.112,0,0,0,.715-.461A2.073,2.073,0,0,0,56.5,14.7a2.514,2.514,0,0,0,.168-.937,2.4,2.4,0,0,0-.16-.879,2.2,2.2,0,0,0-.457-.723,2.147,2.147,0,0,0-.711-.492,2.313,2.313,0,0,0-.93-.18,2.338,2.338,0,0,0-.895.168,2.14,2.14,0,0,0-.711.469,2.171,2.171,0,0,0-.473.719A2.391,2.391,0,0,0,52.156,13.766Zm.4-5.2a1.86,1.86,0,0,0,1.133,1.73,1.846,1.846,0,0,0,1.441,0,1.867,1.867,0,0,0,.59-.4,1.95,1.95,0,0,0,.4-.594,1.8,1.8,0,0,0,.148-.73,1.916,1.916,0,0,0-.145-.75,1.841,1.841,0,0,0-1.715-1.133,1.864,1.864,0,0,0-.754.148,1.821,1.821,0,0,0-.586.4,1.759,1.759,0,0,0-.379.6A2.02,2.02,0,0,0,52.555,8.57Zm13.977,2.156a11.159,11.159,0,0,1-.3,2.738,6.108,6.108,0,0,1-.891,2.031,3.942,3.942,0,0,1-1.43,1.266,4.145,4.145,0,0,1-1.922.434,4.6,4.6,0,0,1-1.953-.391V15.578a3.981,3.981,0,0,0,1.984.523,2.881,2.881,0,0,0,1.355-.312,2.807,2.807,0,0,0,1.012-.91,4.469,4.469,0,0,0,.633-1.473,8.315,8.315,0,0,0,.219-2.008H65.2a2.559,2.559,0,0,1-2.5,1.445,3.361,3.361,0,0,1-1.32-.254,3.025,3.025,0,0,1-1.039-.719,3.289,3.289,0,0,1-.68-1.105,3.97,3.97,0,0,1-.242-1.414,4.119,4.119,0,0,1,.27-1.516,3.532,3.532,0,0,1,.75-1.184,3.356,3.356,0,0,1,1.141-.77,3.73,3.73,0,0,1,1.441-.273,3.191,3.191,0,0,1,1.5.34,3,3,0,0,1,1.1.992,4.9,4.9,0,0,1,.68,1.605A9.166,9.166,0,0,1,66.531,10.727ZM65.148,9.578A3.9,3.9,0,0,0,64.98,8.4a2.856,2.856,0,0,0-.465-.91,2.086,2.086,0,0,0-.707-.586,1.957,1.957,0,0,0-.895-.207,2.028,2.028,0,0,0-.859.184,2.066,2.066,0,0,0-.691.516,2.462,2.462,0,0,0-.461.789,2.866,2.866,0,0,0-.168,1,3.277,3.277,0,0,0,.16,1.063,2.219,2.219,0,0,0,.457.793,1.974,1.974,0,0,0,.715.5,2.412,2.412,0,0,0,.926.172,2.121,2.121,0,0,0,.84-.168,2.224,2.224,0,0,0,.688-.453,2.088,2.088,0,0,0,.461-.672A2.066,2.066,0,0,0,65.148,9.578Z" transform="translate(1154 6146)" fill="#12263f"/>
      <path id="Trazado_102757" data-name="Trazado 102757" d="M6.031,8.734a2.316,2.316,0,0,0-.16-.9A1.739,1.739,0,0,0,4.781,6.82,2.555,2.555,0,0,0,3.969,6.7a2.688,2.688,0,0,0-.734.1,3.57,3.57,0,0,0-.7.281,4.3,4.3,0,0,0-.656.43,4.74,4.74,0,0,0-.59.555V6.688a3.831,3.831,0,0,1,1.207-.8,4.25,4.25,0,0,1,1.629-.277,3.932,3.932,0,0,1,1.273.2,2.92,2.92,0,0,1,1.016.582,2.691,2.691,0,0,1,.676.945,3.188,3.188,0,0,1,.246,1.289,4.42,4.42,0,0,1-.152,1.2,3.721,3.721,0,0,1-.461,1.016,4.9,4.9,0,0,1-.777.914,11.011,11.011,0,0,1-1.1.891q-.789.563-1.3.961a5.75,5.75,0,0,0-.812.746,2.165,2.165,0,0,0-.422.7,2.43,2.43,0,0,0-.121.8H7.766V17H.852v-.555a4.622,4.622,0,0,1,.156-1.266,3.286,3.286,0,0,1,.516-1.039,5.767,5.767,0,0,1,.941-.984q.582-.492,1.426-1.109a9.014,9.014,0,0,0,1.02-.836,4.346,4.346,0,0,0,.66-.8,2.862,2.862,0,0,0,.355-.809A3.486,3.486,0,0,0,6.031,8.734Zm10.484-2.2q-.258.445-.621,1.109t-.77,1.492q-.406.828-.828,1.781t-.789,1.969q-.367,1.016-.645,2.059a15.315,15.315,0,0,0-.4,2.051H11.086a15.579,15.579,0,0,1,.434-2.043q.293-1.043.664-2.047t.785-1.934q.414-.93.8-1.711t.715-1.379q.324-.6.52-.934H9.391V5.8h7.125Zm2.477,10.633a.829.829,0,0,1-.613-.258.849.849,0,0,1-.254-.617.862.862,0,0,1,.254-.621.823.823,0,0,1,.613-.262.845.845,0,0,1,.625.262.855.855,0,0,1,.258.621.842.842,0,0,1-.258.617A.851.851,0,0,1,18.992,17.172Zm9.57-6.445a11.159,11.159,0,0,1-.3,2.738,6.108,6.108,0,0,1-.891,2.031,3.942,3.942,0,0,1-1.43,1.266,4.145,4.145,0,0,1-1.922.434,4.6,4.6,0,0,1-1.953-.391V15.578a3.981,3.981,0,0,0,1.984.523,2.881,2.881,0,0,0,1.355-.312,2.807,2.807,0,0,0,1.012-.91,4.469,4.469,0,0,0,.633-1.473,8.315,8.315,0,0,0,.219-2.008h-.031a2.559,2.559,0,0,1-2.5,1.445,3.361,3.361,0,0,1-1.32-.254,3.025,3.025,0,0,1-1.039-.719,3.289,3.289,0,0,1-.68-1.105,3.97,3.97,0,0,1-.242-1.414,4.119,4.119,0,0,1,.27-1.516,3.532,3.532,0,0,1,.75-1.184,3.356,3.356,0,0,1,1.141-.77,3.73,3.73,0,0,1,1.441-.273,3.191,3.191,0,0,1,1.5.34,3,3,0,0,1,1.1.992,4.9,4.9,0,0,1,.68,1.605A9.166,9.166,0,0,1,28.563,10.727ZM27.18,9.578a3.9,3.9,0,0,0-.168-1.18,2.856,2.856,0,0,0-.465-.91A2.086,2.086,0,0,0,25.84,6.9a1.957,1.957,0,0,0-.895-.207,2.029,2.029,0,0,0-.859.184,2.066,2.066,0,0,0-.691.516,2.462,2.462,0,0,0-.461.789,2.867,2.867,0,0,0-.168,1,3.277,3.277,0,0,0,.16,1.063,2.219,2.219,0,0,0,.457.793,1.973,1.973,0,0,0,.715.5,2.412,2.412,0,0,0,.926.172,2.121,2.121,0,0,0,.84-.168,2.224,2.224,0,0,0,.688-.453,2.088,2.088,0,0,0,.461-.672A2.066,2.066,0,0,0,27.18,9.578ZM37.234,6.539q-.258.445-.621,1.109t-.77,1.492q-.406.828-.828,1.781t-.789,1.969q-.367,1.016-.645,2.059A15.315,15.315,0,0,0,33.18,17H31.8a15.579,15.579,0,0,1,.434-2.043q.293-1.043.664-2.047t.785-1.934q.414-.93.8-1.711t.715-1.379q.324-.6.52-.934H30.109V5.8h7.125Zm8.719,6.906a4.15,4.15,0,0,1-.266,1.508,3.624,3.624,0,0,1-.734,1.188,3.281,3.281,0,0,1-1.117.777,3.538,3.538,0,0,1-1.406.277,3.1,3.1,0,0,1-2.645-1.363,4.853,4.853,0,0,1-.707-1.613,8.74,8.74,0,0,1-.242-2.148,10.1,10.1,0,0,1,.324-2.652,6.444,6.444,0,0,1,.922-2.039A4.25,4.25,0,0,1,41.523,6.07a3.862,3.862,0,0,1,1.883-.461,4.535,4.535,0,0,1,1.859.32V7.141A3.949,3.949,0,0,0,43.438,6.7a2.724,2.724,0,0,0-1.352.336,3.1,3.1,0,0,0-1.031.949,4.63,4.63,0,0,0-.66,1.48,7.511,7.511,0,0,0-.23,1.93H40.2a2.69,2.69,0,0,1,2.555-1.4,3.363,3.363,0,0,1,1.324.25,2.859,2.859,0,0,1,1.008.707,3.183,3.183,0,0,1,.645,1.09A4.148,4.148,0,0,1,45.953,13.445Zm-1.312.164a3.486,3.486,0,0,0-.148-1.055,2.288,2.288,0,0,0-.426-.8,1.836,1.836,0,0,0-.684-.5,2.3,2.3,0,0,0-.922-.176,2.158,2.158,0,0,0-.883.18,2.2,2.2,0,0,0-.7.488,2.286,2.286,0,0,0-.633,1.59,3.475,3.475,0,0,0,.164,1.082,2.8,2.8,0,0,0,.461.879,2.192,2.192,0,0,0,.707.59,1.931,1.931,0,0,0,.91.215,2.084,2.084,0,0,0,.883-.184,1.97,1.97,0,0,0,.68-.512,2.369,2.369,0,0,0,.438-.785A3.112,3.112,0,0,0,44.641,13.609Zm4.422,1.609-1.25,3.844H46.9l.914-3.844ZM56.7,5.8v7.4h1.438v1.172H56.7V17H55.438V14.367H50.172V13.258q.734-.828,1.484-1.77t1.434-1.91q.684-.969,1.266-1.934a17.672,17.672,0,0,0,.98-1.848Zm-5.086,7.4h3.82V7.711q-.586,1.023-1.109,1.828t-1,1.461q-.473.656-.9,1.188T51.617,13.2Zm14.641.383a3.771,3.771,0,0,1-.281,1.484,3.245,3.245,0,0,1-.8,1.141,3.586,3.586,0,0,1-1.254.734,4.9,4.9,0,0,1-1.633.258,4.511,4.511,0,0,1-2.32-.469V15.367A4.266,4.266,0,0,0,62.3,16.1a3.161,3.161,0,0,0,1.1-.18,2.439,2.439,0,0,0,.832-.5,2.141,2.141,0,0,0,.527-.773,2.618,2.618,0,0,0,.184-.992,2.125,2.125,0,0,0-.734-1.715,3.221,3.221,0,0,0-2.133-.621q-.227,0-.477.008t-.5.02q-.25.012-.488.027t-.434.039L60.563,5.8h5.18V6.953h-4.07l-.227,3.289q.25-.016.531-.027t.5-.012a5.028,5.028,0,0,1,1.594.234,3.377,3.377,0,0,1,1.191.668A2.8,2.8,0,0,1,66,12.168,3.737,3.737,0,0,1,66.258,13.578Z" transform="translate(1154 6210)" fill="#12263f"/>
      <path id="Trazado_102752" data-name="Trazado 102752" d="M7.445,13.828a3.266,3.266,0,0,1-.285,1.379,3.045,3.045,0,0,1-.8,1.063,3.714,3.714,0,0,1-1.246.684,5.04,5.04,0,0,1-1.6.242,4.654,4.654,0,0,1-2.547-.609V15.211a4.081,4.081,0,0,0,2.594.891,3.525,3.525,0,0,0,1.059-.148,2.374,2.374,0,0,0,.813-.43,1.909,1.909,0,0,0,.523-.68,2.123,2.123,0,0,0,.184-.9q0-2.2-3.125-2.2h-.93V10.664h.883q2.766,0,2.766-2.062Q5.727,6.7,3.617,6.7a3.592,3.592,0,0,0-2.227.8V6.25a4.868,4.868,0,0,1,2.547-.641,3.913,3.913,0,0,1,1.273.2,2.918,2.918,0,0,1,.977.547,2.423,2.423,0,0,1,.629.844,2.6,2.6,0,0,1,.223,1.086A2.735,2.735,0,0,1,4.8,11.125v.031a3.534,3.534,0,0,1,1.055.277,2.814,2.814,0,0,1,.836.559,2.49,2.49,0,0,1,.551.809A2.582,2.582,0,0,1,7.445,13.828Zm9.023-3.1a11.159,11.159,0,0,1-.3,2.738,6.108,6.108,0,0,1-.891,2.031,3.942,3.942,0,0,1-1.43,1.266,4.145,4.145,0,0,1-1.922.434A4.6,4.6,0,0,1,9.969,16.8V15.578a3.981,3.981,0,0,0,1.984.523,2.881,2.881,0,0,0,1.355-.312,2.807,2.807,0,0,0,1.012-.91,4.468,4.468,0,0,0,.633-1.473,8.315,8.315,0,0,0,.219-2.008h-.031a2.559,2.559,0,0,1-2.5,1.445,3.361,3.361,0,0,1-1.32-.254,3.025,3.025,0,0,1-1.039-.719,3.289,3.289,0,0,1-.68-1.105,3.97,3.97,0,0,1-.242-1.414,4.119,4.119,0,0,1,.27-1.516,3.532,3.532,0,0,1,.75-1.184,3.356,3.356,0,0,1,1.141-.77,3.73,3.73,0,0,1,1.441-.273,3.191,3.191,0,0,1,1.5.34,3,3,0,0,1,1.1.992,4.9,4.9,0,0,1,.68,1.605A9.166,9.166,0,0,1,16.469,10.727ZM15.086,9.578a3.9,3.9,0,0,0-.168-1.18,2.856,2.856,0,0,0-.465-.91,2.086,2.086,0,0,0-.707-.586,1.957,1.957,0,0,0-.895-.207,2.029,2.029,0,0,0-.859.184,2.066,2.066,0,0,0-.691.516,2.462,2.462,0,0,0-.461.789,2.866,2.866,0,0,0-.168,1,3.277,3.277,0,0,0,.16,1.063,2.219,2.219,0,0,0,.457.793,1.974,1.974,0,0,0,.715.5,2.412,2.412,0,0,0,.926.172,2.121,2.121,0,0,0,.84-.168,2.224,2.224,0,0,0,.688-.453,2.088,2.088,0,0,0,.461-.672A2.066,2.066,0,0,0,15.086,9.578Zm10.133,1.773a11.005,11.005,0,0,1-.254,2.492,5.807,5.807,0,0,1-.734,1.832,3.305,3.305,0,0,1-1.18,1.133,3.23,3.23,0,0,1-1.59.387,3.016,3.016,0,0,1-1.5-.371,3.152,3.152,0,0,1-1.113-1.082A5.484,5.484,0,0,1,18.156,14a10.8,10.8,0,0,1-.234-2.371,12.222,12.222,0,0,1,.246-2.594,5.933,5.933,0,0,1,.723-1.887A3.216,3.216,0,0,1,20.074,6,3.323,3.323,0,0,1,21.7,5.609Q25.219,5.609,25.219,11.352Zm-1.312.125q0-4.781-2.273-4.781-2.4,0-2.4,4.867,0,4.539,2.352,4.539Q23.906,16.1,23.906,11.477Zm3.711,5.7A.829.829,0,0,1,27,16.914a.849.849,0,0,1-.254-.617A.862.862,0,0,1,27,15.676a.823.823,0,0,1,.613-.262.845.845,0,0,1,.625.262.855.855,0,0,1,.258.621.842.842,0,0,1-.258.617A.851.851,0,0,1,27.617,17.172ZM35.984,5.8v7.4h1.438v1.172H35.984V17H34.719V14.367H29.453V13.258q.734-.828,1.484-1.77t1.434-1.91q.684-.969,1.266-1.934a17.672,17.672,0,0,0,.98-1.848ZM30.9,13.2h3.82V7.711q-.586,1.023-1.109,1.828t-1,1.461q-.473.656-.9,1.188T30.9,13.2ZM44.609,5.8v7.4h1.438v1.172H44.609V17H43.344V14.367H38.078V13.258q.734-.828,1.484-1.77T41,9.578q.684-.969,1.266-1.934a17.672,17.672,0,0,0,.98-1.848Zm-5.086,7.4h3.82V7.711q-.586,1.023-1.109,1.828t-1,1.461q-.473.656-.9,1.188T39.523,13.2Zm13.1-4.461a2.316,2.316,0,0,0-.16-.9,1.739,1.739,0,0,0-1.09-1.016,2.555,2.555,0,0,0-.812-.125,2.688,2.688,0,0,0-.734.1,3.57,3.57,0,0,0-.7.281,4.3,4.3,0,0,0-.656.43,4.74,4.74,0,0,0-.59.555V6.688a3.831,3.831,0,0,1,1.207-.8,4.25,4.25,0,0,1,1.629-.277,3.932,3.932,0,0,1,1.273.2,2.92,2.92,0,0,1,1.016.582,2.691,2.691,0,0,1,.676.945,3.188,3.188,0,0,1,.246,1.289,4.42,4.42,0,0,1-.152,1.2,3.721,3.721,0,0,1-.461,1.016,4.9,4.9,0,0,1-.777.914,11.011,11.011,0,0,1-1.1.891q-.789.563-1.3.961a5.75,5.75,0,0,0-.812.746,2.165,2.165,0,0,0-.422.7,2.43,2.43,0,0,0-.121.8h5.578V17H47.445v-.555A4.622,4.622,0,0,1,47.6,15.18a3.286,3.286,0,0,1,.516-1.039,5.767,5.767,0,0,1,.941-.984q.582-.492,1.426-1.109a9.014,9.014,0,0,0,1.02-.836,4.346,4.346,0,0,0,.66-.8,2.862,2.862,0,0,0,.355-.809A3.486,3.486,0,0,0,52.625,8.734Z" transform="translate(1353 6146)" fill="#12263f"/>
      <path id="Trazado_102758" data-name="Trazado 102758" d="M6.641,5.8v7.4H8.078v1.172H6.641V17H5.375V14.367H.109V13.258q.734-.828,1.484-1.77t1.434-1.91q.684-.969,1.266-1.934A17.671,17.671,0,0,0,5.273,5.8ZM1.555,13.2h3.82V7.711Q4.789,8.734,4.266,9.539T3.27,11q-.473.656-.9,1.188T1.555,13.2ZM14.281,17H13V7.32a2.966,2.966,0,0,1-.434.34,7.068,7.068,0,0,1-.641.379q-.355.188-.75.352a5.451,5.451,0,0,1-.77.258v-1.3a7.448,7.448,0,0,0,.895-.316q.473-.2.93-.445t.863-.516a6.854,6.854,0,0,0,.7-.527h.484Zm3.672-3.125a2.981,2.981,0,0,1,.141-.895,3.24,3.24,0,0,1,.4-.84,3.33,3.33,0,0,1,.648-.711,3.091,3.091,0,0,1,.879-.508,3.322,3.322,0,0,1-1.156-1.043,2.466,2.466,0,0,1-.43-1.41,2.719,2.719,0,0,1,.9-2.047,3.052,3.052,0,0,1,1-.6,3.735,3.735,0,0,1,2.508,0,3.106,3.106,0,0,1,1,.6,2.7,2.7,0,0,1,.656.906,2.74,2.74,0,0,1,.234,1.133,2.466,2.466,0,0,1-.43,1.41,3.363,3.363,0,0,1-1.141,1.043,3.064,3.064,0,0,1,.867.508,3.379,3.379,0,0,1,.645.711,3.24,3.24,0,0,1,.4.84,2.981,2.981,0,0,1,.141.895,3.327,3.327,0,0,1-.266,1.344,3,3,0,0,1-.746,1.043,3.444,3.444,0,0,1-1.148.676,4.293,4.293,0,0,1-1.473.242,4.235,4.235,0,0,1-1.461-.242,3.5,3.5,0,0,1-1.148-.676,3.023,3.023,0,0,1-.754-1.043A3.285,3.285,0,0,1,17.953,13.875Zm1.391-.109a2.646,2.646,0,0,0,.16.945,2.038,2.038,0,0,0,.453.719,1.978,1.978,0,0,0,.711.457,2.568,2.568,0,0,0,.926.16,2.439,2.439,0,0,0,.906-.164,2.112,2.112,0,0,0,.715-.461,2.072,2.072,0,0,0,.469-.719,2.514,2.514,0,0,0,.168-.937,2.4,2.4,0,0,0-.16-.879,2.2,2.2,0,0,0-.457-.723,2.147,2.147,0,0,0-.711-.492,2.313,2.313,0,0,0-.93-.18,2.338,2.338,0,0,0-.895.168,2.14,2.14,0,0,0-.711.469,2.171,2.171,0,0,0-.473.719A2.391,2.391,0,0,0,19.344,13.766Zm.4-5.2a1.86,1.86,0,0,0,1.133,1.73,1.846,1.846,0,0,0,1.441,0,1.867,1.867,0,0,0,.59-.4,1.95,1.95,0,0,0,.4-.594,1.8,1.8,0,0,0,.148-.73,1.916,1.916,0,0,0-.145-.75,1.841,1.841,0,0,0-1.715-1.133,1.864,1.864,0,0,0-.754.148,1.821,1.821,0,0,0-.586.4,1.759,1.759,0,0,0-.379.6A2.02,2.02,0,0,0,19.742,8.57Zm7.875,8.6A.829.829,0,0,1,27,16.914a.849.849,0,0,1-.254-.617A.862.862,0,0,1,27,15.676a.823.823,0,0,1,.613-.262.845.845,0,0,1,.625.262.855.855,0,0,1,.258.621.842.842,0,0,1-.258.617A.851.851,0,0,1,27.617,17.172ZM35.984,5.8v7.4h1.438v1.172H35.984V17H34.719V14.367H29.453V13.258q.734-.828,1.484-1.77t1.434-1.91q.684-.969,1.266-1.934a17.672,17.672,0,0,0,.98-1.848ZM30.9,13.2h3.82V7.711q-.586,1.023-1.109,1.828t-1,1.461q-.473.656-.9,1.188T30.9,13.2ZM43.625,17H42.344V7.32a2.965,2.965,0,0,1-.434.34,7.068,7.068,0,0,1-.641.379q-.355.188-.75.352a5.45,5.45,0,0,1-.77.258v-1.3a7.448,7.448,0,0,0,.895-.316q.473-.2.93-.445t.863-.516a6.854,6.854,0,0,0,.7-.527h.484ZM47.3,13.875a2.981,2.981,0,0,1,.141-.895,3.24,3.24,0,0,1,.4-.84,3.33,3.33,0,0,1,.648-.711,3.091,3.091,0,0,1,.879-.508,3.322,3.322,0,0,1-1.156-1.043,2.466,2.466,0,0,1-.43-1.41,2.72,2.72,0,0,1,.238-1.141,2.748,2.748,0,0,1,.66-.906,3.052,3.052,0,0,1,1-.6,3.735,3.735,0,0,1,2.508,0,3.106,3.106,0,0,1,1,.6,2.7,2.7,0,0,1,.656.906,2.74,2.74,0,0,1,.234,1.133,2.466,2.466,0,0,1-.43,1.41,3.363,3.363,0,0,1-1.141,1.043,3.064,3.064,0,0,1,.867.508,3.379,3.379,0,0,1,.645.711,3.24,3.24,0,0,1,.4.84,2.981,2.981,0,0,1,.141.895,3.327,3.327,0,0,1-.266,1.344,3,3,0,0,1-.746,1.043,3.444,3.444,0,0,1-1.148.676,4.293,4.293,0,0,1-1.473.242,4.235,4.235,0,0,1-1.461-.242,3.5,3.5,0,0,1-1.148-.676,3.023,3.023,0,0,1-.754-1.043A3.285,3.285,0,0,1,47.3,13.875Zm1.391-.109a2.647,2.647,0,0,0,.16.945,2.038,2.038,0,0,0,.453.719,1.978,1.978,0,0,0,.711.457,2.568,2.568,0,0,0,.926.16,2.439,2.439,0,0,0,.906-.164,2.112,2.112,0,0,0,.715-.461,2.073,2.073,0,0,0,.469-.719,2.514,2.514,0,0,0,.168-.937,2.4,2.4,0,0,0-.16-.879,2.2,2.2,0,0,0-.457-.723,2.147,2.147,0,0,0-.711-.492,2.313,2.313,0,0,0-.93-.18,2.338,2.338,0,0,0-.895.168,2.14,2.14,0,0,0-.711.469,2.171,2.171,0,0,0-.473.719A2.391,2.391,0,0,0,48.688,13.766Zm.4-5.2a1.86,1.86,0,0,0,1.133,1.73,1.846,1.846,0,0,0,1.441,0,1.867,1.867,0,0,0,.59-.4,1.95,1.95,0,0,0,.4-.594,1.8,1.8,0,0,0,.148-.73,1.916,1.916,0,0,0-.145-.75,1.841,1.841,0,0,0-1.715-1.133,1.864,1.864,0,0,0-.754.148,1.821,1.821,0,0,0-.586.4,1.759,1.759,0,0,0-.379.6A2.02,2.02,0,0,0,49.086,8.57Z" transform="translate(1353 6210)" fill="#12263f"/>
      <line id="L칤nea_153" data-name="L칤nea 153" x2="0.5" y2="123.824" transform="translate(472 6131.676)" fill="none" stroke="#afafaf" stroke-linecap="round" stroke-width="1"/>
      <line id="L칤nea_156" data-name="L칤nea 156" x2="0.5" y2="123.824" transform="translate(680 6131.676)" fill="none" stroke="#afafaf" stroke-linecap="round" stroke-width="1"/>
      <line id="L칤nea_157" data-name="L칤nea 157" x2="0.5" y2="123.824" transform="translate(883.75 6131.676)" fill="none" stroke="#afafaf" stroke-linecap="round" stroke-width="1"/>
      <line id="L칤nea_158" data-name="L칤nea 158" x2="0.5" y2="123.824" transform="translate(1096 6131.676)" fill="none" stroke="#afafaf" stroke-linecap="round" stroke-width="1"/>
      <line id="L칤nea_159" data-name="L칤nea 159" x2="0.5" y2="123.824" transform="translate(1304 6131.676)" fill="none" stroke="#afafaf" stroke-linecap="round" stroke-width="1"/>
      <path id="Trazado_99538" data-name="Trazado 99538" d="M0,0H1228V80.222H0Z" transform="translate(264 6051.45)" fill="#d9a171"/>
      <path id="Trazado_102741" data-name="Trazado 102741" d="M-16.95,0-17.5-2.32h-3.762l-.6,2.32h-4.1l4.342-12.6h4.711L-12.828,0ZM-19.34-9.861h-.088a6.123,6.123,0,0,1-.123.694q-.105.483-1.063,4.148h2.408l-.879-3.428A10.84,10.84,0,0,1-19.34-9.861ZM-2.544,0-6.992-6.082a14.5,14.5,0,0,1-.861-1.3h-.035q.053.932.053,2.092V0h-3.516V-12.6h3.586L-3.5-6.82q.079.114.193.272t.229.325q.114.167.215.325a2,2,0,0,1,.154.281h.035a11.423,11.423,0,0,1-.053-1.336V-12.6H.787V0Zm.7-16.884a3.911,3.911,0,0,1-.527,2.219,1.731,1.731,0,0,1-1.521.769,2.874,2.874,0,0,1-1.494-.431q-.3-.176-.549-.334a.979.979,0,0,0-.532-.158.613.613,0,0,0-.527.272,1.323,1.323,0,0,0-.193.773H-8.714a3.82,3.82,0,0,1,.541-2.241A1.722,1.722,0,0,1-6.7-16.761a2.936,2.936,0,0,1,1.661.51q.255.158.483.286a1.011,1.011,0,0,0,.5.127.568.568,0,0,0,.483-.259,1.361,1.361,0,0,0,.185-.787ZM15.253-6.337a6.977,6.977,0,0,1-.817,3.4A5.828,5.828,0,0,1,12.151-.611,6.557,6.557,0,0,1,8.864.22a6.563,6.563,0,0,1-3.23-.8A5.691,5.691,0,0,1,3.371-2.843a6.659,6.659,0,0,1-.809-3.292A7.263,7.263,0,0,1,3.379-9.6a5.807,5.807,0,0,1,2.294-2.377,6.673,6.673,0,0,1,3.357-.839,6.486,6.486,0,0,1,3.239.8,5.483,5.483,0,0,1,2.206,2.294A7.192,7.192,0,0,1,15.253-6.337Zm-4.025.105a4.375,4.375,0,0,0-.6-2.452A1.867,1.867,0,0,0,9-9.58a2.067,2.067,0,0,0-1.767.861A4.054,4.054,0,0,0,6.6-6.284a4.007,4.007,0,0,0,.628,2.4,2,2,0,0,0,1.709.861,1.957,1.957,0,0,0,1.187-.387,2.477,2.477,0,0,0,.817-1.107A4.582,4.582,0,0,0,11.228-6.231ZM25.792-3.814a3.64,3.64,0,0,1-.672,2.188A3.985,3.985,0,0,1,23.234-.237,8.291,8.291,0,0,1,20.316.22a9.531,9.531,0,0,1-3.621-.668V-3.9a7.153,7.153,0,0,0,1.749.936,5.145,5.145,0,0,0,1.784.356,1.761,1.761,0,0,0,.967-.224.733.733,0,0,0,.343-.655.888.888,0,0,0-.171-.541,1.683,1.683,0,0,0-.519-.435,9.659,9.659,0,0,0-1.288-.554Q16.519-6.187,16.519-8.8a3.531,3.531,0,0,1,1.389-2.922,5.858,5.858,0,0,1,3.727-1.094q.659,0,1.213.053t1.006.132q.453.079,1.27.3v3.208a6.49,6.49,0,0,0-3.129-.87,1.931,1.931,0,0,0-1.02.237.73.73,0,0,0-.387.65.816.816,0,0,0,.312.655,5.85,5.85,0,0,0,1.305.672,7.237,7.237,0,0,1,2.773,1.731A3.3,3.3,0,0,1,25.792-3.814Z" transform="translate(360 6100.061)" fill="#fff"/>
      <path id="Trazado_102742" data-name="Trazado 102742" d="M40,15.186a3.64,3.64,0,0,1-.672,2.188,3.985,3.985,0,0,1-1.885,1.389,8.291,8.291,0,0,1-2.918.457,9.531,9.531,0,0,1-3.621-.668V15.1a7.153,7.153,0,0,0,1.749.936,5.145,5.145,0,0,0,1.784.356,1.761,1.761,0,0,0,.967-.224.733.733,0,0,0,.343-.655.888.888,0,0,0-.171-.541,1.683,1.683,0,0,0-.519-.435,9.659,9.659,0,0,0-1.288-.554Q30.73,12.813,30.73,10.2A3.531,3.531,0,0,1,32.119,7.28a5.858,5.858,0,0,1,3.727-1.094q.659,0,1.213.053t1.006.132q.453.079,1.27.3V9.877a6.49,6.49,0,0,0-3.129-.87,1.931,1.931,0,0,0-1.02.237.73.73,0,0,0-.387.65.816.816,0,0,0,.312.655,5.85,5.85,0,0,0,1.305.672,7.237,7.237,0,0,1,2.773,1.731A3.3,3.3,0,0,1,40,15.186ZM49.442,19l-.554-2.32H45.127l-.6,2.32h-4.1L44.767,6.4h4.711L53.564,19ZM47.052,9.139h-.088a6.123,6.123,0,0,1-.123.694q-.105.483-1.063,4.148h2.408l-.879-3.428A10.84,10.84,0,0,1,47.052,9.139ZM55.041,19V6.4h3.8v9.633H63.18V19Zm21.621-6.46a6.954,6.954,0,0,1-.8,3.388,5.542,5.542,0,0,1-2.3,2.272,7.189,7.189,0,0,1-3.445.8H64.779V6.4H70Q76.662,6.4,76.662,12.54Zm-4.034.035a3.627,3.627,0,0,0-.374-1.661,2.7,2.7,0,0,0-1.068-1.143,3.191,3.191,0,0,0-1.635-.4h-.976v6.662H69.64a2.736,2.736,0,0,0,2.175-.936A3.707,3.707,0,0,0,72.628,12.575Zm17.8.088a6.977,6.977,0,0,1-.817,3.4,5.828,5.828,0,0,1-2.285,2.329,6.9,6.9,0,0,1-6.517.026,5.691,5.691,0,0,1-2.263-2.259,6.659,6.659,0,0,1-.809-3.292A7.263,7.263,0,0,1,78.552,9.4a5.807,5.807,0,0,1,2.294-2.377A6.673,6.673,0,0,1,84.2,6.186a6.486,6.486,0,0,1,3.239.8,5.483,5.483,0,0,1,2.206,2.294A7.192,7.192,0,0,1,90.426,12.663Zm-4.025.105a4.375,4.375,0,0,0-.6-2.452,1.867,1.867,0,0,0-1.635-.9,2.067,2.067,0,0,0-1.767.861,4.054,4.054,0,0,0-.633,2.435,4.007,4.007,0,0,0,.628,2.4,2,2,0,0,0,1.709.861,1.957,1.957,0,0,0,1.187-.387,2.477,2.477,0,0,0,.817-1.107A4.582,4.582,0,0,0,86.4,12.769ZM97.211,19V6.4h3.8V19Zm15.082,0-4.447-6.082a14.5,14.5,0,0,1-.861-1.3h-.035q.053.932.053,2.092V19h-3.516V6.4h3.586l4.263,5.783q.079.114.193.272t.229.325q.114.167.215.325a2,2,0,0,1,.154.281h.035a11.423,11.423,0,0,1-.053-1.336V6.4h3.516V19Zm5.81,0V6.4h3.8V19Zm15.653-.343a10.653,10.653,0,0,1-3.612.563,7.351,7.351,0,0,1-3.472-.769,5.265,5.265,0,0,1-2.228-2.188,6.765,6.765,0,0,1-.769-3.274,7.207,7.207,0,0,1,.861-3.551,5.957,5.957,0,0,1,2.435-2.4,7.512,7.512,0,0,1,3.621-.848,12.586,12.586,0,0,1,3.164.4v3.507A4.465,4.465,0,0,0,132.5,9.6a6.282,6.282,0,0,0-1.477-.176,3.305,3.305,0,0,0-2.439.888,3.245,3.245,0,0,0-.892,2.408,3.189,3.189,0,0,0,.892,2.386,3.261,3.261,0,0,0,2.386.875,6.191,6.191,0,0,0,2.786-.7Zm1.96.343V6.4h3.8V19Zm14.177,0-.554-2.32h-3.762l-.6,2.32h-4.1l4.342-12.6h4.711L154.015,19ZM147.5,9.139h-.088a6.123,6.123,0,0,1-.123.694q-.105.483-1.063,4.148h2.408l-.879-3.428A10.84,10.84,0,0,1,147.5,9.139ZM155.491,19V6.4h3.8v9.633h4.342V19Z" transform="translate(486 6077.061)" fill="#fff"/>
      <path id="Trazado_102743" data-name="Trazado 102743" d="M41.851,19V6.4h3.8V19Zm15.082,0-4.447-6.082a14.5,14.5,0,0,1-.861-1.3h-.035q.053.932.053,2.092V19H48.126V6.4h3.586l4.263,5.783q.079.114.193.272t.229.325q.114.167.215.325a2,2,0,0,1,.154.281H56.8a11.423,11.423,0,0,1-.053-1.336V6.4h3.516V19ZM69.114,9.367V19H65.3V9.367H61.775V6.4H72.683V9.367ZM74.194,19V6.4h7.849V9.367H77.991V11.2H81.8v2.971H77.991v1.854h4.342V19Zm16.471,0-.94-2.716a3.377,3.377,0,0,0-.708-1.257,1.292,1.292,0,0,0-.945-.457h-.149V19h-3.8V6.4h5.045a7,7,0,0,1,3.907.866,2.941,2.941,0,0,1,1.261,2.6,3.286,3.286,0,0,1-.734,2.18,4.182,4.182,0,0,1-2.184,1.274v.035a3.052,3.052,0,0,1,1.332.8,4.948,4.948,0,0,1,.954,1.644L94.945,19Zm-.36-8.6a1.32,1.32,0,0,0-.387-1,1.707,1.707,0,0,0-1.213-.369h-.782v2.883h.686a1.741,1.741,0,0,0,1.23-.431A1.41,1.41,0,0,0,90.3,10.4ZM96.4,19V6.4h7.849V9.367H100.2V11.2h3.806v2.971H100.2v1.854h4.342V19ZM101.01,5.228H98.364l2.628-2.821h3.146Zm14.08,9.958a3.64,3.64,0,0,1-.672,2.188,3.985,3.985,0,0,1-1.885,1.389,8.291,8.291,0,0,1-2.918.457,9.531,9.531,0,0,1-3.621-.668V15.1a7.153,7.153,0,0,0,1.749.936,5.145,5.145,0,0,0,1.784.356,1.761,1.761,0,0,0,.967-.224.733.733,0,0,0,.343-.655.888.888,0,0,0-.171-.541,1.683,1.683,0,0,0-.519-.435,9.659,9.659,0,0,0-1.288-.554q-3.041-1.169-3.041-3.779a3.531,3.531,0,0,1,1.389-2.922,5.858,5.858,0,0,1,3.727-1.094q.659,0,1.213.053t1.006.132q.453.079,1.27.3V9.877a6.49,6.49,0,0,0-3.129-.87,1.931,1.931,0,0,0-1.02.237.73.73,0,0,0-.387.65.816.816,0,0,0,.312.655,5.85,5.85,0,0,0,1.305.672,7.237,7.237,0,0,1,2.773,1.731A3.3,3.3,0,0,1,115.09,15.186ZM36.7,51V38.4h7.849v2.971H40.5V43.2H44.3v2.971H40.5v1.854h4.342V51Zm13.729-9.633v2.268h3.744v2.971H50.429V51h-3.8V38.4h7.9v2.971ZM56.37,51V38.4h7.849v2.971H60.167V43.2h3.806v2.971H60.167v1.854h4.342V51Zm19.31-.343a10.653,10.653,0,0,1-3.612.563,7.351,7.351,0,0,1-3.472-.769,5.265,5.265,0,0,1-2.228-2.188,6.765,6.765,0,0,1-.769-3.274,7.207,7.207,0,0,1,.861-3.551,5.957,5.957,0,0,1,2.435-2.4,7.512,7.512,0,0,1,3.621-.848,12.586,12.586,0,0,1,3.164.4v3.507a4.465,4.465,0,0,0-1.257-.492,6.281,6.281,0,0,0-1.477-.176,3.305,3.305,0,0,0-2.439.888,3.245,3.245,0,0,0-.892,2.408,3.189,3.189,0,0,0,.892,2.386,3.261,3.261,0,0,0,2.386.875,6.191,6.191,0,0,0,2.786-.7Zm8.332-9.29V51H80.2V41.367H76.673V38.4H87.58v2.971ZM89.092,51V38.4h3.8V51Zm13.456,0H98.285L94.216,38.4H98.3l1.925,7.761a8.676,8.676,0,0,1,.255,1.406h.088a9.7,9.7,0,0,1,.272-1.459l1.872-7.708h3.955Zm17.446-6.337a6.977,6.977,0,0,1-.817,3.4,5.828,5.828,0,0,1-2.285,2.329,6.9,6.9,0,0,1-6.517.026,5.691,5.691,0,0,1-2.263-2.259,6.659,6.659,0,0,1-.809-3.292,7.263,7.263,0,0,1,.817-3.463,5.807,5.807,0,0,1,2.294-2.377,6.673,6.673,0,0,1,3.357-.839,6.486,6.486,0,0,1,3.239.8,5.483,5.483,0,0,1,2.206,2.294A7.192,7.192,0,0,1,119.994,44.663Zm-4.025.105a4.375,4.375,0,0,0-.6-2.452,1.867,1.867,0,0,0-1.635-.9,2.067,2.067,0,0,0-1.767.861,4.054,4.054,0,0,0-.633,2.435,4.007,4.007,0,0,0,.628,2.4,2,2,0,0,0,1.709.861,1.957,1.957,0,0,0,1.187-.387,2.477,2.477,0,0,0,.817-1.107A4.582,4.582,0,0,0,115.969,44.769Z" transform="translate(694 6064)" fill="#fff"/>
      <path id="Trazado_102744" data-name="Trazado 102744" d="M41.851,19V6.4h3.8V19Zm15.082,0-4.447-6.082a14.5,14.5,0,0,1-.861-1.3h-.035q.053.932.053,2.092V19H48.126V6.4h3.586l4.263,5.783q.079.114.193.272t.229.325q.114.167.215.325a2,2,0,0,1,.154.281H56.8a11.423,11.423,0,0,1-.053-1.336V6.4h3.516V19ZM69.114,9.367V19H65.3V9.367H61.775V6.4H72.683V9.367ZM74.194,19V6.4h7.849V9.367H77.991V11.2H81.8v2.971H77.991v1.854h4.342V19Zm16.471,0-.94-2.716a3.377,3.377,0,0,0-.708-1.257,1.292,1.292,0,0,0-.945-.457h-.149V19h-3.8V6.4h5.045a7,7,0,0,1,3.907.866,2.941,2.941,0,0,1,1.261,2.6,3.286,3.286,0,0,1-.734,2.18,4.182,4.182,0,0,1-2.184,1.274v.035a3.052,3.052,0,0,1,1.332.8,4.948,4.948,0,0,1,.954,1.644L94.945,19Zm-.36-8.6a1.32,1.32,0,0,0-.387-1,1.707,1.707,0,0,0-1.213-.369h-.782v2.883h.686a1.741,1.741,0,0,0,1.23-.431A1.41,1.41,0,0,0,90.3,10.4ZM96.4,19V6.4h7.849V9.367H100.2V11.2h3.806v2.971H100.2v1.854h4.342V19ZM101.01,5.228H98.364l2.628-2.821h3.146Zm14.08,9.958a3.64,3.64,0,0,1-.672,2.188,3.985,3.985,0,0,1-1.885,1.389,8.291,8.291,0,0,1-2.918.457,9.531,9.531,0,0,1-3.621-.668V15.1a7.153,7.153,0,0,0,1.749.936,5.145,5.145,0,0,0,1.784.356,1.761,1.761,0,0,0,.967-.224.733.733,0,0,0,.343-.655.888.888,0,0,0-.171-.541,1.683,1.683,0,0,0-.519-.435,9.659,9.659,0,0,0-1.288-.554q-3.041-1.169-3.041-3.779a3.531,3.531,0,0,1,1.389-2.922,5.858,5.858,0,0,1,3.727-1.094q.659,0,1.213.053t1.006.132q.453.079,1.27.3V9.877a6.49,6.49,0,0,0-3.129-.87,1.931,1.931,0,0,0-1.02.237.73.73,0,0,0-.387.65.816.816,0,0,0,.312.655,5.85,5.85,0,0,0,1.305.672,7.237,7.237,0,0,1,2.773,1.731A3.3,3.3,0,0,1,115.09,15.186ZM32.626,51V38.4h7.849v2.971H36.423V43.2h3.806v2.971H36.423v1.854h4.342V51Zm16.866,0-1.564-3.454a2.412,2.412,0,0,1-.2-.637q-.048-.312-.075-.514h-.035q-.053.211-.123.554a3.814,3.814,0,0,1-.2.668L45.836,51H41.319L45.1,44.716,41.662,38.4H46.25l1.222,3.331a8.113,8.113,0,0,1,.308,1.23h.035a4.994,4.994,0,0,1,.325-1.248L49.563,38.4h4.228l-3.542,6.249L53.958,51Zm16-8.446a4.1,4.1,0,0,1-.655,2.294A4.267,4.267,0,0,1,62.975,46.4a6.78,6.78,0,0,1-2.821.549h-1.16V51H55.2V38.4h5.168a6.119,6.119,0,0,1,3.9,1.011A3.83,3.83,0,0,1,65.5,42.554Zm-4.017.132a1.477,1.477,0,0,0-.448-1.169,1.937,1.937,0,0,0-1.318-.4h-.721v3.111h.853Q61.481,44.232,61.481,42.686ZM67,51V38.4h3.8v9.633h4.342V51Zm9.738,0V38.4h3.8V51Zm2.637-13.772H76.73l2.628-2.821H82.5Zm13.017,13.43a10.653,10.653,0,0,1-3.612.563,7.351,7.351,0,0,1-3.472-.769,5.265,5.265,0,0,1-2.228-2.188,6.765,6.765,0,0,1-.769-3.274,7.207,7.207,0,0,1,.861-3.551,5.957,5.957,0,0,1,2.435-2.4,7.512,7.512,0,0,1,3.621-.848,12.586,12.586,0,0,1,3.164.4v3.507a4.465,4.465,0,0,0-1.257-.492,6.281,6.281,0,0,0-1.477-.176,3.305,3.305,0,0,0-2.439.888,3.245,3.245,0,0,0-.892,2.408A3.189,3.189,0,0,0,87.22,47.1a3.261,3.261,0,0,0,2.386.875,6.191,6.191,0,0,0,2.786-.7Zm1.96.343V38.4h3.8V51ZM107,41.367V51h-3.814V41.367H99.661V38.4h10.907v2.971Zm17.068,3.3a6.977,6.977,0,0,1-.817,3.4,5.828,5.828,0,0,1-2.285,2.329,6.9,6.9,0,0,1-6.517.026,5.691,5.691,0,0,1-2.263-2.259,6.659,6.659,0,0,1-.809-3.292,7.263,7.263,0,0,1,.817-3.463,5.807,5.807,0,0,1,2.294-2.377,6.673,6.673,0,0,1,3.357-.839,6.486,6.486,0,0,1,3.239.8,5.483,5.483,0,0,1,2.206,2.294A7.192,7.192,0,0,1,124.068,44.663Zm-4.025.105a4.375,4.375,0,0,0-.6-2.452,1.867,1.867,0,0,0-1.635-.9,2.067,2.067,0,0,0-1.767.861,4.054,4.054,0,0,0-.633,2.435,4.007,4.007,0,0,0,.628,2.4,2,2,0,0,0,1.709.861,1.957,1.957,0,0,0,1.187-.387,2.477,2.477,0,0,0,.817-1.107A4.582,4.582,0,0,0,120.042,44.769Z" transform="translate(920 6064)" fill="#fff"/>
      <path id="Trazado_102745" data-name="Trazado 102745" d="M41.851,19V6.4h3.8V19Zm15.082,0-4.447-6.082a14.5,14.5,0,0,1-.861-1.3h-.035q.053.932.053,2.092V19H48.126V6.4h3.586l4.263,5.783q.079.114.193.272t.229.325q.114.167.215.325a2,2,0,0,1,.154.281H56.8a11.423,11.423,0,0,1-.053-1.336V6.4h3.516V19ZM69.114,9.367V19H65.3V9.367H61.775V6.4H72.683V9.367ZM74.194,19V6.4h7.849V9.367H77.991V11.2H81.8v2.971H77.991v1.854h4.342V19Zm16.471,0-.94-2.716a3.377,3.377,0,0,0-.708-1.257,1.292,1.292,0,0,0-.945-.457h-.149V19h-3.8V6.4h5.045a7,7,0,0,1,3.907.866,2.941,2.941,0,0,1,1.261,2.6,3.286,3.286,0,0,1-.734,2.18,4.182,4.182,0,0,1-2.184,1.274v.035a3.052,3.052,0,0,1,1.332.8,4.948,4.948,0,0,1,.954,1.644L94.945,19Zm-.36-8.6a1.32,1.32,0,0,0-.387-1,1.707,1.707,0,0,0-1.213-.369h-.782v2.883h.686a1.741,1.741,0,0,0,1.23-.431A1.41,1.41,0,0,0,90.3,10.4ZM96.4,19V6.4h7.849V9.367H100.2V11.2h3.806v2.971H100.2v1.854h4.342V19ZM101.01,5.228H98.364l2.628-2.821h3.146Zm14.08,9.958a3.64,3.64,0,0,1-.672,2.188,3.985,3.985,0,0,1-1.885,1.389,8.291,8.291,0,0,1-2.918.457,9.531,9.531,0,0,1-3.621-.668V15.1a7.153,7.153,0,0,0,1.749.936,5.145,5.145,0,0,0,1.784.356,1.761,1.761,0,0,0,.967-.224.733.733,0,0,0,.343-.655.888.888,0,0,0-.171-.541,1.683,1.683,0,0,0-.519-.435,9.659,9.659,0,0,0-1.288-.554q-3.041-1.169-3.041-3.779a3.531,3.531,0,0,1,1.389-2.922,5.858,5.858,0,0,1,3.727-1.094q.659,0,1.213.053t1.006.132q.453.079,1.27.3V9.877a6.49,6.49,0,0,0-3.129-.87,1.931,1.931,0,0,0-1.02.237.73.73,0,0,0-.387.65.816.816,0,0,0,.312.655,5.85,5.85,0,0,0,1.305.672,7.237,7.237,0,0,1,2.773,1.731A3.3,3.3,0,0,1,115.09,15.186ZM31.893,51V38.4h3.8V51Zm17.815,0V44.092q0-.976.062-2.145l.026-.58H49.69q-.281,1.485-.431,2.057L47.405,51H43.837l-1.942-7.488q-.079-.281-.413-2.145h-.105q.123,2.953.123,3.691V51H38.168V38.4h5.687l1.731,6.847a8.451,8.451,0,0,1,.163.857q.1.646.127,1h.053q.1-.8.308-1.89L47.854,38.4h5.6V51Zm16.523-8.446a4.1,4.1,0,0,1-.655,2.294A4.267,4.267,0,0,1,63.709,46.4a6.78,6.78,0,0,1-2.821.549h-1.16V51h-3.8V38.4H61.1A6.119,6.119,0,0,1,65,39.407,3.83,3.83,0,0,1,66.231,42.554Zm-4.017.132a1.477,1.477,0,0,0-.448-1.169,1.937,1.937,0,0,0-1.318-.4h-.721v3.111h.853Q62.215,44.232,62.215,42.686ZM67.734,51V38.4h3.8v9.633h4.342V51Zm9.738,0V38.4h3.8V51Zm2.637-13.772H77.464l2.628-2.821h3.146Zm13.017,13.43a10.653,10.653,0,0,1-3.612.563,7.351,7.351,0,0,1-3.472-.769,5.265,5.265,0,0,1-2.228-2.188,6.765,6.765,0,0,1-.769-3.274,7.207,7.207,0,0,1,.861-3.551,5.957,5.957,0,0,1,2.435-2.4,7.512,7.512,0,0,1,3.621-.848,12.586,12.586,0,0,1,3.164.4v3.507a4.465,4.465,0,0,0-1.257-.492,6.281,6.281,0,0,0-1.477-.176,3.305,3.305,0,0,0-2.439.888,3.245,3.245,0,0,0-.892,2.408,3.189,3.189,0,0,0,.892,2.386,3.261,3.261,0,0,0,2.386.875,6.191,6.191,0,0,0,2.786-.7Zm1.96.343V38.4h3.8V51Zm12.647-9.633V51h-3.814V41.367h-3.524V38.4H111.3v2.971Zm17.068,3.3a6.977,6.977,0,0,1-.817,3.4,5.828,5.828,0,0,1-2.285,2.329,6.9,6.9,0,0,1-6.517.026,5.691,5.691,0,0,1-2.263-2.259,6.659,6.659,0,0,1-.809-3.292,7.263,7.263,0,0,1,.817-3.463,5.807,5.807,0,0,1,2.294-2.377,6.673,6.673,0,0,1,3.357-.839,6.486,6.486,0,0,1,3.239.8,5.483,5.483,0,0,1,2.206,2.294A7.192,7.192,0,0,1,124.8,44.663Zm-4.025.105a4.375,4.375,0,0,0-.6-2.452,1.867,1.867,0,0,0-1.635-.9,2.067,2.067,0,0,0-1.767.861,4.054,4.054,0,0,0-.633,2.435,4.007,4.007,0,0,0,.628,2.4,2,2,0,0,0,1.709.861,1.957,1.957,0,0,0,1.187-.387,2.477,2.477,0,0,0,.817-1.107A4.582,4.582,0,0,0,120.776,44.769Z" transform="translate(1110 6064)" fill="#fff"/>
      <path id="Trazado_102746" data-name="Trazado 102746" d="M57.513,15.186a3.64,3.64,0,0,1-.672,2.188,3.985,3.985,0,0,1-1.885,1.389,8.291,8.291,0,0,1-2.918.457,9.531,9.531,0,0,1-3.621-.668V15.1a7.153,7.153,0,0,0,1.749.936,5.145,5.145,0,0,0,1.784.356,1.761,1.761,0,0,0,.967-.224.733.733,0,0,0,.343-.655.888.888,0,0,0-.171-.541,1.683,1.683,0,0,0-.519-.435,9.659,9.659,0,0,0-1.288-.554Q48.24,12.813,48.24,10.2A3.531,3.531,0,0,1,49.629,7.28a5.858,5.858,0,0,1,3.727-1.094q.659,0,1.213.053t1.006.132q.453.079,1.27.3V9.877a6.49,6.49,0,0,0-3.129-.87,1.931,1.931,0,0,0-1.02.237.73.73,0,0,0-.387.65.816.816,0,0,0,.312.655,5.85,5.85,0,0,0,1.305.672A7.237,7.237,0,0,1,56.7,12.953,3.3,3.3,0,0,1,57.513,15.186ZM66.952,19,66.4,16.68H62.637l-.6,2.32h-4.1L62.276,6.4h4.711L71.074,19ZM64.562,9.139h-.088a6.123,6.123,0,0,1-.123.694q-.105.483-1.063,4.148H65.7l-.879-3.428A10.84,10.84,0,0,1,64.562,9.139ZM72.551,19V6.4h3.8v9.633h4.342V19Zm21.621-6.46a6.954,6.954,0,0,1-.8,3.388,5.542,5.542,0,0,1-2.3,2.272,7.189,7.189,0,0,1-3.445.8H82.289V6.4H87.51Q94.172,6.4,94.172,12.54Zm-4.034.035a3.627,3.627,0,0,0-.374-1.661A2.7,2.7,0,0,0,88.7,9.771a3.191,3.191,0,0,0-1.635-.4h-.976v6.662h1.063a2.736,2.736,0,0,0,2.175-.936A3.707,3.707,0,0,0,90.138,12.575Zm17.8.088a6.977,6.977,0,0,1-.817,3.4,5.828,5.828,0,0,1-2.285,2.329,6.9,6.9,0,0,1-6.517.026,5.691,5.691,0,0,1-2.263-2.259,6.659,6.659,0,0,1-.809-3.292A7.263,7.263,0,0,1,96.062,9.4a5.807,5.807,0,0,1,2.294-2.377,6.673,6.673,0,0,1,3.357-.839,6.486,6.486,0,0,1,3.239.8,5.483,5.483,0,0,1,2.206,2.294A7.192,7.192,0,0,1,107.936,12.663Zm-4.025.105a4.375,4.375,0,0,0-.6-2.452,1.867,1.867,0,0,0-1.635-.9,2.067,2.067,0,0,0-1.767.861,4.054,4.054,0,0,0-.633,2.435,4.007,4.007,0,0,0,.628,2.4,2,2,0,0,0,1.709.861,1.957,1.957,0,0,0,1.187-.387,2.477,2.477,0,0,0,.817-1.107A4.582,4.582,0,0,0,103.91,12.769Z" transform="translate(1321 6064)" fill="#fff"/>
    </g>
  </g>
</svg>
