<svg xmlns="http://www.w3.org/2000/svg" width="1227" height="470" viewBox="0 0 1227 470">
  <g id="Grupo_54992" data-name="Grupo 54992" transform="translate(-182 -2294.278)">
    <g id="Trazado_102755" data-name="Trazado 102755" transform="translate(182 2294.278)" fill="#f3f9ff">
      <path d="M 1226.5 469.5 L 0.5 469.5 L 0.5 0.5 L 1226.5 0.5 L 1226.5 469.5 Z" stroke="none"/>
      <path d="M 1 1 L 1 469 L 1226 469 L 1226 1 L 1 1 M 0 0 L 1227 0 L 1227 470 L 0 470 L 0 0 Z" stroke="none" fill="#e8e8e8"/>
    </g>
    <g id="Grupo_54960" data-name="Grupo 54960" transform="translate(0 17.096)">
      <rect id="Rectángulo_6896" data-name="Rectángulo 6896" width="573" height="103.71" transform="translate(477 2387.858)" fill="#f6f6f6"/>
      <rect id="Rectángulo_6895" data-name="Rectángulo 6895" width="573" height="121.937" transform="translate(477 2503.342)" fill="#fff"/>
      <text id="Ingresos_de_valores_representativos_de_deuda" data-name="Ingresos de valores representativos de deuda" transform="translate(499 2523.858)" fill="#12263f" font-size="18" font-family="Roboto-Black, Roboto" font-weight="800"><tspan x="0" y="19">Ingresos de valores </tspan><tspan x="0" y="46">representativos de </tspan><tspan x="0" y="73">deuda</tspan></text>
      <text id="Valores_representativos_de_deudas_corto_plazo" data-name="Valores representativos de deudas corto plazo" transform="translate(499 2409.858)" fill="#12263f" font-size="18" font-family="Roboto-Black, Roboto" font-weight="800"><tspan x="0" y="19">Valores </tspan><tspan x="0" y="46">representativos de </tspan><tspan x="0" y="73">deudas corto plazo</tspan></text>
      <text id="_27.976_45" data-name="27.976,45" transform="translate(718.965 2432.343)" fill="#12263f" font-size="16" font-family="Roboto-Regular, Roboto"><tspan x="0" y="17">27.976,45</tspan></text>
      <text id="_27.976_45-2" data-name="27.976,45" transform="translate(908 2557.568)" fill="#12263f" font-size="16" font-family="Roboto-Regular, Roboto"><tspan x="0" y="17">27.976,45</tspan></text>
      <line id="Línea_275" data-name="Línea 275" y2="237.323" transform="translate(674 2387.955)" fill="none" stroke="#afafaf" stroke-linecap="round" stroke-width="1"/>
      <line id="Línea_274" data-name="Línea 274" y2="237.323" transform="translate(855.965 2387.955)" fill="none" stroke="#afafaf" stroke-linecap="round" stroke-width="1"/>
      <path id="Trazado_102709" data-name="Trazado 102709" d="M0,0H572.931V60.672H0Z" transform="translate(477 2327.183)" fill="#d9a171"/>
      <text id="CUENTA" transform="translate(573 2363.858)" fill="#fff" font-size="24" font-family="Roboto-Black, Roboto" font-weight="800"><tspan x="-46.025" y="0">CUENTA</tspan></text>
      <text id="DÉBITOS" transform="translate(761 2366.019)" fill="#fff" font-size="24" font-family="Roboto-Black, Roboto" font-weight="800"><tspan x="-49.031" y="0">DÉBITOS</tspan></text>
      <text id="CRÉDITOS" transform="translate(950 2363.858)" fill="#fff" font-size="24" font-family="Roboto-Black, Roboto" font-weight="800"><tspan x="-56.994" y="0">CRÉDITOS</tspan></text>
    </g>
  </g>
</svg>
