<?xml version="1.0" encoding="utf-8"?>
<!-- Generator: Adobe Illustrator 25.2.3, SVG Export Plug-In . SVG Version: 6.00 Build 0)  -->
<svg version="1.1" id="Capa_1" xmlns="http://www.w3.org/2000/svg" xmlns:xlink="http://www.w3.org/1999/xlink" x="0px" y="0px"
	 viewBox="0 0 396 185" style="enable-background:new 0 0 396 185;" xml:space="preserve">
<style type="text/css">
	.st0{fill:#F6F6F6;}
	.st1{fill:#FFFFFF;}
	.st2{fill:#12263F;}
	.st3{fill:none;stroke:#AFAFAF;stroke-linecap:round;}
	.st4{fill:#D9A171;}
</style>
<g id="Grupo_55012" transform="translate(-388 -8880)">
	<g id="Grupo_53415" transform="translate(124 2809)">
		<rect id="Rectángulo_5411" x="362" y="6146.2" class="st0" width="200" height="29.2"/>
		<rect id="Rectángulo_5412" x="362" y="6175.4" class="st1" width="200" height="37.9"/>
		<path id="Trazado_102739" class="st2" d="M401.3,6198.7l-0.3-1.3h-1.9l-0.3,1.3h-2.1l2.2-6.8h2.4l2.1,6.8H401.3z M400.1,6193.4
			L400.1,6193.4c-0.1,0.1-0.1,0.3-0.1,0.4c0,0.2-0.2,0.9-0.5,2.2h1.2l-0.4-1.9C400.2,6193.9,400.1,6193.6,400.1,6193.4z
			 M408.6,6198.7l-2.2-3.3c-0.2-0.2-0.3-0.5-0.4-0.7h0c0,0.3,0,0.7,0,1.1v2.9h-1.8v-6.8h1.8l2.2,3.1c0,0,0.1,0.1,0.1,0.1
			c0,0.1,0.1,0.1,0.1,0.2c0,0.1,0.1,0.1,0.1,0.2c0,0,0.1,0.1,0.1,0.2h0c0-0.2,0-0.5,0-0.7v-3.1h1.8v6.8H408.6z M408.9,6189.6
			c0,0.4-0.1,0.8-0.3,1.2c-0.2,0.3-0.5,0.4-0.8,0.4c-0.3,0-0.5-0.1-0.8-0.2c-0.1-0.1-0.2-0.1-0.3-0.2c-0.1-0.1-0.2-0.1-0.3-0.1
			c-0.1,0-0.2,0.1-0.3,0.1c-0.1,0.1-0.1,0.3-0.1,0.4h-0.8c0-0.4,0.1-0.8,0.3-1.2c0.2-0.3,0.4-0.4,0.7-0.4c0.3,0,0.6,0.1,0.8,0.3
			c0.1,0.1,0.2,0.1,0.2,0.2c0.1,0,0.2,0.1,0.3,0.1c0.1,0,0.2-0.1,0.2-0.1c0.1-0.1,0.1-0.3,0.1-0.4L408.9,6189.6z M417.6,6195.3
			c0,0.6-0.1,1.3-0.4,1.8c-0.3,0.5-0.7,1-1.2,1.3c-1,0.6-2.3,0.6-3.3,0c-0.5-0.3-0.9-0.7-1.1-1.2c-0.3-0.5-0.4-1.2-0.4-1.8
			c0-0.7,0.1-1.3,0.4-1.9c0.3-0.5,0.7-1,1.2-1.3c0.5-0.3,1.1-0.5,1.7-0.5c0.6,0,1.1,0.1,1.6,0.4c0.5,0.3,0.9,0.7,1.1,1.2
			C417.5,6194,417.6,6194.6,417.6,6195.3z M415.5,6195.3c0-0.5-0.1-0.9-0.3-1.3c-0.2-0.3-0.5-0.5-0.8-0.5c-0.4,0-0.7,0.2-0.9,0.5
			c-0.2,0.4-0.3,0.9-0.3,1.3c0,0.5,0.1,0.9,0.3,1.3c0.2,0.3,0.5,0.5,0.9,0.5c0.2,0,0.4-0.1,0.6-0.2c0.2-0.2,0.3-0.4,0.4-0.6
			C415.5,6196,415.6,6195.7,415.5,6195.3L415.5,6195.3z M422.1,6198.7v-4.9c-0.2,0.1-0.4,0.2-0.6,0.3c-0.2,0.1-0.5,0.1-0.8,0.1v-1.5
			c0.4-0.1,0.8-0.2,1.1-0.3c0.4-0.2,0.7-0.4,1.1-0.6h1.1v7H422.1z"/>
		<path id="Trazado_102737" class="st2" d="M413.2,6160.8c0.1,0.9-0.2,1.9-0.6,2.7c-0.4,0.6-1.1,1-1.8,0.9c-0.7,0.1-1.4-0.3-1.8-0.8
			c-0.5-0.8-0.7-1.7-0.6-2.6c-0.1-0.9,0.2-1.9,0.7-2.7c0.5-0.6,1.2-1,1.9-0.9C412.4,6157.3,413.2,6158.5,413.2,6160.8z
			 M411.3,6160.8c0-0.5,0-1-0.1-1.5c-0.1-0.3-0.2-0.5-0.4-0.5c-0.4,0-0.6,0.7-0.6,2.1c0,0.5,0,1,0.1,1.5c0.1,0.3,0.2,0.5,0.4,0.5
			C411.1,6162.9,411.3,6162.2,411.3,6160.8L411.3,6160.8z"/>
		<path id="Trazado_102738" class="st2" d="M494,6161h-2.2v-0.5h2.2V6161z M498.3,6161.4c0,0.3,0,0.5-0.1,0.7
			c-0.1,0.2-0.2,0.4-0.4,0.6c-0.2,0.2-0.4,0.3-0.6,0.4c-0.3,0.1-0.5,0.1-0.8,0.1c-0.4,0-0.9-0.1-1.3-0.3v-0.7
			c0.4,0.3,0.8,0.5,1.3,0.5c0.2,0,0.4,0,0.5-0.1c0.1,0,0.3-0.1,0.4-0.2c0.1-0.1,0.2-0.2,0.3-0.4c0.1-0.2,0.1-0.3,0.1-0.5
			c0-0.8-0.5-1.2-1.6-1.2h-0.5v-0.6h0.4c0.9,0,1.4-0.4,1.4-1.1c0-0.7-0.4-1-1.1-1c-0.4,0-0.8,0.2-1.1,0.4v-0.7
			c0.4-0.2,0.8-0.4,1.3-0.3c0.2,0,0.4,0,0.6,0.1c0.2,0.1,0.3,0.2,0.5,0.3c0.1,0.1,0.2,0.3,0.3,0.5c0.1,0.2,0.1,0.4,0.1,0.6
			c0,0.7-0.4,1.4-1.1,1.5v0c0.2,0,0.4,0.1,0.5,0.2c0.2,0.1,0.3,0.2,0.4,0.3c0.1,0.1,0.2,0.3,0.3,0.4
			C498.3,6161.1,498.3,6161.2,498.3,6161.4z M502.9,6161.2c0,0.3,0,0.6-0.1,0.8c-0.1,0.2-0.2,0.5-0.4,0.6c-0.2,0.2-0.4,0.3-0.6,0.4
			c-0.2,0.1-0.5,0.2-0.7,0.2c-0.5,0-1-0.3-1.3-0.7c-0.2-0.3-0.3-0.6-0.4-0.9c-0.1-0.4-0.1-0.8-0.1-1.2c0-0.5,0.1-1,0.2-1.4
			c0.1-0.4,0.3-0.8,0.5-1.1c0.2-0.3,0.4-0.5,0.7-0.7c0.3-0.2,0.6-0.3,1-0.2c0.3,0,0.6,0,0.9,0.2v0.7c-0.3-0.2-0.6-0.2-0.9-0.2
			c-0.2,0-0.5,0.1-0.7,0.2c-0.2,0.1-0.4,0.3-0.5,0.5c-0.2,0.2-0.3,0.5-0.3,0.8c-0.1,0.3-0.1,0.7-0.1,1h0c0.3-0.5,0.8-0.8,1.3-0.8
			c0.2,0,0.5,0,0.7,0.1c0.2,0.1,0.4,0.2,0.5,0.4c0.1,0.2,0.3,0.4,0.3,0.6C502.9,6160.7,502.9,6161,502.9,6161.2z M502.3,6161.3
			c0-0.2,0-0.4-0.1-0.6c0-0.2-0.1-0.3-0.2-0.4c-0.1-0.1-0.2-0.2-0.3-0.3c-0.1-0.1-0.3-0.1-0.5-0.1c-0.2,0-0.3,0-0.4,0.1
			c-0.1,0.1-0.3,0.2-0.4,0.3c-0.2,0.2-0.3,0.5-0.3,0.9c0,0.2,0,0.4,0.1,0.6c0.1,0.2,0.1,0.3,0.2,0.5c0.1,0.1,0.2,0.2,0.4,0.3
			c0.1,0.1,0.3,0.1,0.5,0.1c0.2,0,0.3,0,0.4-0.1c0.1-0.1,0.2-0.2,0.3-0.3c0.1-0.1,0.2-0.3,0.2-0.4
			C502.2,6161.7,502.3,6161.5,502.3,6161.3L502.3,6161.3z M507,6161.4c0,0.3,0,0.5-0.1,0.7c-0.1,0.2-0.2,0.4-0.4,0.6
			c-0.2,0.2-0.4,0.3-0.6,0.4c-0.3,0.1-0.5,0.1-0.8,0.1c-0.4,0-0.9-0.1-1.3-0.3v-0.7c0.4,0.3,0.8,0.5,1.3,0.5c0.2,0,0.4,0,0.5-0.1
			c0.1,0,0.3-0.1,0.4-0.2c0.1-0.1,0.2-0.2,0.3-0.4c0.1-0.2,0.1-0.3,0.1-0.5c0-0.8-0.5-1.2-1.6-1.2h-0.5v-0.6h0.4
			c0.9,0,1.4-0.4,1.4-1.1c0-0.7-0.4-1-1.1-1c-0.4,0-0.8,0.2-1.1,0.4v-0.7c0.4-0.2,0.8-0.4,1.3-0.3c0.2,0,0.4,0,0.6,0.1
			c0.2,0.1,0.3,0.2,0.5,0.3c0.1,0.1,0.2,0.3,0.3,0.5c0.1,0.2,0.1,0.4,0.1,0.6c0,0.7-0.4,1.4-1.1,1.5v0c0.2,0,0.4,0.1,0.5,0.1
			c0.2,0.1,0.3,0.2,0.4,0.3c0.1,0.1,0.2,0.3,0.3,0.4C507,6161.1,507,6161.2,507,6161.4L507,6161.4z M511.6,6160.1
			c0,0.5,0,0.9-0.1,1.3c-0.1,0.4-0.2,0.7-0.4,1c-0.1,0.3-0.4,0.5-0.6,0.6c-0.2,0.1-0.5,0.2-0.8,0.2c-0.3,0-0.5-0.1-0.8-0.2
			c-0.2-0.1-0.4-0.3-0.6-0.6c-0.2-0.3-0.3-0.6-0.4-0.9c-0.1-0.4-0.1-0.9-0.1-1.3c0-0.5,0-0.9,0.1-1.4c0.1-0.4,0.2-0.7,0.4-1
			c0.1-0.3,0.4-0.5,0.6-0.6c0.3-0.1,0.5-0.2,0.8-0.2C511,6157,511.6,6158,511.6,6160.1L511.6,6160.1z M511,6160.2
			c0-1.7-0.4-2.6-1.1-2.6c-0.8,0-1.2,0.9-1.2,2.6c0,1.6,0.4,2.5,1.2,2.5C510.6,6162.7,511,6161.8,511,6160.2L511,6160.2z
			 M516,6160.1c0,0.5,0,0.9-0.1,1.3c-0.1,0.4-0.2,0.7-0.4,1c-0.1,0.3-0.4,0.5-0.6,0.6c-0.2,0.1-0.5,0.2-0.8,0.2
			c-0.3,0-0.5-0.1-0.8-0.2c-0.2-0.1-0.4-0.3-0.6-0.6c-0.2-0.3-0.3-0.6-0.4-0.9c-0.1-0.4-0.1-0.9-0.1-1.3c0-0.5,0-0.9,0.1-1.4
			c0.1-0.4,0.2-0.7,0.4-1c0.1-0.3,0.4-0.5,0.6-0.6c0.3-0.1,0.5-0.2,0.8-0.2C515.4,6157,516,6158,516,6160.1L516,6160.1z
			 M515.3,6160.2c0-1.7-0.4-2.6-1.1-2.6c-0.8,0-1.2,0.9-1.2,2.6c0,1.6,0.4,2.5,1.2,2.5C514.9,6162.7,515.3,6161.8,515.3,6160.2
			L515.3,6160.2z M520.3,6160.1c0,0.5,0,0.9-0.1,1.3c-0.1,0.4-0.2,0.7-0.4,1c-0.1,0.3-0.4,0.5-0.6,0.6c-0.2,0.1-0.5,0.2-0.8,0.2
			c-0.3,0-0.5-0.1-0.8-0.2c-0.2-0.1-0.4-0.3-0.6-0.6c-0.2-0.3-0.3-0.6-0.4-0.9c-0.1-0.4-0.1-0.9-0.1-1.3c0-0.5,0-0.9,0.1-1.4
			c0.1-0.4,0.2-0.7,0.4-1c0.1-0.3,0.4-0.5,0.6-0.6c0.3-0.1,0.5-0.2,0.8-0.2C519.7,6157,520.3,6158,520.3,6160.1L520.3,6160.1z
			 M519.7,6160.2c0-1.7-0.4-2.6-1.1-2.6c-0.8,0-1.2,0.9-1.2,2.6c0,1.6,0.4,2.5,1.2,2.5C519.3,6162.7,519.7,6161.8,519.7,6160.2
			L519.7,6160.2z"/>
		<path id="Trazado_102740" class="st2" d="M494.1,6197.6h-0.6v-5.2c-0.1,0.1-0.1,0.1-0.2,0.2c-0.1,0.1-0.2,0.1-0.3,0.2
			c-0.1,0.1-0.2,0.1-0.4,0.2c-0.1,0.1-0.3,0.1-0.4,0.1v-0.7c0.2,0,0.3-0.1,0.5-0.2c0.2-0.1,0.3-0.2,0.5-0.2s0.3-0.2,0.4-0.3
			c0.1-0.1,0.2-0.2,0.4-0.3h0.2L494.1,6197.6z M499.7,6194.6c0,0.5,0,0.9-0.1,1.3c-0.1,0.4-0.2,0.7-0.4,1c-0.1,0.3-0.4,0.5-0.6,0.6
			c-0.2,0.1-0.5,0.2-0.8,0.2c-0.3,0-0.5-0.1-0.8-0.2c-0.2-0.1-0.4-0.3-0.6-0.6c-0.2-0.3-0.3-0.6-0.3-0.9c-0.1-0.4-0.1-0.9-0.1-1.3
			c0-0.5,0-0.9,0.1-1.4c0.1-0.4,0.2-0.7,0.4-1c0.1-0.3,0.4-0.5,0.6-0.6c0.3-0.1,0.5-0.2,0.8-0.2
			C499.1,6191.5,499.7,6192.5,499.7,6194.6z M499,6194.6c0-1.7-0.4-2.6-1.1-2.6c-0.8,0-1.2,0.9-1.2,2.6c0,1.6,0.4,2.5,1.2,2.5
			C498.6,6197.1,499,6196.3,499,6194.6L499,6194.6z M504,6194.2c0,0.5,0,1-0.2,1.5c-0.1,0.4-0.2,0.8-0.5,1.1
			c-0.2,0.3-0.4,0.5-0.7,0.7c-0.3,0.2-0.6,0.2-1,0.2c-0.3,0-0.7-0.1-1-0.2v-0.7c0.3,0.2,0.7,0.3,1,0.3c0.2,0,0.5-0.1,0.7-0.2
			c0.2-0.1,0.4-0.3,0.5-0.5c0.2-0.2,0.3-0.5,0.3-0.8c0.1-0.4,0.1-0.7,0.1-1.1h0c-0.2,0.5-0.7,0.8-1.3,0.8c-0.2,0-0.5,0-0.7-0.1
			c-0.2-0.1-0.4-0.2-0.5-0.4c-0.2-0.2-0.3-0.4-0.3-0.6c-0.1-0.2-0.1-0.5-0.1-0.8c0-0.3,0-0.6,0.1-0.8c0.1-0.2,0.2-0.5,0.4-0.6
			c0.2-0.2,0.4-0.3,0.6-0.4c0.2-0.1,0.5-0.2,0.7-0.1c0.3,0,0.5,0.1,0.8,0.2c0.2,0.1,0.4,0.3,0.6,0.5c0.2,0.3,0.3,0.6,0.3,0.9
			C503.9,6193.4,504,6193.8,504,6194.2L504,6194.2z M503.3,6193.6c0-0.2,0-0.4-0.1-0.6c0-0.2-0.1-0.3-0.2-0.5
			c-0.1-0.1-0.2-0.2-0.4-0.3c-0.1-0.1-0.3-0.1-0.5-0.1c-0.1,0-0.3,0-0.4,0.1c-0.1,0.1-0.3,0.2-0.3,0.3c-0.1,0.1-0.2,0.3-0.2,0.4
			c-0.1,0.2-0.1,0.4-0.1,0.5c0,0.2,0,0.4,0.1,0.6c0,0.2,0.1,0.3,0.2,0.4c0.1,0.1,0.2,0.2,0.4,0.3c0.1,0.1,0.3,0.1,0.5,0.1
			c0.1,0,0.3,0,0.4-0.1c0.1-0.1,0.2-0.1,0.3-0.2c0.1-0.1,0.2-0.2,0.2-0.4C503.2,6193.9,503.3,6193.8,503.3,6193.6z M507.4,6193.2
			c0-0.2,0-0.3-0.1-0.5c-0.1-0.3-0.3-0.5-0.6-0.6c-0.1,0-0.3-0.1-0.4-0.1c-0.1,0-0.3,0-0.4,0.1c-0.1,0-0.2,0.1-0.4,0.2
			c-0.1,0.1-0.2,0.1-0.3,0.2c-0.1,0.1-0.2,0.2-0.3,0.3v-0.7c0.2-0.2,0.4-0.3,0.6-0.4c0.3-0.1,0.5-0.2,0.8-0.2c0.2,0,0.4,0,0.6,0.1
			c0.2,0.1,0.4,0.2,0.5,0.3c0.1,0.1,0.3,0.3,0.3,0.5c0.1,0.2,0.1,0.5,0.1,0.7c0,0.2,0,0.4-0.1,0.6c-0.1,0.2-0.1,0.4-0.2,0.6
			c-0.1,0.2-0.2,0.3-0.4,0.5c-0.2,0.2-0.4,0.3-0.6,0.5c-0.3,0.2-0.5,0.4-0.7,0.5c-0.1,0.1-0.3,0.3-0.4,0.4c-0.1,0.1-0.2,0.2-0.2,0.4
			c0,0.1-0.1,0.3-0.1,0.4h2.8v0.6h-3.5v-0.3c0-0.2,0-0.5,0.1-0.7c0.1-0.2,0.1-0.4,0.3-0.6c0.1-0.2,0.3-0.4,0.5-0.5
			c0.2-0.2,0.4-0.4,0.7-0.6c0.2-0.1,0.4-0.3,0.5-0.5c0.1-0.1,0.2-0.3,0.3-0.4c0.1-0.1,0.1-0.3,0.2-0.4
			C507.4,6193.5,507.4,6193.3,507.4,6193.2L507.4,6193.2z M512.7,6194.6c0,0.5,0,0.9-0.1,1.3c-0.1,0.4-0.2,0.7-0.4,1
			c-0.1,0.3-0.4,0.5-0.6,0.6c-0.2,0.1-0.5,0.2-0.8,0.2c-0.3,0-0.5-0.1-0.8-0.2c-0.2-0.1-0.4-0.3-0.6-0.6c-0.2-0.3-0.3-0.6-0.4-0.9
			c-0.1-0.4-0.1-0.9-0.1-1.3c0-0.5,0-0.9,0.1-1.4c0.1-0.4,0.2-0.7,0.4-1c0.1-0.3,0.4-0.5,0.6-0.6c0.3-0.1,0.5-0.2,0.8-0.2
			C512.1,6191.5,512.7,6192.5,512.7,6194.6L512.7,6194.6z M512.1,6194.6c0-1.7-0.4-2.6-1.1-2.6c-0.8,0-1.2,0.9-1.2,2.6
			c0,1.6,0.4,2.5,1.2,2.5C511.7,6197.1,512.1,6196.3,512.1,6194.6L512.1,6194.6z"/>
		<line id="Línea_153" class="st3" x1="467.1" y1="6146.2" x2="467.3" y2="6213.2"/>
		<path id="Trazado_99538" class="st4" d="M362,6113.3h200v32.9H362V6113.3z"/>
		<path id="Trazado_102735" class="st1" d="M395.7,6128.6c0,0.4-0.1,0.9-0.3,1.2c-0.2,0.4-0.6,0.7-0.9,0.8c-0.4,0.2-0.9,0.3-1.4,0.3
			h-0.6v2.2h-1.9v-6.8h2.6c0.7-0.1,1.4,0.1,2,0.5C395.6,6127.4,395.8,6128,395.7,6128.6z M393.7,6128.7c0-0.2-0.1-0.5-0.2-0.6
			c-0.2-0.2-0.4-0.2-0.7-0.2h-0.4v1.7h0.4C393.4,6129.5,393.7,6129.3,393.7,6128.7z M396.5,6133.2v-6.8h4v1.6h-2v1h1.9v1.6h-1.9v1
			h2.2v1.6H396.5z M404.8,6133.2l-0.5-1.5c-0.1-0.3-0.2-0.5-0.4-0.7c-0.1-0.2-0.3-0.2-0.5-0.2h-0.1v2.4h-1.9v-6.8h2.5
			c0.7-0.1,1.4,0.1,2,0.5c0.4,0.3,0.7,0.9,0.6,1.4c0,0.4-0.1,0.8-0.4,1.2c-0.3,0.3-0.7,0.6-1.1,0.7v0c0.3,0.1,0.5,0.2,0.7,0.4
			c0.2,0.3,0.4,0.6,0.5,0.9l0.6,1.7H404.8z M404.6,6128.5c0-0.2-0.1-0.4-0.2-0.5c-0.2-0.1-0.4-0.2-0.6-0.2h-0.4v1.6h0.3
			c0.2,0,0.5-0.1,0.6-0.2C404.6,6129,404.6,6128.8,404.6,6128.5L404.6,6128.5z M407.7,6133.2v-6.8h1.9v6.8H407.7z M416.9,6129.8
			c0,0.6-0.1,1.3-0.4,1.8c-0.3,0.5-0.7,1-1.2,1.3c-0.5,0.3-1.1,0.5-1.7,0.4c-0.6,0-1.1-0.1-1.6-0.4c-0.5-0.3-0.9-0.7-1.1-1.2
			c-0.3-0.5-0.4-1.2-0.4-1.8c0-0.7,0.1-1.3,0.4-1.9c0.3-0.5,0.7-1,1.2-1.3c0.5-0.3,1.1-0.5,1.7-0.5c0.6,0,1.1,0.1,1.6,0.4
			c0.5,0.3,0.9,0.7,1.1,1.2C416.8,6128.5,416.9,6129.1,416.9,6129.8z M414.9,6129.8c0-0.5-0.1-0.9-0.3-1.3c-0.2-0.3-0.5-0.5-0.8-0.5
			c-0.4,0-0.7,0.2-0.9,0.5c-0.2,0.4-0.3,0.9-0.3,1.3c0,0.5,0.1,0.9,0.3,1.3c0.2,0.3,0.5,0.5,0.9,0.5c0.2,0,0.4-0.1,0.6-0.2
			c0.2-0.2,0.3-0.4,0.4-0.6C414.9,6130.5,414.9,6130.1,414.9,6129.8L414.9,6129.8z M423.8,6129.7c0,0.6-0.1,1.3-0.4,1.8
			c-0.3,0.5-0.7,1-1.2,1.2c-0.5,0.3-1.1,0.4-1.7,0.4h-2.7v-6.8h2.6C422.7,6126.4,423.8,6127.5,423.8,6129.7z M421.8,6129.7
			c0-0.3-0.1-0.6-0.2-0.9c-0.1-0.3-0.3-0.5-0.5-0.6c-0.3-0.2-0.5-0.2-0.8-0.2h-0.5v3.6h0.5c0.4,0,0.8-0.2,1.1-0.5
			C421.7,6130.7,421.8,6130.2,421.8,6129.7z M430.8,6129.8c0,0.6-0.1,1.3-0.4,1.8c-0.3,0.5-0.7,1-1.2,1.3c-0.5,0.3-1.1,0.5-1.7,0.4
			c-0.6,0-1.1-0.1-1.6-0.4c-0.5-0.3-0.9-0.7-1.1-1.2c-0.3-0.5-0.4-1.2-0.4-1.8c0-0.7,0.1-1.3,0.4-1.9c0.3-0.5,0.7-1,1.2-1.3
			c0.5-0.3,1.1-0.5,1.7-0.5c0.6,0,1.1,0.1,1.6,0.4c0.5,0.3,0.9,0.7,1.1,1.2C430.7,6128.5,430.8,6129.1,430.8,6129.8z M428.8,6129.8
			c0-0.5-0.1-0.9-0.3-1.3c-0.2-0.3-0.5-0.5-0.8-0.5c-0.4,0-0.7,0.2-0.9,0.5c-0.2,0.4-0.3,0.9-0.3,1.3c0,0.5,0.1,0.9,0.3,1.3
			c0.2,0.3,0.5,0.5,0.9,0.5c0.2,0,0.4-0.1,0.6-0.2c0.2-0.2,0.3-0.4,0.4-0.6C428.7,6130.5,428.8,6130.1,428.8,6129.8L428.8,6129.8z"
			/>
		<path id="Trazado_102736" class="st1" d="M502.4,6133.2v-3.7c0-0.4,0-0.7,0-1.2l0-0.3h-0.1c-0.1,0.5-0.2,0.9-0.2,1.1l-0.9,4.1
			h-1.8l-1-4.1c0-0.1-0.1-0.5-0.2-1.2h-0.1c0,1.1,0.1,1.7,0.1,2v3.2h-1.7v-6.8h2.9l0.9,3.7c0,0.2,0.1,0.3,0.1,0.5
			c0,0.2,0.1,0.4,0.1,0.5h0c0-0.3,0.1-0.6,0.2-1l0.8-3.7h2.8v6.8H502.4z M511.6,6129.8c0,0.6-0.1,1.3-0.4,1.8
			c-0.3,0.5-0.7,1-1.2,1.3c-0.5,0.3-1.1,0.5-1.7,0.4c-0.6,0-1.1-0.1-1.6-0.4c-0.5-0.3-0.9-0.7-1.1-1.2c-0.3-0.5-0.4-1.2-0.4-1.8
			c0-0.7,0.1-1.3,0.4-1.9c0.3-0.5,0.7-1,1.2-1.3c0.5-0.3,1.1-0.5,1.7-0.5c0.6,0,1.1,0.1,1.6,0.4c0.5,0.3,0.9,0.7,1.1,1.2
			C511.4,6128.5,511.6,6129.1,511.6,6129.8z M509.5,6129.8c0-0.5-0.1-0.9-0.3-1.3c-0.2-0.3-0.5-0.5-0.8-0.5c-0.4,0-0.7,0.2-0.9,0.5
			c-0.2,0.4-0.3,0.9-0.3,1.3c0,0.5,0.1,0.9,0.3,1.3c0.2,0.3,0.5,0.5,0.9,0.5c0.2,0,0.4-0.1,0.6-0.2c0.2-0.2,0.3-0.4,0.4-0.6
			C509.5,6130.5,509.5,6130.1,509.5,6129.8L509.5,6129.8z M516.9,6133.2l-2.2-3.3c-0.2-0.2-0.3-0.5-0.4-0.7h0c0,0.3,0,0.7,0,1.1v2.9
			h-1.8v-6.8h1.8l2.2,3.1c0,0,0.1,0.1,0.1,0.1s0.1,0.1,0.1,0.2c0,0.1,0.1,0.1,0.1,0.2c0,0,0.1,0.1,0.1,0.2h0c0-0.2,0-0.5,0-0.7v-3.1
			h1.8v6.8H516.9z M523.1,6128v5.2h-1.9v-5.2h-1.8v-1.6h5.5v1.6L523.1,6128z M531.7,6129.8c0,0.6-0.1,1.3-0.4,1.8
			c-0.3,0.5-0.7,1-1.2,1.3c-0.5,0.3-1.1,0.5-1.7,0.4c-0.6,0-1.1-0.1-1.6-0.4c-0.5-0.3-0.9-0.7-1.1-1.2c-0.3-0.5-0.4-1.2-0.4-1.8
			c0-0.7,0.1-1.3,0.4-1.9c0.3-0.5,0.7-1,1.2-1.3c0.5-0.3,1.1-0.5,1.7-0.5c0.6,0,1.1,0.1,1.6,0.4c0.5,0.3,0.9,0.7,1.1,1.2
			C531.6,6128.5,531.7,6129.1,531.7,6129.8z M529.7,6129.8c0-0.5-0.1-0.9-0.3-1.3c-0.2-0.3-0.5-0.5-0.8-0.5c-0.4,0-0.7,0.2-0.9,0.5
			c-0.2,0.4-0.3,0.9-0.3,1.3c0,0.5,0.1,0.9,0.3,1.3c0.2,0.3,0.5,0.5,0.9,0.5c0.2,0,0.4-0.1,0.6-0.2c0.2-0.2,0.3-0.4,0.4-0.6
			C529.6,6130.5,529.7,6130.1,529.7,6129.8L529.7,6129.8z M537,6131.1c0,0.4-0.1,0.8-0.3,1.2c-0.2,0.3-0.6,0.6-1,0.8
			c-0.5,0.2-1,0.3-1.5,0.2c-0.6,0-1.2-0.1-1.8-0.4v-1.9c0.3,0.2,0.6,0.4,0.9,0.5c0.3,0.1,0.6,0.2,0.9,0.2c0.2,0,0.3,0,0.5-0.1
			c0.1-0.1,0.2-0.2,0.2-0.4c0-0.1,0-0.2-0.1-0.3c-0.1-0.1-0.2-0.2-0.3-0.2c-0.2-0.1-0.4-0.2-0.7-0.3c-1-0.4-1.5-1.1-1.5-2
			c0-0.6,0.2-1.2,0.7-1.6c0.5-0.4,1.2-0.6,1.9-0.6c0.2,0,0.4,0,0.6,0c0.2,0,0.4,0,0.5,0.1c0.2,0,0.4,0.1,0.6,0.2v1.7
			c-0.5-0.3-1-0.5-1.6-0.5c-0.2,0-0.4,0-0.5,0.1c-0.1,0.1-0.2,0.2-0.2,0.4c0,0.1,0.1,0.3,0.2,0.4c0.2,0.2,0.4,0.3,0.7,0.4
			c0.5,0.2,1,0.5,1.4,0.9C536.9,6130.3,537,6130.7,537,6131.1z"/>
	</g>
</g>
</svg>
