<svg xmlns="http://www.w3.org/2000/svg" width="1227" height="470" viewBox="0 0 1227 470">
  <g id="Grupo_54993" data-name="Grupo 54993" transform="translate(-182 -2787.278)">
    <g id="Trazado_102756" data-name="Trazado 102756" transform="translate(182 2787.278)" fill="#f3f9ff">
      <path d="M 1226.5 469.5 L 0.5 469.5 L 0.5 0.5 L 1226.5 0.5 L 1226.5 469.5 Z" stroke="none"/>
      <path d="M 1 1 L 1 469 L 1226 469 L 1226 1 L 1 1 M 0 0 L 1227 0 L 1227 470 L 0 470 L 0 0 Z" stroke="none" fill="#e8e8e8"/>
    </g>
    <g id="Grupo_54963" data-name="Grupo 54963" transform="translate(34 3.274)">
      <rect id="Rectángulo_6898" data-name="Rectángulo 6898" width="573" height="61.937" transform="translate(475 2894.68)" fill="#f6f6f6"/>
      <rect id="Rectángulo_6899" data-name="Rectángulo 6899" width="573" height="121.937" transform="translate(475 2956.616)" fill="#fff"/>
      <text id="Valores_representativos_de_deuda_a_corto_plazo" data-name="Valores representativos de deuda a corto plazo" transform="translate(497 2978.68)" fill="#12263f" font-size="18" font-family="Roboto-Black, Roboto" font-weight="800"><tspan x="0" y="19">Valores </tspan><tspan x="0" y="46">representativos de </tspan><tspan x="0" y="73">deuda a corto plazo</tspan></text>
      <text id="Bancos" transform="translate(497 2916.68)" fill="#12263f" font-size="18" font-family="Roboto-Black, Roboto" font-weight="800"><tspan x="0" y="19">Bancos</tspan></text>
      <text id="_418.418_34" data-name="418.418,34" transform="translate(716.965 2918.68)" fill="#12263f" font-size="16" font-family="Roboto-Regular, Roboto"><tspan x="0" y="17">418.418,34</tspan></text>
      <text id="_418.418_34-2" data-name="418.418,34" transform="translate(906 2999.503)" fill="#12263f" font-size="16" font-family="Roboto-Regular, Roboto"><tspan x="0" y="17">418.418,34</tspan></text>
      <line id="Línea_276" data-name="Línea 276" y2="183.873" transform="translate(672 2894.68)" fill="none" stroke="#afafaf" stroke-linecap="round" stroke-width="1"/>
      <line id="Línea_277" data-name="Línea 277" y2="183.873" transform="translate(853.965 2864.68)" fill="none" stroke="#afafaf" stroke-linecap="round" stroke-width="1"/>
      <path id="Trazado_102710" data-name="Trazado 102710" d="M0,0H572.931V60.672H0Z" transform="translate(475 2834.004)" fill="#d9a171"/>
      <text id="CUENTA" transform="translate(571 2870.68)" fill="#fff" font-size="24" font-family="Roboto-Black, Roboto" font-weight="800"><tspan x="-46.025" y="0">CUENTA</tspan></text>
      <text id="DÉBITOS" transform="translate(759 2872.84)" fill="#fff" font-size="24" font-family="Roboto-Black, Roboto" font-weight="800"><tspan x="-49.031" y="0">DÉBITOS</tspan></text>
      <text id="CRÉDITOS" transform="translate(948 2870.68)" fill="#fff" font-size="24" font-family="Roboto-Black, Roboto" font-weight="800"><tspan x="-56.994" y="0">CRÉDITOS</tspan></text>
    </g>
  </g>
</svg>
