<?xml version="1.0" encoding="utf-8"?>
<!-- Generator: Adobe Illustrator 25.2.3, SVG Export Plug-In . SVG Version: 6.00 Build 0)  -->
<svg version="1.1" id="Capa_1" xmlns="http://www.w3.org/2000/svg" xmlns:xlink="http://www.w3.org/1999/xlink" x="0px" y="0px"
	 viewBox="0 0 573 201.2" style="enable-background:new 0 0 573 201.2;" xml:space="preserve">
<style type="text/css">
	.st0{fill:#F6F6F6;}
	.st1{fill:#FFFFFF;}
	.st2{fill:#12263F;}
	.st3{fill:none;stroke:#AFAFAF;stroke-linecap:round;}
	.st4{fill:#D9A171;}
</style>
<g id="Grupo_54931" transform="translate(-534 -307.386)">
	<rect id="Rectángulo_6886" x="620.5" y="378.1" class="st0" width="400" height="52.3"/>
	<rect id="Rectángulo_6885" x="620.5" y="430.4" class="st1" width="400" height="52.3"/>
	<path id="Trazado_102728" class="st2" d="M638.8,458.8h-2.1v-9.6h2.1V458.8z M642.1,451.7l0.1,0.8c0.4-0.6,1.2-1,1.9-1
		c0.6,0,1.2,0.2,1.5,0.7c0.4,0.6,0.6,1.3,0.5,2v4.6h-2.1v-4.5c0-0.3,0-0.6-0.2-0.8c-0.2-0.2-0.5-0.3-0.7-0.3c-0.4,0-0.7,0.2-0.9,0.5
		v5h-2.1v-7.1H642.1z M647.1,455.2c0-0.7,0.1-1.3,0.3-1.9c0.2-0.5,0.5-1,0.9-1.3c0.4-0.3,0.9-0.5,1.4-0.4c0.6,0,1.2,0.2,1.6,0.7
		l0.1-0.6h1.9v6.8c0,0.6-0.1,1.1-0.4,1.6c-0.3,0.5-0.7,0.8-1.2,1.1c-0.6,0.3-1.2,0.4-1.8,0.4c-0.5,0-1-0.1-1.4-0.3
		c-0.4-0.2-0.8-0.4-1-0.8l0.9-1.3c0.4,0.5,0.9,0.8,1.5,0.7c0.7,0.1,1.3-0.4,1.4-1.1c0-0.1,0-0.2,0-0.4v-0.2
		c-0.4,0.5-0.9,0.7-1.5,0.7c-0.8,0-1.5-0.3-2-1C647.3,457.2,647,456.2,647.1,455.2L647.1,455.2z M649.1,455.3c0,0.5,0.1,1,0.3,1.4
		c0.2,0.3,0.5,0.5,0.9,0.5c0.4,0,0.8-0.1,1-0.5v-3c-0.2-0.3-0.6-0.5-1-0.5c-0.4,0-0.7,0.2-0.9,0.5
		C649.2,454.3,649.1,454.8,649.1,455.3L649.1,455.3z M658.6,453.7l-0.7-0.1c-0.5-0.1-1,0.2-1.3,0.7v4.5h-2.1v-7.1h1.9l0.1,0.9
		c0.2-0.6,0.8-1,1.5-1c0.2,0,0.4,0,0.6,0.1L658.6,453.7z M662.5,458.9c-0.9,0-1.8-0.3-2.5-1c-0.6-0.7-1-1.6-0.9-2.5v-0.2
		c0-0.7,0.1-1.3,0.4-1.9c0.2-0.5,0.6-1,1.1-1.3c0.5-0.3,1.1-0.5,1.7-0.5c0.8,0,1.6,0.3,2.2,0.9c0.6,0.7,0.9,1.6,0.8,2.6v0.9h-4.1
		c0.1,0.4,0.2,0.7,0.5,0.9c0.3,0.2,0.6,0.4,1,0.3c0.6,0,1.2-0.2,1.5-0.7l0.9,1.2c-0.3,0.4-0.7,0.7-1.1,0.9
		C663.6,458.8,663,458.9,662.5,458.9L662.5,458.9z M662.3,453.3c-0.6,0-1,0.4-1.1,1.3h2.1v-0.2c0-0.3-0.1-0.6-0.3-0.8
		C662.8,453.4,662.6,453.3,662.3,453.3z M669.6,456.8c0-0.2-0.1-0.4-0.3-0.5c-0.3-0.2-0.7-0.3-1-0.4c-0.4-0.1-0.9-0.3-1.3-0.5
		c-0.3-0.2-0.6-0.4-0.8-0.7c-0.2-0.3-0.3-0.6-0.3-1c0-0.6,0.3-1.2,0.8-1.6c0.6-0.4,1.3-0.7,2-0.6c0.7,0,1.5,0.2,2.1,0.6
		c0.5,0.4,0.8,1,0.8,1.7h-2.1c0-0.6-0.3-0.9-0.8-0.9c-0.2,0-0.4,0.1-0.5,0.2c-0.1,0.1-0.2,0.3-0.2,0.5c0,0.2,0.1,0.4,0.3,0.5
		c0.3,0.2,0.6,0.3,0.9,0.3c0.4,0.1,0.7,0.2,1,0.3c0.9,0.2,1.5,1,1.5,2c0,0.6-0.3,1.2-0.8,1.6c-0.6,0.4-1.4,0.6-2.1,0.6
		c-0.5,0-1-0.1-1.5-0.3c-0.4-0.2-0.8-0.5-1-0.9c-0.2-0.3-0.4-0.8-0.4-1.2h1.9c0,0.3,0.1,0.5,0.3,0.7c0.2,0.2,0.5,0.2,0.8,0.2
		c0.2,0,0.4,0,0.6-0.2C669.5,457.2,669.6,457,669.6,456.8L669.6,456.8z M672.3,455.2c0-0.7,0.1-1.3,0.4-1.9c0.2-0.5,0.6-1,1.1-1.3
		c0.5-0.3,1.1-0.5,1.7-0.4c0.9,0,1.7,0.3,2.3,1c0.6,0.7,0.9,1.7,0.9,2.7v0.1c0,1-0.3,1.9-0.9,2.6c-0.6,0.7-1.5,1-2.3,1
		c-0.8,0-1.7-0.3-2.3-0.9c-0.6-0.7-0.9-1.5-0.9-2.5L672.3,455.2z M674.4,455.3c0,0.5,0.1,1,0.3,1.4c0.2,0.3,0.5,0.5,0.9,0.5
		c0.7,0,1.1-0.6,1.1-1.8v-0.2c0-1.3-0.4-1.9-1.1-1.9c-0.7,0-1.1,0.5-1.1,1.6L674.4,455.3z"/>
	<path id="Trazado_102725" class="st2" d="M641.6,406.9h-3l-0.5,1.8h-2.3l3.3-9.6h2l3.3,9.6h-2.3L641.6,406.9z M639.2,405.2h1.9
		l-1-3.3L639.2,405.2z M647.8,407.1c0.2,0,0.5-0.1,0.7-0.3c0.2-0.2,0.3-0.4,0.2-0.7h1.9c0,0.7-0.3,1.4-0.8,1.9
		c-0.6,0.5-1.3,0.8-2,0.7c-0.9,0-1.7-0.3-2.3-1c-0.6-0.7-0.9-1.7-0.8-2.7v-0.1c0-0.7,0.1-1.3,0.4-1.9c0.2-0.5,0.6-1,1.1-1.3
		c0.5-0.3,1.1-0.5,1.7-0.4c0.8,0,1.5,0.2,2.1,0.8c0.5,0.5,0.8,1.3,0.8,2.1h-1.9c0-0.3-0.1-0.6-0.3-0.8c-0.2-0.2-0.4-0.3-0.7-0.3
		c-0.5,0-0.8,0.4-0.9,1.1c0,0.3,0,0.6,0,1c0,0.5,0,1,0.2,1.5C647.2,407,647.5,407.2,647.8,407.1z M653.9,399.8v1.8h1.1v1.5h-1.1v3.3
		c0,0.2,0,0.4,0.1,0.6c0.2,0.1,0.3,0.2,0.5,0.2c0.2,0,0.3,0,0.5,0v1.6c-0.4,0.1-0.8,0.2-1.2,0.2c-0.6,0.1-1.1-0.1-1.6-0.5
		c-0.4-0.4-0.6-1-0.5-1.6v-3.5H651v-1.5h0.8v-1.8H653.9z M658,408.7h-2.1v-7.1h2.1V408.7z M655.8,399.8c0-0.3,0.1-0.6,0.3-0.8
		c0.5-0.4,1.2-0.4,1.7,0c0.2,0.2,0.3,0.5,0.3,0.8c0,0.3-0.1,0.6-0.3,0.8c-0.5,0.4-1.2,0.4-1.7,0
		C655.9,400.4,655.8,400.1,655.8,399.8z M661.9,406.1l1-4.5h2.2l-2.2,7.1h-2.1l-2.2-7.1h2.2L661.9,406.1z M665.4,405.1
		c0-0.7,0.1-1.3,0.4-1.9c0.2-0.5,0.6-1,1.1-1.3c0.5-0.3,1.1-0.5,1.7-0.4c0.9,0,1.7,0.3,2.3,1c0.6,0.7,0.9,1.7,0.9,2.7v0.1
		c0,1-0.3,1.9-0.9,2.6c-0.6,0.7-1.5,1-2.3,1c-0.8,0-1.7-0.3-2.3-0.9c-0.6-0.7-0.9-1.5-0.9-2.5L665.4,405.1z M667.5,405.2
		c0,0.5,0.1,1,0.3,1.4c0.2,0.3,0.5,0.5,0.9,0.5c0.7,0,1.1-0.6,1.1-1.8v-0.2c0-1.3-0.4-1.9-1.1-1.9c-0.7,0-1.1,0.5-1.1,1.6
		L667.5,405.2z M678.1,408.7H676v-10.1h2.1V408.7z M683.1,408.7c-0.1-0.2-0.2-0.4-0.2-0.6c-0.4,0.5-1,0.8-1.6,0.8
		c-0.6,0-1.2-0.2-1.6-0.6c-0.4-0.4-0.7-0.9-0.7-1.5c0-0.7,0.3-1.4,0.8-1.7c0.7-0.4,1.5-0.6,2.3-0.6h0.6V404c0-0.7-0.3-1-0.8-1
		c-0.4-0.1-0.7,0.2-0.7,0.6c0,0.1,0,0.1,0,0.2h-2.1c0-0.7,0.3-1.3,0.8-1.7c0.6-0.5,1.3-0.7,2.1-0.6c0.7,0,1.4,0.2,2,0.7
		c0.5,0.5,0.8,1.1,0.8,1.8v3.1c0,0.5,0.1,1,0.3,1.5v0.1H683.1z M681.8,407.3c0.2,0,0.4-0.1,0.6-0.2c0.2-0.1,0.3-0.2,0.4-0.4v-1.1
		h-0.6c-0.7,0-1.1,0.3-1.1,1c0,0.2,0.1,0.4,0.2,0.5C681.4,407.2,681.6,407.3,681.8,407.3L681.8,407.3z M690,403.6l-0.7-0.1
		c-0.5-0.1-1,0.2-1.3,0.7v4.5H686v-7.1h1.9l0.1,0.9c0.2-0.6,0.8-1,1.5-1c0.2,0,0.4,0,0.6,0.1L690,403.6z M690.5,405.1
		c0-0.7,0.1-1.3,0.3-1.9c0.2-0.5,0.5-1,1-1.3c0.4-0.3,0.9-0.5,1.4-0.4c0.6,0,1.2,0.2,1.6,0.7l0.1-0.6h1.9v6.8c0,0.6-0.1,1.1-0.4,1.6
		c-0.3,0.5-0.7,0.8-1.2,1.1c-0.6,0.3-1.2,0.4-1.8,0.4c-0.5,0-1-0.1-1.4-0.3c-0.4-0.2-0.8-0.4-1-0.8l0.9-1.3c0.4,0.5,0.9,0.8,1.5,0.7
		c0.7,0.1,1.3-0.4,1.4-1.1c0-0.1,0-0.2,0-0.4v-0.2c-0.4,0.5-0.9,0.7-1.5,0.7c-0.8,0-1.5-0.3-2-1
		C690.7,407.1,690.5,406.1,690.5,405.1L690.5,405.1z M692.6,405.2c0,0.5,0.1,1,0.3,1.4c0.2,0.3,0.5,0.5,0.9,0.5c0.4,0,0.8-0.1,1-0.5
		v-3c-0.2-0.3-0.6-0.5-1-0.5c-0.4,0-0.7,0.2-0.9,0.5C692.7,404.2,692.6,404.7,692.6,405.2L692.6,405.2z M697.7,405.1
		c0-0.7,0.1-1.3,0.4-1.9c0.2-0.5,0.6-1,1.1-1.3c0.5-0.3,1.1-0.5,1.7-0.4c0.9,0,1.7,0.3,2.3,1c0.6,0.7,0.9,1.7,0.9,2.7v0.1
		c0,1-0.3,1.9-0.9,2.6c-0.6,0.7-1.5,1-2.3,1c-0.8,0-1.7-0.3-2.3-0.9c-0.6-0.7-0.9-1.5-0.9-2.5L697.7,405.1z M699.8,405.2
		c0,0.5,0.1,1,0.3,1.4c0.2,0.3,0.5,0.5,0.9,0.5c0.7,0,1.1-0.6,1.1-1.8v-0.2c0-1.3-0.4-1.9-1.1-1.9c-0.7,0-1.1,0.5-1.1,1.6
		L699.8,405.2z M714.3,405.2c0,0.9-0.2,1.9-0.7,2.6c-0.4,0.6-1.1,1-1.9,1c-0.6,0-1.1-0.2-1.5-0.7v3.3h-2.1v-9.8h1.9l0.1,0.7
		c0.4-0.5,1-0.8,1.6-0.8c0.7,0,1.5,0.3,1.9,1C714.1,403.2,714.4,404.2,714.3,405.2L714.3,405.2z M712.3,405.1c0-1.3-0.3-1.9-1-1.9
		c-0.4-0.1-0.8,0.2-1,0.6v2.8c0.2,0.4,0.6,0.6,1,0.6c0.7,0,1-0.6,1-1.8V405.1z M717.4,408.7h-2.1v-10.1h2.1V408.7z M722.4,408.7
		c-0.1-0.2-0.2-0.4-0.2-0.6c-0.4,0.5-1,0.8-1.6,0.8c-0.6,0-1.2-0.2-1.6-0.6c-0.4-0.4-0.7-0.9-0.7-1.5c0-0.7,0.3-1.4,0.8-1.7
		c0.7-0.4,1.5-0.6,2.3-0.6h0.6V404c0-0.7-0.3-1-0.8-1c-0.4-0.1-0.7,0.2-0.7,0.6c0,0.1,0,0.1,0,0.2h-2.1c0-0.7,0.3-1.3,0.8-1.7
		c0.6-0.5,1.3-0.7,2.1-0.6c0.7,0,1.4,0.2,2,0.7c0.5,0.5,0.8,1.1,0.8,1.8v3.1c0,0.5,0.1,1,0.3,1.5v0.1H722.4z M721.1,407.3
		c0.2,0,0.4-0.1,0.6-0.2c0.2-0.1,0.3-0.2,0.4-0.4v-1.1h-0.6c-0.7,0-1.1,0.3-1.1,1c0,0.2,0.1,0.4,0.2,0.5
		C720.8,407.2,721,407.3,721.1,407.3L721.1,407.3z M727.8,407h3v1.7h-5.6v-1.2l2.9-4.2h-2.8v-1.7h5.4v1.2L727.8,407z M731.5,405.1
		c0-0.7,0.1-1.3,0.4-1.9c0.2-0.5,0.6-1,1.1-1.3c0.5-0.3,1.1-0.5,1.7-0.4c0.9,0,1.7,0.3,2.3,1c0.6,0.7,0.9,1.7,0.9,2.7v0.1
		c0,1-0.3,1.9-0.9,2.6c-0.6,0.7-1.5,1-2.3,1c-0.8,0-1.7-0.3-2.3-0.9c-0.6-0.7-0.9-1.5-0.9-2.5L731.5,405.1z M733.5,405.2
		c0,0.5,0.1,1,0.3,1.4c0.2,0.3,0.5,0.5,0.9,0.5c0.7,0,1.1-0.6,1.1-1.8v-0.2c0-1.3-0.4-1.9-1.1-1.9c-0.7,0-1.1,0.5-1.1,1.6
		L733.5,405.2z"/>
	<path id="Trazado_102726" class="st2" d="M787.1,400.8c-0.1,0.8-0.4,1.5-0.9,2.1c-0.6,0.5-1.3,0.8-2.1,0.7c-0.9,0-1.7-0.4-2.3-1.1
		c-0.6-0.8-0.9-1.8-0.8-2.9v-0.8c0-0.7,0.1-1.4,0.4-2.1c0.2-0.6,0.6-1,1.1-1.4c0.5-0.3,1.1-0.5,1.7-0.5c0.7,0,1.5,0.2,2,0.8
		c0.5,0.6,0.8,1.3,0.9,2.1h-1.1c0-0.5-0.2-1.1-0.6-1.5c-0.4-0.3-0.8-0.5-1.3-0.5c-0.6,0-1.2,0.3-1.6,0.8c-0.4,0.7-0.6,1.5-0.6,2.3
		v0.8c0,0.8,0.2,1.5,0.5,2.2c0.3,0.5,0.9,0.8,1.5,0.8c0.5,0,1-0.1,1.3-0.4c0.4-0.4,0.6-0.9,0.6-1.5H787.1z M789.5,403.5h-1v-9h1
		V403.5z M792.2,403.5h-1v-6.3h1V403.5z M791.1,395.5c0-0.2,0-0.3,0.2-0.4c0.1-0.1,0.3-0.2,0.4-0.2c0.2,0,0.3,0.1,0.4,0.2
		c0.1,0.1,0.2,0.3,0.2,0.4c0,0.2-0.1,0.3-0.2,0.4c-0.1,0.1-0.3,0.2-0.4,0.2c-0.2,0-0.3-0.1-0.4-0.2
		C791.2,395.8,791.1,395.7,791.1,395.5z M796.3,403.6c-0.7,0-1.4-0.3-2-0.8c-0.5-0.6-0.8-1.4-0.8-2.3v-0.2c0-0.6,0.1-1.2,0.3-1.7
		c0.2-0.5,0.5-0.9,0.9-1.2c0.4-0.3,0.8-0.4,1.3-0.4c0.7,0,1.3,0.3,1.8,0.8c0.5,0.7,0.7,1.5,0.6,2.3v0.4h-4c0,0.6,0.2,1.1,0.5,1.5
		c0.3,0.4,0.8,0.6,1.2,0.6c0.3,0,0.6-0.1,0.9-0.2c0.3-0.2,0.5-0.4,0.6-0.6l0.6,0.5C798,403.2,797.2,403.7,796.3,403.6L796.3,403.6z
		 M796.1,397.9c-0.4,0-0.8,0.2-1,0.5c-0.3,0.4-0.5,0.8-0.5,1.3h3v-0.1c0-0.5-0.1-0.9-0.4-1.3C796.9,398.1,796.5,397.9,796.1,397.9z
		 M800.7,397.2l0,0.8c0.4-0.6,1.1-0.9,1.8-0.9c1.2,0,1.9,0.8,1.9,2.3v4.2h-1v-4.2c0-0.4-0.1-0.7-0.3-1c-0.2-0.2-0.6-0.4-0.9-0.3
		c-0.3,0-0.6,0.1-0.9,0.3c-0.2,0.2-0.4,0.4-0.6,0.7v4.5h-1v-6.3H800.7z M807.3,395.6v1.5h1.1v0.8h-1.1v3.9c0,0.2,0,0.4,0.1,0.6
		c0.1,0.1,0.3,0.2,0.5,0.2c0.2,0,0.3,0,0.5-0.1v0.9c-0.3,0.1-0.5,0.1-0.8,0.1c-0.4,0-0.8-0.1-1-0.4c-0.2-0.4-0.4-0.8-0.3-1.2V398
		h-1.1v-0.8h1.1v-1.5H807.3z M812,403.6c-0.7,0-1.4-0.3-2-0.8c-0.5-0.6-0.8-1.4-0.8-2.3v-0.2c0-0.6,0.1-1.2,0.3-1.7
		c0.2-0.5,0.5-0.9,0.9-1.2c0.4-0.3,0.8-0.4,1.3-0.4c0.7,0,1.3,0.3,1.8,0.8c0.5,0.7,0.7,1.5,0.6,2.3v0.4h-4c0,0.6,0.2,1.1,0.5,1.5
		c0.3,0.4,0.8,0.6,1.2,0.6c0.3,0,0.6-0.1,0.9-0.2c0.3-0.2,0.5-0.4,0.6-0.6l0.6,0.5C813.7,403.2,812.9,403.7,812,403.6L812,403.6z
		 M811.9,397.9c-0.4,0-0.8,0.2-1,0.5c-0.3,0.4-0.5,0.8-0.5,1.3h3v-0.1c0-0.5-0.1-0.9-0.4-1.3C812.6,398.1,812.2,397.9,811.9,397.9
		L811.9,397.9z M818.9,401.8c0-0.3-0.1-0.5-0.3-0.7c-0.3-0.2-0.7-0.4-1.1-0.4c-0.4-0.1-0.8-0.2-1.2-0.4c-0.3-0.1-0.5-0.3-0.7-0.6
		c-0.1-0.2-0.2-0.5-0.2-0.8c0-0.5,0.2-1,0.6-1.3c0.4-0.4,1-0.6,1.6-0.5c0.6,0,1.2,0.2,1.6,0.6c0.4,0.3,0.6,0.9,0.6,1.4h-1
		c0-0.3-0.1-0.6-0.3-0.8c-0.2-0.2-0.6-0.3-0.9-0.3c-0.3,0-0.6,0.1-0.9,0.3c-0.2,0.2-0.3,0.4-0.3,0.7c0,0.2,0.1,0.5,0.3,0.6
		c0.3,0.2,0.7,0.3,1,0.4c0.4,0.1,0.8,0.2,1.2,0.4c0.3,0.1,0.5,0.3,0.7,0.6c0.2,0.3,0.2,0.6,0.2,0.9c0,0.5-0.2,1-0.6,1.4
		c-0.5,0.4-1.1,0.5-1.6,0.5c-0.4,0-0.9-0.1-1.3-0.3c-0.3-0.2-0.6-0.4-0.9-0.7c-0.2-0.3-0.3-0.7-0.3-1h1c0,0.3,0.2,0.7,0.4,0.9
		c0.3,0.2,0.6,0.3,1,0.3c0.3,0,0.6-0.1,0.9-0.2C818.8,402.3,818.9,402.1,818.9,401.8L818.9,401.8z M827.6,403.5
		c-0.1-0.2-0.1-0.4-0.1-0.7c-0.4,0.5-1,0.8-1.7,0.8c-0.5,0-1-0.2-1.4-0.5c-0.4-0.3-0.6-0.8-0.6-1.3c0-0.6,0.2-1.2,0.7-1.5
		c0.6-0.4,1.3-0.6,2-0.5h1v-0.5c0-0.3-0.1-0.7-0.3-0.9c-0.3-0.2-0.6-0.4-0.9-0.3c-0.3,0-0.6,0.1-0.9,0.3c-0.2,0.2-0.4,0.4-0.4,0.7
		h-1c0-0.3,0.1-0.7,0.3-0.9c0.2-0.3,0.5-0.5,0.9-0.7c0.4-0.2,0.8-0.3,1.2-0.3c0.6,0,1.1,0.2,1.6,0.5c0.4,0.4,0.6,0.9,0.6,1.5v2.9
		c0,0.5,0.1,0.9,0.2,1.4v0.1H827.6z M826,402.7c0.3,0,0.6-0.1,0.9-0.3c0.3-0.2,0.5-0.4,0.6-0.7v-1.3h-0.8c-1.2,0-1.9,0.4-1.9,1.2
		c0,0.3,0.1,0.6,0.3,0.8C825.4,402.6,825.7,402.7,826,402.7L826,402.7z M782.2,419.2h-1v-9h1V419.2z M787.5,419.2
		c-0.1-0.2-0.1-0.4-0.1-0.7c-0.4,0.5-1,0.8-1.7,0.8c-0.5,0-1-0.2-1.4-0.5c-0.4-0.3-0.6-0.8-0.6-1.3c0-0.6,0.2-1.2,0.7-1.5
		c0.6-0.4,1.3-0.6,2-0.5h1v-0.5c0-0.3-0.1-0.7-0.3-0.9c-0.3-0.2-0.6-0.4-0.9-0.3c-0.3,0-0.6,0.1-0.9,0.3c-0.2,0.2-0.4,0.4-0.4,0.7
		h-1c0-0.3,0.1-0.7,0.3-0.9c0.2-0.3,0.5-0.5,0.9-0.7c0.4-0.2,0.8-0.3,1.2-0.3c0.6,0,1.1,0.2,1.6,0.5c0.4,0.4,0.6,0.9,0.6,1.5v2.9
		c0,0.5,0.1,0.9,0.2,1.4v0.1H787.5z M785.8,418.4c0.3,0,0.6-0.1,0.9-0.3c0.3-0.2,0.5-0.4,0.6-0.7v-1.3h-0.8c-1.2,0-1.9,0.4-1.9,1.2
		c0,0.3,0.1,0.6,0.3,0.8C785.2,418.3,785.5,418.4,785.8,418.4z M792.8,413.8c-0.2,0-0.3,0-0.5,0c-0.6-0.1-1.1,0.3-1.3,0.9v4.5h-1
		v-6.3h1l0,0.7c0.3-0.5,0.8-0.9,1.4-0.8c0.2,0,0.3,0,0.4,0.1L792.8,413.8z M793.4,416c0-0.8,0.2-1.7,0.6-2.4c0.4-0.6,1-0.9,1.7-0.9
		c0.7,0,1.3,0.3,1.7,0.8l0-0.7h0.9v6.2c0,0.7-0.2,1.4-0.7,1.9c-0.5,0.5-1.2,0.7-1.8,0.7c-0.4,0-0.9-0.1-1.2-0.3
		c-0.4-0.2-0.7-0.4-0.9-0.8l0.5-0.7c0.4,0.5,1,0.9,1.6,0.9c0.4,0,0.8-0.1,1.1-0.4c0.3-0.3,0.4-0.8,0.4-1.2v-0.5
		c-0.4,0.5-1,0.8-1.7,0.7c-0.7,0-1.3-0.3-1.7-0.9C793.6,417.7,793.4,416.8,793.4,416z M794.5,416.1c0,0.6,0.1,1.2,0.4,1.7
		c0.3,0.4,0.7,0.6,1.1,0.6c0.6,0,1.2-0.3,1.4-0.9v-2.9c-0.3-0.6-0.8-0.9-1.4-0.9c-0.5,0-0.9,0.2-1.2,0.6
		C794.6,414.8,794.4,415.5,794.5,416.1L794.5,416.1z M799.7,416c0-0.6,0.1-1.1,0.3-1.7c0.2-0.5,0.5-0.9,0.9-1.1
		c0.4-0.3,0.9-0.4,1.4-0.4c0.7,0,1.5,0.3,1.9,0.9c0.5,0.7,0.8,1.5,0.7,2.4v0.1c0,0.6-0.1,1.1-0.3,1.7c-0.2,0.5-0.5,0.9-0.9,1.1
		c-0.4,0.3-0.9,0.4-1.4,0.4c-0.7,0-1.5-0.3-1.9-0.9C799.9,417.8,799.7,416.9,799.7,416L799.7,416z M800.7,416.1
		c0,0.6,0.1,1.2,0.5,1.7c0.5,0.7,1.5,0.9,2.2,0.3c0.1-0.1,0.2-0.2,0.3-0.3c0.3-0.5,0.5-1.2,0.5-1.8c0-0.6-0.1-1.2-0.5-1.7
		c-0.3-0.4-0.7-0.7-1.2-0.6c-0.5,0-0.9,0.2-1.2,0.6C800.8,414.8,800.7,415.5,800.7,416.1L800.7,416.1z M814.1,416.1
		c0,0.8-0.2,1.6-0.6,2.3c-0.4,0.6-1,0.9-1.7,0.9c-0.6,0-1.3-0.2-1.7-0.7v3h-1v-8.7h0.9l0,0.7c0.4-0.5,1.1-0.9,1.7-0.8
		c0.7,0,1.3,0.3,1.7,0.9C813.9,414.3,814.1,415.2,814.1,416.1L814.1,416.1z M813.1,416c0-0.6-0.1-1.2-0.4-1.7
		c-0.3-0.4-0.7-0.6-1.2-0.6c-0.6,0-1.1,0.3-1.4,0.9v3c0.3,0.6,0.8,0.9,1.4,0.9c0.5,0,0.9-0.2,1.2-0.6
		C813,417.3,813.1,416.6,813.1,416z M816.5,419.2h-1v-9h1V419.2z M821.7,419.2c-0.1-0.2-0.1-0.4-0.1-0.7c-0.4,0.5-1,0.8-1.7,0.8
		c-0.5,0-1-0.2-1.4-0.5c-0.4-0.3-0.6-0.8-0.6-1.3c0-0.6,0.2-1.2,0.7-1.5c0.6-0.4,1.3-0.6,2-0.5h1v-0.5c0-0.3-0.1-0.7-0.3-0.9
		c-0.3-0.2-0.6-0.4-0.9-0.3c-0.3,0-0.6,0.1-0.9,0.3c-0.2,0.2-0.4,0.4-0.4,0.7h-1c0-0.3,0.1-0.7,0.3-0.9c0.2-0.3,0.5-0.5,0.9-0.7
		c0.4-0.2,0.8-0.3,1.2-0.3c0.6,0,1.1,0.2,1.6,0.5c0.4,0.4,0.6,0.9,0.6,1.5v2.9c0,0.5,0.1,0.9,0.2,1.4v0.1H821.7z M820,418.4
		c0.3,0,0.6-0.1,0.9-0.3c0.3-0.2,0.5-0.4,0.6-0.7v-1.3h-0.8c-1.2,0-1.9,0.4-1.9,1.2c0,0.3,0.1,0.6,0.3,0.8
		C819.5,418.3,819.7,418.4,820,418.4L820,418.4z M825.1,418.3h3.5v0.9h-4.7v-0.8l3.3-4.6h-3.2v-0.9h4.5v0.8L825.1,418.3z M829.3,416
		c0-0.6,0.1-1.1,0.3-1.7c0.2-0.5,0.5-0.9,0.9-1.1c0.4-0.3,0.9-0.4,1.4-0.4c0.7,0,1.5,0.3,1.9,0.9c0.5,0.7,0.8,1.5,0.7,2.4v0.1
		c0,0.6-0.1,1.1-0.3,1.7c-0.2,0.5-0.5,0.9-0.9,1.1c-0.4,0.3-0.9,0.4-1.4,0.4c-0.7,0-1.5-0.3-1.9-0.9
		C829.6,417.8,829.3,416.9,829.3,416L829.3,416z M830.3,416.1c0,0.6,0.1,1.2,0.5,1.7c0.5,0.7,1.5,0.9,2.2,0.3
		c0.1-0.1,0.2-0.2,0.3-0.3c0.3-0.5,0.5-1.2,0.5-1.8c0-0.6-0.1-1.2-0.5-1.7c-0.3-0.4-0.7-0.7-1.2-0.6c-0.5,0-0.9,0.2-1.2,0.6
		C830.5,414.8,830.3,415.5,830.3,416.1L830.3,416.1z"/>
	<path id="Trazado_102729" class="st2" d="M782.4,450.6h-1v-8.5h1V450.6z M785.1,444.3l0,0.8c0.4-0.6,1.1-0.9,1.8-0.9
		c1.2,0,1.9,0.8,1.9,2.3v4.2h-1v-4.2c0-0.4-0.1-0.7-0.3-1c-0.2-0.2-0.6-0.4-0.9-0.3c-0.3,0-0.6,0.1-0.9,0.3
		c-0.2,0.2-0.4,0.4-0.6,0.7v4.5h-1v-6.3H785.1z M790.1,447.4c0-0.8,0.2-1.7,0.6-2.4c0.4-0.6,1-0.9,1.7-0.9c0.7,0,1.3,0.3,1.7,0.8
		l0-0.7h0.9v6.2c0,0.7-0.2,1.4-0.7,1.9c-0.5,0.5-1.2,0.7-1.8,0.7c-0.4,0-0.9-0.1-1.2-0.3c-0.4-0.2-0.7-0.4-0.9-0.8l0.5-0.6
		c0.4,0.5,1,0.9,1.6,0.9c0.4,0,0.8-0.1,1.1-0.4c0.3-0.3,0.4-0.8,0.4-1.2V450c-0.4,0.5-1,0.8-1.7,0.7c-0.7,0-1.3-0.3-1.7-0.9
		C790.3,449.1,790,448.2,790.1,447.4z M791.1,447.5c0,0.6,0.1,1.2,0.4,1.7c0.3,0.4,0.7,0.6,1.1,0.6c0.6,0,1.2-0.3,1.4-0.9V446
		c-0.3-0.6-0.8-0.9-1.4-0.9c-0.5,0-0.9,0.2-1.2,0.6C791.2,446.2,791.1,446.9,791.1,447.5L791.1,447.5z M799.4,445.2
		c-0.2,0-0.3,0-0.5,0c-0.6-0.1-1.1,0.3-1.3,0.9v4.5h-1v-6.3h1l0,0.7c0.3-0.5,0.8-0.9,1.4-0.8c0.2,0,0.3,0,0.4,0.1L799.4,445.2z
		 M802.8,450.7c-0.7,0-1.4-0.3-2-0.8c-0.5-0.6-0.8-1.4-0.8-2.3v-0.2c0-0.6,0.1-1.2,0.3-1.7c0.2-0.5,0.5-0.9,0.9-1.2
		c0.4-0.3,0.8-0.4,1.3-0.4c0.7,0,1.3,0.3,1.8,0.8c0.5,0.7,0.7,1.5,0.6,2.3v0.4h-4c0,0.6,0.2,1.1,0.5,1.5c0.3,0.4,0.8,0.6,1.2,0.6
		c0.3,0,0.6-0.1,0.9-0.2c0.3-0.2,0.5-0.4,0.6-0.6l0.6,0.5C804.6,450.3,803.7,450.8,802.8,450.7L802.8,450.7z M802.7,445
		c-0.4,0-0.8,0.2-1,0.5c-0.3,0.4-0.5,0.8-0.5,1.3h3v-0.1c0-0.5-0.1-0.9-0.4-1.3C803.4,445.2,803.1,445,802.7,445L802.7,445z
		 M809.7,448.9c0-0.3-0.1-0.5-0.3-0.7c-0.3-0.2-0.7-0.4-1.1-0.4c-0.4-0.1-0.8-0.2-1.2-0.4c-0.3-0.1-0.5-0.3-0.7-0.6
		c-0.1-0.2-0.2-0.5-0.2-0.8c0-0.5,0.2-1,0.6-1.3c0.4-0.4,1-0.6,1.6-0.5c0.6,0,1.2,0.2,1.6,0.6c0.4,0.3,0.6,0.9,0.6,1.4h-1
		c0-0.3-0.1-0.6-0.3-0.8c-0.2-0.2-0.6-0.3-0.9-0.3c-0.3,0-0.6,0.1-0.9,0.3c-0.2,0.2-0.3,0.4-0.3,0.7c0,0.2,0.1,0.5,0.3,0.6
		c0.3,0.2,0.7,0.3,1,0.4c0.4,0.1,0.8,0.2,1.2,0.4c0.3,0.1,0.5,0.3,0.7,0.6c0.2,0.3,0.2,0.6,0.2,0.9c0,0.5-0.2,1-0.6,1.4
		c-0.5,0.4-1.1,0.5-1.6,0.5c-0.4,0-0.9-0.1-1.3-0.3c-0.3-0.2-0.6-0.4-0.9-0.7c-0.2-0.3-0.3-0.7-0.3-1h1c0,0.3,0.2,0.7,0.4,0.9
		c0.3,0.2,0.6,0.3,1,0.3c0.3,0,0.6-0.1,0.9-0.2C809.6,449.4,809.7,449.2,809.7,448.9L809.7,448.9z M811.8,447.4
		c0-0.6,0.1-1.1,0.3-1.7c0.2-0.5,0.5-0.9,0.9-1.1c0.4-0.3,0.9-0.4,1.4-0.4c0.7,0,1.5,0.3,1.9,0.9c0.5,0.7,0.8,1.5,0.7,2.4v0.1
		c0,0.6-0.1,1.1-0.3,1.7c-0.2,0.5-0.5,0.9-0.9,1.1c-0.4,0.3-0.9,0.4-1.4,0.4c-0.7,0-1.5-0.3-1.9-0.9
		C812,449.1,811.7,448.3,811.8,447.4L811.8,447.4z M812.8,447.5c0,0.6,0.1,1.2,0.5,1.7c0.5,0.7,1.5,0.9,2.2,0.3
		c0.1-0.1,0.2-0.2,0.3-0.3c0.3-0.5,0.5-1.2,0.5-1.8c0-0.6-0.1-1.2-0.5-1.7c-0.3-0.4-0.7-0.7-1.2-0.6c-0.5,0-0.9,0.2-1.2,0.6
		C812.9,446.2,812.8,446.8,812.8,447.5L812.8,447.5z M781.5,466.3v-5.5h-0.9V460h0.9v-0.5c0-0.6,0.2-1.2,0.6-1.6
		c0.4-0.4,1-0.6,1.6-0.6c0.5,0,1.1,0.1,1.5,0.4l-0.2,0.9c-0.4-0.2-0.9-0.3-1.3-0.3c-0.3,0-0.7,0.1-0.9,0.3c-0.2,0.3-0.3,0.6-0.3,0.9
		v0.5h1.2v0.8h-1.2v5.5H781.5z M785.7,466.3h-1V460h1V466.3z M788.3,460l0,0.8c0.4-0.6,1.1-0.9,1.8-0.9c1.2,0,1.9,0.8,1.9,2.3v4.2
		h-1v-4.2c0-0.4-0.1-0.7-0.3-1c-0.2-0.2-0.6-0.4-0.9-0.3c-0.3,0-0.6,0.1-0.9,0.3c-0.2,0.2-0.4,0.4-0.6,0.7v4.5h-1V460H788.3z
		 M797.1,466.3c-0.1-0.2-0.1-0.4-0.1-0.7c-0.4,0.5-1,0.8-1.7,0.8c-0.5,0-1-0.2-1.4-0.5c-0.4-0.3-0.6-0.8-0.6-1.3
		c0-0.6,0.2-1.2,0.7-1.5c0.6-0.4,1.3-0.6,2-0.5h1V462c0-0.3-0.1-0.7-0.3-0.9c-0.3-0.2-0.6-0.4-0.9-0.3c-0.3,0-0.6,0.1-0.9,0.3
		c-0.2,0.2-0.4,0.4-0.4,0.7h-1c0-0.3,0.1-0.7,0.3-0.9c0.2-0.3,0.5-0.5,0.9-0.7c0.4-0.2,0.8-0.3,1.2-0.3c0.6,0,1.1,0.2,1.6,0.5
		c0.4,0.4,0.6,0.9,0.6,1.5v2.9c0,0.5,0.1,0.9,0.2,1.4v0.1H797.1z M795.4,465.5c0.3,0,0.6-0.1,0.9-0.3c0.3-0.2,0.5-0.4,0.6-0.7v-1.3
		h-0.8c-1.2,0-1.9,0.4-1.9,1.2c0,0.3,0.1,0.6,0.3,0.8C794.9,465.4,795.1,465.5,795.4,465.5z M800.5,460l0,0.8
		c0.4-0.6,1.1-0.9,1.8-0.9c1.2,0,1.9,0.8,1.9,2.3v4.2h-1v-4.2c0-0.4-0.1-0.7-0.3-1c-0.2-0.2-0.6-0.4-0.9-0.3c-0.3,0-0.6,0.1-0.9,0.3
		c-0.2,0.2-0.4,0.4-0.6,0.7v4.5h-1V460L800.5,460z M808.1,465.5c0.3,0,0.7-0.1,0.9-0.4c0.3-0.2,0.4-0.5,0.4-0.9h1
		c0,0.4-0.1,0.7-0.3,1c-0.2,0.3-0.5,0.6-0.9,0.8c-0.4,0.2-0.7,0.3-1.1,0.3c-0.7,0-1.4-0.3-1.9-0.9c-0.5-0.7-0.8-1.5-0.7-2.4V463
		c0-0.6,0.1-1.1,0.3-1.6c0.2-0.5,0.5-0.8,0.9-1.1c0.4-0.3,0.9-0.4,1.4-0.4c0.6,0,1.2,0.2,1.6,0.6c0.4,0.4,0.7,1,0.7,1.7h-0.9
		c0-0.4-0.2-0.7-0.4-1c-0.3-0.3-0.6-0.4-1-0.4c-0.5,0-0.9,0.2-1.2,0.6c-0.3,0.5-0.5,1.1-0.4,1.7v0.2c0,0.6,0.1,1.2,0.4,1.7
		C807.2,465.3,807.6,465.5,808.1,465.5z M812.7,466.3h-1V460h1V466.3z M811.6,458.3c0-0.2,0-0.3,0.2-0.4c0.1-0.1,0.3-0.2,0.4-0.2
		c0.2,0,0.3,0.1,0.4,0.2c0.1,0.1,0.2,0.3,0.2,0.4c0,0.2-0.1,0.3-0.2,0.4c-0.1,0.1-0.3,0.2-0.4,0.2c-0.2,0-0.3-0.1-0.4-0.2
		C811.6,458.6,811.6,458.4,811.6,458.3z M816.7,466.4c-0.7,0-1.4-0.3-2-0.8c-0.5-0.6-0.8-1.4-0.8-2.3v-0.2c0-0.6,0.1-1.2,0.3-1.7
		c0.2-0.5,0.5-0.9,0.9-1.2c0.4-0.3,0.8-0.4,1.3-0.4c0.7,0,1.3,0.3,1.8,0.8c0.5,0.7,0.7,1.5,0.6,2.3v0.4h-4c0,0.6,0.2,1.1,0.5,1.5
		c0.3,0.4,0.8,0.6,1.2,0.6c0.3,0,0.6-0.1,0.9-0.2c0.3-0.2,0.5-0.4,0.6-0.6l0.6,0.5C818.5,466,817.6,466.4,816.7,466.4L816.7,466.4z
		 M816.6,460.7c-0.4,0-0.8,0.2-1,0.5c-0.3,0.4-0.5,0.8-0.5,1.3h3v-0.1c0-0.5-0.1-0.9-0.4-1.3C817.3,460.9,817,460.7,816.6,460.7
		L816.6,460.7z M823,460.9c-0.2,0-0.3,0-0.5,0c-0.6-0.1-1.1,0.3-1.4,0.9v4.5h-1V460h1l0,0.7c0.3-0.5,0.8-0.9,1.4-0.8
		c0.2,0,0.3,0,0.4,0.1L823,460.9z M823.6,463.1c0-0.6,0.1-1.1,0.3-1.7c0.2-0.5,0.5-0.9,0.9-1.1c0.4-0.3,0.9-0.4,1.4-0.4
		c0.7,0,1.5,0.3,1.9,0.9c0.5,0.7,0.8,1.5,0.7,2.4v0.1c0,0.6-0.1,1.1-0.3,1.7c-0.2,0.5-0.5,0.9-0.9,1.1c-0.4,0.3-0.9,0.4-1.4,0.4
		c-0.7,0-1.5-0.3-1.9-0.9C823.8,464.8,823.5,464,823.6,463.1L823.6,463.1z M824.6,463.2c0,0.6,0.1,1.2,0.5,1.7
		c0.5,0.7,1.5,0.9,2.2,0.3c0.1-0.1,0.2-0.2,0.3-0.3c0.3-0.5,0.5-1.2,0.5-1.8c0-0.6-0.1-1.2-0.5-1.7c-0.3-0.4-0.7-0.7-1.2-0.6
		c-0.5,0-0.9,0.2-1.2,0.6C824.7,461.9,824.6,462.5,824.6,463.2L824.6,463.2z"/>
	<path id="Trazado_102727" class="st2" d="M865.1,408.7h-5.2v-0.8l2.7-3.3c0.3-0.4,0.6-0.8,0.8-1.2c0.2-0.3,0.2-0.6,0.2-1
		c0-0.4-0.1-0.8-0.4-1.1c-0.3-0.3-0.6-0.4-1-0.4c-0.4,0-0.9,0.1-1.2,0.5c-0.3,0.3-0.4,0.8-0.4,1.3h-1c0-0.7,0.2-1.4,0.7-1.9
		c0.5-0.5,1.2-0.8,1.9-0.7c0.6,0,1.3,0.2,1.8,0.6c0.4,0.4,0.7,1,0.6,1.7c0,0.8-0.5,1.8-1.5,3l-2.1,2.5h4V408.7z M871.4,408.7h-5.2
		v-0.8l2.7-3.3c0.3-0.4,0.6-0.8,0.8-1.2c0.2-0.3,0.2-0.6,0.2-1c0-0.4-0.1-0.8-0.4-1.1c-0.3-0.3-0.6-0.4-1-0.4
		c-0.4,0-0.9,0.1-1.2,0.5c-0.3,0.3-0.4,0.8-0.4,1.3h-1c0-0.7,0.2-1.4,0.7-1.9c0.5-0.5,1.2-0.8,1.9-0.7c0.6,0,1.3,0.2,1.8,0.6
		c0.4,0.4,0.7,1,0.6,1.7c0,0.8-0.5,1.8-1.5,3l-2.1,2.5h4L871.4,408.7z M872.6,408.2c0-0.2,0.1-0.3,0.2-0.5c0.1-0.1,0.3-0.2,0.5-0.2
		c0.2,0,0.3,0.1,0.5,0.2c0.1,0.1,0.2,0.3,0.2,0.5c0,0.2-0.1,0.3-0.2,0.4c-0.1,0.1-0.3,0.2-0.5,0.2c-0.3,0-0.6-0.2-0.6-0.5
		C872.6,408.2,872.6,408.2,872.6,408.2L872.6,408.2z M880.6,408.7h-5.2v-0.8l2.7-3.3c0.3-0.4,0.6-0.8,0.8-1.2c0.2-0.3,0.2-0.6,0.2-1
		c0-0.4-0.1-0.8-0.4-1.1c-0.3-0.3-0.6-0.4-1-0.4c-0.4,0-0.9,0.1-1.2,0.5c-0.3,0.3-0.4,0.8-0.4,1.3h-1c0-0.7,0.2-1.4,0.7-1.9
		c0.5-0.5,1.2-0.8,1.9-0.7c0.6,0,1.3,0.2,1.8,0.6c0.4,0.4,0.7,1,0.6,1.7c0,0.8-0.5,1.8-1.5,3l-2.1,2.5h4V408.7z M886.8,400.8
		l-3.3,7.9h-1.1l3.3-7.6h-4.3v-0.9h5.4L886.8,400.8z M893.1,408.7h-5.2v-0.8l2.7-3.3c0.3-0.4,0.6-0.8,0.8-1.2c0.2-0.3,0.2-0.6,0.2-1
		c0-0.4-0.1-0.8-0.4-1.1c-0.3-0.3-0.6-0.4-1-0.4c-0.4,0-0.9,0.1-1.2,0.5c-0.3,0.3-0.4,0.8-0.4,1.3h-1c0-0.7,0.2-1.4,0.7-1.9
		c0.5-0.5,1.2-0.8,1.9-0.7c0.6,0,1.3,0.2,1.7,0.6c0.4,0.4,0.7,1,0.6,1.7c0,0.8-0.5,1.8-1.5,3l-2.1,2.5h4L893.1,408.7z M894.3,410.4
		l-0.6-0.4c0.3-0.5,0.5-1,0.5-1.6v-1h1v0.8c0,0.4-0.1,0.8-0.3,1.2C894.8,409.8,894.6,410.2,894.3,410.4z M899.7,408.7h-1v-7.2
		l-2,0.8v-1l2.9-1.2h0.2V408.7z M906,408.7h-1v-7.2l-2,0.8v-1l2.9-1.2h0.2L906,408.7z"/>
	<path id="Trazado_102730" class="st2" d="M948.9,461h-5.2v-0.8l2.7-3.3c0.3-0.4,0.6-0.8,0.8-1.2c0.2-0.3,0.2-0.6,0.2-1
		c0-0.4-0.1-0.8-0.4-1.1c-0.3-0.3-0.6-0.4-1-0.4c-0.4,0-0.9,0.1-1.2,0.5c-0.3,0.3-0.4,0.8-0.4,1.3h-1c0-0.7,0.2-1.4,0.7-1.9
		c0.5-0.5,1.2-0.8,1.9-0.7c0.6,0,1.3,0.2,1.8,0.6c0.4,0.4,0.7,1,0.6,1.7c0,0.8-0.5,1.8-1.5,3l-2.1,2.5h4V461z M955.1,461h-5.2v-0.8
		l2.7-3.3c0.3-0.4,0.6-0.8,0.8-1.2c0.2-0.3,0.2-0.6,0.2-1c0-0.4-0.1-0.8-0.4-1.1c-0.3-0.3-0.6-0.4-1-0.4c-0.4,0-0.9,0.1-1.2,0.5
		c-0.3,0.3-0.4,0.8-0.4,1.3h-1c0-0.7,0.2-1.4,0.7-1.9c0.5-0.5,1.2-0.8,1.9-0.7c0.6,0,1.3,0.2,1.8,0.6c0.4,0.4,0.7,1,0.6,1.7
		c0,0.8-0.5,1.8-1.5,3l-2.1,2.5h4L955.1,461z M956.3,460.5c0-0.2,0.1-0.3,0.2-0.5c0.1-0.1,0.3-0.2,0.5-0.2c0.2,0,0.3,0.1,0.5,0.2
		c0.1,0.1,0.2,0.3,0.2,0.5c0,0.2-0.1,0.3-0.2,0.4c-0.1,0.1-0.3,0.2-0.5,0.2c-0.3,0-0.6-0.2-0.6-0.5
		C956.3,460.6,956.3,460.5,956.3,460.5L956.3,460.5z M964.4,461h-5.2v-0.8l2.7-3.3c0.3-0.4,0.6-0.8,0.8-1.2c0.2-0.3,0.2-0.6,0.2-1
		c0-0.4-0.1-0.8-0.4-1.1c-0.3-0.3-0.6-0.4-1-0.4c-0.4,0-0.9,0.1-1.2,0.5c-0.3,0.3-0.4,0.8-0.4,1.3h-1c0-0.7,0.2-1.4,0.7-1.9
		c0.5-0.5,1.2-0.8,1.9-0.7c0.6,0,1.3,0.2,1.8,0.6c0.4,0.4,0.7,1,0.6,1.7c0,0.8-0.5,1.8-1.5,3l-2.1,2.5h4V461z M970.6,453.2l-3.3,7.9
		h-1.1l3.3-7.6h-4.3v-0.9h5.4L970.6,453.2z M976.9,461h-5.2v-0.8l2.7-3.3c0.3-0.4,0.6-0.8,0.8-1.2c0.2-0.3,0.2-0.6,0.2-1
		c0-0.4-0.1-0.8-0.4-1.1c-0.3-0.3-0.6-0.4-1-0.4c-0.4,0-0.9,0.1-1.2,0.5c-0.3,0.3-0.4,0.8-0.4,1.3h-1c0-0.7,0.2-1.4,0.7-1.9
		c0.5-0.5,1.2-0.8,1.9-0.7c0.6,0,1.3,0.2,1.7,0.6c0.4,0.4,0.7,1,0.6,1.7c0,0.8-0.5,1.8-1.5,3l-2.1,2.5h4L976.9,461z M978,462.7
		l-0.6-0.4c0.3-0.5,0.5-1,0.5-1.6v-1h1v0.8c0,0.4-0.1,0.8-0.3,1.2C978.6,462.2,978.3,462.5,978,462.7z M983.5,461h-1v-7.2l-2,0.8v-1
		l2.9-1.2h0.2V461z M989.8,461h-1v-7.2l-2,0.8v-1l2.9-1.2h0.2L989.8,461z"/>
	<line id="Línea_270" class="st3" x1="758" y1="378.1" x2="758" y2="482.7"/>
	<line id="Línea_271" class="st3" x1="845.3" y1="378.1" x2="845.3" y2="482.7"/>
	<line id="Línea_272" class="st3" x1="931.1" y1="378.1" x2="931.1" y2="482.7"/>
	<path id="Trazado_102708" class="st4" d="M620.5,332.7h400v45.4h-400V332.7z"/>
	<path id="Trazado_102721" class="st1" d="M649,355.8c0,0.8-0.3,1.6-0.7,2.4c-0.4,0.7-1,1.2-1.7,1.6c-0.8,0.4-1.7,0.6-2.5,0.6
		c-1.4,0.1-2.8-0.5-3.7-1.6c-1-1.3-1.4-3-1.4-4.6v-0.6c0-1.1,0.2-2.2,0.6-3.3c0.4-0.9,1-1.6,1.8-2.2c0.8-0.5,1.7-0.8,2.7-0.8
		c1.3-0.1,2.5,0.4,3.5,1.2c0.9,0.9,1.4,2.1,1.5,3.4h-2.9c0-0.6-0.2-1.2-0.5-1.7c-0.4-0.4-1-0.6-1.6-0.5c-0.6,0-1.2,0.3-1.6,0.9
		c-0.4,0.9-0.6,1.8-0.5,2.7v0.9c-0.1,1,0.1,2,0.5,2.9c0.4,0.6,1,0.9,1.6,0.9c0.5,0,1.1-0.1,1.5-0.5c0.4-0.4,0.6-1,0.6-1.6L649,355.8
		z M653.1,360.1h-2.8v-13.5h2.8L653.1,360.1z M659.8,360.1c-0.1-0.3-0.2-0.6-0.3-0.8c-0.5,0.7-1.3,1.1-2.1,1c-0.8,0-1.5-0.3-2.1-0.8
		c-0.6-0.5-0.9-1.3-0.9-2c0-0.9,0.4-1.8,1.1-2.3c0.9-0.6,2-0.9,3.1-0.8h0.9v-0.5c0-0.9-0.4-1.3-1.1-1.3c-0.5-0.1-0.9,0.3-1,0.8
		c0,0.1,0,0.2,0,0.3h-2.8c0-0.9,0.4-1.7,1.1-2.2c0.8-0.6,1.8-0.9,2.8-0.9c1-0.1,1.9,0.3,2.7,0.9c0.7,0.6,1,1.5,1,2.4v4.2
		c0,0.7,0.1,1.4,0.4,2v0.1H659.8z M658.1,358.2c0.3,0,0.6-0.1,0.9-0.2c0.2-0.1,0.4-0.3,0.5-0.5v-1.5h-0.8c-1,0-1.4,0.5-1.4,1.4
		c0,0.2,0.1,0.5,0.3,0.7C657.6,358.1,657.9,358.2,658.1,358.2z M668.4,357.5c0-0.3-0.1-0.5-0.4-0.6c-0.4-0.2-0.9-0.4-1.4-0.5
		c-0.6-0.1-1.2-0.3-1.7-0.6c-0.4-0.2-0.8-0.6-1-1c-0.2-0.4-0.4-0.8-0.3-1.3c0-0.8,0.4-1.7,1-2.2c0.8-0.6,1.7-0.9,2.6-0.8
		c1-0.1,2,0.2,2.8,0.8c0.7,0.5,1.1,1.3,1.1,2.2h-2.8c0-0.8-0.4-1.1-1.1-1.1c-0.3,0-0.5,0.1-0.7,0.3c-0.2,0.2-0.3,0.4-0.3,0.6
		c0,0.3,0.1,0.5,0.4,0.6c0.4,0.2,0.7,0.3,1.1,0.4c0.5,0.1,0.9,0.2,1.4,0.4c1.3,0.5,2,1.4,2,2.6c0,0.9-0.4,1.7-1.1,2.1
		c-0.8,0.6-1.8,0.9-2.8,0.8c-0.7,0-1.4-0.1-2-0.4c-0.6-0.3-1-0.7-1.4-1.2c-0.3-0.5-0.5-1-0.5-1.6h2.6c0,0.4,0.1,0.7,0.4,1
		c0.3,0.2,0.6,0.3,1,0.3c0.3,0,0.6-0.1,0.8-0.2C668.3,358,668.4,357.7,668.4,357.5z M675.2,360.1h-2.8v-9.5h2.8V360.1z M672.3,348.2
		c0-0.4,0.1-0.8,0.4-1c0.3-0.3,0.7-0.4,1.1-0.4c0.4,0,0.8,0.1,1.1,0.4c0.3,0.3,0.4,0.6,0.4,1c0,0.4-0.1,0.8-0.4,1
		c-0.3,0.3-0.7,0.4-1.1,0.4c-0.4,0-0.8-0.1-1.1-0.4C672.4,349,672.3,348.6,672.3,348.2L672.3,348.2z M677.6,360.1v-7.4h-1.3v-2.1
		h1.3v-0.3c0-1.1,0.4-2.2,1.2-2.9c0.9-0.7,1.9-1,3-0.9c1,0,1.9,0.2,2.9,0.5l-0.4,2.3l-0.5-0.1c-0.6-0.2-1.2-0.3-1.9-0.3
		c-1.1,0-1.6,0.5-1.6,1.5v0.2h1.7v2h-1.7v7.4H677.6z M685.9,360.1h-2.8v-9.5h2.8L685.9,360.1z M691.3,358c0.3,0,0.7-0.1,0.9-0.3
		c0.2-0.3,0.3-0.6,0.3-0.9h2.6c0,1-0.4,1.9-1,2.6c-0.7,0.7-1.7,1-2.7,1c-1.1,0.1-2.3-0.4-3-1.3c-0.8-1-1.2-2.3-1.1-3.6v-0.1
		c0-0.9,0.2-1.7,0.5-2.5c0.3-0.7,0.8-1.3,1.4-1.7c0.7-0.4,1.4-0.6,2.2-0.6c1-0.1,2,0.3,2.7,1c0.7,0.7,1.1,1.7,1,2.8h-2.6
		c0-0.4-0.1-0.8-0.3-1.1c-0.2-0.3-0.6-0.4-0.9-0.4c-0.7,0-1.1,0.5-1.3,1.5c0,0.4-0.1,0.9-0.1,1.3c-0.1,0.7,0.1,1.4,0.3,2
		C690.5,357.9,690.9,358.1,691.3,358L691.3,358z M701.3,360.1c-0.1-0.3-0.2-0.6-0.3-0.8c-0.5,0.7-1.3,1.1-2.1,1
		c-0.8,0-1.5-0.3-2.1-0.8c-0.6-0.5-0.9-1.3-0.9-2c0-0.9,0.4-1.8,1.1-2.3c0.9-0.6,2-0.9,3.1-0.8h0.9v-0.5c0-0.9-0.4-1.3-1.1-1.3
		c-0.5-0.1-0.9,0.3-1,0.8c0,0.1,0,0.2,0,0.3h-2.8c0-0.9,0.4-1.7,1.1-2.2c0.8-0.6,1.8-0.9,2.8-0.9c1-0.1,1.9,0.3,2.7,0.9
		c0.7,0.6,1,1.5,1,2.4v4.2c0,0.7,0.1,1.4,0.4,2v0.1H701.3z M699.5,358.2c0.3,0,0.6-0.1,0.9-0.2c0.2-0.1,0.4-0.3,0.5-0.5v-1.5h-0.8
		c-1,0-1.4,0.5-1.4,1.4c0,0.2,0.1,0.5,0.3,0.7C699.1,358.1,699.3,358.2,699.5,358.2z M708.9,358c0.3,0,0.7-0.1,0.9-0.3
		c0.2-0.3,0.3-0.6,0.3-0.9h2.6c0,1-0.4,1.9-1,2.6c-0.7,0.7-1.7,1-2.7,1c-1.1,0.1-2.3-0.4-3-1.3c-0.8-1-1.2-2.3-1.1-3.6v-0.1
		c0-0.9,0.2-1.7,0.5-2.5c0.3-0.7,0.8-1.3,1.4-1.7c0.7-0.4,1.4-0.6,2.2-0.6c1-0.1,2,0.3,2.7,1c0.7,0.7,1.1,1.7,1,2.8h-2.6
		c0-0.4-0.1-0.8-0.3-1.1c-0.2-0.3-0.6-0.4-0.9-0.4c-0.7,0-1.1,0.5-1.3,1.5c0,0.4-0.1,0.9-0.1,1.3c0,0.7,0.1,1.4,0.3,2
		C708.1,357.9,708.5,358.1,708.9,358L708.9,358z M716.8,360.1H714v-9.5h2.8V360.1z M713.9,348.2c0-0.4,0.1-0.8,0.4-1
		c0.3-0.3,0.7-0.4,1.1-0.4c0.4,0,0.8,0.1,1.1,0.4c0.3,0.3,0.4,0.6,0.4,1c0,0.4-0.1,0.8-0.4,1c-0.3,0.3-0.7,0.4-1.1,0.4
		c-0.4,0-0.8-0.1-1.1-0.4C714,349,713.8,348.6,713.9,348.2L713.9,348.2z M718.1,355.3c0-0.9,0.2-1.7,0.5-2.5
		c0.3-0.7,0.8-1.3,1.5-1.7c0.7-0.4,1.5-0.6,2.3-0.6c1.2-0.1,2.3,0.4,3.1,1.3c0.8,1,1.2,2.3,1.1,3.6v0.1c0.1,1.3-0.3,2.6-1.1,3.5
		c-0.8,0.9-2,1.4-3.1,1.3c-1.1,0.1-2.2-0.4-3-1.2c-0.8-0.9-1.2-2.1-1.2-3.3L718.1,355.3z M720.9,355.5c0,0.7,0.1,1.3,0.4,1.9
		c0.3,0.4,0.7,0.6,1.1,0.6c1,0,1.5-0.8,1.5-2.4v-0.3c0-1.7-0.5-2.5-1.5-2.5c-0.9,0-1.4,0.7-1.5,2.2L720.9,355.5z M722.8,346.7h2.9
		l-2.3,2.8l-2.2,0L722.8,346.7z M730.4,350.7l0.1,1.1c0.6-0.8,1.5-1.3,2.5-1.3c0.8-0.1,1.5,0.3,2.1,0.9c0.5,0.8,0.8,1.7,0.7,2.7v6.1
		H733v-6c0-0.4-0.1-0.7-0.3-1.1c-0.3-0.3-0.6-0.4-1-0.3c-0.5,0-1,0.2-1.2,0.7v6.7h-2.8v-9.5H730.4z"/>
	<path id="Trazado_102722" class="st1" d="M777.2,357.3c0,0.8-0.3,1.6-0.7,2.4c-0.4,0.7-1,1.2-1.7,1.6c-0.8,0.4-1.7,0.6-2.5,0.6
		c-1.4,0.1-2.8-0.5-3.7-1.6c-1-1.3-1.4-3-1.3-4.6v-0.6c0-1.1,0.2-2.2,0.6-3.3c0.4-0.9,1-1.6,1.8-2.2c0.8-0.5,1.7-0.8,2.7-0.8
		c1.3-0.1,2.5,0.4,3.5,1.2c0.9,0.9,1.4,2.1,1.5,3.4h-2.9c0-0.6-0.2-1.2-0.5-1.7c-0.4-0.4-1-0.6-1.6-0.5c-0.6,0-1.2,0.3-1.6,0.9
		c-0.4,0.9-0.6,1.8-0.5,2.7v0.9c-0.1,1,0.1,2,0.5,2.9c0.4,0.6,1,0.9,1.6,0.9c0.5,0,1.1-0.1,1.5-0.5c0.4-0.4,0.6-1,0.6-1.6
		L777.2,357.3z M783.7,360.6c-0.6,0.8-1.4,1.2-2.4,1.2c-0.8,0.1-1.6-0.3-2.2-0.9c-0.5-0.7-0.8-1.7-0.7-2.6v-6.1h2.8v6.2
		c-0.1,0.6,0.3,1.1,0.8,1.2c0.1,0,0.2,0,0.3,0c0.5,0.1,1.1-0.2,1.4-0.7v-6.6h2.8v9.5h-2.6L783.7,360.6z M792.2,361.8
		c-1.2,0.1-2.4-0.4-3.3-1.3c-0.8-0.9-1.3-2.1-1.3-3.4v-0.2c0-0.9,0.2-1.8,0.5-2.6c0.3-0.7,0.8-1.3,1.5-1.7c0.7-0.4,1.5-0.6,2.3-0.6
		c1.1-0.1,2.2,0.4,2.9,1.2c0.8,1,1.2,2.2,1.1,3.5v1.1h-5.5c0.1,0.5,0.3,0.9,0.6,1.3c0.4,0.3,0.8,0.5,1.3,0.5c0.8,0,1.5-0.3,2-1
		l1.3,1.6c-0.4,0.5-0.9,1-1.5,1.2C793.6,361.7,792.9,361.8,792.2,361.8z M791.9,354.3c-0.8,0-1.3,0.6-1.4,1.7h2.8v-0.2
		c0-0.4-0.1-0.8-0.3-1.1C792.6,354.4,792.3,354.2,791.9,354.3z M799.6,352.2l0.1,1.1c0.6-0.8,1.5-1.3,2.5-1.3
		c0.8-0.1,1.5,0.3,2.1,0.9c0.5,0.8,0.8,1.7,0.7,2.7v6.1h-2.8v-6c0-0.4-0.1-0.7-0.3-1.1c-0.3-0.3-0.6-0.4-1-0.3c-0.5,0-1,0.2-1.2,0.7
		v6.7H797v-9.5L799.6,352.2z M809.7,349.8v2.4h1.5v2h-1.5v4.3c0,0.3,0,0.5,0.2,0.7c0.2,0.2,0.5,0.2,0.7,0.2c0.2,0,0.5,0,0.7-0.1v2.1
		c-0.5,0.2-1,0.3-1.6,0.3c-0.8,0.1-1.5-0.2-2.1-0.7c-0.5-0.6-0.7-1.4-0.7-2.2v-4.7h-1.1v-2.1h1.1v-2.4L809.7,349.8z M817.2,361.6
		c-0.1-0.3-0.2-0.6-0.3-0.8c-0.5,0.7-1.3,1.1-2.1,1c-0.8,0-1.5-0.3-2.1-0.8c-0.6-0.5-0.9-1.3-0.9-2c0-0.9,0.4-1.8,1.1-2.3
		c0.9-0.6,2-0.9,3.1-0.8h0.9v-0.5c0-0.9-0.4-1.3-1.1-1.3c-0.5-0.1-0.9,0.3-1,0.8c0,0.1,0,0.2,0,0.3H812c0-0.9,0.4-1.7,1.1-2.2
		c0.8-0.6,1.8-0.9,2.8-0.9c1-0.1,1.9,0.3,2.7,0.9c0.7,0.6,1,1.5,1,2.4v4.2c0,0.7,0.1,1.4,0.4,2v0.1H817.2z M815.5,359.7
		c0.3,0,0.6-0.1,0.9-0.2c0.2-0.1,0.4-0.3,0.5-0.5v-1.5H816c-1,0-1.4,0.5-1.4,1.4c0,0.2,0.1,0.5,0.3,0.7
		C815,359.6,815.3,359.7,815.5,359.7z M825.8,359c0-0.3-0.1-0.5-0.4-0.6c-0.4-0.2-0.9-0.4-1.4-0.5c-0.6-0.1-1.2-0.3-1.7-0.6
		c-0.4-0.2-0.8-0.6-1-1c-0.2-0.4-0.4-0.8-0.3-1.3c0-0.8,0.4-1.7,1-2.2c0.8-0.6,1.7-0.9,2.6-0.8c1-0.1,2,0.2,2.8,0.8
		c0.7,0.5,1.1,1.3,1.1,2.2h-2.8c0-0.8-0.4-1.1-1.1-1.1c-0.3,0-0.5,0.1-0.7,0.3c-0.2,0.2-0.3,0.4-0.3,0.6c0,0.3,0.1,0.5,0.4,0.6
		c0.4,0.2,0.7,0.3,1.1,0.4c0.5,0.1,0.9,0.2,1.4,0.4c1.3,0.5,2,1.4,2,2.6c0,0.9-0.4,1.7-1.1,2.1c-0.8,0.6-1.8,0.9-2.8,0.8
		c-0.7,0-1.4-0.1-2-0.4c-0.6-0.3-1-0.7-1.4-1.2c-0.3-0.5-0.5-1-0.5-1.6h2.6c0,0.4,0.1,0.7,0.4,1c0.3,0.2,0.6,0.3,1,0.3
		c0.3,0,0.6-0.1,0.8-0.2C825.7,359.5,825.8,359.2,825.8,359z"/>
	<path id="Trazado_102723" class="st1" d="M868.1,361.6v-12.8h3.8c1,0,2,0.2,2.8,0.8c0.8,0.5,1.5,1.3,2,2.2c0.5,1,0.7,2,0.7,3.1v0.6
		c0,1.1-0.2,2.2-0.7,3.1c-0.4,0.9-1.1,1.7-1.9,2.2c-0.9,0.5-1.8,0.8-2.8,0.8H868.1z M871,351.3v8h1c0.7,0,1.5-0.3,1.9-0.9
		c0.5-0.8,0.7-1.8,0.7-2.8V355c0.1-1-0.2-2-0.7-2.8c-0.5-0.6-1.2-1-1.9-0.9H871z M883.1,361.8c-1.2,0.1-2.4-0.4-3.3-1.3
		c-0.8-0.9-1.3-2.1-1.3-3.4v-0.2c0-0.9,0.2-1.8,0.5-2.6c0.3-0.7,0.8-1.3,1.5-1.7c0.7-0.4,1.5-0.6,2.3-0.6c1.1-0.1,2.2,0.4,2.9,1.2
		c0.8,1,1.2,2.2,1.1,3.5v1.1h-5.5c0.1,0.5,0.3,0.9,0.6,1.3c0.4,0.3,0.8,0.5,1.3,0.5c0.8,0,1.5-0.3,2-1l1.3,1.6
		c-0.4,0.5-0.9,1-1.5,1.2C884.5,361.7,883.8,361.8,883.1,361.8z M882.8,354.3c-0.8,0-1.3,0.6-1.4,1.7h2.8v-0.2
		c0-0.4-0.1-0.8-0.3-1.1C883.5,354.4,883.2,354.2,882.8,354.3L882.8,354.3z M896.2,357c0.1,1.3-0.2,2.5-0.9,3.6
		c-0.6,0.8-1.6,1.3-2.5,1.3c-0.9,0-1.7-0.4-2.2-1.1l-0.1,1H888v-13.5h2.8v4.7c0.5-0.6,1.2-1,2-0.9c1-0.1,1.9,0.4,2.6,1.3
		c0.7,1.1,1,2.3,0.9,3.6V357z M893.4,356.8c0-0.7-0.1-1.3-0.3-1.9c-0.2-0.4-0.6-0.6-1-0.6c-0.5-0.1-1,0.2-1.3,0.8v3.8
		c0.3,0.5,0.8,0.8,1.3,0.8c0.6,0,1.1-0.4,1.2-1C893.4,357.9,893.4,357.4,893.4,356.8z M901.7,361.8c-1.2,0.1-2.4-0.4-3.3-1.3
		c-0.8-0.9-1.3-2.1-1.3-3.4v-0.2c0-0.9,0.2-1.8,0.5-2.6c0.3-0.7,0.8-1.3,1.5-1.7c0.7-0.4,1.5-0.6,2.3-0.6c1.1-0.1,2.2,0.4,2.9,1.2
		c0.8,1,1.2,2.2,1.1,3.5v1.1h-5.5c0.1,0.5,0.3,0.9,0.6,1.3c0.4,0.3,0.8,0.5,1.3,0.5c0.8,0,1.5-0.3,2-1l1.3,1.6
		c-0.4,0.5-0.9,1-1.5,1.2C903,361.7,902.4,361.8,901.7,361.8z M901.3,354.3c-0.8,0-1.3,0.6-1.4,1.7h2.8v-0.2c0-0.4-0.1-0.8-0.3-1.1
		C902.1,354.4,901.7,354.2,901.3,354.3L901.3,354.3z"/>
	<path id="Trazado_102724" class="st1" d="M958.3,361.6h-2.9v-5.3h-4.2v5.3h-2.9v-12.8h2.9v5.1h4.2v-5.1h2.9V361.6z M965,361.6
		c-0.1-0.3-0.2-0.6-0.3-0.8c-0.5,0.7-1.3,1.1-2.1,1c-0.8,0-1.5-0.3-2.1-0.8c-0.6-0.5-0.9-1.3-0.9-2c0-0.9,0.4-1.8,1.1-2.3
		c0.9-0.6,2-0.9,3.1-0.8h0.9v-0.5c0-0.9-0.4-1.3-1.1-1.3c-0.5-0.1-0.9,0.3-1,0.8c0,0.1,0,0.2,0,0.3h-2.8c0-0.9,0.4-1.7,1.1-2.2
		c0.8-0.6,1.8-0.9,2.8-0.9c1-0.1,1.9,0.3,2.7,0.9c0.7,0.6,1,1.5,1,2.4v4.2c0,0.7,0.1,1.4,0.4,2v0.1H965z M963.3,359.7
		c0.3,0,0.6-0.1,0.9-0.2c0.2-0.1,0.4-0.3,0.5-0.5v-1.5h-0.8c-1,0-1.4,0.5-1.4,1.4c0,0.2,0.1,0.5,0.3,0.7
		C962.8,359.6,963,359.7,963.3,359.7z M977.1,357c0.1,1.3-0.2,2.5-0.9,3.6c-0.6,0.8-1.6,1.3-2.5,1.3c-0.9,0-1.7-0.4-2.2-1.1l-0.1,1
		h-2.5v-13.5h2.8v4.7c0.5-0.6,1.2-1,2-0.9c1-0.1,1.9,0.4,2.6,1.3c0.7,1.1,1,2.3,0.9,3.6V357z M974.3,356.8c0-0.7-0.1-1.3-0.3-1.9
		c-0.2-0.4-0.6-0.6-1-0.6c-0.5-0.1-1,0.2-1.3,0.8v3.8c0.3,0.5,0.8,0.8,1.3,0.8c0.6,0,1.1-0.4,1.2-1
		C974.3,357.9,974.4,357.4,974.3,356.8z M982.6,361.8c-1.2,0.1-2.4-0.4-3.3-1.3c-0.8-0.9-1.3-2.1-1.3-3.4v-0.2
		c0-0.9,0.2-1.8,0.5-2.6c0.3-0.7,0.8-1.3,1.5-1.7c0.7-0.4,1.5-0.6,2.3-0.6c1.1-0.1,2.2,0.4,2.9,1.2c0.8,1,1.2,2.2,1.1,3.5v1.1h-5.5
		c0.1,0.5,0.3,0.9,0.6,1.3c0.4,0.3,0.8,0.5,1.3,0.5c0.8,0,1.5-0.3,2-1l1.3,1.6c-0.4,0.5-0.9,1-1.5,1.2
		C984,361.7,983.3,361.8,982.6,361.8z M982.3,354.3c-0.8,0-1.3,0.6-1.4,1.7h2.8v-0.2c0-0.4-0.1-0.8-0.3-1.1
		C983,354.4,982.7,354.2,982.3,354.3L982.3,354.3z M992.8,354.8l-0.9-0.1c-0.7-0.1-1.3,0.2-1.7,0.9v6h-2.8v-9.5h2.6l0.1,1.2
		c0.3-0.8,1.1-1.4,1.9-1.4c0.3,0,0.5,0,0.8,0.1L992.8,354.8z"/>
</g>
</svg>
