<?xml version="1.0" encoding="utf-8"?>
<!-- Generator: Adobe Illustrator 25.2.3, SVG Export Plug-In . SVG Version: 6.00 Build 0)  -->
<svg version="1.1" id="Capa_1" xmlns="http://www.w3.org/2000/svg" xmlns:xlink="http://www.w3.org/1999/xlink" x="0px" y="0px"
	 viewBox="0 0 573 201.2" style="enable-background:new 0 0 573 201.2;" xml:space="preserve">
<style type="text/css">
	.st0{fill:#F6F6F6;}
	.st1{fill:#FFFFFF;}
	.st2{fill:#12263F;}
	.st3{fill:none;stroke:#AFAFAF;stroke-linecap:round;}
	.st4{fill:#D9A171;}
</style>
<g id="Grupo_54939" transform="translate(9165 7718.676)">
	<rect id="Rectángulo_5401" x="-9078.5" y="-7653.9" class="st0" width="400" height="62.8"/>
	<rect id="Rectángulo_5402" x="-9078.5" y="-7591.1" class="st1" width="400" height="62.8"/>
	<path id="Trazado_102735" class="st2" d="M-9057.4-7619.3h-3l-0.5,2.1h-2.3l3.3-11.5h2l3.3,11.5h-2.3L-9057.4-7619.3z
		 M-9059.8-7621.4h1.9l-1-4L-9059.8-7621.4z M-9051.2-7619c0.2,0,0.5-0.1,0.7-0.3c0.2-0.2,0.3-0.5,0.2-0.8h1.9
		c0,0.9-0.3,1.7-0.8,2.3c-0.6,0.6-1.3,0.9-2,0.9c-0.9,0.1-1.7-0.4-2.3-1.2c-0.6-0.9-0.9-2.1-0.8-3.2v-0.1c0-0.8,0.1-1.6,0.4-2.3
		c0.2-0.6,0.6-1.2,1.1-1.5c0.5-0.4,1.1-0.6,1.7-0.5c0.8,0,1.5,0.3,2.1,0.9c0.5,0.7,0.8,1.6,0.8,2.5h-1.9c0-0.4-0.1-0.7-0.3-1
		c-0.2-0.2-0.4-0.4-0.7-0.4c-0.5,0-0.8,0.4-0.9,1.3c0,0.4,0,0.8,0,1.2c0,0.6,0,1.2,0.2,1.8C-9051.8-7619.2-9051.5-7619-9051.2-7619z
		 M-9045.1-7627.8v2.1h1.1v1.8h-1.1v3.9c0,0.2,0,0.5,0.1,0.7c0.2,0.2,0.3,0.2,0.5,0.2c0.2,0,0.3,0,0.5,0v1.9
		c-0.4,0.2-0.8,0.2-1.2,0.2c-0.6,0.1-1.1-0.2-1.6-0.6c-0.4-0.5-0.6-1.2-0.5-2v-4.2h-0.8v-1.8h0.8v-2.1H-9045.1z M-9041-7617.1h-2.1
		v-8.5h2.1V-7617.1z M-9043.2-7627.9c0-0.4,0.1-0.7,0.3-0.9c0.5-0.5,1.2-0.5,1.7,0c0.2,0.2,0.3,0.6,0.3,0.9c0,0.4-0.1,0.7-0.3,0.9
		c-0.5,0.5-1.2,0.5-1.7,0C-9043.1-7627.2-9043.2-7627.5-9043.2-7627.9z M-9037.1-7620.3l1-5.4h2.2l-2.2,8.5h-2.1l-2.2-8.5h2.2
		L-9037.1-7620.3z M-9033.6-7621.5c0-0.8,0.1-1.6,0.4-2.3c0.2-0.6,0.6-1.2,1.1-1.5c0.5-0.4,1.1-0.6,1.7-0.5c0.9-0.1,1.7,0.4,2.3,1.2
		c0.6,0.9,0.9,2.1,0.9,3.2v0.1c0,1.2-0.3,2.3-0.9,3.2c-0.6,0.8-1.5,1.2-2.3,1.2c-0.8,0-1.7-0.3-2.3-1.1c-0.6-0.8-0.9-1.9-0.9-3
		L-9033.6-7621.5z M-9031.5-7621.3c0,0.6,0.1,1.2,0.3,1.7c0.2,0.4,0.5,0.6,0.9,0.6c0.7,0,1.1-0.7,1.1-2.2v-0.3
		c0-1.5-0.4-2.3-1.1-2.3c-0.7,0-1.1,0.7-1.1,2L-9031.5-7621.3z M-9020.3-7619c0.2,0,0.5-0.1,0.7-0.3c0.2-0.2,0.3-0.5,0.2-0.8h1.9
		c0,0.9-0.3,1.7-0.8,2.3c-0.6,0.6-1.3,0.9-2,0.9c-0.9,0.1-1.7-0.4-2.3-1.2c-0.6-0.9-0.9-2.1-0.8-3.2v-0.1c0-0.8,0.1-1.6,0.4-2.3
		c0.2-0.6,0.6-1.2,1.1-1.5c0.5-0.4,1.1-0.6,1.7-0.5c0.8-0.1,1.5,0.3,2.1,0.9c0.5,0.7,0.8,1.6,0.8,2.5h-1.9c0-0.4-0.1-0.7-0.3-1
		c-0.2-0.2-0.4-0.4-0.7-0.4c-0.5,0-0.8,0.4-0.9,1.3c0,0.4,0,0.8,0,1.2c0,0.6,0,1.2,0.2,1.8C-9020.9-7619.2-9020.6-7619-9020.3-7619
		L-9020.3-7619z M-9016.9-7621.5c0-0.8,0.1-1.6,0.4-2.3c0.2-0.6,0.6-1.2,1.1-1.5c0.5-0.4,1.1-0.6,1.7-0.5c0.9-0.1,1.7,0.4,2.3,1.2
		c0.6,0.9,0.9,2.1,0.9,3.2v0.1c0,1.2-0.3,2.3-0.9,3.2c-0.6,0.8-1.5,1.2-2.3,1.2c-0.8,0-1.7-0.3-2.3-1.1c-0.6-0.8-0.9-1.9-0.9-3
		L-9016.9-7621.5z M-9014.8-7621.3c0,0.6,0.1,1.2,0.3,1.7c0.2,0.4,0.5,0.6,0.9,0.6c0.7,0,1.1-0.7,1.1-2.2v-0.3
		c0-1.5-0.4-2.3-1.1-2.3c-0.7,0-1.1,0.7-1.1,2L-9014.8-7621.3z M-9005.5-7623.3l-0.7-0.1c-0.5-0.1-1,0.2-1.3,0.8v5.4h-2.1v-8.5h1.9
		l0.1,1.1c0.2-0.8,0.8-1.2,1.5-1.3c0.2,0,0.4,0,0.6,0.1L-9005.5-7623.3z M-9002.1-7627.8v2.1h1.1v1.8h-1.1v3.9c0,0.2,0,0.5,0.1,0.7
		c0.2,0.2,0.3,0.2,0.5,0.2c0.2,0,0.3,0,0.5,0v1.9c-0.4,0.2-0.8,0.2-1.2,0.2c-0.6,0.1-1.1-0.2-1.6-0.6c-0.4-0.5-0.6-1.2-0.5-2v-4.2
		h-0.9v-1.8h0.8v-2.1H-9002.1z M-9000.6-7621.5c0-0.8,0.1-1.6,0.4-2.3c0.2-0.6,0.6-1.2,1.1-1.5c0.5-0.4,1.1-0.6,1.7-0.5
		c0.9-0.1,1.7,0.4,2.3,1.2c0.6,0.9,0.9,2.1,0.9,3.2v0.1c0,1.2-0.3,2.3-0.9,3.2c-0.6,0.8-1.5,1.2-2.3,1.2c-0.8,0.1-1.7-0.3-2.3-1.1
		c-0.6-0.8-0.9-1.9-0.9-3L-9000.6-7621.5z M-8998.5-7621.3c0,0.6,0.1,1.2,0.3,1.7c0.2,0.4,0.5,0.6,0.9,0.6c0.7,0,1.1-0.7,1.1-2.2
		v-0.3c0-1.5-0.4-2.3-1.1-2.3c-0.7,0-1.1,0.7-1.1,2L-8998.5-7621.3z M-8984-7621.3c0,1.1-0.2,2.2-0.7,3.2c-0.4,0.8-1.1,1.2-1.9,1.2
		c-0.6,0-1.1-0.3-1.5-0.9v4h-2.1v-11.8h1.9l0.1,0.8c0.4-0.6,1-1,1.6-0.9c0.7,0,1.5,0.4,1.9,1.2c0.5,0.9,0.7,2.1,0.7,3.2
		L-8984-7621.3z M-8986.1-7621.5c0-1.5-0.3-2.3-1-2.3c-0.4-0.1-0.8,0.2-1,0.7v3.4c0.2,0.5,0.6,0.8,1,0.7c0.7,0,1-0.7,1-2.2V-7621.5z
		 M-8980.9-7617.1h-2.1v-12.1h2.1V-7617.1z M-8975.9-7617.1c-0.1-0.2-0.2-0.5-0.2-0.8c-0.4,0.6-1,1-1.6,0.9c-0.6,0-1.2-0.2-1.6-0.7
		c-0.4-0.5-0.7-1.1-0.7-1.8c0-0.8,0.3-1.6,0.8-2.1c0.7-0.5,1.5-0.8,2.3-0.7h0.6v-0.4c0-0.8-0.3-1.2-0.8-1.2
		c-0.4-0.1-0.7,0.2-0.7,0.7c0,0.1,0,0.2,0,0.2h-2.1c0-0.8,0.3-1.6,0.8-2c0.6-0.5,1.3-0.8,2.1-0.8c0.7-0.1,1.4,0.2,2,0.8
		c0.5,0.5,0.8,1.3,0.8,2.2v3.8c0,0.6,0.1,1.2,0.3,1.8v0.1H-8975.9z M-8977.2-7618.9c0.2,0,0.4-0.1,0.6-0.2c0.2-0.1,0.3-0.3,0.4-0.5
		v-1.4h-0.6c-0.7,0-1.1,0.4-1.1,1.2c0,0.2,0.1,0.4,0.2,0.6C-8977.5-7618.9-8977.4-7618.9-8977.2-7618.9L-8977.2-7618.9z
		 M-8970.5-7619.2h3v2.1h-5.6v-1.5l2.9-5h-2.8v-2.1h5.4v1.4L-8970.5-7619.2z M-8966.9-7621.5c0-0.8,0.1-1.6,0.4-2.3
		c0.2-0.6,0.6-1.2,1.1-1.5c0.5-0.4,1.1-0.6,1.7-0.5c0.9-0.1,1.7,0.4,2.4,1.2c0.6,0.9,0.9,2.1,0.9,3.2v0.1c0,1.2-0.3,2.3-0.9,3.2
		c-0.6,0.8-1.5,1.2-2.3,1.2c-0.8,0.1-1.7-0.3-2.3-1.1c-0.6-0.8-0.9-1.9-0.9-3L-8966.9-7621.5z M-8964.8-7621.3
		c0,0.6,0.1,1.2,0.3,1.7c0.2,0.4,0.5,0.6,0.9,0.6c0.7,0,1.1-0.7,1.1-2.2v-0.3c0-1.5-0.4-2.3-1.1-2.3c-0.7,0-1.1,0.7-1.1,2
		L-8964.8-7621.3z"/>
	<path id="Trazado_102738" class="st2" d="M-9057.4-7555.6h-3l-0.5,2.1h-2.3l3.3-11.5h2l3.3,11.5h-2.3L-9057.4-7555.6z
		 M-9059.8-7557.7h1.9l-1-4L-9059.8-7557.7z M-9051.2-7555.3c0.2,0,0.5-0.1,0.7-0.3c0.2-0.2,0.3-0.5,0.2-0.8h1.9
		c0,0.9-0.3,1.7-0.8,2.3c-0.6,0.6-1.3,0.9-2,0.9c-0.9,0.1-1.7-0.4-2.3-1.2c-0.6-0.9-0.9-2.1-0.8-3.2v-0.1c0-0.8,0.1-1.6,0.4-2.3
		c0.2-0.6,0.6-1.2,1.1-1.5c0.5-0.4,1.1-0.6,1.7-0.5c0.8,0,1.5,0.3,2.1,0.9c0.5,0.7,0.8,1.6,0.8,2.5h-1.9c0-0.4-0.1-0.7-0.3-1
		c-0.2-0.2-0.4-0.4-0.7-0.4c-0.5,0-0.8,0.4-0.9,1.3c0,0.4,0,0.8,0,1.2c0,0.6,0,1.2,0.2,1.8
		C-9051.8-7555.5-9051.5-7555.3-9051.2-7555.3z M-9045.1-7564.1v2.1h1.1v1.8h-1.1v3.9c0,0.2,0,0.5,0.1,0.7c0.2,0.2,0.3,0.2,0.5,0.2
		c0.2,0,0.3,0,0.5,0v1.9c-0.4,0.2-0.8,0.2-1.2,0.2c-0.6,0.1-1.1-0.2-1.6-0.6c-0.4-0.5-0.6-1.2-0.5-2v-4.2h-0.8v-1.8h0.8v-2.1
		H-9045.1z M-9041-7553.5h-2.1v-8.5h2.1V-7553.5z M-9043.2-7564.2c0-0.4,0.1-0.7,0.3-0.9c0.5-0.5,1.2-0.5,1.7,0
		c0.2,0.2,0.3,0.6,0.3,0.9c0,0.4-0.1,0.7-0.3,0.9c-0.5,0.5-1.2,0.5-1.7,0C-9043.1-7563.5-9043.2-7563.8-9043.2-7564.2z
		 M-9037.1-7556.6l1-5.4h2.2l-2.2,8.5h-2.1l-2.2-8.5h2.2L-9037.1-7556.6z M-9033.6-7557.8c0-0.8,0.1-1.6,0.4-2.3
		c0.2-0.6,0.6-1.2,1.1-1.5c0.5-0.4,1.1-0.6,1.7-0.5c0.9-0.1,1.7,0.4,2.3,1.2c0.6,0.9,0.9,2.1,0.9,3.2v0.1c0,1.2-0.3,2.3-0.9,3.2
		c-0.6,0.8-1.5,1.2-2.3,1.2c-0.8,0-1.7-0.3-2.3-1.1c-0.6-0.8-0.9-1.9-0.9-3L-9033.6-7557.8z M-9031.5-7557.6c0,0.6,0.1,1.2,0.3,1.7
		c0.2,0.4,0.5,0.6,0.9,0.6c0.7,0,1.1-0.7,1.1-2.2v-0.3c0-1.5-0.4-2.3-1.1-2.3c-0.7,0-1.1,0.7-1.1,2L-9031.5-7557.6z M-9020.9-7553.5
		h-2.1v-12.1h2.1V-7553.5z M-9015.9-7553.5c-0.1-0.2-0.2-0.5-0.2-0.8c-0.4,0.6-1,1-1.6,0.9c-0.6,0-1.2-0.2-1.6-0.7
		c-0.4-0.5-0.7-1.1-0.7-1.8c0-0.8,0.3-1.6,0.8-2.1c0.7-0.5,1.5-0.8,2.3-0.7h0.6v-0.4c0-0.8-0.3-1.2-0.8-1.2
		c-0.4-0.1-0.7,0.2-0.7,0.7c0,0.1,0,0.2,0,0.2h-2.1c0-0.8,0.3-1.6,0.8-2c0.6-0.5,1.3-0.8,2.1-0.8c0.7-0.1,1.4,0.2,2,0.8
		c0.5,0.5,0.8,1.3,0.8,2.2v3.8c0,0.6,0.1,1.2,0.3,1.8v0.1H-9015.9z M-9017.2-7555.2c0.2,0,0.4-0.1,0.6-0.2c0.2-0.1,0.3-0.3,0.4-0.5
		v-1.4h-0.6c-0.7,0-1.1,0.4-1.1,1.2c0,0.2,0.1,0.4,0.2,0.6C-9017.6-7555.3-9017.4-7555.2-9017.2-7555.2L-9017.2-7555.2z
		 M-9009-7559.6l-0.7-0.1c-0.5-0.1-1,0.2-1.3,0.8v5.4h-2.1v-8.5h1.9l0.1,1.1c0.2-0.8,0.8-1.2,1.5-1.3c0.2,0,0.4,0,0.6,0.1
		L-9009-7559.6z M-9008.5-7557.8c0-0.8,0.1-1.6,0.3-2.3c0.2-0.6,0.5-1.2,1-1.5c0.4-0.4,0.9-0.6,1.4-0.5c0.6,0,1.2,0.3,1.6,0.9
		l0.1-0.7h1.9v8.2c0,0.7-0.1,1.4-0.4,2c-0.3,0.6-0.7,1-1.2,1.3c-0.6,0.3-1.2,0.5-1.8,0.4c-0.5,0-1-0.1-1.4-0.4
		c-0.4-0.2-0.8-0.5-1-0.9l0.9-1.6c0.4,0.6,0.9,0.9,1.5,0.9c0.7,0.1,1.3-0.5,1.4-1.4c0-0.1,0-0.3,0-0.4v-0.3
		c-0.4,0.6-0.9,0.9-1.5,0.8c-0.8,0-1.5-0.4-2-1.2c-0.5-0.9-0.8-2.1-0.7-3.2L-9008.5-7557.8z M-9006.4-7557.6c0,0.6,0.1,1.2,0.3,1.7
		c0.2,0.4,0.5,0.6,0.9,0.6c0.4,0,0.8-0.2,1-0.6v-3.6c-0.2-0.4-0.6-0.6-1-0.6c-0.4,0-0.7,0.2-0.9,0.6
		C-9006.3-7558.9-9006.4-7558.3-9006.4-7557.6L-9006.4-7557.6z M-9001.3-7557.8c0-0.8,0.1-1.6,0.4-2.3c0.2-0.6,0.6-1.2,1.1-1.5
		c0.5-0.4,1.1-0.6,1.7-0.5c0.9-0.1,1.7,0.4,2.3,1.2c0.6,0.9,0.9,2.1,0.9,3.2v0.1c0,1.2-0.3,2.3-0.9,3.2c-0.6,0.8-1.5,1.2-2.3,1.2
		c-0.8,0-1.7-0.3-2.3-1.1c-0.6-0.8-0.9-1.9-0.9-3L-9001.3-7557.8z M-8999.2-7557.6c0,0.6,0.1,1.2,0.3,1.7c0.2,0.4,0.5,0.6,0.9,0.6
		c0.7,0,1.1-0.7,1.1-2.2v-0.3c0-1.5-0.4-2.3-1.1-2.3c-0.7,0-1.1,0.7-1.1,2L-8999.2-7557.6z M-8984.7-7557.7c0,1.1-0.2,2.2-0.7,3.2
		c-0.4,0.8-1.1,1.2-1.9,1.2c-0.6,0-1.1-0.3-1.5-0.9v4h-2.1v-11.8h1.9l0.1,0.8c0.4-0.6,1-1,1.6-0.9c0.7,0,1.5,0.4,1.9,1.2
		c0.5,0.9,0.7,2.1,0.7,3.2L-8984.7-7557.7z M-8986.7-7557.8c0-1.5-0.3-2.3-1-2.3c-0.4-0.1-0.8,0.2-1,0.7v3.4c0.2,0.5,0.6,0.8,1,0.7
		c0.7,0,1-0.7,1-2.2V-7557.8z M-8981.6-7553.5h-2.1v-12.1h2.1V-7553.5z M-8976.6-7553.5c-0.1-0.2-0.2-0.5-0.2-0.8
		c-0.4,0.6-1,1-1.6,0.9c-0.6,0-1.2-0.2-1.6-0.7c-0.4-0.5-0.7-1.1-0.7-1.8c0-0.8,0.3-1.6,0.8-2.1c0.7-0.5,1.5-0.8,2.3-0.7h0.6v-0.4
		c0-0.8-0.3-1.2-0.8-1.2c-0.4-0.1-0.7,0.2-0.7,0.7c0,0.1,0,0.2,0,0.2h-2.1c0-0.8,0.3-1.6,0.8-2c0.6-0.5,1.3-0.8,2.1-0.8
		c0.7-0.1,1.4,0.2,2,0.8c0.5,0.5,0.8,1.3,0.8,2.2v3.8c0,0.6,0.1,1.2,0.3,1.8v0.1H-8976.6z M-8977.9-7555.2c0.2,0,0.4-0.1,0.6-0.2
		c0.2-0.1,0.3-0.3,0.4-0.5v-1.4h-0.6c-0.7,0-1.1,0.4-1.1,1.2c0,0.2,0.1,0.4,0.2,0.6C-8978.2-7555.3-8978-7555.2-8977.9-7555.2
		L-8977.9-7555.2z M-8971.2-7555.5h3v2.1h-5.6v-1.5l2.9-5h-2.8v-2.1h5.4v1.4L-8971.2-7555.5z M-8967.5-7557.8c0-0.8,0.1-1.6,0.4-2.3
		c0.2-0.6,0.6-1.2,1.1-1.5c0.5-0.4,1.1-0.6,1.7-0.5c0.9-0.1,1.7,0.4,2.3,1.2c0.6,0.9,0.9,2.1,0.9,3.2v0.1c0,1.2-0.3,2.3-0.9,3.2
		c-0.6,0.8-1.5,1.2-2.3,1.2c-0.8,0-1.7-0.3-2.3-1.1c-0.6-0.8-0.9-1.9-0.9-3L-8967.5-7557.8z M-8965.5-7557.6c0,0.6,0.1,1.2,0.3,1.7
		c0.2,0.4,0.5,0.6,0.9,0.6c0.7,0,1.1-0.7,1.1-2.2v-0.3c0-1.5-0.4-2.3-1.1-2.3c-0.7,0-1.1,0.7-1.1,2L-8965.5-7557.6z"/>
	<path id="Trazado_102736" class="st2" d="M-8911.9-7626.7c-0.1,1-0.4,1.8-0.9,2.5c-0.6,0.6-1.3,0.9-2.1,0.9c-0.9,0-1.7-0.4-2.3-1.3
		c-0.6-1-0.9-2.2-0.8-3.5v-1c0-0.9,0.1-1.7,0.4-2.5c0.2-0.7,0.6-1.3,1.1-1.7c0.5-0.4,1.1-0.6,1.7-0.6c0.7,0,1.5,0.3,2,0.9
		c0.5,0.7,0.8,1.6,0.9,2.5h-1.1c0-0.7-0.2-1.3-0.6-1.8c-0.4-0.4-0.8-0.6-1.3-0.5c-0.6,0-1.2,0.3-1.6,0.9c-0.4,0.8-0.6,1.8-0.6,2.7v1
		c0,0.9,0.2,1.9,0.5,2.6c0.3,0.6,0.9,1,1.5,1c0.5,0,1-0.1,1.3-0.5c0.4-0.5,0.6-1.1,0.6-1.8H-8911.9z M-8909.5-7623.4h-1v-10.8h1
		V-7623.4z M-8906.8-7623.4h-1v-7.6h1V-7623.4z M-8907.9-7633c0-0.2,0-0.4,0.2-0.5c0.1-0.2,0.3-0.2,0.4-0.2c0.2,0,0.3,0.1,0.4,0.2
		c0.1,0.1,0.2,0.3,0.2,0.5c0,0.2,0,0.4-0.2,0.5c-0.1,0.1-0.3,0.2-0.4,0.2c-0.2,0-0.3-0.1-0.4-0.2
		C-8907.8-7632.6-8907.9-7632.8-8907.9-7633z M-8902.7-7623.3c-0.7,0-1.4-0.3-2-1c-0.5-0.7-0.8-1.7-0.8-2.7v-0.2
		c0-0.7,0.1-1.4,0.3-2c0.2-0.6,0.5-1,0.9-1.4c0.4-0.3,0.8-0.5,1.3-0.5c0.7,0,1.3,0.3,1.8,1c0.5,0.8,0.7,1.8,0.6,2.8v0.5h-4
		c0,0.7,0.2,1.3,0.5,1.8c0.3,0.5,0.8,0.7,1.2,0.7c0.3,0,0.6-0.1,0.9-0.3c0.3-0.2,0.5-0.4,0.6-0.7l0.6,0.6
		C-8901-7623.8-8901.8-7623.2-8902.7-7623.3L-8902.7-7623.3z M-8902.9-7630.1c-0.4,0-0.8,0.2-1,0.6c-0.3,0.5-0.5,1-0.5,1.6h3v-0.1
		c0-0.6-0.1-1.1-0.4-1.5C-8902.1-7629.9-8902.5-7630.1-8902.9-7630.1z M-8898.3-7631l0,1c0.4-0.7,1.1-1.1,1.8-1.1
		c1.2,0,1.9,0.9,1.9,2.7v5h-1v-5c0-0.4-0.1-0.9-0.3-1.2c-0.2-0.3-0.6-0.4-0.9-0.4c-0.3,0-0.6,0.1-0.9,0.3c-0.2,0.2-0.4,0.5-0.6,0.9
		v5.4h-1v-7.6H-8898.3z M-8891.7-7632.8v1.8h1.1v1h-1.1v4.7c0,0.2,0,0.5,0.1,0.7c0.1,0.2,0.3,0.3,0.5,0.2c0.2,0,0.3,0,0.5-0.1v1
		c-0.3,0.1-0.5,0.1-0.8,0.1c-0.4,0-0.8-0.2-1-0.5c-0.2-0.4-0.4-1-0.3-1.5v-4.7h-1.1v-1h1.1v-1.8H-8891.7z M-8887-7623.3
		c-0.7,0-1.4-0.3-2-1c-0.5-0.7-0.8-1.7-0.8-2.7v-0.2c0-0.7,0.1-1.4,0.3-2c0.2-0.6,0.5-1,0.9-1.4c0.4-0.3,0.8-0.5,1.3-0.5
		c0.7,0,1.3,0.3,1.8,1c0.5,0.8,0.7,1.8,0.6,2.8v0.5h-4c0,0.7,0.2,1.3,0.5,1.8c0.3,0.5,0.8,0.7,1.2,0.7c0.3,0,0.6-0.1,0.9-0.3
		c0.3-0.2,0.5-0.4,0.6-0.7l0.6,0.6C-8885.3-7623.8-8886.1-7623.2-8887-7623.3L-8887-7623.3z M-8887.1-7630.1c-0.4,0-0.8,0.2-1,0.6
		c-0.3,0.5-0.5,1-0.5,1.6h3v-0.1c0-0.6-0.1-1.1-0.4-1.5C-8886.4-7629.9-8886.8-7630.1-8887.1-7630.1L-8887.1-7630.1z
		 M-8880.1-7625.4c0-0.3-0.1-0.6-0.3-0.8c-0.3-0.3-0.7-0.4-1.1-0.5c-0.4-0.1-0.8-0.3-1.2-0.5c-0.3-0.2-0.5-0.4-0.7-0.7
		c-0.1-0.3-0.2-0.6-0.2-1c0-0.6,0.2-1.2,0.6-1.6c0.4-0.4,1-0.7,1.6-0.6c0.6,0,1.2,0.2,1.6,0.7c0.4,0.4,0.6,1,0.6,1.7h-1
		c0-0.4-0.1-0.7-0.3-0.9c-0.2-0.3-0.6-0.4-0.9-0.4c-0.3,0-0.6,0.1-0.9,0.3c-0.2,0.2-0.3,0.5-0.3,0.8c0,0.3,0.1,0.6,0.3,0.7
		c0.3,0.2,0.7,0.4,1,0.5c0.4,0.1,0.8,0.3,1.2,0.5c0.3,0.2,0.5,0.4,0.7,0.7c0.2,0.3,0.2,0.7,0.2,1c0,0.6-0.2,1.3-0.6,1.6
		c-0.5,0.4-1.1,0.6-1.6,0.6c-0.4,0-0.9-0.1-1.3-0.3c-0.3-0.2-0.6-0.5-0.9-0.9c-0.2-0.4-0.3-0.8-0.3-1.3h1c0,0.4,0.2,0.8,0.4,1
		c0.3,0.3,0.6,0.4,1,0.4c0.3,0,0.6-0.1,0.9-0.3C-8880.2-7624.8-8880.1-7625.1-8880.1-7625.4L-8880.1-7625.4z"/>
	<path id="Trazado_102739" class="st2" d="M-8911.9-7570.1c-0.1,1-0.4,1.8-0.9,2.5c-0.6,0.6-1.3,0.9-2.1,0.9c-0.9,0-1.7-0.4-2.3-1.3
		c-0.6-1-0.9-2.2-0.8-3.5v-1c0-0.9,0.1-1.7,0.4-2.5c0.2-0.7,0.6-1.3,1.1-1.7c0.5-0.4,1.1-0.6,1.7-0.6c0.7,0,1.5,0.3,2,0.9
		c0.5,0.7,0.8,1.6,0.9,2.5h-1.1c0-0.7-0.2-1.3-0.6-1.8c-0.4-0.4-0.8-0.6-1.3-0.5c-0.6,0-1.2,0.3-1.6,1c-0.4,0.8-0.6,1.8-0.6,2.7v1
		c0,0.9,0.2,1.9,0.5,2.6c0.3,0.6,0.9,1,1.5,1c0.5,0,1-0.1,1.3-0.5c0.4-0.5,0.6-1.1,0.6-1.8H-8911.9z M-8909.5-7566.9h-1v-10.8h1
		V-7566.9z M-8906.8-7566.9h-1v-7.6h1V-7566.9z M-8907.9-7576.5c0-0.2,0-0.4,0.2-0.5c0.1-0.2,0.3-0.2,0.4-0.2c0.2,0,0.3,0.1,0.4,0.2
		c0.1,0.1,0.2,0.3,0.2,0.5c0,0.2,0,0.4-0.2,0.5c-0.1,0.1-0.3,0.2-0.4,0.2c-0.2,0-0.3-0.1-0.4-0.2
		C-8907.8-7576.1-8907.9-7576.3-8907.9-7576.5z M-8902.7-7566.8c-0.7,0-1.4-0.3-2-1c-0.5-0.7-0.8-1.7-0.8-2.7v-0.2
		c0-0.7,0.1-1.4,0.3-2c0.2-0.6,0.5-1,0.9-1.4c0.4-0.3,0.8-0.5,1.3-0.5c0.7,0,1.3,0.3,1.8,1c0.5,0.8,0.7,1.8,0.6,2.8v0.5h-4
		c0,0.7,0.2,1.3,0.5,1.8c0.3,0.5,0.8,0.7,1.2,0.7c0.3,0,0.6-0.1,0.9-0.3c0.3-0.2,0.5-0.4,0.6-0.7l0.6,0.6
		C-8901-7567.3-8901.8-7566.7-8902.7-7566.8L-8902.7-7566.8z M-8902.9-7573.6c-0.4,0-0.8,0.2-1,0.6c-0.3,0.5-0.5,1-0.5,1.6h3v-0.1
		c0-0.6-0.1-1.1-0.4-1.5C-8902.1-7573.4-8902.5-7573.6-8902.9-7573.6z M-8898.3-7574.5l0,1c0.4-0.7,1.1-1.1,1.8-1.1
		c1.2,0,1.9,0.9,1.9,2.7v5h-1v-5c0-0.4-0.1-0.9-0.3-1.2c-0.2-0.3-0.6-0.4-0.9-0.4c-0.3,0-0.6,0.1-0.9,0.3c-0.2,0.2-0.4,0.5-0.6,0.9
		v5.4h-1v-7.6H-8898.3z M-8891.7-7576.3v1.8h1.1v1h-1.1v4.7c0,0.2,0,0.5,0.1,0.7c0.1,0.2,0.3,0.3,0.5,0.2c0.2,0,0.3,0,0.5-0.1v1
		c-0.3,0.1-0.5,0.1-0.8,0.1c-0.4,0-0.8-0.2-1-0.5c-0.2-0.4-0.4-1-0.3-1.5v-4.7h-1.1v-1h1.1v-1.8H-8891.7z M-8887-7566.8
		c-0.7,0-1.4-0.3-2-1c-0.5-0.7-0.8-1.7-0.8-2.7v-0.2c0-0.7,0.1-1.4,0.3-2c0.2-0.6,0.5-1,0.9-1.4c0.4-0.3,0.8-0.5,1.3-0.5
		c0.7,0,1.3,0.3,1.8,1c0.5,0.8,0.7,1.8,0.6,2.8v0.5h-4c0,0.7,0.2,1.3,0.5,1.8c0.3,0.5,0.8,0.7,1.2,0.7c0.3,0,0.6-0.1,0.9-0.3
		c0.3-0.2,0.5-0.4,0.6-0.7l0.6,0.6C-8885.3-7567.3-8886.1-7566.7-8887-7566.8L-8887-7566.8z M-8887.1-7573.6c-0.4,0-0.8,0.2-1,0.6
		c-0.3,0.5-0.5,1-0.5,1.6h3v-0.1c0-0.6-0.1-1.1-0.4-1.5C-8886.4-7573.4-8886.8-7573.6-8887.1-7573.6L-8887.1-7573.6z
		 M-8880.1-7568.9c0-0.3-0.1-0.6-0.3-0.8c-0.3-0.3-0.7-0.4-1.1-0.5c-0.4-0.1-0.8-0.3-1.2-0.5c-0.3-0.2-0.5-0.4-0.7-0.7
		c-0.1-0.3-0.2-0.6-0.2-1c0-0.6,0.2-1.2,0.6-1.6c0.4-0.4,1-0.7,1.6-0.6c0.6,0,1.2,0.2,1.6,0.7c0.4,0.4,0.6,1,0.6,1.7h-1
		c0-0.4-0.1-0.7-0.3-0.9c-0.2-0.3-0.6-0.4-0.9-0.4c-0.3,0-0.6,0.1-0.9,0.3c-0.2,0.2-0.3,0.5-0.3,0.8c0,0.3,0.1,0.6,0.3,0.7
		c0.3,0.2,0.7,0.4,1,0.5c0.4,0.1,0.8,0.3,1.2,0.5c0.3,0.2,0.5,0.4,0.7,0.7c0.2,0.3,0.2,0.7,0.2,1c0,0.6-0.2,1.3-0.6,1.6
		c-0.5,0.4-1.1,0.6-1.6,0.6c-0.4,0-0.9-0.1-1.3-0.3c-0.3-0.2-0.6-0.5-0.9-0.9c-0.2-0.4-0.3-0.8-0.3-1.3h1c0,0.4,0.2,0.8,0.4,1
		c0.3,0.3,0.6,0.4,1,0.4c0.3,0,0.6-0.1,0.9-0.3C-8880.2-7568.3-8880.1-7568.6-8880.1-7568.9L-8880.1-7568.9z M-8871.4-7566.9
		c-0.1-0.3-0.1-0.5-0.1-0.8c-0.4,0.6-1,0.9-1.7,0.9c-0.5,0-1-0.2-1.4-0.6c-0.4-0.4-0.6-1-0.6-1.6c0-0.7,0.2-1.4,0.7-1.8
		c0.6-0.5,1.3-0.7,2-0.7h1v-0.6c0-0.4-0.1-0.8-0.3-1.1c-0.3-0.3-0.6-0.4-0.9-0.4c-0.3,0-0.6,0.1-0.9,0.4c-0.2,0.2-0.4,0.5-0.4,0.8
		h-1c0-0.4,0.1-0.8,0.3-1.1c0.2-0.4,0.5-0.7,0.9-0.8c0.4-0.2,0.8-0.3,1.2-0.3c0.6,0,1.1,0.2,1.6,0.7c0.4,0.5,0.6,1.1,0.6,1.8v3.5
		c0,0.6,0.1,1.1,0.2,1.7v0.1H-8871.4z M-8873-7567.9c0.3,0,0.6-0.1,0.9-0.3c0.3-0.2,0.5-0.5,0.6-0.8v-1.6h-0.8
		c-1.2,0-1.9,0.5-1.9,1.4c0,0.4,0.1,0.7,0.3,1C-8873.6-7568-8873.3-7567.9-8873-7567.9L-8873-7567.9z M-8916.8-7548.1h-1v-10.8h1
		V-7548.1z M-8911.5-7548.1c-0.1-0.3-0.1-0.5-0.1-0.8c-0.4,0.6-1,0.9-1.7,0.9c-0.5,0-1-0.2-1.4-0.6c-0.4-0.4-0.6-1-0.6-1.6
		c0-0.7,0.2-1.4,0.7-1.8c0.6-0.5,1.3-0.7,2-0.7h1v-0.6c0-0.4-0.1-0.8-0.3-1.1c-0.3-0.3-0.6-0.4-0.9-0.4c-0.3,0-0.6,0.1-0.9,0.4
		c-0.2,0.2-0.4,0.5-0.4,0.8h-1c0-0.4,0.1-0.8,0.3-1.1c0.2-0.4,0.5-0.7,0.9-0.8c0.4-0.2,0.8-0.3,1.2-0.3c0.6,0,1.1,0.2,1.6,0.7
		c0.4,0.5,0.6,1.1,0.6,1.8v3.5c0,0.6,0.1,1.1,0.2,1.7v0.1H-8911.5z M-8913.2-7549.1c0.3,0,0.6-0.1,0.9-0.3c0.3-0.2,0.5-0.5,0.6-0.8
		v-1.6h-0.8c-1.2,0-1.9,0.5-1.9,1.4c0,0.4,0.1,0.7,0.3,1C-8913.8-7549.2-8913.5-7549-8913.2-7549.1z M-8906.2-7554.5
		c-0.2,0-0.3-0.1-0.5,0c-0.6-0.1-1.1,0.4-1.3,1.1v5.4h-1v-7.6h1l0,0.9c0.3-0.6,0.8-1,1.4-1c0.2,0,0.3,0,0.4,0.1L-8906.2-7554.5z
		 M-8905.6-7551.9c0-1,0.2-2,0.6-2.8c0.4-0.7,1-1.1,1.7-1c0.7,0,1.3,0.3,1.7,1l0-0.8h0.9v7.4c0,0.9-0.2,1.7-0.7,2.3
		c-0.5,0.6-1.2,0.9-1.8,0.8c-0.4,0-0.9-0.1-1.2-0.4c-0.4-0.2-0.7-0.5-0.9-1l0.5-0.8c0.4,0.6,1,1,1.6,1c0.4,0,0.8-0.2,1.1-0.5
		c0.3-0.4,0.4-0.9,0.4-1.5v-0.7c-0.4,0.6-1,0.9-1.7,0.9c-0.7,0-1.3-0.4-1.7-1.1C-8905.4-7549.9-8905.6-7550.9-8905.6-7551.9z
		 M-8904.5-7551.8c0,0.7,0.1,1.4,0.4,2c0.3,0.5,0.7,0.8,1.1,0.7c0.6,0,1.2-0.4,1.4-1.1v-3.5c-0.3-0.7-0.8-1.1-1.4-1.1
		c-0.5,0-0.9,0.3-1.2,0.7C-8904.4-7553.3-8904.6-7552.5-8904.5-7551.8L-8904.5-7551.8z M-8899.3-7551.9c0-0.7,0.1-1.4,0.3-2
		c0.2-0.6,0.5-1,0.9-1.4c0.4-0.3,0.9-0.5,1.4-0.5c0.7,0,1.5,0.4,2,1.1c0.5,0.8,0.8,1.8,0.7,2.9v0.1c0,0.7-0.1,1.4-0.3,2
		c-0.2,0.6-0.5,1-0.9,1.4c-0.4,0.3-0.9,0.5-1.4,0.5c-0.7,0-1.5-0.4-1.9-1.1C-8899.1-7549.8-8899.3-7550.8-8899.3-7551.9
		L-8899.3-7551.9z M-8898.3-7551.8c0,0.7,0.1,1.4,0.5,2c0.5,0.9,1.5,1,2.2,0.3c0.1-0.1,0.2-0.2,0.3-0.4c0.3-0.6,0.5-1.4,0.5-2.2
		c0-0.7-0.1-1.4-0.5-2c-0.3-0.5-0.7-0.8-1.2-0.8c-0.5,0-0.9,0.3-1.2,0.8C-8898.2-7553.3-8898.3-7552.6-8898.3-7551.8L-8898.3-7551.8
		z M-8884.9-7551.8c0,1-0.2,2-0.6,2.8c-0.4,0.7-1,1.1-1.7,1.1c-0.6,0-1.3-0.3-1.7-0.9v3.7h-1v-10.5h0.9l0,0.8c0.4-0.7,1.1-1,1.7-1
		c0.7,0,1.3,0.4,1.7,1c0.4,0.8,0.7,1.9,0.6,2.9V-7551.8z M-8885.9-7551.9c0-0.7-0.1-1.4-0.4-2c-0.3-0.5-0.7-0.8-1.2-0.7
		c-0.6,0-1.1,0.4-1.4,1v3.6c0.3,0.7,0.8,1.1,1.4,1c0.5,0,0.9-0.3,1.2-0.7C-8886-7550.4-8885.9-7551.2-8885.9-7551.9z
		 M-8882.5-7548.1h-1v-10.8h1V-7548.1z M-8877.3-7548.1c-0.1-0.3-0.1-0.5-0.1-0.8c-0.4,0.6-1,0.9-1.7,0.9c-0.5,0-1-0.2-1.4-0.6
		c-0.4-0.4-0.6-1-0.6-1.6c0-0.7,0.2-1.4,0.7-1.8c0.6-0.5,1.3-0.7,2-0.7h1v-0.6c0-0.4-0.1-0.8-0.3-1.1c-0.3-0.3-0.6-0.4-0.9-0.4
		c-0.3,0-0.6,0.1-0.9,0.4c-0.2,0.2-0.4,0.5-0.4,0.8h-1c0-0.4,0.1-0.8,0.3-1.1c0.2-0.4,0.5-0.7,0.9-0.8c0.4-0.2,0.8-0.3,1.2-0.3
		c0.6,0,1.1,0.2,1.6,0.7c0.4,0.5,0.6,1.1,0.6,1.8v3.5c0,0.6,0.1,1.1,0.2,1.7v0.1H-8877.3z M-8879-7549.1c0.3,0,0.6-0.1,0.9-0.3
		c0.3-0.2,0.5-0.5,0.6-0.8v-1.6h-0.8c-1.2,0-1.9,0.5-1.9,1.4c0,0.4,0.1,0.7,0.3,1C-8879.5-7549.2-8879.3-7549-8879-7549.1
		L-8879-7549.1z M-8873.9-7549.1h3.5v1.1h-4.7v-1l3.3-5.6h-3.2v-1.1h4.5v0.9L-8873.9-7549.1z M-8869.7-7551.9c0-0.7,0.1-1.4,0.3-2
		c0.2-0.6,0.5-1,0.9-1.4c0.4-0.3,0.9-0.5,1.4-0.5c0.7,0,1.5,0.4,1.9,1.1c0.5,0.8,0.8,1.8,0.7,2.9v0.1c0,0.7-0.1,1.4-0.3,2
		c-0.2,0.6-0.5,1-0.9,1.4c-0.4,0.3-0.9,0.5-1.4,0.5c-0.7,0-1.5-0.4-1.9-1.1C-8869.5-7549.8-8869.7-7550.8-8869.7-7551.9
		L-8869.7-7551.9z M-8868.7-7551.8c0,0.7,0.1,1.4,0.5,2c0.5,0.9,1.5,1,2.2,0.3c0.1-0.1,0.2-0.2,0.3-0.4c0.3-0.6,0.5-1.4,0.5-2.2
		c0-0.7-0.1-1.4-0.5-2c-0.3-0.5-0.7-0.8-1.2-0.8c-0.5,0-0.9,0.3-1.2,0.8C-8868.5-7553.3-8868.7-7552.6-8868.7-7551.8L-8868.7-7551.8
		z"/>
	<path id="Trazado_102737" class="st2" d="M-8838.6-7622.3l0.4-5.1h4.1v1.2h-3.2l-0.2,2.8c0.4-0.3,0.9-0.5,1.3-0.4
		c0.7,0,1.3,0.3,1.7,0.9c0.4,0.7,0.7,1.6,0.6,2.5c0,0.9-0.2,1.8-0.7,2.5c-0.5,0.6-1.2,1-1.9,0.9c-0.6,0-1.2-0.2-1.7-0.7
		c-0.5-0.5-0.7-1.3-0.8-2.1h1c0,0.5,0.2,1,0.5,1.3c0.3,0.3,0.7,0.5,1,0.4c0.4,0,0.8-0.2,1.1-0.6c0.3-0.5,0.4-1.1,0.4-1.7
		c0-0.6-0.1-1.2-0.4-1.6c-0.3-0.4-0.7-0.6-1.2-0.6c-0.4,0-0.7,0.1-1,0.4l-0.3,0.3L-8838.6-7622.3z M-8828.9-7627.3v1.1h-0.2
		c-0.7,0-1.4,0.3-1.9,0.9c-0.5,0.7-0.8,1.5-0.8,2.4c0.4-0.6,1.1-1,1.7-0.9c0.6,0,1.2,0.3,1.7,0.9c0.4,0.7,0.6,1.5,0.6,2.4
		c0,0.9-0.2,1.8-0.7,2.5c-0.5,0.6-1.1,1-1.8,0.9c-0.7,0-1.4-0.4-1.8-1.1c-0.5-0.8-0.7-1.9-0.7-2.9v-0.5c-0.1-1.5,0.3-3,0.9-4.3
		c0.7-1,1.7-1.6,2.8-1.5L-8828.9-7627.3z M-8830.2-7622.8c-0.7,0-1.3,0.6-1.6,1.4v0.5c0,0.7,0.1,1.4,0.4,2c0.2,0.5,0.7,0.8,1.1,0.8
		c0.4,0,0.8-0.2,1.1-0.6c0.3-0.5,0.4-1.1,0.4-1.7c0-0.6-0.1-1.2-0.4-1.7C-8829.4-7622.5-8829.8-7622.8-8830.2-7622.8z
		 M-8825.1-7622.9h0.8c0.4,0,0.8-0.2,1.1-0.5c0.3-0.3,0.4-0.8,0.4-1.3c0.1-0.9-0.4-1.7-1-1.8c-0.1,0-0.2,0-0.3,0
		c-0.4,0-0.8,0.1-1,0.5c-0.3,0.3-0.4,0.8-0.4,1.3h-1c0-0.8,0.2-1.5,0.7-2c0.5-0.5,1.1-0.8,1.8-0.8c0.6,0,1.3,0.2,1.8,0.8
		c0.4,0.6,0.7,1.3,0.6,2.1c0,0.5-0.1,0.9-0.3,1.3c-0.2,0.4-0.5,0.7-0.9,0.9c0.4,0.1,0.8,0.5,1,0.9c0.2,0.4,0.4,1,0.4,1.5
		c0,0.8-0.2,1.6-0.7,2.2c-0.5,0.6-1.2,0.8-1.8,0.8c-0.7,0-1.3-0.2-1.8-0.8c-0.5-0.5-0.7-1.3-0.7-2.1h1c0,0.5,0.1,1,0.4,1.3
		c0.3,0.3,0.7,0.5,1.1,0.5c0.4,0,0.8-0.1,1.1-0.5c0.3-0.4,0.4-0.9,0.4-1.4c0-0.5-0.1-1-0.4-1.4c-0.4-0.3-0.8-0.5-1.2-0.5h-0.8
		L-8825.1-7622.9z M-8820.2-7617.8c0-0.2,0.1-0.4,0.2-0.6c0.1-0.2,0.3-0.2,0.5-0.2c0.2,0,0.3,0.1,0.5,0.2c0.1,0.2,0.2,0.4,0.2,0.6
		c0,0.2-0.1,0.4-0.2,0.5c-0.1,0.2-0.3,0.2-0.5,0.2c-0.3,0-0.6-0.2-0.6-0.6C-8820.2-7617.7-8820.2-7617.8-8820.2-7617.8
		L-8820.2-7617.8z M-8814-7617.1h-1v-8.6l-2,1v-1.2l2.9-1.4h0.2L-8814-7617.1z M-8806.3-7624.7c0,0.5-0.1,1-0.3,1.4
		c-0.2,0.4-0.5,0.7-0.8,0.9c0.4,0.2,0.7,0.6,1,1c0.2,0.4,0.4,1,0.4,1.5c0,0.8-0.2,1.6-0.7,2.1c-1.1,1-2.6,1-3.7,0
		c-0.5-0.5-0.7-1.3-0.7-2.1c0-0.5,0.1-1.1,0.3-1.5c0.2-0.5,0.6-0.8,1-1c-0.3-0.2-0.6-0.5-0.8-0.9c-0.2-0.4-0.3-0.9-0.3-1.4
		c0-0.8,0.2-1.5,0.6-2c1-1,2.4-1,3.4,0C-8806.5-7626.2-8806.2-7625.4-8806.3-7624.7z M-8807.1-7619.9c0-0.5-0.1-1-0.4-1.4
		c-0.3-0.4-0.7-0.6-1.1-0.5c-0.8-0.1-1.5,0.7-1.5,1.7c0,0.1,0,0.2,0,0.2c0,0.5,0.1,1,0.4,1.4c0.7,0.7,1.6,0.7,2.2,0
		C-8807.2-7618.9-8807.1-7619.4-8807.1-7619.9L-8807.1-7619.9z M-8808.6-7626.4c-0.4,0-0.7,0.2-1,0.5c-0.3,0.3-0.4,0.8-0.4,1.3
		c0,0.5,0.1,0.9,0.4,1.3c0.5,0.6,1.4,0.6,1.9,0c0.2-0.3,0.4-0.8,0.4-1.3c0-0.5-0.1-0.9-0.4-1.3
		C-8807.9-7626.3-8808.2-7626.4-8808.6-7626.4z M-8800.9-7621.6c-0.2,0.3-0.5,0.6-0.8,0.8c-0.3,0.2-0.6,0.3-1,0.3
		c-0.4,0-0.8-0.1-1.2-0.4c-0.3-0.3-0.6-0.7-0.8-1.2c-0.2-0.5-0.3-1.1-0.3-1.7c0-0.6,0.1-1.3,0.3-1.8c0.2-0.5,0.5-1,0.9-1.3
		c0.4-0.3,0.8-0.4,1.3-0.4c0.7,0,1.4,0.4,1.9,1.1c0.5,0.9,0.7,2,0.7,3.1v0.4c0,2-0.3,3.4-0.9,4.3c-0.7,1-1.7,1.5-2.8,1.4h-0.2v-1.1
		h0.2c0.7,0,1.4-0.3,1.9-0.8C-8801.2-7619.8-8800.9-7620.7-8800.9-7621.6z M-8802.5-7621.6c0.3,0,0.7-0.1,0.9-0.4
		c0.3-0.2,0.5-0.6,0.6-1v-0.5c0-0.7-0.1-1.5-0.4-2.1c-0.4-0.8-1.2-1-1.8-0.5c-0.1,0.1-0.2,0.2-0.3,0.4c-0.3,0.5-0.4,1.1-0.4,1.7
		c0,0.6,0.1,1.2,0.4,1.7C-8803.3-7621.9-8802.9-7621.6-8802.5-7621.6L-8802.5-7621.6z M-8798.5-7615.1l-0.6-0.5
		c0.3-0.5,0.5-1.2,0.5-1.9v-1.2h1v1c0,0.5-0.1,1-0.3,1.4C-8797.9-7615.8-8798.2-7615.4-8798.5-7615.1L-8798.5-7615.1z
		 M-8791.1-7617.1h-5.2v-0.9l2.7-3.9c0.3-0.4,0.6-0.9,0.8-1.4c0.2-0.4,0.2-0.7,0.2-1.2c0-0.5-0.1-1-0.4-1.3c-0.3-0.3-0.6-0.5-1-0.5
		c-0.4,0-0.9,0.2-1.2,0.5c-0.3,0.4-0.4,1-0.4,1.5h-1c0-0.9,0.2-1.7,0.7-2.3c0.5-0.6,1.2-0.9,1.9-0.9c0.6,0,1.3,0.2,1.8,0.7
		c0.4,0.5,0.7,1.2,0.6,2c0,1-0.5,2.2-1.5,3.6l-2.1,3h4L-8791.1-7617.1z M-8786.2-7621.6c-0.2,0.3-0.5,0.6-0.8,0.8
		c-0.3,0.2-0.6,0.3-1,0.3c-0.4,0-0.8-0.1-1.2-0.4c-0.3-0.3-0.6-0.7-0.8-1.2c-0.2-0.5-0.3-1.1-0.3-1.7c0-0.6,0.1-1.3,0.3-1.8
		c0.2-0.5,0.5-1,0.9-1.3c0.4-0.3,0.8-0.4,1.3-0.4c0.7,0,1.4,0.4,1.9,1.1c0.5,0.9,0.7,2,0.7,3.1v0.4c0,2-0.3,3.4-0.9,4.3
		c-0.7,1-1.7,1.5-2.8,1.4h-0.2v-1.1h0.2c0.7,0,1.4-0.3,1.9-0.8C-8786.4-7619.8-8786.2-7620.7-8786.2-7621.6L-8786.2-7621.6z
		 M-8787.8-7621.6c0.3,0,0.7-0.1,0.9-0.4c0.3-0.2,0.5-0.6,0.6-1v-0.5c0-0.7-0.1-1.5-0.4-2.1c-0.4-0.8-1.2-1-1.8-0.5
		c-0.1,0.1-0.2,0.2-0.3,0.4c-0.3,0.5-0.4,1.1-0.4,1.7c0,0.6,0.1,1.2,0.4,1.7C-8788.6-7621.9-8788.2-7621.6-8787.8-7621.6z"/>
	<path id="Trazado_102740" class="st2" d="M-8754.9-7559.5l0.4-5.1h4.1v1.2h-3.2l-0.2,2.8c0.4-0.3,0.9-0.5,1.3-0.4
		c0.7,0,1.3,0.3,1.7,0.9c0.4,0.7,0.7,1.6,0.6,2.5c0,0.9-0.2,1.8-0.7,2.5c-0.5,0.6-1.2,1-1.9,0.9c-0.6,0-1.2-0.2-1.7-0.8
		c-0.5-0.5-0.7-1.3-0.8-2.1h1c0,0.5,0.2,1,0.5,1.3c0.3,0.3,0.7,0.5,1,0.4c0.4,0,0.8-0.2,1.1-0.6c0.3-0.5,0.4-1.1,0.4-1.7
		c0-0.6-0.1-1.2-0.4-1.6c-0.3-0.4-0.7-0.6-1.2-0.6c-0.4,0-0.7,0.1-1,0.4l-0.3,0.3L-8754.9-7559.5z M-8745.1-7564.6v1.1h-0.2
		c-0.7,0-1.4,0.3-1.9,0.9c-0.5,0.7-0.8,1.5-0.8,2.4c0.4-0.6,1.1-1,1.7-0.9c0.6,0,1.2,0.3,1.7,0.9c0.4,0.7,0.6,1.5,0.6,2.4
		c0,0.9-0.2,1.8-0.7,2.5c-0.5,0.6-1.1,1-1.8,0.9c-0.7,0-1.4-0.4-1.8-1.1c-0.5-0.8-0.7-1.9-0.7-2.9v-0.5c-0.1-1.5,0.3-3,0.9-4.3
		c0.7-1,1.7-1.6,2.8-1.5L-8745.1-7564.6z M-8746.4-7560c-0.7,0-1.3,0.6-1.6,1.4v0.5c0,0.7,0.1,1.4,0.4,2c0.2,0.5,0.7,0.8,1.1,0.8
		c0.4,0,0.8-0.2,1.1-0.6c0.3-0.5,0.4-1.1,0.4-1.7c0-0.6-0.1-1.2-0.4-1.7C-8745.6-7559.7-8746-7560-8746.4-7560z M-8741.3-7560.1h0.8
		c0.4,0,0.8-0.2,1.1-0.5c0.3-0.3,0.4-0.8,0.4-1.3c0.1-0.9-0.4-1.7-1-1.8c-0.1,0-0.2,0-0.3,0c-0.4,0-0.8,0.1-1,0.5
		c-0.3,0.3-0.4,0.8-0.4,1.3h-1c0-0.8,0.2-1.5,0.7-2c0.5-0.5,1.1-0.8,1.8-0.8c0.6,0,1.3,0.2,1.8,0.8c0.4,0.6,0.7,1.3,0.6,2.1
		c0,0.5-0.1,0.9-0.3,1.3c-0.2,0.4-0.5,0.7-0.9,0.9c0.4,0.1,0.8,0.5,1,0.9c0.2,0.4,0.4,1,0.4,1.5c0,0.8-0.2,1.6-0.7,2.2
		c-0.5,0.6-1.2,0.8-1.8,0.8c-0.7,0-1.3-0.2-1.8-0.8c-0.5-0.5-0.7-1.3-0.7-2.1h1c0,0.5,0.1,1,0.4,1.3c0.3,0.3,0.7,0.5,1.1,0.5
		c0.4,0,0.8-0.1,1.1-0.5c0.3-0.4,0.4-0.9,0.4-1.4c0-0.5-0.1-1-0.4-1.4c-0.4-0.3-0.8-0.5-1.2-0.5h-0.8L-8741.3-7560.1z M-8736.4-7555
		c0-0.2,0.1-0.4,0.2-0.6c0.1-0.2,0.3-0.2,0.5-0.2c0.2,0,0.3,0.1,0.5,0.2c0.1,0.2,0.2,0.4,0.2,0.6c0,0.2-0.1,0.4-0.2,0.5
		c-0.1,0.2-0.3,0.2-0.5,0.2c-0.3,0-0.6-0.2-0.6-0.6C-8736.4-7554.9-8736.4-7555-8736.4-7555L-8736.4-7555z M-8730.3-7554.4h-1v-8.6
		l-2,1v-1.2l2.9-1.4h0.2L-8730.3-7554.4z M-8722.5-7561.9c0,0.5-0.1,1-0.3,1.4c-0.2,0.4-0.5,0.7-0.8,0.9c0.4,0.2,0.7,0.6,1,1
		c0.2,0.4,0.4,1,0.4,1.5c0,0.8-0.2,1.6-0.7,2.1c-1.1,1-2.6,1-3.7,0c-0.5-0.5-0.7-1.3-0.7-2.1c0-0.5,0.1-1.1,0.3-1.5
		c0.2-0.5,0.6-0.8,1-1c-0.3-0.2-0.6-0.5-0.8-0.9c-0.2-0.4-0.3-0.9-0.3-1.4c0-0.8,0.2-1.5,0.6-2c1-1,2.4-1,3.4,0
		C-8722.7-7563.4-8722.5-7562.7-8722.5-7561.9z M-8723.3-7557.1c0-0.5-0.1-1-0.4-1.4c-0.3-0.4-0.7-0.6-1.1-0.5
		c-0.8-0.1-1.5,0.7-1.5,1.7c0,0.1,0,0.2,0,0.2c0,0.5,0.1,1,0.4,1.4c0.7,0.7,1.6,0.7,2.2,0
		C-8723.4-7556.1-8723.3-7556.6-8723.3-7557.1L-8723.3-7557.1z M-8724.8-7563.6c-0.4,0-0.7,0.2-1,0.5c-0.3,0.3-0.4,0.8-0.4,1.3
		c0,0.5,0.1,0.9,0.4,1.3c0.5,0.6,1.4,0.6,1.9,0c0.2-0.3,0.4-0.8,0.4-1.3c0-0.5-0.1-0.9-0.4-1.3
		C-8724.1-7563.5-8724.5-7563.6-8724.8-7563.6z M-8717.2-7558.8c-0.2,0.3-0.5,0.6-0.8,0.8c-0.3,0.2-0.6,0.3-1,0.3
		c-0.4,0-0.8-0.1-1.2-0.4c-0.3-0.3-0.6-0.7-0.8-1.2c-0.2-0.5-0.3-1.1-0.3-1.7c0-0.6,0.1-1.3,0.3-1.8c0.2-0.5,0.5-1,0.9-1.3
		c0.4-0.3,0.8-0.4,1.3-0.4c0.7,0,1.4,0.4,1.9,1.1c0.5,0.9,0.7,2,0.7,3.1v0.4c0,2-0.3,3.4-0.9,4.3c-0.7,1-1.7,1.5-2.8,1.4h-0.2v-1.1
		h0.2c0.7,0,1.4-0.3,1.9-0.8C-8717.4-7557-8717.1-7557.9-8717.2-7558.8z M-8718.7-7558.8c0.3,0,0.7-0.1,0.9-0.4
		c0.3-0.2,0.5-0.6,0.6-1v-0.5c0-0.7-0.1-1.5-0.4-2.1c-0.4-0.8-1.2-1-1.8-0.5c-0.1,0.1-0.2,0.2-0.3,0.4c-0.3,0.5-0.4,1.1-0.4,1.7
		c0,0.6,0.1,1.2,0.4,1.7C-8719.5-7559.1-8719.1-7558.8-8718.7-7558.8L-8718.7-7558.8z M-8714.7-7552.3l-0.6-0.5
		c0.3-0.5,0.5-1.2,0.5-1.9v-1.2h1v1c0,0.5-0.1,1-0.3,1.4C-8714.2-7553-8714.4-7552.6-8714.7-7552.3L-8714.7-7552.3z M-8707.4-7554.4
		h-5.2v-0.9l2.7-3.9c0.3-0.4,0.6-0.9,0.8-1.4c0.2-0.4,0.2-0.7,0.2-1.2c0-0.5-0.1-1-0.4-1.3c-0.3-0.3-0.6-0.5-1-0.5
		c-0.4,0-0.9,0.2-1.2,0.5c-0.3,0.4-0.4,1-0.4,1.5h-1c0-0.9,0.2-1.7,0.7-2.3c0.5-0.6,1.2-0.9,1.9-0.9c0.6,0,1.3,0.2,1.8,0.7
		c0.4,0.5,0.7,1.2,0.6,2c0,1-0.5,2.2-1.5,3.6l-2.1,3h4L-8707.4-7554.4z M-8702.4-7558.8c-0.2,0.3-0.5,0.6-0.8,0.8
		c-0.3,0.2-0.6,0.3-1,0.3c-0.4,0-0.8-0.1-1.2-0.4c-0.3-0.3-0.6-0.7-0.8-1.2c-0.2-0.5-0.3-1.1-0.3-1.7c0-0.6,0.1-1.3,0.3-1.8
		c0.2-0.5,0.5-1,0.9-1.3c0.4-0.3,0.8-0.4,1.3-0.4c0.7,0,1.4,0.4,1.9,1.1c0.5,0.9,0.7,2,0.7,3.1v0.4c0,2-0.3,3.4-0.9,4.3
		c-0.7,1-1.7,1.5-2.8,1.4h-0.2v-1.1h0.2c0.7,0,1.4-0.3,1.9-0.8C-8702.7-7557-8702.4-7557.9-8702.4-7558.8L-8702.4-7558.8z
		 M-8704-7558.8c0.3,0,0.7-0.1,0.9-0.4c0.3-0.2,0.5-0.6,0.6-1v-0.5c0-0.7-0.1-1.5-0.4-2.1c-0.4-0.8-1.2-1-1.8-0.5
		c-0.1,0.1-0.2,0.2-0.3,0.4c-0.3,0.5-0.4,1.1-0.4,1.7c0,0.6,0.1,1.2,0.4,1.7C-8704.8-7559.1-8704.4-7558.8-8704-7558.8z"/>
	<line id="Línea_144" class="st3" x1="-8941" y1="-7653.9" x2="-8941" y2="-7528.3"/>
	<line id="Línea_145" class="st3" x1="-8853.7" y1="-7653.9" x2="-8853.7" y2="-7528.3"/>
	<line id="Línea_146" class="st3" x1="-8767.9" y1="-7653.9" x2="-8767.9" y2="-7528.3"/>
	<path id="Trazado_99535" class="st4" d="M-9078.5-7708.3h400v54.4h-400V-7708.3z"/>
	<path id="Trazado_102731" class="st1" d="M-9050-7680.6c0,1-0.3,2-0.7,2.8c-0.4,0.8-1,1.5-1.7,1.9c-0.8,0.5-1.7,0.7-2.5,0.7
		c-1.4,0.1-2.8-0.6-3.7-2c-1-1.6-1.4-3.5-1.4-5.5v-0.8c0-1.4,0.2-2.7,0.6-3.9c0.4-1.1,1-2,1.8-2.6c0.8-0.6,1.7-0.9,2.7-0.9
		c1.3-0.1,2.5,0.4,3.5,1.5c0.9,1,1.4,2.5,1.5,4h-2.9c0-0.7-0.2-1.5-0.5-2c-0.4-0.4-1-0.7-1.6-0.6c-0.6-0.1-1.2,0.3-1.6,1
		c-0.4,1-0.6,2.2-0.5,3.3v1.1c-0.1,1.2,0.1,2.4,0.5,3.5c0.4,0.7,1,1.1,1.6,1.1c0.5,0,1.1-0.2,1.5-0.6c0.4-0.5,0.6-1.2,0.6-1.9
		L-9050-7680.6z M-9045.9-7675.4h-2.8v-16.1h2.8L-9045.9-7675.4z M-9039.2-7675.4c-0.1-0.3-0.2-0.7-0.3-1c-0.5,0.8-1.3,1.3-2.1,1.2
		c-0.8,0-1.5-0.3-2.1-1c-0.6-0.6-0.9-1.5-0.9-2.4c0-1.1,0.4-2.2,1.1-2.8c0.9-0.7,2-1,3.1-0.9h0.9v-0.6c0-1-0.4-1.6-1.1-1.6
		c-0.5-0.1-0.9,0.3-1,0.9c0,0.1,0,0.2,0,0.3h-2.8c0-1.1,0.4-2.1,1.1-2.7c0.8-0.7,1.8-1.1,2.8-1c1-0.1,1.9,0.3,2.7,1.1
		c0.7,0.7,1,1.8,1,2.9v5c0,0.8,0.1,1.6,0.4,2.4v0.2H-9039.2z M-9040.9-7677.8c0.3,0,0.6-0.1,0.9-0.3c0.2-0.2,0.4-0.4,0.5-0.6v-1.8
		h-0.8c-1,0-1.4,0.6-1.4,1.7c0,0.3,0.1,0.6,0.3,0.8C-9041.4-7677.9-9041.1-7677.7-9040.9-7677.8z M-9030.6-7678.6
		c0-0.3-0.1-0.6-0.4-0.7c-0.4-0.3-0.9-0.5-1.4-0.6c-0.6-0.2-1.2-0.4-1.7-0.8c-0.4-0.3-0.8-0.7-1-1.2c-0.2-0.5-0.4-1-0.3-1.6
		c0-1,0.4-2,1-2.6c0.8-0.7,1.7-1.1,2.6-1c1-0.1,2,0.3,2.8,1c0.7,0.6,1.1,1.6,1.1,2.7h-2.8c0-0.9-0.4-1.4-1.1-1.4
		c-0.3,0-0.5,0.1-0.7,0.3c-0.2,0.2-0.3,0.5-0.3,0.8c0,0.3,0.1,0.6,0.4,0.8c0.4,0.2,0.7,0.4,1.1,0.5c0.5,0.1,0.9,0.3,1.4,0.4
		c1.3,0.6,2,1.6,2,3.2c0,1-0.4,2-1.1,2.5c-0.8,0.7-1.8,1-2.8,1c-0.7,0-1.4-0.2-2-0.5c-0.6-0.3-1-0.8-1.4-1.4
		c-0.3-0.5-0.5-1.2-0.5-1.9h2.6c0,0.4,0.1,0.9,0.4,1.2c0.3,0.3,0.6,0.4,1,0.4c0.3,0,0.6-0.1,0.8-0.3
		C-9030.7-7678.1-9030.6-7678.3-9030.6-7678.6z M-9023.8-7675.4h-2.8v-11.4h2.8V-7675.4z M-9026.7-7689.7c0-0.5,0.1-0.9,0.4-1.2
		c0.3-0.3,0.7-0.5,1.1-0.5c0.4,0,0.8,0.2,1.1,0.5c0.3,0.3,0.4,0.8,0.4,1.2c0,0.5-0.1,0.9-0.4,1.2c-0.3,0.3-0.7,0.5-1.1,0.5
		c-0.4,0-0.8-0.2-1.1-0.5C-9026.6-7688.8-9026.7-7689.3-9026.7-7689.7L-9026.7-7689.7z M-9021.4-7675.4v-8.9h-1.3v-2.5h1.3v-0.4
		c0-1.3,0.4-2.6,1.2-3.5c0.9-0.8,1.9-1.2,3-1.1c1,0,1.9,0.2,2.9,0.6l-0.4,2.8l-0.5-0.2c-0.6-0.2-1.2-0.3-1.9-0.3
		c-1.1,0-1.6,0.6-1.6,1.9v0.2h1.7v2.5h-1.7v8.9H-9021.4z M-9013.1-7675.4h-2.8v-11.4h2.8V-7675.4z M-9007.7-7678
		c0.3,0,0.7-0.1,0.9-0.4c0.2-0.3,0.3-0.7,0.3-1.1h2.6c0,1.2-0.4,2.3-1,3.1c-0.7,0.8-1.7,1.2-2.7,1.2c-1.1,0.1-2.3-0.5-3-1.6
		c-0.8-1.2-1.2-2.7-1.1-4.3v-0.1c0-1.1,0.2-2.1,0.5-3c0.3-0.8,0.8-1.6,1.4-2c0.7-0.5,1.4-0.7,2.2-0.7c1-0.1,2,0.4,2.7,1.2
		c0.7,0.9,1.1,2.1,1,3.3h-2.6c0-0.5-0.1-1-0.3-1.4c-0.2-0.3-0.6-0.5-0.9-0.5c-0.7,0-1.1,0.6-1.3,1.8c0,0.5-0.1,1-0.1,1.5
		c-0.1,0.8,0.1,1.6,0.3,2.4C-9008.5-7678.2-9008.1-7677.9-9007.7-7678L-9007.7-7678z M-8997.7-7675.4c-0.1-0.3-0.2-0.7-0.3-1
		c-0.5,0.8-1.3,1.3-2.1,1.2c-0.8,0-1.5-0.3-2.1-1c-0.6-0.6-0.9-1.5-0.9-2.4c0-1.1,0.4-2.2,1.1-2.8c0.9-0.7,2-1,3.1-0.9h0.9v-0.6
		c0-1-0.4-1.6-1.1-1.6c-0.5-0.1-0.9,0.3-1,0.9c0,0.1,0,0.2,0,0.3h-2.8c0-1.1,0.4-2.1,1.1-2.7c0.8-0.7,1.8-1.1,2.8-1
		c1-0.1,1.9,0.3,2.7,1.1c0.7,0.7,1,1.8,1,2.9v5c0,0.8,0.1,1.6,0.4,2.4v0.2H-8997.7z M-8999.5-7677.8c0.3,0,0.6-0.1,0.9-0.3
		c0.2-0.2,0.4-0.4,0.5-0.6v-1.8h-0.8c-1,0-1.4,0.6-1.4,1.7c0,0.3,0.1,0.6,0.3,0.8C-8999.9-7677.8-8999.7-7677.7-8999.5-7677.8z
		 M-8990.1-7678c0.3,0,0.7-0.1,0.9-0.4c0.2-0.3,0.3-0.7,0.3-1.1h2.6c0,1.2-0.4,2.3-1,3.1c-0.7,0.8-1.7,1.2-2.7,1.2
		c-1.1,0.1-2.3-0.5-3-1.6c-0.8-1.2-1.2-2.7-1.1-4.3v-0.1c0-1.1,0.2-2.1,0.5-3c0.3-0.8,0.8-1.6,1.4-2c0.7-0.5,1.4-0.7,2.2-0.7
		c1-0.1,2,0.4,2.7,1.2c0.7,0.9,1.1,2.1,1,3.3h-2.6c0-0.5-0.1-1-0.3-1.4c-0.2-0.3-0.6-0.5-0.9-0.5c-0.7,0-1.1,0.6-1.3,1.8
		c0,0.5-0.1,1-0.1,1.5c0,0.8,0.1,1.6,0.3,2.4C-8990.9-7678.2-8990.5-7677.9-8990.1-7678L-8990.1-7678z M-8982.2-7675.4h-2.8v-11.4
		h2.8V-7675.4z M-8985.2-7689.7c0-0.5,0.1-0.9,0.4-1.2c0.3-0.3,0.7-0.5,1.1-0.5c0.4,0,0.8,0.2,1.1,0.5c0.3,0.3,0.4,0.8,0.4,1.2
		c0,0.5-0.1,0.9-0.4,1.2c-0.3,0.3-0.7,0.5-1.1,0.5c-0.4,0-0.8-0.2-1.1-0.5C-8985-7688.8-8985.2-7689.3-8985.2-7689.7L-8985.2-7689.7
		z M-8980.9-7681.2c0-1,0.2-2.1,0.5-3c0.3-0.9,0.8-1.6,1.5-2c0.7-0.5,1.5-0.7,2.3-0.7c1.2-0.1,2.3,0.5,3.1,1.6
		c0.8,1.2,1.2,2.7,1.1,4.3v0.1c0.1,1.5-0.3,3.1-1.1,4.2c-0.8,1.1-2,1.6-3.1,1.6c-1.1,0.1-2.2-0.5-3-1.5c-0.8-1.1-1.2-2.5-1.2-3.9
		L-8980.9-7681.2z M-8978.1-7681c0,0.8,0.1,1.6,0.4,2.3c0.3,0.5,0.7,0.8,1.1,0.7c1,0,1.5-1,1.5-2.9v-0.4c0-2-0.5-3.1-1.5-3.1
		c-0.9,0-1.4,0.9-1.5,2.6L-8978.1-7681z M-8976.2-7691.6h2.9l-2.3,3.3l-2.2,0L-8976.2-7691.6z M-8968.6-7686.8l0.1,1.3
		c0.6-1,1.5-1.6,2.5-1.5c0.8-0.1,1.5,0.3,2.1,1.1c0.5,0.9,0.8,2.1,0.7,3.2v7.3h-2.8v-7.2c0-0.4-0.1-0.9-0.3-1.3
		c-0.3-0.3-0.6-0.5-1-0.4c-0.5,0-1,0.3-1.2,0.8v8h-2.8v-11.4H-8968.6z"/>
	<path id="Trazado_102732" class="st1" d="M-8921.8-7678.8c0,1-0.3,2-0.7,2.8c-0.4,0.8-1,1.5-1.7,1.9c-0.8,0.5-1.7,0.7-2.5,0.7
		c-1.4,0.1-2.8-0.6-3.7-2c-1-1.6-1.4-3.5-1.3-5.6v-0.8c0-1.4,0.2-2.7,0.6-3.9c0.4-1.1,1-2,1.8-2.6c0.8-0.6,1.7-0.9,2.7-0.9
		c1.3-0.1,2.5,0.4,3.5,1.5c0.9,1,1.4,2.5,1.5,4h-2.9c0-0.7-0.2-1.5-0.5-2c-0.4-0.4-1-0.7-1.6-0.6c-0.6-0.1-1.2,0.3-1.6,1
		c-0.4,1-0.6,2.2-0.5,3.3v1.1c-0.1,1.2,0.1,2.4,0.5,3.5c0.4,0.7,1,1.1,1.6,1.1c0.5,0,1.1-0.2,1.5-0.6c0.4-0.5,0.6-1.2,0.6-1.9
		L-8921.8-7678.8z M-8915.3-7674.9c-0.6,0.9-1.4,1.5-2.4,1.4c-0.8,0.1-1.6-0.3-2.2-1.1c-0.5-0.9-0.8-2-0.7-3.1v-7.4h2.8v7.4
		c-0.1,0.7,0.3,1.3,0.8,1.5c0.1,0,0.2,0,0.3,0c0.5,0.1,1.1-0.3,1.3-0.9v-8h2.8v11.4h-2.6L-8915.3-7674.9z M-8906.8-7673.4
		c-1.2,0.1-2.4-0.5-3.3-1.6c-0.8-1.1-1.3-2.5-1.3-4.1v-0.3c0-1.1,0.2-2.1,0.5-3.1c0.3-0.9,0.8-1.6,1.5-2.1c0.7-0.5,1.5-0.8,2.3-0.7
		c1.1-0.1,2.2,0.5,2.9,1.5c0.8,1.2,1.2,2.6,1.1,4.1v1.4h-5.5c0.1,0.6,0.3,1.1,0.6,1.5c0.4,0.4,0.8,0.6,1.3,0.5c0.8,0,1.5-0.4,2-1.2
		l1.3,1.9c-0.4,0.6-0.9,1.1-1.5,1.5C-8905.4-7673.6-8906.1-7673.4-8906.8-7673.4z M-8907.1-7682.5c-0.8,0-1.3,0.7-1.4,2.1h2.8v-0.3
		c0-0.5-0.1-1-0.3-1.3C-8906.4-7682.4-8906.7-7682.5-8907.1-7682.5z M-8899.4-7685l0.1,1.3c0.6-1,1.5-1.6,2.5-1.5
		c0.8-0.1,1.5,0.3,2.1,1.1c0.5,0.9,0.8,2.1,0.7,3.2v7.3h-2.8v-7.2c0-0.4-0.1-0.9-0.3-1.3c-0.3-0.3-0.6-0.5-1-0.4
		c-0.5,0-1,0.3-1.2,0.8v8h-2.8v-11.4L-8899.4-7685z M-8889.3-7687.8v2.8h1.5v2.5h-1.5v5.2c0,0.3,0,0.6,0.2,0.9
		c0.2,0.2,0.5,0.3,0.7,0.3c0.2,0,0.5,0,0.7-0.1v2.5c-0.5,0.2-1,0.3-1.6,0.3c-0.8,0.1-1.5-0.2-2.1-0.9c-0.5-0.7-0.7-1.7-0.7-2.6v-5.6
		h-1.1v-2.5h1.1v-2.8L-8889.3-7687.8z M-8881.8-7673.6c-0.1-0.3-0.2-0.7-0.3-1c-0.5,0.8-1.3,1.3-2.1,1.2c-0.8,0-1.5-0.3-2.1-1
		c-0.6-0.6-0.9-1.5-0.9-2.4c0-1.1,0.4-2.2,1.1-2.8c0.9-0.7,2-1,3.1-0.9h0.9v-0.6c0-1-0.4-1.6-1.1-1.6c-0.5-0.1-0.9,0.3-1,0.9
		c0,0.1,0,0.2,0,0.3h-2.8c0-1.1,0.4-2.1,1.1-2.7c0.8-0.7,1.8-1.1,2.8-1c1-0.1,1.9,0.3,2.7,1.1c0.7,0.7,1,1.8,1,2.9v5
		c0,0.8,0.1,1.6,0.4,2.4v0.2H-8881.8z M-8883.5-7676c0.3,0,0.6-0.1,0.9-0.3c0.2-0.2,0.4-0.4,0.5-0.6v-1.8h-0.8c-1,0-1.4,0.6-1.4,1.7
		c0,0.3,0.1,0.6,0.3,0.8C-8884-7676.1-8883.7-7675.9-8883.5-7676z M-8873.2-7676.8c0-0.3-0.1-0.6-0.4-0.7c-0.4-0.3-0.9-0.5-1.4-0.6
		c-0.6-0.2-1.2-0.4-1.7-0.8c-0.4-0.3-0.8-0.7-1-1.2c-0.2-0.5-0.4-1-0.3-1.6c0-1,0.4-2,1-2.6c0.8-0.7,1.7-1.1,2.6-1
		c1-0.1,2,0.3,2.8,1c0.7,0.6,1.1,1.6,1.1,2.7h-2.8c0-0.9-0.4-1.4-1.1-1.4c-0.3,0-0.5,0.1-0.7,0.3c-0.2,0.2-0.3,0.5-0.3,0.8
		c0,0.3,0.1,0.6,0.4,0.8c0.4,0.2,0.7,0.4,1.1,0.5c0.5,0.1,0.9,0.3,1.4,0.4c1.3,0.6,2,1.6,2,3.2c0,1-0.4,2-1.1,2.5
		c-0.8,0.7-1.8,1-2.8,1c-0.7,0-1.4-0.2-2-0.5c-0.6-0.3-1-0.8-1.4-1.4c-0.3-0.6-0.5-1.2-0.5-1.9h2.6c0,0.4,0.1,0.9,0.4,1.2
		c0.3,0.3,0.6,0.4,1,0.4c0.3,0,0.6-0.1,0.8-0.3C-8873.3-7676.3-8873.2-7676.5-8873.2-7676.8z"/>
	<path id="Trazado_102733" class="st1" d="M-8830.9-7673.6v-15.3h3.8c1,0,2,0.3,2.8,0.9c0.8,0.6,1.5,1.5,2,2.6
		c0.5,1.2,0.7,2.4,0.7,3.8v0.7c0,1.3-0.2,2.6-0.7,3.8c-0.4,1.1-1.1,2-1.9,2.6c-0.9,0.6-1.8,1-2.8,1H-8830.9z M-8828-7686.1v9.6h1
		c0.7,0.1,1.5-0.4,1.9-1.1c0.5-1,0.7-2.2,0.7-3.4v-0.7c0.1-1.2-0.2-2.3-0.7-3.3c-0.5-0.8-1.2-1.2-1.9-1.1H-8828z M-8815.9-7673.4
		c-1.2,0.1-2.4-0.5-3.3-1.6c-0.8-1.1-1.3-2.5-1.3-4.1v-0.3c0-1.1,0.2-2.1,0.5-3.1c0.3-0.9,0.8-1.6,1.5-2.1c0.7-0.5,1.5-0.8,2.3-0.7
		c1.1-0.1,2.2,0.5,2.9,1.5c0.8,1.2,1.2,2.6,1.1,4.1v1.4h-5.5c0.1,0.6,0.3,1.1,0.6,1.5c0.4,0.4,0.8,0.6,1.3,0.5c0.8,0,1.5-0.4,2-1.2
		l1.3,1.9c-0.4,0.6-0.9,1.1-1.5,1.5C-8814.5-7673.6-8815.2-7673.4-8815.9-7673.4z M-8816.2-7682.5c-0.8,0-1.3,0.7-1.4,2.1h2.8v-0.3
		c0-0.5-0.1-1-0.3-1.3C-8815.5-7682.4-8815.8-7682.5-8816.2-7682.5L-8816.2-7682.5z M-8802.8-7679.2c0.1,1.5-0.2,3-0.9,4.3
		c-0.6,1-1.5,1.6-2.5,1.5c-0.9,0-1.7-0.5-2.2-1.4l-0.1,1.2h-2.5v-16.1h2.8v5.7c0.5-0.7,1.2-1.2,2-1.1c1-0.1,1.9,0.5,2.6,1.5
		c0.7,1.3,1,2.8,0.9,4.3V-7679.2z M-8805.6-7679.5c0-0.8-0.1-1.6-0.3-2.3c-0.2-0.5-0.6-0.7-1-0.7c-0.5-0.1-1,0.3-1.3,0.9v4.5
		c0.3,0.6,0.8,1,1.3,0.9c0.6,0.1,1.1-0.5,1.2-1.2C-8805.6-7678.1-8805.6-7678.8-8805.6-7679.5z M-8797.3-7673.4
		c-1.2,0.1-2.4-0.5-3.3-1.6c-0.8-1.1-1.3-2.5-1.3-4.1v-0.3c0-1.1,0.2-2.1,0.5-3.1c0.3-0.9,0.8-1.6,1.5-2.1c0.7-0.5,1.5-0.8,2.3-0.7
		c1.1-0.1,2.2,0.5,2.9,1.5c0.8,1.1,1.2,2.6,1.1,4.1v1.4h-5.5c0.1,0.6,0.3,1.1,0.6,1.5c0.4,0.4,0.8,0.6,1.3,0.5c0.8,0,1.5-0.4,2-1.2
		l1.3,1.9c-0.4,0.6-0.9,1.1-1.5,1.5C-8796-7673.6-8796.6-7673.4-8797.3-7673.4z M-8797.7-7682.5c-0.8,0-1.3,0.7-1.4,2.1h2.8v-0.3
		c0-0.5-0.1-1-0.3-1.3C-8796.9-7682.4-8797.3-7682.5-8797.7-7682.5L-8797.7-7682.5z"/>
	<path id="Trazado_102734" class="st1" d="M-8740.7-7673.6h-2.9v-6.4h-4.2v6.4h-2.9v-15.3h2.9v6.1h4.2v-6.1h2.9V-7673.6z
		 M-8734-7673.6c-0.1-0.3-0.2-0.7-0.3-1c-0.5,0.8-1.3,1.3-2.1,1.2c-0.8,0-1.5-0.3-2.1-1c-0.6-0.6-0.9-1.5-0.9-2.4
		c0-1.1,0.4-2.2,1.1-2.8c0.9-0.7,2-1,3.1-0.9h0.9v-0.6c0-1-0.4-1.6-1.1-1.6c-0.5-0.1-0.9,0.3-1,0.9c0,0.1,0,0.2,0,0.3h-2.8
		c0-1.1,0.4-2.1,1.1-2.7c0.8-0.7,1.8-1.1,2.8-1c1-0.1,1.9,0.3,2.7,1.1c0.7,0.7,1,1.8,1,2.9v5c0,0.8,0.1,1.6,0.4,2.4v0.2H-8734z
		 M-8735.7-7676c0.3,0,0.6-0.1,0.9-0.3c0.2-0.2,0.4-0.4,0.5-0.6v-1.8h-0.8c-1,0-1.4,0.6-1.4,1.7c0,0.3,0.1,0.6,0.3,0.8
		C-8736.2-7676.1-8736-7675.9-8735.7-7676z M-8721.9-7679.2c0.1,1.5-0.2,3-0.9,4.3c-0.6,1-1.5,1.6-2.5,1.5c-0.9,0-1.7-0.5-2.2-1.4
		l-0.1,1.2h-2.5v-16.1h2.8v5.7c0.5-0.7,1.2-1.2,2-1.1c1-0.1,1.9,0.5,2.6,1.5c0.7,1.3,1,2.8,0.9,4.3V-7679.2z M-8724.7-7679.5
		c0-0.8-0.1-1.6-0.3-2.3c-0.2-0.5-0.6-0.7-1-0.7c-0.5-0.1-1,0.3-1.3,0.9v4.5c0.3,0.6,0.8,1,1.3,0.9c0.6,0.1,1.1-0.5,1.2-1.2
		C-8724.7-7678.1-8724.6-7678.8-8724.7-7679.5z M-8716.4-7673.4c-1.2,0.1-2.4-0.5-3.3-1.6c-0.8-1.1-1.3-2.5-1.3-4.1v-0.3
		c0-1.1,0.2-2.1,0.5-3.1c0.3-0.9,0.8-1.6,1.5-2.1c0.7-0.5,1.5-0.8,2.3-0.7c1.1-0.1,2.2,0.5,2.9,1.5c0.8,1.2,1.2,2.6,1.1,4.1v1.4
		h-5.5c0.1,0.6,0.3,1.1,0.6,1.5c0.4,0.4,0.8,0.6,1.3,0.5c0.8,0,1.5-0.4,2-1.2l1.3,1.9c-0.4,0.6-0.9,1.1-1.5,1.5
		C-8715-7673.6-8715.7-7673.4-8716.4-7673.4z M-8716.7-7682.5c-0.8,0-1.3,0.7-1.4,2.1h2.8v-0.3c0-0.5-0.1-1-0.3-1.3
		C-8716-7682.4-8716.3-7682.5-8716.7-7682.5L-8716.7-7682.5z M-8706.2-7681.8l-0.9-0.1c-0.7-0.1-1.3,0.3-1.7,1.1v7.2h-2.8v-11.4h2.6
		l0.1,1.5c0.3-1,1.1-1.7,1.9-1.7c0.3,0,0.5,0,0.8,0.1L-8706.2-7681.8z"/>
</g>
</svg>
