<?xml version="1.0" encoding="utf-8"?>
<!-- Generator: Adobe Illustrator 25.2.3, SVG Export Plug-In . SVG Version: 6.00 Build 0)  -->
<svg version="1.1" id="Capa_1" xmlns="http://www.w3.org/2000/svg" xmlns:xlink="http://www.w3.org/1999/xlink" x="0px" y="0px"
	 viewBox="0 0 573 201.2" style="enable-background:new 0 0 573 201.2;" xml:space="preserve">
<style type="text/css">
	.st0{fill:#F6F6F6;}
	.st1{fill:#FFFFFF;}
	.st2{fill:#12263F;}
	.st3{fill:none;stroke:#AFAFAF;stroke-linecap:round;}
	.st4{fill:#D9A171;}
</style>
<g id="Grupo_54938" transform="translate(8510 7718.676)">
	<rect id="Rectángulo_5403" x="-8423.5" y="-7650" class="st0" width="400" height="55.8"/>
	<rect id="Rectángulo_5404" x="-8423.5" y="-7594.1" class="st1" width="400" height="55.8"/>
	<path id="Trazado_102745" class="st2" d="M-8403.1-7619.2h-3l-0.5,1.9h-2.3l3.3-10.2h2l3.3,10.2h-2.3L-8403.1-7619.2z
		 M-8405.5-7621.1h1.9l-1-3.5L-8405.5-7621.1z M-8396.9-7619c0.2,0,0.5-0.1,0.7-0.3c0.2-0.2,0.3-0.5,0.2-0.8h1.9
		c0,0.8-0.3,1.5-0.8,2c-0.6,0.5-1.3,0.8-2,0.8c-0.9,0.1-1.7-0.3-2.3-1c-0.6-0.8-0.9-1.8-0.8-2.9v-0.1c0-0.7,0.1-1.4,0.4-2
		c0.2-0.6,0.6-1,1.1-1.4c0.5-0.3,1.1-0.5,1.7-0.5c0.8,0,1.5,0.3,2.1,0.8c0.5,0.6,0.8,1.4,0.8,2.2h-1.9c0-0.3-0.1-0.6-0.3-0.9
		c-0.2-0.2-0.4-0.3-0.7-0.3c-0.5,0-0.8,0.4-0.9,1.2c0,0.3,0,0.7,0,1c0,0.5,0,1.1,0.2,1.6C-8397.5-7619.1-8397.2-7618.9-8396.9-7619z
		 M-8390.8-7626.7v1.9h1.1v1.6h-1.1v3.5c0,0.2,0,0.4,0.1,0.6c0.2,0.1,0.3,0.2,0.5,0.2c0.2,0,0.3,0,0.5,0v1.7
		c-0.4,0.1-0.8,0.2-1.2,0.2c-0.6,0.1-1.1-0.2-1.6-0.6c-0.4-0.5-0.6-1.1-0.5-1.7v-3.8h-0.8v-1.6h0.8v-1.9H-8390.8z M-8386.7-7617.3
		h-2.1v-7.6h2.1V-7617.3z M-8388.9-7626.8c0-0.3,0.1-0.6,0.3-0.8c0.5-0.4,1.2-0.4,1.7,0c0.2,0.2,0.3,0.5,0.3,0.8
		c0,0.3-0.1,0.6-0.3,0.8c-0.5,0.4-1.2,0.4-1.7,0C-8388.8-7626.2-8388.9-7626.5-8388.9-7626.8z M-8382.8-7620.1l1-4.8h2.2l-2.2,7.6
		h-2.1l-2.2-7.6h2.2L-8382.8-7620.1z M-8379.3-7621.1c0-0.7,0.1-1.4,0.4-2c0.2-0.6,0.6-1,1.1-1.4c0.5-0.3,1.1-0.5,1.7-0.5
		c0.9-0.1,1.7,0.3,2.3,1.1c0.6,0.8,0.9,1.8,0.9,2.9v0.1c0,1-0.3,2-0.9,2.8c-0.6,0.7-1.5,1.1-2.3,1c-0.8,0-1.7-0.3-2.3-1
		c-0.6-0.7-0.9-1.7-0.9-2.6L-8379.3-7621.1z M-8377.2-7621c0,0.5,0.1,1.1,0.3,1.5c0.2,0.3,0.5,0.5,0.9,0.5c0.7,0,1.1-0.6,1.1-1.9
		v-0.2c0-1.4-0.4-2-1.1-2c-0.7,0-1.1,0.6-1.1,1.8L-8377.2-7621z M-8366-7619c0.2,0,0.5-0.1,0.7-0.3c0.2-0.2,0.3-0.5,0.2-0.8h1.9
		c0,0.8-0.3,1.5-0.8,2c-0.6,0.5-1.3,0.8-2,0.8c-0.9,0.1-1.7-0.3-2.3-1c-0.6-0.8-0.9-1.8-0.8-2.9v-0.1c0-0.7,0.1-1.4,0.4-2
		c0.2-0.6,0.6-1,1.1-1.4c0.5-0.3,1.1-0.5,1.7-0.5c0.8,0,1.5,0.2,2.1,0.8c0.5,0.6,0.8,1.4,0.8,2.2h-1.9c0-0.3-0.1-0.6-0.3-0.9
		c-0.2-0.2-0.4-0.3-0.7-0.3c-0.5,0-0.8,0.4-0.9,1.2c0,0.3,0,0.7,0,1c0,0.5,0,1.1,0.2,1.6C-8366.6-7619.1-8366.3-7618.9-8366-7619
		L-8366-7619z M-8362.6-7621.1c0-0.7,0.1-1.4,0.4-2c0.2-0.6,0.6-1,1.1-1.4c0.5-0.3,1.1-0.5,1.7-0.5c0.9-0.1,1.7,0.3,2.3,1.1
		c0.6,0.8,0.9,1.8,0.9,2.9v0.1c0,1-0.3,2-0.9,2.8c-0.6,0.7-1.5,1.1-2.3,1c-0.8,0-1.7-0.3-2.3-1c-0.6-0.7-0.9-1.7-0.9-2.6
		L-8362.6-7621.1z M-8360.5-7621c0,0.5,0.1,1.1,0.3,1.5c0.2,0.3,0.5,0.5,0.9,0.5c0.7,0,1.1-0.6,1.1-1.9v-0.2c0-1.4-0.4-2-1.1-2
		c-0.7,0-1.1,0.6-1.1,1.8L-8360.5-7621z M-8351.2-7622.7l-0.7-0.1c-0.5-0.1-1,0.2-1.3,0.7v4.8h-2.1v-7.6h1.9l0.1,1
		c0.2-0.7,0.8-1.1,1.5-1.1c0.2,0,0.4,0,0.6,0.1L-8351.2-7622.7z M-8347.8-7626.7v1.9h1.1v1.6h-1.1v3.5c0,0.2,0,0.4,0.1,0.6
		c0.2,0.1,0.3,0.2,0.5,0.2c0.2,0,0.3,0,0.5,0v1.7c-0.4,0.1-0.8,0.2-1.2,0.2c-0.6,0.1-1.1-0.2-1.6-0.6c-0.4-0.5-0.6-1.1-0.5-1.7v-3.8
		h-0.8v-1.6h0.8v-1.9H-8347.8z M-8346.3-7621.1c0-0.7,0.1-1.4,0.4-2c0.2-0.6,0.6-1,1.1-1.4c0.5-0.3,1.1-0.5,1.7-0.5
		c0.9-0.1,1.7,0.3,2.3,1.1c0.6,0.8,0.9,1.8,0.9,2.9v0.1c0,1-0.3,2-0.9,2.8c-0.6,0.7-1.5,1.1-2.3,1c-0.8,0-1.7-0.3-2.3-1
		c-0.6-0.7-0.9-1.7-0.9-2.6L-8346.3-7621.1z M-8344.2-7621c0,0.5,0.1,1.1,0.3,1.5c0.2,0.3,0.5,0.5,0.9,0.5c0.7,0,1.1-0.6,1.1-1.9
		v-0.2c0-1.4-0.4-2-1.1-2c-0.7,0-1.1,0.6-1.1,1.8L-8344.2-7621z M-8329.7-7621c0,1-0.2,2-0.7,2.8c-0.4,0.7-1.1,1.1-1.9,1.1
		c-0.6,0-1.1-0.3-1.5-0.8v3.5h-2.1v-10.5h1.9l0.1,0.7c0.4-0.5,1-0.9,1.6-0.8c0.7,0,1.5,0.4,1.9,1c0.5,0.8,0.7,1.8,0.7,2.8
		L-8329.7-7621z M-8331.8-7621.2c0-1.3-0.3-2-1-2c-0.4-0.1-0.8,0.2-1,0.6v3c0.2,0.4,0.6,0.7,1,0.6c0.7,0,1-0.6,1-1.9V-7621.2z
		 M-8326.6-7617.3h-2.1v-10.8h2.1V-7617.3z M-8321.6-7617.3c-0.1-0.2-0.2-0.4-0.2-0.7c-0.4,0.5-1,0.9-1.6,0.8
		c-0.6,0-1.2-0.2-1.6-0.6c-0.4-0.4-0.7-1-0.7-1.6c0-0.7,0.3-1.4,0.8-1.9c0.7-0.5,1.5-0.7,2.3-0.6h0.6v-0.4c0-0.7-0.3-1-0.8-1
		c-0.4-0.1-0.7,0.2-0.7,0.6c0,0.1,0,0.1,0,0.2h-2.1c0-0.7,0.3-1.4,0.8-1.8c0.6-0.5,1.3-0.7,2.1-0.7c0.7,0,1.4,0.2,2,0.7
		c0.5,0.5,0.8,1.2,0.8,1.9v3.4c0,0.5,0.1,1.1,0.3,1.6v0.1H-8321.6z M-8322.9-7618.8c0.2,0,0.4-0.1,0.6-0.2c0.2-0.1,0.3-0.3,0.4-0.4
		v-1.2h-0.6c-0.7,0-1.1,0.4-1.1,1.1c0,0.2,0.1,0.4,0.2,0.5C-8323.2-7618.9-8323.1-7618.8-8322.9-7618.8L-8322.9-7618.8z
		 M-8316.2-7619.1h3v1.8h-5.6v-1.3l2.9-4.4h-2.8v-1.8h5.4v1.3L-8316.2-7619.1z M-8312.5-7621.1c0-0.7,0.1-1.4,0.4-2
		c0.2-0.6,0.6-1,1.1-1.4c0.5-0.3,1.1-0.5,1.7-0.5c0.9-0.1,1.7,0.3,2.3,1.1c0.6,0.8,0.9,1.8,0.9,2.9v0.1c0,1-0.3,2-0.9,2.8
		c-0.6,0.7-1.5,1.1-2.3,1c-0.8,0-1.7-0.3-2.3-1c-0.6-0.7-0.9-1.7-0.9-2.6L-8312.5-7621.1z M-8310.5-7621c0,0.5,0.1,1.1,0.3,1.5
		c0.2,0.3,0.5,0.5,0.9,0.5c0.7,0,1.1-0.6,1.1-1.9v-0.2c0-1.4-0.4-2-1.1-2c-0.7,0-1.1,0.6-1.1,1.8L-8310.5-7621z"/>
	<path id="Trazado_102748" class="st2" d="M-8403.1-7562.6h-3l-0.5,1.9h-2.3l3.3-10.2h2l3.3,10.2h-2.3L-8403.1-7562.6z
		 M-8405.5-7564.5h1.9l-1-3.5L-8405.5-7564.5z M-8396.9-7562.3c0.2,0,0.5-0.1,0.7-0.3c0.2-0.2,0.3-0.5,0.2-0.8h1.9
		c0,0.8-0.3,1.5-0.8,2c-0.6,0.5-1.3,0.8-2,0.8c-0.9,0.1-1.7-0.3-2.3-1c-0.6-0.8-0.9-1.8-0.8-2.9v-0.1c0-0.7,0.1-1.4,0.4-2
		c0.2-0.6,0.6-1,1.1-1.4c0.5-0.3,1.1-0.5,1.7-0.5c0.8,0,1.5,0.3,2.1,0.8c0.5,0.6,0.8,1.4,0.8,2.2h-1.9c0-0.3-0.1-0.6-0.3-0.9
		c-0.2-0.2-0.4-0.3-0.7-0.3c-0.5,0-0.8,0.4-0.9,1.2c0,0.3,0,0.7,0,1c0,0.5,0,1.1,0.2,1.6
		C-8397.5-7562.5-8397.2-7562.3-8396.9-7562.3z M-8390.8-7570.1v1.9h1.1v1.6h-1.1v3.5c0,0.2,0,0.4,0.1,0.6c0.2,0.1,0.3,0.2,0.5,0.2
		c0.2,0,0.3,0,0.5,0v1.7c-0.4,0.1-0.8,0.2-1.2,0.2c-0.6,0.1-1.1-0.2-1.6-0.6c-0.4-0.5-0.6-1.1-0.5-1.7v-3.8h-0.8v-1.6h0.8v-1.9
		H-8390.8z M-8386.7-7560.7h-2.1v-7.6h2.1V-7560.7z M-8388.9-7570.2c0-0.3,0.1-0.6,0.3-0.8c0.5-0.4,1.2-0.4,1.7,0
		c0.2,0.2,0.3,0.5,0.3,0.8c0,0.3-0.1,0.6-0.3,0.8c-0.5,0.4-1.2,0.4-1.7,0C-8388.8-7569.6-8388.9-7569.9-8388.9-7570.2z
		 M-8382.8-7563.5l1-4.8h2.2l-2.2,7.6h-2.1l-2.2-7.6h2.2L-8382.8-7563.5z M-8379.3-7564.5c0-0.7,0.1-1.4,0.4-2
		c0.2-0.6,0.6-1,1.1-1.4c0.5-0.3,1.1-0.5,1.7-0.5c0.9-0.1,1.7,0.3,2.3,1.1c0.6,0.8,0.9,1.8,0.9,2.9v0.1c0,1-0.3,2-0.9,2.8
		c-0.6,0.7-1.5,1.1-2.3,1c-0.8,0-1.7-0.3-2.3-1c-0.6-0.7-0.9-1.7-0.9-2.6L-8379.3-7564.5z M-8377.2-7564.4c0,0.5,0.1,1.1,0.3,1.5
		c0.2,0.3,0.5,0.5,0.9,0.5c0.7,0,1.1-0.6,1.1-1.9v-0.2c0-1.4-0.4-2-1.1-2c-0.7,0-1.1,0.6-1.1,1.8L-8377.2-7564.4z M-8366-7562.3
		c0.2,0,0.5-0.1,0.7-0.3c0.2-0.2,0.3-0.5,0.2-0.8h1.9c0,0.8-0.3,1.5-0.8,2c-0.6,0.5-1.3,0.8-2,0.8c-0.9,0.1-1.7-0.3-2.3-1
		c-0.6-0.8-0.9-1.8-0.8-2.9v-0.1c0-0.7,0.1-1.4,0.4-2c0.2-0.6,0.6-1,1.1-1.4c0.5-0.3,1.1-0.5,1.7-0.5c0.8,0,1.5,0.2,2.1,0.8
		c0.5,0.6,0.8,1.4,0.8,2.2h-1.9c0-0.3-0.1-0.6-0.3-0.9c-0.2-0.2-0.4-0.3-0.7-0.3c-0.5,0-0.8,0.4-0.9,1.2c0,0.3,0,0.7,0,1
		c0,0.5,0,1.1,0.2,1.6C-8366.6-7562.5-8366.3-7562.3-8366-7562.3L-8366-7562.3z M-8362.6-7564.5c0-0.7,0.1-1.4,0.4-2
		c0.2-0.6,0.6-1,1.1-1.4c0.5-0.3,1.1-0.5,1.7-0.5c0.9-0.1,1.7,0.3,2.3,1.1c0.6,0.8,0.9,1.8,0.9,2.9v0.1c0,1-0.3,2-0.9,2.8
		c-0.6,0.7-1.5,1.1-2.3,1c-0.8,0-1.7-0.3-2.3-1c-0.6-0.7-0.9-1.6-0.9-2.6L-8362.6-7564.5z M-8360.5-7564.4c0,0.5,0.1,1.1,0.3,1.5
		c0.2,0.3,0.5,0.5,0.9,0.5c0.7,0,1.1-0.6,1.1-1.9v-0.2c0-1.4-0.4-2-1.1-2c-0.7,0-1.1,0.6-1.1,1.8L-8360.5-7564.4z M-8351.2-7566.1
		l-0.7-0.1c-0.5-0.1-1,0.2-1.3,0.7v4.8h-2.1v-7.6h1.9l0.1,1c0.2-0.7,0.8-1.1,1.5-1.1c0.2,0,0.4,0,0.6,0.1L-8351.2-7566.1z
		 M-8347.8-7570.1v1.9h1.1v1.6h-1.1v3.5c0,0.2,0,0.4,0.1,0.6c0.2,0.1,0.3,0.2,0.5,0.2c0.2,0,0.3,0,0.5,0v1.7
		c-0.4,0.1-0.8,0.2-1.2,0.2c-0.6,0.1-1.1-0.2-1.6-0.6c-0.4-0.5-0.6-1.1-0.5-1.7v-3.8h-0.8v-1.6h0.8v-1.9H-8347.8z M-8346.3-7564.5
		c0-0.7,0.1-1.4,0.4-2c0.2-0.6,0.6-1,1.1-1.4c0.5-0.3,1.1-0.5,1.7-0.5c0.9-0.1,1.7,0.3,2.3,1.1c0.6,0.8,0.9,1.8,0.9,2.9v0.1
		c0,1-0.3,2-0.9,2.8c-0.6,0.7-1.5,1.1-2.3,1c-0.8,0-1.7-0.3-2.3-1c-0.6-0.7-0.9-1.7-0.9-2.6L-8346.3-7564.5z M-8344.2-7564.4
		c0,0.5,0.1,1.1,0.3,1.5c0.2,0.3,0.5,0.5,0.9,0.5c0.7,0,1.1-0.6,1.1-1.9v-0.2c0-1.4-0.4-2-1.1-2c-0.7,0-1.1,0.6-1.1,1.8
		L-8344.2-7564.4z M-8329.7-7564.4c0,1-0.2,2-0.7,2.8c-0.4,0.7-1.1,1.1-1.9,1.1c-0.6,0-1.1-0.3-1.5-0.8v3.5h-2.1v-10.5h1.9l0.1,0.7
		c0.4-0.5,1-0.9,1.6-0.8c0.7,0,1.5,0.4,1.9,1c0.5,0.8,0.7,1.8,0.7,2.8L-8329.7-7564.4z M-8331.8-7564.5c0-1.3-0.3-2-1-2
		c-0.4-0.1-0.8,0.2-1,0.6v3c0.2,0.4,0.6,0.7,1,0.6c0.7,0,1-0.6,1-1.9V-7564.5z M-8326.6-7560.7h-2.1v-10.8h2.1V-7560.7z
		 M-8321.6-7560.7c-0.1-0.2-0.2-0.4-0.2-0.7c-0.4,0.5-1,0.9-1.6,0.8c-0.6,0-1.2-0.2-1.6-0.6c-0.4-0.4-0.7-1-0.7-1.6
		c0-0.7,0.3-1.4,0.8-1.9c0.7-0.5,1.5-0.7,2.3-0.6h0.6v-0.4c0-0.7-0.3-1-0.8-1c-0.4-0.1-0.7,0.2-0.7,0.6c0,0.1,0,0.1,0,0.2h-2.1
		c0-0.7,0.3-1.4,0.8-1.8c0.6-0.5,1.3-0.7,2.1-0.7c0.7,0,1.4,0.2,2,0.7c0.5,0.5,0.8,1.2,0.8,1.9v3.4c0,0.5,0.1,1.1,0.3,1.6v0.1
		H-8321.6z M-8322.9-7562.2c0.2,0,0.4-0.1,0.6-0.2c0.2-0.1,0.3-0.3,0.4-0.4v-1.2h-0.6c-0.7,0-1.1,0.4-1.1,1.1c0,0.2,0.1,0.4,0.2,0.5
		C-8323.2-7562.3-8323.1-7562.2-8322.9-7562.2L-8322.9-7562.2z M-8316.2-7562.5h3v1.8h-5.6v-1.3l2.9-4.4h-2.8v-1.8h5.4v1.3
		L-8316.2-7562.5z M-8312.5-7564.5c0-0.7,0.1-1.4,0.4-2c0.2-0.6,0.6-1,1.1-1.4c0.5-0.3,1.1-0.5,1.7-0.5c0.9-0.1,1.7,0.3,2.3,1.1
		c0.6,0.8,0.9,1.8,0.9,2.9v0.1c0,1-0.3,2-0.9,2.8c-0.6,0.7-1.5,1.1-2.3,1c-0.8,0-1.7-0.3-2.3-1c-0.6-0.7-0.9-1.7-0.9-2.6
		L-8312.5-7564.5z M-8310.5-7564.4c0,0.5,0.1,1.1,0.3,1.5c0.2,0.3,0.5,0.5,0.9,0.5c0.7,0,1.1-0.6,1.1-1.9v-0.2c0-1.4-0.4-2-1.1-2
		c-0.7,0-1.1,0.6-1.1,1.8L-8310.5-7564.4z"/>
	<path id="Trazado_102746" class="st2" d="M-8262.7-7622.9v-9.1h2.6c0.7-0.1,1.4,0.2,1.9,0.6c0.5,0.5,0.7,1.1,0.7,1.8
		c0,0.4-0.1,0.8-0.3,1.1c-0.2,0.3-0.5,0.6-0.9,0.8c0.4,0.1,0.8,0.4,1,0.8c0.3,0.4,0.4,0.9,0.4,1.4c0,0.7-0.2,1.4-0.7,1.9
		c-0.6,0.5-1.2,0.7-2,0.7L-8262.7-7622.9z M-8261.7-7627.1v3.3h1.7c0.4,0,0.8-0.1,1.2-0.4c0.3-0.3,0.4-0.7,0.4-1.2
		c0-1.1-0.5-1.6-1.6-1.6L-8261.7-7627.1z M-8261.7-7628.1h1.6c0.4,0,0.8-0.1,1.1-0.4c0.3-0.3,0.4-0.7,0.4-1.1c0-0.4-0.1-0.8-0.4-1.1
		c-0.3-0.3-0.8-0.4-1.2-0.3h-1.5V-7628.1z M-8252.3-7622.9c-0.1-0.2-0.1-0.5-0.1-0.7c-0.4,0.5-1,0.8-1.7,0.8c-0.5,0-1-0.2-1.4-0.6
		c-0.4-0.4-0.6-0.9-0.6-1.4c0-0.6,0.2-1.3,0.7-1.6c0.6-0.4,1.3-0.6,2-0.6h1v-0.5c0-0.4-0.1-0.7-0.3-1c-0.3-0.3-0.6-0.4-0.9-0.4
		c-0.3,0-0.6,0.1-0.9,0.3c-0.2,0.2-0.4,0.4-0.4,0.8h-1c0-0.4,0.1-0.7,0.3-1c0.2-0.3,0.5-0.6,0.9-0.7c0.4-0.2,0.8-0.3,1.2-0.3
		c0.6,0,1.1,0.2,1.6,0.6c0.4,0.4,0.6,1,0.6,1.6v3.1c0,0.5,0.1,1,0.2,1.5v0.1H-8252.3z M-8254-7623.7c0.3,0,0.6-0.1,0.9-0.3
		c0.3-0.2,0.5-0.4,0.6-0.7v-1.4h-0.8c-1.2,0-1.9,0.4-1.9,1.2c0,0.3,0.1,0.6,0.3,0.8C-8254.5-7623.8-8254.2-7623.7-8254-7623.7
		L-8254-7623.7z M-8248.9-7629.6l0,0.8c0.4-0.6,1.1-1,1.8-1c1.2,0,1.9,0.8,1.9,2.4v4.5h-1v-4.5c0-0.4-0.1-0.8-0.3-1.1
		c-0.2-0.3-0.6-0.4-0.9-0.3c-0.3,0-0.6,0.1-0.9,0.3c-0.2,0.2-0.4,0.5-0.6,0.8v4.8h-1v-6.7L-8248.9-7629.6z M-8241.3-7623.7
		c0.3,0,0.7-0.1,0.9-0.4c0.3-0.2,0.4-0.6,0.4-0.9h1c0,0.4-0.1,0.8-0.3,1.1c-0.2,0.4-0.5,0.6-0.9,0.8c-0.4,0.2-0.7,0.3-1.1,0.3
		c-0.7,0-1.4-0.3-1.9-0.9c-0.5-0.7-0.8-1.6-0.7-2.5v-0.2c0-0.6,0.1-1.2,0.3-1.8c0.2-0.5,0.5-0.9,0.9-1.2c0.4-0.3,0.9-0.4,1.4-0.4
		c0.6,0,1.2,0.2,1.6,0.7c0.4,0.5,0.7,1.1,0.7,1.8h-0.9c0-0.4-0.2-0.8-0.4-1.1c-0.3-0.3-0.6-0.4-1-0.4c-0.5,0-0.9,0.2-1.2,0.6
		c-0.3,0.5-0.5,1.2-0.4,1.8v0.2c0,0.6,0.1,1.3,0.4,1.8C-8242.2-7623.9-8241.8-7623.6-8241.3-7623.7L-8241.3-7623.7z M-8238.1-7626.3
		c0-0.6,0.1-1.2,0.3-1.8c0.2-0.5,0.5-0.9,1-1.2c0.4-0.3,0.9-0.4,1.4-0.4c0.7,0,1.5,0.3,2,1c0.5,0.7,0.8,1.6,0.7,2.5v0.1
		c0,0.6-0.1,1.2-0.3,1.8c-0.2,0.5-0.5,0.9-0.9,1.2c-0.4,0.3-0.9,0.4-1.4,0.4c-0.7,0-1.5-0.3-1.9-1
		C-8237.9-7624.4-8238.1-7625.3-8238.1-7626.3L-8238.1-7626.3z M-8237.1-7626.1c0,0.6,0.1,1.3,0.5,1.8c0.5,0.8,1.5,0.9,2.2,0.3
		c0.1-0.1,0.2-0.2,0.3-0.3c0.3-0.6,0.5-1.2,0.5-1.9c0-0.6-0.1-1.3-0.5-1.8c-0.3-0.4-0.7-0.7-1.2-0.7c-0.5,0-0.9,0.2-1.2,0.7
		C-8237-7627.5-8237.1-7626.8-8237.1-7626.1L-8237.1-7626.1z M-8228-7624.6c0-0.3-0.1-0.6-0.3-0.7c-0.3-0.2-0.7-0.4-1.1-0.4
		c-0.4-0.1-0.8-0.2-1.2-0.4c-0.3-0.1-0.5-0.4-0.7-0.6c-0.1-0.3-0.2-0.6-0.2-0.9c0-0.6,0.2-1.1,0.6-1.4c0.4-0.4,1-0.6,1.6-0.6
		c0.6,0,1.2,0.2,1.6,0.6c0.4,0.4,0.6,0.9,0.6,1.5h-1c0-0.3-0.1-0.6-0.3-0.8c-0.2-0.2-0.6-0.4-0.9-0.3c-0.3,0-0.6,0.1-0.9,0.3
		c-0.2,0.2-0.3,0.4-0.3,0.7c0,0.3,0.1,0.5,0.3,0.6c0.3,0.2,0.7,0.3,1,0.4c0.4,0.1,0.8,0.3,1.2,0.5c0.3,0.1,0.5,0.4,0.7,0.6
		c0.2,0.3,0.2,0.6,0.2,0.9c0,0.6-0.2,1.1-0.6,1.4c-0.5,0.4-1.1,0.6-1.6,0.5c-0.4,0-0.9-0.1-1.3-0.3c-0.3-0.2-0.6-0.4-0.9-0.8
		c-0.2-0.3-0.3-0.7-0.3-1.1h1c0,0.4,0.2,0.7,0.4,0.9c0.3,0.2,0.6,0.4,1,0.3c0.3,0,0.6-0.1,0.9-0.3
		C-8228.2-7624.1-8228-7624.3-8228-7624.6L-8228-7624.6z"/>
	<path id="Trazado_102749" class="st2" d="M-8256.9-7575.5c-0.1,0.8-0.4,1.6-0.9,2.2c-0.6,0.5-1.3,0.8-2.1,0.8
		c-0.9,0-1.7-0.4-2.3-1.2c-0.6-0.9-0.9-2-0.8-3.1v-0.9c0-0.8,0.1-1.5,0.4-2.2c0.2-0.6,0.6-1.1,1.1-1.5c0.5-0.3,1.1-0.5,1.7-0.5
		c0.7,0,1.5,0.2,2,0.8c0.5,0.6,0.8,1.4,0.9,2.2h-1.1c0-0.6-0.2-1.1-0.6-1.6c-0.4-0.3-0.8-0.5-1.3-0.5c-0.6,0-1.2,0.3-1.6,0.8
		c-0.4,0.7-0.6,1.6-0.6,2.4v0.9c0,0.8,0.2,1.6,0.5,2.4c0.3,0.6,0.9,0.9,1.5,0.9c0.5,0,1-0.1,1.3-0.5c0.4-0.4,0.6-1,0.6-1.6H-8256.9z
		 M-8254.5-7572.6h-1v-9.6h1V-7572.6z M-8251.8-7572.6h-1v-6.7h1V-7572.6z M-8252.9-7581.2c0-0.2,0-0.3,0.2-0.5
		c0.1-0.1,0.3-0.2,0.4-0.2c0.2,0,0.3,0.1,0.4,0.2c0.1,0.1,0.2,0.3,0.2,0.5c0,0.2,0,0.3-0.2,0.5c-0.1,0.1-0.3,0.2-0.4,0.2
		c-0.2,0-0.3-0.1-0.4-0.2C-8252.8-7580.8-8252.9-7581-8252.9-7581.2z M-8247.7-7572.5c-0.7,0-1.4-0.3-2-0.9
		c-0.5-0.7-0.8-1.5-0.8-2.4v-0.2c0-0.6,0.1-1.2,0.3-1.8c0.2-0.5,0.5-0.9,0.9-1.2c0.4-0.3,0.8-0.4,1.3-0.4c0.7,0,1.3,0.3,1.8,0.9
		c0.5,0.7,0.7,1.6,0.6,2.5v0.5h-4c0,0.6,0.2,1.2,0.5,1.6c0.3,0.4,0.8,0.6,1.2,0.6c0.3,0,0.6-0.1,0.9-0.2c0.3-0.2,0.5-0.4,0.6-0.7
		l0.6,0.5C-8246-7572.9-8246.8-7572.4-8247.7-7572.5L-8247.7-7572.5z M-8247.9-7578.5c-0.4,0-0.8,0.2-1,0.5
		c-0.3,0.4-0.5,0.9-0.5,1.4h3v-0.1c0-0.5-0.1-1-0.4-1.4C-8247.1-7578.4-8247.5-7578.6-8247.9-7578.5z M-8243.3-7579.4l0,0.8
		c0.4-0.6,1.1-1,1.8-1c1.2,0,1.9,0.8,1.9,2.4v4.5h-1v-4.5c0-0.4-0.1-0.8-0.3-1.1c-0.2-0.3-0.6-0.4-0.9-0.3c-0.3,0-0.6,0.1-0.9,0.3
		c-0.2,0.2-0.4,0.5-0.6,0.8v4.8h-1v-6.7H-8243.3z M-8236.7-7581v1.6h1.1v0.9h-1.1v4.2c0,0.2,0,0.4,0.1,0.6c0.1,0.2,0.3,0.2,0.5,0.2
		c0.2,0,0.3,0,0.5-0.1v0.9c-0.3,0.1-0.5,0.1-0.8,0.1c-0.4,0-0.8-0.1-1-0.5c-0.2-0.4-0.4-0.9-0.3-1.3v-4.2h-1.1v-0.9h1.1v-1.6
		H-8236.7z M-8232-7572.5c-0.7,0-1.4-0.3-2-0.9c-0.5-0.7-0.8-1.5-0.8-2.4v-0.2c0-0.6,0.1-1.2,0.3-1.8c0.2-0.5,0.5-0.9,0.9-1.2
		c0.4-0.3,0.8-0.4,1.3-0.4c0.7,0,1.3,0.3,1.8,0.9c0.5,0.7,0.7,1.6,0.6,2.5v0.5h-4c0,0.6,0.2,1.2,0.5,1.6c0.3,0.4,0.8,0.6,1.2,0.6
		c0.3,0,0.6-0.1,0.9-0.2c0.3-0.2,0.5-0.4,0.6-0.7l0.6,0.5C-8230.3-7572.9-8231.1-7572.4-8232-7572.5L-8232-7572.5z M-8232.1-7578.5
		c-0.4,0-0.8,0.2-1,0.5c-0.3,0.4-0.5,0.9-0.5,1.4h3v-0.1c0-0.5-0.1-1-0.4-1.4C-8231.4-7578.4-8231.8-7578.6-8232.1-7578.5
		L-8232.1-7578.5z M-8225.1-7574.4c0-0.3-0.1-0.6-0.3-0.7c-0.3-0.2-0.7-0.4-1.1-0.4c-0.4-0.1-0.8-0.2-1.2-0.4
		c-0.3-0.1-0.5-0.4-0.7-0.6c-0.1-0.3-0.2-0.6-0.2-0.9c0-0.6,0.2-1.1,0.6-1.4c0.4-0.4,1-0.6,1.6-0.6c0.6,0,1.2,0.2,1.6,0.6
		c0.4,0.4,0.6,0.9,0.6,1.5h-1c0-0.3-0.1-0.6-0.3-0.8c-0.2-0.2-0.6-0.4-0.9-0.3c-0.3,0-0.6,0.1-0.9,0.3c-0.2,0.2-0.3,0.4-0.3,0.7
		c0,0.3,0.1,0.5,0.3,0.6c0.3,0.2,0.7,0.3,1,0.4c0.4,0.1,0.8,0.3,1.2,0.5c0.3,0.1,0.5,0.4,0.7,0.6c0.2,0.3,0.2,0.6,0.2,0.9
		c0,0.6-0.2,1.1-0.6,1.4c-0.5,0.4-1.1,0.6-1.6,0.5c-0.4,0-0.9-0.1-1.3-0.3c-0.3-0.2-0.6-0.4-0.9-0.8c-0.2-0.3-0.3-0.7-0.3-1.1h1
		c0,0.4,0.2,0.7,0.4,0.9c0.3,0.2,0.6,0.4,1,0.3c0.3,0,0.6-0.1,0.9-0.3C-8225.2-7573.9-8225.1-7574.1-8225.1-7574.4L-8225.1-7574.4z"
		/>
	<path id="Trazado_102747" class="st2" d="M-8183.6-7621.8l0.4-4.5h4.1v1.1h-3.2l-0.2,2.5c0.4-0.3,0.9-0.4,1.3-0.4
		c0.7,0,1.3,0.3,1.7,0.8c0.4,0.6,0.7,1.4,0.6,2.2c0,0.8-0.2,1.6-0.7,2.2c-0.5,0.6-1.2,0.9-1.9,0.8c-0.6,0-1.2-0.2-1.7-0.7
		c-0.5-0.5-0.7-1.1-0.8-1.8h1c0,0.4,0.2,0.9,0.5,1.2c0.3,0.3,0.7,0.4,1,0.4c0.4,0,0.8-0.2,1.1-0.5c0.3-0.4,0.4-1,0.4-1.5
		c0-0.5-0.1-1.1-0.4-1.5c-0.3-0.4-0.7-0.6-1.2-0.6c-0.4,0-0.7,0.1-1,0.3l-0.3,0.2L-8183.6-7621.8z M-8173-7624
		c0,0.4-0.1,0.9-0.3,1.2c-0.2,0.4-0.5,0.6-0.8,0.8c0.4,0.2,0.7,0.5,1,0.9c0.2,0.4,0.4,0.9,0.4,1.3c0,0.7-0.2,1.4-0.7,1.9
		c-0.5,0.5-1.2,0.7-1.8,0.7c-0.7,0-1.3-0.2-1.8-0.7c-0.5-0.5-0.7-1.2-0.7-1.9c0-0.5,0.1-0.9,0.3-1.3c0.2-0.4,0.6-0.7,1-0.9
		c-0.3-0.2-0.6-0.5-0.8-0.8c-0.2-0.4-0.3-0.8-0.3-1.2c0-0.7,0.2-1.3,0.6-1.8c0.5-0.5,1.1-0.7,1.7-0.7c0.6,0,1.2,0.2,1.7,0.7
		C-8173.2-7625.3-8173-7624.7-8173-7624L-8173-7624z M-8173.8-7619.7c0-0.5-0.1-0.9-0.4-1.2c-0.3-0.3-0.7-0.5-1.1-0.5
		c-0.8-0.1-1.5,0.6-1.5,1.5c0,0.1,0,0.1,0,0.2c0,0.5,0.1,0.9,0.4,1.2c0.3,0.3,0.7,0.5,1.1,0.4c0.4,0,0.8-0.1,1.1-0.4
		C-8174-7618.9-8173.8-7619.3-8173.8-7619.7z M-8175.3-7625.5c-0.4,0-0.7,0.1-1,0.4c-0.3,0.3-0.4,0.7-0.4,1.1c0,0.4,0.1,0.8,0.4,1.1
		c0.3,0.3,0.6,0.4,1,0.4c0.4,0,0.7-0.1,1-0.4c0.2-0.3,0.4-0.7,0.4-1.1c0-0.4-0.1-0.8-0.4-1.1
		C-8174.6-7625.4-8175-7625.5-8175.3-7625.5z M-8167.6-7626.3v1h-0.2c-0.7,0-1.4,0.3-1.9,0.8c-0.5,0.6-0.8,1.4-0.8,2.2
		c0.4-0.6,1.1-0.9,1.7-0.8c0.6,0,1.2,0.3,1.7,0.8c0.4,0.6,0.6,1.4,0.6,2.2c0,0.8-0.2,1.6-0.7,2.2c-0.5,0.6-1.1,0.9-1.8,0.8
		c-0.7,0-1.4-0.4-1.8-1c-0.5-0.7-0.7-1.6-0.7-2.6v-0.4c-0.1-1.4,0.3-2.7,0.9-3.8c0.7-0.9,1.7-1.4,2.8-1.4H-8167.6z M-8168.9-7622.3
		c-0.7,0-1.3,0.5-1.6,1.2v0.4c0,0.6,0.1,1.3,0.4,1.8c0.2,0.4,0.7,0.7,1.1,0.7c0.4,0,0.8-0.2,1.1-0.6c0.3-0.4,0.4-1,0.4-1.5
		c0-0.5-0.1-1.1-0.4-1.5C-8168.1-7622.1-8168.5-7622.3-8168.9-7622.3L-8168.9-7622.3z M-8165.2-7617.9c0-0.2,0.1-0.4,0.2-0.5
		c0.1-0.1,0.3-0.2,0.5-0.2c0.2,0,0.3,0.1,0.5,0.2c0.1,0.1,0.2,0.3,0.2,0.5c0,0.2-0.1,0.3-0.2,0.5c-0.1,0.1-0.3,0.2-0.5,0.2
		c-0.3,0-0.6-0.2-0.6-0.6C-8165.2-7617.8-8165.2-7617.8-8165.2-7617.9L-8165.2-7617.9z M-8161.9-7621.8l0.4-4.5h4.1v1.1h-3.2
		l-0.2,2.5c0.4-0.3,0.9-0.4,1.3-0.4c0.7,0,1.3,0.3,1.7,0.8c0.4,0.6,0.7,1.4,0.6,2.2c0,0.8-0.2,1.6-0.7,2.2c-0.5,0.6-1.2,0.9-1.9,0.8
		c-0.6,0-1.2-0.2-1.7-0.7c-0.5-0.5-0.7-1.1-0.8-1.8h1c0,0.4,0.2,0.9,0.5,1.2c0.3,0.3,0.7,0.4,1,0.4c0.4,0,0.8-0.2,1.1-0.5
		c0.3-0.4,0.4-1,0.4-1.5c0-0.5-0.1-1.1-0.4-1.5c-0.3-0.4-0.7-0.6-1.2-0.6c-0.4,0-0.7,0.1-1,0.3l-0.3,0.2L-8161.9-7621.8z
		 M-8150.9-7625.7l-3.3,8.4h-1.1l3.3-8.1h-4.3v-0.9h5.4V-7625.7z M-8149.3-7621.8l0.4-4.5h4.1v1.1h-3.2l-0.2,2.5
		c0.4-0.3,0.9-0.4,1.3-0.4c0.7,0,1.3,0.3,1.7,0.8c0.4,0.6,0.7,1.4,0.6,2.2c0,0.8-0.2,1.6-0.7,2.2c-0.5,0.6-1.2,0.9-1.9,0.8
		c-0.6,0-1.2-0.2-1.7-0.7c-0.5-0.5-0.7-1.1-0.8-1.8h1c0,0.4,0.2,0.9,0.5,1.2c0.3,0.3,0.7,0.4,1,0.4c0.4,0,0.8-0.2,1.1-0.5
		c0.3-0.4,0.4-1,0.4-1.5c0-0.5-0.1-1.1-0.4-1.5c-0.3-0.4-0.7-0.6-1.2-0.6c-0.4,0-0.7,0.1-1,0.3l-0.3,0.2L-8149.3-7621.8z"/>
	<path id="Trazado_102750" class="st2" d="M-8099.9-7566l0.4-4.5h4.1v1.1h-3.2l-0.2,2.5c0.4-0.3,0.9-0.4,1.3-0.4
		c0.7,0,1.3,0.3,1.7,0.8c0.4,0.6,0.7,1.4,0.6,2.2c0,0.8-0.2,1.6-0.7,2.2c-0.5,0.6-1.2,0.9-1.9,0.8c-0.6,0-1.2-0.2-1.7-0.7
		c-0.5-0.5-0.7-1.1-0.8-1.8h1c0,0.4,0.2,0.9,0.5,1.2c0.3,0.3,0.7,0.4,1,0.4c0.4,0,0.8-0.2,1.1-0.5c0.3-0.4,0.4-1,0.4-1.5
		c0-0.5-0.1-1.1-0.4-1.5c-0.3-0.4-0.7-0.6-1.2-0.6c-0.4,0-0.7,0.1-1,0.3l-0.3,0.2L-8099.9-7566z M-8089.2-7568.2
		c0,0.4-0.1,0.9-0.3,1.2c-0.2,0.4-0.5,0.6-0.8,0.8c0.4,0.2,0.7,0.5,1,0.9c0.2,0.4,0.4,0.9,0.4,1.3c0,0.7-0.2,1.4-0.7,1.9
		c-0.5,0.5-1.2,0.7-1.8,0.7c-0.7,0-1.3-0.2-1.8-0.7c-0.5-0.5-0.7-1.2-0.7-1.9c0-0.5,0.1-0.9,0.3-1.3c0.2-0.4,0.6-0.7,1-0.9
		c-0.3-0.2-0.6-0.5-0.8-0.8c-0.2-0.4-0.3-0.8-0.3-1.2c0-0.7,0.2-1.3,0.6-1.8c0.5-0.5,1.1-0.7,1.7-0.7c0.6,0,1.2,0.2,1.7,0.7
		C-8089.5-7569.5-8089.2-7568.8-8089.2-7568.2L-8089.2-7568.2z M-8090.1-7563.9c0-0.5-0.1-0.9-0.4-1.2c-0.3-0.3-0.7-0.5-1.1-0.5
		c-0.8-0.1-1.5,0.6-1.5,1.5c0,0.1,0,0.1,0,0.2c0,0.5,0.1,0.9,0.4,1.2c0.3,0.3,0.7,0.5,1.1,0.4c0.4,0,0.8-0.1,1.1-0.4
		C-8090.2-7563-8090-7563.5-8090.1-7563.9z M-8091.6-7569.7c-0.4,0-0.7,0.1-1,0.4c-0.3,0.3-0.4,0.7-0.4,1.1c0,0.4,0.1,0.8,0.4,1.1
		c0.3,0.3,0.6,0.4,1,0.4c0.4,0,0.7-0.1,1-0.4c0.2-0.3,0.4-0.7,0.4-1.1c0-0.4-0.1-0.8-0.4-1.1
		C-8090.9-7569.6-8091.2-7569.7-8091.6-7569.7z M-8083.8-7570.5v1h-0.2c-0.7,0-1.4,0.3-1.9,0.8c-0.5,0.6-0.8,1.4-0.8,2.2
		c0.4-0.6,1.1-0.9,1.7-0.8c0.6,0,1.2,0.3,1.7,0.8c0.4,0.6,0.6,1.4,0.6,2.2c0,0.8-0.2,1.6-0.7,2.2c-0.5,0.6-1.1,0.9-1.8,0.8
		c-0.7,0-1.4-0.4-1.8-1c-0.5-0.7-0.7-1.6-0.7-2.6v-0.4c-0.1-1.4,0.2-2.7,0.9-3.8c0.7-0.9,1.7-1.4,2.8-1.4H-8083.8z M-8085.2-7566.4
		c-0.7,0-1.3,0.5-1.6,1.2v0.4c0,0.6,0.1,1.3,0.4,1.8c0.2,0.4,0.7,0.7,1.1,0.7c0.4,0,0.8-0.2,1.1-0.6c0.3-0.4,0.4-1,0.4-1.5
		c0-0.5-0.1-1.1-0.4-1.5C-8084.3-7566.3-8084.7-7566.5-8085.2-7566.4L-8085.2-7566.4z M-8081.4-7562.1c0-0.2,0.1-0.4,0.2-0.5
		c0.1-0.1,0.3-0.2,0.5-0.2c0.2,0,0.3,0.1,0.5,0.2c0.1,0.1,0.2,0.3,0.2,0.5c0,0.2-0.1,0.3-0.2,0.5c-0.1,0.1-0.3,0.2-0.5,0.2
		c-0.3,0-0.6-0.2-0.6-0.6C-8081.4-7562-8081.4-7562-8081.4-7562.1L-8081.4-7562.1z M-8078.1-7566l0.4-4.5h4.1v1.1h-3.2l-0.2,2.5
		c0.4-0.3,0.9-0.4,1.3-0.4c0.7,0,1.3,0.3,1.7,0.8c0.4,0.6,0.7,1.4,0.6,2.2c0,0.8-0.2,1.6-0.7,2.2c-0.5,0.6-1.2,0.9-1.9,0.8
		c-0.6,0-1.2-0.2-1.7-0.7c-0.5-0.5-0.7-1.1-0.8-1.8h1c0,0.4,0.2,0.9,0.5,1.2c0.3,0.3,0.7,0.4,1,0.4c0.4,0,0.8-0.2,1.1-0.5
		c0.3-0.4,0.4-1,0.4-1.5c0-0.5-0.1-1.1-0.4-1.5c-0.3-0.4-0.7-0.6-1.2-0.6c-0.4,0-0.7,0.1-1,0.3l-0.3,0.2L-8078.1-7566z
		 M-8067.2-7569.9l-3.3,8.4h-1.1l3.3-8.1h-4.3v-0.9h5.4V-7569.9z M-8065.6-7566l0.4-4.5h4.1v1.1h-3.2l-0.2,2.5
		c0.4-0.3,0.9-0.4,1.3-0.4c0.7,0,1.3,0.3,1.7,0.8c0.4,0.6,0.7,1.4,0.6,2.2c0,0.8-0.2,1.6-0.7,2.2c-0.5,0.6-1.2,0.9-1.9,0.8
		c-0.6,0-1.2-0.2-1.7-0.7c-0.5-0.5-0.7-1.1-0.8-1.8h1c0,0.4,0.2,0.9,0.5,1.2c0.3,0.3,0.7,0.4,1,0.4c0.4,0,0.8-0.2,1.1-0.5
		c0.3-0.4,0.4-1,0.4-1.5c0-0.5-0.1-1.1-0.4-1.5c-0.3-0.4-0.7-0.6-1.2-0.6c-0.4,0-0.7,0.1-1,0.3l-0.3,0.2L-8065.6-7566z"/>
	<line id="Línea_147" class="st3" x1="-8286" y1="-7650" x2="-8286" y2="-7538.3"/>
	<line id="Línea_148" class="st3" x1="-8198.7" y1="-7650" x2="-8198.7" y2="-7538.3"/>
	<line id="Línea_149" class="st3" x1="-8112.9" y1="-7650" x2="-8112.9" y2="-7538.3"/>
	<path id="Trazado_99536" class="st4" d="M-8423.5-7698.3h400v48.4h-400V-7698.3z"/>
	<path id="Trazado_102741" class="st1" d="M-8395-7673.7c0,0.9-0.3,1.8-0.7,2.5c-0.4,0.7-1,1.3-1.7,1.7c-0.8,0.4-1.7,0.6-2.5,0.6
		c-1.4,0.1-2.8-0.6-3.7-1.7c-1-1.4-1.4-3.2-1.4-4.9v-0.7c0-1.2,0.2-2.4,0.6-3.5c0.4-1,1-1.8,1.8-2.3c0.8-0.6,1.7-0.8,2.7-0.8
		c1.3-0.1,2.5,0.4,3.5,1.3c0.9,0.9,1.4,2.2,1.5,3.6h-2.9c0-0.7-0.2-1.3-0.5-1.8c-0.4-0.4-1-0.6-1.6-0.5c-0.6,0-1.2,0.3-1.6,0.9
		c-0.4,0.9-0.6,1.9-0.5,2.9v1c-0.1,1.1,0.1,2.1,0.5,3.1c0.4,0.6,1,1,1.6,0.9c0.5,0,1.1-0.1,1.5-0.5c0.4-0.5,0.6-1.1,0.6-1.7
		L-8395-7673.7z M-8390.9-7669.1h-2.8v-14.4h2.8L-8390.9-7669.1z M-8384.2-7669.1c-0.1-0.3-0.2-0.6-0.3-0.9
		c-0.5,0.7-1.3,1.1-2.1,1.1c-0.8,0-1.5-0.3-2.1-0.9c-0.6-0.5-0.9-1.3-0.9-2.2c0-1,0.4-1.9,1.1-2.5c0.9-0.6,2-0.9,3.1-0.8h0.9v-0.5
		c0-0.9-0.4-1.4-1.1-1.4c-0.5-0.1-0.9,0.3-1,0.8c0,0.1,0,0.2,0,0.3h-2.8c0-1,0.4-1.8,1.1-2.4c0.8-0.6,1.8-1,2.8-0.9
		c1-0.1,1.9,0.3,2.7,0.9c0.7,0.6,1,1.6,1,2.6v4.5c0,0.7,0.1,1.5,0.4,2.1v0.2H-8384.2z M-8385.9-7671.2c0.3,0,0.6-0.1,0.9-0.3
		c0.2-0.1,0.4-0.3,0.5-0.6v-1.6h-0.8c-1,0-1.4,0.5-1.4,1.5c0,0.3,0.1,0.5,0.3,0.7C-8386.4-7671.2-8386.1-7671.1-8385.9-7671.2z
		 M-8375.6-7671.9c0-0.3-0.1-0.5-0.4-0.6c-0.4-0.2-0.9-0.4-1.4-0.5c-0.6-0.1-1.2-0.4-1.7-0.7c-0.4-0.2-0.8-0.6-1-1
		c-0.2-0.4-0.4-0.9-0.3-1.4c0-0.9,0.4-1.8,1-2.3c0.8-0.6,1.7-1,2.6-0.9c1-0.1,2,0.3,2.8,0.9c0.7,0.5,1.1,1.4,1.1,2.4h-2.8
		c0-0.8-0.4-1.2-1.1-1.2c-0.3,0-0.5,0.1-0.7,0.3c-0.2,0.2-0.3,0.4-0.3,0.7c0,0.3,0.1,0.5,0.4,0.7c0.4,0.2,0.7,0.4,1.1,0.4
		c0.5,0.1,0.9,0.2,1.4,0.4c1.3,0.5,2,1.5,2,2.8c0,0.9-0.4,1.8-1.1,2.3c-0.8,0.6-1.8,0.9-2.8,0.9c-0.7,0-1.4-0.1-2-0.5
		c-0.6-0.3-1-0.7-1.4-1.3c-0.3-0.5-0.5-1.1-0.5-1.7h2.6c0,0.4,0.1,0.8,0.4,1c0.3,0.2,0.6,0.3,1,0.3c0.3,0,0.6-0.1,0.8-0.3
		C-8375.7-7671.4-8375.6-7671.7-8375.6-7671.9z M-8368.8-7669.1h-2.8v-10.1h2.8V-7669.1z M-8371.7-7681.8c0-0.4,0.1-0.8,0.4-1.1
		c0.3-0.3,0.7-0.4,1.1-0.4c0.4,0,0.8,0.1,1.1,0.4c0.3,0.3,0.4,0.7,0.4,1.1c0,0.4-0.1,0.8-0.4,1.1c-0.3,0.3-0.7,0.4-1.1,0.4
		c-0.4,0-0.8-0.1-1.1-0.4C-8371.6-7681-8371.7-7681.4-8371.7-7681.8L-8371.7-7681.8z M-8366.4-7669.1v-7.9h-1.3v-2.2h1.3v-0.3
		c0-1.2,0.4-2.3,1.2-3.1c0.9-0.7,1.9-1.1,3-1c1,0,1.9,0.2,2.9,0.5l-0.4,2.5l-0.5-0.1c-0.6-0.2-1.2-0.3-1.9-0.3
		c-1.1,0-1.6,0.5-1.6,1.6v0.2h1.7v2.2h-1.7v7.9H-8366.4z M-8358.1-7669.1h-2.8v-10.1h2.8V-7669.1z M-8352.7-7671.3
		c0.3,0,0.7-0.1,0.9-0.4c0.2-0.3,0.3-0.6,0.3-1h2.6c0,1-0.4,2-1,2.7c-0.7,0.7-1.7,1.1-2.7,1.1c-1.1,0.1-2.3-0.4-3-1.4
		c-0.8-1.1-1.2-2.4-1.1-3.8v-0.1c0-0.9,0.2-1.9,0.5-2.7c0.3-0.8,0.8-1.4,1.4-1.8c0.7-0.4,1.4-0.7,2.2-0.6c1-0.1,2,0.3,2.7,1.1
		c0.7,0.8,1.1,1.9,1,3h-2.6c0-0.4-0.1-0.9-0.3-1.2c-0.2-0.3-0.6-0.4-0.9-0.4c-0.7,0-1.1,0.5-1.3,1.6c0,0.5-0.1,0.9-0.1,1.4
		c-0.1,0.7,0.1,1.5,0.3,2.1C-8353.5-7671.5-8353.1-7671.3-8352.7-7671.3L-8352.7-7671.3z M-8342.7-7669.1c-0.1-0.3-0.2-0.6-0.3-0.9
		c-0.5,0.7-1.3,1.1-2.1,1.1c-0.8,0-1.5-0.3-2.1-0.9c-0.6-0.5-0.9-1.3-0.9-2.2c0-1,0.4-1.9,1.1-2.5c0.9-0.6,2-0.9,3.1-0.8h0.9v-0.5
		c0-0.9-0.4-1.4-1.1-1.4c-0.5-0.1-0.9,0.3-1,0.8c0,0.1,0,0.2,0,0.3h-2.8c0-1,0.4-1.8,1.1-2.4c0.8-0.6,1.8-1,2.8-0.9
		c1-0.1,1.9,0.3,2.7,0.9c0.7,0.6,1,1.6,1,2.6v4.5c0,0.7,0.1,1.5,0.4,2.1v0.2H-8342.7z M-8344.5-7671.2c0.3,0,0.6-0.1,0.9-0.3
		c0.2-0.1,0.4-0.3,0.5-0.6v-1.6h-0.8c-1,0-1.4,0.5-1.4,1.5c0,0.3,0.1,0.5,0.3,0.7C-8344.9-7671.2-8344.7-7671.1-8344.5-7671.2z
		 M-8335.1-7671.3c0.3,0,0.7-0.1,0.9-0.4c0.2-0.3,0.3-0.6,0.3-1h2.6c0,1-0.4,2-1,2.7c-0.7,0.7-1.7,1.1-2.7,1.1
		c-1.1,0.1-2.3-0.4-3-1.4c-0.8-1.1-1.2-2.4-1.1-3.8v-0.1c0-0.9,0.2-1.9,0.5-2.7c0.3-0.8,0.8-1.4,1.4-1.8c0.7-0.4,1.4-0.7,2.2-0.6
		c1-0.1,2,0.3,2.7,1.1c0.7,0.8,1.1,1.9,1,3h-2.6c0-0.4-0.1-0.9-0.3-1.2c-0.2-0.3-0.6-0.4-0.9-0.4c-0.7,0-1.1,0.5-1.3,1.6
		c0,0.5-0.1,0.9-0.1,1.4c0,0.7,0.1,1.5,0.3,2.1C-8335.9-7671.5-8335.5-7671.3-8335.1-7671.3L-8335.1-7671.3z M-8327.2-7669.1h-2.8
		v-10.1h2.8V-7669.1z M-8330.2-7681.8c0-0.4,0.1-0.8,0.4-1.1c0.3-0.3,0.7-0.4,1.1-0.4c0.4,0,0.8,0.1,1.1,0.4
		c0.3,0.3,0.4,0.7,0.4,1.1c0,0.4-0.1,0.8-0.4,1.1c-0.3,0.3-0.7,0.4-1.1,0.4c-0.4,0-0.8-0.1-1.1-0.4
		C-8330-7681-8330.2-7681.4-8330.2-7681.8L-8330.2-7681.8z M-8325.9-7674.2c0-0.9,0.2-1.9,0.5-2.7c0.3-0.8,0.8-1.4,1.5-1.8
		c0.7-0.4,1.5-0.7,2.3-0.6c1.2-0.1,2.3,0.4,3.1,1.4c0.8,1.1,1.2,2.4,1.1,3.8v0.1c0.1,1.4-0.3,2.7-1.1,3.8c-0.8,1-2,1.5-3.1,1.4
		c-1.1,0.1-2.2-0.4-3-1.3c-0.8-0.9-1.2-2.2-1.2-3.5L-8325.9-7674.2z M-8323.1-7674c0,0.7,0.1,1.4,0.4,2.1c0.3,0.4,0.7,0.7,1.1,0.7
		c1,0,1.5-0.9,1.5-2.6v-0.3c0-1.8-0.5-2.7-1.5-2.7c-0.9,0-1.4,0.8-1.5,2.3L-8323.1-7674z M-8321.2-7683.4h2.9l-2.3,2.9l-2.2,0
		L-8321.2-7683.4z M-8313.6-7679.2l0.1,1.2c0.6-0.9,1.5-1.4,2.5-1.4c0.8-0.1,1.5,0.3,2.1,0.9c0.5,0.8,0.8,1.8,0.7,2.8v6.5h-2.8v-6.4
		c0-0.4-0.1-0.8-0.3-1.1c-0.3-0.3-0.6-0.4-1-0.4c-0.5,0-1,0.2-1.2,0.7v7.1h-2.8v-10.1H-8313.6z"/>
	<path id="Trazado_102742" class="st1" d="M-8266.8-7672.1c0,0.9-0.3,1.8-0.7,2.5c-0.4,0.7-1,1.3-1.7,1.7c-0.8,0.4-1.7,0.6-2.5,0.6
		c-1.4,0.1-2.8-0.6-3.7-1.7c-1-1.4-1.4-3.2-1.3-4.9v-0.7c0-1.2,0.2-2.4,0.6-3.5c0.4-1,1-1.8,1.8-2.3c0.8-0.6,1.7-0.8,2.7-0.8
		c1.3-0.1,2.5,0.4,3.5,1.3c0.9,0.9,1.4,2.2,1.5,3.6h-2.9c0-0.7-0.2-1.3-0.5-1.8c-0.4-0.4-1-0.6-1.6-0.5c-0.6,0-1.2,0.3-1.6,0.9
		c-0.4,0.9-0.6,1.9-0.5,2.9v1c-0.1,1.1,0.1,2.1,0.5,3.1c0.4,0.6,1,1,1.6,0.9c0.5,0,1.1-0.1,1.5-0.5c0.4-0.5,0.6-1.1,0.6-1.7
		L-8266.8-7672.1z M-8260.3-7668.6c-0.6,0.8-1.4,1.3-2.4,1.3c-0.8,0.1-1.6-0.3-2.2-1c-0.5-0.8-0.8-1.8-0.7-2.8v-6.5h2.8v6.6
		c-0.1,0.6,0.3,1.2,0.8,1.3c0.1,0,0.2,0,0.3,0c0.5,0.1,1.1-0.2,1.3-0.8v-7.1h2.8v10.1h-2.6L-8260.3-7668.6z M-8251.8-7667.3
		c-1.2,0.1-2.4-0.4-3.3-1.4c-0.8-0.9-1.3-2.3-1.3-3.6v-0.3c0-0.9,0.2-1.9,0.5-2.7c0.3-0.8,0.8-1.4,1.5-1.8c0.7-0.4,1.5-0.7,2.3-0.6
		c1.1-0.1,2.2,0.4,2.9,1.3c0.8,1,1.2,2.3,1.1,3.7v1.2h-5.5c0.1,0.5,0.3,1,0.6,1.3c0.4,0.3,0.8,0.5,1.3,0.5c0.8,0,1.5-0.3,2-1
		l1.3,1.7c-0.4,0.6-0.9,1-1.5,1.3C-8250.4-7667.5-8251.1-7667.3-8251.8-7667.3z M-8252.1-7675.4c-0.8,0-1.3,0.6-1.4,1.8h2.8v-0.2
		c0-0.4-0.1-0.9-0.3-1.2C-8251.4-7675.2-8251.7-7675.4-8252.1-7675.4z M-8244.4-7677.6l0.1,1.2c0.6-0.9,1.5-1.4,2.5-1.4
		c0.8-0.1,1.5,0.3,2.1,0.9c0.5,0.8,0.8,1.8,0.7,2.8v6.5h-2.8v-6.4c0-0.4-0.1-0.8-0.3-1.1c-0.3-0.3-0.6-0.4-1-0.4
		c-0.5,0-1,0.2-1.2,0.7v7.1h-2.8v-10.1L-8244.4-7677.6z M-8234.3-7680.1v2.5h1.5v2.2h-1.5v4.6c0,0.3,0,0.6,0.2,0.8
		c0.2,0.2,0.5,0.3,0.7,0.2c0.2,0,0.5,0,0.7-0.1v2.2c-0.5,0.2-1,0.3-1.6,0.3c-0.8,0.1-1.5-0.2-2.1-0.8c-0.5-0.6-0.7-1.5-0.7-2.3v-5
		h-1.1v-2.2h1.1v-2.5L-8234.3-7680.1z M-8226.8-7667.5c-0.1-0.3-0.2-0.6-0.3-0.9c-0.5,0.7-1.3,1.1-2.1,1.1c-0.8,0-1.5-0.3-2.1-0.9
		c-0.6-0.5-0.9-1.3-0.9-2.2c0-1,0.4-1.9,1.1-2.5c0.9-0.6,2-0.9,3.1-0.8h0.9v-0.5c0-0.9-0.4-1.4-1.1-1.4c-0.5-0.1-0.9,0.3-1,0.8
		c0,0.1,0,0.2,0,0.3h-2.8c0-1,0.4-1.8,1.1-2.4c0.8-0.6,1.8-1,2.8-0.9c1-0.1,1.9,0.3,2.7,0.9c0.7,0.6,1,1.6,1,2.6v4.5
		c0,0.7,0.1,1.5,0.4,2.1v0.2H-8226.8z M-8228.5-7669.6c0.3,0,0.6-0.1,0.9-0.3c0.2-0.1,0.4-0.3,0.5-0.6v-1.6h-0.8
		c-1,0-1.4,0.5-1.4,1.5c0,0.3,0.1,0.5,0.3,0.7C-8229-7669.6-8228.7-7669.5-8228.5-7669.6z M-8218.2-7670.3c0-0.3-0.1-0.5-0.4-0.6
		c-0.4-0.2-0.9-0.4-1.4-0.5c-0.6-0.1-1.2-0.4-1.7-0.7c-0.4-0.2-0.8-0.6-1-1c-0.2-0.4-0.4-0.9-0.3-1.4c0-0.9,0.4-1.8,1-2.3
		c0.8-0.6,1.7-1,2.6-0.9c1-0.1,2,0.3,2.8,0.9c0.7,0.5,1.1,1.4,1.1,2.4h-2.8c0-0.8-0.4-1.2-1.1-1.2c-0.3,0-0.5,0.1-0.7,0.3
		c-0.2,0.2-0.3,0.4-0.3,0.7c0,0.3,0.1,0.5,0.4,0.7c0.4,0.2,0.7,0.4,1.1,0.4c0.5,0.1,0.9,0.2,1.4,0.4c1.3,0.5,2,1.5,2,2.8
		c0,0.9-0.4,1.8-1.1,2.3c-0.8,0.6-1.8,0.9-2.8,0.9c-0.7,0-1.4-0.1-2-0.5c-0.6-0.3-1-0.7-1.4-1.3c-0.3-0.5-0.5-1.1-0.5-1.7h2.6
		c0,0.4,0.1,0.8,0.4,1c0.3,0.2,0.6,0.3,1,0.3c0.3,0,0.6-0.1,0.8-0.3C-8218.3-7669.8-8218.2-7670.1-8218.2-7670.3z"/>
	<path id="Trazado_102743" class="st1" d="M-8175.9-7667.5v-13.6h3.8c1,0,2,0.3,2.8,0.8c0.8,0.5,1.5,1.3,2,2.3
		c0.5,1,0.7,2.2,0.7,3.3v0.6c0,1.2-0.2,2.3-0.7,3.3c-0.4,1-1.1,1.8-1.9,2.3c-0.9,0.6-1.8,0.9-2.8,0.8H-8175.9z M-8173-7678.6v8.5h1
		c0.7,0,1.5-0.3,1.9-1c0.5-0.9,0.7-1.9,0.7-3v-0.6c0.1-1-0.2-2.1-0.7-3c-0.5-0.7-1.2-1.1-1.9-1H-8173z M-8160.9-7667.3
		c-1.2,0.1-2.4-0.4-3.3-1.4c-0.8-0.9-1.3-2.3-1.3-3.6v-0.3c0-0.9,0.2-1.9,0.5-2.7c0.3-0.8,0.8-1.4,1.5-1.8c0.7-0.4,1.5-0.7,2.3-0.6
		c1.1-0.1,2.2,0.4,2.9,1.3c0.8,1,1.2,2.3,1.1,3.7v1.2h-5.5c0.1,0.5,0.3,1,0.6,1.3c0.4,0.3,0.8,0.5,1.3,0.5c0.8,0,1.5-0.3,2-1
		l1.3,1.7c-0.4,0.6-0.9,1-1.5,1.3C-8159.5-7667.5-8160.2-7667.3-8160.9-7667.3z M-8161.2-7675.4c-0.8,0-1.3,0.6-1.4,1.8h2.8v-0.2
		c0-0.4-0.1-0.9-0.3-1.2C-8160.5-7675.2-8160.8-7675.4-8161.2-7675.4L-8161.2-7675.4z M-8147.8-7672.5c0.1,1.4-0.2,2.7-0.9,3.8
		c-0.6,0.9-1.6,1.4-2.5,1.3c-0.9,0-1.7-0.4-2.2-1.2l-0.1,1h-2.5v-14.4h2.8v5.1c0.5-0.7,1.2-1,2-1c1-0.1,1.9,0.5,2.6,1.4
		c0.7,1.1,1,2.5,0.9,3.8V-7672.5z M-8150.6-7672.7c0-0.7-0.1-1.4-0.3-2.1c-0.2-0.4-0.6-0.6-1-0.6c-0.5-0.1-1,0.3-1.3,0.8v4
		c0.3,0.5,0.8,0.9,1.3,0.8c0.6,0,1.1-0.4,1.2-1.1C-8150.6-7671.4-8150.6-7672.1-8150.6-7672.7z M-8142.3-7667.3
		c-1.2,0.1-2.4-0.4-3.3-1.4c-0.8-0.9-1.3-2.3-1.3-3.6v-0.3c0-0.9,0.2-1.9,0.5-2.7c0.3-0.8,0.8-1.4,1.5-1.8c0.7-0.4,1.5-0.7,2.3-0.6
		c1.1-0.1,2.2,0.4,2.9,1.3c0.8,1,1.2,2.3,1.1,3.7v1.2h-5.5c0.1,0.5,0.3,1,0.6,1.3c0.4,0.3,0.8,0.5,1.3,0.5c0.8,0,1.5-0.3,2-1
		l1.3,1.7c-0.4,0.6-0.9,1-1.5,1.3C-8141-7667.5-8141.6-7667.3-8142.3-7667.3z M-8142.7-7675.4c-0.8,0-1.3,0.6-1.4,1.8h2.8v-0.2
		c0-0.4-0.1-0.9-0.3-1.2C-8141.9-7675.2-8142.3-7675.4-8142.7-7675.4L-8142.7-7675.4z"/>
	<path id="Trazado_102744" class="st1" d="M-8085.7-7667.5h-2.9v-5.7h-4.2v5.7h-2.9v-13.6h2.9v5.4h4.2v-5.4h2.9V-7667.5z
		 M-8079-7667.5c-0.1-0.3-0.2-0.6-0.3-0.9c-0.5,0.7-1.3,1.1-2.1,1.1c-0.8,0-1.5-0.3-2.1-0.9c-0.6-0.5-0.9-1.3-0.9-2.2
		c0-1,0.4-1.9,1.1-2.5c0.9-0.6,2-0.9,3.1-0.8h0.9v-0.5c0-0.9-0.4-1.4-1.1-1.4c-0.5-0.1-0.9,0.3-1,0.8c0,0.1,0,0.2,0,0.3h-2.8
		c0-1,0.4-1.8,1.1-2.4c0.8-0.6,1.8-1,2.8-0.9c1-0.1,1.9,0.3,2.7,0.9c0.7,0.6,1,1.6,1,2.6v4.5c0,0.7,0.1,1.5,0.4,2.1v0.2H-8079z
		 M-8080.7-7669.6c0.3,0,0.6-0.1,0.9-0.3c0.2-0.1,0.4-0.3,0.5-0.6v-1.6h-0.8c-1,0-1.4,0.5-1.4,1.5c0,0.3,0.1,0.5,0.3,0.7
		C-8081.2-7669.6-8081-7669.5-8080.7-7669.6z M-8066.9-7672.5c0.1,1.4-0.2,2.7-0.9,3.8c-0.6,0.9-1.6,1.4-2.5,1.3
		c-0.9,0-1.7-0.4-2.2-1.2l-0.1,1h-2.5v-14.4h2.8v5.1c0.5-0.7,1.2-1,2-1c1-0.1,1.9,0.5,2.6,1.4c0.7,1.1,1,2.5,0.9,3.8V-7672.5z
		 M-8069.7-7672.7c0-0.7-0.1-1.4-0.3-2.1c-0.2-0.4-0.6-0.7-1-0.6c-0.5-0.1-1,0.3-1.3,0.8v4c0.3,0.5,0.8,0.9,1.3,0.8
		c0.6,0.1,1.1-0.4,1.2-1.1C-8069.7-7671.4-8069.6-7672.1-8069.7-7672.7z M-8061.4-7667.3c-1.2,0.1-2.4-0.4-3.3-1.4
		c-0.8-0.9-1.3-2.3-1.3-3.6v-0.3c0-0.9,0.2-1.9,0.5-2.7c0.3-0.8,0.8-1.4,1.5-1.8c0.7-0.4,1.5-0.7,2.3-0.6c1.1-0.1,2.2,0.4,2.9,1.3
		c0.8,1,1.2,2.3,1.1,3.7v1.2h-5.5c0.1,0.5,0.3,1,0.6,1.3c0.4,0.3,0.8,0.5,1.3,0.5c0.8,0,1.5-0.3,2-1l1.3,1.7c-0.4,0.6-0.9,1-1.5,1.3
		C-8060-7667.5-8060.7-7667.3-8061.4-7667.3z M-8061.7-7675.4c-0.8,0-1.3,0.6-1.4,1.8h2.8v-0.2c0-0.4-0.1-0.9-0.3-1.2
		C-8061-7675.2-8061.3-7675.4-8061.7-7675.4L-8061.7-7675.4z M-8051.2-7674.8l-0.9-0.1c-0.7-0.1-1.3,0.3-1.7,0.9v6.4h-2.8v-10.1h2.6
		l0.1,1.3c0.3-0.9,1.1-1.5,1.9-1.5c0.3,0,0.5,0,0.8,0.1L-8051.2-7674.8z"/>
</g>
</svg>
