<?xml version="1.0" encoding="utf-8"?>
<!-- Generator: Adobe Illustrator 25.2.3, SVG Export Plug-In . SVG Version: 6.00 Build 0)  -->
<svg version="1.1" id="Capa_1" xmlns="http://www.w3.org/2000/svg" xmlns:xlink="http://www.w3.org/1999/xlink" x="0px" y="0px"
	 viewBox="0 0 573 245" style="enable-background:new 0 0 573 245;" xml:space="preserve">
<style type="text/css">
	.st0{fill:#F6F6F6;}
	.st1{fill:#FFFFFF;}
	.st2{fill:#12263F;}
	.st3{fill:none;stroke:#AFAFAF;stroke-linecap:round;}
	.st4{fill:#D9A171;}
</style>
<g id="Grupo_54945" transform="translate(-180 -10326)">
	<rect id="Rectángulo_5420" x="266.5" y="10400.4" class="st0" width="400" height="89.4"/>
	<rect id="Rectángulo_5421" x="266.5" y="10489.1" class="st1" width="400" height="54.2"/>
	<path id="Trazado_102756" class="st2" d="M282.5,10523.6v-9.9h3.2c0.9-0.1,1.8,0.2,2.6,0.7c0.6,0.5,0.9,1.2,0.9,2
		c0,0.5-0.1,0.9-0.3,1.3c-0.2,0.4-0.6,0.7-0.9,0.8c0.4,0.1,0.8,0.4,1.1,0.8c0.3,0.4,0.4,0.9,0.4,1.4c0.1,0.8-0.3,1.7-0.8,2.2
		c-0.7,0.5-1.6,0.8-2.5,0.7H282.5z M284.7,10519.3v2.4h1.4c0.3,0,0.6-0.1,0.9-0.3c0.2-0.2,0.3-0.5,0.3-0.8c0.1-0.6-0.3-1.2-0.8-1.2
		c-0.1,0-0.2,0-0.3,0H284.7z M284.7,10517.8h1.1c0.4,0,0.7-0.1,1-0.3c0.2-0.2,0.3-0.5,0.3-0.8c0-0.3-0.1-0.7-0.3-0.9
		c-0.3-0.2-0.7-0.3-1-0.3h-1.1V10517.8z M294.3,10523.6c-0.1-0.2-0.2-0.4-0.2-0.7c-0.4,0.5-1,0.8-1.6,0.8c-0.6,0-1.2-0.2-1.6-0.6
		c-0.4-0.4-0.7-1-0.7-1.6c0-0.7,0.3-1.4,0.8-1.8c0.7-0.5,1.5-0.7,2.3-0.6h0.6v-0.4c0-0.7-0.3-1-0.8-1c-0.4-0.1-0.7,0.2-0.7,0.6
		c0,0.1,0,0.1,0,0.2h-2.1c0-0.7,0.3-1.4,0.8-1.7c0.6-0.5,1.3-0.7,2.1-0.7c0.7,0,1.4,0.2,2,0.7c0.5,0.5,0.8,1.2,0.8,1.9v3.3
		c0,0.5,0.1,1.1,0.3,1.6v0.1H294.3z M293,10522.1c0.2,0,0.4-0.1,0.6-0.2c0.2-0.1,0.3-0.2,0.4-0.4v-1.2h-0.6c-0.7,0-1.1,0.4-1.1,1.1
		c0,0.2,0.1,0.4,0.2,0.5C292.6,10522,292.8,10522.1,293,10522.1L293,10522.1z M299.1,10516.2l0.1,0.9c0.4-0.7,1.2-1,1.9-1
		c0.6,0,1.2,0.2,1.5,0.7c0.4,0.6,0.6,1.3,0.5,2.1v4.8h-2.1v-4.7c0-0.3,0-0.6-0.2-0.8c-0.2-0.2-0.5-0.3-0.7-0.3
		c-0.4,0-0.7,0.2-0.9,0.5v5.2h-2.1v-7.4H299.1z M307.1,10521.9c0.2,0,0.5-0.1,0.7-0.3c0.2-0.2,0.3-0.5,0.2-0.7h1.9
		c0,0.8-0.3,1.5-0.8,2c-0.6,0.5-1.3,0.8-2,0.8c-0.9,0-1.7-0.3-2.3-1c-0.6-0.8-0.9-1.8-0.8-2.8v-0.1c0-0.7,0.1-1.4,0.4-2
		c0.2-0.5,0.6-1,1.1-1.3c0.5-0.3,1.1-0.5,1.7-0.5c0.8,0,1.5,0.2,2.1,0.8c0.5,0.6,0.8,1.4,0.8,2.2H308c0-0.3-0.1-0.6-0.3-0.9
		c-0.2-0.2-0.4-0.3-0.7-0.3c-0.5,0-0.8,0.4-0.9,1.1c0,0.3,0,0.7,0,1c0,0.5,0,1.1,0.2,1.5C306.5,10521.8,306.8,10521.9,307.1,10521.9
		L307.1,10521.9z M310.6,10519.8c0-0.7,0.1-1.4,0.4-2c0.2-0.6,0.6-1,1.1-1.3c0.5-0.3,1.1-0.5,1.7-0.5c0.9-0.1,1.7,0.3,2.3,1
		c0.6,0.8,0.9,1.8,0.9,2.8v0.1c0,1-0.3,2-0.9,2.7c-0.6,0.7-1.5,1.1-2.3,1c-0.8,0-1.7-0.3-2.3-0.9c-0.6-0.7-0.9-1.6-0.9-2.6
		L310.6,10519.8z M312.6,10519.9c0,0.5,0.1,1,0.3,1.5c0.2,0.3,0.5,0.5,0.9,0.5c0.7,0,1.1-0.6,1.1-1.9v-0.2c0-1.3-0.4-2-1.1-2
		c-0.7,0-1.1,0.6-1.1,1.7L312.6,10519.9z M321.4,10521.5c0-0.2-0.1-0.4-0.3-0.5c-0.3-0.2-0.7-0.3-1-0.4c-0.4-0.1-0.9-0.3-1.3-0.5
		c-0.3-0.2-0.6-0.4-0.8-0.8c-0.2-0.3-0.3-0.7-0.3-1c0-0.7,0.3-1.3,0.8-1.7c0.6-0.5,1.3-0.7,2-0.7c0.7,0,1.5,0.2,2.1,0.7
		c0.5,0.4,0.8,1,0.8,1.7h-2.1c0-0.6-0.3-0.9-0.8-0.9c-0.2,0-0.4,0.1-0.5,0.2c-0.1,0.1-0.2,0.3-0.2,0.5c0,0.2,0.1,0.4,0.3,0.5
		c0.3,0.2,0.6,0.3,0.9,0.3c0.4,0.1,0.7,0.2,1,0.3c0.9,0.2,1.5,1.1,1.5,2.1c0,0.7-0.3,1.3-0.8,1.6c-0.6,0.4-1.4,0.7-2.1,0.6
		c-0.5,0-1-0.1-1.5-0.3c-0.4-0.2-0.8-0.5-1-0.9c-0.2-0.4-0.4-0.8-0.4-1.2h1.9c0,0.3,0.1,0.6,0.3,0.7c0.2,0.2,0.5,0.2,0.8,0.2
		c0.2,0,0.4,0,0.6-0.2C321.3,10521.9,321.4,10521.7,321.4,10521.5L321.4,10521.5z"/>
	<path id="Trazado_102754" class="st2" d="M286,10429.6l1.8-7.2h2.4l-3,9.9h-2.4l-3-9.9h2.4L286,10429.6z M294.2,10432.3
		c-0.1-0.2-0.2-0.4-0.2-0.7c-0.4,0.5-1,0.8-1.6,0.8c-0.6,0-1.2-0.2-1.6-0.6c-0.4-0.4-0.7-1-0.7-1.6c0-0.7,0.3-1.4,0.8-1.8
		c0.7-0.5,1.5-0.7,2.3-0.6h0.6v-0.4c0-0.7-0.3-1-0.8-1c-0.4-0.1-0.7,0.2-0.7,0.6c0,0.1,0,0.1,0,0.2h-2.1c0-0.7,0.3-1.4,0.8-1.7
		c0.6-0.5,1.3-0.7,2.1-0.7c0.7,0,1.4,0.2,2,0.7c0.5,0.5,0.8,1.2,0.8,1.9v3.3c0,0.5,0.1,1.1,0.3,1.6v0.1H294.2z M292.9,10430.8
		c0.2,0,0.4-0.1,0.6-0.2c0.2-0.1,0.3-0.2,0.4-0.4v-1.2h-0.6c-0.7,0-1.1,0.4-1.1,1.1c0,0.2,0.1,0.4,0.2,0.5
		C292.5,10430.7,292.7,10430.8,292.9,10430.8z M299.3,10432.3h-2.1v-10.5h2.1V10432.3z M300.3,10428.5c0-0.7,0.1-1.4,0.4-2
		c0.2-0.6,0.6-1,1.1-1.3c0.5-0.3,1.1-0.5,1.7-0.5c0.9-0.1,1.7,0.3,2.3,1c0.6,0.8,0.9,1.8,0.9,2.8v0.1c0,1-0.3,2-0.9,2.7
		c-0.6,0.7-1.5,1.1-2.3,1c-0.8,0-1.7-0.3-2.3-0.9c-0.6-0.7-0.9-1.6-0.9-2.6L300.3,10428.5z M302.4,10428.7c0,0.5,0.1,1,0.3,1.5
		c0.2,0.3,0.5,0.5,0.9,0.5c0.7,0,1.1-0.6,1.1-1.9v-0.2c0-1.3-0.4-2-1.1-2c-0.7,0-1.1,0.6-1.1,1.7L302.4,10428.7z M311.7,10427
		l-0.7-0.1c-0.5-0.1-1,0.2-1.3,0.7v4.7h-2.1v-7.4h1.9l0.1,0.9c0.2-0.7,0.8-1.1,1.5-1.1c0.2,0,0.4,0,0.6,0.1L311.7,10427z
		 M315.6,10432.4c-0.9,0-1.8-0.3-2.5-1c-0.6-0.7-1-1.7-0.9-2.6v-0.2c0-0.7,0.1-1.4,0.4-2c0.2-0.6,0.6-1,1.1-1.3
		c0.5-0.3,1.1-0.5,1.7-0.5c0.8,0,1.6,0.3,2.2,1c0.6,0.7,0.9,1.7,0.8,2.7v0.9h-4.1c0.1,0.4,0.2,0.7,0.5,1c0.3,0.2,0.6,0.4,1,0.4
		c0.6,0,1.2-0.3,1.5-0.8l0.9,1.2c-0.3,0.4-0.7,0.7-1.1,0.9C316.7,10432.3,316.1,10432.4,315.6,10432.4L315.6,10432.4z
		 M315.4,10426.5c-0.6,0-1,0.4-1.1,1.3h2.1v-0.2c0-0.3-0.1-0.6-0.3-0.9C315.9,10426.6,315.7,10426.5,315.4,10426.5z M322.7,10430.2
		c0-0.2-0.1-0.4-0.3-0.5c-0.3-0.2-0.7-0.3-1-0.4c-0.4-0.1-0.9-0.3-1.3-0.5c-0.3-0.2-0.6-0.4-0.8-0.8c-0.2-0.3-0.3-0.7-0.3-1
		c0-0.7,0.3-1.3,0.8-1.7c0.6-0.5,1.3-0.7,2-0.7c0.7,0,1.5,0.2,2.1,0.7c0.5,0.4,0.8,1,0.8,1.7h-2.1c0-0.6-0.3-0.9-0.8-0.9
		c-0.2,0-0.4,0.1-0.5,0.2c-0.1,0.1-0.2,0.3-0.2,0.5c0,0.2,0.1,0.4,0.3,0.5c0.3,0.2,0.6,0.3,0.9,0.3c0.4,0.1,0.7,0.2,1,0.3
		c0.9,0.2,1.5,1.1,1.5,2.1c0,0.7-0.3,1.3-0.8,1.6c-0.6,0.4-1.4,0.7-2.1,0.6c-0.5,0-1-0.1-1.5-0.3c-0.4-0.2-0.8-0.5-1-0.9
		c-0.2-0.4-0.4-0.8-0.4-1.2h1.9c0,0.3,0.1,0.6,0.3,0.7c0.2,0.2,0.5,0.2,0.8,0.2c0.2,0,0.4,0,0.6-0.2
		C322.6,10430.6,322.7,10430.4,322.7,10430.2L322.7,10430.2z M286.5,10447.9l-0.7-0.1c-0.5-0.1-1,0.2-1.3,0.7v4.7h-2.1v-7.4h1.9
		l0.1,0.9c0.2-0.7,0.8-1.1,1.5-1.1c0.2,0,0.4,0,0.6,0.1L286.5,10447.9z M290.4,10453.4c-0.9,0-1.8-0.3-2.5-1c-0.6-0.7-1-1.7-0.9-2.6
		v-0.2c0-0.7,0.1-1.4,0.4-2c0.2-0.6,0.6-1,1.1-1.3c0.5-0.3,1.1-0.5,1.7-0.5c0.8,0,1.6,0.3,2.2,1c0.6,0.7,0.9,1.7,0.8,2.7v0.9h-4.1
		c0.1,0.4,0.2,0.7,0.5,1c0.3,0.2,0.6,0.4,1,0.4c0.6,0,1.2-0.3,1.5-0.8l0.9,1.2c-0.3,0.4-0.7,0.7-1.1,0.9
		C291.5,10453.3,290.9,10453.4,290.4,10453.4L290.4,10453.4z M290.2,10447.5c-0.6,0-1,0.4-1.1,1.3h2.1v-0.2c0-0.3-0.1-0.6-0.3-0.9
		C290.7,10447.6,290.5,10447.5,290.2,10447.5z M300.2,10449.6c0,1-0.2,1.9-0.7,2.7c-0.4,0.7-1.1,1.1-1.9,1c-0.6,0-1.1-0.3-1.5-0.7
		v3.4h-2.1v-10.2h1.9l0.1,0.7c0.4-0.5,1-0.8,1.6-0.8c0.7,0,1.5,0.3,1.9,1c0.5,0.8,0.7,1.8,0.7,2.8L300.2,10449.6z M298.1,10449.5
		c0-1.3-0.3-2-1-2c-0.4-0.1-0.8,0.2-1,0.6v2.9c0.2,0.4,0.6,0.7,1,0.6c0.7,0,1-0.6,1-1.9V10449.5z M305.1,10447.9l-0.7-0.1
		c-0.5-0.1-1,0.2-1.3,0.7v4.7h-2.1v-7.4h1.9l0.1,0.9c0.2-0.7,0.8-1.1,1.5-1.1c0.2,0,0.4,0,0.6,0.1L305.1,10447.9z M309.1,10453.4
		c-0.9,0-1.8-0.3-2.5-1c-0.6-0.7-1-1.7-0.9-2.6v-0.2c0-0.7,0.1-1.4,0.4-2c0.2-0.6,0.6-1,1.1-1.3c0.5-0.3,1.1-0.5,1.7-0.5
		c0.8,0,1.6,0.3,2.2,1c0.6,0.7,0.9,1.7,0.8,2.7v0.9h-4.1c0.1,0.4,0.2,0.7,0.5,1c0.3,0.2,0.6,0.4,1,0.4c0.6,0,1.2-0.3,1.5-0.8
		l0.9,1.2c-0.3,0.4-0.7,0.7-1.1,0.9C310.1,10453.3,309.6,10453.4,309.1,10453.4L309.1,10453.4z M308.9,10447.5c-0.6,0-1,0.4-1.1,1.3
		h2.1v-0.2c0-0.3-0.1-0.6-0.3-0.9C309.4,10447.6,309.1,10447.5,308.9,10447.5z M316.2,10451.2c0-0.2-0.1-0.4-0.3-0.5
		c-0.3-0.2-0.7-0.3-1-0.4c-0.4-0.1-0.9-0.3-1.3-0.5c-0.3-0.2-0.6-0.4-0.8-0.8c-0.2-0.3-0.3-0.7-0.3-1c0-0.7,0.3-1.3,0.8-1.7
		c0.6-0.5,1.3-0.7,2-0.7c0.7,0,1.5,0.2,2.1,0.7c0.5,0.4,0.8,1,0.8,1.7h-2.1c0-0.6-0.3-0.9-0.8-0.9c-0.2,0-0.4,0.1-0.5,0.2
		c-0.1,0.1-0.2,0.3-0.2,0.5c0,0.2,0.1,0.4,0.3,0.5c0.3,0.2,0.6,0.3,0.9,0.3c0.4,0.1,0.7,0.2,1,0.3c0.9,0.2,1.5,1.1,1.5,2.1
		c0,0.7-0.3,1.3-0.8,1.6c-0.6,0.4-1.4,0.7-2.1,0.6c-0.5,0-1-0.1-1.5-0.3c-0.4-0.2-0.8-0.5-1-0.9c-0.2-0.4-0.4-0.8-0.4-1.2h1.9
		c0,0.3,0.1,0.6,0.3,0.7c0.2,0.2,0.5,0.2,0.8,0.2c0.2,0,0.4,0,0.6-0.2C316.1,10451.5,316.2,10451.4,316.2,10451.2L316.2,10451.2z
		 M322.4,10453.4c-0.9,0-1.8-0.3-2.5-1c-0.6-0.7-1-1.7-0.9-2.6v-0.2c0-0.7,0.1-1.4,0.4-2c0.2-0.6,0.6-1,1.1-1.3
		c0.5-0.3,1.1-0.5,1.7-0.5c0.8,0,1.6,0.3,2.2,1c0.6,0.7,0.9,1.7,0.8,2.7v0.9h-4.1c0.1,0.4,0.2,0.7,0.5,1c0.3,0.2,0.6,0.4,1,0.4
		c0.6,0,1.2-0.3,1.5-0.8l0.9,1.2c-0.3,0.4-0.7,0.7-1.1,0.9C323.4,10453.3,322.9,10453.4,322.4,10453.4L322.4,10453.4z
		 M322.1,10447.5c-0.6,0-1,0.4-1.1,1.3h2.1v-0.2c0-0.3-0.1-0.6-0.3-0.9C322.7,10447.6,322.4,10447.5,322.1,10447.5z M327.9,10445.9
		l0.1,0.9c0.4-0.7,1.2-1,1.9-1c0.6,0,1.2,0.2,1.5,0.7c0.4,0.6,0.6,1.3,0.5,2.1v4.8h-2.1v-4.7c0-0.3,0-0.6-0.2-0.8
		c-0.2-0.2-0.5-0.3-0.7-0.3c-0.4,0-0.7,0.2-0.9,0.5v5.2H326v-7.4L327.9,10445.9z M335.5,10444v1.8h1.1v1.6h-1.1v3.4
		c0,0.2,0,0.4,0.1,0.6c0.2,0.1,0.3,0.2,0.5,0.2c0.2,0,0.3,0,0.5,0v1.6c-0.4,0.1-0.8,0.2-1.2,0.2c-0.6,0.1-1.1-0.1-1.6-0.6
		c-0.4-0.5-0.6-1.1-0.5-1.7v-3.7h-0.8v-1.6h0.8v-1.8L335.5,10444z M341.1,10453.2c-0.1-0.2-0.2-0.4-0.2-0.7c-0.4,0.5-1,0.8-1.6,0.8
		c-0.6,0-1.2-0.2-1.6-0.6c-0.4-0.4-0.7-1-0.7-1.6c0-0.7,0.3-1.4,0.8-1.8c0.7-0.5,1.5-0.7,2.3-0.6h0.6v-0.4c0-0.7-0.3-1-0.8-1
		c-0.4-0.1-0.7,0.2-0.7,0.6c0,0.1,0,0.1,0,0.2h-2.1c0-0.7,0.3-1.4,0.8-1.7c0.6-0.5,1.3-0.7,2.1-0.7c0.7,0,1.4,0.2,2,0.7
		c0.5,0.5,0.8,1.2,0.8,1.9v3.3c0,0.5,0.1,1.1,0.3,1.6v0.1H341.1z M339.8,10451.7c0.2,0,0.4-0.1,0.6-0.2c0.2-0.1,0.3-0.2,0.4-0.4
		v-1.2h-0.6c-0.7,0-1.1,0.4-1.1,1.1c0,0.2,0.1,0.4,0.2,0.5C339.5,10451.7,339.7,10451.8,339.8,10451.7z M346.5,10444v1.8h1.1v1.6
		h-1.1v3.4c0,0.2,0,0.4,0.1,0.6c0.2,0.1,0.3,0.2,0.5,0.2c0.2,0,0.3,0,0.5,0v1.6c-0.4,0.1-0.8,0.2-1.2,0.2c-0.6,0.1-1.1-0.1-1.6-0.6
		c-0.4-0.5-0.6-1.1-0.5-1.7v-3.7h-0.8v-1.6h0.8v-1.8H346.5z M350.6,10453.2h-2.1v-7.4h2.1V10453.2z M348.4,10444
		c0-0.3,0.1-0.6,0.3-0.8c0.5-0.4,1.2-0.4,1.7,0c0.4,0.4,0.4,1.1,0.1,1.5c0,0,0,0-0.1,0.1c-0.5,0.4-1.2,0.4-1.7,0
		C348.5,10444.6,348.4,10444.3,348.4,10444z M354.5,10450.5l1-4.6h2.2l-2.2,7.4h-2.1l-2.2-7.4h2.2L354.5,10450.5z M358,10449.5
		c0-0.7,0.1-1.4,0.4-2c0.2-0.6,0.6-1,1.1-1.3c0.5-0.3,1.1-0.5,1.7-0.5c0.9-0.1,1.7,0.3,2.3,1c0.6,0.8,0.9,1.8,0.9,2.8v0.1
		c0,1-0.3,2-0.9,2.7c-0.6,0.7-1.5,1.1-2.3,1c-0.8,0-1.7-0.3-2.3-0.9c-0.6-0.7-0.9-1.6-0.9-2.6L358,10449.5z M360,10449.6
		c0,0.5,0.1,1,0.3,1.5c0.2,0.3,0.5,0.5,0.9,0.5c0.7,0,1.1-0.6,1.1-1.9v-0.2c0-1.3-0.4-2-1.1-2c-0.7,0-1.1,0.6-1.1,1.7L360,10449.6z
		 M368.8,10451.2c0-0.2-0.1-0.4-0.3-0.5c-0.3-0.2-0.7-0.3-1-0.4c-0.4-0.1-0.9-0.3-1.3-0.5c-0.3-0.2-0.6-0.4-0.8-0.8
		c-0.2-0.3-0.3-0.7-0.3-1c0-0.7,0.3-1.3,0.8-1.7c0.6-0.5,1.3-0.7,2-0.7c0.7,0,1.5,0.2,2.1,0.7c0.5,0.4,0.8,1,0.8,1.7h-2.1
		c0-0.6-0.3-0.9-0.8-0.9c-0.2,0-0.4,0.1-0.5,0.2c-0.1,0.1-0.2,0.3-0.2,0.5c0,0.2,0.1,0.4,0.3,0.5c0.3,0.2,0.6,0.3,0.9,0.3
		c0.4,0.1,0.7,0.2,1,0.3c0.9,0.2,1.5,1.1,1.5,2.1c0,0.7-0.3,1.3-0.8,1.6c-0.6,0.4-1.4,0.7-2.1,0.6c-0.5,0-1-0.1-1.5-0.3
		c-0.4-0.2-0.8-0.5-1-0.9c-0.2-0.4-0.4-0.8-0.4-1.2h1.9c0,0.3,0.1,0.6,0.3,0.7c0.2,0.2,0.5,0.2,0.8,0.2c0.2,0,0.4,0,0.6-0.2
		C368.7,10451.5,368.8,10451.4,368.8,10451.2L368.8,10451.2z M374.6,10449.5c0-1,0.2-2,0.7-2.8c0.4-0.7,1.2-1,1.9-1
		c0.6,0,1.1,0.3,1.5,0.8v-3.7h2.1v10.5h-1.9l-0.1-0.8c-0.4,0.6-1,0.9-1.6,0.9c-0.7,0-1.4-0.3-1.9-1
		C374.8,10451.5,374.5,10450.5,374.6,10449.5L374.6,10449.5z M376.7,10449.6c0,1.3,0.3,2,1,2c0.4,0,0.8-0.2,1-0.6v-2.8
		c-0.2-0.4-0.6-0.7-1-0.7c-0.6,0-1,0.6-1,1.7L376.7,10449.6z M385.1,10453.4c-0.9,0-1.8-0.3-2.5-1c-0.6-0.7-1-1.7-0.9-2.6v-0.2
		c0-0.7,0.1-1.4,0.4-2c0.2-0.6,0.6-1,1.1-1.3c0.5-0.3,1.1-0.5,1.7-0.5c0.8,0,1.6,0.3,2.2,1c0.6,0.7,0.9,1.7,0.8,2.7v0.9h-4.1
		c0.1,0.4,0.2,0.7,0.5,1c0.3,0.2,0.6,0.4,1,0.4c0.6,0,1.2-0.3,1.5-0.8l0.9,1.2c-0.3,0.4-0.7,0.7-1.1,0.9
		C386.2,10453.3,385.7,10453.4,385.1,10453.4L385.1,10453.4z M384.9,10447.5c-0.6,0-1,0.4-1.1,1.3h2.1v-0.2c0-0.3-0.1-0.6-0.3-0.9
		C385.4,10447.6,385.2,10447.5,384.9,10447.5z M282.2,10470.5c0-1,0.2-2,0.7-2.8c0.4-0.7,1.2-1,1.9-1c0.6,0,1.1,0.3,1.5,0.8v-3.7
		h2.1v10.5h-1.9l-0.1-0.8c-0.4,0.6-1,0.9-1.6,0.9c-0.7,0-1.4-0.3-1.9-1C282.4,10472.5,282.1,10471.5,282.2,10470.5z M284.2,10470.6
		c0,1.3,0.3,2,1,2c0.4,0,0.8-0.2,1-0.6v-2.8c-0.2-0.4-0.6-0.7-1-0.7c-0.6,0-1,0.6-1,1.7L284.2,10470.6z M292.7,10474.4
		c-0.9,0-1.8-0.3-2.5-1c-0.6-0.7-1-1.7-0.9-2.6v-0.2c0-0.7,0.1-1.4,0.4-2c0.2-0.6,0.6-1,1.1-1.3c0.5-0.3,1.1-0.5,1.7-0.5
		c0.8,0,1.6,0.3,2.2,1c0.6,0.7,0.9,1.7,0.8,2.7v0.9h-4.1c0.1,0.4,0.2,0.7,0.5,1c0.3,0.2,0.6,0.4,1,0.4c0.6,0,1.2-0.3,1.5-0.8
		l0.9,1.2c-0.3,0.4-0.7,0.7-1.1,0.9C293.8,10474.2,293.2,10474.4,292.7,10474.4z M292.5,10468.5c-0.6,0-1,0.4-1.1,1.3h2.1v-0.2
		c0-0.3-0.1-0.6-0.3-0.9C293,10468.6,292.8,10468.5,292.5,10468.5z M300.3,10473.4c-0.4,0.6-1.1,1-1.8,0.9c-0.6,0-1.2-0.2-1.7-0.7
		c-0.4-0.6-0.6-1.3-0.6-2v-4.8h2.1v4.8c-0.1,0.5,0.2,0.9,0.6,0.9c0.1,0,0.1,0,0.2,0c0.4,0,0.8-0.2,1-0.6v-5.2h2.1v7.4h-1.9
		L300.3,10473.4z M303.2,10470.5c0-1,0.2-2,0.7-2.8c0.4-0.7,1.2-1,1.9-1c0.6,0,1.1,0.3,1.5,0.8v-3.7h2.1v10.5h-1.9l-0.1-0.8
		c-0.4,0.6-1,0.9-1.6,0.9c-0.7,0-1.4-0.3-1.9-1C303.4,10472.5,303.1,10471.5,303.2,10470.5L303.2,10470.5z M305.2,10470.6
		c0,1.3,0.3,2,1,2c0.4,0,0.8-0.2,1-0.6v-2.8c-0.2-0.4-0.6-0.7-1-0.7c-0.6,0-1,0.6-1,1.7L305.2,10470.6z M314.2,10474.2
		c-0.1-0.2-0.2-0.4-0.2-0.7c-0.4,0.5-1,0.8-1.6,0.8c-0.6,0-1.2-0.2-1.6-0.6c-0.4-0.4-0.7-1-0.7-1.6c0-0.7,0.3-1.4,0.8-1.8
		c0.7-0.5,1.5-0.7,2.3-0.6h0.6v-0.4c0-0.7-0.3-1-0.8-1c-0.4-0.1-0.7,0.2-0.7,0.6c0,0.1,0,0.1,0,0.2h-2.1c0-0.7,0.3-1.4,0.8-1.7
		c0.6-0.5,1.3-0.7,2.1-0.7c0.7,0,1.4,0.2,2,0.7c0.5,0.5,0.8,1.2,0.8,1.9v3.3c0,0.5,0.1,1.1,0.3,1.6v0.1H314.2z M312.9,10472.7
		c0.2,0,0.4-0.1,0.6-0.2c0.2-0.1,0.3-0.2,0.4-0.4v-1.2h-0.6c-0.7,0-1.1,0.4-1.1,1.1c0,0.2,0.1,0.4,0.2,0.5
		C312.6,10472.7,312.8,10472.7,312.9,10472.7L312.9,10472.7z M324,10474.2c-0.1-0.2-0.2-0.4-0.2-0.7c-0.4,0.5-1,0.8-1.6,0.8
		c-0.6,0-1.2-0.2-1.6-0.6c-0.4-0.4-0.7-1-0.7-1.6c0-0.7,0.3-1.4,0.8-1.8c0.7-0.5,1.5-0.7,2.3-0.6h0.6v-0.4c0-0.7-0.3-1-0.8-1
		c-0.4-0.1-0.7,0.2-0.7,0.6c0,0.1,0,0.1,0,0.2h-2.1c0-0.7,0.3-1.4,0.8-1.7c0.6-0.5,1.3-0.7,2.1-0.7c0.7,0,1.4,0.2,2,0.7
		c0.5,0.5,0.8,1.2,0.8,1.9v3.3c0,0.5,0.1,1.1,0.3,1.6v0.1H324z M322.7,10472.7c0.2,0,0.4-0.1,0.6-0.2c0.2-0.1,0.3-0.2,0.4-0.4v-1.2
		h-0.6c-0.7,0-1.1,0.4-1.1,1.1c0,0.2,0.1,0.4,0.2,0.5C322.4,10472.7,322.6,10472.7,322.7,10472.7z M332.3,10474.2h-2.1v-10.5h2.1
		V10474.2z M337.3,10474.2c-0.1-0.2-0.2-0.4-0.2-0.7c-0.4,0.5-1,0.8-1.6,0.8c-0.6,0-1.2-0.2-1.6-0.6c-0.4-0.4-0.7-1-0.7-1.6
		c0-0.7,0.3-1.4,0.8-1.8c0.7-0.5,1.5-0.7,2.3-0.6h0.6v-0.4c0-0.7-0.3-1-0.8-1c-0.4-0.1-0.7,0.2-0.7,0.6c0,0.1,0,0.1,0,0.2h-2.1
		c0-0.7,0.3-1.4,0.8-1.7c0.6-0.5,1.3-0.7,2.1-0.7c0.7,0,1.4,0.2,2,0.7c0.5,0.5,0.8,1.2,0.8,1.9v3.3c0,0.5,0.1,1.1,0.3,1.6v0.1H337.3
		z M336,10472.7c0.2,0,0.4-0.1,0.6-0.2c0.2-0.1,0.3-0.2,0.4-0.4v-1.2h-0.6c-0.7,0-1.1,0.4-1.1,1.1c0,0.2,0.1,0.4,0.2,0.5
		C335.6,10472.7,335.8,10472.7,336,10472.7L336,10472.7z M344.2,10468.9l-0.7-0.1c-0.5-0.1-1,0.2-1.3,0.7v4.7h-2.1v-7.4h1.9l0.1,0.9
		c0.2-0.7,0.8-1.1,1.5-1.1c0.2,0,0.4,0,0.6,0.1L344.2,10468.9z M344.7,10470.5c0-0.7,0.1-1.4,0.3-2c0.2-0.5,0.5-1,1-1.3
		c0.4-0.3,0.9-0.5,1.4-0.5c0.6,0,1.2,0.3,1.6,0.8l0.1-0.6h1.9v7.1c0,0.6-0.1,1.2-0.4,1.7c-0.3,0.5-0.7,0.9-1.2,1.1
		c-0.6,0.3-1.2,0.4-1.8,0.4c-0.5,0-1-0.1-1.4-0.3c-0.4-0.2-0.8-0.4-1-0.8l0.9-1.4c0.4,0.5,0.9,0.8,1.5,0.8c0.7,0.1,1.3-0.4,1.4-1.2
		c0-0.1,0-0.3,0-0.4v-0.2c-0.4,0.5-0.9,0.7-1.5,0.7c-0.8,0-1.5-0.4-2-1C345,10472.5,344.7,10471.5,344.7,10470.5L344.7,10470.5z
		 M346.8,10470.6c0,0.5,0.1,1,0.3,1.4c0.2,0.3,0.5,0.5,0.9,0.5c0.4,0,0.8-0.2,1-0.5v-3.1c-0.2-0.3-0.6-0.5-1-0.5
		c-0.4,0-0.7,0.2-0.9,0.6C346.9,10469.5,346.8,10470.1,346.8,10470.6L346.8,10470.6z M351.9,10470.5c0-0.7,0.1-1.4,0.4-2
		c0.2-0.6,0.6-1,1.1-1.3c0.5-0.3,1.1-0.5,1.7-0.5c0.9-0.1,1.7,0.3,2.3,1c0.6,0.8,0.9,1.8,0.9,2.8v0.1c0,1-0.3,2-0.9,2.7
		c-0.6,0.7-1.5,1.1-2.3,1c-0.8,0-1.7-0.3-2.3-0.9c-0.6-0.7-0.9-1.6-0.9-2.6L351.9,10470.5z M354,10470.6c0,0.5,0.1,1,0.3,1.5
		c0.2,0.3,0.5,0.5,0.9,0.5c0.7,0,1.1-0.6,1.1-1.9v-0.2c0-1.3-0.4-2-1.1-2c-0.7,0-1.1,0.6-1.1,1.7L354,10470.6z M368.6,10470.6
		c0,1-0.2,1.9-0.7,2.7c-0.4,0.7-1.1,1.1-1.9,1c-0.6,0-1.1-0.3-1.5-0.7v3.4h-2.1v-10.2h1.9l0.1,0.7c0.4-0.5,1-0.8,1.6-0.8
		c0.7,0,1.5,0.3,1.9,1c0.5,0.8,0.7,1.8,0.7,2.8L368.6,10470.6z M366.5,10470.4c0-1.3-0.3-2-1-2c-0.4-0.1-0.8,0.2-1,0.6v2.9
		c0.2,0.4,0.6,0.7,1,0.6c0.7,0,1-0.6,1-1.9V10470.4z M371.7,10474.2h-2.1v-10.5h2.1V10474.2z M376.7,10474.2
		c-0.1-0.2-0.2-0.4-0.2-0.7c-0.4,0.5-1,0.8-1.6,0.8c-0.6,0-1.2-0.2-1.6-0.6c-0.4-0.4-0.7-1-0.7-1.6c0-0.7,0.3-1.4,0.8-1.8
		c0.7-0.5,1.5-0.7,2.3-0.6h0.6v-0.4c0-0.7-0.3-1-0.8-1c-0.4-0.1-0.7,0.2-0.7,0.6c0,0.1,0,0.1,0,0.2h-2.1c0-0.7,0.3-1.4,0.8-1.7
		c0.6-0.5,1.3-0.7,2.1-0.7c0.7,0,1.4,0.2,2,0.7c0.5,0.5,0.8,1.2,0.8,1.9v3.3c0,0.5,0.1,1.1,0.3,1.6v0.1H376.7z M375.4,10472.7
		c0.2,0,0.4-0.1,0.6-0.2c0.2-0.1,0.3-0.2,0.4-0.4v-1.2h-0.6c-0.7,0-1.1,0.4-1.1,1.1c0,0.2,0.1,0.4,0.2,0.5
		C375,10472.7,375.2,10472.7,375.4,10472.7L375.4,10472.7z M382,10472.4h3v1.8h-5.6v-1.3l2.9-4.3h-2.8v-1.8h5.4v1.2L382,10472.4z
		 M385.7,10470.5c0-0.7,0.1-1.4,0.4-2c0.2-0.6,0.6-1,1.1-1.3c0.5-0.3,1.1-0.5,1.7-0.5c0.9-0.1,1.7,0.3,2.3,1
		c0.6,0.8,0.9,1.8,0.9,2.8v0.1c0,1-0.3,2-0.9,2.7c-0.6,0.7-1.5,1.1-2.3,1c-0.8,0-1.7-0.3-2.3-0.9c-0.6-0.7-0.9-1.6-0.9-2.6
		L385.7,10470.5z M387.8,10470.6c0,0.5,0.1,1,0.3,1.5c0.2,0.3,0.5,0.5,0.9,0.5c0.7,0,1.1-0.6,1.1-1.9v-0.2c0-1.3-0.4-2-1.1-2
		c-0.7,0-1.1,0.6-1.1,1.7L387.8,10470.6z"/>
	<path id="Trazado_102755" class="st2" d="M437.5,10427.3h0.8c0.4,0,0.8-0.1,1.1-0.4c0.3-0.3,0.4-0.7,0.4-1.1c0.1-0.7-0.4-1.4-1-1.6
		c-0.1,0-0.2,0-0.3,0c-0.4,0-0.8,0.1-1,0.4c-0.3,0.3-0.4,0.7-0.4,1.1h-1c0-0.7,0.2-1.3,0.7-1.7c0.5-0.5,1.1-0.7,1.8-0.7
		c0.6,0,1.3,0.2,1.8,0.7c0.4,0.5,0.7,1.2,0.6,1.8c0,0.4-0.1,0.8-0.3,1.1c-0.2,0.4-0.5,0.6-0.9,0.8c0.4,0.1,0.8,0.4,1,0.8
		c0.2,0.4,0.4,0.8,0.4,1.3c0,0.7-0.2,1.4-0.7,1.9c-0.5,0.5-1.2,0.7-1.8,0.7c-0.7,0-1.3-0.2-1.8-0.7c-0.5-0.4-0.7-1.1-0.7-1.8h1
		c0,0.4,0.1,0.8,0.4,1.1c0.3,0.3,0.7,0.4,1.1,0.4c0.4,0,0.8-0.1,1.1-0.4c0.3-0.3,0.4-0.8,0.4-1.2c0-0.4-0.1-0.9-0.4-1.2
		c-0.4-0.3-0.8-0.5-1.2-0.4h-0.8V10427.3z M446.3,10423.4v1h-0.2c-0.7,0-1.4,0.3-1.9,0.8c-0.5,0.6-0.8,1.3-0.8,2.1
		c0.4-0.5,1.1-0.8,1.7-0.8c0.6,0,1.2,0.3,1.7,0.8c0.4,0.6,0.6,1.3,0.6,2.1c0,0.8-0.2,1.6-0.7,2.2c-0.5,0.6-1.1,0.9-1.8,0.8
		c-0.7,0-1.4-0.3-1.8-1c-0.5-0.7-0.7-1.6-0.7-2.5v-0.4c-0.1-1.3,0.3-2.6,0.9-3.7c0.7-0.9,1.7-1.4,2.8-1.3L446.3,10423.4z
		 M445,10427.4c-0.7,0-1.3,0.5-1.6,1.2v0.4c0,0.6,0.1,1.2,0.4,1.8c0.2,0.4,0.7,0.7,1.1,0.7c0.4,0,0.8-0.2,1.1-0.6
		c0.3-0.4,0.4-0.9,0.4-1.5c0-0.5-0.1-1-0.4-1.5C445.8,10427.6,445.4,10427.4,445,10427.4z M449.1,10427.8l0.4-4.4h4.1v1h-3.2
		l-0.2,2.4c0.4-0.3,0.9-0.4,1.3-0.4c0.7,0,1.3,0.3,1.7,0.8c0.4,0.6,0.7,1.4,0.6,2.2c0,0.8-0.2,1.6-0.7,2.2c-0.5,0.5-1.2,0.8-1.9,0.8
		c-0.6,0-1.2-0.2-1.7-0.6c-0.5-0.5-0.7-1.1-0.8-1.8h1c0,0.4,0.2,0.8,0.5,1.1c0.3,0.3,0.7,0.4,1,0.4c0.4,0,0.8-0.2,1.1-0.5
		c0.3-0.4,0.4-0.9,0.4-1.5c0-0.5-0.1-1-0.4-1.4c-0.3-0.4-0.7-0.6-1.2-0.5c-0.4,0-0.7,0.1-1,0.3l-0.3,0.2L449.1,10427.8z
		 M455,10431.7c0-0.2,0.1-0.4,0.2-0.5c0.1-0.1,0.3-0.2,0.5-0.2c0.2,0,0.3,0.1,0.5,0.2c0.1,0.1,0.2,0.3,0.2,0.5
		c0,0.2-0.1,0.3-0.2,0.5c-0.1,0.1-0.3,0.2-0.5,0.2c-0.3,0-0.6-0.2-0.6-0.5C455,10431.8,455,10431.7,455,10431.7L455,10431.7z
		 M462.8,10428.5c0.1,1-0.1,2-0.6,2.9c-0.4,0.7-1.2,1-1.9,1c-0.7,0.1-1.4-0.3-1.9-0.9c-0.5-0.8-0.7-1.8-0.6-2.8v-1.5
		c-0.1-1,0.1-2,0.6-2.9c0.4-0.7,1.2-1,1.9-0.9c0.7-0.1,1.4,0.3,1.9,0.9c0.5,0.8,0.7,1.8,0.6,2.8L462.8,10428.5z M461.8,10427
		c0-0.7-0.1-1.4-0.4-2.1c-0.2-0.4-0.7-0.7-1.1-0.7c-0.5,0-0.9,0.2-1.1,0.6c-0.3,0.6-0.4,1.3-0.4,2v1.8c0,0.7,0.1,1.5,0.4,2.1
		c0.2,0.4,0.7,0.7,1.1,0.7c0.4,0,0.9-0.2,1.1-0.6c0.3-0.6,0.4-1.3,0.4-2L461.8,10427z M469.1,10428.5c0.1,1-0.1,2-0.6,2.9
		c-0.4,0.7-1.2,1-1.9,1c-0.7,0.1-1.4-0.3-1.9-0.9c-0.5-0.8-0.7-1.8-0.6-2.8v-1.5c-0.1-1,0.1-2,0.6-2.9c0.4-0.7,1.2-1,1.9-0.9
		c0.7-0.1,1.4,0.3,1.9,0.9c0.5,0.8,0.7,1.8,0.6,2.8L469.1,10428.5z M468.1,10427c0-0.7-0.1-1.4-0.4-2.1c-0.2-0.4-0.7-0.7-1.1-0.7
		c-0.5,0-0.9,0.2-1.1,0.6c-0.3,0.6-0.4,1.3-0.4,2v1.8c0,0.7,0.1,1.5,0.4,2.1c0.2,0.4,0.7,0.7,1.1,0.7c0.4,0,0.9-0.2,1.1-0.6
		c0.3-0.6,0.4-1.3,0.4-2L468.1,10427z M475.4,10428.5c0.1,1-0.1,2-0.6,2.9c-0.9,1.2-2.5,1.3-3.5,0.3c-0.1-0.1-0.2-0.2-0.2-0.3
		c-0.5-0.8-0.7-1.8-0.6-2.8v-1.5c-0.1-1,0.1-2,0.6-2.9c0.9-1.2,2.6-1.3,3.6-0.2c0.1,0.1,0.1,0.1,0.2,0.2c0.5,0.8,0.7,1.8,0.6,2.8
		L475.4,10428.5z M474.3,10427c0-0.7-0.1-1.4-0.4-2.1c-0.2-0.4-0.7-0.7-1.1-0.7c-0.5,0-0.9,0.2-1.1,0.6c-0.3,0.6-0.4,1.3-0.4,2v1.8
		c0,0.7,0.1,1.5,0.4,2.1c0.2,0.4,0.7,0.7,1.1,0.7c0.4,0,0.9-0.2,1.1-0.6c0.3-0.6,0.4-1.3,0.4-2L474.3,10427z M476.7,10434l-0.6-0.4
		c0.3-0.5,0.5-1,0.5-1.6v-1h1v0.9c0,0.4-0.1,0.8-0.3,1.2C477.2,10433.4,477,10433.8,476.7,10434L476.7,10434z M483.8,10428.5
		c0.1,1-0.1,2-0.6,2.9c-0.9,1.2-2.5,1.3-3.5,0.3c-0.1-0.1-0.2-0.2-0.2-0.3c-0.5-0.8-0.7-1.8-0.6-2.8v-1.5c-0.1-1,0.1-2,0.6-2.9
		c0.9-1.2,2.6-1.3,3.6-0.2c0.1,0.1,0.1,0.1,0.2,0.2c0.5,0.8,0.7,1.8,0.6,2.8L483.8,10428.5z M482.8,10427c0-0.7-0.1-1.4-0.4-2.1
		c-0.2-0.4-0.7-0.7-1.1-0.7c-0.5,0-0.9,0.2-1.1,0.6c-0.3,0.6-0.4,1.3-0.4,2v1.8c0,0.7,0.1,1.5,0.4,2.1c0.2,0.4,0.7,0.7,1.1,0.7
		c0.4,0,0.9-0.2,1.1-0.6c0.3-0.6,0.4-1.3,0.4-2L482.8,10427z M490.1,10428.5c0.1,1-0.1,2-0.6,2.9c-0.9,1.2-2.5,1.3-3.5,0.3
		c-0.1-0.1-0.2-0.2-0.2-0.3c-0.5-0.8-0.7-1.8-0.6-2.8v-1.5c-0.1-1,0.1-2,0.6-2.9c0.9-1.2,2.6-1.3,3.6-0.2c0.1,0.1,0.1,0.1,0.2,0.2
		c0.5,0.8,0.7,1.8,0.6,2.8L490.1,10428.5z M489.1,10427c0-0.7-0.1-1.4-0.4-2.1c-0.2-0.4-0.7-0.7-1.1-0.7c-0.5,0-0.9,0.2-1.1,0.6
		c-0.3,0.6-0.4,1.3-0.4,2v1.8c0,0.7,0.1,1.5,0.4,2.1c0.2,0.4,0.7,0.7,1.1,0.7c0.4,0,0.9-0.2,1.1-0.6c0.3-0.6,0.4-1.3,0.4-2
		L489.1,10427z"/>
	<path id="Trazado_102757" class="st2" d="M569.5,10523.4h0.8c0.4,0,0.8-0.1,1.1-0.4c0.3-0.3,0.4-0.7,0.4-1.1c0.1-0.7-0.4-1.4-1-1.6
		c-0.1,0-0.2,0-0.3,0c-0.4,0-0.8,0.1-1,0.4c-0.3,0.3-0.4,0.7-0.4,1.1h-1c0-0.7,0.2-1.3,0.7-1.7c0.5-0.5,1.1-0.7,1.8-0.7
		c0.6,0,1.3,0.2,1.8,0.7c0.4,0.5,0.7,1.2,0.6,1.8c0,0.4-0.1,0.8-0.3,1.1c-0.2,0.4-0.5,0.6-0.9,0.8c0.4,0.1,0.8,0.4,1,0.8
		c0.2,0.4,0.4,0.8,0.4,1.3c0,0.7-0.2,1.4-0.7,1.9c-0.5,0.5-1.2,0.7-1.8,0.7c-0.7,0-1.3-0.2-1.8-0.7c-0.5-0.4-0.7-1.1-0.7-1.8h1
		c0,0.4,0.1,0.8,0.4,1.1c0.3,0.3,0.7,0.4,1.1,0.4c0.4,0,0.8-0.1,1.1-0.4c0.3-0.3,0.4-0.8,0.4-1.2c0-0.4-0.1-0.9-0.4-1.2
		c-0.4-0.3-0.8-0.5-1.2-0.4h-0.8V10523.4z M578.3,10519.5v1h-0.2c-0.7,0-1.4,0.3-1.9,0.8c-0.5,0.6-0.8,1.3-0.8,2.1
		c0.4-0.5,1.1-0.8,1.7-0.8c0.6,0,1.2,0.3,1.7,0.8c0.4,0.6,0.6,1.3,0.6,2.1c0,0.8-0.2,1.6-0.7,2.2c-0.5,0.6-1.1,0.9-1.8,0.8
		c-0.7,0-1.4-0.3-1.8-1c-0.5-0.7-0.7-1.6-0.7-2.5v-0.4c-0.1-1.3,0.3-2.6,0.9-3.7c0.7-0.9,1.7-1.4,2.8-1.3L578.3,10519.5z
		 M576.9,10523.5c-0.7,0-1.3,0.5-1.6,1.2v0.4c0,0.6,0.1,1.2,0.4,1.8c0.2,0.4,0.7,0.7,1.1,0.7c0.4,0,0.8-0.2,1.1-0.6
		c0.3-0.4,0.4-0.9,0.4-1.5c0-0.5-0.1-1-0.4-1.5C577.7,10523.7,577.3,10523.5,576.9,10523.5z M581,10524l0.4-4.4h4.1v1h-3.2l-0.2,2.4
		c0.4-0.3,0.9-0.4,1.3-0.4c0.7,0,1.3,0.3,1.7,0.8c0.4,0.6,0.7,1.4,0.6,2.2c0,0.8-0.2,1.6-0.7,2.2c-0.5,0.5-1.2,0.8-1.9,0.8
		c-0.6,0-1.2-0.2-1.7-0.7c-0.5-0.5-0.7-1.1-0.8-1.8h1c0,0.4,0.2,0.8,0.5,1.1c0.3,0.3,0.7,0.4,1,0.4c0.4,0,0.8-0.2,1.1-0.5
		c0.3-0.4,0.4-0.9,0.4-1.5c0-0.5-0.1-1-0.4-1.4c-0.3-0.4-0.7-0.6-1.2-0.5c-0.4,0-0.7,0.1-1,0.3l-0.3,0.2L581,10524z M587,10527.8
		c0-0.2,0.1-0.4,0.2-0.5c0.1-0.1,0.3-0.2,0.5-0.2c0.2,0,0.3,0.1,0.5,0.2c0.1,0.1,0.2,0.3,0.2,0.5c0,0.2-0.1,0.3-0.2,0.5
		c-0.1,0.1-0.3,0.2-0.5,0.2c-0.3,0-0.6-0.2-0.6-0.5C587,10527.9,587,10527.8,587,10527.8L587,10527.8z M594.8,10524.6
		c0.1,1-0.1,2-0.6,2.9c-0.4,0.7-1.2,1-1.9,1c-0.7,0.1-1.4-0.3-1.9-0.9c-0.5-0.8-0.7-1.8-0.6-2.8v-1.5c-0.1-1,0.1-2,0.6-2.9
		c0.4-0.7,1.2-1,1.9-0.9c0.7-0.1,1.4,0.3,1.9,0.9c0.5,0.8,0.7,1.8,0.6,2.8L594.8,10524.6z M593.8,10523.1c0-0.7-0.1-1.4-0.4-2.1
		c-0.2-0.4-0.7-0.7-1.1-0.7c-0.5,0-0.9,0.2-1.1,0.6c-0.3,0.6-0.4,1.3-0.4,2v1.8c0,0.7,0.1,1.5,0.4,2.1c0.2,0.4,0.7,0.7,1.1,0.7
		c0.4,0,0.9-0.2,1.1-0.6c0.3-0.6,0.4-1.3,0.4-2L593.8,10523.1z M601,10524.6c0.1,1-0.1,2-0.6,2.9c-0.4,0.7-1.2,1-1.9,1
		c-0.7,0.1-1.4-0.3-1.9-0.9c-0.5-0.8-0.7-1.8-0.6-2.8v-1.5c-0.1-1,0.1-2,0.6-2.9c0.4-0.7,1.2-1,1.9-0.9c0.7-0.1,1.4,0.3,1.9,0.9
		c0.5,0.8,0.7,1.8,0.6,2.8L601,10524.6z M600,10523.1c0-0.7-0.1-1.4-0.4-2.1c-0.2-0.4-0.7-0.7-1.1-0.7c-0.5,0-0.9,0.2-1.1,0.6
		c-0.3,0.6-0.4,1.3-0.4,2v1.8c0,0.7,0.1,1.5,0.4,2.1c0.2,0.4,0.7,0.7,1.1,0.7c0.4,0,0.9-0.2,1.1-0.6c0.3-0.6,0.4-1.3,0.4-2
		L600,10523.1z M607.3,10524.6c0.1,1-0.1,2-0.6,2.9c-0.9,1.2-2.5,1.3-3.5,0.3c-0.1-0.1-0.2-0.2-0.2-0.3c-0.5-0.8-0.7-1.8-0.6-2.8
		v-1.5c-0.1-1,0.1-2,0.6-2.9c0.9-1.2,2.6-1.3,3.6-0.2c0.1,0.1,0.1,0.1,0.2,0.2c0.5,0.8,0.7,1.8,0.6,2.8L607.3,10524.6z
		 M606.3,10523.1c0-0.7-0.1-1.4-0.4-2.1c-0.2-0.4-0.7-0.7-1.1-0.7c-0.5,0-0.9,0.2-1.1,0.6c-0.3,0.6-0.4,1.3-0.4,2v1.8
		c0,0.7,0.1,1.5,0.4,2.1c0.2,0.4,0.7,0.7,1.1,0.7c0.4,0,0.9-0.2,1.1-0.6c0.3-0.6,0.4-1.3,0.4-2L606.3,10523.1z M608.7,10530.1
		l-0.6-0.4c0.3-0.5,0.5-1,0.5-1.6v-1h1v0.9c0,0.4-0.1,0.8-0.3,1.2C609.2,10529.5,609,10529.9,608.7,10530.1L608.7,10530.1z
		 M615.8,10524.6c0.1,1-0.1,2-0.6,2.9c-0.9,1.2-2.5,1.3-3.5,0.3c-0.1-0.1-0.2-0.2-0.2-0.3c-0.5-0.8-0.7-1.8-0.6-2.8v-1.5
		c-0.1-1,0.1-2,0.6-2.9c0.9-1.2,2.6-1.3,3.6-0.2c0.1,0.1,0.1,0.1,0.2,0.2c0.5,0.8,0.7,1.8,0.6,2.8L615.8,10524.6z M614.8,10523.1
		c0-0.7-0.1-1.4-0.4-2.1c-0.2-0.4-0.7-0.7-1.1-0.7c-0.5,0-0.9,0.2-1.1,0.6c-0.3,0.6-0.4,1.3-0.4,2v1.8c0,0.7,0.1,1.5,0.4,2.1
		c0.2,0.4,0.7,0.7,1.1,0.7c0.4,0,0.9-0.2,1.1-0.6c0.3-0.6,0.4-1.3,0.4-2L614.8,10523.1z M622.1,10524.6c0.1,1-0.1,2-0.6,2.9
		c-0.9,1.2-2.5,1.3-3.5,0.3c-0.1-0.1-0.2-0.2-0.2-0.3c-0.5-0.8-0.7-1.8-0.6-2.8v-1.5c-0.1-1,0.1-2,0.6-2.9c0.9-1.2,2.6-1.3,3.6-0.2
		c0.1,0.1,0.1,0.1,0.2,0.2c0.5,0.8,0.7,1.8,0.6,2.8L622.1,10524.6z M621,10523.1c0-0.7-0.1-1.4-0.4-2.1c-0.2-0.4-0.7-0.7-1.1-0.7
		c-0.5,0-0.9,0.2-1.1,0.6c-0.3,0.6-0.4,1.3-0.4,2v1.8c0,0.7,0.1,1.5,0.4,2.1c0.2,0.4,0.7,0.7,1.1,0.7c0.4,0,0.9-0.2,1.1-0.6
		c0.3-0.6,0.4-1.3,0.4-2L621,10523.1z"/>
	<line id="Línea_160" class="st3" x1="404" y1="10400.4" x2="404" y2="10543.3"/>
	<line id="Línea_162" class="st3" x1="531" y1="10400.4" x2="531" y2="10543.3"/>
	<path id="Trazado_99540" class="st4" d="M266.5,10353.3h400v47.1h-400V10353.3z"/>
	<path id="Trazado_102751" class="st1" d="M311.9,10377.3c0,0.9-0.3,1.7-0.7,2.4c-0.4,0.7-1,1.3-1.7,1.6c-0.8,0.4-1.7,0.6-2.5,0.6
		c-1.4,0.1-2.8-0.5-3.7-1.7c-1-1.4-1.4-3.1-1.4-4.8v-0.7c0-1.2,0.2-2.3,0.6-3.4c0.4-0.9,1-1.7,1.8-2.3c0.8-0.5,1.7-0.8,2.7-0.8
		c1.3-0.1,2.5,0.4,3.5,1.3c0.9,0.9,1.4,2.2,1.5,3.5h-2.9c0-0.6-0.2-1.3-0.5-1.7c-0.4-0.4-1-0.6-1.6-0.5c-0.6,0-1.2,0.3-1.6,0.9
		c-0.4,0.9-0.6,1.9-0.5,2.9v0.9c-0.1,1,0.1,2.1,0.5,3c0.4,0.6,1,1,1.6,0.9c0.5,0,1.1-0.1,1.5-0.5c0.4-0.4,0.6-1,0.6-1.6
		L311.9,10377.3z M322.6,10368.5v8.7c0,0.9-0.2,1.8-0.6,2.6c-0.4,0.7-0.9,1.3-1.6,1.6c-0.8,0.4-1.6,0.6-2.5,0.6
		c-1.2,0.1-2.5-0.4-3.4-1.3c-0.9-0.9-1.3-2.1-1.3-3.4v-8.7h2.9v8.8c0,1.5,0.6,2.2,1.8,2.2c0.5,0,1-0.2,1.4-0.5
		c0.3-0.5,0.5-1.1,0.5-1.8v-8.7H322.6z M331.8,10376.1h-4.5v3.2h5.3v2.5h-8.2v-13.3h8.2v2.5h-5.4v2.8h4.5L331.8,10376.1z
		 M343.7,10381.8h-2.9l-4.2-8.2v8.2h-2.9v-13.3h2.9l4.2,8.2v-8.2h2.9L343.7,10381.8z M354.9,10371h-3.6v10.8h-2.9v-10.8h-3.5v-2.5
		h10L354.9,10371z M361.9,10379.3H358l-0.7,2.5h-3.1l4.4-13.3h2.7l4.4,13.3h-3.1L361.9,10379.3z M358.7,10376.8h2.6l-1.3-4.6
		L358.7,10376.8z"/>
	<path id="Trazado_102752" class="st1" d="M431.4,10383.4v-13.3h3.8c1,0,2,0.3,2.8,0.8c0.8,0.5,1.5,1.3,2,2.2c0.5,1,0.7,2.1,0.7,3.3
		v0.6c0,1.1-0.2,2.3-0.7,3.3c-0.4,0.9-1.1,1.7-1.9,2.3c-0.9,0.5-1.8,0.8-2.8,0.8H431.4z M434.3,10372.7v8.3h1c0.7,0,1.5-0.3,1.9-1
		c0.5-0.9,0.7-1.9,0.7-2.9v-0.6c0.1-1-0.2-2-0.7-2.9c-0.5-0.7-1.2-1-1.9-1H434.3z M449.6,10377.8h-4.5v3.2h5.3v2.5h-8.2v-13.3h8.2
		v2.5h-5.4v2.8h4.5V10377.8z M447,10366.6h2.9l-2.3,2.9l-2.2,0L447,10366.6z M451.6,10383.4v-13.3h4.3c1.2-0.1,2.4,0.2,3.5,0.9
		c0.8,0.6,1.2,1.6,1.2,2.7c0,0.6-0.1,1.2-0.4,1.8c-0.3,0.5-0.7,0.9-1.3,1.1c0.6,0.1,1.1,0.5,1.4,1c0.3,0.5,0.5,1.2,0.5,1.8
		c0.1,1.1-0.3,2.2-1.1,2.9c-1,0.7-2.1,1.1-3.3,1H451.6z M454.5,10377.8v3.2h1.9c0.4,0,0.9-0.1,1.2-0.4c0.3-0.3,0.4-0.7,0.4-1.1
		c0.1-0.8-0.4-1.5-1.1-1.7c-0.1,0-0.2,0-0.4,0H454.5z M454.5,10375.7h1.5c0.5,0,0.9-0.1,1.3-0.4c0.3-0.3,0.4-0.7,0.4-1.1
		c0-0.5-0.1-0.9-0.4-1.2c-0.4-0.3-0.9-0.4-1.4-0.4h-1.4L454.5,10375.7z M465.5,10383.4h-2.9v-13.3h2.9V10383.4z M476.8,10372.7h-3.6
		v10.8h-2.9v-10.8h-3.5v-2.5h10V10372.7z M487.9,10377.1c0,1.2-0.2,2.4-0.6,3.4c-0.4,1-1,1.8-1.8,2.3c-0.8,0.5-1.8,0.8-2.7,0.8
		c-0.9,0-1.9-0.2-2.7-0.8c-0.8-0.5-1.4-1.3-1.8-2.2c-0.5-1-0.7-2.2-0.7-3.3v-0.7c0-1.2,0.2-2.4,0.6-3.4c0.4-1,1-1.8,1.8-2.3
		c0.8-0.5,1.8-0.8,2.7-0.8c0.9,0,1.9,0.3,2.7,0.8c0.8,0.5,1.4,1.3,1.8,2.3c0.5,1.1,0.7,2.2,0.7,3.4V10377.1z M485,10376.5
		c0.1-1-0.1-2.1-0.6-3c-0.4-0.7-1-1.1-1.7-1c-1.4,0-2.2,1.2-2.3,3.6l0,1c-0.1,1,0.1,2.1,0.6,3c0.4,0.7,1,1.1,1.7,1
		c0.7,0,1.3-0.4,1.7-1c0.4-0.9,0.6-1.9,0.6-3L485,10376.5z M495.5,10379.9c0-0.4-0.1-0.8-0.4-1.1c-0.5-0.4-1-0.6-1.6-0.8
		c-0.6-0.2-1.2-0.5-1.8-0.8c-1.5-0.8-2.3-2-2.3-3.5c0-0.7,0.2-1.4,0.6-1.9c0.4-0.6,1-1,1.6-1.3c0.8-0.3,1.6-0.5,2.4-0.5
		c0.8,0,1.6,0.2,2.3,0.5c0.6,0.3,1.2,0.8,1.6,1.4c0.4,0.6,0.6,1.4,0.6,2.2h-2.9c0-0.5-0.1-0.9-0.4-1.3c-0.3-0.3-0.8-0.5-1.2-0.4
		c-0.4,0-0.9,0.1-1.2,0.4c-0.3,0.2-0.4,0.6-0.4,1c0,0.4,0.2,0.7,0.5,0.9c0.5,0.4,1.1,0.7,1.7,0.9c0.7,0.2,1.4,0.6,2,1
		c1.2,0.6,1.9,2,1.9,3.4c0,1.1-0.4,2.1-1.2,2.7c-1,0.7-2.1,1.1-3.2,1c-0.9,0-1.8-0.2-2.6-0.6c-0.7-0.3-1.3-0.9-1.8-1.6
		c-0.4-0.7-0.6-1.5-0.6-2.3h2.9c0,0.6,0.1,1.1,0.5,1.6c0.5,0.4,1,0.6,1.6,0.5c0.4,0,0.8-0.1,1.1-0.3
		C495.4,10380.7,495.6,10380.3,495.5,10379.9z"/>
	<path id="Trazado_102753" class="st1" d="M567.4,10378.8c0,0.9-0.3,1.7-0.7,2.4c-0.4,0.7-1,1.3-1.7,1.6c-0.8,0.4-1.7,0.6-2.5,0.6
		c-1.4,0.1-2.8-0.5-3.7-1.7c-1-1.4-1.4-3.1-1.4-4.8v-0.7c0-1.2,0.2-2.3,0.6-3.4c0.4-0.9,1-1.7,1.8-2.3c0.8-0.5,1.7-0.8,2.7-0.8
		c1.3-0.1,2.5,0.4,3.5,1.3c0.9,0.9,1.4,2.2,1.5,3.5h-2.9c0-0.6-0.2-1.3-0.5-1.7c-0.4-0.4-1-0.6-1.6-0.5c-0.6,0-1.2,0.3-1.6,0.9
		c-0.4,0.9-0.6,1.9-0.5,2.8v0.9c-0.1,1,0.1,2.1,0.5,3c0.4,0.6,1,1,1.6,0.9c0.5,0,1.1-0.1,1.5-0.5c0.4-0.4,0.6-1,0.6-1.6
		L567.4,10378.8z M573.2,10378.6h-1.6v4.7h-2.9v-13.3h4.7c1.2-0.1,2.3,0.3,3.3,1c0.8,0.7,1.2,1.8,1.2,3c0,0.8-0.1,1.6-0.5,2.3
		c-0.4,0.7-0.9,1.2-1.6,1.5l2.5,5.4v0.1h-3.1L573.2,10378.6z M571.7,10376.2h1.8c0.5,0,0.9-0.1,1.2-0.5c0.3-0.4,0.4-0.8,0.4-1.3
		c0-0.5-0.1-1-0.4-1.3c-0.3-0.3-0.8-0.5-1.2-0.5h-1.8L571.7,10376.2z M587.1,10377.7h-4.5v3.2h5.3v2.5h-8.2v-13.3h8.2v2.5h-5.4v2.8
		h4.5L587.1,10377.7z M584.4,10366.5h2.9l-2.3,2.9l-2.2,0L584.4,10366.5z M589.1,10383.3v-13.3h3.8c1,0,2,0.3,2.8,0.8
		c0.8,0.5,1.5,1.3,2,2.2c0.5,1,0.7,2.1,0.7,3.3v0.6c0,1.1-0.2,2.3-0.7,3.3c-0.4,0.9-1.1,1.7-1.9,2.3c-0.9,0.5-1.8,0.8-2.8,0.8H589.1
		z M592,10372.5v8.3h1c0.7,0,1.5-0.3,1.9-1c0.5-0.9,0.7-1.9,0.7-2.9v-0.6c0.1-1-0.2-2-0.7-2.9c-0.5-0.7-1.2-1-1.9-1H592z
		 M603,10383.3h-2.9v-13.3h2.9V10383.3z M614.3,10372.5h-3.6v10.8h-2.9v-10.8h-3.5v-2.5h10V10372.5z M625.4,10377
		c0,1.2-0.2,2.4-0.6,3.4c-0.4,1-1,1.8-1.8,2.3c-0.8,0.5-1.8,0.8-2.7,0.8c-0.9,0-1.9-0.2-2.7-0.8c-0.8-0.5-1.4-1.3-1.8-2.2
		c-0.5-1-0.7-2.2-0.7-3.3v-0.7c0-1.2,0.2-2.4,0.6-3.4c0.4-1,1-1.8,1.8-2.3c0.8-0.5,1.8-0.8,2.7-0.8c0.9,0,1.9,0.3,2.7,0.8
		c0.8,0.5,1.4,1.3,1.8,2.3c0.5,1.1,0.7,2.2,0.7,3.4V10377z M622.5,10376.4c0.1-1-0.1-2.1-0.6-3c-0.4-0.7-1-1.1-1.7-1
		c-1.4,0-2.2,1.2-2.3,3.6l0,1c-0.1,1,0.1,2.1,0.6,3c0.4,0.7,1,1.1,1.7,1c0.7,0,1.3-0.4,1.7-1c0.4-0.9,0.6-1.9,0.6-3V10376.4z
		 M633,10379.8c0-0.4-0.1-0.8-0.4-1.1c-0.5-0.4-1-0.6-1.6-0.8c-0.6-0.2-1.2-0.5-1.8-0.8c-1.5-0.8-2.3-2-2.3-3.5
		c0-0.7,0.2-1.4,0.6-1.9c0.4-0.6,1-1.1,1.6-1.3c0.8-0.3,1.6-0.5,2.4-0.5c0.8,0,1.6,0.2,2.3,0.5c0.6,0.3,1.2,0.8,1.6,1.5
		c0.4,0.6,0.6,1.4,0.6,2.2H633c0-0.5-0.1-0.9-0.4-1.3c-0.3-0.3-0.8-0.5-1.2-0.4c-0.4,0-0.9,0.1-1.2,0.4c-0.3,0.2-0.4,0.6-0.4,1
		c0,0.4,0.2,0.7,0.5,0.9c0.5,0.4,1.1,0.7,1.7,0.9c0.7,0.2,1.4,0.6,2,1c1.2,0.6,1.9,2,1.9,3.4c0,1.1-0.4,2.1-1.2,2.7
		c-1,0.7-2.1,1.1-3.2,1c-0.9,0-1.8-0.2-2.6-0.6c-0.7-0.3-1.3-0.9-1.8-1.6c-0.4-0.7-0.6-1.5-0.6-2.3h2.9c0,0.6,0.1,1.1,0.5,1.6
		c0.5,0.4,1,0.6,1.6,0.5c0.4,0,0.8-0.1,1.1-0.3C632.9,10380.5,633,10380.2,633,10379.8z"/>
</g>
</svg>
