<?xml version="1.0" encoding="utf-8"?>
<!-- Generator: Adobe Illustrator 25.2.3, SVG Export Plug-In . SVG Version: 6.00 Build 0)  -->
<!DOCTYPE svg PUBLIC "-//W3C//DTD SVG 1.1//EN" "http://www.w3.org/Graphics/SVG/1.1/DTD/svg11.dtd" [
	<!ENTITY ns_extend "http://ns.adobe.com/Extensibility/1.0/">
	<!ENTITY ns_ai "http://ns.adobe.com/AdobeIllustrator/10.0/">
	<!ENTITY ns_graphs "http://ns.adobe.com/Graphs/1.0/">
	<!ENTITY ns_vars "http://ns.adobe.com/Variables/1.0/">
	<!ENTITY ns_imrep "http://ns.adobe.com/ImageReplacement/1.0/">
	<!ENTITY ns_sfw "http://ns.adobe.com/SaveForWeb/1.0/">
	<!ENTITY ns_custom "http://ns.adobe.com/GenericCustomNamespace/1.0/">
	<!ENTITY ns_adobe_xpath "http://ns.adobe.com/XPath/1.0/">
]>
<svg version="1.1" id="Capa_1" xmlns:x="&ns_extend;" xmlns:i="&ns_ai;" xmlns:graph="&ns_graphs;"
	 xmlns="http://www.w3.org/2000/svg" xmlns:xlink="http://www.w3.org/1999/xlink" x="0px" y="0px" viewBox="0 0 1237.3 483"
	 style="enable-background:new 0 0 1237.3 483;" xml:space="preserve">
<style type="text/css">
	.st0{fill:#F3F9FF;}
	.st1{fill:#E8E8E8;}
	.st2{fill:#F6F6F6;}
	.st3{fill:#12263F;}
	.st4{fill:#D9A171;}
	.st5{fill:#FFFFFF;}
	.st6{fill:none;stroke:#AFAFAF;stroke-linecap:round;}
	.st7{fill:#F0F0F0;}
	.st8{fill:#E1E1E1;}
	.st9{fill:#ECECEC;}
	.st10{fill:#344154;}
	.st11{fill:#375A64;}
	.st12{fill:#6595BF;}
	.st13{fill:#AED3F2;}
	.st14{fill:#FFBF9D;}
	.st15{fill:#FAFAFA;}
	.st16{fill:#FF9A6C;}
	.st17{opacity:0.2;}
	.st18{opacity:0.2;enable-background:new    ;}
</style>
<metadata>
	<sfw  xmlns="&ns_sfw;">
		<slices></slices>
		<sliceSourceBounds  bottomLeftOrigin="true" height="483" width="1237.3" x="0" y="0"></sliceSourceBounds>
	</sfw>
</metadata>
<g id="Grupo_54991" transform="translate(-187 -8673.324)">
	<g id="Trazado_102751" transform="translate(187 8673.324)">
		<path class="st0" d="M1236.8,482.5H0.5V0.5h1236.3V482.5z"/>
		<path class="st1" d="M1,1v481h1235.3V1H1 M0,0h1237.3v483H0V0z"/>
	</g>
	<g id="Grupo_54990">
		<g id="Grupo_54989">
			<g id="Grupo_54988">
				<g id="Grupo_53415" transform="translate(0 2719)">
					<rect id="Rectángulo_5411" x="264" y="6131.7" class="st2" width="396" height="54"/>
					<path id="Trazado_102766" class="st3" d="M365,6159.8c0.1,1.4-0.3,2.8-1.2,4c-1.7,1.8-4.6,1.9-6.4,0.1c-0.1,0-0.1-0.1-0.2-0.2
						c-0.8-1.2-1.3-2.6-1.2-4v-2.3c-0.1-1.4,0.3-2.8,1.2-4c1.7-1.8,4.6-1.9,6.4-0.1c0.1,0,0.1,0.1,0.2,0.2c0.8,1.2,1.3,2.6,1.2,4
						V6159.8z M362,6157.1c0-0.7-0.1-1.4-0.4-2.1c-0.2-0.4-0.7-0.7-1.1-0.7c-0.5,0-0.9,0.2-1.1,0.6c-0.3,0.6-0.4,1.3-0.4,1.9v3.3
						c0,0.7,0.1,1.4,0.4,2.1c0.2,0.4,0.7,0.7,1.1,0.7c0.5,0,0.9-0.2,1.1-0.6c0.3-0.6,0.4-1.3,0.4-2L362,6157.1z"/>
					<path id="Trazado_99538" class="st4" d="M264,6071h396v60.7H264V6071z"/>
					<path id="Trazado_102764" class="st5" d="M315.1,6101.9v5.8H311v-17.1h6.8c1.2,0,2.4,0.2,3.5,0.7c1,0.4,1.8,1.2,2.3,2.1
						c0.6,0.9,0.8,2,0.8,3c0.1,1.5-0.6,3-1.8,4c-1.4,1.1-3.1,1.6-4.9,1.5L315.1,6101.9z M315.1,6098.7h2.7c0.7,0,1.3-0.2,1.8-0.6
						c0.4-0.4,0.7-1.1,0.6-1.7c0-0.7-0.2-1.4-0.6-1.9c-0.5-0.5-1.1-0.8-1.8-0.7h-2.7V6098.7z M337.2,6100.4h-6.5v4.1h7.6v3.2h-11.8
						v-17.1h11.8v3.2h-7.7v3.6h6.5L337.2,6100.4z M346.4,6101.6h-2.2v6H340v-17.1h6.7c1.7-0.1,3.4,0.4,4.7,1.3
						c1.1,0.9,1.8,2.3,1.7,3.8c0,1-0.2,2.1-0.7,3c-0.5,0.8-1.3,1.5-2.3,1.9l3.6,6.9v0.2h-4.4L346.4,6101.6z M344.1,6098.5h2.6
						c0.6,0,1.3-0.2,1.8-0.6c0.4-0.5,0.6-1.1,0.6-1.7c0-0.6-0.2-1.3-0.6-1.7c-0.5-0.4-1.1-0.7-1.8-0.6h-2.6L344.1,6098.5z
						 M360.1,6107.7H356v-17.1h4.1V6107.7z M377.4,6099.5c0,1.5-0.3,3-0.9,4.4c-0.6,1.2-1.5,2.3-2.6,3c-1.2,0.7-2.5,1.1-3.9,1
						c-1.4,0-2.7-0.3-3.9-1c-1.1-0.7-2.1-1.7-2.6-2.9c-0.7-1.3-1-2.8-1-4.3v-1c0-1.5,0.3-3,0.9-4.4c0.6-1.2,1.5-2.3,2.6-3
						c1.2-0.7,2.5-1.1,3.9-1c1.4,0,2.7,0.3,3.9,1c1.1,0.7,2.1,1.7,2.6,2.9c0.6,1.4,1,2.9,1,4.4V6099.5z M373.2,6098.8
						c0.1-1.3-0.2-2.7-0.9-3.9c-0.5-0.8-1.4-1.4-2.4-1.3c-2.1,0-3.2,1.5-3.3,4.6l0,1.3c-0.1,1.3,0.2,2.7,0.8,3.9
						c0.5,0.9,1.5,1.4,2.5,1.3c1,0,1.9-0.5,2.4-1.3c0.6-1.2,0.9-2.5,0.9-3.8V6098.8z M379.5,6107.7v-17.1h5.5c1.4,0,2.8,0.3,4.1,1
						c1.2,0.7,2.2,1.7,2.8,2.9c0.7,1.3,1,2.7,1,4.2v0.8c0,1.5-0.3,2.9-1,4.2c-0.6,1.2-1.6,2.2-2.8,2.9c-1.2,0.7-2.6,1.1-4,1.1H379.5
						z M383.6,6093.8v10.7h1.4c1.1,0.1,2.1-0.4,2.7-1.3c0.7-1.1,1-2.4,0.9-3.7v-0.7c0.1-1.3-0.2-2.6-0.9-3.7
						c-0.7-0.8-1.7-1.3-2.8-1.3H383.6z M409.5,6099.5c0,1.5-0.3,3-0.9,4.4c-0.6,1.2-1.5,2.3-2.6,3c-1.2,0.7-2.5,1.1-3.9,1
						c-1.4,0-2.7-0.3-3.9-1c-1.1-0.7-2.1-1.7-2.6-2.9c-0.7-1.3-1-2.8-1-4.3v-1c0-1.5,0.3-3,0.9-4.4c0.6-1.2,1.5-2.3,2.6-3
						c1.2-0.7,2.5-1.1,3.9-1c1.4,0,2.7,0.3,3.9,1c1.1,0.7,2.1,1.7,2.6,2.9c0.6,1.4,1,2.9,1,4.4V6099.5z M405.3,6098.8
						c0.1-1.3-0.2-2.7-0.8-3.9c-0.5-0.8-1.4-1.4-2.4-1.3c-2.1,0-3.2,1.5-3.3,4.6l0,1.3c-0.1,1.3,0.2,2.7,0.8,3.9
						c0.5,0.9,1.5,1.4,2.5,1.3c1,0,1.9-0.5,2.4-1.3c0.6-1.2,0.9-2.5,0.9-3.8L405.3,6098.8z"/>
					<path id="Trazado_102765" class="st5" d="M526.3,6090.6l3.8,11.9l3.8-11.9h5.4v17.1h-4.1v-4l0.4-8.2l-4.1,12.1h-2.7l-4.1-12.2
						l0.4,8.2v4h-4.1v-17.1H526.3z M556.3,6099.5c0,1.5-0.3,3-0.9,4.4c-0.6,1.2-1.5,2.3-2.6,3c-1.2,0.7-2.5,1.1-3.9,1
						c-1.4,0-2.7-0.3-3.9-1c-1.1-0.7-2.1-1.7-2.6-2.9c-0.7-1.3-1-2.8-1-4.3v-1c0-1.5,0.3-3,0.9-4.4c0.6-1.2,1.5-2.3,2.6-3
						c1.2-0.7,2.5-1.1,3.9-1c1.4,0,2.7,0.3,3.9,1c1.1,0.7,2.1,1.7,2.6,2.9c0.6,1.4,1,2.9,1,4.4V6099.5z M552.2,6098.8
						c0.1-1.3-0.2-2.7-0.8-3.9c-0.5-0.8-1.4-1.4-2.4-1.3c-2.1,0-3.2,1.5-3.3,4.6l0,1.3c-0.1,1.3,0.2,2.7,0.8,3.9
						c0.5,0.9,1.5,1.4,2.5,1.3c1,0,1.9-0.5,2.4-1.3c0.6-1.2,0.9-2.5,0.9-3.8L552.2,6098.8z M572.7,6107.7h-4.1l-6-10.6v10.6h-4.1
						v-17.1h4.1l6,10.6v-10.6h4.1L572.7,6107.7z M588.7,6093.8h-5.1v13.9h-4.1v-13.9h-5v-3.2h14.3L588.7,6093.8z M604.6,6099.5
						c0,1.5-0.3,3-0.9,4.4c-0.6,1.2-1.5,2.3-2.6,3c-1.2,0.7-2.5,1.1-3.9,1c-1.4,0-2.7-0.3-3.9-1c-1.1-0.7-2.1-1.7-2.6-2.9
						c-0.7-1.3-1-2.8-1-4.3v-1c0-1.5,0.3-3,0.9-4.4c0.6-1.2,1.5-2.3,2.6-3c1.2-0.7,2.5-1.1,3.9-1c1.4,0,2.7,0.3,3.9,1
						c1.1,0.7,2.1,1.7,2.6,2.9c0.6,1.4,1,2.9,1,4.4V6099.5z M600.4,6098.8c0.1-1.3-0.2-2.7-0.8-3.9c-0.5-0.8-1.4-1.4-2.4-1.3
						c-2.1,0-3.2,1.5-3.3,4.6l0,1.3c-0.1,1.3,0.2,2.7,0.8,3.9c0.5,0.9,1.5,1.4,2.5,1.3c1,0,1.9-0.5,2.4-1.3c0.6-1.2,0.9-2.5,0.9-3.8
						L600.4,6098.8z M615.5,6103.1c0-0.5-0.2-1.1-0.6-1.4c-0.7-0.5-1.4-0.8-2.2-1c-0.9-0.3-1.8-0.6-2.6-1c-2.2-1.1-3.3-2.6-3.3-4.5
						c0-0.9,0.3-1.8,0.8-2.5c0.6-0.8,1.4-1.3,2.3-1.7c1.1-0.4,2.2-0.6,3.4-0.6c1.1,0,2.3,0.2,3.3,0.7c0.9,0.4,1.7,1,2.3,1.9
						c0.5,0.8,0.8,1.8,0.8,2.8h-4.1c0-0.6-0.2-1.2-0.6-1.6c-0.5-0.4-1.1-0.6-1.7-0.6c-0.6,0-1.2,0.1-1.7,0.5
						c-0.4,0.3-0.6,0.7-0.6,1.2c0,0.5,0.3,0.9,0.7,1.2c0.8,0.5,1.6,0.9,2.5,1.1c1,0.3,2,0.7,2.9,1.2c1.7,0.8,2.8,2.5,2.8,4.4
						c0.1,1.4-0.6,2.7-1.7,3.5c-1.4,0.9-3,1.4-4.6,1.3c-1.3,0-2.6-0.2-3.8-0.7c-1-0.4-1.9-1.1-2.5-2c-0.6-0.9-0.9-1.9-0.8-3h4.1
						c-0.1,0.7,0.2,1.5,0.7,2c0.7,0.5,1.5,0.7,2.3,0.6c0.6,0,1.1-0.1,1.6-0.4C615.3,6104.1,615.5,6103.6,615.5,6103.1z"/>
				</g>
				<g id="Grupo_54987">
					<rect id="Rectángulo_5412" x="264" y="8904.7" class="st5" width="396" height="70"/>
					<path id="Trazado_102768" class="st3" d="M342.6,8945.3h-4.2l-0.7,2.4h-3.3l4.7-12.8h2.9l4.7,12.8h-3.3L342.6,8945.3z
						 M339.1,8942.9h2.8l-1.4-4.4L339.1,8942.9z M358.3,8947.7h-3.1l-4.5-8v8h-3.1v-12.8h3.1l4.5,8v-8h3.1V8947.7z M356.4,8931.5
						c0,0.6-0.2,1.2-0.6,1.7c-0.3,0.4-0.9,0.7-1.4,0.7c-0.5,0-0.9-0.1-1.3-0.4c-0.4-0.2-0.7-0.3-1.2-0.4c-0.2,0-0.4,0.1-0.5,0.2
						c-0.1,0.2-0.2,0.4-0.2,0.6l-1.6-0.1c0-0.6,0.2-1.2,0.6-1.7c0.3-0.5,0.9-0.7,1.4-0.7c0.4,0,0.8,0.1,1.2,0.3
						c0.3,0.1,0.6,0.3,0.9,0.4c0.1,0,0.3,0,0.4,0c0.2,0,0.4-0.1,0.5-0.2c0.1-0.2,0.2-0.4,0.2-0.6L356.4,8931.5z M371.1,8941.5
						c0,1.1-0.2,2.3-0.7,3.3c-0.4,0.9-1.1,1.7-2,2.2c-0.9,0.5-1.9,0.8-2.9,0.8c-1,0-2-0.2-2.9-0.8c-0.9-0.5-1.5-1.3-2-2.1
						c-0.5-1-0.7-2.1-0.7-3.2v-0.7c0-1.1,0.2-2.3,0.7-3.3c0.4-0.9,1.1-1.7,2-2.2c1.8-1,4-1,5.8,0c0.9,0.5,1.5,1.3,2,2.2
						c0.5,1,0.7,2.1,0.7,3.3V8941.5z M367.9,8941c0.1-1-0.2-2-0.6-2.9c-0.4-0.6-1.1-1-1.8-1c-1.5,0-2.4,1.2-2.5,3.5l0,0.9
						c-0.1,1,0.2,2,0.6,2.9c0.4,0.7,1.1,1,1.9,1c0.7,0,1.4-0.4,1.8-1c0.5-0.9,0.7-1.9,0.6-2.9L367.9,8941z M383.5,8947.7h-3v-9.5
						l-2.9,0.9v-2.2l5.6-1.9h0.3L383.5,8947.7z"/>
					<line id="Línea_153" class="st6" x1="472" y1="8850.7" x2="472.5" y2="8974.5"/>
					<g id="Grupo_54986">
						<g id="Grupo_54049" transform="translate(14.031 4888.796)">
							<g id="Grupo_53907">
								<path id="Rectángulo_6579" class="st7" d="M923.1,3834H980c1.5,0,2.7,1.2,2.7,2.7v56.8c0,1.5-1.2,2.7-2.7,2.7l0,0h-56.8
									c-1.5,0-2.7-1.2-2.7-2.7c0,0,0,0,0,0v-56.8C920.4,3835.2,921.6,3834,923.1,3834z"/>
								<path id="Trazado_101127" class="st8" d="M969.8,3849.3L969.8,3849.3c-1.4-0.1-2.6,0-3.9,0.3c1.1,0.3,2.3,0.4,3.4,0.3
									c-0.2,0.2-0.5,0.5-0.8,0.9c-0.8,0.9-1.8,2-3,3.4l-10,11.5l-4.2-2.8l-2.2-1.5l-0.2-0.1l-0.2,0.2c-4.5,5.2-8.4,9.9-11.2,13.2
									c-1.3,1.6-2.5,3-3.3,4c-0.4,0.5-0.8,1-1.1,1.5c0.5-0.4,0.9-0.9,1.3-1.4l3.4-3.9c2.9-3.2,6.8-7.8,11.2-12.9l2,1.3l4.4,2.9
									l0.2,0.1l0.2-0.2l10-11.8l2.9-3.5c0.4-0.5,0.6-0.8,0.8-1h0c-0.1,1.2,0,2.3,0.3,3.4c0.3-1.2,0.4-2.5,0.3-3.7v-0.3
									L969.8,3849.3z"/>
							</g>
							<g id="Grupo_53908">
								<path id="Trazado_101128" class="st7" d="M1127.6,3875.5h30.5c0,16.8-13.6,30.5-30.5,30.5c-16.8,0-30.5-13.6-30.5-30.5
									c0-16.6,13.2-30.1,29.8-30.5L1127.6,3875.5z"/>
								<path id="Trazado_101129" class="st9" d="M1135.8,3868.1l-0.7-30.5c8.1,0,16,3.1,21.9,8.6c5.7,5.7,9,13.3,9.2,21.4
									L1135.8,3868.1z"/>
							</g>
							<g id="Grupo_53910">
								<path id="Trazado_101130" class="st9" d="M1140,4001c-0.2,5.6,0.1,22.7,0.1,22.7l5-5h28.1c1,0,1.8-0.8,1.8-1.8v-15.8
									c0-1-0.8-1.8-1.8-1.8c0,0,0,0,0,0h-31.5C1140.9,3999.3,1140.1,4000,1140,4001z"/>
								<g id="Grupo_53909">
									<path id="Trazado_101131" class="st8" d="M1154.4,4009c0,0.7-0.6,1.3-1.3,1.3s-1.3-0.6-1.3-1.3s0.6-1.3,1.3-1.3l0,0
										C1153.8,4007.7,1154.4,4008.3,1154.4,4009z"/>
									<path id="Trazado_101132" class="st8" d="M1158.9,4009c0,0.7-0.6,1.3-1.3,1.3s-1.3-0.6-1.3-1.3s0.6-1.3,1.3-1.3l0,0
										C1158.3,4007.7,1158.9,4008.3,1158.9,4009z"/>
									<path id="Trazado_101133" class="st8" d="M1163.3,4009c0,0.7-0.6,1.3-1.3,1.3s-1.3-0.6-1.3-1.3s0.6-1.3,1.3-1.3l0,0
										C1162.7,4007.7,1163.3,4008.3,1163.3,4009z"/>
								</g>
							</g>
							<path id="Trazado_101134" class="st7" d="M910.8,4089.9c0.7-9.7,7.9-24.8,16.7-29c9-4.2,19.6-3.5,27.9,2
								c5.5,3.7,9.7,9.4,15.7,12.2c11.9,5.5,26.1-2.3,34.4-12.5s13.6-22.8,23-32c18.8-18.3,49-17.9,67.3,0.9
								c0.3,0.3,0.5,0.5,0.8,0.8c6.4,6.9,10.6,15.5,15.8,23.4s11.8,15.5,20.7,18.4c12.3,4.1,26.2-1.9,34.9-11.5s13.2-22.2,17-34.6
								s7.1-25.1,14-36.1s18.3-20,31.3-20.3v117.9L910.8,4089.9z"/>
							<g id="Grupo_53911">
								<path id="Trazado_101135" class="st10" d="M1251.4,4237.9c0,0.1-93.4,0.3-208.5,0.3c-115.2,0-208.5-0.1-208.5-0.3
									s93.3-0.3,208.5-0.3C1158.1,4237.7,1251.4,4237.8,1251.4,4237.9z"/>
							</g>
							<g id="Grupo_53917">
								<g id="Grupo_53912">
									<path id="Trazado_101136" class="st10" d="M1172.3,3986.5c0.2,0,0.4-0.1,0.6-0.1c0.6-0.2,1-0.6,1.2-1.2
										c0.1-0.4,0.2-0.9,0.1-1.3c0-0.5,0-1,0-1.6c0-1.2,0-2.5,0-4c0-6.1,0-14.8-0.1-25.6c0-5.4,0-11.3,0-17.7c0-3.2,0-6.5,0-9.9
										c0-1.7,0-3.4,0-5.2c0-0.9,0-1.8,0-2.6c-0.1-0.8-0.8-1.4-1.6-1.5l-46.5,0c-0.9,0-1.7,0.7-1.7,1.7c0,1,0,2,0,3.1
										c0,2,0,4.1,0,6.1c0,4,0,8,0,11.9c0,7.8,0,15.3,0,22.5s0,14,0,20.3c0,0.8,0,1.6,0,2.4c0,0.4,0,0.8,0,1.1
										c0.1,0.7,0.7,1.2,1.3,1.4c0.4,0.1,0.7,0.1,1.1,0.1h2.2l8.5,0l25.6,0.1l7,0l1.8,0
										C1172.1,3986.4,1172.3,3986.5,1172.3,3986.5c0,0-0.2,0-0.6,0l-1.8,0l-7,0l-25.6,0.1l-8.5,0h-2.2c-0.4,0-0.8,0-1.2-0.1
										c-0.8-0.2-1.5-0.9-1.7-1.7c0-0.4-0.1-0.8,0-1.2c0-0.8,0-1.6,0-2.4c0-6.4,0-13.2,0-20.3s0-14.7,0-22.5c0-3.9,0-7.9,0-11.9
										c0-2,0-4,0-6.1c0-1,0-2,0-3.1c0-1.2,1-2.2,2.3-2.2l46.6,0c1,0.1,1.9,0.8,2.1,1.9c0.1,1,0,1.8,0,2.7c0,1.7,0,3.5,0,5.2
										c0,3.4,0,6.7,0,9.9c0,6.4,0,12.3,0,17.7c0,10.8-0.1,19.6-0.1,25.6c0,1.5,0,2.9,0,4c0,0.6,0,1.1,0,1.6c0,0.5,0,0.9-0.1,1.3
										c-0.2,0.6-0.7,1-1.3,1.2C1172.7,3986.4,1172.5,3986.5,1172.3,3986.5z"/>
								</g>
								<g id="Grupo_53913">
									<path id="Trazado_101137" class="st10" d="M1152.4,3929.6c-6.8-1.5-14.3,2.2-16.2,9.2c-1.8,6.7,2.6,14.6,9.4,16.4
										c6.9,1.6,13.9-2.1,16.3-8.8c2.4-7.2-2.2-14.9-9.1-17.2c-0.8-0.3-1.1,1-0.3,1.3c5.9,2.2,10.2,8.6,8.4,15
										c-1.7,6.1-8.8,10.2-14.9,8.6c-5.9-1.6-9.7-7.9-8.9-13.7c0.9-7.2,8.5-11.5,15.3-10.3
										C1152.5,3930,1152.6,3929.6,1152.4,3929.6L1152.4,3929.6z"/>
								</g>
								<g id="Grupo_53914">
									<path id="Trazado_101138" class="st4" d="M1145.6,3955c7.2,2.1,14.8-1.9,17-9c2.1-7.3-2.6-15.2-9.7-17.4
										c-1.6-0.5-2.2,1.9-0.7,2.5c6,2.4,10,8.9,7.6,15.3c-2.1,5.7-8.4,8.5-14.1,7.8C1145.2,3954.1,1145.2,3954.8,1145.6,3955
										L1145.6,3955z"/>
								</g>
								<g id="Grupo_53915">
									<path id="Trazado_101139" class="st4" d="M1163,3966.9c0,0.1-6.2,0.3-13.8,0.3s-13.8-0.1-13.8-0.3s6.2-0.3,13.8-0.3
										S1163,3966.8,1163,3966.9z"/>
								</g>
								<g id="Grupo_53916">
									<path id="Trazado_101140" class="st4" d="M1163,3971.1c0,0.1-6.2,0.3-13.8,0.3s-13.8-0.1-13.8-0.3s6.2-0.3,13.8-0.3
										S1163,3971,1163,3971.1z"/>
								</g>
							</g>
							<g id="Grupo_53929">
								<path id="Trazado_101141" class="st8" d="M974.5,3872v92.5c0,2.1,1.7,3.7,3.7,3.7h123.2c2.1,0,3.7-1.7,3.7-3.7v-95.7
									c0-2.1-1.7-3.7-3.7-3.7c0,0-0.1,0-0.1,0l-123.2,3.2C976.1,3868.4,974.5,3870,974.5,3872z"/>
								<g id="Grupo_53918">
									<path id="Trazado_101142" class="st11" d="M1094.1,3888.2c0,0.1-1.6-0.8-4.6-1.7c-4.2-1.3-8.7-1.6-13.1-1
										c-3,0.5-5.9,1.4-8.6,2.8c-3.1,1.7-5.9,3.7-8.5,6.1c-2.8,2.5-5.5,5.2-8.7,7.8c-3.2,2.8-7,4.8-11.1,6
										c-2.1,0.6-4.3,0.7-6.5,0.4c-2.1-0.3-4.1-0.9-6-1.9c-3.5-1.8-6.8-3.8-10.1-6c-2.9-1.9-6.1-3.4-9.5-4.3c-3-0.7-6-0.9-9-0.7
										c-4.4,0.4-8.7,1.8-12.5,4.1c-2.7,1.6-3.9,2.9-4,2.8c0.3-0.3,0.6-0.6,0.9-0.9c0.9-0.8,1.9-1.6,2.9-2.2
										c6.5-4.2,14.4-5.6,21.9-3.8c3.5,0.9,6.8,2.3,9.8,4.3c3.2,2.1,6.6,4.1,10,5.9c3.7,1.9,7.9,2.4,11.9,1.4
										c4-1.2,7.6-3.1,10.8-5.8c3.1-2.5,5.9-5.3,8.7-7.7c2.6-2.4,5.5-4.5,8.7-6.1c6.9-3.4,14.9-3.9,22.2-1.4
										c1.2,0.4,2.3,0.9,3.3,1.4C1093.4,3887.8,1093.8,3888,1094.1,3888.2z"/>
								</g>
								<g id="Grupo_53921">
									<g id="Grupo_53919">
										<rect id="Rectángulo_6580" x="1003.6" y="3909.9" class="st11" width="12" height="32.6"/>
										<rect id="Rectángulo_6581" x="1054.7" y="3909.9" class="st11" width="12" height="32.6"/>
										<rect id="Rectángulo_6582" x="1071.8" y="3890.8" class="st12" width="12" height="51.7"/>
										<rect id="Rectángulo_6583" x="988" y="3932.3" class="st11" width="12" height="11"/>
										<rect id="Rectángulo_6584" x="1020.7" y="3924.7" class="st11" width="12" height="17.9"/>
										<rect id="Rectángulo_6585" x="1037.7" y="3920.6" class="st13" width="12" height="22"/>
									</g>
								</g>
								<g id="Grupo_53928">
									<g id="Grupo_53922">
										<path id="Trazado_101144" class="st10" d="M1016.2,3946.4c0,0.3-2.9,0.5-6.5,0.5s-6.5-0.2-6.5-0.5s2.9-0.5,6.5-0.5
											S1016.2,3946.1,1016.2,3946.4z"/>
									</g>
									<g id="Grupo_53923">
										<path id="Trazado_101145" class="st10" d="M1001.2,3946.4c0,0.3-2.9,0.5-6.5,0.5s-6.5-0.2-6.5-0.5s2.9-0.5,6.5-0.5
											S1001.2,3946.1,1001.2,3946.4z"/>
									</g>
									<g id="Grupo_53924">
										<path id="Trazado_101146" class="st10" d="M1086.2,3946.4c0,0.3-3.3,0.5-7.4,0.5s-7.4-0.2-7.4-0.5s3.3-0.5,7.4-0.5
											S1086.2,3946.1,1086.2,3946.4z"/>
									</g>
									<g id="Grupo_53925">
										<ellipse id="Elipse_4035" class="st10" cx="1060.9" cy="3946.4" rx="7.4" ry="0.5"/>
									</g>
									<g id="Grupo_53926">
										<path id="Trazado_101147" class="st10" d="M1049.7,3946.4c0,0.3-2.9,0.5-6.5,0.5s-6.5-0.2-6.5-0.5s2.9-0.5,6.5-0.5
											S1049.7,3946.1,1049.7,3946.4z"/>
									</g>
									<g id="Grupo_53927">
										<path id="Trazado_101148" class="st10" d="M1032.1,3946.4c0,0.3-2.9,0.5-6.5,0.5s-6.5-0.2-6.5-0.5s2.9-0.5,6.5-0.5
											S1032.1,3946.1,1032.1,3946.4z"/>
									</g>
								</g>
							</g>
							<g id="Grupo_53933">
								<g id="Grupo_53930">
									<path id="Trazado_101149" class="st10" d="M1071.4,3987c0.1,0,0.1,0,0.2,0c0.2,0,0.4,0.1,0.6,0.2c0.3,0.2,0.6,0.4,0.7,0.7
										c0.2,0.4,0.3,0.9,0.2,1.4c0,2.1,0,5.2,0.1,9.2s0,8.9,0,14.6c0,2.8,0,5.9,0,9.1c0,0.8,0,1.6,0,2.5c0,0.4,0,0.8,0,1.3
										c0,0.5,0,0.9-0.2,1.3c-0.2,0.4-0.6,0.7-1.1,0.9c-0.4,0.1-0.9,0.1-1.3,0.1h-2.7l0.2-0.2c0,2.9,0,6,0,9.2v0.5l-0.4-0.4
										l-8.2-9.2l0.2,0.1l-84.2,0h-5.9c-0.3,0-0.6,0-1,0c-0.8-0.1-1.4-0.6-1.7-1.3c-0.1-0.2-0.1-0.4-0.1-0.6v-6.3
										c0-5.1,0-10.2,0-15.1c0-5,0-9.8,0-14.6v-1.8c0-0.7,0.4-1.3,1-1.6c0.3-0.1,0.6-0.2,1-0.2h2.6l6.9,0l48.4,0.1l32.6,0.1l8.9,0
										l2.3,0C1071.1,3986.9,1071.4,3987,1071.4,3987c0,0-0.3,0-0.8,0l-2.3,0l-8.9,0l-32.6,0.1l-48.4,0.1h-6.9h-2.6
										c-0.3,0-0.5,0-0.7,0.2c-0.5,0.2-0.8,0.7-0.8,1.2v1.8c0,4.8,0,9.6,0,14.6c0,5,0,10,0,15.1v5.8c0,0.3,0,0.6,0.1,0.9
										c0.2,0.5,0.6,0.9,1.2,1c0.3,0,0.6,0,1,0h5.9l84.2,0h0.1l0.1,0.1l8.1,9.2l-0.4,0.1c0-3.2,0-6.3,0-9.2v-0.2h0.2h2.7
										c0.4,0,0.8,0,1.2-0.1c0.4-0.1,0.7-0.4,0.9-0.7c0.2-0.4,0.2-0.8,0.2-1.1c0-0.4,0-0.8,0-1.3c0-0.8,0-1.6,0-2.5
										c0-3.2,0-6.3,0-9.1c0-5.7,0-10.6,0-14.6s0-7.1,0.1-9.2c0.1-0.5,0-0.9-0.2-1.3c-0.2-0.3-0.4-0.5-0.7-0.7
										C1071.9,3987.1,1071.7,3987,1071.4,3987z"/>
								</g>
								<path id="Trazado_101150" class="st4" d="M972.5,4020.7c0.8-2.9,1.8-5.9,3.8-8.3s5.1-3.9,8.1-3.1c4.7,1.2,6.9,7.4,11.7,8.1
									c2.6,0.4,5.2-1.2,6.9-3.3s2.7-4.5,4-6.9c2-3.5,4.6-6.7,8.2-8.5s8.2-1.8,11.3,0.7c5.4,4.2,4.6,13.6,10.4,17.3
									c2.9,1.8,6.5,1.7,9.2-0.3c2.5-1.9,3.8-5.1,6.5-6.8c3.1-2,7.4-1.2,10.2,1.2s4.3,6,4.8,9.6"/>
								<g id="Grupo_53931">
									<path id="Trazado_101151" class="st10" d="M1065.8,4003.9c-0.1,0-0.2,0-0.2-0.1l-0.7-0.3c-0.9-0.4-1.7-0.7-2.7-0.9
										c-3.4-0.7-6.9-0.6-10.2,0.3c-2.3,0.6-4.5,1.5-6.7,2.5c-2.3,1.1-4.7,2.4-7.3,3.7c-2.7,1.4-5.5,2.7-8.3,3.7
										c-3.1,1.1-6.4,1.6-9.7,1.4c-3.3-0.3-6.5-1.1-9.5-2.4c-2.9-1.2-5.7-2.6-8.2-3.9c-5.1-2.6-10-4.7-14.3-5.4
										c-3.4-0.6-6.9-0.4-10.2,0.7c-1.2,0.4-2.3,1-3.4,1.7c0,0,0.1-0.1,0.2-0.2l0.6-0.4c0.8-0.5,1.6-0.9,2.5-1.3
										c3.3-1.2,6.8-1.5,10.3-0.9c4.4,0.6,9.3,2.7,14.4,5.3c2.6,1.3,5.3,2.7,8.2,3.8c3,1.3,6.1,2,9.3,2.4c3.2,0.2,6.5-0.2,9.5-1.3
										c2.8-1,5.6-2.2,8.3-3.6c2.6-1.3,5-2.6,7.4-3.7c2.2-1,4.4-1.8,6.8-2.4c3.4-0.9,6.9-1,10.3-0.1
										C1063.5,4002.7,1064.7,4003.2,1065.8,4003.9z"/>
								</g>
								<g id="Grupo_53932">
									<path id="Trazado_101152" class="st11" d="M1021.2,3997.5c0,0.6-0.5,1.1-1.1,1.1s-1.1-0.5-1.1-1.1s0.5-1.1,1.1-1.1
										c0,0,0,0,0,0C1020.7,3996.5,1021.2,3996.9,1021.2,3997.5z"/>
									<path id="Trazado_101153" class="st11" d="M983.5,4002c0,0.6-0.5,1.1-1.1,1.1s-1.1-0.5-1.1-1.1s0.5-1.1,1.1-1.1
										c0,0,0,0,0,0C983,4000.9,983.5,4001.4,983.5,4002C983.5,4002,983.5,4002,983.5,4002z"/>
									<path id="Trazado_101154" class="st11" d="M1058.5,4002c0,0.6-0.5,1.1-1.1,1.1s-1.1-0.5-1.1-1.1c0-0.6,0.5-1.1,1.1-1.1
										S1058.5,4001.4,1058.5,4002L1058.5,4002z"/>
								</g>
							</g>
							<g id="Grupo_54006">
								<path id="Trazado_101155" class="st11" d="M1129.5,4150.3h9.4c4.4,0,13.7-11.5-37.1-10.2c-33.4,0.9-35.6,5.8-33.9,8.7
									c0.8,1.3,2.3,2.1,3.9,2c0.8-0.1,1.9-0.1,3.2-0.1l-0.8,3.5l0,0l-18.6,82.2l3.2-0.3l13.7-45.3l26.2-1l1.5,48.1h4.1l1-48.4h0.1
									l2.8-0.1l23.2-0.9l13.8,49.4h3.9L1129.5,4150.3z M1074.5,4184.4l9.2-30.2l1-3.4l0,0c3.8,0,8.3-0.1,12.8-0.1l1,33
									L1074.5,4184.4z M1109,4183.3L1109,4183.3l-1,0l-2.6,0.1l0.7-33.2h14.6l9,32.4L1109,4183.3z"/>
								<g id="Grupo_54004">
									<g id="Grupo_53947">
										<g id="Grupo_53934">
											<path id="Trazado_101156" class="st4" d="M1045.7,4232.3v-10.6l19-0.1l0.2,15.9l-1.2,0.1c-5.3,0.3-26.7,1-30.3-0.1
												C1029.6,4236.2,1045.7,4232.3,1045.7,4232.3z"/>
										</g>
										<g id="Grupo_53936">
											<g id="Grupo_53935">
												<path id="Trazado_101157" class="st10" d="M1033.1,4236.5c0,0.2,7.1,0.3,15.9,0.3s15.9-0.1,15.9-0.3s-7.1-0.3-15.9-0.3
													S1033.1,4236.3,1033.1,4236.5z"/>
											</g>
										</g>
										<g id="Grupo_53938">
											<g id="Grupo_53937">
												<path id="Trazado_101158" class="st10" d="M1045.4,4234.5c0.2-0.1,0-0.6-0.4-1.2s-0.9-0.9-1-0.7s0.1,0.6,0.5,1.1
													S1045.3,4234.6,1045.4,4234.5z"/>
											</g>
										</g>
										<g id="Grupo_53940">
											<g id="Grupo_53939">
												<path id="Trazado_101159" class="st10" d="M1044.2,4235.2c0.2-0.1,0.1-0.7-0.3-1.4s-0.9-1.1-1-1s0.1,0.7,0.4,1.3
													S1044,4235.2,1044.2,4235.2z"/>
											</g>
										</g>
										<g id="Grupo_53942">
											<g id="Grupo_53941">
												<path id="Trazado_101160" class="st10" d="M1059.1,4236.4c0.1,0.1,0.4-0.2,0.8-0.7c0.5-0.6,1.1-1.2,1.7-1.7
													c0.6-0.5,1.3-0.8,2.1-0.9c0.6-0.1,1,0,1-0.1c0-0.1-0.3-0.3-1-0.4c-0.9,0-1.8,0.3-2.4,0.8c-0.7,0.5-1.2,1.2-1.6,1.9
													C1059.2,4236,1059.1,4236.3,1059.1,4236.4z"/>
											</g>
										</g>
										<g id="Grupo_53944">
											<g id="Grupo_53943">
												<path id="Trazado_101161" class="st10" d="M1045.4,4232.5c-0.1,0.1,0.2,0.5,0.8,0.7s1,0.1,1.1,0s-0.4-0.4-0.8-0.6
													S1045.4,4232.3,1045.4,4232.5z"/>
											</g>
										</g>
										<g id="Grupo_53946">
											<g id="Grupo_53945">
												<path id="Trazado_101162" class="st10" d="M1045.7,4231.4c0,0.2,0.5,0.3,1.1,0.3s1.2-0.1,1.1-0.3s-0.5-0.3-1.1-0.3
													S1045.7,4231.3,1045.7,4231.4z"/>
											</g>
										</g>
									</g>
									<g id="Grupo_53961">
										<g id="Grupo_53948">
											<path id="Trazado_101163" class="st4" d="M1085.9,4232.3v-10.6l19-0.1l0.2,15.9l-1.2,0.1c-5.3,0.3-26.7,1-30.3-0.1
												C1069.8,4236.2,1085.9,4232.3,1085.9,4232.3z"/>
										</g>
										<g id="Grupo_53950">
											<g id="Grupo_53949">
												<path id="Trazado_101164" class="st10" d="M1073.3,4236.5c0,0.2,7.1,0.3,15.9,0.3s15.9-0.1,15.9-0.3s-7.1-0.3-15.9-0.3
													S1073.3,4236.3,1073.3,4236.5z"/>
											</g>
										</g>
										<g id="Grupo_53952">
											<g id="Grupo_53951">
												<path id="Trazado_101165" class="st10" d="M1085.6,4234.5c0.2-0.1,0-0.6-0.4-1.2s-0.9-0.9-1-0.7s0.1,0.6,0.5,1.1
													S1085.5,4234.6,1085.6,4234.5z"/>
											</g>
										</g>
										<g id="Grupo_53954">
											<g id="Grupo_53953">
												<path id="Trazado_101166" class="st10" d="M1084.4,4235.2c0.2-0.1,0.1-0.7-0.3-1.4s-0.9-1.1-1-1s0.1,0.7,0.4,1.3
													S1084.2,4235.2,1084.4,4235.2z"/>
											</g>
										</g>
										<g id="Grupo_53956">
											<g id="Grupo_53955">
												<path id="Trazado_101167" class="st10" d="M1099.3,4236.4c0.1,0.1,0.4-0.2,0.8-0.7c0.5-0.6,1.1-1.2,1.7-1.7
													c0.6-0.5,1.3-0.8,2.1-0.9c0.6-0.1,1,0,1-0.1c0-0.1-0.3-0.3-1-0.4c-0.9,0-1.8,0.3-2.4,0.8c-0.7,0.5-1.2,1.2-1.6,1.9
													C1099.4,4236,1099.3,4236.3,1099.3,4236.4z"/>
											</g>
										</g>
										<g id="Grupo_53958">
											<g id="Grupo_53957">
												<path id="Trazado_101168" class="st10" d="M1085.6,4232.5c-0.1,0.1,0.2,0.5,0.8,0.7s1,0.1,1.1,0s-0.4-0.4-0.8-0.6
													S1085.7,4232.3,1085.6,4232.5z"/>
											</g>
										</g>
										<g id="Grupo_53960">
											<g id="Grupo_53959">
												<path id="Trazado_101169" class="st10" d="M1085.9,4231.4c0,0.2,0.5,0.3,1.1,0.3s1.2-0.1,1.1-0.3s-0.5-0.3-1.1-0.3
													S1085.9,4231.3,1085.9,4231.4z"/>
											</g>
										</g>
									</g>
									<path id="Trazado_101170" class="st10" d="M1140.5,4041.6c-0.8-0.2-1.8-0.1-2.2-0.7c-0.4-0.6-0.1-1.4,0.1-2.1
										c0.8-2.2,0.9-4.7,0.1-6.9c-0.6-1.5-1.6-2.7-2.9-3.6c0.2-0.2,0.3-0.4,0.5-0.6c0.4-0.7,0.6-1.4,0.5-2.2
										c0.1-1.4-0.5-2.7-1.5-3.6c-0.9-0.8-2.2-0.8-3.1,0c-0.7,0.6-0.7,1.6-0.1,2.2c0,0,0.1,0.1,0.1,0.1c0.4,0.3,1,0.4,1.5,0.2
										c0.2-0.1,0.3-0.2,0.4-0.4c-0.1,0.1-0.3,0.2-0.4,0.3c-0.7,0.3-1.4-0.1-1.7-0.7c-0.2-0.5,0-1.2,0.4-1.5
										c0.8-0.7,2-0.6,2.7,0.1c0.9,0.9,1.3,2.1,1.3,3.4c0,0.7-0.2,1.4-0.5,2c-0.1,0.2-0.3,0.4-0.5,0.6c-0.5-0.3-1.1-0.6-1.7-0.7
										c-1.3-0.3-2.7-0.2-3.9-0.8c-1-0.6-1.7-1.5-2.1-2.5c0-0.1,0-0.2,0-0.4c0.1-1.7,0.4-3.5,0.7-5.2c0.2-1.7,0.2-3.3-0.1-5
										c-0.5-2.9-2.2-5.3-4.8-6.7c-1.7-0.9-3.8-0.9-5.6-0.1c-0.5,0.2-0.9,0.5-1.3,0.9c-0.1,0.1-0.2,0.2-0.2,0.2
										c-0.6,0.3-1.1,0.7-1.5,1.2l-3.1,27.8l22.6,13.8c1.8-0.1,3.5-0.4,5.2-1c1.7-0.6,2.9-2,3.4-3.7
										C1143.3,4044,1142.3,4042.2,1140.5,4041.6z M1125.7,4012.5c-0.8-2.2-2.4-4-4.6-5c-1.5-0.6-3.1-0.6-4.6,0.1
										c0.4-0.3,0.9-0.6,1.3-0.8c1.7-0.7,3.7-0.6,5.3,0.2c2.4,1.4,4,3.7,4.5,6.5c0.3,1.6,0.3,3.2,0.1,4.8
										c-0.1,1.2-0.5,2.5-0.6,3.9c-0.1-0.9-0.2-1.9-0.2-2.9C1126.9,4017,1126.5,4014.7,1125.7,4012.5L1125.7,4012.5z"/>
									<g id="Grupo_53968">
										<path id="Trazado_101171" class="st14" d="M1119,4012.5c-0.1-0.5-0.4-1-0.9-1.3c-0.9-0.4-1.8-0.4-2.7-0.1l-0.1-6.4
											l-12.5-10.1l-6.7,3.5c-3.5,1.8-5.7,5.4-5.6,9.4c0,5.1,0.2,12.1,0.5,16.1c0.6,6.8,7.5,7.4,7.5,7.4s0.3,2.4,0.5,4.9
											c0,0-1.5,20.1,5.6,19.9c5.2-0.1,8.7-11.1,10.2-16.9l0.8-3.2v-0.2l0-0.1h0l-0.2-19.1l0.2,0.2c0.5,0.4,1.1,0.5,1.6,0.2
											c0.8-0.3,1.3-1,1.6-1.7C1119.2,4014.1,1119.2,4013.3,1119,4012.5z"/>
										<g id="Grupo_53963">
											<path id="Trazado_101172" class="st10" d="M1092.2,4012.4c0,0.5,0.4,0.9,0.9,0.9s0.9-0.4,0.9-0.9s-0.4-0.9-0.9-0.9
												c0,0,0,0,0,0C1092.5,4011.5,1092.2,4011.9,1092.2,4012.4z"/>
											<g id="Grupo_53962">
												<path id="Trazado_101173" class="st10" d="M1091.3,4011.4c0.1,0.1,0.7-0.5,1.7-0.5s1.7,0.4,1.7,0.2
													c0-0.1-0.1-0.3-0.4-0.5c-0.9-0.5-2-0.4-2.7,0.2C1091.3,4011.2,1091.3,4011.4,1091.3,4011.4z"/>
											</g>
										</g>
										<g id="Grupo_53965">
											<path id="Trazado_101174" class="st10" d="M1102.3,4012.1c0,0.5,0.4,0.9,0.9,0.8c0.5,0,0.9-0.4,0.8-0.9
												c0-0.5-0.4-0.9-0.9-0.8c0,0,0,0,0,0C1102.7,4011.2,1102.3,4011.6,1102.3,4012.1
												C1102.3,4012.1,1102.3,4012.1,1102.3,4012.1z"/>
											<g id="Grupo_53964">
												<path id="Trazado_101175" class="st10" d="M1101.7,4011.1c0.1,0.1,0.7-0.5,1.7-0.5s1.7,0.4,1.7,0.2
													c0-0.1-0.1-0.3-0.4-0.5c-0.9-0.5-2-0.4-2.7,0.2C1101.8,4010.9,1101.7,4011.1,1101.7,4011.1z"/>
											</g>
										</g>
										<g id="Grupo_53966">
											<path id="Trazado_101176" class="st10" d="M1098.5,4019.2c-0.5,0.1-1,0.1-1.5,0.1c-0.1,0-0.3,0-0.4,0
												c-0.2,0-0.3-0.2-0.4-0.3c-0.1-0.3-0.1-0.7,0.1-1l0.6-2c0.4-1.7,1-3.4,1.7-5c-0.3,1.7-0.7,3.4-1.3,5.1l-0.6,2
												c-0.1,0.2-0.2,0.5-0.1,0.8c0.1,0.2,0.3,0.2,0.5,0.2C1097.5,4019,1098,4019.1,1098.5,4019.2z"/>
										</g>
										<path id="Trazado_101177" class="st15" d="M1101.8,4020c0.1-0.1-2.7,1.7-4.6,1.7c0.7,1,2,1.3,3.1,0.8
											C1101.4,4022.2,1102,4021.1,1101.8,4020z"/>
										<path id="Trazado_101178" class="st16" d="M1098.5,4030.8c3.2-0.2,6.3-1.3,8.9-3.3c0,0-1.9,5-8.8,4.9L1098.5,4030.8z"/>
										<path id="Trazado_101179" class="st10" d="M1089.6,4008.2c3,0.4,5.2-0.4,8.1-1.1s5.7-2.6,6.7-5.5c0.3,1.9,1.2,3.6,2.5,5
											c0.3,0.3,0.8,0.6,1,0.3c0.1-0.2,0.1-0.4,0-0.6c-0.2-0.8-0.4-1.6-0.6-2.4c1,1.9,2.4,3.5,4,5c1.7,1.3,6.7,3.4,5.9,1.4
											c-0.2-0.5,1.5-15.9-13.2-16.2S1089.6,4008.2,1089.6,4008.2z"/>
										<g id="Grupo_53967">
											<path id="Trazado_101180" class="st16" d="M1115.6,4012.6c0,0,0.3-0.4,0.9-0.3c0.9,0.1,1.6,0.9,1.5,1.8
												c0,0.4-0.2,0.8-0.5,1.1c-0.3,0.2-0.6,0.4-1,0.4c-0.6,0-0.9-0.3-0.9-0.3c0-0.1,0.4,0.1,0.8,0c0.7-0.1,1.2-0.8,1-1.5
												c-0.1-0.5-0.5-0.9-1-1C1115.9,4012.5,1115.6,4012.7,1115.6,4012.6z"/>
										</g>
									</g>
									<g id="Grupo_53992">
										<g id="Grupo_53990">
											<path id="Trazado_101181" class="st4" d="M1140,4060.5l2.5-0.5c0,0-5.5-24.7-24.6-24.7c-0.8,0-1.6,0-2.3,0
												c0,0,0,0.1,0,0.1v0.2l-0.8,3.2c-1.5,5.8-5,16.7-10.2,16.9c-6.6,0.2-5.7-17.3-5.6-19.7c-0.2,0-0.3,0.1-0.5,0.1
												c0,0-20.8,1.2-30,19.4l16,11.7l3.9-2.4c0,0,1.3,25.7-0.9,32.7c-2.5,7.9-6.3,16.7-6.3,16.7c17.6-1.4,37.6-0.6,58.9,1.4
												l-14.3-52.3C1130.7,4063.1,1135.5,4062.2,1140,4060.5z"/>
											<g id="Grupo_53988">
												<g id="Grupo_53969">
													<path id="Trazado_101182" class="st10" d="M1122.8,4072.9c0,0-0.1,0.2-0.4,0.6c-0.5,0.5-1,0.9-1.5,1.2
														c-3.7,2.4-8.6,2.2-12.1-0.4c-0.5-0.4-1-0.8-1.4-1.3c-0.3-0.4-0.4-0.6-0.4-0.6c0.1-0.1,0.7,0.7,2,1.6
														c3.5,2.4,8.1,2.6,11.7,0.4C1122,4073.5,1122.7,4072.8,1122.8,4072.9z"/>
												</g>
												<g id="Grupo_53970">
													<path id="Trazado_101183" class="st10" d="M1132.1,4086.6c-0.2-0.4-0.3-0.8-0.4-1.2c-0.3-0.9-0.6-2-1-3.4
														c-0.9-2.9-2-6.8-3.4-11.2s-2.7-8.3-3.7-11.1c-0.4-1.3-0.8-2.5-1.1-3.4c-0.2-0.4-0.3-0.8-0.4-1.3
														c0.2,0.4,0.4,0.8,0.5,1.2c0.3,0.8,0.8,1.9,1.3,3.3c1,2.8,2.4,6.7,3.8,11.1s2.5,8.4,3.3,11.3c0.4,1.5,0.7,2.6,0.9,3.4
														C1131.9,4085.7,1132,4086.2,1132.1,4086.6z"/>
												</g>
												<g id="Grupo_53971">
													<path id="Trazado_101184" class="st10" d="M1125.9,4047.1c-1.8-0.2-3.4-0.9-4.8-2.1
														C1122.7,4045.6,1124.3,4046.3,1125.9,4047.1z"/>
												</g>
												<g id="Grupo_53972">
													<path id="Trazado_101185" class="st10" d="M1130.8,4055.7c0.3-2,0.9-3.9,1.9-5.7
														C1132.4,4052,1131.7,4053.9,1130.8,4055.7z"/>
												</g>
												<g id="Grupo_53973">
													<path id="Trazado_101186" class="st10" d="M1113.7,4061.8c0.6-1.8,1.4-3.5,2.4-5.1
														C1115.7,4058.7,1114.9,4060.4,1113.7,4061.8z"/>
												</g>
												<g id="Grupo_53974">
													<path id="Trazado_101187" class="st10" d="M1110.6,4067.3c-1.7-1.1-3.1-2.6-4-4.4c0.1-0.1,1,0.9,2.1,2.1
														C1109.4,4065.7,1110,4066.4,1110.6,4067.3z"/>
												</g>
												<g id="Grupo_53975">
													<path id="Trazado_101188" class="st10" d="M1123,4066.4c-0.5,1.1-1.2,2.1-2.1,2.9c-0.7,0.8-1.6,1.5-2.5,2.1l-0.7,0.5
														l0.6-0.6c0.1-0.1,0.2-0.2,0.3-0.2s0,0.1-0.1,0.3l-0.2-0.1c0.3-0.4,1.2-1.3,2.2-2.3
														C1121.2,4068,1122.1,4067.2,1123,4066.4z"/>
												</g>
												<g id="Grupo_53976">
													<path id="Trazado_101189" class="st10" d="M1125.6,4084.3c-1.9-0.5-3.7-1.5-5.1-3
														C1122.3,4082.2,1124,4083.2,1125.6,4084.3z"/>
												</g>
												<g id="Grupo_53977">
													<path id="Trazado_101190" class="st10" d="M1113.1,4080.2c-0.8,1.8-2,3.5-3.4,5
														C1110.5,4083.3,1111.7,4081.7,1113.1,4080.2z"/>
												</g>
												<g id="Grupo_53978">
													<path id="Trazado_101191" class="st10" d="M1104.9,4081c-0.8-0.3-1.5-0.7-2.1-1.3c-1.1-0.8-1.9-1.6-1.8-1.7
														c0.8,0.3,1.5,0.7,2.1,1.3C1104.2,4080.1,1105,4080.9,1104.9,4081z"/>
												</g>
												<g id="Grupo_53979">
													<path id="Trazado_101192" class="st10" d="M1100.4,4068.9c0.1,0.1-0.7,0.8-1.7,1.6s-2,1.3-2,1.1s0.7-0.8,1.7-1.6
														S1100.3,4068.8,1100.4,4068.9z"/>
												</g>
												<g id="Grupo_53980">
													<path id="Trazado_101193" class="st10" d="M1098.7,4062.7c-0.1,0.1-0.8-0.7-1.6-1.7s-1.3-1.9-1.2-2s0.8,0.7,1.6,1.7
														S1098.8,4062.6,1098.7,4062.7z"/>
												</g>
												<g id="Grupo_53981">
													<path id="Trazado_101194" class="st10" d="M1116.6,4046.3c-4.7,5.7-13.1,6.5-18.7,1.8c-5.7-4.7-6.5-13.1-1.8-18.7
														s13.1-6.5,18.7-1.8c4.9,4,6.3,11,3.3,16.6C1117.7,4044.9,1117.2,4045.6,1116.6,4046.3z"/>
												</g>
												<g id="Grupo_53982">
													<path id="Trazado_101195" class="st10" d="M1094.3,4047.3c6.4,5.8,6.9,15.7,1.1,22.2c-5.8,6.4-15.7,6.9-22.2,1.1
														c-6.4-5.8-6.9-15.7-1.1-22.2c5.1-5.6,13.4-6.8,19.9-2.9C1092.8,4046,1093.6,4046.6,1094.3,4047.3z"/>
												</g>
												<g id="Grupo_53983">
													<path id="Trazado_101196" class="st10" d="M1082.6,4044.3c0.1,0.1-0.2,0.9-0.8,1.9s-1.2,1.7-1.3,1.6s0.2-0.9,0.8-1.9
														S1082.5,4044.3,1082.6,4044.3z"/>
												</g>
												<g id="Grupo_53984">
													<path id="Trazado_101197" class="st10" d="M1094.7,4111.9c5.7,5.6,5.8,14.8,0.1,20.5c-5.6,5.7-14.8,5.8-20.5,0.1
														c-5.7-5.6-5.8-14.8-0.1-20.5c4.9-5,12.6-5.7,18.4-1.9C1093.4,4110.6,1094.1,4111.2,1094.7,4111.9z"/>
												</g>
												<g id="Grupo_53985">
													<path id="Trazado_101198" class="st10" d="M1128.2,4108.3c-0.4,0.8-1,1.5-1.6,2.2c-1,1.1-1.9,1.9-2,1.8
														c0.4-0.8,1-1.5,1.6-2.2C1127.2,4109,1128.1,4108.2,1128.2,4108.3z"/>
												</g>
												<g id="Grupo_53986">
													<path id="Trazado_101199" class="st10" d="M1105.5,4112c-0.1,0,0-0.9,0-2s-0.1-2,0-2s0.5,0.8,0.5,2
														S1105.6,4112,1105.5,4112z"/>
												</g>
												<g id="Grupo_53987">
													<path id="Trazado_101200" class="st10" d="M1117.3,4112.2c5.7,5.2,6.2,14.1,0.9,19.9c-5.2,5.7-14.1,6.2-19.9,0.9
														c-5.7-5.2-6.2-14.1-0.9-19.9c4.5-5,11.9-6,17.7-2.5C1115.9,4111,1116.7,4111.5,1117.3,4112.2z"/>
												</g>
											</g>
											<g id="Grupo_53989">
												<path id="Trazado_101201" class="st10" d="M1140.2,4115.6c-0.2,0-0.4,0-0.6,0l-1.7-0.1l-6.3-0.6
													c-5.3-0.5-12.7-1.1-20.8-1.3c-8.1-0.2-15.5,0-20.9,0.3l-6.3,0.3l-1.7,0.1c-0.2,0-0.4,0-0.6,0c0.2-0.1,0.4-0.1,0.6-0.1
													l1.7-0.2c1.5-0.1,3.6-0.3,6.3-0.4c5.3-0.3,12.7-0.6,20.9-0.4c8.2,0.1,15.5,0.9,20.8,1.4c2.7,0.3,4.8,0.5,6.3,0.7
													l1.7,0.2C1139.8,4115.5,1140,4115.6,1140.2,4115.6z"/>
											</g>
										</g>
										<g id="Grupo_53991" class="st17">
											<path id="Trazado_101202" d="M1122.1,4055l5,33.2c0,0,4.6,0,5.5-1.4L1122.1,4055z"/>
											<path id="Trazado_101203" d="M1122.1,4055l5,33.2c0,0,4.6,0,5.5-1.4L1122.1,4055z"/>
										</g>
									</g>
									<g id="Grupo_54003">
										<path id="Trazado_101204" class="st10" d="M1093,4113.6c-11.8,0.9-18.2,0.1-31.1,1.3c-9,1.2-15.9,8.8-16.1,17.9l-2.3,97.8
											h23.8l3.8-87.7l7,0.9c-0.9,32.8,2.5,86.8,2.5,86.8l26.4-1.3l-1.5-84.2c0,0,35.5,2.4,34.6-29.5
											C1140.2,4115.6,1112.2,4112.2,1093,4113.6z"/>
										<g id="Grupo_53993">
											<path id="Trazado_101205" class="st11" d="M1100.1,4113.4c-0.6,0.1-1.2,0.2-1.8,0.3c-1.2,0.2-2.8,0.4-4.9,0.8
												c-2.4,0.3-4.8,1-7.1,1.9c-1.3,0.6-2.5,1.4-3.6,2.3c-1.1,1-2.1,2.3-2.7,3.6c-1.2,2.7-1.8,5.7-1.7,8.7
												c0,2.8,0.1,5.3,0.1,7.4s-0.1,3.8-0.2,5c0,0.6-0.1,1-0.1,1.3c0,0.2,0,0.3-0.1,0.5c0-0.6,0-1.2,0-1.8c0-1.2,0-2.9,0-5
												c-0.1-2.1-0.1-4.6-0.2-7.4c-0.1-3.1,0.5-6.1,1.7-8.9c0.7-1.4,1.7-2.7,2.8-3.8c1.1-1,2.4-1.8,3.7-2.4
												c2.3-0.9,4.7-1.5,7.2-1.8c2.1-0.3,3.8-0.5,4.9-0.6c0.6-0.1,1-0.1,1.3-0.1C1099.8,4113.3,1100,4113.3,1100.1,4113.4z"/>
										</g>
										<g id="Grupo_53994">
											<path id="Trazado_101206" class="st11" d="M1069,4136.8c0.5,1,0.9,1.9,1.3,3c0.5,1,0.8,2.1,0.8,3.2c-0.5-1-0.9-1.9-1.3-3
												C1069.3,4139,1069,4137.9,1069,4136.8z"/>
										</g>
										<g id="Grupo_53995">
											<path id="Trazado_101207" class="st11" d="M1070.9,4134.9c0.5,1.3,0.7,2.7,0.7,4c0.2,1.4,0,2.8-0.5,4.1
												c-0.2,0,0.1-1.8,0-4C1070.9,4137.6,1070.9,4136.2,1070.9,4134.9z"/>
										</g>
										<g id="Grupo_53998">
											<g id="Grupo_53996">
												<path id="Trazado_101208" class="st11" d="M1103.7,4136.7c0.6,1.3,1,2.7,1.2,4.2c0.3,1.4,0.5,2.8,0.6,4.3
													c-0.6-1.3-1-2.7-1.2-4.2C1104.1,4139.6,1103.8,4138.1,1103.7,4136.7z"/>
											</g>
											<g id="Grupo_53997">
												<path id="Trazado_101209" class="st11" d="M1106.1,4136.7c0.6,2.8,0.4,5.7-0.5,8.4c0-1.4,0.1-2.8,0.3-4.2
													C1105.9,4139.5,1106,4138.1,1106.1,4136.7z"/>
											</g>
										</g>
										<g id="Grupo_53999">
											<path id="Trazado_101210" class="st11" d="M1066.7,4224.9c0,0.1-5.2,0.3-11.6,0.3s-11.6-0.1-11.6-0.3s5.2-0.3,11.6-0.3
												S1066.7,4224.8,1066.7,4224.9z"/>
										</g>
										<g id="Grupo_54000">
											<path id="Trazado_101211" class="st11" d="M1106.7,4224.5c0,0.1-5.9,0.3-13.2,0.3s-13.2-0.1-13.2-0.3s5.9-0.3,13.2-0.3
												S1106.7,4224.3,1106.7,4224.5z"/>
										</g>
										<g id="Grupo_54001">
											<path id="Trazado_101212" class="st11" d="M1137,4130.3c-0.1,0-0.2,0-0.3,0l-1,0l-3.8,0l-14,0.1l-9.7,0
												c-1.8,0-3.5,0.2-5.3,0.6c-1.8,0.4-3.5,1.4-4.6,2.9c-1.1,1.6-1.7,3.5-1.7,5.5c-0.1,2,0.1,4.1,0.2,6.2
												c0.1,4.2,0.2,8.6,0.4,13.1c0.5,18,0.9,34.3,1.1,46.1c0.1,5.9,0.1,10.7,0.1,14c0,1.6,0,2.9,0,3.8c0,0.4,0,0.7,0,1
												c0,0.1,0,0.2,0,0.3c0-0.1,0-0.2,0-0.3c0-0.2,0-0.6,0-1c0-0.9,0-2.2-0.1-3.8c-0.1-3.3-0.2-8.1-0.3-14
												c-0.2-11.8-0.7-28.1-1.2-46.1c-0.1-4.5-0.2-8.9-0.3-13.1c-0.1-2.1-0.3-4.2-0.2-6.3c0-2.1,0.6-4.1,1.8-5.8
												c1.2-1.5,3-2.6,4.9-3c1.8-0.4,3.6-0.6,5.4-0.6l9.7,0l14,0.1l3.8,0.1l1,0C1136.8,4130.2,1136.9,4130.2,1137,4130.3z"/>
										</g>
										<path id="Trazado_101213" class="st18" d="M1075.3,4143.5c0,0-0.9-11.9,3.5-18.7l-0.7,19L1075.3,4143.5z"/>
										<g id="Grupo_54002">
											<path id="Trazado_101214" class="st11" d="M1077.2,4132.2c-0.1,0-0.2,0-0.3,0l-0.8-0.1c-0.7-0.1-1.7-0.3-3-0.5
												c-1.6-0.2-3.2-0.1-4.7,0.3c-1,0.3-1.9,0.7-2.7,1.2c-0.9,0.7-1.6,1.5-2.1,2.5c-1,2.1-1.1,4.7-1.2,7.5
												c-0.1,2.8-0.1,5.7-0.2,8.9c-0.2,6.2-0.3,13.1-0.5,20.3c-0.4,14.4-0.8,27.4-1.1,36.9c-0.2,4.7-0.3,8.5-0.4,11.2
												c-0.1,1.3-0.1,2.3-0.1,3c0,0.3,0,0.6,0,0.8c0.1,0,0.1,0.1,0.1,0.2c0,0.1-0.1,0.1-0.2,0.1s-0.1-0.1-0.1-0.2
												c0-0.1,0.1-0.1,0.1-0.1c0-0.2,0-0.5,0-0.8c0-0.7,0-1.8,0-3c0.1-2.7,0.1-6.5,0.2-11.2c0.2-9.5,0.6-22.5,0.9-36.9
												c0.2-7.2,0.4-14.1,0.6-20.3c0.1-3.1,0.2-6.1,0.3-8.9c0.1-2.8,0.2-5.4,1.3-7.6c0.5-1,1.3-1.9,2.2-2.6
												c0.8-0.6,1.8-1,2.8-1.3c1.6-0.4,3.2-0.4,4.8-0.2c1,0.1,2,0.3,3,0.6l0.8,0.2C1077,4132.1,1077.1,4132.2,1077.2,4132.2z"/>
										</g>
									</g>
									<path id="Trazado_101215" class="st14" d="M1075.4,4056.8c0,0-25.1,25.2-29.9,30.8c-4.1,4.8-1.4,13.9,2,14.3
										s58.8-0.4,58.8-0.4l-0.7-11.3c0,0-35.9,0.2-36.9-0.5s20.7-22.7,20.7-22.7L1075.4,4056.8z"/>
									<path id="Trazado_101216" class="st14" d="M1141.8,4060.1c0,0,7.6,23.1,8.6,25.9s5.7,14.3-3.3,15.3s-57.3,0-57.3,0
										l-3.6-11.7c0,0,46.7-0.1,46.5-2.6s-7.1-23.4-7.1-23.4L1141.8,4060.1z"/>
								</g>
								<g id="Grupo_54005">
									<path id="Trazado_101217" class="st10" d="M1039.8,4052.8l17.4,48.1l79.9,0l-0.6-2.3l-30-1.1l-14.8-45.3L1039.8,4052.8z"/>
									<path id="Trazado_101218" class="st15" d="M1075.4,4074.7c0,1.6-1.2,2.8-2.8,2.9s-2.8-1.2-2.9-2.8c0-1.4,1-2.6,2.3-2.8
										C1073.8,4071.8,1075.3,4073.1,1075.4,4074.7z"/>
								</g>
								<path id="Trazado_101219" class="st12" d="M1178.4,4099.9H985.6v138h4.1V4108h188.7v130h48.2v-138.1H1178.4z"/>
							</g>
							<g id="Grupo_54048">
								<g id="Grupo_54020">
									<g id="Grupo_54007">
										<path id="Trazado_101220" class="st4" d="M946.2,4232.5v-10.3l-18.5-0.1l-0.2,15.4l1.1,0.1c5.1,0.3,26,1,29.4-0.1
											C961.9,4236.3,946.2,4232.5,946.2,4232.5z"/>
									</g>
									<g id="Grupo_54009">
										<g id="Grupo_54008">
											<path id="Trazado_101221" class="st10" d="M958.5,4236.5c0,0.2-6.9,0.3-15.5,0.3s-15.5-0.1-15.5-0.3s6.9-0.3,15.5-0.3
												S958.5,4236.3,958.5,4236.5z"/>
										</g>
									</g>
									<g id="Grupo_54011">
										<g id="Grupo_54010">
											<path id="Trazado_101222" class="st10" d="M946.5,4234.6c-0.2-0.1,0-0.6,0.4-1.2s0.9-0.8,1-0.7s-0.1,0.6-0.5,1.1
												S946.7,4234.6,946.5,4234.6z"/>
										</g>
									</g>
									<g id="Grupo_54013">
										<g id="Grupo_54012">
											<path id="Trazado_101223" class="st10" d="M947.7,4235.2c-0.2-0.1-0.1-0.7,0.3-1.3s0.8-1,1-0.9s-0.1,0.6-0.4,1.2
												S947.9,4235.3,947.7,4235.2z"/>
										</g>
									</g>
									<g id="Grupo_54015">
										<g id="Grupo_54014">
											<path id="Trazado_101224" class="st10" d="M933.2,4236.4c-0.1,0.1-0.3-0.2-0.7-0.7c-0.5-0.6-1-1.1-1.6-1.6
												c-0.6-0.5-1.3-0.8-2-0.9c-0.6-0.1-0.9,0-1-0.1c0-0.1,0.3-0.3,1-0.4c0.9,0,1.7,0.3,2.4,0.8c0.6,0.5,1.2,1.1,1.6,1.9
												C933.1,4236,933.3,4236.4,933.2,4236.4z"/>
										</g>
									</g>
									<g id="Grupo_54017">
										<g id="Grupo_54016">
											<path id="Trazado_101225" class="st10" d="M946.6,4232.6c0.1,0.1-0.2,0.5-0.8,0.7s-1,0.1-1,0s0.3-0.4,0.8-0.5
												S946.5,4232.5,946.6,4232.6z"/>
										</g>
									</g>
									<g id="Grupo_54019">
										<g id="Grupo_54018">
											<path id="Trazado_101226" class="st10" d="M946.3,4231.6c0,0.2-0.5,0.3-1.1,0.3s-1.1-0.1-1.1-0.3s0.5-0.3,1.1-0.3
												S946.3,4231.5,946.3,4231.6z"/>
										</g>
									</g>
								</g>
								<path id="Trazado_101227" class="st14" d="M999.9,3924.4l0.2-3.1c0.3-1.7,0.4-3.5,0.4-5.2c0-0.9-0.2-1.7-0.5-2.6
									c-0.3-1-0.8-2-1.4-2.9c-0.4-0.4-0.4-1,0-1.4c0.2-0.2,0.5-0.3,0.8-0.3c0.9,0.2,2.7,2.3,3.5,5.4s2.9-1.5,3.7-3.2
									s3.5-6.7,4.2-6.9c1-0.2,1.5,0.8,0.6,2.5c-0.8,1.7-3,6.8-2.1,7.1c0.6-0.2,1.3-0.2,2-0.1c0.2,0,0.4,0.2,0.4,0.4
									c0,0.5,0.1,1,0.3,1.4c0,0,1.2-0.4,1.6,0.1c0.2,0.6,0.4,1.1,0.4,1.7c0,0,0.9-0.4,1.4-0.1c1.1,0.7-0.1,2.2-0.1,2.2
									c-2.6,3.7-5.3,7.2-8.3,10.5l-7.3-5.9"/>
								<g id="Grupo_54021">
									<path id="Trazado_101228" class="st14" d="M911,3924.2l-0.1,39.9l17.1,0.8l0.5-9.7c0,0,6.1,1.2,7.6-4.4
										c1-3.6,0.8-31.5,0.8-31.5L911,3924.2z"/>
									<path id="Trazado_101229" class="st10" d="M935.9,3913.1c-5.2,1.7-6.5,2.2-8.8,2.4c-2.2,0.2-18.2,0.2-19.6,9.1
										c-0.2-0.4-0.3-0.9-0.5-1.3c-0.1-0.9-0.2-1.8-0.2-2.6c-0.5,0.8-0.6,1.8-0.3,2.8c0,0.2,0.1,0.4,0.2,0.6
										c-0.1-0.1-0.2-0.2-0.3-0.3c-0.6-0.5-1.3-0.9-2-1.1c-0.6-0.1-0.9-0.1-1,0c0.9,0.4,1.8,0.9,2.6,1.5c0.5,0.5,1,1,1.3,1.6
										c0,0,0,0.1,0,0.1c0,0-3.4-1.5-2.5,4.7s4.9,11.4,5.4,21.5c0,0,14.1,1.7,16.6-3.7l2.1-6.2c0,0-3.4-0.6-3-3.3
										c0.5-3.8,3.4-3.9,5.6-2.2l2.5-6.6c0,0,6.3-4.1,6.6-6.7S941.1,3911.4,935.9,3913.1z"/>
								</g>
								<g id="Grupo_54024">
									<path id="Trazado_101230" class="st4" d="M863.6,4224.7l-2.5,11.2l17.3,2.1l0.6-11.1L863.6,4224.7z"/>
									<g id="Grupo_54022">
										<path id="Trazado_101231" class="st10" d="M871.4,4225.3c-0.2,3.4-0.8,6.8-1.7,10.2C870,4232,870.6,4228.6,871.4,4225.3z"
											/>
									</g>
									<g id="Grupo_54023">
										<path id="Trazado_101232" class="st10" d="M878.5,4236.8c-0.8,0-1.7-0.1-2.5-0.3l-6-1c-2.3-0.4-4.5-0.8-6-1.1
											c-0.8-0.1-1.7-0.4-2.4-0.7c0.8,0,1.7,0.1,2.5,0.3l6,1c2.3,0.4,4.5,0.8,6,1.1C876.9,4236.3,877.7,4236.5,878.5,4236.8z"/>
									</g>
								</g>
								<g id="Grupo_54031">
									<path id="Trazado_101233" class="st10" d="M889.3,4049.3l-32,179.7l27.4,1.6c0,0,29.1-154.9,33.4-155.3
										c1.8-0.2,2.5,154,3.9,153.7s29.6,0.5,29.6,0.5s-3.8-182.5-3.7-182.5S889.3,4049.3,889.3,4049.3z"/>
									<g id="Grupo_54030">
										<g id="Grupo_54025">
											<path id="Trazado_101234" class="st11" d="M929.7,4071.5c0,0.1-4.7,1.3-10.6,2.5s-10.7,2.1-10.7,2s4.7-1.3,10.6-2.5
												S929.7,4071.4,929.7,4071.5z"/>
										</g>
										<g id="Grupo_54026">
											<path id="Trazado_101235" class="st11" d="M886.7,4220c0,0.1-6.2,0.1-13.8-0.2s-13.8-0.5-13.8-0.7s6.2-0.1,13.8,0.2
												S886.7,4219.9,886.7,4220z"/>
										</g>
										<g id="Grupo_54027">
											<path id="Trazado_101236" class="st11" d="M951.3,4220c0,0.1-6.7,0.1-14.9-0.2s-14.9-0.6-14.9-0.7s6.7-0.1,14.9,0.2
												S951.3,4219.9,951.3,4220z"/>
										</g>
										<g id="Grupo_54028">
											<path id="Trazado_101237" class="st11" d="M902.9,4076.5c0.1,0-6.6,32.1-15.1,71.6s-15.5,71.5-15.6,71.5
												s6.6-32.1,15.1-71.6S902.8,4076.5,902.9,4076.5z"/>
										</g>
										<g id="Grupo_54029">
											<path id="Trazado_101238" class="st11" d="M936.5,4219.6c0-0.1,0-0.2,0-0.4c0-0.3,0-0.6-0.1-1.1c0-1-0.1-2.4-0.2-4.2
												c-0.2-3.6-0.3-8.9-0.5-15.4c-0.4-13-0.8-31-0.8-50.9s0.1-37.9,0.4-50.9c0.1-6.5,0.3-11.8,0.4-15.4
												c0.1-1.8,0.1-3.2,0.1-4.2c0-0.5,0-0.8,0-1.1c0-0.1,0-0.2,0-0.4c0,0.1,0,0.2,0,0.4c0,0.3,0,0.6,0,1.1c0,1,0,2.4,0,4.2
												c0,3.7-0.1,8.9-0.2,15.4c-0.2,13-0.3,31-0.2,50.9s0.4,37.8,0.7,50.9c0.1,6.5,0.3,11.7,0.4,15.4c0,1.8,0.1,3.2,0.1,4.2
												c0,0.5,0,0.8,0,1.1C936.6,4219.3,936.6,4219.5,936.5,4219.6z"/>
										</g>
									</g>
								</g>
								<g id="Grupo_54047">
									<path id="Trazado_101239" class="st4" d="M997.1,3923.5c0,0-21.2,32-23,33.8s-35,5.3-35,5.3c-10.2-2.3-43.2-1.5-49.4,3l0,0
										c-5.4,3-11.9,10-15.3,26.5c-5.7,28.3-11.5,38.7,0,42.7c4.6,1.6,9.3,2.7,14.2,3.3l-0.3,12.8l59.6-3.7l-3.1-31.8
										c-0.4-8.9-0.5-18.2-0.7-26.5c3.7-1.4,38.4-14.5,40.8-14.9c2.5-0.4,25.2-42.3,25.2-42.3
										C1010.7,3926.7,997.1,3923.5,997.1,3923.5z"/>
									<g id="Grupo_54032">
										<path id="Trazado_101240" class="st10" d="M890.2,3981.3c0.1,0-0.2,15.6-0.7,34.8s-1.1,34.8-1.2,34.8s0.2-15.6,0.7-34.8
											S890,3981.3,890.2,3981.3z"/>
									</g>
									<g id="Grupo_54033">
										<path id="Trazado_101241" class="st10" d="M977.1,3964.4c-0.8-1-1.4-2.2-1.7-3.5c-0.5-1.2-0.9-2.4-1.2-3.7
											c0.8,1,1.4,2.2,1.7,3.5C976.3,3962,976.7,3963.2,977.1,3964.4z"/>
									</g>
									<g id="Grupo_54034">
										<path id="Trazado_101242" class="st10" d="M979.4,3961.7c-1-0.6-2-1.3-2.8-2c-1-0.6-1.8-1.5-2.5-2.4c1,0.6,2,1.3,2.8,2
											C977.9,3959.9,978.8,3960.8,979.4,3961.7z"/>
									</g>
									<g id="Grupo_54035">
										<path id="Trazado_101243" class="st10" d="M1008.9,3934.2c-0.7-0.3-1.4-0.7-2-1.2c-1.2-0.8-2.9-1.8-4.8-2.9
											s-3.7-1.9-5.1-2.5c-0.7-0.3-1.4-0.6-2.1-1c0.8,0.1,1.5,0.3,2.3,0.7c3.6,1.3,6.9,3.1,10,5.3
											C1007.7,3933.2,1008.3,3933.7,1008.9,3934.2z"/>
									</g>
									<g id="Grupo_54036">
										<path id="Trazado_101244" class="st10" d="M889.5,4016.3c-1.2,0.1-2.5-0.1-3.7-0.4c-1.2-0.2-2.4-0.6-3.5-1.2
											c1.2,0.1,2.4,0.3,3.6,0.7C887.1,4015.5,888.3,4015.8,889.5,4016.3z"/>
									</g>
									<g id="Grupo_54037">
										<path id="Trazado_101245" class="st10" d="M944.5,3962.1c-1.1,0.2-2.1,0.4-3.2,0.8c-5.1,1.7-8.6,6.5-8.5,11.9
											c0,1.1,0.2,2.2,0.3,3.3c-0.2-0.3-0.3-0.5-0.3-0.8c-0.2-0.8-0.3-1.6-0.4-2.4c-0.3-5.6,3.4-10.7,8.8-12.3
											c0.8-0.2,1.6-0.4,2.4-0.4C943.9,3962,944.2,3962,944.5,3962.1z"/>
									</g>
									<g id="Grupo_54038">
										<path id="Trazado_101246" class="st10" d="M947.8,4047.2c0,0.1-13.3,1.1-29.8,2.1s-29.8,1.7-29.8,1.6s13.3-1.1,29.8-2.1
											S947.8,4047,947.8,4047.2z"/>
									</g>
									<g id="Grupo_54039">
										<path id="Trazado_101247" class="st10" d="M924.1,3961.5c0.1,0.2,0.1,0.5,0.2,0.7c0,0.2,0.1,0.5,0.2,0.9s0.1,0.8,0.1,1.3
											c0.1,2.7-0.3,5.4-1.3,7.9c-1.4,3.8-4,7-7.4,9.2c-0.5,0.3-1,0.6-1.5,0.8c-0.5,0.3-1.1,0.5-1.6,0.7
											c-1.1,0.4-2.3,0.7-3.4,1.1c-1.2,0.4-2.3,0.9-3.3,1.5c-1,0.7-1.9,1.6-2.7,2.6c-1.4,2.1-2.7,4.2-3.9,6.4
											c-1.2,2.1-2.8,3.9-4.9,5.1c-1.9,1-4.1,1.4-6.3,1.2c-1.9-0.2-3.7-0.7-5.4-1.5c-2.4-1.2-4.6-2.8-6.5-4.8
											c-0.7-0.7-1.2-1.2-1.5-1.6c-0.2-0.2-0.3-0.4-0.5-0.6c0.2,0.2,0.4,0.3,0.6,0.5l1.6,1.5c1.9,1.9,4.1,3.4,6.5,4.6
											c1.6,0.8,3.4,1.3,5.2,1.4c2.1,0.2,4.2-0.2,6-1.2c2-1.2,3.6-2.9,4.7-4.9c1.2-2.2,2.5-4.4,4-6.4c0.8-1,1.8-1.9,2.8-2.7
											c1.1-0.7,2.2-1.2,3.4-1.6l3.4-1.1c0.5-0.2,1.1-0.4,1.6-0.6c0.5-0.2,1-0.5,1.5-0.8c3.3-2.1,5.9-5.2,7.3-8.9
											c1-2.5,1.5-5.1,1.4-7.8c0-0.5,0-0.9-0.1-1.2c0-0.4-0.1-0.7-0.1-0.9C924.1,3962,924.1,3961.7,924.1,3961.5z"/>
									</g>
									<g id="Grupo_54040">
										<path id="Trazado_101248" class="st10" d="M946.7,4035c-0.2-0.1-0.5-0.3-0.7-0.4c-0.6-0.4-1.3-0.7-2.1-0.8
											c-1.2-0.2-2.4-0.3-3.6-0.3c-1.4-0.1-3-0.1-4.7-0.2c-1.9,0-3.9-0.3-5.7-0.8c-2.2-0.6-4.2-1.6-6-2.9c-2-1.4-3.7-3.3-4.9-5.5
											c-1.3-2.3-2-5-2-7.6c-0.1-5.3,2.9-10.1,7.6-12.5c1-0.5,2.1-0.9,3.3-1.1c1.1-0.2,2.2-0.3,3.2-0.3c1.9,0.1,3.8,0,5.7-0.2
											c2.8-0.2,5.3-1.7,6.7-4.2c0.3-0.7,0.5-1.4,0.6-2.1c0.1-0.5,0.1-0.8,0.1-0.8c0,0.1,0,0.1,0,0.2c0,0.2,0,0.4,0,0.6
											c0,0.8-0.2,1.5-0.5,2.2c-0.5,1.1-1.3,2.1-2.3,2.8c-1.3,0.9-2.9,1.5-4.5,1.7c-1.9,0.2-3.8,0.3-5.8,0.2
											c-1.1,0-2.1,0.1-3.2,0.3c-1.1,0.2-2.2,0.6-3.2,1.1c-4.5,2.3-7.4,7-7.3,12.1c0,2.6,0.7,5.1,1.9,7.4
											c1.2,2.1,2.8,3.9,4.7,5.3c1.8,1.3,3.7,2.3,5.8,2.9c1.8,0.5,3.7,0.8,5.6,0.9c1.8,0.1,3.4,0.1,4.8,0.3
											c1.2,0.1,2.4,0.2,3.6,0.4c0.7,0.2,1.5,0.5,2.1,1c0.2,0.1,0.3,0.2,0.5,0.4C946.6,4034.9,946.7,4035,946.7,4035z"/>
									</g>
									<g id="Grupo_54041">
										<path id="Trazado_101249" class="st10" d="M913.5,4049.6c0-0.7,0-1.4-0.1-2.1c-0.4-1.9-1.5-3.6-3.1-4.7
											c-0.5-0.4-1.1-0.6-1.7-0.8c-0.7-0.2-1.4-0.3-2-0.4c-1.6,0-3.2-0.3-4.7-0.6c-0.8-0.3-1.6-0.7-2.2-1.4
											c-0.6-0.7-1.2-1.4-1.5-2.3c-0.7-1.8-0.9-3.7-0.7-5.6c0.6-3.8,2.2-7.2,2.5-10.4c0.2-1.5,0.1-3.1-0.4-4.5
											c-0.4-1.3-1.2-2.4-2.3-3.1c-1.6-1.2-3.5-1.7-5.5-1.4c-0.7,0.1-1.4,0.3-2.1,0.6c0.6-0.4,1.3-0.7,2-0.8
											c2-0.3,4.1,0.1,5.7,1.3c1.2,0.8,2,2,2.5,3.3c0.5,1.5,0.7,3.1,0.5,4.7c-0.3,3.4-2,6.7-2.5,10.4c-0.3,1.8-0.1,3.6,0.6,5.3
											c0.3,0.8,0.8,1.5,1.4,2.1c0.6,0.6,1.3,1,2.1,1.3c1.5,0.4,3,0.6,4.6,0.7c0.7,0.1,1.4,0.2,2.1,0.4c0.6,0.2,1.2,0.5,1.8,0.9
											c1.7,1.2,2.8,3,3.1,5c0.1,0.5,0.1,1.1,0,1.6C913.6,4049.3,913.6,4049.4,913.5,4049.6z"/>
									</g>
									<g id="Grupo_54042">
										<path id="Trazado_101250" class="st10" d="M911.5,3994.3c0,0,0.2-0.2,0.7-0.4c0.7-0.2,1.5-0.1,2.2,0.1
											c0.5,0.2,0.9,0.5,1.3,0.9c0.4,0.5,0.7,1,0.7,1.6c0.2,1.4-0.5,2.8-1.7,3.5c-1.3,0.6-2.8,0.4-3.9-0.6
											c-0.4-0.4-0.8-1-0.9-1.6c-0.1-0.5-0.1-1,0.1-1.5c0.2-0.7,0.6-1.3,1.2-1.8c0.4-0.3,0.7-0.3,0.7-0.3c0,0-0.2,0.1-0.6,0.5
											c-0.5,0.4-0.9,1-1,1.7c-0.3,1,0,2,0.8,2.6c0.9,0.8,2.2,1,3.3,0.5c1-0.6,1.6-1.8,1.5-3c-0.1-1-0.7-1.8-1.7-2.2
											c-0.6-0.3-1.3-0.4-2-0.3C911.8,3994.2,911.6,3994.3,911.5,3994.3z"/>
									</g>
									<g id="Grupo_54043">
										<path id="Trazado_101251" class="st10" d="M881.6,4036.9c-0.1,0,0.4-1.8,0.5-4.6c0-0.8,0-1.6,0-2.3c0-0.8-0.2-1.7-0.3-2.7
											c-0.6-4.1-2.1-7.9-4.4-11.3c-0.5-0.7-1-1.5-1.6-2.1c-0.5-0.6-1-1.2-1.6-1.7c-2-2-3.5-3-3.5-3.1c0.4,0.2,0.7,0.4,1.1,0.7
											c0.4,0.3,0.8,0.6,1.2,0.9c0.5,0.4,1,0.8,1.5,1.3c0.6,0.5,1.1,1.1,1.6,1.7c0.6,0.7,1.2,1.4,1.7,2.1
											c2.4,3.4,3.9,7.4,4.5,11.5c0.1,0.9,0.2,1.8,0.2,2.7c0,0.8,0,1.6,0,2.4c0,0.7-0.1,1.3-0.2,1.9c-0.1,0.5-0.1,1-0.3,1.4
											C881.8,4036.1,881.7,4036.5,881.6,4036.9z"/>
									</g>
									<g id="Grupo_54044">
										<path id="Trazado_101252" class="st10" d="M985.3,3973.6c-0.5-0.2-1-0.4-1.5-0.7c-0.9-0.4-2.3-1.1-4.1-1.7
											c-2-0.8-4.2-1.3-6.3-1.6c-2.6-0.4-5.3-0.2-7.9,0.4c-2.6,0.6-5,1.9-6.9,3.7c-1.6,1.5-2.8,3.3-3.6,5.3
											c-0.5,1.4-0.7,2.8-0.6,4.3c0.1,1,0.2,1.6,0.2,1.6c-0.1-0.1-0.1-0.3-0.1-0.4c-0.1-0.4-0.2-0.8-0.2-1.2
											c-0.2-1.5,0-3,0.5-4.4c0.7-2.1,1.9-4,3.6-5.6c2-1.9,4.5-3.2,7.1-3.8c2.7-0.6,5.4-0.8,8.1-0.4c2.2,0.3,4.3,0.9,6.4,1.7
											c1.4,0.5,2.7,1.2,4,1.9c0.5,0.3,0.8,0.5,1.1,0.6S985.3,3973.6,985.3,3973.6z"/>
									</g>
									<g id="Grupo_54045">
										<path id="Trazado_101253" class="st10" d="M993.5,3928.8c0,0,0.1,0.1,0.3,0.2c0.2,0.2,0.5,0.5,0.7,0.8
											c0.8,1,1.4,2.1,1.9,3.3c0.7,1.8,0.9,3.7,0.8,5.6c-0.2,2.3-0.9,4.6-2.2,6.5c-1.3,1.9-3.1,3.5-5.2,4.5
											c-1.7,0.8-3.5,1.3-5.4,1.4c-1.3,0.1-2.5,0-3.8-0.3c-0.3-0.1-0.7-0.2-1-0.3c-0.2-0.1-0.3-0.1-0.3-0.1
											c1.7,0.4,3.4,0.5,5,0.4c1.8-0.2,3.6-0.7,5.2-1.5c2-1,3.7-2.5,5-4.4c2.2-3.5,2.8-7.8,1.5-11.7
											C995.4,3931.7,994.5,3930.2,993.5,3928.8z"/>
									</g>
									<g id="Grupo_54046">
										<path id="Trazado_101254" class="st10" d="M928.2,3961.3c-5.8,0.4-11.6,0.4-17.4,0.1
											C916.6,3961.1,922.4,3961,928.2,3961.3z"/>
									</g>
								</g>
							</g>
						</g>
					</g>
				</g>
			</g>
		</g>
	</g>
	<g>
		<path class="st3" d="M562.8,8877.6H559v-1.2h3.8V8877.6z"/>
		<path class="st3" d="M566.1,8875.4h1.1c0.7,0,1.2-0.2,1.6-0.5c0.4-0.3,0.6-0.8,0.6-1.4c0-1.3-0.7-2-2-2c-0.6,0-1.1,0.2-1.5,0.5
			c-0.4,0.4-0.6,0.8-0.6,1.4h-1.4c0-0.9,0.3-1.6,1-2.2c0.7-0.6,1.5-0.9,2.5-0.9c1.1,0,1.9,0.3,2.5,0.9c0.6,0.6,0.9,1.4,0.9,2.4
			c0,0.5-0.2,1-0.5,1.4c-0.3,0.5-0.8,0.8-1.3,1c0.6,0.2,1.1,0.5,1.4,1c0.3,0.5,0.5,1,0.5,1.7c0,1-0.3,1.8-1,2.4
			c-0.7,0.6-1.5,0.9-2.6,0.9c-1.1,0-1.9-0.3-2.6-0.9c-0.7-0.6-1-1.3-1-2.3h1.5c0,0.6,0.2,1.1,0.6,1.4s0.9,0.5,1.6,0.5
			c0.7,0,1.2-0.2,1.6-0.5c0.4-0.4,0.6-0.9,0.6-1.6c0-0.7-0.2-1.2-0.6-1.5c-0.4-0.4-1-0.5-1.8-0.5h-1.1V8875.4z"/>
		<path class="st3" d="M578.7,8870.4v1.2h-0.3c-1.1,0-2,0.4-2.7,1c-0.7,0.6-1.1,1.6-1.2,2.7c0.6-0.7,1.4-1,2.5-1c1,0,1.8,0.3,2.4,1
			c0.6,0.7,0.9,1.6,0.9,2.7c0,1.2-0.3,2.1-1,2.8c-0.6,0.7-1.5,1.1-2.6,1.1c-1.1,0-2-0.4-2.6-1.3c-0.7-0.8-1-1.9-1-3.2v-0.6
			c0-2.1,0.4-3.7,1.3-4.8c0.9-1.1,2.2-1.7,4-1.7H578.7z M576.8,8875.6c-0.5,0-1,0.1-1.4,0.4c-0.4,0.3-0.7,0.7-0.9,1.1v0.5
			c0,0.9,0.2,1.7,0.6,2.3c0.4,0.6,0.9,0.9,1.6,0.9c0.7,0,1.2-0.2,1.5-0.7c0.4-0.5,0.6-1.1,0.6-1.9c0-0.8-0.2-1.4-0.6-1.9
			C577.9,8875.8,577.4,8875.6,576.8,8875.6z"/>
		<path class="st3" d="M584.1,8875.4h1.1c0.7,0,1.2-0.2,1.6-0.5c0.4-0.3,0.6-0.8,0.6-1.4c0-1.3-0.7-2-2-2c-0.6,0-1.1,0.2-1.5,0.5
			c-0.4,0.4-0.6,0.8-0.6,1.4h-1.4c0-0.9,0.3-1.6,1-2.2c0.7-0.6,1.5-0.9,2.5-0.9c1.1,0,1.9,0.3,2.5,0.9c0.6,0.6,0.9,1.4,0.9,2.4
			c0,0.5-0.2,1-0.5,1.4c-0.3,0.5-0.8,0.8-1.3,1c0.6,0.2,1.1,0.5,1.4,1c0.3,0.5,0.5,1,0.5,1.7c0,1-0.3,1.8-1,2.4
			c-0.7,0.6-1.5,0.9-2.6,0.9c-1.1,0-1.9-0.3-2.6-0.9c-0.7-0.6-1-1.3-1-2.3h1.5c0,0.6,0.2,1.1,0.6,1.4s0.9,0.5,1.6,0.5
			c0.7,0,1.2-0.2,1.6-0.5c0.4-0.4,0.6-0.9,0.6-1.6c0-0.7-0.2-1.2-0.6-1.5c-0.4-0.4-1-0.5-1.8-0.5h-1.1V8875.4z"/>
		<path class="st3" d="M591.2,8881.1c0-0.2,0.1-0.5,0.2-0.6c0.1-0.2,0.4-0.2,0.7-0.2s0.5,0.1,0.7,0.2c0.2,0.2,0.2,0.4,0.2,0.6
			c0,0.2-0.1,0.4-0.2,0.6c-0.2,0.2-0.4,0.2-0.7,0.2s-0.5-0.1-0.7-0.2S591.2,8881.3,591.2,8881.1z"/>
		<path class="st3" d="M602.3,8877c0,1.7-0.3,3-0.9,3.8c-0.6,0.8-1.5,1.2-2.7,1.2c-1.2,0-2.1-0.4-2.7-1.2c-0.6-0.8-0.9-2-0.9-3.6
			v-1.9c0-1.7,0.3-2.9,0.9-3.7s1.5-1.2,2.7-1.2c1.2,0,2.1,0.4,2.7,1.2c0.6,0.8,0.9,2,0.9,3.6V8877z M600.9,8875
			c0-1.2-0.2-2.1-0.5-2.7c-0.3-0.6-0.9-0.8-1.6-0.8c-0.7,0-1.3,0.3-1.6,0.8c-0.3,0.6-0.5,1.4-0.5,2.6v2.3c0,1.2,0.2,2.1,0.5,2.7
			c0.4,0.6,0.9,0.9,1.6,0.9c0.7,0,1.2-0.3,1.6-0.8c0.3-0.6,0.5-1.4,0.5-2.6V8875z"/>
		<path class="st3" d="M611.3,8877c0,1.7-0.3,3-0.9,3.8c-0.6,0.8-1.5,1.2-2.7,1.2c-1.2,0-2.1-0.4-2.7-1.2c-0.6-0.8-0.9-2-0.9-3.6
			v-1.9c0-1.7,0.3-2.9,0.9-3.7s1.5-1.2,2.7-1.2c1.2,0,2.1,0.4,2.7,1.2c0.6,0.8,0.9,2,0.9,3.6V8877z M609.9,8875
			c0-1.2-0.2-2.1-0.5-2.7c-0.3-0.6-0.9-0.8-1.6-0.8c-0.7,0-1.3,0.3-1.6,0.8c-0.3,0.6-0.5,1.4-0.5,2.6v2.3c0,1.2,0.2,2.1,0.5,2.7
			c0.4,0.6,0.9,0.9,1.6,0.9c0.7,0,1.2-0.3,1.6-0.8c0.3-0.6,0.5-1.4,0.5-2.6V8875z"/>
		<path class="st3" d="M620.3,8877c0,1.7-0.3,3-0.9,3.8c-0.6,0.8-1.5,1.2-2.7,1.2c-1.2,0-2.1-0.4-2.7-1.2c-0.6-0.8-0.9-2-0.9-3.6
			v-1.9c0-1.7,0.3-2.9,0.9-3.7s1.5-1.2,2.7-1.2c1.2,0,2.1,0.4,2.7,1.2c0.6,0.8,0.9,2,0.9,3.6V8877z M618.9,8875
			c0-1.2-0.2-2.1-0.5-2.7c-0.3-0.6-0.9-0.8-1.6-0.8c-0.7,0-1.3,0.3-1.6,0.8c-0.3,0.6-0.5,1.4-0.5,2.6v2.3c0,1.2,0.2,2.1,0.5,2.7
			c0.4,0.6,0.9,0.9,1.6,0.9c0.7,0,1.2-0.3,1.6-0.8c0.3-0.6,0.5-1.4,0.5-2.6V8875z"/>
		<path class="st3" d="M577.8,8945.8h-1.5v-9.6l-2.9,1.1v-1.3l4.1-1.6h0.2V8945.8z"/>
		<path class="st3" d="M589.1,8941c0,1.7-0.3,3-0.9,3.8s-1.5,1.2-2.7,1.2c-1.2,0-2.1-0.4-2.7-1.2c-0.6-0.8-0.9-2-0.9-3.6v-1.9
			c0-1.7,0.3-2.9,0.9-3.7s1.5-1.2,2.7-1.2c1.2,0,2.1,0.4,2.7,1.2s0.9,2,0.9,3.6V8941z M587.7,8939c0-1.2-0.2-2.1-0.5-2.7
			s-0.9-0.8-1.6-0.8c-0.7,0-1.3,0.3-1.6,0.8c-0.3,0.6-0.5,1.4-0.5,2.6v2.3c0,1.2,0.2,2.1,0.5,2.7c0.4,0.6,0.9,0.9,1.6,0.9
			c0.7,0,1.2-0.3,1.6-0.8c0.3-0.6,0.5-1.4,0.5-2.6V8939z"/>
		<path class="st3" d="M591.2,8945.1c0-0.2,0.1-0.5,0.2-0.6s0.4-0.2,0.7-0.2s0.5,0.1,0.7,0.2c0.2,0.2,0.2,0.4,0.2,0.6
			c0,0.2-0.1,0.4-0.2,0.6c-0.2,0.2-0.4,0.2-0.7,0.2s-0.5-0.1-0.7-0.2S591.2,8945.3,591.2,8945.1z"/>
		<path class="st3" d="M600.7,8940.8c-0.3,0.4-0.7,0.6-1.1,0.9c-0.4,0.2-0.9,0.3-1.4,0.3c-0.7,0-1.2-0.2-1.7-0.5
			c-0.5-0.3-0.9-0.8-1.1-1.4s-0.4-1.2-0.4-1.9c0-0.8,0.1-1.4,0.4-2.1s0.7-1.1,1.2-1.4s1.2-0.5,1.9-0.5c1.1,0,2,0.4,2.7,1.3
			s1,2,1,3.4v0.4c0,2.2-0.4,3.8-1.3,4.8s-2.2,1.5-4,1.6h-0.3v-1.2h0.3c1.2,0,2.1-0.3,2.8-0.9S600.7,8942.1,600.7,8940.8z
			 M598.5,8940.8c0.5,0,0.9-0.1,1.3-0.4c0.4-0.3,0.7-0.7,0.9-1.1v-0.6c0-0.9-0.2-1.7-0.6-2.3c-0.4-0.6-0.9-0.9-1.6-0.9
			c-0.6,0-1.1,0.2-1.5,0.7c-0.4,0.5-0.6,1.1-0.6,1.9c0,0.8,0.2,1.4,0.6,1.9C597.4,8940.6,597.9,8940.8,598.5,8940.8z"/>
		<path class="st3" d="M611.6,8945.8h-7.5v-1l3.9-4.4c0.6-0.7,1-1.2,1.2-1.6c0.2-0.4,0.3-0.8,0.3-1.3c0-0.6-0.2-1.1-0.5-1.5
			s-0.8-0.6-1.4-0.6c-0.7,0-1.3,0.2-1.7,0.6s-0.6,1-0.6,1.7H604c0-1,0.3-1.9,1-2.5c0.7-0.6,1.6-1,2.7-1c1.1,0,1.9,0.3,2.5,0.8
			c0.6,0.6,0.9,1.3,0.9,2.2c0,1.1-0.7,2.5-2.1,4l-3,3.3h5.7V8945.8z"/>
		<path class="st3" d="M620.3,8941c0,1.7-0.3,3-0.9,3.8s-1.5,1.2-2.7,1.2c-1.2,0-2.1-0.4-2.7-1.2c-0.6-0.8-0.9-2-0.9-3.6v-1.9
			c0-1.7,0.3-2.9,0.9-3.7s1.5-1.2,2.7-1.2c1.2,0,2.1,0.4,2.7,1.2s0.9,2,0.9,3.6V8941z M618.9,8939c0-1.2-0.2-2.1-0.5-2.7
			s-0.9-0.8-1.6-0.8c-0.7,0-1.3,0.3-1.6,0.8c-0.3,0.6-0.5,1.4-0.5,2.6v2.3c0,1.2,0.2,2.1,0.5,2.7c0.4,0.6,0.9,0.9,1.6,0.9
			c0.7,0,1.2-0.3,1.6-0.8c0.3-0.6,0.5-1.4,0.5-2.6V8939z"/>
	</g>
</g>
</svg>
