<?xml version="1.0" encoding="utf-8"?>
<!-- Generator: Adobe Illustrator 25.2.3, SVG Export Plug-In . SVG Version: 6.00 Build 0)  -->
<svg version="1.1" id="Capa_1" xmlns="http://www.w3.org/2000/svg" xmlns:xlink="http://www.w3.org/1999/xlink" x="0px" y="0px"
	 viewBox="0 0 573 245" style="enable-background:new 0 0 573 245;" xml:space="preserve">
<style type="text/css">
	.st0{fill:#F6F6F6;}
	.st1{fill:#FFFFFF;}
	.st2{fill:#12263F;}
	.st3{fill:none;stroke:#AFAFAF;stroke-linecap:round;}
	.st4{fill:#D9A171;}
</style>
<g id="Grupo_54948" transform="translate(-835 -10326)">
	<rect id="Rectángulo_5423" x="921.5" y="10400.4" class="st0" width="400" height="48.1"/>
	<rect id="Rectángulo_5422" x="921.5" y="10448.5" class="st1" width="400" height="94.7"/>
	<path id="Trazado_102763" class="st2" d="M939.8,10480.4h-2.1v-9.9h2.1V10480.4z M943.1,10473.1l0.1,0.9c0.4-0.7,1.2-1,1.9-1
		c0.6,0,1.2,0.2,1.5,0.7c0.4,0.6,0.6,1.3,0.5,2.1v4.8h-2.1v-4.7c0-0.3,0-0.6-0.2-0.8c-0.2-0.2-0.5-0.3-0.7-0.3
		c-0.4,0-0.7,0.2-0.9,0.5v5.2h-2.1v-7.4H943.1z M948.1,10476.7c0-0.7,0.1-1.4,0.3-2c0.2-0.5,0.5-1,0.9-1.3c0.4-0.3,0.9-0.5,1.4-0.5
		c0.6,0,1.2,0.3,1.6,0.8l0.1-0.6h1.9v7.1c0,0.6-0.1,1.2-0.4,1.7c-0.3,0.5-0.7,0.9-1.2,1.1c-0.6,0.3-1.2,0.4-1.8,0.4
		c-0.5,0-1-0.1-1.4-0.3c-0.4-0.2-0.8-0.4-1-0.8l0.9-1.4c0.4,0.5,0.9,0.8,1.5,0.8c0.7,0.1,1.3-0.4,1.4-1.2c0-0.1,0-0.3,0-0.4v-0.2
		c-0.4,0.5-0.9,0.7-1.5,0.7c-0.8,0-1.5-0.4-2-1C948.3,10478.7,948,10477.8,948.1,10476.7L948.1,10476.7z M950.1,10476.8
		c0,0.5,0.1,1,0.3,1.4c0.2,0.3,0.5,0.5,0.9,0.5c0.4,0,0.8-0.2,1-0.5v-3.1c-0.2-0.3-0.6-0.5-1-0.5c-0.4,0-0.7,0.2-0.9,0.6
		C950.2,10475.7,950.1,10476.3,950.1,10476.8L950.1,10476.8z M959.6,10475.1l-0.7-0.1c-0.5-0.1-1,0.2-1.3,0.7v4.7h-2.1v-7.4h1.9
		l0.1,1c0.2-0.7,0.8-1.1,1.5-1.1c0.2,0,0.4,0,0.6,0.1L959.6,10475.1z M963.5,10480.6c-0.9,0-1.8-0.3-2.5-1c-0.6-0.7-1-1.7-0.9-2.6
		v-0.2c0-0.7,0.1-1.4,0.4-2c0.2-0.6,0.6-1,1.1-1.3c0.5-0.3,1.1-0.5,1.7-0.5c0.8,0,1.6,0.3,2.2,1c0.6,0.7,0.9,1.7,0.8,2.7v0.9h-4.1
		c0.1,0.4,0.2,0.7,0.5,1c0.3,0.2,0.6,0.4,1,0.4c0.6,0,1.2-0.3,1.5-0.8l0.9,1.2c-0.3,0.4-0.7,0.7-1.1,0.9
		C964.6,10480.5,964,10480.6,963.5,10480.6L963.5,10480.6z M963.3,10474.7c-0.6,0-1,0.4-1.1,1.3h2.1v-0.2c0-0.3-0.1-0.6-0.3-0.9
		C963.8,10474.8,963.6,10474.7,963.3,10474.7z M970.6,10478.4c0-0.2-0.1-0.4-0.3-0.5c-0.3-0.2-0.7-0.3-1-0.4
		c-0.4-0.1-0.9-0.3-1.3-0.5c-0.3-0.2-0.6-0.4-0.8-0.8c-0.2-0.3-0.3-0.7-0.3-1c0-0.7,0.3-1.3,0.8-1.7c0.6-0.5,1.3-0.7,2-0.7
		c0.7,0,1.5,0.2,2.1,0.7c0.5,0.4,0.8,1,0.8,1.7h-2.1c0-0.6-0.3-0.9-0.8-0.9c-0.2,0-0.4,0.1-0.5,0.2c-0.1,0.1-0.2,0.3-0.2,0.5
		c0,0.2,0.1,0.4,0.3,0.5c0.3,0.2,0.6,0.3,0.9,0.3c0.4,0.1,0.7,0.2,1,0.3c0.9,0.2,1.5,1.1,1.5,2.1c0,0.7-0.3,1.3-0.8,1.6
		c-0.6,0.4-1.4,0.7-2.1,0.6c-0.5,0-1-0.1-1.5-0.3c-0.4-0.2-0.8-0.5-1-0.9c-0.2-0.4-0.4-0.8-0.4-1.2h1.9c0,0.3,0.1,0.6,0.3,0.7
		c0.2,0.2,0.5,0.2,0.8,0.2c0.2,0,0.4,0,0.6-0.2C970.5,10478.7,970.6,10478.6,970.6,10478.4L970.6,10478.4z M973.3,10476.7
		c0-0.7,0.1-1.4,0.4-2c0.2-0.6,0.6-1,1.1-1.3c0.5-0.3,1.1-0.5,1.7-0.5c0.9-0.1,1.7,0.3,2.3,1c0.6,0.8,0.9,1.8,0.9,2.8v0.1
		c0,1-0.3,2-0.9,2.7c-0.6,0.7-1.5,1.1-2.3,1c-0.8,0-1.7-0.3-2.3-0.9c-0.6-0.7-0.9-1.6-0.9-2.6L973.3,10476.7z M975.4,10476.8
		c0,0.5,0.1,1,0.3,1.5c0.2,0.3,0.5,0.5,0.9,0.5c0.7,0,1.1-0.6,1.1-1.9v-0.2c0-1.3-0.4-2-1.1-2c-0.7,0-1.1,0.6-1.1,1.7L975.4,10476.8
		z M984.1,10478.4c0-0.2-0.1-0.4-0.3-0.5c-0.3-0.2-0.7-0.3-1-0.4c-0.4-0.1-0.9-0.3-1.3-0.5c-0.3-0.2-0.6-0.4-0.8-0.8
		c-0.2-0.3-0.3-0.7-0.3-1c0-0.7,0.3-1.3,0.8-1.7c0.6-0.5,1.3-0.7,2-0.7c0.7,0,1.5,0.2,2.1,0.7c0.5,0.4,0.8,1,0.8,1.7H984
		c0-0.6-0.3-0.9-0.8-0.9c-0.2,0-0.4,0.1-0.5,0.2c-0.1,0.1-0.2,0.3-0.2,0.5c0,0.2,0.1,0.4,0.3,0.5c0.3,0.2,0.6,0.3,0.9,0.3
		c0.4,0.1,0.7,0.2,1,0.3c0.9,0.2,1.5,1.1,1.5,2.1c0,0.7-0.3,1.3-0.8,1.6c-0.6,0.4-1.4,0.7-2.1,0.6c-0.5,0-1-0.1-1.5-0.3
		c-0.4-0.2-0.8-0.5-1-0.9c-0.2-0.4-0.4-0.8-0.4-1.2h1.9c0,0.3,0.1,0.6,0.3,0.7c0.2,0.2,0.5,0.2,0.8,0.2c0.2,0,0.4,0,0.6-0.2
		C984,10478.7,984.1,10478.6,984.1,10478.4L984.1,10478.4z M989.9,10476.7c0-1,0.2-2,0.7-2.8c0.4-0.7,1.2-1,1.9-1
		c0.6,0,1.1,0.3,1.5,0.8v-3.7h2.1v10.5h-1.9l-0.1-0.8c-0.4,0.6-1,0.9-1.6,0.9c-0.7,0-1.4-0.3-1.9-1
		C990.1,10478.7,989.9,10477.7,989.9,10476.7L989.9,10476.7z M992,10476.8c0,1.3,0.3,2,1,2c0.4,0,0.8-0.2,1-0.6v-2.8
		c-0.2-0.4-0.6-0.7-1-0.7c-0.6,0-1,0.6-1,1.7L992,10476.8z M1000.5,10480.6c-0.9,0-1.8-0.3-2.5-1c-0.6-0.7-1-1.7-0.9-2.6v-0.2
		c0-0.7,0.1-1.4,0.4-2c0.2-0.6,0.6-1,1.1-1.3c0.5-0.3,1.1-0.5,1.7-0.5c0.8,0,1.6,0.3,2.2,1c0.6,0.7,0.9,1.7,0.8,2.7v0.9h-4.1
		c0.1,0.4,0.2,0.7,0.5,1c0.3,0.2,0.6,0.4,1,0.4c0.6,0,1.2-0.3,1.5-0.8l0.9,1.2c-0.3,0.4-0.7,0.7-1.1,0.9
		C1001.5,10480.5,1001,10480.6,1000.5,10480.6L1000.5,10480.6z M1000.2,10474.7c-0.6,0-1,0.4-1.1,1.3h2.1v-0.2
		c0-0.3-0.1-0.6-0.3-0.9C1000.8,10474.8,1000.5,10474.7,1000.2,10474.7z M1009.9,10477.7l1-4.7h2.2l-2.2,7.4h-2.1l-2.2-7.4h2.2
		L1009.9,10477.7z M1017.4,10480.4c-0.1-0.2-0.2-0.4-0.2-0.7c-0.4,0.5-1,0.8-1.6,0.8c-0.6,0-1.2-0.2-1.6-0.6c-0.4-0.4-0.7-1-0.7-1.6
		c0-0.7,0.3-1.4,0.8-1.8c0.7-0.5,1.5-0.7,2.3-0.6h0.6v-0.4c0-0.7-0.3-1-0.8-1c-0.4-0.1-0.7,0.2-0.7,0.6c0,0.1,0,0.1,0,0.2h-2.1
		c0-0.7,0.3-1.4,0.8-1.7c0.6-0.5,1.3-0.7,2.1-0.7c0.7,0,1.4,0.2,2,0.7c0.5,0.5,0.8,1.2,0.8,1.9v3.3c0,0.5,0.1,1.1,0.3,1.6v0.1
		H1017.4z M1016.1,10478.9c0.2,0,0.4-0.1,0.6-0.2c0.2-0.1,0.3-0.2,0.4-0.4v-1.2h-0.6c-0.7,0-1.1,0.4-1.1,1.1c0,0.2,0.1,0.4,0.2,0.5
		C1015.7,10478.9,1015.9,10478.9,1016.1,10478.9L1016.1,10478.9z M1022.5,10480.4h-2.1v-10.5h2.1L1022.5,10480.4z M1023.5,10476.7
		c0-0.7,0.1-1.4,0.4-2c0.2-0.6,0.6-1,1.1-1.3c0.5-0.3,1.1-0.5,1.7-0.5c0.9-0.1,1.7,0.3,2.3,1c0.6,0.8,0.9,1.8,0.9,2.8v0.1
		c0,1-0.3,2-0.9,2.7c-0.6,0.7-1.5,1.1-2.3,1c-0.8,0-1.7-0.3-2.3-0.9c-0.6-0.7-0.9-1.6-0.9-2.6L1023.5,10476.7z M1025.6,10476.8
		c0,0.5,0.1,1,0.3,1.5c0.2,0.3,0.5,0.5,0.9,0.5c0.7,0,1.1-0.6,1.1-1.9v-0.2c0-1.3-0.4-2-1.1-2c-0.7,0-1.1,0.6-1.1,1.7
		L1025.6,10476.8z M1034.8,10475.1l-0.7-0.1c-0.5-0.1-1,0.2-1.3,0.7v4.7h-2.1v-7.4h1.9l0.1,1c0.2-0.7,0.8-1.1,1.5-1.1
		c0.2,0,0.4,0,0.6,0.1L1034.8,10475.1z M1038.8,10480.6c-0.9,0-1.8-0.3-2.5-1c-0.6-0.7-1-1.7-0.9-2.6v-0.2c0-0.7,0.1-1.4,0.4-2
		c0.2-0.6,0.6-1,1.1-1.3c0.5-0.3,1.1-0.5,1.7-0.5c0.8,0,1.6,0.3,2.2,1c0.6,0.7,0.9,1.7,0.8,2.7v0.9h-4.1c0.1,0.4,0.2,0.7,0.5,1
		c0.3,0.2,0.6,0.4,1,0.4c0.6,0,1.2-0.3,1.5-0.8l0.9,1.2c-0.3,0.4-0.7,0.7-1.1,0.9C1039.8,10480.5,1039.3,10480.6,1038.8,10480.6
		L1038.8,10480.6z M1038.6,10474.7c-0.6,0-1,0.4-1.1,1.3h2.1v-0.2c0-0.3-0.1-0.6-0.3-0.9
		C1039.1,10474.8,1038.8,10474.7,1038.6,10474.7L1038.6,10474.7z M1045.9,10478.4c0-0.2-0.1-0.4-0.3-0.5c-0.3-0.2-0.7-0.3-1-0.4
		c-0.4-0.1-0.9-0.3-1.3-0.5c-0.3-0.2-0.6-0.4-0.8-0.8c-0.2-0.3-0.3-0.7-0.3-1c0-0.7,0.3-1.3,0.8-1.7c0.6-0.5,1.3-0.7,2-0.7
		c0.7,0,1.5,0.2,2.1,0.7c0.5,0.4,0.8,1,0.8,1.7h-2.1c0-0.6-0.3-0.9-0.8-0.9c-0.2,0-0.4,0.1-0.5,0.2c-0.1,0.1-0.2,0.3-0.2,0.5
		c0,0.2,0.1,0.4,0.3,0.5c0.3,0.2,0.6,0.3,0.9,0.3c0.4,0.1,0.7,0.2,1,0.3c0.9,0.2,1.5,1.1,1.5,2.1c0,0.7-0.3,1.3-0.8,1.6
		c-0.6,0.5-1.4,0.7-2.1,0.6c-0.5,0-1-0.1-1.5-0.3c-0.4-0.2-0.8-0.5-1-0.9c-0.2-0.4-0.4-0.8-0.4-1.2h1.9c0,0.3,0.1,0.6,0.3,0.7
		c0.2,0.2,0.5,0.2,0.8,0.2c0.2,0,0.4,0,0.6-0.2C1045.8,10478.7,1045.9,10478.6,1045.9,10478.4z M941.5,10496.1l-0.7-0.1
		c-0.5-0.1-1,0.2-1.3,0.7v4.7h-2.1v-7.4h1.9l0.1,0.9c0.2-0.7,0.8-1.1,1.5-1.1c0.2,0,0.4,0,0.6,0.1L941.5,10496.1z M945.4,10501.6
		c-0.9,0-1.8-0.3-2.5-1c-0.6-0.7-1-1.7-0.9-2.6v-0.2c0-0.7,0.1-1.4,0.4-2c0.2-0.6,0.6-1,1.1-1.3c0.5-0.3,1.1-0.5,1.7-0.5
		c0.8,0,1.6,0.3,2.2,1c0.6,0.7,0.9,1.7,0.8,2.7v0.9h-4.1c0.1,0.4,0.2,0.7,0.5,1c0.3,0.2,0.6,0.4,1,0.4c0.6,0,1.2-0.3,1.5-0.8
		l0.9,1.2c-0.3,0.4-0.7,0.7-1.1,0.9C946.5,10501.4,945.9,10501.6,945.4,10501.6L945.4,10501.6z M945.2,10495.7c-0.6,0-1,0.4-1.1,1.3
		h2.1v-0.2c0-0.3-0.1-0.6-0.3-0.9C945.7,10495.8,945.5,10495.6,945.2,10495.7z M955.2,10497.8c0,1-0.2,1.9-0.7,2.7
		c-0.4,0.7-1.1,1.1-1.9,1c-0.6,0-1.1-0.3-1.5-0.7v3.4h-2.1v-10.2h1.9l0.1,0.7c0.4-0.5,1-0.8,1.6-0.8c0.7,0,1.5,0.3,1.9,1
		c0.5,0.8,0.7,1.8,0.7,2.8L955.2,10497.8z M953.1,10497.6c0-1.3-0.3-2-1-2c-0.4-0.1-0.8,0.2-1,0.6v2.9c0.2,0.4,0.6,0.7,1,0.6
		c0.7,0,1-0.6,1-1.9V10497.6z M960.1,10496.1l-0.7-0.1c-0.5-0.1-1,0.2-1.3,0.7v4.7h-2.1v-7.4h1.9l0.1,0.9c0.2-0.7,0.8-1.1,1.5-1.1
		c0.2,0,0.4,0,0.6,0.1L960.1,10496.1z M964.1,10501.6c-0.9,0-1.8-0.3-2.5-1c-0.6-0.7-1-1.7-0.9-2.6v-0.2c0-0.7,0.1-1.4,0.4-2
		c0.2-0.6,0.6-1,1.1-1.3c0.5-0.3,1.1-0.5,1.7-0.5c0.8,0,1.6,0.3,2.2,1c0.6,0.7,0.9,1.7,0.8,2.7v0.9h-4.1c0.1,0.4,0.2,0.7,0.5,1
		c0.3,0.2,0.6,0.4,1,0.4c0.6,0,1.2-0.3,1.5-0.8l0.9,1.2c-0.3,0.4-0.7,0.7-1.1,0.9C965.1,10501.4,964.6,10501.6,964.1,10501.6
		L964.1,10501.6z M963.9,10495.7c-0.6,0-1,0.4-1.1,1.3h2.1v-0.2c0-0.3-0.1-0.6-0.3-0.9C964.4,10495.8,964.1,10495.6,963.9,10495.7z
		 M971.2,10499.3c0-0.2-0.1-0.4-0.3-0.5c-0.3-0.2-0.7-0.3-1-0.4c-0.4-0.1-0.9-0.3-1.3-0.5c-0.3-0.2-0.6-0.4-0.8-0.8
		c-0.2-0.3-0.3-0.7-0.3-1c0-0.7,0.3-1.3,0.8-1.7c0.6-0.5,1.3-0.7,2-0.7c0.7,0,1.5,0.2,2.1,0.7c0.5,0.4,0.8,1,0.8,1.7h-2.1
		c0-0.6-0.3-0.9-0.8-0.9c-0.2,0-0.4,0.1-0.5,0.2c-0.1,0.1-0.2,0.3-0.2,0.5c0,0.2,0.1,0.4,0.3,0.5c0.3,0.2,0.6,0.3,0.9,0.3
		c0.4,0.1,0.7,0.2,1,0.3c0.9,0.2,1.5,1.1,1.5,2.1c0,0.7-0.3,1.3-0.8,1.6c-0.6,0.5-1.4,0.7-2.1,0.6c-0.5,0-1-0.1-1.5-0.3
		c-0.4-0.2-0.8-0.5-1-0.9c-0.2-0.4-0.4-0.8-0.4-1.2h1.9c0,0.3,0.1,0.6,0.3,0.7c0.2,0.2,0.5,0.2,0.8,0.2c0.2,0,0.4,0,0.6-0.2
		C971.1,10499.7,971.2,10499.5,971.2,10499.3L971.2,10499.3z M977.4,10501.6c-0.9,0-1.8-0.3-2.5-1c-0.6-0.7-1-1.7-0.9-2.6v-0.2
		c0-0.7,0.1-1.4,0.4-2c0.2-0.6,0.6-1,1.1-1.3c0.5-0.3,1.1-0.5,1.7-0.5c0.8,0,1.6,0.3,2.2,1c0.6,0.7,0.9,1.7,0.8,2.7v0.9h-4.1
		c0.1,0.4,0.2,0.7,0.5,1c0.3,0.2,0.6,0.4,1,0.4c0.6,0,1.2-0.3,1.5-0.8l0.9,1.2c-0.3,0.4-0.7,0.7-1.1,0.9
		C978.4,10501.4,977.9,10501.6,977.4,10501.6L977.4,10501.6z M977.1,10495.7c-0.6,0-1,0.4-1.1,1.3h2.1v-0.2c0-0.3-0.1-0.6-0.3-0.9
		C977.7,10495.8,977.4,10495.6,977.1,10495.7z M982.9,10494l0.1,0.9c0.4-0.7,1.2-1,1.9-1c0.6,0,1.2,0.2,1.5,0.7
		c0.4,0.6,0.6,1.3,0.5,2.1v4.8h-2.1v-4.7c0-0.3,0-0.6-0.2-0.8c-0.2-0.2-0.5-0.3-0.7-0.3c-0.4,0-0.7,0.2-0.9,0.5v5.2H981v-7.4
		L982.9,10494z M990.5,10492.2v1.8h1.1v1.6h-1.1v3.4c0,0.2,0,0.4,0.1,0.6c0.2,0.1,0.3,0.2,0.5,0.2c0.2,0,0.3,0,0.5,0v1.6
		c-0.4,0.1-0.8,0.2-1.2,0.2c-0.6,0.1-1.1-0.1-1.6-0.6c-0.4-0.5-0.6-1.1-0.5-1.7v-3.7h-0.8v-1.6h0.8v-1.8L990.5,10492.2z
		 M996.1,10501.4c-0.1-0.2-0.2-0.4-0.2-0.7c-0.4,0.5-1,0.8-1.6,0.8c-0.6,0-1.2-0.2-1.6-0.6c-0.4-0.4-0.7-1-0.7-1.6
		c0-0.7,0.3-1.4,0.8-1.8c0.7-0.5,1.5-0.7,2.3-0.6h0.6v-0.4c0-0.7-0.3-1-0.8-1c-0.4-0.1-0.7,0.2-0.7,0.6c0,0.1,0,0.1,0,0.2h-2.1
		c0-0.7,0.3-1.4,0.8-1.7c0.6-0.5,1.3-0.7,2.1-0.7c0.7,0,1.4,0.2,2,0.7c0.5,0.5,0.8,1.2,0.8,1.9v3.3c0,0.5,0.1,1.1,0.3,1.6v0.1H996.1
		z M994.8,10499.9c0.2,0,0.4-0.1,0.6-0.2c0.2-0.1,0.3-0.2,0.4-0.4v-1.2h-0.6c-0.7,0-1.1,0.4-1.1,1.1c0,0.2,0.1,0.4,0.2,0.5
		C994.5,10499.9,994.7,10499.9,994.8,10499.9z M1001.5,10492.2v1.8h1.1v1.6h-1.1v3.4c0,0.2,0,0.4,0.1,0.6c0.2,0.1,0.3,0.2,0.5,0.2
		c0.2,0,0.3,0,0.5,0v1.6c-0.4,0.1-0.8,0.2-1.2,0.2c-0.6,0.1-1.1-0.1-1.6-0.6c-0.4-0.5-0.6-1.1-0.5-1.7v-3.7h-0.8v-1.6h0.8v-1.8
		H1001.5z M1005.6,10501.4h-2.1v-7.4h2.1V10501.4z M1003.4,10492.1c0-0.3,0.1-0.6,0.3-0.8c0.5-0.4,1.2-0.4,1.7,0
		c0.4,0.4,0.4,1.1,0.1,1.5c0,0,0,0-0.1,0.1c-0.5,0.4-1.2,0.4-1.7,0C1003.5,10492.7,1003.4,10492.4,1003.4,10492.1z M1009.5,10498.7
		l1-4.7h2.2l-2.2,7.4h-2.1l-2.2-7.4h2.2L1009.5,10498.7z M1013,10497.7c0-0.7,0.1-1.4,0.4-2c0.2-0.6,0.6-1,1.1-1.3
		c0.5-0.3,1.1-0.5,1.7-0.5c0.9-0.1,1.7,0.3,2.3,1c0.6,0.8,0.9,1.8,0.9,2.8v0.1c0,1-0.3,2-0.9,2.7c-0.6,0.7-1.5,1.1-2.3,1
		c-0.8,0-1.7-0.3-2.3-0.9c-0.6-0.7-0.9-1.6-0.9-2.6L1013,10497.7z M1015,10497.8c0,0.5,0.1,1,0.3,1.5c0.2,0.3,0.5,0.5,0.9,0.5
		c0.7,0,1.1-0.6,1.1-1.9v-0.2c0-1.3-0.4-2-1.1-2c-0.7,0-1.1,0.6-1.1,1.7L1015,10497.8z M1023.8,10499.3c0-0.2-0.1-0.4-0.3-0.5
		c-0.3-0.2-0.7-0.3-1-0.4c-0.4-0.1-0.9-0.3-1.3-0.5c-0.3-0.2-0.6-0.4-0.8-0.8c-0.2-0.3-0.3-0.7-0.3-1c0-0.7,0.3-1.3,0.8-1.7
		c0.6-0.5,1.3-0.7,2-0.7c0.7,0,1.5,0.2,2.1,0.7c0.5,0.4,0.8,1,0.8,1.7h-2.1c0-0.6-0.3-0.9-0.8-0.9c-0.2,0-0.4,0.1-0.5,0.2
		c-0.1,0.1-0.2,0.3-0.2,0.5c0,0.2,0.1,0.4,0.3,0.5c0.3,0.2,0.6,0.3,0.9,0.3c0.4,0.1,0.7,0.2,1,0.3c0.9,0.2,1.5,1.1,1.5,2.1
		c0,0.7-0.3,1.3-0.8,1.6c-0.6,0.4-1.4,0.7-2.1,0.6c-0.5,0-1-0.1-1.5-0.3c-0.4-0.2-0.8-0.5-1-0.9c-0.2-0.4-0.4-0.8-0.4-1.2h1.9
		c0,0.3,0.1,0.6,0.3,0.7c0.2,0.2,0.5,0.2,0.8,0.2c0.2,0,0.4,0,0.6-0.2C1023.7,10499.7,1023.8,10499.5,1023.8,10499.3L1023.8,10499.3
		z M1029.6,10497.7c0-1,0.2-2,0.7-2.8c0.4-0.7,1.2-1,1.9-1c0.6,0,1.1,0.3,1.5,0.8v-3.7h2.1v10.5h-1.9l-0.1-0.8
		c-0.4,0.6-1,0.9-1.6,0.9c-0.7,0-1.4-0.3-1.9-1C1029.8,10499.7,1029.5,10498.7,1029.6,10497.7L1029.6,10497.7z M1031.7,10497.8
		c0,1.3,0.3,2,1,2c0.4,0,0.8-0.2,1-0.6v-2.8c-0.2-0.4-0.6-0.7-1-0.7c-0.6,0-1,0.6-1,1.7L1031.7,10497.8z M1040.1,10501.6
		c-0.9,0-1.8-0.3-2.5-1c-0.6-0.7-1-1.7-0.9-2.6v-0.2c0-0.7,0.1-1.4,0.4-2c0.2-0.6,0.6-1,1.1-1.3c0.5-0.3,1.1-0.5,1.7-0.5
		c0.8,0,1.6,0.3,2.2,1c0.6,0.7,0.9,1.7,0.8,2.7v0.9h-4.1c0.1,0.4,0.2,0.7,0.5,1c0.3,0.2,0.6,0.4,1,0.4c0.6,0,1.2-0.3,1.5-0.8
		l0.9,1.2c-0.3,0.4-0.7,0.7-1.1,0.9C1041.2,10501.4,1040.7,10501.6,1040.1,10501.6L1040.1,10501.6z M1039.9,10495.7
		c-0.6,0-1,0.4-1.1,1.3h2.1v-0.2c0-0.3-0.1-0.6-0.3-0.9C1040.4,10495.8,1040.2,10495.6,1039.9,10495.7z M937.2,10518.6
		c0-1,0.2-2,0.7-2.8c0.4-0.7,1.2-1,1.9-1c0.6,0,1.1,0.3,1.5,0.8v-3.7h2.1v10.5h-1.9l-0.1-0.8c-0.4,0.6-1,0.9-1.6,0.9
		c-0.7,0-1.4-0.3-1.9-1C937.4,10520.7,937.1,10519.7,937.2,10518.6z M939.2,10518.8c0,1.3,0.3,2,1,2c0.4,0,0.8-0.2,1-0.6v-2.8
		c-0.2-0.4-0.6-0.7-1-0.7c-0.6,0-1,0.6-1,1.7L939.2,10518.8z M947.7,10522.5c-0.9,0-1.8-0.3-2.5-1c-0.6-0.7-1-1.7-0.9-2.6v-0.2
		c0-0.7,0.1-1.4,0.4-2c0.2-0.6,0.6-1,1.1-1.3c0.5-0.3,1.1-0.5,1.7-0.5c0.8,0,1.6,0.3,2.2,1c0.6,0.7,0.9,1.7,0.8,2.7v0.9h-4.1
		c0.1,0.4,0.2,0.7,0.5,1c0.3,0.2,0.6,0.4,1,0.4c0.6,0,1.2-0.3,1.5-0.8l0.9,1.2c-0.3,0.4-0.7,0.7-1.1,0.9
		C948.8,10522.4,948.2,10522.5,947.7,10522.5z M947.5,10516.6c-0.6,0-1,0.4-1.1,1.3h2.1v-0.2c0-0.3-0.1-0.6-0.3-0.9
		C948,10516.7,947.8,10516.6,947.5,10516.6z M955.3,10521.6c-0.4,0.6-1.1,1-1.8,0.9c-0.6,0-1.2-0.2-1.7-0.7c-0.4-0.6-0.6-1.3-0.6-2
		v-4.8h2.1v4.8c-0.1,0.5,0.2,0.9,0.6,0.9c0.1,0,0.1,0,0.2,0c0.4,0,0.8-0.2,1-0.6v-5.2h2.1v7.4h-1.9L955.3,10521.6z M958.2,10518.6
		c0-1,0.2-2,0.7-2.8c0.4-0.7,1.2-1,1.9-1c0.6,0,1.1,0.3,1.5,0.8v-3.7h2.1v10.5h-1.9l-0.1-0.8c-0.4,0.6-1,0.9-1.6,0.9
		c-0.7,0-1.4-0.3-1.9-1C958.4,10520.7,958.1,10519.7,958.2,10518.6L958.2,10518.6z M960.2,10518.8c0,1.3,0.3,2,1,2
		c0.4,0,0.8-0.2,1-0.6v-2.8c-0.2-0.4-0.6-0.7-1-0.7c-0.6,0-1,0.6-1,1.7L960.2,10518.8z M969.2,10522.4c-0.1-0.2-0.2-0.4-0.2-0.7
		c-0.4,0.5-1,0.8-1.6,0.8c-0.6,0-1.2-0.2-1.6-0.6c-0.4-0.4-0.7-1-0.7-1.6c0-0.7,0.3-1.4,0.8-1.8c0.7-0.5,1.5-0.7,2.3-0.6h0.6v-0.4
		c0-0.7-0.3-1-0.8-1c-0.4-0.1-0.7,0.2-0.7,0.6c0,0.1,0,0.1,0,0.2h-2.1c0-0.7,0.3-1.4,0.8-1.7c0.6-0.5,1.3-0.7,2.1-0.7
		c0.7,0,1.4,0.2,2,0.7c0.5,0.5,0.8,1.2,0.8,1.9v3.3c0,0.5,0.1,1.1,0.3,1.6v0.1H969.2z M967.9,10520.9c0.2,0,0.4-0.1,0.6-0.2
		c0.2-0.1,0.3-0.2,0.4-0.4v-1.2h-0.6c-0.7,0-1.1,0.4-1.1,1.1c0,0.2,0.1,0.4,0.2,0.5C967.6,10520.8,967.8,10520.9,967.9,10520.9
		L967.9,10520.9z"/>
	<path id="Trazado_102761" class="st2" d="M937.5,10432.3v-9.9h3.2c0.9-0.1,1.8,0.2,2.6,0.7c0.6,0.5,0.9,1.2,0.9,2
		c0,0.5-0.1,0.9-0.3,1.3c-0.2,0.4-0.6,0.7-0.9,0.8c0.4,0.1,0.8,0.4,1.1,0.8c0.3,0.4,0.4,0.9,0.4,1.4c0.1,0.8-0.3,1.7-0.8,2.2
		c-0.7,0.5-1.6,0.8-2.5,0.7H937.5z M939.7,10428v2.4h1.4c0.3,0,0.6-0.1,0.9-0.3c0.2-0.2,0.3-0.5,0.3-0.8c0.1-0.6-0.3-1.2-0.8-1.2
		c-0.1,0-0.2,0-0.3,0H939.7z M939.7,10426.5h1.1c0.4,0,0.7-0.1,1-0.3c0.2-0.2,0.3-0.5,0.3-0.8c0-0.3-0.1-0.7-0.3-0.9
		c-0.3-0.2-0.7-0.3-1-0.3h-1.1V10426.5z M949.3,10432.3c-0.1-0.2-0.2-0.4-0.2-0.7c-0.4,0.5-1,0.8-1.6,0.8c-0.6,0-1.2-0.2-1.6-0.6
		c-0.4-0.4-0.7-1-0.7-1.6c0-0.7,0.3-1.4,0.8-1.8c0.7-0.5,1.5-0.7,2.3-0.6h0.6v-0.4c0-0.7-0.3-1-0.8-1c-0.4-0.1-0.7,0.2-0.7,0.6
		c0,0.1,0,0.1,0,0.2h-2.1c0-0.7,0.3-1.4,0.8-1.7c0.6-0.5,1.3-0.7,2.1-0.7c0.7,0,1.4,0.2,2,0.7c0.5,0.5,0.8,1.2,0.8,1.9v3.3
		c0,0.5,0.1,1.1,0.3,1.6v0.1H949.3z M948,10430.8c0.2,0,0.4-0.1,0.6-0.2c0.2-0.1,0.3-0.2,0.4-0.4v-1.2h-0.6c-0.7,0-1.1,0.4-1.1,1.1
		c0,0.2,0.1,0.4,0.2,0.5C947.6,10430.7,947.8,10430.8,948,10430.8L948,10430.8z M954.1,10424.9l0.1,0.9c0.4-0.7,1.2-1,1.9-1
		c0.6,0,1.2,0.2,1.5,0.7c0.4,0.6,0.6,1.3,0.5,2.1v4.8h-2.1v-4.7c0-0.3,0-0.6-0.2-0.8c-0.2-0.2-0.5-0.3-0.7-0.3
		c-0.4,0-0.7,0.2-0.9,0.5v5.2h-2.1v-7.4H954.1z M962.1,10430.6c0.2,0,0.5-0.1,0.7-0.3c0.2-0.2,0.3-0.5,0.2-0.7h1.9
		c0,0.8-0.3,1.5-0.8,2c-0.6,0.5-1.3,0.8-2,0.8c-0.9,0-1.7-0.3-2.3-1c-0.6-0.8-0.9-1.8-0.8-2.8v-0.1c0-0.7,0.1-1.4,0.4-2
		c0.2-0.6,0.6-1,1.1-1.3c0.5-0.3,1.1-0.5,1.7-0.5c0.8,0,1.5,0.2,2.1,0.8c0.5,0.6,0.8,1.4,0.8,2.2H963c0-0.3-0.1-0.6-0.3-0.9
		c-0.2-0.2-0.4-0.3-0.7-0.3c-0.5,0-0.8,0.4-0.9,1.1c0,0.3,0,0.7,0,1c0,0.5,0,1.1,0.2,1.5C961.5,10430.5,961.8,10430.7,962.1,10430.6
		L962.1,10430.6z M965.6,10428.5c0-0.7,0.1-1.4,0.4-2c0.2-0.6,0.6-1,1.1-1.3c0.5-0.3,1.1-0.5,1.7-0.5c0.9-0.1,1.7,0.3,2.3,1
		c0.6,0.8,0.9,1.8,0.9,2.8v0.1c0,1-0.3,2-0.9,2.7c-0.6,0.7-1.5,1.1-2.3,1c-0.8,0-1.7-0.3-2.3-0.9c-0.6-0.7-0.9-1.6-0.9-2.6
		L965.6,10428.5z M967.6,10428.7c0,0.5,0.1,1,0.3,1.5c0.2,0.3,0.5,0.5,0.9,0.5c0.7,0,1.1-0.6,1.1-1.9v-0.2c0-1.3-0.4-2-1.1-2
		c-0.7,0-1.1,0.6-1.1,1.7L967.6,10428.7z M976.4,10430.2c0-0.2-0.1-0.4-0.3-0.5c-0.3-0.2-0.7-0.3-1-0.4c-0.4-0.1-0.9-0.3-1.3-0.5
		c-0.3-0.2-0.6-0.4-0.8-0.8c-0.2-0.3-0.3-0.7-0.3-1c0-0.7,0.3-1.3,0.8-1.7c0.6-0.5,1.3-0.7,2-0.7c0.7,0,1.5,0.2,2.1,0.7
		c0.5,0.4,0.8,1,0.8,1.7h-2.1c0-0.6-0.3-0.9-0.8-0.9c-0.2,0-0.4,0.1-0.5,0.2c-0.1,0.1-0.2,0.3-0.2,0.5c0,0.2,0.1,0.4,0.3,0.5
		c0.3,0.2,0.6,0.3,0.9,0.3c0.4,0.1,0.7,0.2,1,0.3c0.9,0.2,1.5,1.1,1.5,2.1c0,0.7-0.3,1.3-0.8,1.6c-0.6,0.5-1.4,0.7-2.1,0.6
		c-0.5,0-1-0.1-1.5-0.3c-0.4-0.2-0.8-0.5-1-0.9c-0.2-0.4-0.4-0.8-0.4-1.2h1.9c0,0.3,0.1,0.6,0.3,0.7c0.2,0.2,0.5,0.2,0.8,0.2
		c0.2,0,0.4,0,0.6-0.2C976.3,10430.6,976.4,10430.4,976.4,10430.2L976.4,10430.2z"/>
	<path id="Trazado_102762" class="st2" d="M1094.4,10432.3h-1v-7.5l-2,0.8v-1l2.9-1.2h0.2V10432.3z M1102.3,10428.5
		c0.1,1-0.1,2-0.6,2.9c-0.4,0.7-1.2,1-1.9,1c-0.7,0.1-1.4-0.3-1.9-0.9c-0.5-0.8-0.7-1.8-0.6-2.8v-1.5c-0.1-1,0.1-2,0.6-2.9
		c0.4-0.7,1.2-1,1.9-0.9c0.7-0.1,1.4,0.3,1.9,0.9c0.5,0.8,0.7,1.8,0.6,2.8L1102.3,10428.5z M1101.3,10427c0-0.7-0.1-1.4-0.4-2.1
		c-0.2-0.4-0.7-0.7-1.1-0.7c-0.5,0-0.9,0.2-1.1,0.6c-0.3,0.6-0.4,1.3-0.4,2v1.8c0,0.7,0.1,1.5,0.4,2.1c0.2,0.4,0.7,0.7,1.1,0.7
		c0.4,0,0.9-0.2,1.1-0.6c0.3-0.6,0.4-1.3,0.4-2L1101.3,10427z M1103.7,10431.7c0-0.2,0.1-0.4,0.2-0.5c0.1-0.1,0.3-0.2,0.5-0.2
		c0.2,0,0.3,0.1,0.5,0.2c0.1,0.1,0.2,0.3,0.2,0.5c0,0.2-0.1,0.3-0.2,0.5c-0.1,0.1-0.3,0.2-0.5,0.2c-0.3,0-0.6-0.2-0.6-0.5
		C1103.7,10431.8,1103.7,10431.7,1103.7,10431.7L1103.7,10431.7z M1110.4,10428.4c-0.2,0.3-0.5,0.5-0.8,0.7c-0.3,0.2-0.6,0.3-1,0.3
		c-0.4,0-0.8-0.1-1.2-0.4c-0.3-0.3-0.6-0.6-0.8-1.1c-0.2-0.5-0.3-1-0.3-1.5c0-0.6,0.1-1.1,0.3-1.6c0.2-0.4,0.5-0.8,0.9-1.1
		c0.4-0.3,0.8-0.4,1.3-0.4c0.7,0,1.4,0.3,1.9,1c0.5,0.8,0.7,1.7,0.7,2.7v0.3c0,1.7-0.3,3-0.9,3.8c-0.7,0.8-1.7,1.3-2.8,1.2h-0.2v-1
		h0.2c0.7,0,1.4-0.2,1.9-0.7C1110.2,10430,1110.4,10429.2,1110.4,10428.4z M1108.9,10428.4c0.3,0,0.7-0.1,0.9-0.3
		c0.3-0.2,0.5-0.5,0.6-0.9v-0.5c0-0.6-0.1-1.3-0.4-1.8c-0.4-0.7-1.2-0.9-1.8-0.5c-0.1,0.1-0.2,0.2-0.3,0.3c-0.3,0.4-0.4,1-0.4,1.5
		c0,0.5,0.1,1.1,0.4,1.5C1108.1,10428.2,1108.5,10428.4,1108.9,10428.4L1108.9,10428.4z M1118,10432.3h-5.2v-0.8l2.7-3.4
		c0.3-0.4,0.6-0.8,0.8-1.3c0.2-0.3,0.2-0.6,0.2-1c0-0.4-0.1-0.8-0.4-1.1c-0.3-0.3-0.6-0.5-1-0.4c-0.4,0-0.9,0.1-1.2,0.5
		c-0.3,0.4-0.4,0.8-0.4,1.3h-1c0-0.7,0.2-1.5,0.7-2c0.5-0.5,1.2-0.8,1.9-0.8c0.6,0,1.3,0.2,1.8,0.6c0.4,0.4,0.7,1.1,0.6,1.7
		c0,0.9-0.5,1.9-1.5,3.1l-2.1,2.6h4L1118,10432.3z M1124.1,10428.5c0.1,1-0.1,2-0.6,2.9c-0.4,0.7-1.2,1-1.9,1
		c-0.7,0.1-1.4-0.3-1.9-0.9c-0.5-0.8-0.7-1.8-0.6-2.8v-1.5c-0.1-1,0.1-2,0.6-2.9c0.4-0.7,1.2-1,1.9-0.9c0.7-0.1,1.4,0.3,1.9,0.9
		c0.5,0.8,0.7,1.8,0.6,2.8L1124.1,10428.5z M1123.1,10427c0-0.7-0.1-1.4-0.4-2.1c-0.2-0.4-0.7-0.7-1.1-0.7c-0.5,0-0.9,0.2-1.1,0.6
		c-0.3,0.6-0.4,1.3-0.4,2v1.8c0,0.7,0.1,1.5,0.4,2.1c0.2,0.4,0.7,0.7,1.1,0.7c0.4,0,0.9-0.2,1.1-0.6c0.3-0.6,0.4-1.3,0.4-2
		L1123.1,10427z M1125.4,10434l-0.6-0.4c0.3-0.5,0.5-1,0.5-1.6v-1h1v0.9c0,0.4-0.1,0.8-0.3,1.2
		C1126,10433.4,1125.7,10433.8,1125.4,10434L1125.4,10434z M1132.5,10428.5c0.1,1-0.1,2-0.6,2.9c-0.9,1.2-2.5,1.3-3.5,0.3
		c-0.1-0.1-0.2-0.2-0.2-0.3c-0.5-0.8-0.7-1.8-0.6-2.8v-1.5c-0.1-1,0.1-2,0.6-2.9c0.9-1.2,2.6-1.3,3.6-0.2c0.1,0.1,0.1,0.1,0.2,0.2
		c0.5,0.8,0.7,1.8,0.6,2.8L1132.5,10428.5z M1131.5,10427c0-0.7-0.1-1.4-0.4-2.1c-0.2-0.4-0.7-0.7-1.1-0.7c-0.5,0-0.9,0.2-1.1,0.6
		c-0.3,0.6-0.4,1.3-0.4,2v1.8c0,0.7,0.1,1.5,0.4,2.1c0.2,0.4,0.7,0.7,1.1,0.7c0.4,0,0.9-0.2,1.1-0.6c0.3-0.6,0.4-1.3,0.4-2
		L1131.5,10427z M1138.8,10428.5c0.1,1-0.1,2-0.6,2.9c-0.9,1.2-2.5,1.3-3.5,0.3c-0.1-0.1-0.2-0.2-0.2-0.3c-0.5-0.8-0.7-1.8-0.6-2.8
		v-1.5c-0.1-1,0.1-2,0.6-2.9c0.9-1.2,2.6-1.3,3.6-0.2c0.1,0.1,0.1,0.1,0.2,0.2c0.5,0.8,0.7,1.8,0.6,2.8L1138.8,10428.5z
		 M1137.8,10427c0-0.7-0.1-1.4-0.4-2.1c-0.2-0.4-0.7-0.7-1.1-0.7c-0.5,0-0.9,0.2-1.1,0.6c-0.3,0.6-0.4,1.3-0.4,2v1.8
		c0,0.7,0.1,1.5,0.4,2.1c0.2,0.4,0.7,0.7,1.1,0.7c0.4,0,0.9-0.2,1.1-0.6c0.3-0.6,0.4-1.3,0.4-2L1137.8,10427z"/>
	<path id="Trazado_102764" class="st2" d="M1226.4,10505.1h-1v-7.5l-2,0.8v-1l2.9-1.2h0.2V10505.1z M1234.3,10501.3
		c0.1,1-0.1,2-0.6,2.9c-0.4,0.7-1.2,1-1.9,1c-0.7,0.1-1.4-0.3-1.9-0.9c-0.5-0.8-0.7-1.8-0.6-2.8v-1.5c-0.1-1,0.1-2,0.6-2.9
		c0.4-0.7,1.2-1,1.9-0.9c0.7-0.1,1.4,0.3,1.9,0.9c0.5,0.8,0.7,1.8,0.6,2.8L1234.3,10501.3z M1233.3,10499.8c0-0.7-0.1-1.4-0.4-2.1
		c-0.2-0.4-0.7-0.7-1.1-0.7c-0.5,0-0.9,0.2-1.1,0.6c-0.3,0.6-0.4,1.3-0.4,2v1.8c0,0.7,0.1,1.5,0.4,2.1c0.2,0.4,0.7,0.7,1.1,0.7
		c0.4,0,0.9-0.2,1.1-0.6c0.3-0.6,0.4-1.3,0.4-2L1233.3,10499.8z M1235.7,10504.5c0-0.2,0.1-0.4,0.2-0.5c0.1-0.1,0.3-0.2,0.5-0.2
		c0.2,0,0.3,0.1,0.5,0.2c0.1,0.1,0.2,0.3,0.2,0.5c0,0.2-0.1,0.3-0.2,0.5c-0.1,0.1-0.3,0.2-0.5,0.2c-0.3,0-0.6-0.2-0.6-0.5
		C1235.7,10504.6,1235.7,10504.5,1235.7,10504.5L1235.7,10504.5z M1242.4,10501.2c-0.2,0.3-0.5,0.5-0.8,0.7c-0.3,0.2-0.6,0.3-1,0.3
		c-0.4,0-0.8-0.1-1.2-0.4c-0.3-0.3-0.6-0.6-0.8-1.1c-0.2-0.5-0.3-1-0.3-1.5c0-0.5,0.1-1.1,0.3-1.6c0.2-0.5,0.5-0.8,0.9-1.1
		c0.4-0.3,0.8-0.4,1.3-0.4c0.7,0,1.4,0.3,1.9,1c0.5,0.8,0.7,1.7,0.7,2.7v0.3c0,1.7-0.3,3-0.9,3.8c-0.7,0.8-1.7,1.3-2.8,1.2h-0.2v-1
		h0.2c0.7,0,1.4-0.2,1.9-0.7C1242.1,10502.8,1242.4,10502,1242.4,10501.2z M1240.8,10501.2c0.3,0,0.7-0.1,0.9-0.3
		c0.3-0.2,0.5-0.5,0.6-0.9v-0.5c0-0.6-0.1-1.3-0.4-1.8c-0.4-0.7-1.2-0.9-1.8-0.5c-0.1,0.1-0.2,0.2-0.3,0.3c-0.3,0.4-0.4,1-0.4,1.5
		c0,0.5,0.1,1.1,0.4,1.5C1240,10501,1240.4,10501.2,1240.8,10501.2L1240.8,10501.2z M1250,10505.1h-5.2v-0.8l2.7-3.4
		c0.3-0.4,0.6-0.8,0.8-1.3c0.2-0.3,0.2-0.6,0.2-1c0-0.4-0.1-0.8-0.4-1.1c-0.3-0.3-0.6-0.5-1-0.4c-0.4,0-0.9,0.1-1.2,0.5
		c-0.3,0.4-0.4,0.8-0.4,1.3h-1c0-0.7,0.2-1.5,0.7-2c0.5-0.5,1.2-0.8,1.9-0.8c0.6,0,1.3,0.2,1.8,0.6c0.4,0.4,0.7,1.1,0.6,1.7
		c0,0.9-0.5,1.9-1.5,3.1l-2.1,2.6h4L1250,10505.1z M1256,10501.3c0.1,1-0.1,2-0.6,2.9c-0.4,0.7-1.2,1-1.9,1
		c-0.7,0.1-1.4-0.3-1.9-0.9c-0.5-0.8-0.7-1.8-0.6-2.8v-1.5c-0.1-1,0.1-2,0.6-2.9c0.4-0.7,1.2-1,1.9-0.9c0.7-0.1,1.4,0.3,1.9,0.9
		c0.5,0.8,0.7,1.8,0.6,2.8L1256,10501.3z M1255,10499.8c0-0.7-0.1-1.4-0.4-2.1c-0.2-0.4-0.7-0.7-1.1-0.7c-0.5,0-0.9,0.2-1.1,0.6
		c-0.3,0.6-0.4,1.3-0.4,2v1.8c0,0.7,0.1,1.5,0.4,2.1c0.2,0.4,0.7,0.7,1.1,0.7c0.4,0,0.9-0.2,1.1-0.6c0.3-0.6,0.4-1.3,0.4-2
		L1255,10499.8z M1257.4,10506.8l-0.6-0.4c0.3-0.5,0.5-1,0.5-1.6v-1h1v0.9c0,0.4-0.1,0.8-0.3,1.2
		C1257.9,10506.2,1257.7,10506.6,1257.4,10506.8L1257.4,10506.8z M1264.5,10501.3c0.1,1-0.1,2-0.6,2.9c-0.9,1.2-2.5,1.3-3.5,0.3
		c-0.1-0.1-0.2-0.2-0.2-0.3c-0.5-0.8-0.7-1.8-0.6-2.8v-1.5c-0.1-1,0.1-2,0.6-2.9c0.9-1.2,2.6-1.3,3.6-0.2c0.1,0.1,0.1,0.1,0.2,0.2
		c0.5,0.8,0.7,1.8,0.6,2.8L1264.5,10501.3z M1263.5,10499.8c0-0.7-0.1-1.4-0.4-2.1c-0.2-0.4-0.7-0.7-1.1-0.7c-0.5,0-0.9,0.2-1.1,0.6
		c-0.3,0.6-0.4,1.3-0.4,2v1.8c0,0.7,0.1,1.5,0.4,2.1c0.2,0.4,0.7,0.7,1.1,0.7c0.4,0,0.9-0.2,1.1-0.6c0.3-0.6,0.4-1.3,0.4-2
		L1263.5,10499.8z M1270.8,10501.3c0.1,1-0.1,2-0.6,2.9c-0.9,1.2-2.5,1.3-3.5,0.3c-0.1-0.1-0.2-0.2-0.2-0.3
		c-0.5-0.8-0.7-1.8-0.6-2.8v-1.5c-0.1-1,0.1-2,0.6-2.9c0.9-1.2,2.6-1.3,3.6-0.2c0.1,0.1,0.1,0.1,0.2,0.2c0.5,0.8,0.7,1.8,0.6,2.8
		L1270.8,10501.3z M1269.8,10499.8c0-0.7-0.1-1.4-0.4-2.1c-0.2-0.4-0.7-0.7-1.1-0.7c-0.5,0-0.9,0.2-1.1,0.6c-0.3,0.6-0.4,1.3-0.4,2
		v1.8c0,0.7,0.1,1.5,0.4,2.1c0.2,0.4,0.7,0.7,1.1,0.7c0.4,0,0.9-0.2,1.1-0.6c0.3-0.6,0.4-1.3,0.4-2L1269.8,10499.8z"/>
	<line id="Línea_164" class="st3" x1="1059" y1="10400.4" x2="1059" y2="10543.3"/>
	<line id="Línea_163" class="st3" x1="1186" y1="10377.1" x2="1186" y2="10520"/>
	<path id="Trazado_99541" class="st4" d="M921.5,10353.3h400v47.1h-400V10353.3z"/>
	<path id="Trazado_102758" class="st1" d="M966.9,10377.3c0,0.9-0.3,1.7-0.7,2.4c-0.4,0.7-1,1.3-1.7,1.6c-0.8,0.4-1.7,0.6-2.5,0.6
		c-1.4,0.1-2.8-0.5-3.7-1.7c-1-1.4-1.4-3.1-1.4-4.8v-0.7c0-1.2,0.2-2.3,0.6-3.4c0.4-0.9,1-1.7,1.8-2.3c0.8-0.5,1.7-0.8,2.7-0.8
		c1.3-0.1,2.5,0.4,3.5,1.3c0.9,0.9,1.4,2.2,1.5,3.5h-2.9c0-0.6-0.2-1.3-0.5-1.7c-0.4-0.4-1-0.6-1.6-0.5c-0.6,0-1.2,0.3-1.6,0.9
		c-0.4,0.9-0.6,1.9-0.5,2.8v0.9c-0.1,1,0.1,2.1,0.5,3c0.4,0.6,1,1,1.6,0.9c0.5,0,1.1-0.1,1.5-0.5c0.4-0.4,0.6-1,0.6-1.6
		L966.9,10377.3z M977.6,10368.5v8.7c0,0.9-0.2,1.8-0.6,2.6c-0.4,0.7-0.9,1.3-1.6,1.6c-0.8,0.4-1.6,0.6-2.5,0.6
		c-1.2,0.1-2.5-0.4-3.4-1.3c-0.9-0.9-1.3-2.1-1.3-3.4v-8.7h2.9v8.8c0,1.5,0.6,2.2,1.8,2.2c0.5,0,1-0.2,1.4-0.5
		c0.3-0.5,0.5-1.1,0.5-1.8v-8.7H977.6z M986.8,10376.1h-4.5v3.2h5.3v2.5h-8.2v-13.3h8.2v2.5h-5.4v2.8h4.5L986.8,10376.1z
		 M998.7,10381.8h-2.9l-4.2-8.2v8.2h-2.9v-13.3h2.9l4.2,8.2v-8.2h2.9L998.7,10381.8z M1009.9,10371h-3.6v10.8h-2.9v-10.8h-3.5v-2.5
		h10L1009.9,10371z M1016.9,10379.3h-3.9l-0.7,2.5h-3.1l4.4-13.3h2.7l4.4,13.3h-3.1L1016.9,10379.3z M1013.7,10376.8h2.6l-1.3-4.6
		L1013.7,10376.8z"/>
	<path id="Trazado_102759" class="st1" d="M1086.4,10383.4v-13.3h3.8c1,0,2,0.3,2.8,0.8c0.8,0.5,1.5,1.3,2,2.2
		c0.5,1,0.7,2.1,0.7,3.3v0.6c0,1.1-0.2,2.3-0.7,3.3c-0.4,0.9-1.1,1.7-1.9,2.3c-0.9,0.5-1.8,0.8-2.8,0.8H1086.4z M1089.3,10372.7v8.3
		h1c0.7,0,1.5-0.3,1.9-1c0.5-0.9,0.7-1.9,0.7-2.9v-0.6c0.1-1-0.2-2-0.7-2.9c-0.5-0.7-1.2-1-1.9-1H1089.3z M1104.6,10377.8h-4.5v3.2
		h5.3v2.5h-8.2v-13.3h8.2v2.5h-5.3v2.8h4.5V10377.8z M1102,10366.6h2.9l-2.3,2.9l-2.2,0L1102,10366.6z M1106.6,10383.4v-13.3h4.3
		c1.2-0.1,2.4,0.2,3.5,0.9c0.8,0.6,1.2,1.6,1.2,2.7c0,0.6-0.1,1.2-0.4,1.8c-0.3,0.5-0.7,0.9-1.3,1.1c0.6,0.1,1.1,0.5,1.4,1
		c0.3,0.5,0.5,1.2,0.5,1.8c0.1,1.1-0.3,2.2-1.1,2.9c-1,0.7-2.1,1.1-3.3,1H1106.6z M1109.5,10377.8v3.2h1.9c0.4,0,0.9-0.1,1.2-0.4
		c0.3-0.3,0.4-0.7,0.4-1.1c0.1-0.8-0.4-1.5-1.1-1.7c-0.1,0-0.2,0-0.4,0H1109.5z M1109.5,10375.7h1.5c0.5,0,0.9-0.1,1.3-0.4
		c0.3-0.3,0.4-0.7,0.4-1.1c0-0.5-0.1-0.9-0.4-1.2c-0.4-0.3-0.9-0.4-1.4-0.4h-1.4L1109.5,10375.7z M1120.5,10383.4h-2.9v-13.3h2.9
		V10383.4z M1131.8,10372.7h-3.6v10.8h-2.9v-10.8h-3.5v-2.5h10V10372.7z M1142.9,10377.1c0,1.2-0.2,2.4-0.6,3.4
		c-0.4,1-1,1.8-1.8,2.3c-0.8,0.5-1.8,0.8-2.7,0.8c-0.9,0-1.9-0.2-2.7-0.8c-0.8-0.5-1.4-1.3-1.8-2.2c-0.5-1-0.7-2.2-0.7-3.3v-0.7
		c0-1.2,0.2-2.4,0.6-3.4c0.4-1,1-1.8,1.8-2.3c0.8-0.5,1.8-0.8,2.7-0.8c0.9,0,1.9,0.3,2.7,0.8c0.8,0.5,1.4,1.3,1.8,2.3
		c0.5,1.1,0.7,2.2,0.7,3.4V10377.1z M1140,10376.5c0.1-1-0.1-2.1-0.6-3c-0.4-0.7-1-1.1-1.7-1c-1.4,0-2.2,1.2-2.3,3.6l0,1
		c-0.1,1,0.1,2.1,0.6,3c0.4,0.7,1,1.1,1.7,1c0.7,0,1.3-0.4,1.7-1c0.4-0.9,0.6-1.9,0.6-3L1140,10376.5z M1150.5,10379.9
		c0-0.4-0.1-0.8-0.4-1.1c-0.5-0.4-1-0.6-1.6-0.8c-0.6-0.2-1.2-0.5-1.8-0.8c-1.5-0.8-2.3-2-2.3-3.5c0-0.7,0.2-1.4,0.6-1.9
		c0.4-0.6,1-1,1.6-1.3c0.8-0.3,1.6-0.5,2.4-0.5c0.8,0,1.6,0.2,2.3,0.5c0.6,0.3,1.2,0.8,1.6,1.4c0.4,0.6,0.6,1.4,0.6,2.2h-2.9
		c0-0.5-0.1-0.9-0.4-1.3c-0.3-0.3-0.8-0.5-1.2-0.4c-0.4,0-0.9,0.1-1.2,0.4c-0.3,0.2-0.4,0.6-0.4,1c0,0.4,0.2,0.7,0.5,0.9
		c0.5,0.4,1.1,0.7,1.7,0.9c0.7,0.2,1.4,0.6,2,1c1.2,0.6,1.9,2,1.9,3.4c0,1.1-0.4,2.1-1.2,2.7c-0.9,0.7-2.1,1.1-3.2,1
		c-0.9,0-1.8-0.2-2.6-0.6c-0.7-0.3-1.3-0.9-1.8-1.6c-0.4-0.7-0.6-1.5-0.6-2.3h2.9c0,0.6,0.1,1.1,0.5,1.6c0.5,0.4,1,0.6,1.6,0.5
		c0.4,0,0.8-0.1,1.1-0.3C1150.4,10380.7,1150.6,10380.3,1150.5,10379.9z"/>
	<path id="Trazado_102760" class="st1" d="M1222.4,10377.3c0,0.9-0.3,1.7-0.7,2.4c-0.4,0.7-1,1.3-1.7,1.6c-0.8,0.4-1.7,0.6-2.5,0.6
		c-1.4,0.1-2.8-0.5-3.7-1.7c-1-1.4-1.4-3.1-1.4-4.8v-0.7c0-1.2,0.2-2.3,0.6-3.4c0.4-0.9,1-1.7,1.8-2.3c0.8-0.5,1.7-0.8,2.7-0.8
		c1.3-0.1,2.5,0.4,3.5,1.3c0.9,0.9,1.4,2.2,1.5,3.5h-2.9c0-0.6-0.2-1.3-0.5-1.7c-0.4-0.4-1-0.6-1.6-0.5c-0.6,0-1.2,0.3-1.6,0.9
		c-0.4,0.9-0.6,1.9-0.5,2.8v0.9c-0.1,1,0.1,2.1,0.5,3c0.4,0.6,1,1,1.6,0.9c0.5,0,1.1-0.1,1.5-0.5c0.4-0.4,0.6-1,0.6-1.6
		L1222.4,10377.3z M1228.2,10377.1h-1.6v4.7h-2.9v-13.3h4.7c1.2-0.1,2.3,0.3,3.3,1c0.8,0.7,1.2,1.8,1.2,3c0,0.8-0.1,1.6-0.5,2.3
		c-0.4,0.7-0.9,1.2-1.6,1.5l2.5,5.4v0.1h-3.1L1228.2,10377.1z M1226.7,10374.6h1.8c0.5,0,0.9-0.1,1.2-0.5c0.3-0.4,0.4-0.8,0.4-1.3
		c0-0.5-0.1-1-0.4-1.3c-0.3-0.3-0.8-0.5-1.2-0.5h-1.8L1226.7,10374.6z M1242.1,10376.1h-4.5v3.2h5.3v2.5h-8.2v-13.3h8.2v2.5h-5.4
		v2.8h4.5L1242.1,10376.1z M1239.4,10365h2.9l-2.3,2.9l-2.2,0L1239.4,10365z M1244.1,10381.8v-13.3h3.8c1,0,2,0.3,2.8,0.8
		c0.8,0.5,1.5,1.3,2,2.2c0.5,1,0.7,2.1,0.7,3.3v0.6c0,1.1-0.2,2.3-0.7,3.3c-0.4,0.9-1.1,1.7-1.9,2.3c-0.9,0.5-1.8,0.8-2.8,0.8
		H1244.1z M1247,10371v8.3h1c0.7,0,1.5-0.3,1.9-1c0.5-0.9,0.7-1.9,0.7-2.9v-0.6c0.1-1-0.2-2-0.7-2.9c-0.5-0.7-1.2-1-1.9-1H1247z
		 M1258,10381.8h-2.9v-13.3h2.9V10381.8z M1269.3,10371h-3.6v10.8h-2.9v-10.8h-3.5v-2.5h10V10371z M1280.4,10375.4
		c0,1.2-0.2,2.4-0.6,3.4c-0.4,1-1,1.8-1.8,2.3c-0.8,0.5-1.8,0.8-2.7,0.8c-0.9,0-1.9-0.2-2.7-0.8c-0.8-0.5-1.4-1.3-1.8-2.2
		c-0.5-1-0.7-2.2-0.7-3.3v-0.7c0-1.2,0.2-2.4,0.6-3.4c0.4-1,1-1.8,1.8-2.3c0.8-0.5,1.8-0.8,2.7-0.8c0.9,0,1.9,0.3,2.7,0.8
		c0.8,0.5,1.4,1.3,1.8,2.3c0.5,1.1,0.7,2.2,0.7,3.4V10375.4z M1277.5,10374.9c0.1-1-0.1-2.1-0.6-3c-0.4-0.7-1-1.1-1.7-1
		c-1.4,0-2.2,1.2-2.3,3.6l0,1c-0.1,1,0.1,2.1,0.6,3c0.4,0.7,1,1.1,1.7,1c0.7,0,1.3-0.4,1.7-1c0.4-0.9,0.6-1.9,0.6-3V10374.9z
		 M1288,10378.2c0-0.4-0.1-0.8-0.4-1.1c-0.5-0.4-1-0.6-1.6-0.8c-0.6-0.2-1.2-0.5-1.8-0.8c-1.5-0.8-2.3-2-2.3-3.5
		c0-0.7,0.2-1.4,0.6-1.9c0.4-0.6,1-1.1,1.6-1.3c0.8-0.3,1.6-0.5,2.4-0.5c0.8,0,1.6,0.2,2.3,0.5c0.6,0.3,1.2,0.8,1.6,1.5
		c0.4,0.6,0.6,1.4,0.6,2.2h-2.9c0-0.5-0.1-0.9-0.4-1.3c-0.3-0.3-0.8-0.5-1.2-0.4c-0.4,0-0.9,0.1-1.2,0.4c-0.3,0.2-0.4,0.6-0.4,1
		c0,0.4,0.2,0.7,0.5,0.9c0.5,0.4,1.1,0.7,1.7,0.9c0.7,0.2,1.4,0.6,2,1c1.2,0.6,1.9,2,1.9,3.4c0,1.1-0.4,2.1-1.2,2.7
		c-1,0.7-2.1,1.1-3.2,1c-0.9,0-1.8-0.2-2.6-0.6c-0.7-0.3-1.3-0.9-1.8-1.6c-0.4-0.7-0.6-1.5-0.6-2.3h2.9c0,0.6,0.1,1.1,0.5,1.6
		c0.5,0.4,1,0.6,1.6,0.5c0.4,0,0.8-0.1,1.1-0.3C1287.9,10379,1288,10378.6,1288,10378.2z"/>
</g>
</svg>
