<?xml version="1.0" encoding="utf-8"?>
<!-- Generator: Adobe Illustrator 25.2.3, SVG Export Plug-In . SVG Version: 6.00 Build 0)  -->
<svg version="1.1" id="Capa_1" xmlns="http://www.w3.org/2000/svg" xmlns:xlink="http://www.w3.org/1999/xlink" x="0px" y="0px"
	 viewBox="0 0 573 245" style="enable-background:new 0 0 573 245;" xml:space="preserve">
<style type="text/css">
	.st0{fill:#F6F6F6;}
	.st1{fill:#FFFFFF;}
	.st2{fill:#12263F;}
	.st3{font-family:'Roboto-Bold';}
	.st4{font-size:11.0407px;}
	.st5{font-family:'Roboto-Regular';}
	.st6{font-size:9.814px;}
	.st7{fill:none;stroke:#AFAFAF;stroke-linecap:round;}
	.st8{fill:#D9A171;}
	.st9{font-size:14.721px;}
</style>
<g id="Grupo_54948" transform="translate(-835 -10326)">
	<rect id="Rectángulo_5423" x="921.5" y="10410.5" class="st0" width="400" height="38"/>
	<rect id="Rectángulo_5422" x="921.5" y="10448.5" class="st1" width="400" height="74.8"/>
	<text transform="matrix(1.1381 0 0 1 936.8574 10473.6689)" class="st2 st3 st4">Ingresos de valores </text>
	<text transform="matrix(1.1381 0 0 1 936.8574 10490.2305)" class="st2 st3 st4">representativos de </text>
	<text transform="matrix(1.1381 0 0 1 936.8574 10506.791)" class="st2 st3 st4">deuda</text>
	<text transform="matrix(1.1381 0 0 1 936.8574 10435.6406)" class="st2 st3 st4">Bancos</text>
	<text transform="matrix(1.1381 0 0 1 1090.4111 10435.6406)" class="st2 st5 st6">10.920,00</text>
	<text transform="matrix(1.1381 0 0 1 1222.373 10493.1191)" class="st2 st5 st6">10.920,00</text>
	<line id="Línea_164" class="st7" x1="1059" y1="10410.5" x2="1059" y2="10523.3"/>
	<line id="Línea_163" class="st7" x1="1186" y1="10392.1" x2="1186" y2="10504.9"/>
	<path id="Trazado_99541" class="st8" d="M921.5,10373.3h400v37.2h-400V10373.3z"/>
	<text transform="matrix(1.1381 0 0 1 956.3867 10395.7705)" class="st1 st3 st9">CUENTA</text>
	<text transform="matrix(1.1381 0 0 1 1085.5273 10397.0957)" class="st1 st3 st9">DÉBITOS</text>
	<text transform="matrix(1.1381 0 0 1 1211.9053 10395.7705)" class="st1 st3 st9">CRÉDITOS</text>
</g>
</svg>
