<?xml version="1.0" encoding="utf-8"?>
<!-- Generator: Adobe Illustrator 25.2.3, SVG Export Plug-In . SVG Version: 6.00 Build 0)  -->
<svg version="1.1" id="Capa_1" xmlns="http://www.w3.org/2000/svg" xmlns:xlink="http://www.w3.org/1999/xlink" x="0px" y="0px"
	 viewBox="0 0 573 363.7" style="enable-background:new 0 0 573 363.7;" xml:space="preserve">
<style type="text/css">
	.st0{fill:#F6F6F6;}
	.st1{fill:#FFFFFF;}
	.st2{fill:#12263F;}
	.st3{fill:none;stroke:#AFAFAF;stroke-linecap:round;}
	.st4{fill:#D9A171;}
</style>
<g id="Grupo_54953" transform="translate(-180 -10670.873)">
	<rect id="Rectángulo_5424" x="266.5" y="10769.2" class="st0" width="400" height="79.2"/>
	<rect id="Rectángulo_5428" x="266.5" y="10895.8" class="st0" width="400" height="81.7"/>
	<rect id="Rectángulo_5426" x="266.5" y="10847.8" class="st1" width="400" height="48"/>
	<path id="Trazado_102769" class="st2" d="M286.2,10878.3c-0.1-0.2-0.2-0.4-0.2-0.6c-0.4,0.5-1,0.7-1.6,0.7c-0.6,0-1.2-0.2-1.6-0.6
		c-0.4-0.3-0.7-0.9-0.7-1.4c0-0.6,0.3-1.2,0.8-1.6c0.7-0.4,1.5-0.6,2.3-0.5h0.6v-0.3c0-0.6-0.3-0.9-0.8-0.9
		c-0.4-0.1-0.7,0.2-0.7,0.5c0,0.1,0,0.1,0,0.2h-2.1c0-0.6,0.3-1.2,0.8-1.5c0.6-0.4,1.3-0.6,2.1-0.6c0.7,0,1.4,0.2,2,0.6
		c0.5,0.4,0.8,1,0.8,1.7v2.9c0,0.5,0.1,0.9,0.3,1.4v0.1H286.2z M284.9,10877c0.2,0,0.4,0,0.6-0.2c0.2-0.1,0.3-0.2,0.4-0.4v-1h-0.6
		c-0.7,0-1.1,0.3-1.1,1c0,0.2,0.1,0.3,0.2,0.5C284.5,10876.9,284.7,10877,284.9,10877z M294.4,10878.3h-2.1v-9.3h2.1L294.4,10878.3z
		 M299.4,10878.3c-0.1-0.2-0.2-0.4-0.2-0.6c-0.4,0.5-1,0.7-1.6,0.7c-0.6,0-1.2-0.2-1.6-0.6c-0.4-0.3-0.7-0.9-0.7-1.4
		c0-0.6,0.3-1.2,0.8-1.6c0.7-0.4,1.5-0.6,2.3-0.5h0.6v-0.3c0-0.6-0.3-0.9-0.8-0.9c-0.4-0.1-0.7,0.2-0.7,0.5c0,0.1,0,0.1,0,0.2h-2.1
		c0-0.6,0.3-1.2,0.8-1.5c0.6-0.4,1.3-0.6,2.1-0.6c0.7,0,1.4,0.2,2,0.6c0.5,0.4,0.8,1,0.8,1.7v2.9c0,0.5,0.1,0.9,0.3,1.4v0.1H299.4z
		 M298.1,10877c0.2,0,0.4,0,0.6-0.2c0.2-0.1,0.3-0.2,0.4-0.4v-1h-0.6c-0.7,0-1.1,0.3-1.1,1c0,0.2,0.1,0.3,0.2,0.5
		C297.8,10876.9,298,10877,298.1,10877L298.1,10877z M306.4,10873.6l-0.7,0c-0.5-0.1-1,0.2-1.3,0.6v4.1h-2.1v-6.5h1.9l0.1,0.8
		c0.2-0.6,0.8-1,1.5-1c0.2,0,0.4,0,0.6,0.1L306.4,10873.6z M306.9,10875c0-0.6,0.1-1.2,0.3-1.8c0.2-0.5,0.5-0.9,1-1.2
		c0.4-0.3,0.9-0.4,1.4-0.4c0.6,0,1.2,0.2,1.6,0.7l0.1-0.6h1.9v6.3c0,0.5-0.1,1.1-0.4,1.5c-0.3,0.4-0.7,0.8-1.2,1
		c-0.6,0.2-1.2,0.4-1.8,0.3c-0.5,0-1-0.1-1.4-0.3c-0.4-0.1-0.8-0.4-1-0.7l0.9-1.2c0.4,0.4,0.9,0.7,1.5,0.7c0.7,0.1,1.3-0.4,1.4-1
		c0-0.1,0-0.2,0-0.3v-0.2c-0.4,0.4-0.9,0.7-1.5,0.6c-0.8,0-1.5-0.3-2-0.9C307.1,10876.8,306.8,10876,306.9,10875L306.9,10875z
		 M309,10875.1c0,0.4,0.1,0.9,0.3,1.3c0.2,0.3,0.5,0.5,0.9,0.5c0.4,0,0.8-0.1,1-0.4v-2.8c-0.2-0.3-0.6-0.5-1-0.4
		c-0.4,0-0.7,0.2-0.9,0.5C309,10874.2,308.9,10874.6,309,10875.1L309,10875.1z M314.1,10875c0-0.6,0.1-1.2,0.4-1.7
		c0.2-0.5,0.6-0.9,1.1-1.2c0.5-0.3,1.1-0.4,1.7-0.4c0.9,0,1.7,0.3,2.3,0.9c0.6,0.7,0.9,1.6,0.9,2.5v0.1c0,0.9-0.3,1.8-0.9,2.4
		c-0.6,0.6-1.5,0.9-2.3,0.9c-0.8,0-1.7-0.3-2.3-0.8c-0.6-0.6-0.9-1.4-0.9-2.3L314.1,10875z M316.2,10875.1c0,0.5,0.1,0.9,0.3,1.3
		c0.2,0.3,0.5,0.4,0.9,0.4c0.7,0,1.1-0.6,1.1-1.7v-0.2c0-1.2-0.4-1.8-1.1-1.8c-0.7,0-1.1,0.5-1.1,1.5L316.2,10875.1z M330.7,10875.1
		c0,0.9-0.2,1.7-0.7,2.4c-0.4,0.6-1.1,0.9-1.9,0.9c-0.6,0-1.1-0.2-1.5-0.7v3.1h-2.1v-9.1h1.9l0.1,0.6c0.4-0.5,1-0.7,1.6-0.7
		c0.7,0,1.5,0.3,1.9,0.9C330.5,10873.3,330.7,10874.1,330.7,10875.1L330.7,10875.1z M328.6,10875c0-1.2-0.3-1.7-1-1.7
		c-0.4,0-0.8,0.2-1,0.5v2.6c0.2,0.4,0.6,0.6,1,0.5c0.7,0,1-0.6,1-1.7L328.6,10875z M333.8,10878.3h-2.1v-9.3h2.1V10878.3z
		 M338.8,10878.3c-0.1-0.2-0.2-0.4-0.2-0.6c-0.4,0.5-1,0.7-1.6,0.7c-0.6,0-1.2-0.2-1.6-0.6c-0.4-0.3-0.7-0.9-0.7-1.4
		c0-0.6,0.3-1.2,0.8-1.6c0.7-0.4,1.5-0.6,2.3-0.5h0.6v-0.3c0-0.6-0.3-0.9-0.8-0.9c-0.4-0.1-0.7,0.2-0.7,0.5c0,0.1,0,0.1,0,0.2h-2.1
		c0-0.6,0.3-1.2,0.8-1.5c0.6-0.4,1.3-0.6,2.1-0.6c0.7,0,1.4,0.2,2,0.6c0.5,0.4,0.8,1,0.8,1.7v2.9c0,0.5,0.1,0.9,0.3,1.4v0.1H338.8z
		 M337.5,10877c0.2,0,0.4,0,0.6-0.2c0.2-0.1,0.3-0.2,0.4-0.4v-1h-0.6c-0.7,0-1.1,0.3-1.1,1c0,0.2,0.1,0.3,0.2,0.5
		C337.2,10876.9,337.3,10877,337.5,10877L337.5,10877z M344.2,10876.8h3v1.6h-5.6v-1.1l2.9-3.8h-2.8v-1.6h5.4v1.1L344.2,10876.8z
		 M347.8,10875c0-0.6,0.1-1.2,0.4-1.7c0.2-0.5,0.6-0.9,1.1-1.2c0.5-0.3,1.1-0.4,1.7-0.4c0.9,0,1.7,0.3,2.3,0.9
		c0.6,0.7,0.9,1.6,0.9,2.5v0.1c0,0.9-0.3,1.8-0.9,2.4c-0.6,0.6-1.5,0.9-2.3,0.9c-0.8,0-1.7-0.3-2.3-0.8c-0.6-0.6-0.9-1.4-0.9-2.3
		L347.8,10875z M349.9,10875.1c0,0.5,0.1,0.9,0.3,1.3c0.2,0.3,0.5,0.4,0.9,0.4c0.7,0,1.1-0.6,1.1-1.7v-0.2c0-1.2-0.4-1.8-1.1-1.8
		c-0.7,0-1.1,0.5-1.1,1.5L349.9,10875.1z"/>
	<path id="Trazado_102768" class="st2" d="M286,10795.1l1.8-6.4h2.4l-3,8.8h-2.4l-3-8.8h2.4L286,10795.1z M294.2,10797.4
		c-0.1-0.2-0.2-0.4-0.2-0.6c-0.4,0.5-1,0.7-1.6,0.7c-0.6,0-1.2-0.2-1.6-0.6c-0.4-0.3-0.7-0.9-0.7-1.4c0-0.6,0.3-1.2,0.8-1.6
		c0.7-0.4,1.5-0.6,2.3-0.5h0.6v-0.3c0-0.6-0.3-0.9-0.8-0.9c-0.4-0.1-0.7,0.2-0.7,0.5c0,0.1,0,0.1,0,0.2h-2.1c0-0.6,0.3-1.2,0.8-1.5
		c0.6-0.4,1.3-0.6,2.1-0.6c0.7,0,1.4,0.2,2,0.6c0.5,0.4,0.8,1,0.8,1.7v2.9c0,0.5,0.1,0.9,0.3,1.4v0.1H294.2z M292.9,10796.1
		c0.2,0,0.4,0,0.6-0.2c0.2-0.1,0.3-0.2,0.4-0.4v-1h-0.6c-0.7,0-1.1,0.3-1.1,1c0,0.2,0.1,0.3,0.2,0.5
		C292.5,10796.1,292.7,10796.1,292.9,10796.1z M299.3,10797.4h-2.1v-9.3h2.1V10797.4z M300.3,10794.1c0-0.6,0.1-1.2,0.4-1.7
		c0.2-0.5,0.6-0.9,1.1-1.2c0.5-0.3,1.1-0.4,1.7-0.4c0.9,0,1.7,0.3,2.3,0.9c0.6,0.7,0.9,1.6,0.9,2.5v0.1c0,0.9-0.3,1.8-0.9,2.4
		c-0.6,0.6-1.5,0.9-2.3,0.9c-0.8,0-1.7-0.3-2.3-0.8c-0.6-0.6-0.9-1.4-0.9-2.3L300.3,10794.1z M302.4,10794.2c0,0.5,0.1,0.9,0.3,1.3
		c0.2,0.3,0.5,0.4,0.9,0.4c0.7,0,1.1-0.6,1.1-1.7v-0.2c0-1.2-0.4-1.8-1.1-1.8c-0.7,0-1.1,0.5-1.1,1.5L302.4,10794.2z M311.7,10792.7
		l-0.7,0c-0.5-0.1-1,0.2-1.3,0.6v4.1h-2.1v-6.5h1.9l0.1,0.8c0.2-0.6,0.8-1,1.5-1c0.2,0,0.4,0,0.6,0.1L311.7,10792.7z M315.6,10797.6
		c-0.9,0-1.8-0.3-2.5-0.9c-0.6-0.6-1-1.5-0.9-2.3v-0.2c0-0.6,0.1-1.2,0.4-1.8c0.2-0.5,0.6-0.9,1.1-1.2c0.5-0.3,1.1-0.4,1.7-0.4
		c0.8,0,1.6,0.3,2.2,0.9c0.6,0.7,0.9,1.5,0.8,2.4v0.8h-4.1c0.1,0.3,0.2,0.6,0.5,0.9c0.3,0.2,0.6,0.3,1,0.3c0.6,0,1.2-0.2,1.5-0.7
		l0.9,1.1c-0.3,0.4-0.7,0.7-1.1,0.8C316.7,10797.5,316.1,10797.6,315.6,10797.6L315.6,10797.6z M315.4,10792.4c-0.6,0-1,0.4-1.1,1.2
		h2.1v-0.2c0-0.3-0.1-0.5-0.3-0.8C315.9,10792.4,315.7,10792.3,315.4,10792.4z M322.7,10795.6c0-0.2-0.1-0.3-0.3-0.4
		c-0.3-0.2-0.7-0.3-1-0.3c-0.4-0.1-0.9-0.2-1.3-0.4c-0.3-0.2-0.6-0.4-0.8-0.7c-0.2-0.3-0.3-0.6-0.3-0.9c0-0.6,0.3-1.1,0.8-1.5
		c0.6-0.4,1.3-0.6,2-0.6c0.7,0,1.5,0.2,2.1,0.6c0.5,0.3,0.8,0.9,0.8,1.5h-2.1c0-0.5-0.3-0.8-0.8-0.8c-0.2,0-0.4,0.1-0.5,0.2
		c-0.1,0.1-0.2,0.3-0.2,0.4c0,0.2,0.1,0.4,0.3,0.4c0.3,0.1,0.6,0.2,0.9,0.3c0.4,0.1,0.7,0.1,1,0.3c0.9,0.2,1.5,0.9,1.5,1.8
		c0,0.6-0.3,1.1-0.8,1.5c-0.6,0.4-1.4,0.6-2.1,0.6c-0.5,0-1-0.1-1.5-0.3c-0.4-0.2-0.8-0.5-1-0.8c-0.2-0.3-0.4-0.7-0.4-1.1h1.9
		c0,0.3,0.1,0.5,0.3,0.7c0.2,0.1,0.5,0.2,0.8,0.2c0.2,0,0.4,0,0.6-0.2C322.6,10795.9,322.7,10795.8,322.7,10795.6L322.7,10795.6z
		 M286.5,10811.3l-0.7,0c-0.5-0.1-1,0.2-1.3,0.6v4.1h-2.1v-6.5h1.9l0.1,0.8c0.2-0.6,0.8-1,1.5-1c0.2,0,0.4,0,0.6,0.1L286.5,10811.3z
		 M290.4,10816.2c-0.9,0-1.8-0.3-2.5-0.9c-0.6-0.6-1-1.5-0.9-2.3v-0.2c0-0.6,0.1-1.2,0.4-1.8c0.2-0.5,0.6-0.9,1.1-1.2
		c0.5-0.3,1.1-0.4,1.7-0.4c0.8,0,1.6,0.3,2.2,0.9c0.6,0.7,0.9,1.5,0.8,2.4v0.8h-4.1c0.1,0.3,0.2,0.6,0.5,0.9c0.3,0.2,0.6,0.3,1,0.3
		c0.6,0,1.2-0.2,1.5-0.7l0.9,1.1c-0.3,0.4-0.7,0.7-1.1,0.8C291.5,10816.1,290.9,10816.2,290.4,10816.2L290.4,10816.2z
		 M290.2,10810.9c-0.6,0-1,0.4-1.1,1.2h2.1v-0.2c0-0.3-0.1-0.5-0.3-0.8C290.7,10811,290.5,10810.9,290.2,10810.9z M300.2,10812.8
		c0,0.9-0.2,1.7-0.7,2.4c-0.4,0.6-1.1,0.9-1.9,0.9c-0.6,0-1.1-0.2-1.5-0.7v3.1h-2.1v-9.1h1.9l0.1,0.6c0.4-0.5,1-0.7,1.6-0.7
		c0.7,0,1.5,0.3,1.9,0.9C300,10811,300.3,10811.8,300.2,10812.8L300.2,10812.8z M298.1,10812.7c0-1.2-0.3-1.7-1-1.7
		c-0.4,0-0.8,0.2-1,0.5v2.6c0.2,0.4,0.6,0.6,1,0.5c0.7,0,1-0.6,1-1.7V10812.7z M305.1,10811.3l-0.7,0c-0.5-0.1-1,0.2-1.3,0.6v4.1
		h-2.1v-6.5h1.9l0.1,0.8c0.2-0.6,0.8-1,1.5-1c0.2,0,0.4,0,0.6,0.1L305.1,10811.3z M309.1,10816.2c-0.9,0-1.8-0.3-2.5-0.9
		c-0.6-0.6-1-1.5-0.9-2.3v-0.2c0-0.6,0.1-1.2,0.4-1.8c0.2-0.5,0.6-0.9,1.1-1.2c0.5-0.3,1.1-0.4,1.7-0.4c0.8,0,1.6,0.3,2.2,0.9
		c0.6,0.7,0.9,1.5,0.8,2.4v0.8h-4.1c0.1,0.3,0.2,0.6,0.5,0.9c0.3,0.2,0.6,0.3,1,0.3c0.6,0,1.2-0.2,1.5-0.7l0.9,1.1
		c-0.3,0.4-0.7,0.7-1.1,0.8C310.1,10816.1,309.6,10816.2,309.1,10816.2L309.1,10816.2z M308.9,10810.9c-0.6,0-1,0.4-1.1,1.2h2.1
		v-0.2c0-0.3-0.1-0.5-0.3-0.8C309.4,10811,309.1,10810.9,308.9,10810.9z M316.2,10814.2c0-0.2-0.1-0.3-0.3-0.4
		c-0.3-0.2-0.7-0.3-1-0.3c-0.4-0.1-0.9-0.2-1.3-0.4c-0.3-0.2-0.6-0.4-0.8-0.7c-0.2-0.3-0.3-0.6-0.3-0.9c0-0.6,0.3-1.1,0.8-1.5
		c0.6-0.4,1.3-0.6,2-0.6c0.7,0,1.5,0.2,2.1,0.6c0.5,0.3,0.8,0.9,0.8,1.5h-2.1c0-0.5-0.3-0.8-0.8-0.8c-0.2,0-0.4,0.1-0.5,0.2
		c-0.1,0.1-0.2,0.3-0.2,0.4c0,0.2,0.1,0.4,0.3,0.4c0.3,0.1,0.6,0.2,0.9,0.3c0.4,0.1,0.7,0.1,1,0.3c0.9,0.2,1.5,0.9,1.5,1.8
		c0,0.6-0.3,1.1-0.8,1.5c-0.6,0.4-1.4,0.6-2.1,0.6c-0.5,0-1-0.1-1.5-0.3c-0.4-0.2-0.8-0.5-1-0.8c-0.2-0.3-0.4-0.7-0.4-1.1h1.9
		c0,0.3,0.1,0.5,0.3,0.7c0.2,0.1,0.5,0.2,0.8,0.2c0.2,0,0.4,0,0.6-0.2C316.1,10814.5,316.2,10814.4,316.2,10814.2L316.2,10814.2z
		 M322.4,10816.2c-0.9,0-1.8-0.3-2.5-0.9c-0.6-0.6-1-1.5-0.9-2.3v-0.2c0-0.6,0.1-1.2,0.4-1.8c0.2-0.5,0.6-0.9,1.1-1.2
		c0.5-0.3,1.1-0.4,1.7-0.4c0.8,0,1.6,0.3,2.2,0.9c0.6,0.7,0.9,1.5,0.8,2.4v0.8h-4.1c0.1,0.3,0.2,0.6,0.5,0.9c0.3,0.2,0.6,0.3,1,0.3
		c0.6,0,1.2-0.2,1.5-0.7l0.9,1.1c-0.3,0.4-0.7,0.7-1.1,0.8C323.4,10816.1,322.9,10816.2,322.4,10816.2L322.4,10816.2z
		 M322.1,10810.9c-0.6,0-1,0.4-1.1,1.2h2.1v-0.2c0-0.3-0.1-0.5-0.3-0.8C322.7,10811,322.4,10810.9,322.1,10810.9z M327.9,10809.5
		l0.1,0.8c0.4-0.6,1.2-0.9,1.9-0.9c0.6,0,1.2,0.2,1.5,0.6c0.4,0.5,0.6,1.2,0.5,1.8v4.2h-2.1v-4.1c0-0.3,0-0.5-0.2-0.7
		c-0.2-0.2-0.5-0.3-0.7-0.2c-0.4,0-0.7,0.2-0.9,0.5v4.6H326v-6.5H327.9z M335.5,10807.9v1.6h1.1v1.4h-1.1v3c0,0.2,0,0.4,0.1,0.5
		c0.2,0.1,0.3,0.2,0.5,0.1c0.2,0,0.3,0,0.5,0v1.5c-0.4,0.1-0.8,0.2-1.2,0.2c-0.6,0-1.1-0.1-1.6-0.5c-0.4-0.4-0.6-1-0.5-1.5v-3.2
		h-0.8v-1.4h0.8v-1.6L335.5,10807.9z M341.1,10816c-0.1-0.2-0.2-0.4-0.2-0.6c-0.4,0.5-1,0.7-1.6,0.7c-0.6,0-1.2-0.2-1.6-0.6
		c-0.4-0.3-0.7-0.9-0.7-1.4c0-0.6,0.3-1.2,0.8-1.6c0.7-0.4,1.5-0.6,2.3-0.5h0.6v-0.3c0-0.6-0.3-0.9-0.8-0.9
		c-0.4-0.1-0.7,0.2-0.7,0.5c0,0.1,0,0.1,0,0.2h-2.1c0-0.6,0.3-1.2,0.8-1.5c0.6-0.4,1.3-0.6,2.1-0.6c0.7,0,1.4,0.2,2,0.6
		c0.5,0.4,0.8,1,0.8,1.7v2.9c0,0.5,0.1,0.9,0.3,1.4v0.1H341.1z M339.8,10814.7c0.2,0,0.4,0,0.6-0.2c0.2-0.1,0.3-0.2,0.4-0.4v-1h-0.6
		c-0.7,0-1.1,0.3-1.1,1c0,0.2,0.1,0.3,0.2,0.5C339.5,10814.6,339.7,10814.7,339.8,10814.7z M346.5,10807.9v1.6h1.1v1.4h-1.1v3
		c0,0.2,0,0.4,0.1,0.5c0.2,0.1,0.3,0.2,0.5,0.1c0.2,0,0.3,0,0.5,0v1.5c-0.4,0.1-0.8,0.2-1.2,0.2c-0.6,0-1.1-0.1-1.6-0.5
		c-0.4-0.4-0.6-1-0.5-1.5v-3.2h-0.8v-1.4h0.8v-1.6H346.5z M350.6,10816h-2.1v-6.5h2.1V10816z M348.4,10807.8c0-0.3,0.1-0.5,0.3-0.7
		c0.5-0.4,1.2-0.4,1.7,0c0.4,0.4,0.4,1,0.1,1.4c0,0,0,0-0.1,0.1c-0.5,0.4-1.2,0.4-1.7,0C348.5,10808.3,348.4,10808.1,348.4,10807.8z
		 M354.5,10813.6l1-4.1h2.2l-2.2,6.5h-2.1l-2.2-6.5h2.2L354.5,10813.6z M358,10812.7c0-0.6,0.1-1.2,0.4-1.7c0.2-0.5,0.6-0.9,1.1-1.2
		c0.5-0.3,1.1-0.4,1.7-0.4c0.9,0,1.7,0.3,2.3,0.9c0.6,0.7,0.9,1.6,0.9,2.5v0.1c0,0.9-0.3,1.8-0.9,2.4c-0.6,0.6-1.5,0.9-2.3,0.9
		c-0.8,0-1.7-0.3-2.3-0.8c-0.6-0.6-0.9-1.4-0.9-2.3L358,10812.7z M360,10812.8c0,0.5,0.1,0.9,0.3,1.3c0.2,0.3,0.5,0.4,0.9,0.4
		c0.7,0,1.1-0.6,1.1-1.7v-0.2c0-1.2-0.4-1.8-1.1-1.8c-0.7,0-1.1,0.5-1.1,1.5L360,10812.8z M368.8,10814.2c0-0.2-0.1-0.3-0.3-0.4
		c-0.3-0.2-0.7-0.3-1-0.3c-0.4-0.1-0.9-0.2-1.3-0.4c-0.3-0.2-0.6-0.4-0.8-0.7c-0.2-0.3-0.3-0.6-0.3-0.9c0-0.6,0.3-1.1,0.8-1.5
		c0.6-0.4,1.3-0.6,2-0.6c0.7,0,1.5,0.2,2.1,0.6c0.5,0.3,0.8,0.9,0.8,1.5h-2.1c0-0.5-0.3-0.8-0.8-0.8c-0.2,0-0.4,0.1-0.5,0.2
		c-0.1,0.1-0.2,0.3-0.2,0.4c0,0.2,0.1,0.4,0.3,0.4c0.3,0.1,0.6,0.2,0.9,0.3c0.4,0.1,0.7,0.1,1,0.3c0.9,0.2,1.5,0.9,1.5,1.8
		c0,0.6-0.3,1.1-0.8,1.5c-0.6,0.4-1.4,0.6-2.1,0.6c-0.5,0-1-0.1-1.5-0.3c-0.4-0.2-0.8-0.5-1-0.8c-0.2-0.3-0.4-0.7-0.4-1.1h1.9
		c0,0.3,0.1,0.5,0.3,0.7c0.2,0.1,0.5,0.2,0.8,0.2c0.2,0,0.4,0,0.6-0.2C368.7,10814.5,368.8,10814.4,368.8,10814.2L368.8,10814.2z
		 M374.6,10812.7c0-0.9,0.2-1.7,0.7-2.5c0.4-0.6,1.2-0.9,1.9-0.9c0.6,0,1.1,0.2,1.5,0.7v-3.3h2.1v9.3h-1.9l-0.1-0.7
		c-0.4,0.5-1,0.8-1.6,0.8c-0.7,0-1.4-0.3-1.9-0.9C374.8,10814.5,374.5,10813.6,374.6,10812.7L374.6,10812.7z M376.7,10812.8
		c0,1.2,0.3,1.7,1,1.7c0.4,0,0.8-0.2,1-0.6v-2.5c-0.2-0.4-0.6-0.6-1-0.6c-0.6,0-1,0.5-1,1.5L376.7,10812.8z M385.1,10816.2
		c-0.9,0-1.8-0.3-2.5-0.9c-0.6-0.6-1-1.5-0.9-2.3v-0.2c0-0.6,0.1-1.2,0.4-1.8c0.2-0.5,0.6-0.9,1.1-1.2c0.5-0.3,1.1-0.4,1.7-0.4
		c0.8,0,1.6,0.3,2.2,0.9c0.6,0.7,0.9,1.5,0.8,2.4v0.8h-4.1c0.1,0.3,0.2,0.6,0.5,0.9c0.3,0.2,0.6,0.3,1,0.3c0.6,0,1.2-0.2,1.5-0.7
		l0.9,1.1c-0.3,0.4-0.7,0.7-1.1,0.8C386.2,10816.1,385.7,10816.2,385.1,10816.2L385.1,10816.2z M384.9,10810.9c-0.6,0-1,0.4-1.1,1.2
		h2.1v-0.2c0-0.3-0.1-0.5-0.3-0.8C385.4,10811,385.2,10810.9,384.9,10810.9z M282.2,10831.3c0-0.9,0.2-1.7,0.7-2.5
		c0.4-0.6,1.2-0.9,1.9-0.9c0.6,0,1.1,0.2,1.5,0.7v-3.3h2.1v9.3h-1.9l-0.1-0.7c-0.4,0.5-1,0.8-1.6,0.8c-0.7,0-1.4-0.3-1.9-0.9
		C282.4,10833.1,282.1,10832.2,282.2,10831.3z M284.2,10831.4c0,1.2,0.3,1.7,1,1.7c0.4,0,0.8-0.2,1-0.6v-2.5c-0.2-0.4-0.6-0.6-1-0.6
		c-0.6,0-1,0.5-1,1.5L284.2,10831.4z M292.7,10834.7c-0.9,0-1.8-0.3-2.5-0.9c-0.6-0.6-1-1.5-0.9-2.3v-0.2c0-0.6,0.1-1.2,0.4-1.8
		c0.2-0.5,0.6-0.9,1.1-1.2c0.5-0.3,1.1-0.4,1.7-0.4c0.8,0,1.6,0.3,2.2,0.9c0.6,0.7,0.9,1.5,0.8,2.4v0.8h-4.1
		c0.1,0.3,0.2,0.6,0.5,0.9c0.3,0.2,0.6,0.3,1,0.3c0.6,0,1.2-0.2,1.5-0.7l0.9,1.1c-0.3,0.4-0.7,0.7-1.1,0.8
		C293.8,10834.6,293.2,10834.7,292.7,10834.7z M292.5,10829.5c-0.6,0-1,0.4-1.1,1.2h2.1v-0.2c0-0.3-0.1-0.5-0.3-0.8
		C293,10829.6,292.8,10829.5,292.5,10829.5z M300.3,10833.9c-0.4,0.5-1.1,0.9-1.8,0.8c-0.6,0-1.2-0.2-1.7-0.6
		c-0.4-0.5-0.6-1.2-0.6-1.8v-4.2h2.1v4.3c-0.1,0.4,0.2,0.8,0.6,0.8c0.1,0,0.1,0,0.2,0c0.4,0,0.8-0.2,1-0.5v-4.6h2.1v6.5h-1.9
		L300.3,10833.9z M303.2,10831.3c0-0.9,0.2-1.7,0.7-2.5c0.4-0.6,1.2-0.9,1.9-0.9c0.6,0,1.1,0.2,1.5,0.7v-3.3h2.1v9.3h-1.9l-0.1-0.7
		c-0.4,0.5-1,0.8-1.6,0.8c-0.7,0-1.4-0.3-1.9-0.9C303.4,10833.1,303.1,10832.2,303.2,10831.3L303.2,10831.3z M305.2,10831.4
		c0,1.2,0.3,1.7,1,1.7c0.4,0,0.8-0.2,1-0.6v-2.5c-0.2-0.4-0.6-0.6-1-0.6c-0.6,0-1,0.5-1,1.5L305.2,10831.4z M314.2,10834.6
		c-0.1-0.2-0.2-0.4-0.2-0.6c-0.4,0.5-1,0.7-1.6,0.7c-0.6,0-1.2-0.2-1.6-0.6c-0.4-0.3-0.7-0.9-0.7-1.4c0-0.6,0.3-1.2,0.8-1.6
		c0.7-0.4,1.5-0.6,2.3-0.5h0.6v-0.3c0-0.6-0.3-0.9-0.8-0.9c-0.4-0.1-0.7,0.2-0.7,0.5c0,0.1,0,0.1,0,0.2h-2.1c0-0.6,0.3-1.2,0.8-1.5
		c0.6-0.4,1.3-0.6,2.1-0.6c0.7,0,1.4,0.2,2,0.6c0.5,0.4,0.8,1,0.8,1.7v2.9c0,0.5,0.1,0.9,0.3,1.4v0.1H314.2z M312.9,10833.3
		c0.2,0,0.4,0,0.6-0.2c0.2-0.1,0.3-0.2,0.4-0.4v-1h-0.6c-0.7,0-1.1,0.3-1.1,1c0,0.2,0.1,0.3,0.2,0.5
		C312.6,10833.2,312.8,10833.3,312.9,10833.3L312.9,10833.3z M324,10834.6c-0.1-0.2-0.2-0.4-0.2-0.6c-0.4,0.5-1,0.7-1.6,0.7
		c-0.6,0-1.2-0.2-1.6-0.6c-0.4-0.3-0.7-0.9-0.7-1.4c0-0.6,0.3-1.2,0.8-1.6c0.7-0.4,1.5-0.6,2.3-0.5h0.6v-0.3c0-0.6-0.3-0.9-0.8-0.9
		c-0.4-0.1-0.7,0.2-0.7,0.5c0,0.1,0,0.1,0,0.2h-2.1c0-0.6,0.3-1.2,0.8-1.5c0.6-0.4,1.3-0.6,2.1-0.6c0.7,0,1.4,0.2,2,0.6
		c0.5,0.4,0.8,1,0.8,1.7v2.9c0,0.5,0.1,0.9,0.3,1.4v0.1H324z M322.7,10833.3c0.2,0,0.4,0,0.6-0.2c0.2-0.1,0.3-0.2,0.4-0.4v-1h-0.6
		c-0.7,0-1.1,0.3-1.1,1c0,0.2,0.1,0.3,0.2,0.5C322.4,10833.2,322.6,10833.3,322.7,10833.3z M332.3,10834.6h-2.1v-9.3h2.1V10834.6z
		 M337.3,10834.6c-0.1-0.2-0.2-0.4-0.2-0.6c-0.4,0.5-1,0.7-1.6,0.7c-0.6,0-1.2-0.2-1.6-0.6c-0.4-0.3-0.7-0.9-0.7-1.4
		c0-0.6,0.3-1.2,0.8-1.6c0.7-0.4,1.5-0.6,2.3-0.5h0.6v-0.3c0-0.6-0.3-0.9-0.8-0.9c-0.4-0.1-0.7,0.2-0.7,0.5c0,0.1,0,0.1,0,0.2h-2.1
		c0-0.6,0.3-1.2,0.8-1.5c0.6-0.4,1.3-0.6,2.1-0.6c0.7,0,1.4,0.2,2,0.6c0.5,0.4,0.8,1,0.8,1.7v2.9c0,0.5,0.1,0.9,0.3,1.4v0.1H337.3z
		 M336,10833.3c0.2,0,0.4,0,0.6-0.2c0.2-0.1,0.3-0.2,0.4-0.4v-1h-0.6c-0.7,0-1.1,0.3-1.1,1c0,0.2,0.1,0.3,0.2,0.5
		C335.6,10833.2,335.8,10833.3,336,10833.3L336,10833.3z M344.2,10829.9l-0.7,0c-0.5-0.1-1,0.2-1.3,0.6v4.1h-2.1v-6.5h1.9l0.1,0.8
		c0.2-0.6,0.8-1,1.5-1c0.2,0,0.4,0,0.6,0.1L344.2,10829.9z M344.7,10831.3c0-0.6,0.1-1.2,0.3-1.8c0.2-0.5,0.5-0.9,1-1.2
		c0.4-0.3,0.9-0.4,1.4-0.4c0.6,0,1.2,0.2,1.6,0.7l0.1-0.6h1.9v6.3c0,0.5-0.1,1.1-0.4,1.5c-0.3,0.4-0.7,0.8-1.2,1
		c-0.6,0.2-1.2,0.4-1.8,0.3c-0.5,0-1-0.1-1.4-0.3c-0.4-0.1-0.8-0.4-1-0.7l0.9-1.2c0.4,0.4,0.9,0.7,1.5,0.7c0.7,0.1,1.3-0.4,1.4-1
		c0-0.1,0-0.2,0-0.3v-0.2c-0.4,0.4-0.9,0.7-1.5,0.6c-0.8,0-1.5-0.3-2-0.9C345,10833.1,344.7,10832.3,344.7,10831.3L344.7,10831.3z
		 M346.8,10831.4c0,0.4,0.1,0.9,0.3,1.3c0.2,0.3,0.5,0.5,0.9,0.5c0.4,0,0.8-0.1,1-0.4v-2.8c-0.2-0.3-0.6-0.5-1-0.4
		c-0.4,0-0.7,0.2-0.9,0.5C346.9,10830.4,346.8,10830.9,346.8,10831.4L346.8,10831.4z M351.9,10831.3c0-0.6,0.1-1.2,0.4-1.7
		c0.2-0.5,0.6-0.9,1.1-1.2c0.5-0.3,1.1-0.4,1.7-0.4c0.9,0,1.7,0.3,2.3,0.9c0.6,0.7,0.9,1.6,0.9,2.5v0.1c0,0.9-0.3,1.8-0.9,2.4
		c-0.6,0.6-1.5,0.9-2.3,0.9c-0.8,0-1.7-0.3-2.3-0.8c-0.6-0.6-0.9-1.4-0.9-2.3L351.9,10831.3z M354,10831.4c0,0.5,0.1,0.9,0.3,1.3
		c0.2,0.3,0.5,0.4,0.9,0.4c0.7,0,1.1-0.6,1.1-1.7v-0.2c0-1.2-0.4-1.8-1.1-1.8c-0.7,0-1.1,0.5-1.1,1.5L354,10831.4z M368.6,10831.4
		c0,0.9-0.2,1.7-0.7,2.4c-0.4,0.6-1.1,0.9-1.9,0.9c-0.6,0-1.1-0.2-1.5-0.7v3.1h-2.1v-9.1h1.9l0.1,0.6c0.4-0.5,1-0.7,1.6-0.7
		c0.7,0,1.5,0.3,1.9,0.9C368.4,10829.6,368.6,10830.4,368.6,10831.4L368.6,10831.4z M366.5,10831.3c0-1.2-0.3-1.7-1-1.7
		c-0.4,0-0.8,0.2-1,0.5v2.6c0.2,0.4,0.6,0.6,1,0.5c0.7,0,1-0.6,1-1.7V10831.3z M371.7,10834.6h-2.1v-9.3h2.1V10834.6z
		 M376.7,10834.6c-0.1-0.2-0.2-0.4-0.2-0.6c-0.4,0.5-1,0.7-1.6,0.7c-0.6,0-1.2-0.2-1.6-0.6c-0.4-0.3-0.7-0.9-0.7-1.4
		c0-0.6,0.3-1.2,0.8-1.6c0.7-0.4,1.5-0.6,2.3-0.5h0.6v-0.3c0-0.6-0.3-0.9-0.8-0.9c-0.4-0.1-0.7,0.2-0.7,0.5c0,0.1,0,0.1,0,0.2h-2.1
		c0-0.6,0.3-1.2,0.8-1.5c0.6-0.4,1.3-0.6,2.1-0.6c0.7,0,1.4,0.2,2,0.6c0.5,0.4,0.8,1,0.8,1.7v2.9c0,0.5,0.1,0.9,0.3,1.4v0.1H376.7z
		 M375.4,10833.3c0.2,0,0.4,0,0.6-0.2c0.2-0.1,0.3-0.2,0.4-0.4v-1h-0.6c-0.7,0-1.1,0.3-1.1,1c0,0.2,0.1,0.3,0.2,0.5
		C375,10833.2,375.2,10833.3,375.4,10833.3L375.4,10833.3z M382,10833h3v1.6h-5.6v-1.1l2.9-3.8h-2.8v-1.6h5.4v1.1L382,10833z
		 M385.7,10831.3c0-0.6,0.1-1.2,0.4-1.7c0.2-0.5,0.6-0.9,1.1-1.2c0.5-0.3,1.1-0.4,1.7-0.4c0.9,0,1.7,0.3,2.3,0.9
		c0.6,0.7,0.9,1.6,0.9,2.5v0.1c0,0.9-0.3,1.8-0.9,2.4c-0.6,0.6-1.5,0.9-2.3,0.9c-0.8,0-1.7-0.3-2.3-0.8c-0.6-0.6-0.9-1.4-0.9-2.3
		L385.7,10831.3z M387.8,10831.4c0,0.5,0.1,0.9,0.3,1.3c0.2,0.3,0.5,0.4,0.9,0.4c0.7,0,1.1-0.6,1.1-1.7v-0.2c0-1.2-0.4-1.8-1.1-1.8
		c-0.7,0-1.1,0.5-1.1,1.5L387.8,10831.4z"/>
	<path id="Trazado_102770" class="st2" d="M284.8,10921h-2.1v-8.8h2.1V10921z M288.1,10914.5l0.1,0.8c0.4-0.6,1.2-0.9,1.9-0.9
		c0.6,0,1.2,0.2,1.5,0.6c0.4,0.5,0.6,1.2,0.5,1.8v4.2h-2.1v-4.1c0-0.3,0-0.5-0.2-0.7c-0.2-0.2-0.5-0.3-0.7-0.2
		c-0.4,0-0.7,0.2-0.9,0.5v4.6h-2.1v-6.5H288.1z M293.1,10917.7c0-0.6,0.1-1.2,0.3-1.8c0.2-0.5,0.5-0.9,0.9-1.2
		c0.4-0.3,0.9-0.4,1.4-0.4c0.6,0,1.2,0.2,1.6,0.7l0.1-0.6h1.9v6.3c0,0.5-0.1,1.1-0.4,1.5c-0.3,0.4-0.7,0.8-1.2,1
		c-0.6,0.2-1.2,0.4-1.8,0.3c-0.5,0-1-0.1-1.4-0.3c-0.4-0.1-0.8-0.4-1-0.7l0.9-1.2c0.4,0.4,0.9,0.7,1.5,0.7c0.7,0.1,1.3-0.4,1.4-1
		c0-0.1,0-0.2,0-0.3v-0.2c-0.4,0.4-0.9,0.7-1.5,0.6c-0.8,0-1.5-0.3-2-0.9C293.3,10919.5,293,10918.6,293.1,10917.7L293.1,10917.7z
		 M295.1,10917.8c0,0.4,0.1,0.9,0.3,1.3c0.2,0.3,0.5,0.5,0.9,0.5c0.4,0,0.8-0.1,1-0.4v-2.8c-0.2-0.3-0.6-0.5-1-0.4
		c-0.4,0-0.7,0.2-0.9,0.5C295.2,10916.8,295.1,10917.3,295.1,10917.8L295.1,10917.8z M304.6,10916.3l-0.7,0c-0.5-0.1-1,0.2-1.3,0.6
		v4.1h-2.1v-6.5h1.9l0.1,0.8c0.2-0.6,0.8-1,1.5-1c0.2,0,0.4,0,0.6,0.1L304.6,10916.3z M308.5,10921.1c-0.9,0-1.8-0.3-2.5-0.9
		c-0.6-0.6-1-1.5-0.9-2.3v-0.2c0-0.6,0.1-1.2,0.4-1.8c0.2-0.5,0.6-0.9,1.1-1.2c0.5-0.3,1.1-0.4,1.7-0.4c0.8,0,1.6,0.3,2.2,0.9
		c0.6,0.7,0.9,1.5,0.8,2.4v0.8h-4.1c0.1,0.3,0.2,0.6,0.5,0.9c0.3,0.2,0.6,0.3,1,0.3c0.6,0,1.2-0.2,1.5-0.7l0.9,1.1
		c-0.3,0.4-0.7,0.7-1.1,0.8C309.6,10921,309,10921.1,308.5,10921.1L308.5,10921.1z M308.3,10915.9c-0.6,0-1,0.4-1.1,1.2h2.1v-0.2
		c0-0.3-0.1-0.5-0.3-0.8C308.8,10916,308.6,10915.9,308.3,10915.9z M315.6,10919.2c0-0.2-0.1-0.3-0.3-0.4c-0.3-0.2-0.7-0.3-1-0.3
		c-0.4-0.1-0.9-0.2-1.3-0.4c-0.3-0.2-0.6-0.4-0.8-0.7c-0.2-0.3-0.3-0.6-0.3-0.9c0-0.6,0.3-1.1,0.8-1.5c0.6-0.4,1.3-0.6,2-0.6
		c0.7,0,1.5,0.2,2.1,0.6c0.5,0.4,0.8,0.9,0.8,1.5h-2.1c0-0.5-0.3-0.8-0.8-0.8c-0.2,0-0.4,0.1-0.5,0.2c-0.1,0.1-0.2,0.3-0.2,0.4
		c0,0.2,0.1,0.4,0.3,0.4c0.3,0.1,0.6,0.2,0.9,0.3c0.4,0.1,0.7,0.1,1,0.3c0.9,0.2,1.5,0.9,1.5,1.8c0,0.6-0.3,1.1-0.8,1.5
		c-0.6,0.4-1.4,0.6-2.1,0.6c-0.5,0-1-0.1-1.5-0.3c-0.4-0.2-0.8-0.5-1-0.8c-0.2-0.3-0.4-0.7-0.4-1.1h1.9c0,0.3,0.1,0.5,0.3,0.7
		c0.2,0.1,0.5,0.2,0.8,0.2c0.2,0,0.4,0,0.6-0.2C315.5,10919.5,315.6,10919.3,315.6,10919.2L315.6,10919.2z M318.3,10917.7
		c0-0.6,0.1-1.2,0.4-1.7c0.2-0.5,0.6-0.9,1.1-1.2c0.5-0.3,1.1-0.4,1.7-0.4c0.9,0,1.7,0.3,2.3,0.9c0.6,0.7,0.9,1.6,0.9,2.5v0.1
		c0,0.9-0.3,1.8-0.9,2.4c-0.6,0.6-1.5,0.9-2.3,0.9c-0.8,0-1.7-0.3-2.3-0.8c-0.6-0.6-0.9-1.4-0.9-2.3L318.3,10917.7z M320.4,10917.8
		c0,0.5,0.1,0.9,0.3,1.3c0.2,0.3,0.5,0.4,0.9,0.4c0.7,0,1.1-0.6,1.1-1.7v-0.2c0-1.2-0.4-1.8-1.1-1.8c-0.7,0-1.1,0.5-1.1,1.5
		L320.4,10917.8z M329.1,10919.2c0-0.2-0.1-0.3-0.3-0.4c-0.3-0.2-0.7-0.3-1-0.3c-0.4-0.1-0.9-0.2-1.3-0.4c-0.3-0.2-0.6-0.4-0.8-0.7
		c-0.2-0.3-0.3-0.6-0.3-0.9c0-0.6,0.3-1.1,0.8-1.5c0.6-0.4,1.3-0.6,2-0.6c0.7,0,1.5,0.2,2.1,0.6c0.5,0.4,0.8,0.9,0.8,1.5H329
		c0-0.5-0.3-0.8-0.8-0.8c-0.2,0-0.4,0.1-0.5,0.2c-0.1,0.1-0.2,0.3-0.2,0.4c0,0.2,0.1,0.4,0.3,0.4c0.3,0.1,0.6,0.2,0.9,0.3
		c0.4,0.1,0.7,0.1,1,0.3c0.9,0.2,1.5,0.9,1.5,1.8c0,0.6-0.3,1.1-0.8,1.5c-0.6,0.4-1.4,0.6-2.1,0.6c-0.5,0-1-0.1-1.5-0.3
		c-0.4-0.2-0.8-0.5-1-0.8c-0.2-0.3-0.4-0.7-0.4-1.1h1.9c0,0.3,0.1,0.5,0.3,0.7c0.2,0.1,0.5,0.2,0.8,0.2c0.2,0,0.4,0,0.6-0.2
		C329,10919.5,329.1,10919.3,329.1,10919.2L329.1,10919.2z M334.9,10917.7c0-0.9,0.2-1.7,0.7-2.5c0.4-0.6,1.2-0.9,1.9-0.9
		c0.6,0,1.1,0.2,1.5,0.7v-3.3h2.1v9.3h-1.9l-0.1-0.7c-0.4,0.5-1,0.8-1.6,0.8c-0.7,0-1.4-0.3-1.9-0.9
		C335.1,10919.5,334.9,10918.6,334.9,10917.7L334.9,10917.7z M337,10917.8c0,1.2,0.3,1.7,1,1.7c0.4,0,0.8-0.2,1-0.6v-2.5
		c-0.2-0.4-0.6-0.6-1-0.6c-0.6,0-1,0.5-1,1.5L337,10917.8z M345.5,10921.1c-0.9,0-1.8-0.3-2.5-0.9c-0.6-0.6-1-1.5-0.9-2.3v-0.2
		c0-0.6,0.1-1.2,0.4-1.8c0.2-0.5,0.6-0.9,1.1-1.2c0.5-0.3,1.1-0.4,1.7-0.4c0.8,0,1.6,0.3,2.2,0.9c0.6,0.7,0.9,1.5,0.8,2.4v0.8h-4.1
		c0.1,0.3,0.2,0.6,0.5,0.9c0.3,0.2,0.6,0.3,1,0.3c0.6,0,1.2-0.2,1.5-0.7l0.9,1.1c-0.3,0.4-0.7,0.7-1.1,0.8
		C346.5,10921,346,10921.1,345.5,10921.1L345.5,10921.1z M345.2,10915.9c-0.6,0-1,0.4-1.1,1.2h2.1v-0.2c0-0.3-0.1-0.5-0.3-0.8
		C345.8,10916,345.5,10915.9,345.2,10915.9z M354.9,10918.6l1-4.1h2.2l-2.2,6.5h-2.1l-2.2-6.5h2.2L354.9,10918.6z M362.4,10921
		c-0.1-0.2-0.2-0.4-0.2-0.6c-0.4,0.5-1,0.7-1.6,0.7c-0.6,0-1.2-0.2-1.6-0.6c-0.4-0.3-0.7-0.9-0.7-1.4c0-0.6,0.3-1.2,0.8-1.6
		c0.7-0.4,1.5-0.6,2.3-0.5h0.6v-0.3c0-0.6-0.3-0.9-0.8-0.9c-0.4-0.1-0.7,0.2-0.7,0.5c0,0.1,0,0.1,0,0.2h-2.1c0-0.6,0.3-1.2,0.8-1.5
		c0.6-0.4,1.3-0.6,2.1-0.6c0.7,0,1.4,0.2,2,0.6c0.5,0.4,0.8,1,0.8,1.7v2.9c0,0.5,0.1,0.9,0.3,1.4v0.1H362.4z M361.1,10919.7
		c0.2,0,0.4,0,0.6-0.2c0.2-0.1,0.3-0.2,0.4-0.4v-1h-0.6c-0.7,0-1.1,0.3-1.1,1c0,0.2,0.1,0.3,0.2,0.5
		C360.7,10919.6,360.9,10919.7,361.1,10919.7L361.1,10919.7z M367.5,10921h-2.1v-9.3h2.1L367.5,10921z M368.5,10917.7
		c0-0.6,0.1-1.2,0.4-1.7c0.2-0.5,0.6-0.9,1.1-1.2c0.5-0.3,1.1-0.4,1.7-0.4c0.9,0,1.7,0.3,2.3,0.9c0.6,0.7,0.9,1.6,0.9,2.5v0.1
		c0,0.9-0.3,1.8-0.9,2.4c-0.6,0.6-1.5,0.9-2.3,0.9c-0.8,0-1.7-0.3-2.3-0.8c-0.6-0.6-0.9-1.4-0.9-2.3L368.5,10917.7z M370.6,10917.8
		c0,0.5,0.1,0.9,0.3,1.3c0.2,0.3,0.5,0.4,0.9,0.4c0.7,0,1.1-0.6,1.1-1.7v-0.2c0-1.2-0.4-1.8-1.1-1.8c-0.7,0-1.1,0.5-1.1,1.5
		L370.6,10917.8z M379.8,10916.3l-0.7,0c-0.5-0.1-1,0.2-1.3,0.6v4.1h-2.1v-6.5h1.9l0.1,0.8c0.2-0.6,0.8-1,1.5-1c0.2,0,0.4,0,0.6,0.1
		L379.8,10916.3z M383.8,10921.1c-0.9,0-1.8-0.3-2.5-0.9c-0.6-0.6-1-1.5-0.9-2.3v-0.2c0-0.6,0.1-1.2,0.4-1.8
		c0.2-0.5,0.6-0.9,1.1-1.2c0.5-0.3,1.1-0.4,1.7-0.4c0.8,0,1.6,0.3,2.2,0.9c0.6,0.7,0.9,1.5,0.8,2.4v0.8h-4.1
		c0.1,0.3,0.2,0.6,0.5,0.9c0.3,0.2,0.6,0.3,1,0.3c0.6,0,1.2-0.2,1.5-0.7l0.9,1.1c-0.3,0.4-0.7,0.7-1.1,0.8
		C384.8,10921,384.3,10921.1,383.8,10921.1L383.8,10921.1z M383.6,10915.9c-0.6,0-1,0.4-1.1,1.2h2.1v-0.2c0-0.3-0.1-0.5-0.3-0.8
		C384.1,10916,383.8,10915.9,383.6,10915.9L383.6,10915.9z M390.9,10919.2c0-0.2-0.1-0.3-0.3-0.4c-0.3-0.2-0.7-0.3-1-0.3
		c-0.4-0.1-0.9-0.2-1.3-0.4c-0.3-0.2-0.6-0.4-0.8-0.7c-0.2-0.3-0.3-0.6-0.3-0.9c0-0.6,0.3-1.1,0.8-1.5c0.6-0.4,1.3-0.6,2-0.6
		c0.7,0,1.5,0.2,2.1,0.6c0.5,0.4,0.8,0.9,0.8,1.5h-2.1c0-0.5-0.3-0.8-0.8-0.8c-0.2,0-0.4,0.1-0.5,0.2c-0.1,0.1-0.2,0.3-0.2,0.4
		c0,0.2,0.1,0.4,0.3,0.4c0.3,0.1,0.6,0.2,0.9,0.3c0.4,0.1,0.7,0.1,1,0.3c0.9,0.2,1.5,0.9,1.5,1.8c0,0.6-0.3,1.1-0.8,1.5
		c-0.6,0.4-1.4,0.6-2.1,0.6c-0.5,0-1-0.1-1.5-0.3c-0.4-0.2-0.8-0.5-1-0.8c-0.2-0.3-0.4-0.7-0.4-1.1h1.9c0,0.3,0.1,0.5,0.3,0.7
		c0.2,0.1,0.5,0.2,0.8,0.2c0.2,0,0.4,0,0.6-0.2C390.8,10919.5,390.9,10919.3,390.9,10919.2z M286.5,10934.9l-0.7,0
		c-0.5-0.1-1,0.2-1.3,0.6v4.1h-2.1v-6.5h1.9l0.1,0.8c0.2-0.6,0.8-1,1.5-1c0.2,0,0.4,0,0.6,0.1L286.5,10934.9z M290.4,10939.7
		c-0.9,0-1.8-0.3-2.5-0.9c-0.6-0.6-1-1.5-0.9-2.3v-0.2c0-0.6,0.1-1.2,0.4-1.8c0.2-0.5,0.6-0.9,1.1-1.2c0.5-0.3,1.1-0.4,1.7-0.4
		c0.8,0,1.6,0.3,2.2,0.9c0.6,0.7,0.9,1.5,0.8,2.4v0.8h-4.1c0.1,0.3,0.2,0.6,0.5,0.9c0.3,0.2,0.6,0.3,1,0.3c0.6,0,1.2-0.2,1.5-0.7
		l0.9,1.1c-0.3,0.4-0.7,0.7-1.1,0.8C291.5,10939.6,290.9,10939.7,290.4,10939.7L290.4,10939.7z M290.2,10934.5c-0.6,0-1,0.4-1.1,1.2
		h2.1v-0.2c0-0.3-0.1-0.5-0.3-0.8C290.7,10934.6,290.5,10934.5,290.2,10934.5z M300.2,10936.4c0,0.9-0.2,1.7-0.7,2.4
		c-0.4,0.6-1.1,0.9-1.9,0.9c-0.6,0-1.1-0.2-1.5-0.7v3.1h-2.1v-9.1h1.9l0.1,0.6c0.4-0.5,1-0.7,1.6-0.7c0.7,0,1.5,0.3,1.9,0.9
		C300,10934.5,300.3,10935.4,300.2,10936.4L300.2,10936.4z M298.1,10936.2c0-1.2-0.3-1.7-1-1.7c-0.4,0-0.8,0.2-1,0.5v2.6
		c0.2,0.4,0.6,0.6,1,0.5c0.7,0,1-0.6,1-1.7V10936.2z M305.1,10934.9l-0.7,0c-0.5-0.1-1,0.2-1.3,0.6v4.1h-2.1v-6.5h1.9l0.1,0.8
		c0.2-0.6,0.8-1,1.5-1c0.2,0,0.4,0,0.6,0.1L305.1,10934.9z M309.1,10939.7c-0.9,0-1.8-0.3-2.5-0.9c-0.6-0.6-1-1.5-0.9-2.3v-0.2
		c0-0.6,0.1-1.2,0.4-1.8c0.2-0.5,0.6-0.9,1.1-1.2c0.5-0.3,1.1-0.4,1.7-0.4c0.8,0,1.6,0.3,2.2,0.9c0.6,0.7,0.9,1.5,0.8,2.4v0.8h-4.1
		c0.1,0.3,0.2,0.6,0.5,0.9c0.3,0.2,0.6,0.3,1,0.3c0.6,0,1.2-0.2,1.5-0.7l0.9,1.1c-0.3,0.4-0.7,0.7-1.1,0.8
		C310.1,10939.6,309.6,10939.7,309.1,10939.7L309.1,10939.7z M308.9,10934.5c-0.6,0-1,0.4-1.1,1.2h2.1v-0.2c0-0.3-0.1-0.5-0.3-0.8
		C309.4,10934.6,309.1,10934.5,308.9,10934.5z M316.2,10937.8c0-0.2-0.1-0.3-0.3-0.4c-0.3-0.2-0.7-0.3-1-0.3
		c-0.4-0.1-0.9-0.2-1.3-0.4c-0.3-0.2-0.6-0.4-0.8-0.7c-0.2-0.3-0.3-0.6-0.3-0.9c0-0.6,0.3-1.1,0.8-1.5c0.6-0.4,1.3-0.6,2-0.6
		c0.7,0,1.5,0.2,2.1,0.6c0.5,0.3,0.8,0.9,0.8,1.5h-2.1c0-0.5-0.3-0.8-0.8-0.8c-0.2,0-0.4,0.1-0.5,0.2c-0.1,0.1-0.2,0.3-0.2,0.4
		c0,0.2,0.1,0.4,0.3,0.4c0.3,0.1,0.6,0.2,0.9,0.3c0.4,0.1,0.7,0.1,1,0.3c0.9,0.2,1.5,0.9,1.5,1.8c0,0.6-0.3,1.1-0.8,1.5
		c-0.6,0.4-1.4,0.6-2.1,0.6c-0.5,0-1-0.1-1.5-0.3c-0.4-0.2-0.8-0.5-1-0.8c-0.2-0.3-0.4-0.7-0.4-1.1h1.9c0,0.3,0.1,0.5,0.3,0.7
		c0.2,0.1,0.5,0.2,0.8,0.2c0.2,0,0.4,0,0.6-0.2C316.1,10938.1,316.2,10937.9,316.2,10937.8L316.2,10937.8z M322.4,10939.7
		c-0.9,0-1.8-0.3-2.5-0.9c-0.6-0.6-1-1.5-0.9-2.3v-0.2c0-0.6,0.1-1.2,0.4-1.8c0.2-0.5,0.6-0.9,1.1-1.2c0.5-0.3,1.1-0.4,1.7-0.4
		c0.8,0,1.6,0.3,2.2,0.9c0.6,0.7,0.9,1.5,0.8,2.4v0.8h-4.1c0.1,0.3,0.2,0.6,0.5,0.9c0.3,0.2,0.6,0.3,1,0.3c0.6,0,1.2-0.2,1.5-0.7
		l0.9,1.1c-0.3,0.4-0.7,0.7-1.1,0.8C323.4,10939.6,322.9,10939.7,322.4,10939.7L322.4,10939.7z M322.1,10934.5c-0.6,0-1,0.4-1.1,1.2
		h2.1v-0.2c0-0.3-0.1-0.5-0.3-0.8C322.7,10934.6,322.4,10934.5,322.1,10934.5z M327.9,10933l0.1,0.8c0.4-0.6,1.2-0.9,1.9-0.9
		c0.6,0,1.2,0.2,1.5,0.6c0.4,0.5,0.6,1.2,0.5,1.8v4.2h-2.1v-4.1c0-0.3,0-0.5-0.2-0.7c-0.2-0.2-0.5-0.3-0.7-0.2
		c-0.4,0-0.7,0.2-0.9,0.5v4.6H326v-6.5H327.9z M335.5,10931.4v1.6h1.1v1.4h-1.1v3c0,0.2,0,0.4,0.1,0.5c0.2,0.1,0.3,0.2,0.5,0.1
		c0.2,0,0.3,0,0.5,0v1.5c-0.4,0.1-0.8,0.2-1.2,0.2c-0.6,0-1.1-0.1-1.6-0.5c-0.4-0.4-0.6-1-0.5-1.5v-3.2h-0.8v-1.4h0.8v-1.6
		L335.5,10931.4z M341.1,10939.6c-0.1-0.2-0.2-0.4-0.2-0.6c-0.4,0.5-1,0.7-1.6,0.7c-0.6,0-1.2-0.2-1.6-0.6c-0.4-0.3-0.7-0.9-0.7-1.4
		c0-0.6,0.3-1.2,0.8-1.6c0.7-0.4,1.5-0.6,2.3-0.5h0.6v-0.3c0-0.6-0.3-0.9-0.8-0.9c-0.4-0.1-0.7,0.2-0.7,0.5c0,0.1,0,0.1,0,0.2h-2.1
		c0-0.6,0.3-1.2,0.8-1.5c0.6-0.4,1.3-0.6,2.1-0.6c0.7,0,1.4,0.2,2,0.6c0.5,0.4,0.8,1,0.8,1.7v2.9c0,0.5,0.1,0.9,0.3,1.4v0.1H341.1z
		 M339.8,10938.3c0.2,0,0.4,0,0.6-0.2c0.2-0.1,0.3-0.2,0.4-0.4v-1h-0.6c-0.7,0-1.1,0.3-1.1,1c0,0.2,0.1,0.3,0.2,0.5
		C339.5,10938.2,339.7,10938.3,339.8,10938.3z M346.5,10931.4v1.6h1.1v1.4h-1.1v3c0,0.2,0,0.4,0.1,0.5c0.2,0.1,0.3,0.2,0.5,0.1
		c0.2,0,0.3,0,0.5,0v1.5c-0.4,0.1-0.8,0.2-1.2,0.2c-0.6,0-1.1-0.1-1.6-0.5c-0.4-0.4-0.6-1-0.5-1.5v-3.2h-0.8v-1.4h0.8v-1.6H346.5z
		 M350.6,10939.6h-2.1v-6.5h2.1V10939.6z M348.4,10931.4c0-0.3,0.1-0.5,0.3-0.7c0.5-0.4,1.2-0.4,1.7,0c0.4,0.4,0.4,1,0.1,1.4
		c0,0,0,0-0.1,0.1c-0.5,0.4-1.2,0.4-1.7,0C348.5,10931.9,348.4,10931.6,348.4,10931.4z M354.5,10937.2l1-4.1h2.2l-2.2,6.5h-2.1
		l-2.2-6.5h2.2L354.5,10937.2z M358,10936.3c0-0.6,0.1-1.2,0.4-1.7c0.2-0.5,0.6-0.9,1.1-1.2c0.5-0.3,1.1-0.4,1.7-0.4
		c0.9,0,1.7,0.3,2.3,0.9c0.6,0.7,0.9,1.6,0.9,2.5v0.1c0,0.9-0.3,1.8-0.9,2.4c-0.6,0.6-1.5,0.9-2.3,0.9c-0.8,0-1.7-0.3-2.3-0.8
		c-0.6-0.6-0.9-1.4-0.9-2.3L358,10936.3z M360,10936.4c0,0.5,0.1,0.9,0.3,1.3c0.2,0.3,0.5,0.4,0.9,0.4c0.7,0,1.1-0.6,1.1-1.7v-0.2
		c0-1.2-0.4-1.8-1.1-1.8c-0.7,0-1.1,0.5-1.1,1.5L360,10936.4z M368.8,10937.8c0-0.2-0.1-0.3-0.3-0.4c-0.3-0.2-0.7-0.3-1-0.3
		c-0.4-0.1-0.9-0.2-1.3-0.4c-0.3-0.2-0.6-0.4-0.8-0.7c-0.2-0.3-0.3-0.6-0.3-0.9c0-0.6,0.3-1.1,0.8-1.5c0.6-0.4,1.3-0.6,2-0.6
		c0.7,0,1.5,0.2,2.1,0.6c0.5,0.3,0.8,0.9,0.8,1.5h-2.1c0-0.5-0.3-0.8-0.8-0.8c-0.2,0-0.4,0.1-0.5,0.2c-0.1,0.1-0.2,0.3-0.2,0.4
		c0,0.2,0.1,0.4,0.3,0.4c0.3,0.1,0.6,0.2,0.9,0.3c0.4,0.1,0.7,0.1,1,0.3c0.9,0.2,1.5,0.9,1.5,1.8c0,0.6-0.3,1.1-0.8,1.5
		c-0.6,0.4-1.4,0.6-2.1,0.6c-0.5,0-1-0.1-1.5-0.3c-0.4-0.2-0.8-0.5-1-0.8c-0.2-0.3-0.4-0.7-0.4-1.1h1.9c0,0.3,0.1,0.5,0.3,0.7
		c0.2,0.1,0.5,0.2,0.8,0.2c0.2,0,0.4,0,0.6-0.2C368.7,10938.1,368.8,10937.9,368.8,10937.8L368.8,10937.8z M374.6,10936.3
		c0-0.9,0.2-1.7,0.7-2.5c0.4-0.6,1.2-0.9,1.9-0.9c0.6,0,1.1,0.2,1.5,0.7v-3.3h2.1v9.3h-1.9l-0.1-0.7c-0.4,0.5-1,0.8-1.6,0.8
		c-0.7,0-1.4-0.3-1.9-0.9C374.8,10938.1,374.5,10937.2,374.6,10936.3L374.6,10936.3z M376.7,10936.4c0,1.2,0.3,1.7,1,1.7
		c0.4,0,0.8-0.2,1-0.6v-2.5c-0.2-0.4-0.6-0.6-1-0.6c-0.6,0-1,0.5-1,1.5L376.7,10936.4z M385.1,10939.7c-0.9,0-1.8-0.3-2.5-0.9
		c-0.6-0.6-1-1.5-0.9-2.3v-0.2c0-0.6,0.1-1.2,0.4-1.8c0.2-0.5,0.6-0.9,1.1-1.2c0.5-0.3,1.1-0.4,1.7-0.4c0.8,0,1.6,0.3,2.2,0.9
		c0.6,0.7,0.9,1.5,0.8,2.4v0.8h-4.1c0.1,0.3,0.2,0.6,0.5,0.9c0.3,0.2,0.6,0.3,1,0.3c0.6,0,1.2-0.2,1.5-0.7l0.9,1.1
		c-0.3,0.4-0.7,0.7-1.1,0.8C386.2,10939.6,385.7,10939.7,385.1,10939.7L385.1,10939.7z M384.9,10934.5c-0.6,0-1,0.4-1.1,1.2h2.1
		v-0.2c0-0.3-0.1-0.5-0.3-0.8C385.4,10934.6,385.2,10934.5,384.9,10934.5z M282.2,10954.9c0-0.9,0.2-1.7,0.7-2.5
		c0.4-0.6,1.2-0.9,1.9-0.9c0.6,0,1.1,0.2,1.5,0.7v-3.3h2.1v9.3h-1.9l-0.1-0.7c-0.4,0.5-1,0.8-1.6,0.8c-0.7,0-1.4-0.3-1.9-0.9
		C282.4,10956.7,282.1,10955.8,282.2,10954.9z M284.2,10955c0,1.2,0.3,1.7,1,1.7c0.4,0,0.8-0.2,1-0.6v-2.5c-0.2-0.4-0.6-0.6-1-0.6
		c-0.6,0-1,0.5-1,1.5L284.2,10955z M292.7,10958.3c-0.9,0-1.8-0.3-2.5-0.9c-0.6-0.6-1-1.5-0.9-2.3v-0.2c0-0.6,0.1-1.2,0.4-1.8
		c0.2-0.5,0.6-0.9,1.1-1.2c0.5-0.3,1.1-0.4,1.7-0.4c0.8,0,1.6,0.3,2.2,0.9c0.6,0.7,0.9,1.5,0.8,2.4v0.8h-4.1
		c0.1,0.3,0.2,0.6,0.5,0.9c0.3,0.2,0.6,0.3,1,0.3c0.6,0,1.2-0.2,1.5-0.7l0.9,1.1c-0.3,0.4-0.7,0.7-1.1,0.8
		C293.8,10958.2,293.2,10958.3,292.7,10958.3z M292.5,10953.1c-0.6,0-1,0.4-1.1,1.2h2.1v-0.2c0-0.3-0.1-0.5-0.3-0.8
		C293,10953.2,292.8,10953.1,292.5,10953.1z M300.3,10957.5c-0.4,0.5-1.1,0.9-1.8,0.8c-0.6,0-1.2-0.2-1.7-0.6
		c-0.4-0.5-0.6-1.2-0.6-1.8v-4.2h2.1v4.3c-0.1,0.4,0.2,0.8,0.6,0.8c0.1,0,0.1,0,0.2,0c0.4,0,0.8-0.2,1-0.5v-4.6h2.1v6.5h-1.9
		L300.3,10957.5z M303.2,10954.9c0-0.9,0.2-1.7,0.7-2.5c0.4-0.6,1.2-0.9,1.9-0.9c0.6,0,1.1,0.2,1.5,0.7v-3.3h2.1v9.3h-1.9l-0.1-0.7
		c-0.4,0.5-1,0.8-1.6,0.8c-0.7,0-1.4-0.3-1.9-0.9C303.4,10956.7,303.1,10955.8,303.2,10954.9L303.2,10954.9z M305.2,10955
		c0,1.2,0.3,1.7,1,1.7c0.4,0,0.8-0.2,1-0.6v-2.5c-0.2-0.4-0.6-0.6-1-0.6c-0.6,0-1,0.5-1,1.5L305.2,10955z M314.2,10958.2
		c-0.1-0.2-0.2-0.4-0.2-0.6c-0.4,0.5-1,0.7-1.6,0.7c-0.6,0-1.2-0.2-1.6-0.6c-0.4-0.3-0.7-0.9-0.7-1.4c0-0.6,0.3-1.2,0.8-1.6
		c0.7-0.4,1.5-0.6,2.3-0.5h0.6v-0.3c0-0.6-0.3-0.9-0.8-0.9c-0.4-0.1-0.7,0.2-0.7,0.5c0,0.1,0,0.1,0,0.2h-2.1c0-0.6,0.3-1.2,0.8-1.5
		c0.6-0.4,1.3-0.6,2.1-0.6c0.7,0,1.4,0.2,2,0.6c0.5,0.4,0.8,1,0.8,1.7v2.9c0,0.5,0.1,0.9,0.3,1.4v0.1H314.2z M312.9,10956.9
		c0.2,0,0.4,0,0.6-0.2c0.2-0.1,0.3-0.2,0.4-0.4v-1h-0.6c-0.7,0-1.1,0.3-1.1,1c0,0.2,0.1,0.3,0.2,0.5
		C312.6,10956.8,312.8,10956.9,312.9,10956.9L312.9,10956.9z"/>
	<path id="Trazado_102771" class="st2" d="M441.3,10871.2h-5.2v-0.7l2.7-3c0.3-0.3,0.6-0.7,0.8-1.1c0.2-0.3,0.2-0.6,0.2-0.9
		c0-0.4-0.1-0.7-0.4-1c-0.3-0.3-0.6-0.4-1-0.4c-0.4,0-0.9,0.1-1.2,0.4c-0.3,0.3-0.4,0.7-0.4,1.2h-1c0-0.7,0.2-1.3,0.7-1.7
		c0.5-0.5,1.2-0.7,1.9-0.7c0.6,0,1.3,0.2,1.8,0.6c0.4,0.4,0.7,0.9,0.6,1.5c0,0.8-0.5,1.7-1.5,2.8l-2.1,2.3h4V10871.2z
		 M442.8,10867.2l0.4-3.9h4.1v0.9h-3.2l-0.2,2.1c0.4-0.2,0.9-0.3,1.3-0.3c0.7,0,1.3,0.2,1.7,0.7c0.4,0.5,0.7,1.2,0.6,1.9
		c0,0.7-0.2,1.4-0.7,1.9c-0.5,0.5-1.2,0.7-1.9,0.7c-0.6,0-1.2-0.2-1.7-0.6c-0.5-0.4-0.7-1-0.8-1.6h1c0,0.4,0.2,0.7,0.5,1
		c0.3,0.2,0.7,0.4,1,0.3c0.4,0,0.8-0.2,1.1-0.5c0.3-0.4,0.4-0.8,0.4-1.3c0-0.5-0.1-0.9-0.4-1.3c-0.3-0.3-0.7-0.5-1.2-0.5
		c-0.4,0-0.7,0.1-1,0.3l-0.3,0.2L442.8,10867.2z M448.7,10870.6c0-0.2,0.1-0.3,0.2-0.4c0.1-0.1,0.3-0.2,0.5-0.2
		c0.2,0,0.3,0.1,0.5,0.2c0.1,0.1,0.2,0.3,0.2,0.4c0,0.2-0.1,0.3-0.2,0.4c-0.1,0.1-0.3,0.2-0.5,0.2
		C449.1,10871.2,448.8,10871,448.7,10870.6C448.7,10870.7,448.7,10870.7,448.7,10870.6L448.7,10870.6z M455.8,10868.5h1.1v0.8h-1.1
		v1.8h-1v-1.8h-3.6v-0.6l3.6-5.4h1.1L455.8,10868.5z M452.3,10868.5h2.5v-3.8l-0.1,0.2L452.3,10868.5z M462.1,10868.5h1.1v0.8h-1.1
		v1.8h-1v-1.8h-3.6v-0.6l3.6-5.4h1.1L462.1,10868.5z M458.6,10868.5h2.5v-3.8l-0.1,0.2L458.6,10868.5z M467.4,10871.2h-1v-6.6
		l-2,0.7v-0.9l2.9-1.1h0.2V10871.2z M470.4,10872.7l-0.6-0.4c0.3-0.4,0.5-0.9,0.5-1.5v-0.9h1v0.8c0,0.4-0.1,0.7-0.3,1.1
		C471,10872.2,470.7,10872.5,470.4,10872.7z M477.4,10865.4c0,0.4-0.1,0.7-0.3,1c-0.2,0.3-0.5,0.6-0.8,0.7c0.4,0.2,0.7,0.4,1,0.8
		c0.2,0.3,0.4,0.7,0.4,1.1c0,0.6-0.2,1.2-0.7,1.6c-1.1,0.8-2.6,0.8-3.7,0c-0.5-0.4-0.7-1-0.7-1.6c0-0.4,0.1-0.8,0.3-1.1
		c0.2-0.3,0.6-0.6,1-0.8c-0.3-0.2-0.6-0.4-0.8-0.7c-0.2-0.3-0.3-0.7-0.3-1c0-0.6,0.2-1.2,0.6-1.6c1-0.8,2.4-0.8,3.4,0
		C477.2,10864.2,477.4,10864.8,477.4,10865.4z M476.6,10869c0-0.4-0.1-0.8-0.4-1.1c-0.3-0.3-0.7-0.4-1.1-0.4c-0.8,0-1.5,0.5-1.5,1.3
		c0,0.1,0,0.1,0,0.2c0,0.4,0.1,0.8,0.4,1c0.7,0.5,1.6,0.5,2.2,0C476.4,10869.8,476.6,10869.4,476.6,10869L476.6,10869z M475,10864
		c-0.4,0-0.7,0.1-1,0.4c-0.3,0.3-0.4,0.6-0.4,1c0,0.4,0.1,0.7,0.4,1c0.5,0.5,1.4,0.5,1.9,0c0.2-0.3,0.4-0.6,0.4-1
		c0-0.4-0.1-0.7-0.4-1C475.7,10864.2,475.4,10864,475,10864z M482.7,10867.7c-0.2,0.2-0.5,0.4-0.8,0.6c-0.3,0.2-0.6,0.2-1,0.2
		c-0.4,0-0.8-0.1-1.2-0.3c-0.3-0.2-0.6-0.6-0.8-0.9c-0.2-0.4-0.3-0.9-0.3-1.3c0-0.5,0.1-1,0.3-1.4c0.2-0.4,0.5-0.7,0.9-1
		c0.4-0.2,0.8-0.3,1.3-0.3c0.7,0,1.4,0.3,1.9,0.9c0.5,0.7,0.7,1.5,0.7,2.4v0.3c0,1.5-0.3,2.6-0.9,3.3c-0.7,0.7-1.7,1.1-2.8,1.1h-0.2
		v-0.8h0.2c0.7,0,1.4-0.2,1.9-0.6C482.5,10869.1,482.7,10868.4,482.7,10867.7z M481.1,10867.7c0.3,0,0.7-0.1,0.9-0.3
		c0.3-0.2,0.5-0.5,0.6-0.8v-0.4c0-0.6-0.1-1.1-0.4-1.6c-0.4-0.6-1.2-0.8-1.8-0.4c-0.1,0.1-0.2,0.2-0.3,0.3c-0.3,0.4-0.4,0.9-0.4,1.3
		c0,0.5,0.1,0.9,0.4,1.3C480.3,10867.5,480.7,10867.7,481.1,10867.7L481.1,10867.7z"/>
	<path id="Trazado_102772" class="st2" d="M573.2,10942.5H568v-0.7l2.7-3c0.3-0.3,0.6-0.7,0.8-1.1c0.2-0.3,0.2-0.6,0.2-0.9
		c0-0.4-0.1-0.7-0.4-1c-0.3-0.3-0.6-0.4-1-0.4c-0.4,0-0.9,0.1-1.2,0.4c-0.3,0.3-0.4,0.7-0.4,1.2h-1c0-0.7,0.2-1.3,0.7-1.7
		c0.5-0.5,1.2-0.7,1.9-0.7c0.6,0,1.3,0.2,1.8,0.6c0.4,0.4,0.7,0.9,0.6,1.5c0,0.8-0.5,1.7-1.5,2.8l-2.1,2.3h4V10942.5z
		 M574.8,10938.5l0.4-3.9h4.1v0.9H576l-0.2,2.1c0.4-0.2,0.9-0.3,1.3-0.3c0.7,0,1.3,0.2,1.7,0.7c0.4,0.5,0.7,1.2,0.6,1.9
		c0,0.7-0.2,1.4-0.7,1.9c-0.5,0.5-1.2,0.7-1.9,0.7c-0.6,0-1.2-0.2-1.7-0.6c-0.5-0.4-0.7-1-0.8-1.6h1c0,0.4,0.2,0.7,0.5,1
		c0.3,0.2,0.7,0.4,1,0.3c0.4,0,0.8-0.2,1.1-0.5c0.3-0.4,0.4-0.8,0.4-1.3c0-0.5-0.1-0.9-0.4-1.3c-0.3-0.3-0.7-0.5-1.2-0.5
		c-0.4,0-0.7,0.1-1,0.3l-0.3,0.2L574.8,10938.5z M580.7,10941.9c0-0.2,0.1-0.3,0.2-0.4c0.1-0.1,0.3-0.2,0.5-0.2c0.2,0,0.3,0,0.5,0.2
		c0.1,0.1,0.2,0.3,0.2,0.4c0,0.2-0.1,0.3-0.2,0.4c-0.1,0.1-0.3,0.2-0.5,0.2C581,10942.6,580.7,10942.3,580.7,10941.9
		C580.7,10942,580.7,10942,580.7,10941.9L580.7,10941.9z M587.8,10939.8h1.1v0.8h-1.1v1.8h-1v-1.8h-3.6v-0.6l3.6-5.4h1.1
		L587.8,10939.8z M584.3,10939.8h2.5v-3.8l-0.1,0.2L584.3,10939.8z M594,10939.8h1.1v0.8H594v1.8h-1v-1.8h-3.6v-0.6l3.6-5.4h1.1
		L594,10939.8z M590.6,10939.8h2.5v-3.8l-0.1,0.2L590.6,10939.8z M599.4,10942.5h-1v-6.6l-2,0.7v-0.9l2.9-1.1h0.2V10942.5z
		 M602.4,10944l-0.6-0.4c0.3-0.4,0.5-0.9,0.5-1.5v-0.9h1v0.8c0,0.4-0.1,0.7-0.3,1.1C602.9,10943.5,602.7,10943.8,602.4,10944z
		 M609.3,10936.7c0,0.4-0.1,0.7-0.3,1c-0.2,0.3-0.5,0.6-0.8,0.7c0.4,0.2,0.7,0.4,1,0.8c0.2,0.3,0.4,0.7,0.4,1.1
		c0,0.6-0.2,1.2-0.7,1.6c-1.1,0.8-2.6,0.8-3.7,0c-0.5-0.4-0.7-1-0.7-1.6c0-0.4,0.1-0.8,0.3-1.1c0.2-0.3,0.6-0.6,1-0.8
		c-0.3-0.2-0.6-0.4-0.8-0.7c-0.2-0.3-0.3-0.7-0.3-1c0-0.6,0.2-1.2,0.6-1.6c1-0.8,2.4-0.8,3.4,0
		C609.1,10935.5,609.4,10936.1,609.3,10936.7z M608.5,10940.3c0-0.4-0.1-0.8-0.4-1.1c-0.3-0.3-0.7-0.4-1.1-0.4
		c-0.8,0-1.5,0.5-1.5,1.3c0,0.1,0,0.1,0,0.2c0,0.4,0.1,0.8,0.4,1c0.7,0.5,1.6,0.5,2.2,0C608.4,10941.1,608.5,10940.7,608.5,10940.3
		L608.5,10940.3z M607,10935.3c-0.4,0-0.7,0.1-1,0.4c-0.3,0.3-0.4,0.6-0.4,1c0,0.4,0.1,0.7,0.4,1c0.5,0.5,1.4,0.5,1.9,0
		c0.2-0.3,0.4-0.6,0.4-1c0-0.4-0.1-0.7-0.4-1C607.7,10935.5,607.4,10935.3,607,10935.3z M614.7,10939c-0.2,0.2-0.5,0.4-0.8,0.6
		c-0.3,0.2-0.6,0.2-1,0.2c-0.4,0-0.8-0.1-1.2-0.3c-0.3-0.2-0.6-0.6-0.8-0.9c-0.2-0.4-0.3-0.9-0.3-1.3c0-0.5,0.1-1,0.3-1.4
		c0.2-0.4,0.5-0.7,0.9-1c0.4-0.2,0.8-0.3,1.3-0.3c0.7,0,1.4,0.3,1.9,0.9c0.5,0.7,0.7,1.5,0.7,2.4v0.3c0,1.5-0.3,2.6-0.9,3.3
		c-0.7,0.7-1.7,1.1-2.8,1.1h-0.2v-0.8h0.2c0.7,0,1.4-0.2,1.9-0.6C614.4,10940.4,614.7,10939.7,614.7,10939z M613.1,10939
		c0.3,0,0.7-0.1,0.9-0.3c0.3-0.2,0.5-0.5,0.6-0.8v-0.4c0-0.6-0.1-1.1-0.4-1.6c-0.4-0.6-1.2-0.8-1.8-0.4c-0.1,0.1-0.2,0.2-0.3,0.3
		c-0.3,0.4-0.4,0.9-0.4,1.3c0,0.5,0.1,0.9,0.4,1.3C612.3,10938.8,612.7,10939,613.1,10939L613.1,10939z"/>
	<line id="Línea_165" class="st3" x1="404" y1="10769.2" x2="404" y2="10977.5"/>
	<line id="Línea_166" class="st3" x1="531" y1="10769.2" x2="531" y2="10977.5"/>
	<path id="Trazado_99542" class="st4" d="M266.5,10727.5h400v41.8h-400V10727.5z"/>
	<path id="Trazado_102765" class="st1" d="M311.9,10748.7c0,0.8-0.3,1.5-0.7,2.2c-0.4,0.6-1,1.1-1.7,1.5c-0.8,0.4-1.7,0.5-2.5,0.5
		c-1.4,0.1-2.8-0.5-3.7-1.5c-1-1.2-1.4-2.7-1.4-4.3v-0.6c0-1,0.2-2.1,0.6-3c0.4-0.8,1-1.5,1.8-2c0.8-0.5,1.7-0.7,2.7-0.7
		c1.3-0.1,2.5,0.3,3.5,1.1c0.9,0.8,1.4,1.9,1.5,3.1h-2.9c0-0.6-0.2-1.1-0.5-1.5c-0.4-0.3-1-0.5-1.6-0.5c-0.6,0-1.2,0.3-1.6,0.8
		c-0.4,0.8-0.6,1.7-0.5,2.5v0.8c-0.1,0.9,0.1,1.8,0.5,2.7c0.4,0.6,1,0.9,1.6,0.8c0.5,0,1.1-0.1,1.5-0.5c0.4-0.4,0.6-0.9,0.6-1.5
		L311.9,10748.7z M322.6,10741v7.7c0,0.8-0.2,1.6-0.6,2.3c-0.4,0.6-0.9,1.1-1.6,1.5c-0.8,0.3-1.6,0.5-2.5,0.5
		c-1.2,0.1-2.5-0.3-3.4-1.1c-0.9-0.8-1.3-1.9-1.3-3v-7.7h2.9v7.8c0,1.3,0.6,1.9,1.8,1.9c0.5,0,1-0.1,1.4-0.5c0.3-0.5,0.5-1,0.5-1.6
		v-7.7H322.6z M331.8,10747.7h-4.5v2.8h5.3v2.2h-8.2v-11.7h8.2v2.2h-5.4v2.5h4.5L331.8,10747.7z M343.7,10752.7h-2.9l-4.2-7.3v7.3
		h-2.9v-11.7h2.9l4.2,7.3v-7.3h2.9L343.7,10752.7z M354.9,10743.1h-3.6v9.6h-2.9v-9.6h-3.5v-2.2h10L354.9,10743.1z M361.9,10750.5
		H358l-0.7,2.2h-3.1l4.4-11.7h2.7l4.4,11.7h-3.1L361.9,10750.5z M358.7,10748.3h2.6l-1.3-4.1L358.7,10748.3z"/>
	<path id="Trazado_102766" class="st1" d="M431.4,10754.2v-11.7h3.8c1,0,2,0.2,2.8,0.7c0.8,0.5,1.5,1.2,2,2c0.5,0.9,0.7,1.9,0.7,2.9
		v0.5c0,1-0.2,2-0.7,2.9c-0.4,0.8-1.1,1.5-1.9,2c-0.9,0.5-1.8,0.7-2.8,0.7H431.4z M434.3,10744.6v7.4h1c0.7,0,1.5-0.3,1.9-0.9
		c0.5-0.8,0.7-1.7,0.7-2.6v-0.5c0.1-0.9-0.2-1.8-0.7-2.6c-0.5-0.6-1.2-0.9-1.9-0.9H434.3z M449.6,10749.2h-4.5v2.8h5.3v2.2h-8.2
		v-11.7h8.2v2.2h-5.4v2.5h4.5V10749.2z M447,10739.3h2.9l-2.3,2.5l-2.2,0L447,10739.3z M451.6,10754.2v-11.7h4.3
		c1.2-0.1,2.4,0.2,3.5,0.8c0.8,0.5,1.2,1.5,1.2,2.4c0,0.5-0.1,1.1-0.4,1.6c-0.3,0.4-0.7,0.8-1.3,1c0.6,0.1,1.1,0.4,1.4,0.9
		c0.3,0.5,0.5,1,0.5,1.6c0.1,1-0.3,2-1.1,2.6c-1,0.6-2.1,1-3.3,0.9H451.6z M454.5,10749.2v2.8h1.9c0.4,0,0.9-0.1,1.2-0.4
		c0.3-0.2,0.4-0.6,0.4-1c0.1-0.7-0.4-1.4-1.1-1.5c-0.1,0-0.2,0-0.4,0H454.5z M454.5,10747.3h1.5c0.5,0,0.9-0.1,1.3-0.3
		c0.3-0.2,0.4-0.6,0.4-1c0-0.4-0.1-0.8-0.4-1.1c-0.4-0.3-0.9-0.4-1.4-0.3h-1.4L454.5,10747.3z M465.5,10754.2h-2.9v-11.7h2.9
		V10754.2z M476.8,10744.6h-3.6v9.6h-2.9v-9.6h-3.5v-2.2h10V10744.6z M487.9,10748.6c0,1-0.2,2.1-0.6,3c-0.4,0.8-1,1.6-1.8,2
		c-0.8,0.5-1.8,0.7-2.7,0.7c-0.9,0-1.9-0.2-2.7-0.7c-0.8-0.5-1.4-1.2-1.8-2c-0.5-0.9-0.7-1.9-0.7-2.9v-0.7c0-1,0.2-2.1,0.6-3
		c0.4-0.8,1-1.6,1.8-2c0.8-0.5,1.8-0.7,2.7-0.7c0.9,0,1.9,0.2,2.7,0.7c0.8,0.5,1.4,1.2,1.8,2c0.5,0.9,0.7,2,0.7,3V10748.6z
		 M485,10748.1c0.1-0.9-0.1-1.8-0.6-2.7c-0.4-0.6-1-0.9-1.7-0.9c-1.4,0-2.2,1.1-2.3,3.2l0,0.9c-0.1,0.9,0.1,1.8,0.6,2.7
		c0.4,0.6,1,1,1.7,0.9c0.7,0,1.3-0.3,1.7-0.9c0.4-0.8,0.6-1.7,0.6-2.6L485,10748.1z M495.5,10751.1c0-0.4-0.1-0.7-0.4-1
		c-0.5-0.3-1-0.6-1.6-0.7c-0.6-0.2-1.2-0.4-1.8-0.7c-1.5-0.7-2.3-1.8-2.3-3.1c0-0.6,0.2-1.2,0.6-1.7c0.4-0.5,1-0.9,1.6-1.2
		c0.8-0.3,1.6-0.4,2.4-0.4c0.8,0,1.6,0.1,2.3,0.5c0.6,0.3,1.2,0.7,1.6,1.3c0.4,0.6,0.6,1.2,0.6,1.9h-2.9c0-0.4-0.1-0.8-0.4-1.1
		c-0.3-0.3-0.8-0.4-1.2-0.4c-0.4,0-0.9,0.1-1.2,0.3c-0.3,0.2-0.4,0.5-0.4,0.9c0,0.3,0.2,0.6,0.5,0.8c0.5,0.3,1.1,0.6,1.7,0.8
		c0.7,0.2,1.4,0.5,2,0.8c1.2,0.6,1.9,1.7,1.9,3c0,0.9-0.4,1.9-1.2,2.4c-1,0.6-2.1,0.9-3.2,0.9c-0.9,0-1.8-0.2-2.6-0.5
		c-0.7-0.3-1.3-0.8-1.8-1.4c-0.4-0.6-0.6-1.3-0.6-2.1h2.9c0,0.5,0.1,1,0.5,1.4c0.5,0.3,1,0.5,1.6,0.4c0.4,0,0.8-0.1,1.1-0.3
		C495.4,10751.7,495.6,10751.4,495.5,10751.1z"/>
	<path id="Trazado_102767" class="st1" d="M567.4,10750.1c0,0.8-0.3,1.5-0.7,2.2c-0.4,0.6-1,1.1-1.7,1.5c-0.8,0.4-1.7,0.5-2.5,0.5
		c-1.4,0.1-2.8-0.5-3.7-1.5c-1-1.2-1.4-2.7-1.4-4.3v-0.6c0-1,0.2-2.1,0.6-3c0.4-0.8,1-1.5,1.8-2c0.8-0.5,1.7-0.7,2.7-0.7
		c1.3-0.1,2.5,0.3,3.5,1.1c0.9,0.8,1.4,1.9,1.5,3.1h-2.9c0-0.6-0.2-1.1-0.5-1.5c-0.4-0.3-1-0.5-1.6-0.5c-0.6,0-1.2,0.3-1.6,0.8
		c-0.4,0.8-0.6,1.7-0.5,2.5v0.8c-0.1,0.9,0.1,1.8,0.5,2.7c0.4,0.6,1,0.9,1.6,0.8c0.5,0,1.1-0.1,1.5-0.5c0.4-0.4,0.6-0.9,0.6-1.5
		L567.4,10750.1z M573.2,10749.9h-1.6v4.2h-2.9v-11.7h4.7c1.2-0.1,2.3,0.3,3.3,0.9c0.8,0.6,1.2,1.6,1.2,2.6c0,0.7-0.1,1.4-0.5,2
		c-0.4,0.6-0.9,1-1.6,1.3l2.5,4.7v0.1h-3.1L573.2,10749.9z M571.7,10747.7h1.8c0.5,0,0.9-0.1,1.2-0.4c0.3-0.3,0.4-0.8,0.4-1.2
		c0-0.4-0.1-0.9-0.4-1.2c-0.3-0.3-0.8-0.5-1.2-0.4h-1.8L571.7,10747.7z M587.1,10749.1h-4.5v2.8h5.3v2.2h-8.2v-11.7h8.2v2.2h-5.4
		v2.5h4.5L587.1,10749.1z M584.4,10739.2h2.9l-2.3,2.5l-2.2,0L584.4,10739.2z M589.1,10754.1v-11.7h3.8c1,0,2,0.2,2.8,0.7
		c0.8,0.5,1.5,1.2,2,2c0.5,0.9,0.7,1.9,0.7,2.9v0.5c0,1-0.2,2-0.7,2.9c-0.4,0.8-1.1,1.5-1.9,2c-0.9,0.5-1.8,0.7-2.8,0.7H589.1z
		 M592,10744.5v7.4h1c0.7,0,1.5-0.3,1.9-0.9c0.5-0.8,0.7-1.7,0.7-2.6v-0.5c0.1-0.9-0.2-1.8-0.7-2.6c-0.5-0.6-1.2-0.9-1.9-0.9H592z
		 M603,10754.1h-2.9v-11.7h2.9V10754.1z M614.3,10744.5h-3.6v9.6h-2.9v-9.6h-3.5v-2.2h10V10744.5z M625.4,10748.4c0,1-0.2,2.1-0.6,3
		c-0.4,0.8-1,1.6-1.8,2c-0.8,0.5-1.8,0.7-2.7,0.7c-0.9,0-1.9-0.2-2.7-0.7c-0.8-0.5-1.4-1.2-1.8-2c-0.5-0.9-0.7-1.9-0.7-2.9v-0.7
		c0-1,0.2-2.1,0.6-3c0.4-0.8,1-1.6,1.8-2c0.8-0.5,1.8-0.7,2.7-0.7c0.9,0,1.9,0.2,2.7,0.7c0.8,0.5,1.4,1.2,1.8,2c0.5,0.9,0.7,2,0.7,3
		V10748.4z M622.5,10748c0.1-0.9-0.1-1.8-0.6-2.7c-0.4-0.6-1-0.9-1.7-0.9c-1.4,0-2.2,1.1-2.3,3.2l0,0.9c-0.1,0.9,0.1,1.8,0.6,2.7
		c0.4,0.6,1,1,1.7,0.9c0.7,0,1.3-0.3,1.7-0.9c0.4-0.8,0.6-1.7,0.6-2.6V10748z M633,10751c0-0.4-0.1-0.7-0.4-1
		c-0.5-0.3-1-0.6-1.6-0.7c-0.6-0.2-1.2-0.4-1.8-0.7c-1.5-0.7-2.3-1.8-2.3-3.1c0-0.6,0.2-1.2,0.6-1.7c0.4-0.5,1-0.9,1.6-1.2
		c0.8-0.3,1.6-0.4,2.4-0.4c0.8,0,1.6,0.1,2.3,0.5c0.6,0.3,1.2,0.7,1.6,1.3c0.4,0.6,0.6,1.2,0.6,1.9H633c0-0.4-0.1-0.8-0.4-1.1
		c-0.3-0.3-0.8-0.4-1.2-0.4c-0.4,0-0.9,0.1-1.2,0.3c-0.3,0.2-0.4,0.5-0.4,0.9c0,0.3,0.2,0.6,0.5,0.8c0.5,0.3,1.1,0.6,1.7,0.8
		c0.7,0.2,1.4,0.5,2,0.8c1.2,0.6,1.9,1.7,1.9,3c0,0.9-0.4,1.9-1.2,2.4c-1,0.6-2.1,0.9-3.2,0.9c-0.9,0-1.8-0.2-2.6-0.5
		c-0.7-0.3-1.3-0.8-1.8-1.4c-0.4-0.6-0.6-1.3-0.6-2.1h2.9c0,0.5,0.1,1,0.5,1.4c0.5,0.3,1,0.5,1.6,0.4c0.4,0,0.8-0.1,1.1-0.3
		C632.9,10751.6,633,10751.3,633,10751z"/>
</g>
</svg>
