<?xml version="1.0" encoding="utf-8"?>
<!-- Generator: Adobe Illustrator 25.2.3, SVG Export Plug-In . SVG Version: 6.00 Build 0)  -->
<svg version="1.1" id="Capa_1" xmlns="http://www.w3.org/2000/svg" xmlns:xlink="http://www.w3.org/1999/xlink" x="0px" y="0px"
	 viewBox="0 0 573 363.7" style="enable-background:new 0 0 573 363.7;" xml:space="preserve">
<style type="text/css">
	.st0{fill:#F6F6F6;}
	.st1{fill:#FFFFFF;}
	.st2{fill:#12263F;}
	.st3{font-family:'Roboto-Bold';}
	.st4{font-size:13.8779px;}
	.st5{font-family:'Roboto-Regular';}
	.st6{font-size:12.3359px;}
	.st7{fill:none;stroke:#AFAFAF;stroke-linecap:round;}
	.st8{fill:#D9A171;}
	.st9{font-size:18.5039px;}
</style>
<g id="Grupo_54953" transform="translate(-180 -10670.873)">
	<rect id="Rectángulo_5424" x="251.5" y="10759.2" class="st0" width="430" height="88.7"/>
	<rect id="Rectángulo_5428" x="251.5" y="10901" class="st0" width="430" height="91.5"/>
	<rect id="Rectángulo_5426" x="251.5" y="10847.2" class="st1" width="430" height="53.8"/>
	<text transform="matrix(0.9733 0 0 1 268.0098 10881.4346)" class="st2 st3 st4">a largo plazo</text>
	<text transform="matrix(0.9733 0 0 1 268.0098 10790.8496)" class="st2 st3 st4">Valores </text>
	<text transform="matrix(0.9733 0 0 1 268.0098 10811.666)" class="st2 st3 st4">representativos de </text>
	<text transform="matrix(0.9733 0 0 1 268.0098 10832.4805)" class="st2 st3 st4">deuda a largo plazo</text>
	<text transform="matrix(0.9733 0 0 1 268.0098 10929.2363)" class="st2 st3 st4">Ingresos de valores </text>
	<text transform="matrix(0.9733 0 0 1 268.0098 10950.0537)" class="st2 st3 st4">representativos de </text>
	<text transform="matrix(0.9733 0 0 1 268.0098 10970.8682)" class="st2 st3 st4">deuda</text>
	<text transform="matrix(0.9733 0 0 1 433.0801 10873.3936)" class="st2 st5 st6">25.441,89</text>
	<text transform="matrix(0.9733 0 0 1 574.9395 10953.2559)" class="st2 st5 st6">25.441,89</text>
	<line id="Línea_165" class="st7" x1="399.3" y1="10759.2" x2="399.3" y2="10992.5"/>
	<line id="Línea_166" class="st7" x1="535.9" y1="10759.2" x2="535.9" y2="10992.5"/>
	<path id="Trazado_99542" class="st8" d="M251.5,10712.5h429.9v46.8H251.5V10712.5z"/>
	<text transform="matrix(0.9733 0 0 1 289.0039 10740.7344)" class="st1 st3 st9">CUENTA</text>
	<text transform="matrix(0.9733 0 0 1 427.8301 10742.3984)" class="st1 st3 st9">DÉBITOS</text>
	<text transform="matrix(0.9733 0 0 1 563.6865 10742.2773)" class="st1 st3 st9">CRÉDITOS</text>
</g>
</svg>
