<?xml version="1.0" encoding="utf-8"?>
<!-- Generator: Adobe Illustrator 25.2.3, SVG Export Plug-In . SVG Version: 6.00 Build 0)  -->
<svg version="1.1" id="Capa_1" xmlns="http://www.w3.org/2000/svg" xmlns:xlink="http://www.w3.org/1999/xlink" x="0px" y="0px"
	 viewBox="0 0 573 301.1" style="enable-background:new 0 0 573 301.1;" xml:space="preserve">
<style type="text/css">
	.st0{fill:#F6F6F6;}
	.st1{fill:#FFFFFF;}
	.st2{fill:#12263F;}
	.st3{fill:none;stroke:#AFAFAF;stroke-linecap:round;}
	.st4{fill:#D9A171;}
</style>
<g id="Grupo_54954" transform="translate(-520 -1303.151)">
	<rect id="Rectángulo_5425" x="606.5" y="1387.9" class="st0" width="400" height="83.5"/>
	<rect id="Rectángulo_5427" x="606.5" y="1471.4" class="st1" width="400" height="89.2"/>
	<path id="Trazado_102778" class="st2" d="M626,1498.9l1.8-6.8h2.4l-3,9.4h-2.4l-3-9.4h2.4L626,1498.9z M634.2,1501.4
		c-0.1-0.2-0.2-0.4-0.2-0.6c-0.4,0.5-1,0.8-1.6,0.8c-0.6,0-1.2-0.2-1.6-0.6c-0.4-0.4-0.7-0.9-0.7-1.5c0-0.7,0.3-1.3,0.8-1.7
		c0.7-0.4,1.5-0.6,2.3-0.6h0.6v-0.4c0-0.6-0.3-1-0.8-1c-0.4-0.1-0.7,0.2-0.7,0.6c0,0.1,0,0.1,0,0.2h-2.1c0-0.7,0.3-1.3,0.8-1.6
		c0.6-0.4,1.3-0.7,2.1-0.6c0.7,0,1.4,0.2,2,0.6c0.5,0.4,0.8,1.1,0.8,1.8v3.1c0,0.5,0.1,1,0.3,1.5v0.1H634.2z M632.9,1500
		c0.2,0,0.4-0.1,0.6-0.2c0.2-0.1,0.3-0.2,0.4-0.4v-1.1h-0.6c-0.7,0-1.1,0.3-1.1,1c0,0.2,0.1,0.4,0.2,0.5
		C632.5,1500,632.7,1500,632.9,1500z M639.3,1501.4h-2.1v-9.9h2.1V1501.4z M640.3,1497.9c0-0.6,0.1-1.3,0.4-1.9
		c0.2-0.5,0.6-1,1.1-1.3c0.5-0.3,1.1-0.5,1.7-0.4c0.9,0,1.7,0.3,2.3,1c0.6,0.7,0.9,1.7,0.9,2.6v0.1c0,0.9-0.3,1.9-0.9,2.6
		c-0.6,0.7-1.5,1-2.3,1c-0.8,0-1.7-0.3-2.3-0.9c-0.6-0.6-0.9-1.5-0.9-2.4L640.3,1497.9z M642.4,1498c0,0.5,0.1,1,0.3,1.4
		c0.2,0.3,0.5,0.5,0.9,0.5c0.7,0,1.1-0.6,1.1-1.8v-0.2c0-1.2-0.4-1.9-1.1-1.9c-0.7,0-1.1,0.5-1.1,1.6L642.4,1498z M651.7,1496.4
		l-0.7-0.1c-0.5-0.1-1,0.2-1.3,0.6v4.4h-2.1v-7h1.9l0.1,0.9c0.2-0.6,0.8-1,1.5-1c0.2,0,0.4,0,0.6,0.1L651.7,1496.4z M655.6,1501.6
		c-0.9,0-1.8-0.3-2.5-1c-0.6-0.7-1-1.6-0.9-2.5v-0.2c0-0.7,0.1-1.3,0.4-1.9c0.2-0.5,0.6-1,1.1-1.3c0.5-0.3,1.1-0.5,1.7-0.4
		c0.8,0,1.6,0.3,2.2,0.9c0.6,0.7,0.9,1.6,0.8,2.5v0.8h-4.1c0.1,0.4,0.2,0.7,0.5,0.9c0.3,0.2,0.6,0.4,1,0.3c0.6,0,1.2-0.2,1.5-0.7
		l0.9,1.2c-0.3,0.4-0.7,0.7-1.1,0.9C656.7,1501.5,656.1,1501.6,655.6,1501.6L655.6,1501.6z M655.4,1496c-0.6,0-1,0.4-1.1,1.3h2.1
		v-0.2c0-0.3-0.1-0.6-0.3-0.8C655.9,1496.1,655.7,1496,655.4,1496z M662.7,1499.5c0-0.2-0.1-0.4-0.3-0.4c-0.3-0.2-0.7-0.3-1-0.3
		c-0.4-0.1-0.9-0.3-1.3-0.5c-0.3-0.2-0.6-0.4-0.8-0.7c-0.2-0.3-0.3-0.6-0.3-1c0-0.6,0.3-1.2,0.8-1.6c0.6-0.4,1.3-0.7,2-0.6
		c0.7,0,1.5,0.2,2.1,0.6c0.5,0.4,0.8,1,0.8,1.6h-2.1c0-0.6-0.3-0.8-0.8-0.8c-0.2,0-0.4,0.1-0.5,0.2c-0.1,0.1-0.2,0.3-0.2,0.5
		c0,0.2,0.1,0.4,0.3,0.5c0.3,0.2,0.6,0.2,0.9,0.3c0.4,0.1,0.7,0.2,1,0.3c0.9,0.2,1.5,1,1.5,1.9c0,0.6-0.3,1.2-0.8,1.5
		c-0.6,0.4-1.4,0.6-2.1,0.6c-0.5,0-1-0.1-1.5-0.3c-0.4-0.2-0.8-0.5-1-0.9c-0.2-0.3-0.4-0.7-0.4-1.2h1.9c0,0.3,0.1,0.5,0.3,0.7
		c0.2,0.2,0.5,0.2,0.8,0.2c0.2,0,0.4,0,0.6-0.2C662.6,1499.8,662.7,1499.7,662.7,1499.5L662.7,1499.5z M626.5,1516.2l-0.7-0.1
		c-0.5-0.1-1,0.2-1.3,0.6v4.4h-2.1v-7h1.9l0.1,0.9c0.2-0.6,0.8-1,1.5-1c0.2,0,0.4,0,0.6,0.1L626.5,1516.2z M630.4,1521.3
		c-0.9,0-1.8-0.3-2.5-1c-0.6-0.7-1-1.6-0.9-2.5v-0.2c0-0.6,0.1-1.3,0.4-1.9c0.2-0.5,0.6-1,1.1-1.3c0.5-0.3,1.1-0.5,1.7-0.4
		c0.8,0,1.6,0.3,2.2,0.9c0.6,0.7,0.9,1.6,0.8,2.5v0.8h-4.1c0.1,0.4,0.2,0.7,0.5,0.9c0.3,0.2,0.6,0.4,1,0.3c0.6,0,1.2-0.2,1.5-0.7
		l0.9,1.2c-0.3,0.4-0.7,0.7-1.1,0.9C631.5,1521.2,630.9,1521.3,630.4,1521.3L630.4,1521.3z M630.2,1515.8c-0.6,0-1,0.4-1.1,1.3h2.1
		v-0.2c0-0.3-0.1-0.6-0.3-0.8C630.7,1515.9,630.5,1515.8,630.2,1515.8z M640.2,1517.8c0,0.9-0.2,1.8-0.7,2.6c-0.4,0.6-1.1,1-1.9,1
		c-0.6,0-1.1-0.2-1.5-0.7v3.2h-2.1v-9.6h1.9l0.1,0.6c0.4-0.5,1-0.8,1.6-0.8c0.7,0,1.5,0.3,1.9,1c0.5,0.8,0.7,1.7,0.7,2.6
		L640.2,1517.8z M638.1,1517.6c0-1.2-0.3-1.9-1-1.9c-0.4,0-0.8,0.2-1,0.6v2.7c0.2,0.4,0.6,0.6,1,0.6c0.7,0,1-0.6,1-1.8V1517.6z
		 M645.1,1516.2l-0.7-0.1c-0.5-0.1-1,0.2-1.3,0.6v4.4h-2.1v-7h1.9l0.1,0.9c0.2-0.6,0.8-1,1.5-1c0.2,0,0.4,0,0.6,0.1L645.1,1516.2z
		 M649.1,1521.3c-0.9,0-1.8-0.3-2.5-1c-0.6-0.7-1-1.6-0.9-2.5v-0.2c0-0.7,0.1-1.3,0.4-1.9c0.2-0.5,0.6-1,1.1-1.3
		c0.5-0.3,1.1-0.5,1.7-0.4c0.8,0,1.6,0.3,2.2,0.9c0.6,0.7,0.9,1.6,0.8,2.5v0.8h-4.1c0.1,0.4,0.2,0.7,0.5,0.9c0.3,0.2,0.6,0.4,1,0.3
		c0.6,0,1.2-0.2,1.5-0.7l0.9,1.2c-0.3,0.4-0.7,0.7-1.1,0.9C650.1,1521.2,649.6,1521.3,649.1,1521.3L649.1,1521.3z M648.9,1515.8
		c-0.6,0-1,0.4-1.1,1.3h2.1v-0.2c0-0.3-0.1-0.6-0.3-0.8C649.4,1515.9,649.1,1515.8,648.9,1515.8z M656.2,1519.2
		c0-0.2-0.1-0.4-0.3-0.4c-0.3-0.2-0.7-0.3-1-0.3c-0.4-0.1-0.9-0.3-1.3-0.5c-0.3-0.2-0.6-0.4-0.8-0.7c-0.2-0.3-0.3-0.6-0.3-1
		c0-0.6,0.3-1.2,0.8-1.6c0.6-0.4,1.3-0.7,2-0.6c0.7,0,1.5,0.2,2.1,0.6c0.5,0.4,0.8,1,0.8,1.6h-2.1c0-0.6-0.3-0.8-0.8-0.8
		c-0.2,0-0.4,0.1-0.5,0.2c-0.1,0.1-0.2,0.3-0.2,0.5c0,0.2,0.1,0.4,0.3,0.5c0.3,0.2,0.6,0.2,0.9,0.3c0.4,0.1,0.7,0.2,1,0.3
		c0.9,0.2,1.5,1,1.5,1.9c0,0.6-0.3,1.2-0.8,1.5c-0.6,0.4-1.4,0.6-2.1,0.6c-0.5,0-1-0.1-1.5-0.3c-0.4-0.2-0.8-0.5-1-0.9
		c-0.2-0.3-0.4-0.7-0.4-1.2h1.9c0,0.3,0.1,0.5,0.3,0.7c0.2,0.2,0.5,0.2,0.8,0.2c0.2,0,0.4,0,0.6-0.2
		C656.1,1519.6,656.2,1519.4,656.2,1519.2L656.2,1519.2z M662.4,1521.3c-0.9,0-1.8-0.3-2.5-1c-0.6-0.7-1-1.6-0.9-2.5v-0.2
		c0-0.7,0.1-1.3,0.4-1.9c0.2-0.5,0.6-1,1.1-1.3c0.5-0.3,1.1-0.5,1.7-0.4c0.8,0,1.6,0.3,2.2,0.9c0.6,0.7,0.9,1.6,0.8,2.5v0.8h-4.1
		c0.1,0.4,0.2,0.7,0.5,0.9c0.3,0.2,0.6,0.4,1,0.3c0.6,0,1.2-0.2,1.5-0.7l0.9,1.2c-0.3,0.4-0.7,0.7-1.1,0.9
		C663.4,1521.2,662.9,1521.3,662.4,1521.3L662.4,1521.3z M662.1,1515.8c-0.6,0-1,0.4-1.1,1.3h2.1v-0.2c0-0.3-0.1-0.6-0.3-0.8
		C662.7,1515.9,662.4,1515.8,662.1,1515.8z M667.9,1514.2l0.1,0.8c0.4-0.6,1.2-1,1.9-0.9c0.6,0,1.2,0.2,1.5,0.6
		c0.4,0.6,0.6,1.3,0.5,2v4.5h-2.1v-4.4c0-0.3,0-0.5-0.2-0.8c-0.2-0.2-0.5-0.3-0.7-0.2c-0.4,0-0.7,0.2-0.9,0.5v4.9H666v-7
		L667.9,1514.2z M675.5,1512.5v1.7h1.1v1.5h-1.1v3.2c0,0.2,0,0.4,0.1,0.5c0.2,0.1,0.3,0.2,0.5,0.2c0.2,0,0.3,0,0.5,0v1.5
		c-0.4,0.1-0.8,0.2-1.2,0.2c-0.6,0.1-1.1-0.1-1.6-0.5c-0.4-0.4-0.6-1-0.5-1.6v-3.5h-0.8v-1.5h0.8v-1.7L675.5,1512.5z M681.1,1521.2
		c-0.1-0.2-0.2-0.4-0.2-0.6c-0.4,0.5-1,0.8-1.6,0.8c-0.6,0-1.2-0.2-1.6-0.6c-0.4-0.4-0.7-0.9-0.7-1.5c0-0.7,0.3-1.3,0.8-1.7
		c0.7-0.4,1.5-0.6,2.3-0.6h0.6v-0.4c0-0.6-0.3-1-0.8-1c-0.4-0.1-0.7,0.2-0.7,0.6c0,0.1,0,0.1,0,0.2h-2.1c0-0.7,0.3-1.3,0.8-1.6
		c0.6-0.4,1.3-0.7,2.1-0.6c0.7,0,1.4,0.2,2,0.6c0.5,0.4,0.8,1.1,0.8,1.8v3.1c0,0.5,0.1,1,0.3,1.5v0.1H681.1z M679.8,1519.8
		c0.2,0,0.4-0.1,0.6-0.2c0.2-0.1,0.3-0.2,0.4-0.4v-1.1h-0.6c-0.7,0-1.1,0.3-1.1,1c0,0.2,0.1,0.4,0.2,0.5
		C679.5,1519.7,679.7,1519.8,679.8,1519.8z M686.5,1512.5v1.7h1.1v1.5h-1.1v3.2c0,0.2,0,0.4,0.1,0.5c0.2,0.1,0.3,0.2,0.5,0.2
		c0.2,0,0.3,0,0.5,0v1.5c-0.4,0.1-0.8,0.2-1.2,0.2c-0.6,0.1-1.1-0.1-1.6-0.5c-0.4-0.4-0.6-1-0.5-1.6v-3.5h-0.8v-1.5h0.8v-1.7H686.5z
		 M690.6,1521.2h-2.1v-7h2.1V1521.2z M688.4,1512.4c0-0.3,0.1-0.6,0.3-0.8c0.5-0.4,1.2-0.4,1.7,0c0.4,0.4,0.4,1,0.1,1.5
		c0,0,0,0-0.1,0.1c-0.5,0.4-1.2,0.4-1.7,0C688.5,1513,688.4,1512.7,688.4,1512.4z M694.5,1518.6l1-4.4h2.2l-2.2,7h-2.1l-2.2-7h2.2
		L694.5,1518.6z M698,1517.7c0-0.6,0.1-1.3,0.4-1.9c0.2-0.5,0.6-1,1.1-1.3c0.5-0.3,1.1-0.5,1.7-0.4c0.9,0,1.7,0.3,2.3,1
		c0.6,0.7,0.9,1.7,0.9,2.6v0.1c0,0.9-0.3,1.9-0.9,2.6c-0.6,0.7-1.5,1-2.3,1c-0.8,0-1.7-0.3-2.3-0.9c-0.6-0.6-0.9-1.5-0.9-2.4
		L698,1517.7z M700,1517.8c0,0.5,0.1,1,0.3,1.4c0.2,0.3,0.5,0.5,0.9,0.5c0.7,0,1.1-0.6,1.1-1.8v-0.2c0-1.2-0.4-1.9-1.1-1.9
		c-0.7,0-1.1,0.5-1.1,1.6L700,1517.8z M708.8,1519.2c0-0.2-0.1-0.4-0.3-0.4c-0.3-0.2-0.7-0.3-1-0.3c-0.4-0.1-0.9-0.3-1.3-0.5
		c-0.3-0.2-0.6-0.4-0.8-0.7c-0.2-0.3-0.3-0.6-0.3-1c0-0.6,0.3-1.2,0.8-1.6c0.6-0.4,1.3-0.7,2-0.6c0.7,0,1.5,0.2,2.1,0.6
		c0.5,0.4,0.8,1,0.8,1.6h-2.1c0-0.6-0.3-0.8-0.8-0.8c-0.2,0-0.4,0.1-0.5,0.2c-0.1,0.1-0.2,0.3-0.2,0.5c0,0.2,0.1,0.4,0.3,0.5
		c0.3,0.2,0.6,0.2,0.9,0.3c0.4,0.1,0.7,0.2,1,0.3c0.9,0.2,1.5,1,1.5,1.9c0,0.6-0.3,1.2-0.8,1.5c-0.6,0.4-1.4,0.6-2.1,0.6
		c-0.5,0-1-0.1-1.5-0.3c-0.4-0.2-0.8-0.5-1-0.9c-0.2-0.3-0.4-0.7-0.4-1.2h1.9c0,0.3,0.1,0.5,0.3,0.7c0.2,0.2,0.5,0.2,0.8,0.2
		c0.2,0,0.4,0,0.6-0.2C708.7,1519.6,708.8,1519.4,708.8,1519.2L708.8,1519.2z M714.6,1517.7c0-0.9,0.2-1.8,0.7-2.6
		c0.4-0.6,1.2-1,1.9-1c0.6,0,1.1,0.3,1.5,0.7v-3.5h2.1v9.9h-1.9l-0.1-0.7c-0.4,0.6-1,0.9-1.6,0.9c-0.7,0-1.4-0.3-1.9-1
		C714.8,1519.6,714.5,1518.6,714.6,1517.7L714.6,1517.7z M716.7,1517.8c0,1.2,0.3,1.9,1,1.9c0.4,0,0.8-0.2,1-0.6v-2.7
		c-0.2-0.4-0.6-0.6-1-0.6c-0.6,0-1,0.5-1,1.6L716.7,1517.8z M725.1,1521.3c-0.9,0-1.8-0.3-2.5-1c-0.6-0.7-1-1.6-0.9-2.5v-0.2
		c0-0.7,0.1-1.3,0.4-1.9c0.2-0.5,0.6-1,1.1-1.3c0.5-0.3,1.1-0.5,1.7-0.4c0.8,0,1.6,0.3,2.2,0.9c0.6,0.7,0.9,1.6,0.8,2.5v0.8h-4.1
		c0.1,0.4,0.2,0.7,0.5,0.9c0.3,0.2,0.6,0.4,1,0.3c0.6,0,1.2-0.2,1.5-0.7l0.9,1.2c-0.3,0.4-0.7,0.7-1.1,0.9
		C726.2,1521.2,725.7,1521.3,725.1,1521.3L725.1,1521.3z M724.9,1515.8c-0.6,0-1,0.4-1.1,1.3h2.1v-0.2c0-0.3-0.1-0.6-0.3-0.8
		C725.4,1515.9,725.2,1515.8,724.9,1515.8z M622.2,1537.4c0-0.9,0.2-1.8,0.7-2.6c0.4-0.6,1.2-1,1.9-1c0.6,0,1.1,0.3,1.5,0.7v-3.5
		h2.1v9.9h-1.9l-0.1-0.7c-0.4,0.6-1,0.9-1.6,0.9c-0.7,0-1.4-0.3-1.9-1C622.4,1539.3,622.1,1538.4,622.2,1537.4z M624.2,1537.6
		c0,1.2,0.3,1.9,1,1.9c0.4,0,0.8-0.2,1-0.6v-2.6c-0.2-0.4-0.6-0.6-1-0.6c-0.6,0-1,0.5-1,1.6L624.2,1537.6z M632.7,1541.1
		c-0.9,0-1.8-0.3-2.5-1c-0.6-0.7-1-1.6-0.9-2.5v-0.2c0-0.7,0.1-1.3,0.4-1.9c0.2-0.5,0.6-1,1.1-1.3c0.5-0.3,1.1-0.5,1.7-0.4
		c0.8,0,1.6,0.3,2.2,0.9c0.6,0.7,0.9,1.6,0.8,2.5v0.8h-4.1c0.1,0.4,0.2,0.7,0.5,0.9c0.3,0.2,0.6,0.4,1,0.3c0.6,0,1.2-0.2,1.5-0.7
		l0.9,1.2c-0.3,0.4-0.7,0.7-1.1,0.9C633.8,1541,633.2,1541.1,632.7,1541.1z M632.5,1535.5c-0.6,0-1,0.4-1.1,1.3h2.1v-0.2
		c0-0.3-0.1-0.6-0.3-0.8C633,1535.6,632.8,1535.5,632.5,1535.5z M640.3,1540.2c-0.4,0.6-1.1,0.9-1.8,0.9c-0.6,0-1.2-0.2-1.7-0.7
		c-0.4-0.5-0.6-1.2-0.6-1.9v-4.5h2.1v4.5c-0.1,0.4,0.2,0.8,0.6,0.9c0.1,0,0.1,0,0.2,0c0.4,0,0.8-0.2,1-0.5v-4.9h2.1v7h-1.9
		L640.3,1540.2z M643.2,1537.4c0-0.9,0.2-1.8,0.7-2.6c0.4-0.6,1.2-1,1.9-1c0.6,0,1.1,0.3,1.5,0.7v-3.5h2.1v9.9h-1.9l-0.1-0.7
		c-0.4,0.6-1,0.9-1.6,0.9c-0.7,0-1.4-0.3-1.9-1C643.4,1539.3,643.1,1538.4,643.2,1537.4L643.2,1537.4z M645.2,1537.6
		c0,1.2,0.3,1.9,1,1.9c0.4,0,0.8-0.2,1-0.6v-2.6c-0.2-0.4-0.6-0.6-1-0.6c-0.6,0-1,0.5-1,1.6L645.2,1537.6z M654.2,1541
		c-0.1-0.2-0.2-0.4-0.2-0.6c-0.4,0.5-1,0.8-1.6,0.8c-0.6,0-1.2-0.2-1.6-0.6c-0.4-0.4-0.7-0.9-0.7-1.5c0-0.7,0.3-1.3,0.8-1.7
		c0.7-0.4,1.5-0.6,2.3-0.6h0.6v-0.4c0-0.6-0.3-1-0.8-1c-0.4-0.1-0.7,0.2-0.7,0.6c0,0.1,0,0.1,0,0.2h-2.1c0-0.7,0.3-1.3,0.8-1.6
		c0.6-0.4,1.3-0.7,2.1-0.6c0.7,0,1.4,0.2,2,0.6c0.5,0.4,0.8,1.1,0.8,1.8v3.1c0,0.5,0.1,1,0.3,1.5v0.1H654.2z M652.9,1539.5
		c0.2,0,0.4-0.1,0.6-0.2c0.2-0.1,0.3-0.2,0.4-0.4v-1.1h-0.6c-0.7,0-1.1,0.3-1.1,1c0,0.2,0.1,0.4,0.2,0.5
		C652.6,1539.5,652.8,1539.5,652.9,1539.5L652.9,1539.5z M660.6,1539c0-0.2-0.1-0.4-0.3-0.4c-0.3-0.2-0.7-0.3-1-0.3
		c-0.4-0.1-0.9-0.3-1.3-0.5c-0.3-0.2-0.6-0.4-0.8-0.7c-0.2-0.3-0.3-0.6-0.3-1c0-0.6,0.3-1.2,0.8-1.6c0.6-0.4,1.3-0.7,2-0.6
		c0.7,0,1.5,0.2,2.1,0.6c0.5,0.4,0.8,1,0.8,1.6h-2.1c0-0.6-0.3-0.8-0.8-0.8c-0.2,0-0.4,0.1-0.5,0.2c-0.1,0.1-0.2,0.3-0.2,0.5
		c0,0.2,0.1,0.4,0.3,0.5c0.3,0.2,0.6,0.2,0.9,0.3c0.4,0.1,0.7,0.2,1,0.3c0.9,0.2,1.5,1,1.5,1.9c0,0.6-0.3,1.2-0.8,1.5
		c-0.6,0.4-1.4,0.6-2.1,0.6c-0.5,0-1-0.1-1.5-0.3c-0.4-0.2-0.8-0.5-1-0.9c-0.2-0.3-0.4-0.7-0.4-1.2h1.9c0,0.3,0.1,0.5,0.3,0.7
		c0.2,0.2,0.5,0.2,0.8,0.2c0.2,0,0.4,0,0.6-0.2C660.6,1539.3,660.6,1539.2,660.6,1539L660.6,1539z M670.5,1541
		c-0.1-0.2-0.2-0.4-0.2-0.6c-0.4,0.5-1,0.8-1.6,0.8c-0.6,0-1.2-0.2-1.6-0.6c-0.4-0.4-0.7-0.9-0.7-1.5c0-0.7,0.3-1.3,0.8-1.7
		c0.7-0.4,1.5-0.6,2.3-0.6h0.6v-0.4c0-0.6-0.3-1-0.8-1c-0.4-0.1-0.7,0.2-0.7,0.6c0,0.1,0,0.1,0,0.2h-2.1c0-0.7,0.3-1.3,0.8-1.6
		c0.6-0.4,1.3-0.7,2.1-0.6c0.7,0,1.4,0.2,2,0.6c0.5,0.4,0.8,1.1,0.8,1.8v3.1c0,0.5,0.1,1,0.3,1.5v0.1H670.5z M669.2,1539.5
		c0.2,0,0.4-0.1,0.6-0.2c0.2-0.1,0.3-0.2,0.4-0.4v-1.1h-0.6c-0.7,0-1.1,0.3-1.1,1c0,0.2,0.1,0.4,0.2,0.5
		C668.8,1539.5,669,1539.5,669.2,1539.5z M678.7,1541h-2.1v-9.9h2.1L678.7,1541z M683.7,1541c-0.1-0.2-0.2-0.4-0.2-0.6
		c-0.4,0.5-1,0.8-1.6,0.8c-0.6,0-1.2-0.2-1.6-0.6c-0.4-0.4-0.7-0.9-0.7-1.5c0-0.7,0.3-1.3,0.8-1.7c0.7-0.4,1.5-0.6,2.3-0.6h0.6v-0.4
		c0-0.6-0.3-1-0.8-1c-0.4-0.1-0.7,0.2-0.7,0.6c0,0.1,0,0.1,0,0.2h-2.1c0-0.7,0.3-1.3,0.8-1.6c0.6-0.4,1.3-0.7,2.1-0.6
		c0.7,0,1.4,0.2,2,0.6c0.5,0.4,0.8,1.1,0.8,1.8v3.1c0,0.5,0.1,1,0.3,1.5v0.1H683.7z M682.4,1539.5c0.2,0,0.4-0.1,0.6-0.2
		c0.2-0.1,0.3-0.2,0.4-0.4v-1.1h-0.6c-0.7,0-1.1,0.3-1.1,1c0,0.2,0.1,0.4,0.2,0.5C682.1,1539.5,682.3,1539.5,682.4,1539.5
		L682.4,1539.5z M690.7,1536l-0.7,0c-0.5-0.1-1,0.2-1.3,0.6v4.4h-2.1v-7h1.9l0.1,0.9c0.2-0.6,0.8-1,1.5-1c0.2,0,0.4,0,0.6,0.1
		L690.7,1536z M691.2,1537.4c0-0.6,0.1-1.3,0.3-1.9c0.2-0.5,0.5-0.9,1-1.3c0.4-0.3,0.9-0.5,1.4-0.4c0.6,0,1.2,0.2,1.6,0.7l0.1-0.6
		h1.9v6.7c0,0.6-0.1,1.1-0.4,1.6c-0.3,0.5-0.7,0.8-1.2,1c-0.6,0.3-1.2,0.4-1.8,0.4c-0.5,0-1-0.1-1.4-0.3c-0.4-0.2-0.8-0.4-1-0.8
		l0.9-1.3c0.4,0.5,0.9,0.7,1.5,0.7c0.7,0.1,1.3-0.4,1.4-1.1c0-0.1,0-0.2,0-0.4v-0.2c-0.4,0.5-0.9,0.7-1.5,0.7c-0.8,0-1.5-0.3-2-1
		C691.4,1539.4,691.1,1538.4,691.2,1537.4L691.2,1537.4z M693.2,1537.6c0,0.5,0.1,0.9,0.3,1.4c0.2,0.3,0.5,0.5,0.9,0.5
		c0.4,0,0.8-0.1,1-0.5v-2.9c-0.2-0.3-0.6-0.5-1-0.5c-0.4,0-0.7,0.2-0.9,0.5C693.3,1536.5,693.2,1537,693.2,1537.6L693.2,1537.6z
		 M698.4,1537.4c0-0.6,0.1-1.3,0.4-1.9c0.2-0.5,0.6-1,1.1-1.3c0.5-0.3,1.1-0.5,1.7-0.4c0.9,0,1.7,0.3,2.3,1c0.6,0.7,0.9,1.7,0.9,2.6
		v0.1c0,0.9-0.3,1.9-0.9,2.6c-0.6,0.7-1.5,1-2.3,1c-0.8,0-1.7-0.3-2.3-0.9c-0.6-0.6-0.9-1.5-0.9-2.4L698.4,1537.4z M700.5,1537.5
		c0,0.5,0.1,1,0.3,1.4c0.2,0.3,0.5,0.5,0.9,0.5c0.7,0,1.1-0.6,1.1-1.8v-0.2c0-1.2-0.4-1.9-1.1-1.9c-0.7,0-1.1,0.5-1.1,1.6
		L700.5,1537.5z M715,1537.5c0,0.9-0.2,1.8-0.7,2.6c-0.4,0.6-1.1,1-1.9,1c-0.6,0-1.1-0.2-1.5-0.7v3.2h-2.1v-9.6h1.9l0.1,0.6
		c0.4-0.5,1-0.8,1.6-0.8c0.7,0,1.5,0.3,1.9,1C714.8,1535.6,715,1536.5,715,1537.5L715,1537.5z M712.9,1537.4c0-1.2-0.3-1.9-1-1.9
		c-0.4,0-0.8,0.2-1,0.6v2.7c0.2,0.4,0.6,0.6,1,0.6c0.7,0,1-0.6,1-1.8V1537.4z M718.1,1541H716v-9.9h2.1V1541z M723.1,1541
		c-0.1-0.2-0.2-0.4-0.2-0.6c-0.4,0.5-1,0.8-1.6,0.8c-0.6,0-1.2-0.2-1.6-0.6c-0.4-0.4-0.7-0.9-0.7-1.5c0-0.7,0.3-1.3,0.8-1.7
		c0.7-0.4,1.5-0.6,2.3-0.6h0.6v-0.4c0-0.6-0.3-1-0.8-1c-0.4-0.1-0.7,0.2-0.7,0.6c0,0.1,0,0.1,0,0.2h-2.1c0-0.7,0.3-1.3,0.8-1.6
		c0.6-0.4,1.3-0.7,2.1-0.6c0.7,0,1.4,0.2,2,0.6c0.5,0.4,0.8,1.1,0.8,1.8v3.1c0,0.5,0.1,1,0.3,1.5v0.1H723.1z M721.8,1539.5
		c0.2,0,0.4-0.1,0.6-0.2c0.2-0.1,0.3-0.2,0.4-0.4v-1.1h-0.6c-0.7,0-1.1,0.3-1.1,1c0,0.2,0.1,0.4,0.2,0.5
		C721.5,1539.5,721.6,1539.5,721.8,1539.5L721.8,1539.5z M728.5,1539.3h3v1.7h-5.6v-1.2l2.9-4.1H726v-1.7h5.4v1.2L728.5,1539.3z
		 M732.1,1537.4c0-0.6,0.1-1.3,0.4-1.9c0.2-0.5,0.6-1,1.1-1.3c0.5-0.3,1.1-0.5,1.7-0.4c0.9,0,1.7,0.3,2.3,1c0.6,0.7,0.9,1.7,0.9,2.6
		v0.1c0,0.9-0.3,1.9-0.9,2.6c-0.6,0.7-1.5,1-2.3,1c-0.8,0-1.7-0.3-2.3-0.9c-0.6-0.6-0.9-1.5-0.9-2.4L732.1,1537.4z M734.2,1537.5
		c0,0.5,0.1,1,0.3,1.4c0.2,0.3,0.5,0.5,0.9,0.5c0.7,0,1.1-0.6,1.1-1.8v-0.2c0-1.2-0.4-1.9-1.1-1.9c-0.7,0-1.1,0.5-1.1,1.6
		L734.2,1537.5z"/>
	<path id="Trazado_102776" class="st2" d="M626,1415.3l1.8-6.8h2.4l-3,9.4h-2.4l-3-9.4h2.4L626,1415.3z M634.2,1417.9
		c-0.1-0.2-0.2-0.4-0.2-0.6c-0.4,0.5-1,0.8-1.6,0.8c-0.6,0-1.2-0.2-1.6-0.6c-0.4-0.4-0.7-0.9-0.7-1.5c0-0.7,0.3-1.3,0.8-1.7
		c0.7-0.4,1.5-0.6,2.3-0.6h0.6v-0.4c0-0.6-0.3-1-0.8-1c-0.4-0.1-0.7,0.2-0.7,0.6c0,0.1,0,0.1,0,0.2h-2.1c0-0.7,0.3-1.3,0.8-1.6
		c0.6-0.4,1.3-0.7,2.1-0.6c0.7,0,1.4,0.2,2,0.6c0.5,0.4,0.8,1.1,0.8,1.8v3.1c0,0.5,0.1,1,0.3,1.5v0.1H634.2z M632.9,1416.5
		c0.2,0,0.4-0.1,0.6-0.2c0.2-0.1,0.3-0.2,0.4-0.4v-1.1h-0.6c-0.7,0-1.1,0.3-1.1,1c0,0.2,0.1,0.4,0.2,0.5
		C632.5,1416.4,632.7,1416.5,632.9,1416.5z M639.3,1417.9h-2.1v-9.9h2.1V1417.9z M640.3,1414.3c0-0.6,0.1-1.3,0.4-1.9
		c0.2-0.5,0.6-1,1.1-1.3c0.5-0.3,1.1-0.5,1.7-0.4c0.9,0,1.7,0.3,2.3,1c0.6,0.7,0.9,1.7,0.9,2.6v0.1c0,0.9-0.3,1.9-0.9,2.6
		c-0.6,0.7-1.5,1-2.3,1c-0.8,0-1.7-0.3-2.3-0.9c-0.6-0.6-0.9-1.5-0.9-2.4L640.3,1414.3z M642.4,1414.5c0,0.5,0.1,1,0.3,1.4
		c0.2,0.3,0.5,0.5,0.9,0.5c0.7,0,1.1-0.6,1.1-1.8v-0.2c0-1.2-0.4-1.9-1.1-1.9c-0.7,0-1.1,0.5-1.1,1.6L642.4,1414.5z M651.7,1412.9
		l-0.7-0.1c-0.5-0.1-1,0.2-1.3,0.6v4.4h-2.1v-7h1.9l0.1,0.9c0.2-0.6,0.8-1,1.5-1c0.2,0,0.4,0,0.6,0.1L651.7,1412.9z M655.6,1418
		c-0.9,0-1.8-0.3-2.5-1c-0.6-0.7-1-1.6-0.9-2.5v-0.2c0-0.7,0.1-1.3,0.4-1.9c0.2-0.5,0.6-1,1.1-1.3c0.5-0.3,1.1-0.5,1.7-0.4
		c0.8,0,1.6,0.3,2.2,0.9c0.6,0.7,0.9,1.6,0.8,2.5v0.8h-4.1c0.1,0.4,0.2,0.7,0.5,0.9c0.3,0.2,0.6,0.4,1,0.3c0.6,0,1.2-0.2,1.5-0.7
		l0.9,1.2c-0.3,0.4-0.7,0.7-1.1,0.9C656.7,1417.9,656.1,1418,655.6,1418L655.6,1418z M655.4,1412.5c-0.6,0-1,0.4-1.1,1.3h2.1v-0.2
		c0-0.3-0.1-0.6-0.3-0.8C655.9,1412.5,655.7,1412.4,655.4,1412.5z M662.7,1415.9c0-0.2-0.1-0.4-0.3-0.4c-0.3-0.2-0.7-0.3-1-0.3
		c-0.4-0.1-0.9-0.3-1.3-0.5c-0.3-0.2-0.6-0.4-0.8-0.7c-0.2-0.3-0.3-0.6-0.3-1c0-0.6,0.3-1.2,0.8-1.6c0.6-0.4,1.3-0.7,2-0.6
		c0.7,0,1.5,0.2,2.1,0.6c0.5,0.4,0.8,1,0.8,1.6h-2.1c0-0.6-0.3-0.8-0.8-0.8c-0.2,0-0.4,0.1-0.5,0.2c-0.1,0.1-0.2,0.3-0.2,0.5
		c0,0.2,0.1,0.4,0.3,0.5c0.3,0.2,0.6,0.2,0.9,0.3c0.4,0.1,0.7,0.2,1,0.3c0.9,0.2,1.5,1,1.5,1.9c0,0.6-0.3,1.2-0.8,1.5
		c-0.6,0.4-1.4,0.6-2.1,0.6c-0.5,0-1-0.1-1.5-0.3c-0.4-0.2-0.8-0.5-1-0.9c-0.2-0.3-0.4-0.7-0.4-1.2h1.9c0,0.3,0.1,0.5,0.3,0.7
		c0.2,0.2,0.5,0.2,0.8,0.2c0.2,0,0.4,0,0.6-0.2C662.6,1416.3,662.7,1416.1,662.7,1415.9L662.7,1415.9z M626.5,1432.6l-0.7-0.1
		c-0.5-0.1-1,0.2-1.3,0.6v4.4h-2.1v-7h1.9l0.1,0.9c0.2-0.6,0.8-1,1.5-1c0.2,0,0.4,0,0.6,0.1L626.5,1432.6z M630.4,1437.8
		c-0.9,0-1.8-0.3-2.5-1c-0.6-0.7-1-1.6-0.9-2.5v-0.2c0-0.6,0.1-1.3,0.4-1.9c0.2-0.5,0.6-1,1.1-1.3c0.5-0.3,1.1-0.5,1.7-0.4
		c0.8,0,1.6,0.3,2.2,0.9c0.6,0.7,0.9,1.6,0.8,2.5v0.8h-4.1c0.1,0.4,0.2,0.7,0.5,0.9c0.3,0.2,0.6,0.4,1,0.3c0.6,0,1.2-0.2,1.5-0.7
		l0.9,1.2c-0.3,0.4-0.7,0.7-1.1,0.9C631.5,1437.6,630.9,1437.8,630.4,1437.8L630.4,1437.8z M630.2,1432.2c-0.6,0-1,0.4-1.1,1.3h2.1
		v-0.2c0-0.3-0.1-0.6-0.3-0.8C630.7,1432.3,630.5,1432.2,630.2,1432.2z M640.2,1434.2c0,0.9-0.2,1.8-0.7,2.6c-0.4,0.6-1.1,1-1.9,1
		c-0.6,0-1.1-0.2-1.5-0.7v3.2h-2.1v-9.6h1.9l0.1,0.6c0.4-0.5,1-0.8,1.6-0.8c0.7,0,1.5,0.3,1.9,1c0.5,0.8,0.7,1.7,0.7,2.6
		L640.2,1434.2z M638.1,1434.1c0-1.2-0.3-1.9-1-1.9c-0.4,0-0.8,0.2-1,0.6v2.7c0.2,0.4,0.6,0.6,1,0.6c0.7,0,1-0.6,1-1.8V1434.1z
		 M645.1,1432.6l-0.7-0.1c-0.5-0.1-1,0.2-1.3,0.6v4.4h-2.1v-7h1.9l0.1,0.9c0.2-0.6,0.8-1,1.5-1c0.2,0,0.4,0,0.6,0.1L645.1,1432.6z
		 M649.1,1437.8c-0.9,0-1.8-0.3-2.5-1c-0.6-0.7-1-1.6-0.9-2.5v-0.2c0-0.7,0.1-1.3,0.4-1.9c0.2-0.5,0.6-1,1.1-1.3
		c0.5-0.3,1.1-0.5,1.7-0.4c0.8,0,1.6,0.3,2.2,0.9c0.6,0.7,0.9,1.6,0.8,2.5v0.8h-4.1c0.1,0.4,0.2,0.7,0.5,0.9c0.3,0.2,0.6,0.4,1,0.3
		c0.6,0,1.2-0.2,1.5-0.7l0.9,1.2c-0.3,0.4-0.7,0.7-1.1,0.9C650.1,1437.6,649.6,1437.8,649.1,1437.8L649.1,1437.8z M648.9,1432.2
		c-0.6,0-1,0.4-1.1,1.3h2.1v-0.2c0-0.3-0.1-0.6-0.3-0.8C649.4,1432.3,649.1,1432.2,648.9,1432.2z M656.2,1435.7
		c0-0.2-0.1-0.4-0.3-0.4c-0.3-0.2-0.7-0.3-1-0.3c-0.4-0.1-0.9-0.3-1.3-0.5c-0.3-0.2-0.6-0.4-0.8-0.7c-0.2-0.3-0.3-0.6-0.3-1
		c0-0.6,0.3-1.2,0.8-1.6c0.6-0.4,1.3-0.7,2-0.6c0.7,0,1.5,0.2,2.1,0.6c0.5,0.4,0.8,1,0.8,1.6h-2.1c0-0.6-0.3-0.8-0.8-0.8
		c-0.2,0-0.4,0.1-0.5,0.2c-0.1,0.1-0.2,0.3-0.2,0.5c0,0.2,0.1,0.4,0.3,0.5c0.3,0.2,0.6,0.2,0.9,0.3c0.4,0.1,0.7,0.2,1,0.3
		c0.9,0.2,1.5,1,1.5,1.9c0,0.6-0.3,1.2-0.8,1.5c-0.6,0.4-1.4,0.6-2.1,0.6c-0.5,0-1-0.1-1.5-0.3c-0.4-0.2-0.8-0.5-1-0.9
		c-0.2-0.3-0.4-0.7-0.4-1.2h1.9c0,0.3,0.1,0.5,0.3,0.7c0.2,0.2,0.5,0.2,0.8,0.2c0.2,0,0.4,0,0.6-0.2
		C656.1,1436,656.2,1435.9,656.2,1435.7L656.2,1435.7z M662.4,1437.8c-0.9,0-1.8-0.3-2.5-1c-0.6-0.7-1-1.6-0.9-2.5v-0.2
		c0-0.7,0.1-1.3,0.4-1.9c0.2-0.5,0.6-1,1.1-1.3c0.5-0.3,1.1-0.5,1.7-0.4c0.8,0,1.6,0.3,2.2,0.9c0.6,0.7,0.9,1.6,0.8,2.5v0.8h-4.1
		c0.1,0.4,0.2,0.7,0.5,0.9c0.3,0.2,0.6,0.4,1,0.3c0.6,0,1.2-0.2,1.5-0.7l0.9,1.2c-0.3,0.4-0.7,0.7-1.1,0.9
		C663.4,1437.6,662.9,1437.8,662.4,1437.8L662.4,1437.8z M662.1,1432.2c-0.6,0-1,0.4-1.1,1.3h2.1v-0.2c0-0.3-0.1-0.6-0.3-0.8
		C662.7,1432.3,662.4,1432.2,662.1,1432.2z M667.9,1430.7l0.1,0.8c0.4-0.6,1.2-1,1.9-0.9c0.6,0,1.2,0.2,1.5,0.6
		c0.4,0.6,0.6,1.3,0.5,2v4.5h-2.1v-4.4c0-0.3,0-0.5-0.2-0.8c-0.2-0.2-0.5-0.3-0.7-0.2c-0.4,0-0.7,0.2-0.9,0.5v4.9H666v-7
		L667.9,1430.7z M675.5,1428.9v1.7h1.1v1.5h-1.1v3.2c0,0.2,0,0.4,0.1,0.5c0.2,0.1,0.3,0.2,0.5,0.2c0.2,0,0.3,0,0.5,0v1.5
		c-0.4,0.1-0.8,0.2-1.2,0.2c-0.6,0.1-1.1-0.1-1.6-0.5c-0.4-0.4-0.6-1-0.5-1.6v-3.5h-0.8v-1.5h0.8v-1.7L675.5,1428.9z M681.1,1437.6
		c-0.1-0.2-0.2-0.4-0.2-0.6c-0.4,0.5-1,0.8-1.6,0.8c-0.6,0-1.2-0.2-1.6-0.6c-0.4-0.4-0.7-0.9-0.7-1.5c0-0.7,0.3-1.3,0.8-1.7
		c0.7-0.4,1.5-0.6,2.3-0.6h0.6v-0.4c0-0.6-0.3-1-0.8-1c-0.4-0.1-0.7,0.2-0.7,0.6c0,0.1,0,0.1,0,0.2h-2.1c0-0.7,0.3-1.3,0.8-1.6
		c0.6-0.4,1.3-0.7,2.1-0.6c0.7,0,1.4,0.2,2,0.6c0.5,0.4,0.8,1.1,0.8,1.8v3.1c0,0.5,0.1,1,0.3,1.5v0.1H681.1z M679.8,1436.2
		c0.2,0,0.4-0.1,0.6-0.2c0.2-0.1,0.3-0.2,0.4-0.4v-1.1h-0.6c-0.7,0-1.1,0.3-1.1,1c0,0.2,0.1,0.4,0.2,0.5
		C679.5,1436.2,679.7,1436.2,679.8,1436.2z M686.5,1428.9v1.7h1.1v1.5h-1.1v3.2c0,0.2,0,0.4,0.1,0.5c0.2,0.1,0.3,0.2,0.5,0.2
		c0.2,0,0.3,0,0.5,0v1.5c-0.4,0.1-0.8,0.2-1.2,0.2c-0.6,0.1-1.1-0.1-1.6-0.5c-0.4-0.4-0.6-1-0.5-1.6v-3.5h-0.8v-1.5h0.8v-1.7H686.5z
		 M690.6,1437.6h-2.1v-7h2.1V1437.6z M688.4,1428.9c0-0.3,0.1-0.6,0.3-0.8c0.5-0.4,1.2-0.4,1.7,0c0.4,0.4,0.4,1,0.1,1.5
		c0,0,0,0-0.1,0.1c-0.5,0.4-1.2,0.4-1.7,0C688.5,1429.4,688.4,1429.2,688.4,1428.9z M694.5,1435.1l1-4.4h2.2l-2.2,7h-2.1l-2.2-7h2.2
		L694.5,1435.1z M698,1434.1c0-0.6,0.1-1.3,0.4-1.9c0.2-0.5,0.6-1,1.1-1.3c0.5-0.3,1.1-0.5,1.7-0.4c0.9,0,1.7,0.3,2.3,1
		c0.6,0.7,0.9,1.7,0.9,2.6v0.1c0,0.9-0.3,1.9-0.9,2.6c-0.6,0.7-1.5,1-2.3,1c-0.8,0-1.7-0.3-2.3-0.9c-0.6-0.6-0.9-1.5-0.9-2.4
		L698,1434.1z M700,1434.2c0,0.5,0.1,1,0.3,1.4c0.2,0.3,0.5,0.5,0.9,0.5c0.7,0,1.1-0.6,1.1-1.8v-0.2c0-1.2-0.4-1.9-1.1-1.9
		c-0.7,0-1.1,0.5-1.1,1.6L700,1434.2z M708.8,1435.7c0-0.2-0.1-0.4-0.3-0.4c-0.3-0.2-0.7-0.3-1-0.3c-0.4-0.1-0.9-0.3-1.3-0.5
		c-0.3-0.2-0.6-0.4-0.8-0.7c-0.2-0.3-0.3-0.6-0.3-1c0-0.6,0.3-1.2,0.8-1.6c0.6-0.4,1.3-0.7,2-0.6c0.7,0,1.5,0.2,2.1,0.6
		c0.5,0.4,0.8,1,0.8,1.6h-2.1c0-0.6-0.3-0.8-0.8-0.8c-0.2,0-0.4,0.1-0.5,0.2c-0.1,0.1-0.2,0.3-0.2,0.5c0,0.2,0.1,0.4,0.3,0.5
		c0.3,0.2,0.6,0.2,0.9,0.3c0.4,0.1,0.7,0.2,1,0.3c0.9,0.2,1.5,1,1.5,1.9c0,0.6-0.3,1.2-0.8,1.5c-0.6,0.4-1.4,0.6-2.1,0.6
		c-0.5,0-1-0.1-1.5-0.3c-0.4-0.2-0.8-0.5-1-0.9c-0.2-0.3-0.4-0.7-0.4-1.2h1.9c0,0.3,0.1,0.5,0.3,0.7c0.2,0.2,0.5,0.2,0.8,0.2
		c0.2,0,0.4,0,0.6-0.2C708.7,1436,708.8,1435.9,708.8,1435.7L708.8,1435.7z M714.6,1434.1c0-0.9,0.2-1.8,0.7-2.6
		c0.4-0.6,1.2-1,1.9-1c0.6,0,1.1,0.3,1.5,0.7v-3.5h2.1v9.9h-1.9l-0.1-0.7c-0.4,0.6-1,0.9-1.6,0.9c-0.7,0-1.4-0.3-1.9-1
		C714.8,1436,714.5,1435.1,714.6,1434.1L714.6,1434.1z M716.7,1434.2c0,1.2,0.3,1.9,1,1.9c0.4,0,0.8-0.2,1-0.6v-2.7
		c-0.2-0.4-0.6-0.6-1-0.6c-0.6,0-1,0.5-1,1.6L716.7,1434.2z M725.1,1437.8c-0.9,0-1.8-0.3-2.5-1c-0.6-0.7-1-1.6-0.9-2.5v-0.2
		c0-0.7,0.1-1.3,0.4-1.9c0.2-0.5,0.6-1,1.1-1.3c0.5-0.3,1.1-0.5,1.7-0.4c0.8,0,1.6,0.3,2.2,0.9c0.6,0.7,0.9,1.6,0.8,2.5v0.8h-4.1
		c0.1,0.4,0.2,0.7,0.5,0.9c0.3,0.2,0.6,0.4,1,0.3c0.6,0,1.2-0.2,1.5-0.7l0.9,1.2c-0.3,0.4-0.7,0.7-1.1,0.9
		C726.2,1437.7,725.7,1437.8,725.1,1437.8L725.1,1437.8z M724.9,1432.2c-0.6,0-1,0.4-1.1,1.3h2.1v-0.2c0-0.3-0.1-0.6-0.3-0.8
		C725.4,1432.3,725.2,1432.2,724.9,1432.2z M622.2,1453.9c0-0.9,0.2-1.8,0.7-2.6c0.4-0.6,1.2-1,1.9-1c0.6,0,1.1,0.3,1.5,0.7v-3.5
		h2.1v9.9h-1.9l-0.1-0.7c-0.4,0.6-1,0.9-1.6,0.9c-0.7,0-1.4-0.3-1.9-1C622.4,1455.8,622.1,1454.8,622.2,1453.9z M624.2,1454
		c0,1.2,0.3,1.9,1,1.9c0.4,0,0.8-0.2,1-0.6v-2.6c-0.2-0.4-0.6-0.6-1-0.6c-0.6,0-1,0.5-1,1.6L624.2,1454z M632.7,1457.5
		c-0.9,0-1.8-0.3-2.5-1c-0.6-0.7-1-1.6-0.9-2.5v-0.2c0-0.7,0.1-1.3,0.4-1.9c0.2-0.5,0.6-1,1.1-1.3c0.5-0.3,1.1-0.5,1.7-0.4
		c0.8,0,1.6,0.3,2.2,0.9c0.6,0.7,0.9,1.6,0.8,2.5v0.8h-4.1c0.1,0.4,0.2,0.7,0.5,0.9c0.3,0.2,0.6,0.4,1,0.3c0.6,0,1.2-0.2,1.5-0.7
		l0.9,1.2c-0.3,0.4-0.7,0.7-1.1,0.9C633.8,1457.4,633.2,1457.5,632.7,1457.5z M632.5,1452c-0.6,0-1,0.4-1.1,1.3h2.1v-0.2
		c0-0.3-0.1-0.6-0.3-0.8C633,1452.1,632.8,1452,632.5,1452z M640.3,1456.6c-0.4,0.6-1.1,0.9-1.8,0.9c-0.6,0-1.2-0.2-1.7-0.7
		c-0.4-0.5-0.6-1.2-0.6-1.9v-4.5h2.1v4.5c-0.1,0.4,0.2,0.8,0.6,0.9c0.1,0,0.1,0,0.2,0c0.4,0,0.8-0.2,1-0.5v-4.9h2.1v7h-1.9
		L640.3,1456.6z M643.2,1453.9c0-0.9,0.2-1.8,0.7-2.6c0.4-0.6,1.2-1,1.9-1c0.6,0,1.1,0.3,1.5,0.7v-3.5h2.1v9.9h-1.9l-0.1-0.7
		c-0.4,0.6-1,0.9-1.6,0.9c-0.7,0-1.4-0.3-1.9-1C643.4,1455.8,643.1,1454.8,643.2,1453.9L643.2,1453.9z M645.2,1454
		c0,1.2,0.3,1.9,1,1.9c0.4,0,0.8-0.2,1-0.6v-2.6c-0.2-0.4-0.6-0.6-1-0.6c-0.6,0-1,0.5-1,1.6L645.2,1454z M654.2,1457.4
		c-0.1-0.2-0.2-0.4-0.2-0.6c-0.4,0.5-1,0.8-1.6,0.8c-0.6,0-1.2-0.2-1.6-0.6c-0.4-0.4-0.7-0.9-0.7-1.5c0-0.7,0.3-1.3,0.8-1.7
		c0.7-0.4,1.5-0.6,2.3-0.6h0.6v-0.4c0-0.6-0.3-1-0.8-1c-0.4-0.1-0.7,0.2-0.7,0.6c0,0.1,0,0.1,0,0.2h-2.1c0-0.7,0.3-1.3,0.8-1.6
		c0.6-0.4,1.3-0.7,2.1-0.6c0.7,0,1.4,0.2,2,0.6c0.5,0.4,0.8,1.1,0.8,1.8v3.1c0,0.5,0.1,1,0.3,1.5v0.1H654.2z M652.9,1456
		c0.2,0,0.4-0.1,0.6-0.2c0.2-0.1,0.3-0.2,0.4-0.4v-1.1h-0.6c-0.7,0-1.1,0.3-1.1,1c0,0.2,0.1,0.4,0.2,0.5
		C652.6,1455.9,652.8,1456,652.9,1456L652.9,1456z M660.6,1455.4c0-0.2-0.1-0.4-0.3-0.4c-0.3-0.2-0.7-0.3-1-0.3
		c-0.4-0.1-0.9-0.3-1.3-0.5c-0.3-0.2-0.6-0.4-0.8-0.7c-0.2-0.3-0.3-0.6-0.3-1c0-0.6,0.3-1.2,0.8-1.6c0.6-0.4,1.3-0.7,2-0.6
		c0.7,0,1.5,0.2,2.1,0.6c0.5,0.4,0.8,1,0.8,1.6h-2.1c0-0.6-0.3-0.8-0.8-0.8c-0.2,0-0.4,0.1-0.5,0.2c-0.1,0.1-0.2,0.3-0.2,0.5
		c0,0.2,0.1,0.4,0.3,0.5c0.3,0.2,0.6,0.2,0.9,0.3c0.4,0.1,0.7,0.2,1,0.3c0.9,0.2,1.5,1,1.5,1.9c0,0.6-0.3,1.2-0.8,1.6
		c-0.6,0.4-1.4,0.6-2.1,0.6c-0.5,0-1-0.1-1.5-0.3c-0.4-0.2-0.8-0.5-1-0.9c-0.2-0.3-0.4-0.7-0.4-1.2h1.9c0,0.3,0.1,0.5,0.3,0.7
		c0.2,0.2,0.5,0.2,0.8,0.2c0.2,0,0.4,0,0.6-0.2C660.6,1455.8,660.6,1455.6,660.6,1455.4L660.6,1455.4z M670.5,1457.4
		c-0.1-0.2-0.2-0.4-0.2-0.6c-0.4,0.5-1,0.8-1.6,0.8c-0.6,0-1.2-0.2-1.6-0.6c-0.4-0.4-0.7-0.9-0.7-1.5c0-0.7,0.3-1.3,0.8-1.7
		c0.7-0.4,1.5-0.6,2.3-0.6h0.6v-0.4c0-0.6-0.3-1-0.8-1c-0.4-0.1-0.7,0.2-0.7,0.6c0,0.1,0,0.1,0,0.2h-2.1c0-0.7,0.3-1.3,0.8-1.6
		c0.6-0.4,1.3-0.7,2.1-0.6c0.7,0,1.4,0.2,2,0.6c0.5,0.4,0.8,1.1,0.8,1.8v3.1c0,0.5,0.1,1,0.3,1.5v0.1H670.5z M669.2,1456
		c0.2,0,0.4-0.1,0.6-0.2c0.2-0.1,0.3-0.2,0.4-0.4v-1.1h-0.6c-0.7,0-1.1,0.3-1.1,1c0,0.2,0.1,0.4,0.2,0.5
		C668.8,1455.9,669,1456,669.2,1456z M679.3,1455.8c0.2,0,0.5-0.1,0.7-0.2c0.2-0.2,0.3-0.4,0.2-0.7h1.9c0,0.7-0.3,1.4-0.8,1.9
		c-0.6,0.5-1.3,0.8-2,0.7c-0.9,0-1.7-0.3-2.3-1c-0.6-0.7-0.9-1.7-0.8-2.6v-0.1c0-0.6,0.1-1.3,0.4-1.9c0.2-0.5,0.6-1,1.1-1.2
		c0.5-0.3,1.1-0.4,1.7-0.4c0.8,0,1.5,0.2,2.1,0.8c0.5,0.5,0.8,1.3,0.8,2h-1.9c0-0.3-0.1-0.6-0.3-0.8c-0.2-0.2-0.4-0.3-0.7-0.3
		c-0.5,0-0.8,0.4-0.9,1.1c0,0.3,0,0.6,0,0.9c0,0.5,0,1,0.2,1.5C678.7,1455.7,679,1455.9,679.3,1455.8L679.3,1455.8z M682.8,1453.8
		c0-0.6,0.1-1.3,0.4-1.9c0.2-0.5,0.6-1,1.1-1.3c0.5-0.3,1.1-0.5,1.7-0.4c0.9,0,1.7,0.3,2.3,1c0.6,0.7,0.9,1.7,0.9,2.6v0.1
		c0,0.9-0.3,1.9-0.9,2.6c-0.6,0.7-1.5,1-2.3,1c-0.8,0-1.7-0.3-2.3-0.9c-0.6-0.6-0.9-1.5-0.9-2.4L682.8,1453.8z M684.9,1454
		c0,0.5,0.1,1,0.3,1.4c0.2,0.3,0.5,0.5,0.9,0.5c0.7,0,1.1-0.6,1.1-1.8v-0.2c0-1.2-0.4-1.9-1.1-1.9c-0.7,0-1.1,0.5-1.1,1.6
		L684.9,1454z M694.1,1452.4l-0.7-0.1c-0.5-0.1-1,0.2-1.3,0.6v4.4h-2.1v-7h1.9l0.1,0.9c0.2-0.6,0.8-1,1.5-1c0.2,0,0.4,0,0.6,0.1
		L694.1,1452.4z M697.6,1448.7v1.7h1.1v1.5h-1.1v3.2c0,0.2,0,0.4,0.1,0.5c0.2,0.1,0.3,0.2,0.5,0.2c0.2,0,0.3,0,0.5,0v1.6
		c-0.4,0.1-0.8,0.2-1.2,0.2c-0.6,0.1-1.1-0.1-1.6-0.5c-0.4-0.4-0.6-1-0.5-1.6v-3.5h-0.8v-1.5h0.8v-1.7H697.6z M699.1,1453.8
		c0-0.6,0.1-1.3,0.4-1.9c0.2-0.5,0.6-1,1.1-1.3c0.5-0.3,1.1-0.5,1.7-0.4c0.9,0,1.7,0.3,2.3,1c0.6,0.7,0.9,1.7,0.9,2.6v0.1
		c0,0.9-0.3,1.9-0.9,2.6c-0.6,0.7-1.5,1-2.3,1c-0.8,0-1.7-0.3-2.3-0.9c-0.6-0.6-0.9-1.5-0.9-2.4L699.1,1453.8z M701.1,1454
		c0,0.5,0.1,1,0.3,1.4c0.2,0.3,0.5,0.5,0.9,0.5c0.7,0,1.1-0.6,1.1-1.8v-0.2c0-1.2-0.4-1.9-1.1-1.9c-0.7,0-1.1,0.5-1.1,1.6
		L701.1,1454z M715.7,1454c0,0.9-0.2,1.8-0.7,2.6c-0.4,0.6-1.1,1-1.9,1c-0.6,0-1.1-0.2-1.5-0.7v3.2h-2.1v-9.6h1.9l0.1,0.6
		c0.4-0.5,1-0.8,1.6-0.8c0.7,0,1.5,0.3,1.9,1c0.5,0.8,0.7,1.7,0.7,2.6L715.7,1454z M713.6,1453.8c0-1.2-0.3-1.9-1-1.9
		c-0.4,0-0.8,0.2-1,0.6v2.7c0.2,0.4,0.6,0.6,1,0.6c0.7,0,1-0.6,1-1.8V1453.8z M718.8,1457.4h-2.1v-9.9h2.1V1457.4z M723.8,1457.4
		c-0.1-0.2-0.2-0.4-0.2-0.6c-0.4,0.5-1,0.8-1.6,0.8c-0.6,0-1.2-0.2-1.6-0.6c-0.4-0.4-0.7-0.9-0.7-1.5c0-0.7,0.3-1.3,0.8-1.7
		c0.7-0.4,1.5-0.6,2.3-0.6h0.6v-0.4c0-0.6-0.3-1-0.8-1c-0.4-0.1-0.7,0.2-0.7,0.6c0,0.1,0,0.1,0,0.2h-2.1c0-0.7,0.3-1.3,0.8-1.6
		c0.6-0.4,1.3-0.7,2.1-0.6c0.7,0,1.4,0.2,2,0.6c0.5,0.4,0.8,1.1,0.8,1.8v3.1c0,0.5,0.1,1,0.3,1.5v0.1H723.8z M722.5,1456
		c0.2,0,0.4-0.1,0.6-0.2c0.2-0.1,0.3-0.2,0.4-0.4v-1.1h-0.6c-0.7,0-1.1,0.3-1.1,1c0,0.2,0.1,0.4,0.2,0.5
		C722.1,1455.9,722.3,1456,722.5,1456L722.5,1456z M729.1,1455.7h3v1.7h-5.6v-1.2l2.9-4.1h-2.8v-1.7h5.4v1.2L729.1,1455.7z
		 M732.8,1453.8c0-0.6,0.1-1.3,0.4-1.9c0.2-0.5,0.6-1,1.1-1.3c0.5-0.3,1.1-0.5,1.7-0.4c0.9,0,1.7,0.3,2.3,1c0.6,0.7,0.9,1.7,0.9,2.6
		v0.1c0,0.9-0.3,1.9-0.9,2.6c-0.6,0.7-1.5,1-2.3,1c-0.8,0-1.7-0.3-2.3-0.9c-0.6-0.6-0.9-1.5-0.9-2.4L732.8,1453.8z M734.9,1454
		c0,0.5,0.1,1,0.3,1.4c0.2,0.3,0.5,0.5,0.9,0.5c0.7,0,1.1-0.6,1.1-1.8v-0.2c0-1.2-0.4-1.9-1.1-1.9c-0.7,0-1.1,0.5-1.1,1.6
		L734.9,1454z"/>
	<path id="Trazado_102777" class="st2" d="M777.5,1428.2h0.8c0.4,0,0.8-0.1,1.1-0.4c0.3-0.3,0.4-0.6,0.4-1c0.1-0.7-0.4-1.4-1-1.5
		c-0.1,0-0.2,0-0.3,0c-0.4,0-0.8,0.1-1,0.4c-0.3,0.3-0.4,0.6-0.4,1h-1c0-0.6,0.2-1.2,0.7-1.6c0.5-0.4,1.1-0.7,1.8-0.7
		c0.6,0,1.3,0.2,1.8,0.6c0.4,0.5,0.7,1.1,0.6,1.7c0,0.4-0.1,0.7-0.3,1.1c-0.2,0.3-0.5,0.6-0.9,0.8c0.4,0.1,0.8,0.4,1,0.7
		c0.2,0.4,0.4,0.8,0.4,1.2c0,0.7-0.2,1.3-0.7,1.8c-0.5,0.5-1.2,0.7-1.8,0.7c-0.7,0-1.3-0.2-1.8-0.6c-0.5-0.4-0.7-1-0.7-1.7h1
		c0,0.4,0.1,0.8,0.4,1.1c0.3,0.3,0.7,0.4,1.1,0.4c0.4,0,0.8-0.1,1.1-0.4c0.3-0.3,0.4-0.7,0.4-1.1c0-0.4-0.1-0.8-0.4-1.1
		c-0.4-0.3-0.8-0.4-1.2-0.4h-0.8V1428.2z M786.2,1429.2c-0.2,0.3-0.5,0.5-0.8,0.6c-0.3,0.2-0.6,0.2-1,0.2c-0.4,0-0.8-0.1-1.2-0.4
		c-0.3-0.2-0.6-0.6-0.8-1c-0.2-0.4-0.3-0.9-0.3-1.4c0-0.5,0.1-1,0.3-1.5c0.2-0.4,0.5-0.8,0.9-1c0.4-0.2,0.8-0.4,1.3-0.4
		c0.7,0,1.4,0.3,1.9,0.9c0.5,0.7,0.7,1.6,0.7,2.5v0.3c0,1.6-0.3,2.8-0.9,3.5c-0.7,0.8-1.7,1.2-2.8,1.1h-0.2v-0.9h0.2
		c0.7,0,1.4-0.2,1.9-0.7C786,1430.7,786.2,1430,786.2,1429.2z M784.7,1429.2c0.3,0,0.7-0.1,0.9-0.3c0.3-0.2,0.5-0.5,0.6-0.8v-0.4
		c0-0.6-0.1-1.2-0.4-1.7c-0.4-0.6-1.2-0.8-1.8-0.4c-0.1,0.1-0.2,0.2-0.3,0.3c-0.3,0.4-0.4,0.9-0.4,1.4c0,0.5,0.1,1,0.4,1.4
		C783.8,1429,784.2,1429.2,784.7,1429.2z M793.6,1429.3c0.1,1-0.1,1.9-0.6,2.8c-0.4,0.6-1.2,1-1.9,0.9c-0.7,0.1-1.4-0.3-1.9-0.9
		c-0.5-0.8-0.7-1.7-0.6-2.6v-1.4c-0.1-1,0.1-1.9,0.6-2.7c0.4-0.6,1.2-1,1.9-0.9c0.7-0.1,1.4,0.3,1.9,0.9c0.5,0.8,0.7,1.7,0.6,2.7
		L793.6,1429.3z M792.6,1427.9c0-0.7-0.1-1.3-0.4-2c-0.2-0.4-0.7-0.6-1.1-0.6c-0.5,0-0.9,0.2-1.1,0.6c-0.3,0.6-0.4,1.2-0.4,1.9v1.7
		c0,0.7,0.1,1.4,0.4,2c0.2,0.4,0.7,0.7,1.1,0.6c0.4,0,0.9-0.2,1.1-0.6c0.3-0.6,0.4-1.2,0.4-1.9L792.6,1427.9z M795,1432.3
		c0-0.2,0.1-0.3,0.2-0.5c0.1-0.1,0.3-0.2,0.5-0.2c0.2,0,0.3,0.1,0.5,0.2c0.1,0.1,0.2,0.3,0.2,0.5c0,0.2-0.1,0.3-0.2,0.4
		c-0.1,0.1-0.3,0.2-0.5,0.2c-0.3,0-0.6-0.2-0.6-0.5C795,1432.4,795,1432.3,795,1432.3L795,1432.3z M802.1,1430.1h1.1v0.9h-1.1v1.9
		h-1v-1.9h-3.6v-0.6l3.6-5.8h1.1V1430.1z M798.6,1430.1h2.5v-4.1l-0.1,0.2L798.6,1430.1z M808.4,1430.1h1.1v0.9h-1.1v1.9h-1v-1.9
		h-3.6v-0.6l3.6-5.8h1.1L808.4,1430.1z M804.9,1430.1h2.5v-4.1l-0.1,0.2L804.9,1430.1z M813.7,1432.9h-1v-7l-2,0.8v-1l2.9-1.1h0.2
		L813.7,1432.9z M816.7,1434.5l-0.6-0.4c0.3-0.4,0.5-1,0.5-1.5v-1h1v0.8c0,0.4-0.1,0.8-0.3,1.2C817.2,1434,817,1434.3,816.7,1434.5z
		 M823.6,1426.7c0,0.4-0.1,0.8-0.3,1.1c-0.2,0.3-0.5,0.6-0.8,0.8c0.4,0.2,0.7,0.5,1,0.8c0.2,0.4,0.4,0.8,0.4,1.2
		c0,0.7-0.2,1.3-0.7,1.7c-1.1,0.9-2.6,0.9-3.7,0c-0.5-0.4-0.7-1.1-0.7-1.7c0-0.4,0.1-0.9,0.3-1.2c0.2-0.4,0.6-0.7,1-0.8
		c-0.3-0.2-0.6-0.4-0.8-0.8c-0.2-0.3-0.3-0.7-0.3-1.1c0-0.6,0.2-1.2,0.6-1.7c1-0.8,2.4-0.8,3.4,0
		C823.4,1425.5,823.7,1426.1,823.6,1426.7z M822.8,1430.6c0-0.4-0.1-0.8-0.4-1.1c-0.3-0.3-0.7-0.5-1.1-0.4c-0.8-0.1-1.5,0.6-1.5,1.4
		c0,0.1,0,0.1,0,0.2c0,0.4,0.1,0.8,0.4,1.1c0.7,0.5,1.6,0.5,2.2,0C822.7,1431.4,822.8,1431,822.8,1430.6L822.8,1430.6z
		 M821.3,1425.3c-0.4,0-0.7,0.1-1,0.4c-0.3,0.3-0.4,0.7-0.4,1c0,0.4,0.1,0.7,0.4,1c0.5,0.5,1.4,0.5,1.9,0c0.2-0.3,0.4-0.6,0.4-1
		c0-0.4-0.1-0.8-0.4-1C822,1425.4,821.7,1425.3,821.3,1425.3z M829,1429.2c-0.2,0.3-0.5,0.5-0.8,0.6c-0.3,0.2-0.6,0.2-1,0.2
		c-0.4,0-0.8-0.1-1.2-0.4c-0.3-0.2-0.6-0.6-0.8-1c-0.2-0.4-0.3-0.9-0.3-1.4c0-0.5,0.1-1,0.3-1.5c0.2-0.4,0.5-0.8,0.9-1
		c0.4-0.2,0.8-0.4,1.3-0.4c0.7,0,1.4,0.3,1.9,0.9c0.5,0.7,0.7,1.6,0.7,2.5v0.3c0,1.6-0.3,2.8-0.9,3.5c-0.7,0.8-1.7,1.2-2.8,1.1h-0.2
		v-0.9h0.2c0.7,0,1.4-0.2,1.9-0.7C828.7,1430.7,829,1430,829,1429.2z M827.4,1429.2c0.3,0,0.7-0.1,0.9-0.3c0.3-0.2,0.5-0.5,0.6-0.8
		v-0.4c0-0.6-0.1-1.2-0.4-1.7c-0.4-0.6-1.2-0.8-1.8-0.4c-0.1,0.1-0.2,0.2-0.3,0.3c-0.3,0.4-0.4,0.9-0.4,1.4c0,0.5,0.1,1,0.4,1.4
		C826.6,1429,827,1429.2,827.4,1429.2z"/>
	<path id="Trazado_102779" class="st2" d="M909.5,1508.4h0.8c0.4,0,0.8-0.1,1.1-0.4c0.3-0.3,0.4-0.6,0.4-1c0.1-0.7-0.4-1.4-1-1.5
		c-0.1,0-0.2,0-0.3,0c-0.4,0-0.8,0.1-1,0.4c-0.3,0.3-0.4,0.6-0.4,1h-1c0-0.6,0.2-1.2,0.7-1.6c0.5-0.4,1.1-0.7,1.8-0.7
		c0.6,0,1.3,0.2,1.8,0.6c0.4,0.5,0.7,1.1,0.6,1.7c0,0.4-0.1,0.7-0.3,1.1c-0.2,0.3-0.5,0.6-0.9,0.8c0.4,0.1,0.8,0.4,1,0.7
		c0.2,0.4,0.4,0.8,0.4,1.2c0,0.7-0.2,1.3-0.7,1.8c-0.5,0.5-1.2,0.7-1.8,0.7c-0.7,0-1.3-0.2-1.8-0.6c-0.5-0.4-0.7-1-0.7-1.7h1
		c0,0.4,0.1,0.8,0.4,1.1c0.3,0.3,0.7,0.4,1.1,0.4c0.4,0,0.8-0.1,1.1-0.4c0.3-0.3,0.4-0.7,0.4-1.1c0-0.4-0.1-0.8-0.4-1.1
		c-0.4-0.3-0.8-0.4-1.2-0.4h-0.8V1508.4z M918.2,1509.4c-0.2,0.3-0.5,0.5-0.8,0.6c-0.3,0.2-0.6,0.2-1,0.2c-0.4,0-0.8-0.1-1.2-0.4
		c-0.3-0.2-0.6-0.6-0.8-1c-0.2-0.4-0.3-0.9-0.3-1.4c0-0.5,0.1-1,0.3-1.5c0.2-0.4,0.5-0.8,0.9-1c0.4-0.2,0.8-0.4,1.3-0.4
		c0.7,0,1.4,0.3,1.9,0.9c0.5,0.7,0.7,1.6,0.7,2.5v0.3c0,1.6-0.3,2.8-0.9,3.5c-0.7,0.8-1.7,1.2-2.8,1.1h-0.2v-0.9h0.2
		c0.7,0,1.4-0.2,1.9-0.7C917.9,1511,918.2,1510.2,918.2,1509.4z M916.6,1509.4c0.3,0,0.7-0.1,0.9-0.3c0.3-0.2,0.5-0.5,0.6-0.8v-0.4
		c0-0.6-0.1-1.2-0.4-1.7c-0.4-0.6-1.2-0.8-1.8-0.4c-0.1,0.1-0.2,0.2-0.3,0.3c-0.3,0.4-0.4,0.9-0.4,1.4c0,0.5,0.1,1,0.4,1.4
		C915.8,1509.2,916.2,1509.5,916.6,1509.4z M925.6,1509.5c0.1,1-0.1,1.9-0.6,2.8c-0.4,0.6-1.2,1-1.9,0.9c-0.7,0.1-1.4-0.3-1.9-0.9
		c-0.5-0.8-0.7-1.7-0.6-2.6v-1.4c-0.1-1,0.1-1.9,0.6-2.7c0.4-0.6,1.2-1,1.9-0.9c0.7-0.1,1.4,0.3,1.9,0.9c0.5,0.8,0.7,1.7,0.6,2.7
		L925.6,1509.5z M924.5,1508.1c0-0.7-0.1-1.3-0.4-2c-0.2-0.4-0.7-0.6-1.1-0.6c-0.5,0-0.9,0.2-1.1,0.6c-0.3,0.6-0.4,1.2-0.4,1.9v1.7
		c0,0.7,0.1,1.4,0.4,2c0.2,0.4,0.7,0.7,1.1,0.6c0.4,0,0.9-0.2,1.1-0.6c0.3-0.6,0.4-1.2,0.4-1.9L924.5,1508.1z M927,1512.5
		c0-0.2,0.1-0.3,0.2-0.5c0.1-0.1,0.3-0.2,0.5-0.2c0.2,0,0.3,0.1,0.5,0.2c0.1,0.1,0.2,0.3,0.2,0.5c0,0.2-0.1,0.3-0.2,0.4
		c-0.1,0.1-0.3,0.2-0.5,0.2c-0.3,0-0.6-0.2-0.6-0.5C927,1512.6,927,1512.6,927,1512.5L927,1512.5z M934,1510.3h1.1v0.9H934v1.9h-1
		v-1.9h-3.6v-0.6l3.6-5.8h1.1V1510.3z M930.6,1510.3h2.5v-4.1l-0.1,0.2L930.6,1510.3z M940.3,1510.3h1.1v0.9h-1.1v1.9h-1v-1.9h-3.6
		v-0.6l3.6-5.8h1.1L940.3,1510.3z M936.8,1510.3h2.5v-4.1l-0.1,0.2L936.8,1510.3z M945.6,1513.1h-1v-7l-2,0.8v-1l2.9-1.1h0.2
		L945.6,1513.1z M948.7,1514.8l-0.6-0.4c0.3-0.4,0.5-1,0.5-1.5v-1h1v0.8c0,0.4-0.1,0.8-0.3,1.2
		C949.2,1514.2,949,1514.5,948.7,1514.8z M955.6,1506.9c0,0.4-0.1,0.8-0.3,1.1c-0.2,0.3-0.5,0.6-0.8,0.8c0.4,0.2,0.7,0.5,1,0.8
		c0.2,0.4,0.4,0.8,0.4,1.2c0,0.7-0.2,1.3-0.7,1.7c-1.1,0.9-2.6,0.9-3.7,0c-0.5-0.4-0.7-1.1-0.7-1.7c0-0.4,0.1-0.9,0.3-1.2
		c0.2-0.4,0.6-0.7,1-0.8c-0.3-0.2-0.6-0.4-0.8-0.8c-0.2-0.3-0.3-0.7-0.3-1.1c0-0.6,0.2-1.2,0.6-1.7c1-0.8,2.4-0.8,3.4,0
		C955.4,1505.7,955.6,1506.3,955.6,1506.9z M954.8,1510.8c0-0.4-0.1-0.8-0.4-1.1c-0.3-0.3-0.7-0.5-1.1-0.4c-0.8-0.1-1.5,0.6-1.5,1.4
		c0,0.1,0,0.1,0,0.2c0,0.4,0.1,0.8,0.4,1.1c0.7,0.5,1.6,0.5,2.2,0C954.7,1511.7,954.8,1511.2,954.8,1510.8L954.8,1510.8z
		 M953.3,1505.5c-0.4,0-0.7,0.1-1,0.4c-0.3,0.3-0.4,0.7-0.4,1c0,0.4,0.1,0.7,0.4,1c0.5,0.5,1.4,0.5,1.9,0c0.2-0.3,0.4-0.6,0.4-1
		c0-0.4-0.1-0.8-0.4-1C954,1505.7,953.6,1505.5,953.3,1505.5z M960.9,1509.4c-0.2,0.3-0.5,0.5-0.8,0.6c-0.3,0.2-0.6,0.2-1,0.2
		c-0.4,0-0.8-0.1-1.2-0.4c-0.3-0.2-0.6-0.6-0.8-1c-0.2-0.4-0.3-0.9-0.3-1.4c0-0.5,0.1-1,0.3-1.5c0.2-0.4,0.5-0.8,0.9-1
		c0.4-0.2,0.8-0.4,1.3-0.4c0.7,0,1.4,0.3,1.9,0.9c0.5,0.7,0.7,1.6,0.7,2.5v0.3c0,1.6-0.3,2.8-0.9,3.5c-0.7,0.8-1.7,1.2-2.8,1.1h-0.2
		v-0.9h0.2c0.7,0,1.4-0.2,1.9-0.7C960.7,1511,961,1510.2,960.9,1509.4z M959.4,1509.4c0.3,0,0.7-0.1,0.9-0.3
		c0.3-0.2,0.5-0.5,0.6-0.8v-0.4c0-0.6-0.1-1.2-0.4-1.7c-0.4-0.6-1.2-0.8-1.8-0.4c-0.1,0.1-0.2,0.2-0.3,0.3c-0.3,0.4-0.4,0.9-0.4,1.4
		c0,0.5,0.1,1,0.4,1.4C958.6,1509.2,959,1509.5,959.4,1509.4z"/>
	<line id="Línea_167" class="st3" x1="744" y1="1387.9" x2="744" y2="1560.5"/>
	<line id="Línea_168" class="st3" x1="871" y1="1365.9" x2="871" y2="1563.5"/>
	<path id="Trazado_99543" class="st4" d="M606.5,1343.5h400v44.4h-400V1343.5z"/>
	<path id="Trazado_102773" class="st1" d="M651.9,1366.1c0,0.8-0.3,1.6-0.7,2.3c-0.4,0.7-1,1.2-1.7,1.5c-0.8,0.4-1.7,0.6-2.5,0.5
		c-1.4,0.1-2.8-0.5-3.7-1.6c-1-1.3-1.4-2.9-1.4-4.5v-0.6c0-1.1,0.2-2.2,0.6-3.2c0.4-0.9,1-1.6,1.8-2.1c0.8-0.5,1.7-0.8,2.7-0.8
		c1.3-0.1,2.5,0.4,3.5,1.2c0.9,0.8,1.4,2,1.5,3.3h-2.9c0-0.6-0.2-1.2-0.5-1.6c-0.4-0.4-1-0.5-1.6-0.5c-0.6,0-1.2,0.3-1.6,0.8
		c-0.4,0.8-0.6,1.8-0.5,2.7v0.9c-0.1,1,0.1,2,0.5,2.9c0.4,0.6,1,0.9,1.6,0.9c0.5,0,1.1-0.1,1.5-0.5c0.4-0.4,0.6-1,0.6-1.6
		L651.9,1366.1z M662.6,1357.8v8.2c0,0.8-0.2,1.7-0.6,2.4c-0.4,0.7-0.9,1.2-1.6,1.5c-0.8,0.4-1.6,0.6-2.5,0.5
		c-1.2,0.1-2.5-0.3-3.4-1.2c-0.9-0.8-1.3-2-1.3-3.2v-8.2h2.9v8.3c0,1.4,0.6,2,1.8,2c0.5,0,1-0.1,1.4-0.5c0.3-0.5,0.5-1.1,0.5-1.7
		v-8.2H662.6z M671.8,1365h-4.5v3h5.3v2.3h-8.2v-12.5h8.2v2.3h-5.4v2.6h4.5L671.8,1365z M683.7,1370.3h-2.9l-4.2-7.8v7.8h-2.9v-12.5
		h2.9l4.2,7.8v-7.8h2.9L683.7,1370.3z M694.9,1360.1h-3.6v10.2h-2.9v-10.2h-3.5v-2.3h10L694.9,1360.1z M701.9,1368H698l-0.7,2.3
		h-3.1l4.4-12.5h2.7l4.4,12.5h-3.1L701.9,1368z M698.7,1365.6h2.6l-1.3-4.3L698.7,1365.6z"/>
	<path id="Trazado_102774" class="st1" d="M771.4,1371.9v-12.5h3.8c1,0,2,0.2,2.8,0.8c0.8,0.5,1.5,1.2,2,2.1c0.5,0.9,0.7,2,0.7,3.1
		v0.6c0,1.1-0.2,2.1-0.7,3.1c-0.4,0.9-1.1,1.6-1.9,2.1c-0.9,0.5-1.8,0.8-2.8,0.8H771.4z M774.3,1361.7v7.8h1c0.7,0,1.5-0.3,1.9-0.9
		c0.5-0.8,0.7-1.8,0.7-2.7v-0.5c0.1-1-0.2-1.9-0.7-2.7c-0.5-0.6-1.2-1-1.9-0.9H774.3z M789.6,1366.6h-4.5v3h5.3v2.3h-8.2v-12.5h8.2
		v2.3h-5.4v2.6h4.5V1366.6z M787,1356.1h2.9l-2.3,2.7l-2.2,0L787,1356.1z M791.6,1371.9v-12.5h4.3c1.2-0.1,2.4,0.2,3.5,0.9
		c0.8,0.6,1.2,1.5,1.2,2.6c0,0.6-0.1,1.2-0.4,1.7c-0.3,0.5-0.7,0.8-1.3,1c0.6,0.1,1.1,0.5,1.4,1c0.3,0.5,0.5,1.1,0.5,1.7
		c0.1,1.1-0.3,2.1-1.1,2.8c-1,0.7-2.1,1-3.3,0.9H791.6z M794.5,1366.6v3h1.9c0.4,0,0.9-0.1,1.2-0.4c0.3-0.3,0.4-0.7,0.4-1.1
		c0.1-0.8-0.4-1.5-1.1-1.6c-0.1,0-0.2,0-0.4,0H794.5z M794.5,1364.6h1.5c0.5,0,0.9-0.1,1.3-0.4c0.3-0.3,0.4-0.6,0.4-1
		c0-0.4-0.1-0.9-0.4-1.1c-0.4-0.3-0.9-0.4-1.4-0.3h-1.4L794.5,1364.6z M805.5,1371.9h-2.9v-12.5h2.9V1371.9z M816.8,1361.7h-3.6
		v10.2h-2.9v-10.2h-3.5v-2.3h10V1361.7z M827.9,1365.9c0,1.1-0.2,2.2-0.6,3.2c-0.4,0.9-1,1.7-1.8,2.2c-0.8,0.5-1.8,0.8-2.7,0.8
		c-0.9,0-1.9-0.2-2.7-0.7c-0.8-0.5-1.4-1.2-1.8-2.1c-0.5-1-0.7-2-0.7-3.1v-0.7c0-1.1,0.2-2.2,0.6-3.2c0.4-0.9,1-1.7,1.8-2.2
		c0.8-0.5,1.8-0.8,2.7-0.8c0.9,0,1.9,0.2,2.7,0.8c0.8,0.5,1.4,1.3,1.8,2.1c0.5,1,0.7,2.1,0.7,3.2V1365.9z M825,1365.4
		c0.1-1-0.1-2-0.6-2.8c-0.4-0.6-1-1-1.7-1c-1.4,0-2.2,1.1-2.3,3.4l0,0.9c-0.1,1,0.1,2,0.6,2.8c0.4,0.6,1,1,1.7,1
		c0.7,0,1.3-0.3,1.7-1c0.4-0.9,0.6-1.8,0.6-2.8L825,1365.4z M835.5,1368.6c0-0.4-0.1-0.8-0.4-1c-0.5-0.3-1-0.6-1.6-0.8
		c-0.6-0.2-1.2-0.5-1.8-0.8c-1.5-0.8-2.3-1.9-2.3-3.3c0-0.7,0.2-1.3,0.6-1.8c0.4-0.6,1-1,1.6-1.2c0.8-0.3,1.6-0.5,2.4-0.4
		c0.8,0,1.6,0.1,2.3,0.5c0.6,0.3,1.2,0.8,1.6,1.4c0.4,0.6,0.6,1.3,0.6,2h-2.9c0-0.4-0.1-0.9-0.4-1.2c-0.3-0.3-0.8-0.4-1.2-0.4
		c-0.4,0-0.9,0.1-1.2,0.4c-0.3,0.2-0.4,0.5-0.4,0.9c0,0.4,0.2,0.7,0.5,0.9c0.5,0.4,1.1,0.6,1.7,0.8c0.7,0.2,1.4,0.5,2,0.9
		c1.2,0.6,1.9,1.8,1.9,3.2c0,1-0.4,2-1.2,2.6c-1,0.7-2.1,1-3.2,0.9c-0.9,0-1.8-0.2-2.6-0.5c-0.7-0.3-1.3-0.8-1.8-1.5
		c-0.4-0.6-0.6-1.4-0.6-2.2h2.9c0,0.5,0.1,1.1,0.5,1.5c0.5,0.4,1,0.5,1.6,0.5c0.4,0,0.8-0.1,1.1-0.3
		C835.4,1369.3,835.6,1368.9,835.5,1368.6z"/>
	<path id="Trazado_102775" class="st1" d="M907.4,1366.1c0,0.8-0.3,1.6-0.7,2.3c-0.4,0.7-1,1.2-1.7,1.5c-0.8,0.4-1.7,0.6-2.5,0.5
		c-1.4,0.1-2.8-0.5-3.7-1.6c-1-1.3-1.4-2.9-1.4-4.5v-0.6c0-1.1,0.2-2.2,0.6-3.2c0.4-0.9,1-1.6,1.8-2.1c0.8-0.5,1.7-0.8,2.7-0.8
		c1.3-0.1,2.5,0.4,3.5,1.2c0.9,0.8,1.4,2,1.5,3.3h-2.9c0-0.6-0.2-1.2-0.5-1.6c-0.4-0.4-1-0.5-1.6-0.5c-0.6,0-1.2,0.3-1.6,0.8
		c-0.4,0.8-0.6,1.8-0.5,2.7v0.9c-0.1,1,0.1,2,0.5,2.9c0.4,0.6,1,0.9,1.6,0.9c0.5,0,1.1-0.1,1.5-0.5c0.4-0.4,0.6-1,0.6-1.6
		L907.4,1366.1z M913.2,1365.9h-1.6v4.4h-2.9v-12.5h4.7c1.2-0.1,2.3,0.3,3.3,1c0.8,0.7,1.2,1.7,1.2,2.8c0,0.8-0.1,1.5-0.5,2.2
		c-0.4,0.6-0.9,1.1-1.6,1.4l2.5,5v0.1h-3.1L913.2,1365.9z M911.7,1363.6h1.8c0.5,0,0.9-0.1,1.2-0.5c0.3-0.3,0.4-0.8,0.4-1.3
		c0-0.5-0.1-0.9-0.4-1.3c-0.3-0.3-0.8-0.5-1.2-0.5h-1.8L911.7,1363.6z M927.1,1365h-4.5v3h5.3v2.3h-8.2v-12.5h8.2v2.3h-5.4v2.6h4.5
		L927.1,1365z M924.4,1354.5h2.9l-2.3,2.7l-2.2,0L924.4,1354.5z M929.1,1370.3v-12.5h3.8c1,0,2,0.2,2.8,0.8c0.8,0.5,1.5,1.2,2,2.1
		c0.5,0.9,0.7,2,0.7,3.1v0.6c0,1.1-0.2,2.1-0.7,3.1c-0.4,0.9-1.1,1.6-1.9,2.1c-0.9,0.5-1.8,0.8-2.8,0.8H929.1z M932,1360.1v7.8h1
		c0.7,0,1.5-0.3,1.9-0.9c0.5-0.8,0.7-1.8,0.7-2.7v-0.5c0.1-1-0.2-1.9-0.7-2.7c-0.5-0.6-1.2-1-1.9-0.9H932z M943,1370.3h-2.9v-12.5
		h2.9V1370.3z M954.3,1360.1h-3.6v10.2h-2.9v-10.2h-3.5v-2.3h10V1360.1z M965.4,1364.3c0,1.1-0.2,2.2-0.6,3.2
		c-0.4,0.9-1,1.7-1.8,2.2c-0.8,0.5-1.8,0.8-2.7,0.8c-0.9,0-1.9-0.2-2.7-0.7c-0.8-0.5-1.4-1.2-1.8-2.1c-0.5-1-0.7-2-0.7-3.1v-0.7
		c0-1.1,0.2-2.2,0.6-3.2c0.4-0.9,1-1.7,1.8-2.2c0.8-0.5,1.8-0.8,2.7-0.8c0.9,0,1.9,0.2,2.7,0.8c0.8,0.5,1.4,1.3,1.8,2.1
		c0.5,1,0.7,2.1,0.7,3.2V1364.3z M962.5,1363.8c0.1-1-0.1-2-0.6-2.8c-0.4-0.6-1-1-1.7-1c-1.4,0-2.2,1.1-2.3,3.4l0,0.9
		c-0.1,1,0.1,2,0.6,2.8c0.4,0.6,1,1,1.7,1c0.7,0,1.3-0.3,1.7-1c0.4-0.9,0.6-1.8,0.6-2.8V1363.8z M973,1367c0-0.4-0.1-0.8-0.4-1
		c-0.5-0.3-1-0.6-1.6-0.8c-0.6-0.2-1.2-0.5-1.8-0.8c-1.5-0.8-2.3-1.9-2.3-3.3c0-0.7,0.2-1.3,0.6-1.8c0.4-0.6,1-1,1.6-1.2
		c0.8-0.3,1.6-0.5,2.4-0.4c0.8,0,1.6,0.1,2.3,0.5c0.6,0.3,1.2,0.8,1.6,1.4c0.4,0.6,0.6,1.3,0.6,2H973c0-0.4-0.1-0.9-0.4-1.2
		c-0.3-0.3-0.8-0.4-1.2-0.4c-0.4,0-0.9,0.1-1.2,0.4c-0.3,0.2-0.4,0.5-0.4,0.9c0,0.4,0.2,0.7,0.5,0.9c0.5,0.4,1.1,0.6,1.7,0.8
		c0.7,0.2,1.4,0.5,2,0.9c1.2,0.6,1.9,1.8,1.9,3.2c0,1-0.4,2-1.2,2.6c-1,0.7-2.1,1-3.2,0.9c-0.9,0-1.8-0.2-2.6-0.5
		c-0.7-0.3-1.3-0.8-1.8-1.5c-0.4-0.6-0.6-1.4-0.6-2.2h2.9c0,0.5,0.1,1.1,0.5,1.5c0.5,0.4,1,0.5,1.6,0.5c0.4,0,0.8-0.1,1.1-0.3
		C972.9,1367.7,973,1367.3,973,1367z"/>
</g>
</svg>
