<?xml version="1.0" encoding="utf-8"?>
<!-- Generator: Adobe Illustrator 25.2.3, SVG Export Plug-In . SVG Version: 6.00 Build 0)  -->
<svg version="1.1" id="Capa_1" xmlns="http://www.w3.org/2000/svg" xmlns:xlink="http://www.w3.org/1999/xlink" x="0px" y="0px"
	 viewBox="0 0 573 245" style="enable-background:new 0 0 573 245;" xml:space="preserve">
<style type="text/css">
	.st0{fill:#F6F6F6;}
	.st1{fill:#FFFFFF;}
	.st2{fill:#12263F;}
	.st3{font-family:'ArialMT';}
	.st4{font-size:12.5128px;}
	.st5{font-size:11.1225px;}
	.st6{fill:none;stroke:#AFAFAF;stroke-linecap:round;}
	.st7{fill:#D9A171;}
	.st8{font-size:16.6838px;}
</style>
<g id="Grupo_54959" transform="translate(-180 -11144.683)">
	<rect id="Rectángulo_5429" x="266.5" y="11224.2" class="st0" width="400" height="43.1"/>
	<rect id="Rectángulo_5430" x="266.5" y="11267.2" class="st1" width="400" height="84.8"/>
	<text transform="matrix(1.0042 0 0 1 281.8574 11295.7314)" class="st2 st3 st4">Ingresos de valores </text>
	<text transform="matrix(1.0042 0 0 1 281.8574 11314.501)" class="st2 st3 st4">representativos de </text>
	<text transform="matrix(1.0042 0 0 1 281.8574 11333.2695)" class="st2 st3 st4">deuda</text>
	<text transform="matrix(1.0042 0 0 1 281.8574 11252.6328)" class="st2 st3 st4">Bancos</text>
	<text transform="matrix(1.0042 0 0 1 435.4111 11252.6328)" class="st2 st3 st5">10.920,00</text>
	<text transform="matrix(1.0042 0 0 1 567.373 11317.7754)" class="st2 st3 st5">10.920,00</text>
	<line id="Línea_170" class="st6" x1="404" y1="11224.2" x2="404" y2="11352"/>
	<line id="Línea_169" class="st6" x1="531" y1="11203.3" x2="531" y2="11331.1"/>
	<path id="Trazado_99544" class="st7" d="M266.5,11182h400v42.2h-400V11182z"/>
	<text transform="matrix(1.0042 0 0 1 301.3867 11207.4463)" class="st1 st3 st8">CUENTA</text>
	<text transform="matrix(1.0042 0 0 1 430.5273 11208.9482)" class="st1 st3 st8">DÉBITOS</text>
	<text transform="matrix(1.0042 0 0 1 556.9053 11207.4463)" class="st1 st3 st8">CRÉDITOS</text>
</g>
</svg>
