<svg xmlns="http://www.w3.org/2000/svg" width="1227" height="515" viewBox="0 0 1227 515">
  <g id="Grupo_54988" data-name="Grupo 54988" transform="translate(-182 -736.278)">
    <g id="Trazado_102753" data-name="Trazado 102753" transform="translate(182 736.278)" fill="#f3f9ff">
      <path d="M 1226.5 514.5 L 0.5 514.5 L 0.5 0.5 L 1226.5 0.5 L 1226.5 514.5 Z" stroke="none"/>
      <path d="M 1 1 L 1 514 L 1226 514 L 1226 1 L 1 1 M 0 0 L 1227 0 L 1227 515 L 0 515 L 0 0 Z" stroke="none" fill="#e8e8e8"/>
    </g>
    <g id="Grupo_54953" data-name="Grupo 54953" transform="translate(329 -9884.595)">
      <rect id="Rectángulo_5424" data-name="Rectángulo 5424" width="573" height="115.063" transform="translate(180 10731.549)" fill="#f6f6f6"/>
      <rect id="Rectángulo_5428" data-name="Rectángulo 5428" width="573" height="118.618" transform="translate(180 10915.422)" fill="#f6f6f6"/>
      <rect id="Rectángulo_5426" data-name="Rectángulo 5426" width="573" height="69.745" transform="translate(180 10845.677)" fill="#fff"/>
      <text id="a_largo_plazo" data-name="a largo plazo" transform="translate(202 10871.04)" fill="#12263f" font-size="18" font-family="Roboto-Black, Roboto" font-weight="800"><tspan x="0" y="19">a largo plazo</tspan></text>
      <text id="Valores_representativos_de_deuda_a_largo_plazo" data-name="Valores representativos de deuda a largo plazo" transform="translate(202 10753.549)" fill="#12263f" font-size="18" font-family="Roboto-Black, Roboto" font-weight="800"><tspan x="0" y="19">Valores </tspan><tspan x="0" y="46">representativos de </tspan><tspan x="0" y="73">deuda a largo plazo</tspan></text>
      <text id="Ingresos_de_valores_representativos_de_deuda" data-name="Ingresos de valores representativos de deuda" transform="translate(202 10933.04)" fill="#12263f" font-size="18" font-family="Roboto-Black, Roboto" font-weight="800"><tspan x="0" y="19">Ingresos de valores </tspan><tspan x="0" y="46">representativos de </tspan><tspan x="0" y="73">deuda</tspan></text>
      <text id="_25.441_89" data-name="25.441,89" transform="translate(421.965 10862.612)" fill="#12263f" font-size="16" font-family="Roboto-Regular, Roboto"><tspan x="0" y="17">25.441,89</tspan></text>
      <text id="_25.441_89-2" data-name="25.441,89" transform="translate(611 10966.195)" fill="#12263f" font-size="16" font-family="Roboto-Regular, Roboto"><tspan x="0" y="17">25.441,89</tspan></text>
      <line id="Línea_165" data-name="Línea 165" y2="302.491" transform="translate(377 10731.549)" fill="none" stroke="#afafaf" stroke-linecap="round" stroke-width="1"/>
      <line id="Línea_166" data-name="Línea 166" y2="302.491" transform="translate(558.965 10731.549)" fill="none" stroke="#afafaf" stroke-linecap="round" stroke-width="1"/>
      <path id="Trazado_99542" data-name="Trazado 99542" d="M0,0H572.931V60.672H0Z" transform="translate(180 10670.873)" fill="#d9a171"/>
      <text id="CUENTA" transform="translate(276 10707.549)" fill="#fff" font-size="24" font-family="Roboto-Black, Roboto" font-weight="800"><tspan x="-46.025" y="0">CUENTA</tspan></text>
      <text id="DÉBITOS" transform="translate(464 10709.709)" fill="#fff" font-size="24" font-family="Roboto-Black, Roboto" font-weight="800"><tspan x="-49.031" y="0">DÉBITOS</tspan></text>
      <text id="CRÉDITOS" transform="translate(653 10709.549)" fill="#fff" font-size="24" font-family="Roboto-Black, Roboto" font-weight="800"><tspan x="-56.994" y="0">CRÉDITOS</tspan></text>
    </g>
  </g>
</svg>
