<?xml version="1.0" encoding="utf-8"?>
<!-- Generator: Adobe Illustrator 25.2.3, SVG Export Plug-In . SVG Version: 6.00 Build 0)  -->
<svg version="1.1" id="Capa_1" xmlns="http://www.w3.org/2000/svg" xmlns:xlink="http://www.w3.org/1999/xlink" x="0px" y="0px"
	 viewBox="0 0 573 245" style="enable-background:new 0 0 573 245;" xml:space="preserve">
<style type="text/css">
	.st0{fill:#F6F6F6;}
	.st1{fill:#FFFFFF;}
	.st2{fill:#12263F;}
	.st3{fill:none;stroke:#AFAFAF;stroke-linecap:round;}
	.st4{fill:#D9A171;}
</style>
<g id="Grupo_54959" transform="translate(-180 -11144.683)">
	<rect id="Rectángulo_5429" x="266.5" y="11219.1" class="st0" width="400" height="48.1"/>
	<rect id="Rectángulo_5430" x="266.5" y="11267.2" class="st1" width="400" height="94.7"/>
	<path id="Trazado_102785" class="st2" d="M284.8,11299.1h-2.1v-9.9h2.1V11299.1z M288.1,11291.7l0.1,0.9c0.4-0.7,1.2-1,1.9-1
		c0.6,0,1.2,0.2,1.5,0.7c0.4,0.6,0.6,1.3,0.5,2.1v4.8h-2.1v-4.7c0-0.3,0-0.6-0.2-0.8c-0.2-0.2-0.5-0.3-0.7-0.3
		c-0.4,0-0.7,0.2-0.9,0.5v5.2h-2.1v-7.4H288.1z M293.1,11295.4c0-0.7,0.1-1.4,0.3-2c0.2-0.5,0.5-1,0.9-1.3c0.4-0.3,0.9-0.5,1.4-0.5
		c0.6,0,1.2,0.3,1.6,0.8l0.1-0.6h1.9v7.1c0,0.6-0.1,1.2-0.4,1.7c-0.3,0.5-0.7,0.9-1.2,1.1c-0.6,0.3-1.2,0.4-1.8,0.4
		c-0.5,0-1-0.1-1.4-0.3c-0.4-0.2-0.8-0.4-1-0.8l0.9-1.4c0.4,0.5,0.9,0.8,1.5,0.8c0.7,0.1,1.3-0.4,1.4-1.2c0-0.1,0-0.3,0-0.4v-0.2
		c-0.4,0.5-0.9,0.7-1.5,0.7c-0.8,0-1.5-0.4-2-1C293.3,11297.4,293,11296.4,293.1,11295.4L293.1,11295.4z M295.1,11295.5
		c0,0.5,0.1,1,0.3,1.4c0.2,0.3,0.5,0.5,0.9,0.5c0.4,0,0.8-0.2,1-0.5v-3.1c-0.2-0.3-0.6-0.5-1-0.5c-0.4,0-0.7,0.2-0.9,0.6
		C295.2,11294.4,295.1,11295,295.1,11295.5L295.1,11295.5z M304.6,11293.8l-0.7-0.1c-0.5-0.1-1,0.2-1.3,0.7v4.7h-2.1v-7.4h1.9l0.1,1
		c0.2-0.7,0.8-1.1,1.5-1.1c0.2,0,0.4,0,0.6,0.1L304.6,11293.8z M308.5,11299.3c-0.9,0-1.8-0.3-2.5-1c-0.6-0.7-1-1.7-0.9-2.6v-0.2
		c0-0.7,0.1-1.4,0.4-2c0.2-0.6,0.6-1,1.1-1.3c0.5-0.3,1.1-0.5,1.7-0.5c0.8,0,1.6,0.3,2.2,1c0.6,0.7,0.9,1.7,0.8,2.7v0.9h-4.1
		c0.1,0.4,0.2,0.7,0.5,1c0.3,0.2,0.6,0.4,1,0.4c0.6,0,1.2-0.3,1.5-0.8l0.9,1.2c-0.3,0.4-0.7,0.7-1.1,0.9
		C309.6,11299.1,309,11299.3,308.5,11299.3L308.5,11299.3z M308.3,11293.4c-0.6,0-1,0.4-1.1,1.3h2.1v-0.2c0-0.3-0.1-0.6-0.3-0.9
		C308.8,11293.5,308.6,11293.4,308.3,11293.4z M315.6,11297c0-0.2-0.1-0.4-0.3-0.5c-0.3-0.2-0.7-0.3-1-0.4c-0.4-0.1-0.9-0.3-1.3-0.5
		c-0.3-0.2-0.6-0.4-0.8-0.8c-0.2-0.3-0.3-0.7-0.3-1c0-0.7,0.3-1.3,0.8-1.7c0.6-0.5,1.3-0.7,2-0.7c0.7,0,1.5,0.2,2.1,0.7
		c0.5,0.4,0.8,1,0.8,1.7h-2.1c0-0.6-0.3-0.9-0.8-0.9c-0.2,0-0.4,0.1-0.5,0.2c-0.1,0.1-0.2,0.3-0.2,0.5c0,0.2,0.1,0.4,0.3,0.5
		c0.3,0.2,0.6,0.3,0.9,0.3c0.4,0.1,0.7,0.2,1,0.3c0.9,0.2,1.5,1.1,1.5,2.1c0,0.7-0.3,1.3-0.8,1.6c-0.6,0.4-1.4,0.7-2.1,0.6
		c-0.5,0-1-0.1-1.5-0.3c-0.4-0.2-0.8-0.5-1-0.9c-0.2-0.4-0.4-0.8-0.4-1.2h1.9c0,0.3,0.1,0.6,0.3,0.7c0.2,0.2,0.5,0.2,0.8,0.2
		c0.2,0,0.4,0,0.6-0.2C315.5,11297.4,315.6,11297.2,315.6,11297L315.6,11297z M318.3,11295.4c0-0.7,0.1-1.4,0.4-2
		c0.2-0.6,0.6-1,1.1-1.3c0.5-0.3,1.1-0.5,1.7-0.5c0.9-0.1,1.7,0.3,2.3,1c0.6,0.8,0.9,1.8,0.9,2.8v0.1c0,1-0.3,2-0.9,2.7
		c-0.6,0.7-1.5,1.1-2.3,1c-0.8,0-1.7-0.3-2.3-0.9c-0.6-0.7-0.9-1.6-0.9-2.6L318.3,11295.4z M320.4,11295.5c0,0.5,0.1,1,0.3,1.5
		c0.2,0.3,0.5,0.5,0.9,0.5c0.7,0,1.1-0.6,1.1-1.9v-0.2c0-1.3-0.4-2-1.1-2c-0.7,0-1.1,0.6-1.1,1.7L320.4,11295.5z M329.1,11297
		c0-0.2-0.1-0.4-0.3-0.5c-0.3-0.2-0.7-0.3-1-0.4c-0.4-0.1-0.9-0.3-1.3-0.5c-0.3-0.2-0.6-0.4-0.8-0.8c-0.2-0.3-0.3-0.7-0.3-1
		c0-0.7,0.3-1.3,0.8-1.7c0.6-0.5,1.3-0.7,2-0.7c0.7,0,1.5,0.2,2.1,0.7c0.5,0.4,0.8,1,0.8,1.7H329c0-0.6-0.3-0.9-0.8-0.9
		c-0.2,0-0.4,0.1-0.5,0.2c-0.1,0.1-0.2,0.3-0.2,0.5c0,0.2,0.1,0.4,0.3,0.5c0.3,0.2,0.6,0.3,0.9,0.3c0.4,0.1,0.7,0.2,1,0.3
		c0.9,0.2,1.5,1.1,1.5,2.1c0,0.7-0.3,1.3-0.8,1.6c-0.6,0.4-1.4,0.7-2.1,0.6c-0.5,0-1-0.1-1.5-0.3c-0.4-0.2-0.8-0.5-1-0.9
		c-0.2-0.4-0.4-0.8-0.4-1.2h1.9c0,0.3,0.1,0.6,0.3,0.7c0.2,0.2,0.5,0.2,0.8,0.2c0.2,0,0.4,0,0.6-0.2
		C329,11297.4,329.1,11297.2,329.1,11297L329.1,11297z M334.9,11295.4c0-1,0.2-2,0.7-2.8c0.4-0.7,1.2-1,1.9-1c0.6,0,1.1,0.3,1.5,0.8
		v-3.7h2.1v10.5h-1.9l-0.1-0.8c-0.4,0.6-1,0.9-1.6,0.9c-0.7,0-1.4-0.3-1.9-1C335.1,11297.4,334.9,11296.4,334.9,11295.4
		L334.9,11295.4z M337,11295.5c0,1.3,0.3,2,1,2c0.4,0,0.8-0.2,1-0.6v-2.8c-0.2-0.4-0.6-0.7-1-0.7c-0.6,0-1,0.6-1,1.7L337,11295.5z
		 M345.5,11299.3c-0.9,0-1.8-0.3-2.5-1c-0.6-0.7-1-1.7-0.9-2.6v-0.2c0-0.7,0.1-1.4,0.4-2c0.2-0.6,0.6-1,1.1-1.3
		c0.5-0.3,1.1-0.5,1.7-0.5c0.8,0,1.6,0.3,2.2,1c0.6,0.7,0.9,1.7,0.8,2.7v0.9h-4.1c0.1,0.4,0.2,0.7,0.5,1c0.3,0.2,0.6,0.4,1,0.4
		c0.6,0,1.2-0.3,1.5-0.8l0.9,1.2c-0.3,0.4-0.7,0.7-1.1,0.9C346.5,11299.1,346,11299.3,345.5,11299.3L345.5,11299.3z M345.2,11293.4
		c-0.6,0-1,0.4-1.1,1.3h2.1v-0.2c0-0.3-0.1-0.6-0.3-0.9C345.8,11293.5,345.5,11293.4,345.2,11293.4z M354.9,11296.4l1-4.7h2.2
		l-2.2,7.4h-2.1l-2.2-7.4h2.2L354.9,11296.4z M362.4,11299.1c-0.1-0.2-0.2-0.4-0.2-0.7c-0.4,0.5-1,0.8-1.6,0.8
		c-0.6,0-1.2-0.2-1.6-0.6c-0.4-0.4-0.7-1-0.7-1.6c0-0.7,0.3-1.4,0.8-1.8c0.7-0.5,1.5-0.7,2.3-0.6h0.6v-0.4c0-0.7-0.3-1-0.8-1
		c-0.4-0.1-0.7,0.2-0.7,0.6c0,0.1,0,0.1,0,0.2h-2.1c0-0.7,0.3-1.4,0.8-1.7c0.6-0.5,1.3-0.7,2.1-0.7c0.7,0,1.4,0.2,2,0.7
		c0.5,0.5,0.8,1.2,0.8,1.9v3.3c0,0.5,0.1,1.1,0.3,1.6v0.1H362.4z M361.1,11297.6c0.2,0,0.4-0.1,0.6-0.2c0.2-0.1,0.3-0.2,0.4-0.4
		v-1.2h-0.6c-0.7,0-1.1,0.4-1.1,1.1c0,0.2,0.1,0.4,0.2,0.5C360.7,11297.6,360.9,11297.6,361.1,11297.6L361.1,11297.6z
		 M367.5,11299.1h-2.1v-10.5h2.1L367.5,11299.1z M368.5,11295.4c0-0.7,0.1-1.4,0.4-2c0.2-0.6,0.6-1,1.1-1.3c0.5-0.3,1.1-0.5,1.7-0.5
		c0.9-0.1,1.7,0.3,2.3,1c0.6,0.8,0.9,1.8,0.9,2.8v0.1c0,1-0.3,2-0.9,2.7c-0.6,0.7-1.5,1.1-2.3,1c-0.8,0-1.7-0.3-2.3-0.9
		c-0.6-0.7-0.9-1.6-0.9-2.6L368.5,11295.4z M370.6,11295.5c0,0.5,0.1,1,0.3,1.5c0.2,0.3,0.5,0.5,0.9,0.5c0.7,0,1.1-0.6,1.1-1.9v-0.2
		c0-1.3-0.4-2-1.1-2c-0.7,0-1.1,0.6-1.1,1.7L370.6,11295.5z M379.8,11293.8l-0.7-0.1c-0.5-0.1-1,0.2-1.3,0.7v4.7h-2.1v-7.4h1.9
		l0.1,1c0.2-0.7,0.8-1.1,1.5-1.1c0.2,0,0.4,0,0.6,0.1L379.8,11293.8z M383.8,11299.3c-0.9,0-1.8-0.3-2.5-1c-0.6-0.7-1-1.7-0.9-2.6
		v-0.2c0-0.7,0.1-1.4,0.4-2c0.2-0.6,0.6-1,1.1-1.3c0.5-0.3,1.1-0.5,1.7-0.5c0.8,0,1.6,0.3,2.2,1c0.6,0.7,0.9,1.7,0.8,2.7v0.9h-4.1
		c0.1,0.4,0.2,0.7,0.5,1c0.3,0.2,0.6,0.4,1,0.4c0.6,0,1.2-0.3,1.5-0.8l0.9,1.2c-0.3,0.4-0.7,0.7-1.1,0.9
		C384.8,11299.1,384.3,11299.3,383.8,11299.3L383.8,11299.3z M383.6,11293.4c-0.6,0-1,0.4-1.1,1.3h2.1v-0.2c0-0.3-0.1-0.6-0.3-0.9
		C384.1,11293.5,383.8,11293.4,383.6,11293.4L383.6,11293.4z M390.9,11297c0-0.2-0.1-0.4-0.3-0.5c-0.3-0.2-0.7-0.3-1-0.4
		c-0.4-0.1-0.9-0.3-1.3-0.5c-0.3-0.2-0.6-0.4-0.8-0.8c-0.2-0.3-0.3-0.7-0.3-1c0-0.7,0.3-1.3,0.8-1.7c0.6-0.5,1.3-0.7,2-0.7
		c0.7,0,1.5,0.2,2.1,0.7c0.5,0.4,0.8,1,0.8,1.7h-2.1c0-0.6-0.3-0.9-0.8-0.9c-0.2,0-0.4,0.1-0.5,0.2c-0.1,0.1-0.2,0.3-0.2,0.5
		c0,0.2,0.1,0.4,0.3,0.5c0.3,0.2,0.6,0.3,0.9,0.3c0.4,0.1,0.7,0.2,1,0.3c0.9,0.2,1.5,1.1,1.5,2.1c0,0.7-0.3,1.3-0.8,1.6
		c-0.6,0.5-1.4,0.7-2.1,0.6c-0.5,0-1-0.1-1.5-0.3c-0.4-0.2-0.8-0.5-1-0.9c-0.2-0.4-0.4-0.8-0.4-1.2h1.9c0,0.3,0.1,0.6,0.3,0.7
		c0.2,0.2,0.5,0.2,0.8,0.2c0.2,0,0.4,0,0.6-0.2C390.8,11297.4,390.9,11297.2,390.9,11297z M286.5,11314.8l-0.7-0.1
		c-0.5-0.1-1,0.2-1.3,0.7v4.7h-2.1v-7.4h1.9l0.1,0.9c0.2-0.7,0.8-1.1,1.5-1.1c0.2,0,0.4,0,0.6,0.1L286.5,11314.8z M290.4,11320.2
		c-0.9,0-1.8-0.3-2.5-1c-0.6-0.7-1-1.7-0.9-2.6v-0.2c0-0.7,0.1-1.4,0.4-2c0.2-0.6,0.6-1,1.1-1.3c0.5-0.3,1.1-0.5,1.7-0.5
		c0.8,0,1.6,0.3,2.2,1c0.6,0.7,0.9,1.7,0.8,2.7v0.9h-4.1c0.1,0.4,0.2,0.7,0.5,1c0.3,0.2,0.6,0.4,1,0.4c0.6,0,1.2-0.3,1.5-0.8
		l0.9,1.2c-0.3,0.4-0.7,0.7-1.1,0.9C291.5,11320.1,290.9,11320.2,290.4,11320.2L290.4,11320.2z M290.2,11314.4c-0.6,0-1,0.4-1.1,1.3
		h2.1v-0.2c0-0.3-0.1-0.6-0.3-0.9C290.7,11314.4,290.5,11314.3,290.2,11314.4z M300.2,11316.5c0,1-0.2,1.9-0.7,2.7
		c-0.4,0.7-1.1,1.1-1.9,1c-0.6,0-1.1-0.3-1.5-0.7v3.4h-2.1v-10.2h1.9l0.1,0.7c0.4-0.5,1-0.8,1.6-0.8c0.7,0,1.5,0.3,1.9,1
		c0.5,0.8,0.7,1.8,0.7,2.8L300.2,11316.5z M298.1,11316.3c0-1.3-0.3-2-1-2c-0.4-0.1-0.8,0.2-1,0.6v2.9c0.2,0.4,0.6,0.7,1,0.6
		c0.7,0,1-0.6,1-1.9V11316.3z M305.1,11314.8l-0.7-0.1c-0.5-0.1-1,0.2-1.3,0.7v4.7h-2.1v-7.4h1.9l0.1,0.9c0.2-0.7,0.8-1.1,1.5-1.1
		c0.2,0,0.4,0,0.6,0.1L305.1,11314.8z M309.1,11320.2c-0.9,0-1.8-0.3-2.5-1c-0.6-0.7-1-1.7-0.9-2.6v-0.2c0-0.7,0.1-1.4,0.4-2
		c0.2-0.6,0.6-1,1.1-1.3c0.5-0.3,1.1-0.5,1.7-0.5c0.8,0,1.6,0.3,2.2,1c0.6,0.7,0.9,1.7,0.8,2.7v0.9h-4.1c0.1,0.4,0.2,0.7,0.5,1
		c0.3,0.2,0.6,0.4,1,0.4c0.6,0,1.2-0.3,1.5-0.8l0.9,1.2c-0.3,0.4-0.7,0.7-1.1,0.9C310.1,11320.1,309.6,11320.2,309.1,11320.2
		L309.1,11320.2z M308.9,11314.4c-0.6,0-1,0.4-1.1,1.3h2.1v-0.2c0-0.3-0.1-0.6-0.3-0.9C309.4,11314.4,309.1,11314.3,308.9,11314.4z
		 M316.2,11318c0-0.2-0.1-0.4-0.3-0.5c-0.3-0.2-0.7-0.3-1-0.4c-0.4-0.1-0.9-0.3-1.3-0.5c-0.3-0.2-0.6-0.4-0.8-0.8
		c-0.2-0.3-0.3-0.7-0.3-1c0-0.7,0.3-1.3,0.8-1.7c0.6-0.5,1.3-0.7,2-0.7c0.7,0,1.5,0.2,2.1,0.7c0.5,0.4,0.8,1,0.8,1.7h-2.1
		c0-0.6-0.3-0.9-0.8-0.9c-0.2,0-0.4,0.1-0.5,0.2c-0.1,0.1-0.2,0.3-0.2,0.5c0,0.2,0.1,0.4,0.3,0.5c0.3,0.2,0.6,0.3,0.9,0.3
		c0.4,0.1,0.7,0.2,1,0.3c0.9,0.2,1.5,1.1,1.5,2.1c0,0.7-0.3,1.3-0.8,1.6c-0.6,0.5-1.4,0.7-2.1,0.6c-0.5,0-1-0.1-1.5-0.3
		c-0.4-0.2-0.8-0.5-1-0.9c-0.2-0.4-0.4-0.8-0.4-1.2h1.9c0,0.3,0.1,0.6,0.3,0.7c0.2,0.2,0.5,0.2,0.8,0.2c0.2,0,0.4,0,0.6-0.2
		C316.1,11318.4,316.2,11318.2,316.2,11318L316.2,11318z M322.4,11320.2c-0.9,0-1.8-0.3-2.5-1c-0.6-0.7-1-1.7-0.9-2.6v-0.2
		c0-0.7,0.1-1.4,0.4-2c0.2-0.6,0.6-1,1.1-1.3c0.5-0.3,1.1-0.5,1.7-0.5c0.8,0,1.6,0.3,2.2,1c0.6,0.7,0.9,1.7,0.8,2.7v0.9h-4.1
		c0.1,0.4,0.2,0.7,0.5,1c0.3,0.2,0.6,0.4,1,0.4c0.6,0,1.2-0.3,1.5-0.8l0.9,1.2c-0.3,0.4-0.7,0.7-1.1,0.9
		C323.4,11320.1,322.9,11320.2,322.4,11320.2L322.4,11320.2z M322.1,11314.4c-0.6,0-1,0.4-1.1,1.3h2.1v-0.2c0-0.3-0.1-0.6-0.3-0.9
		C322.7,11314.4,322.4,11314.3,322.1,11314.4z M327.9,11312.7l0.1,0.9c0.4-0.7,1.2-1,1.9-1c0.6,0,1.2,0.2,1.5,0.7
		c0.4,0.6,0.6,1.3,0.5,2.1v4.8h-2.1v-4.7c0-0.3,0-0.6-0.2-0.8c-0.2-0.2-0.5-0.3-0.7-0.3c-0.4,0-0.7,0.2-0.9,0.5v5.2H326v-7.4
		L327.9,11312.7z M335.5,11310.9v1.8h1.1v1.6h-1.1v3.4c0,0.2,0,0.4,0.1,0.6c0.2,0.1,0.3,0.2,0.5,0.2c0.2,0,0.3,0,0.5,0v1.6
		c-0.4,0.1-0.8,0.2-1.2,0.2c-0.6,0.1-1.1-0.1-1.6-0.6c-0.4-0.5-0.6-1.1-0.5-1.7v-3.7h-0.8v-1.6h0.8v-1.8L335.5,11310.9z
		 M341.1,11320.1c-0.1-0.2-0.2-0.4-0.2-0.7c-0.4,0.5-1,0.8-1.6,0.8c-0.6,0-1.2-0.2-1.6-0.6c-0.4-0.4-0.7-1-0.7-1.6
		c0-0.7,0.3-1.4,0.8-1.8c0.7-0.5,1.5-0.7,2.3-0.6h0.6v-0.4c0-0.7-0.3-1-0.8-1c-0.4-0.1-0.7,0.2-0.7,0.6c0,0.1,0,0.1,0,0.2h-2.1
		c0-0.7,0.3-1.4,0.8-1.7c0.6-0.5,1.3-0.7,2.1-0.7c0.7,0,1.4,0.2,2,0.7c0.5,0.5,0.8,1.2,0.8,1.9v3.3c0,0.5,0.1,1.1,0.3,1.6v0.1H341.1
		z M339.8,11318.6c0.2,0,0.4-0.1,0.6-0.2c0.2-0.1,0.3-0.2,0.4-0.4v-1.2h-0.6c-0.7,0-1.1,0.4-1.1,1.1c0,0.2,0.1,0.4,0.2,0.5
		C339.5,11318.5,339.7,11318.6,339.8,11318.6z M346.5,11310.9v1.8h1.1v1.6h-1.1v3.4c0,0.2,0,0.4,0.1,0.6c0.2,0.1,0.3,0.2,0.5,0.2
		c0.2,0,0.3,0,0.5,0v1.6c-0.4,0.1-0.8,0.2-1.2,0.2c-0.6,0.1-1.1-0.1-1.6-0.6c-0.4-0.5-0.6-1.1-0.5-1.7v-3.7h-0.8v-1.6h0.8v-1.8
		H346.5z M350.6,11320.1h-2.1v-7.4h2.1V11320.1z M348.4,11310.8c0-0.3,0.1-0.6,0.3-0.8c0.5-0.4,1.2-0.4,1.7,0
		c0.4,0.4,0.4,1.1,0.1,1.5c0,0,0,0-0.1,0.1c-0.5,0.4-1.2,0.4-1.7,0C348.5,11311.4,348.4,11311.1,348.4,11310.8z M354.5,11317.4
		l1-4.7h2.2l-2.2,7.4h-2.1l-2.2-7.4h2.2L354.5,11317.4z M358,11316.3c0-0.7,0.1-1.4,0.4-2c0.2-0.6,0.6-1,1.1-1.3
		c0.5-0.3,1.1-0.5,1.7-0.5c0.9-0.1,1.7,0.3,2.3,1c0.6,0.8,0.9,1.8,0.9,2.8v0.1c0,1-0.3,2-0.9,2.7c-0.6,0.7-1.5,1.1-2.3,1
		c-0.8,0-1.7-0.3-2.3-0.9c-0.6-0.7-0.9-1.6-0.9-2.6L358,11316.3z M360,11316.5c0,0.5,0.1,1,0.3,1.5c0.2,0.3,0.5,0.5,0.9,0.5
		c0.7,0,1.1-0.6,1.1-1.9v-0.2c0-1.3-0.4-2-1.1-2c-0.7,0-1.1,0.6-1.1,1.7L360,11316.5z M368.8,11318c0-0.2-0.1-0.4-0.3-0.5
		c-0.3-0.2-0.7-0.3-1-0.4c-0.4-0.1-0.9-0.3-1.3-0.5c-0.3-0.2-0.6-0.4-0.8-0.8c-0.2-0.3-0.3-0.7-0.3-1c0-0.7,0.3-1.3,0.8-1.7
		c0.6-0.5,1.3-0.7,2-0.7c0.7,0,1.5,0.2,2.1,0.7c0.5,0.4,0.8,1,0.8,1.7h-2.1c0-0.6-0.3-0.9-0.8-0.9c-0.2,0-0.4,0.1-0.5,0.2
		c-0.1,0.1-0.2,0.3-0.2,0.5c0,0.2,0.1,0.4,0.3,0.5c0.3,0.2,0.6,0.3,0.9,0.3c0.4,0.1,0.7,0.2,1,0.3c0.9,0.2,1.5,1.1,1.5,2.1
		c0,0.7-0.3,1.3-0.8,1.6c-0.6,0.4-1.4,0.7-2.1,0.6c-0.5,0-1-0.1-1.5-0.3c-0.4-0.2-0.8-0.5-1-0.9c-0.2-0.4-0.4-0.8-0.4-1.2h1.9
		c0,0.3,0.1,0.6,0.3,0.7c0.2,0.2,0.5,0.2,0.8,0.2c0.2,0,0.4,0,0.6-0.2C368.7,11318.4,368.8,11318.2,368.8,11318L368.8,11318z
		 M374.6,11316.4c0-1,0.2-2,0.7-2.8c0.4-0.7,1.2-1,1.9-1c0.6,0,1.1,0.3,1.5,0.8v-3.7h2.1v10.5h-1.9l-0.1-0.8c-0.4,0.6-1,0.9-1.6,0.9
		c-0.7,0-1.4-0.3-1.9-1C374.8,11318.4,374.5,11317.4,374.6,11316.4L374.6,11316.4z M376.7,11316.5c0,1.3,0.3,2,1,2
		c0.4,0,0.8-0.2,1-0.6v-2.8c-0.2-0.4-0.6-0.7-1-0.7c-0.6,0-1,0.6-1,1.7L376.7,11316.5z M385.1,11320.2c-0.9,0-1.8-0.3-2.5-1
		c-0.6-0.7-1-1.7-0.9-2.6v-0.2c0-0.7,0.1-1.4,0.4-2c0.2-0.6,0.6-1,1.1-1.3c0.5-0.3,1.1-0.5,1.7-0.5c0.8,0,1.6,0.3,2.2,1
		c0.6,0.7,0.9,1.7,0.8,2.7v0.9h-4.1c0.1,0.4,0.2,0.7,0.5,1c0.3,0.2,0.6,0.4,1,0.4c0.6,0,1.2-0.3,1.5-0.8l0.9,1.2
		c-0.3,0.4-0.7,0.7-1.1,0.9C386.2,11320.1,385.7,11320.2,385.1,11320.2L385.1,11320.2z M384.9,11314.4c-0.6,0-1,0.4-1.1,1.3h2.1
		v-0.2c0-0.3-0.1-0.6-0.3-0.9C385.4,11314.4,385.2,11314.3,384.9,11314.4z M282.2,11337.3c0-1,0.2-2,0.7-2.8c0.4-0.7,1.2-1,1.9-1
		c0.6,0,1.1,0.3,1.5,0.8v-3.7h2.1v10.5h-1.9l-0.1-0.8c-0.4,0.6-1,0.9-1.6,0.9c-0.7,0-1.4-0.3-1.9-1
		C282.4,11339.4,282.1,11338.3,282.2,11337.3z M284.2,11337.5c0,1.3,0.3,2,1,2c0.4,0,0.8-0.2,1-0.6v-2.8c-0.2-0.4-0.6-0.7-1-0.7
		c-0.6,0-1,0.6-1,1.7L284.2,11337.5z M292.7,11341.2c-0.9,0-1.8-0.3-2.5-1c-0.6-0.7-1-1.7-0.9-2.6v-0.2c0-0.7,0.1-1.4,0.4-2
		c0.2-0.6,0.6-1,1.1-1.3c0.5-0.3,1.1-0.5,1.7-0.5c0.8,0,1.6,0.3,2.2,1c0.6,0.7,0.9,1.7,0.8,2.7v0.9h-4.1c0.1,0.4,0.2,0.7,0.5,1
		c0.3,0.2,0.6,0.4,1,0.4c0.6,0,1.2-0.3,1.5-0.8l0.9,1.2c-0.3,0.4-0.7,0.7-1.1,0.9C293.8,11341.1,293.2,11341.2,292.7,11341.2z
		 M292.5,11335.3c-0.6,0-1,0.4-1.1,1.3h2.1v-0.2c0-0.3-0.1-0.6-0.3-0.9C293,11335.4,292.8,11335.3,292.5,11335.3z M300.3,11340.3
		c-0.4,0.6-1.1,1-1.8,0.9c-0.6,0-1.2-0.2-1.7-0.7c-0.4-0.6-0.6-1.3-0.6-2v-4.8h2.1v4.8c-0.1,0.5,0.2,0.9,0.6,0.9c0.1,0,0.1,0,0.2,0
		c0.4,0,0.8-0.2,1-0.6v-5.2h2.1v7.4h-1.9L300.3,11340.3z M303.2,11337.3c0-1,0.2-2,0.7-2.8c0.4-0.7,1.2-1,1.9-1
		c0.6,0,1.1,0.3,1.5,0.8v-3.7h2.1v10.5h-1.9l-0.1-0.8c-0.4,0.6-1,0.9-1.6,0.9c-0.7,0-1.4-0.3-1.9-1
		C303.4,11339.4,303.1,11338.3,303.2,11337.3L303.2,11337.3z M305.2,11337.5c0,1.3,0.3,2,1,2c0.4,0,0.8-0.2,1-0.6v-2.8
		c-0.2-0.4-0.6-0.7-1-0.7c-0.6,0-1,0.6-1,1.7L305.2,11337.5z M314.2,11341.1c-0.1-0.2-0.2-0.4-0.2-0.7c-0.4,0.5-1,0.8-1.6,0.8
		c-0.6,0-1.2-0.2-1.6-0.6c-0.4-0.4-0.7-1-0.7-1.6c0-0.7,0.3-1.4,0.8-1.8c0.7-0.5,1.5-0.7,2.3-0.6h0.6v-0.4c0-0.7-0.3-1-0.8-1
		c-0.4-0.1-0.7,0.2-0.7,0.6c0,0.1,0,0.1,0,0.2h-2.1c0-0.7,0.3-1.4,0.8-1.7c0.6-0.5,1.3-0.7,2.1-0.7c0.7,0,1.4,0.2,2,0.7
		c0.5,0.5,0.8,1.2,0.8,1.9v3.3c0,0.5,0.1,1.1,0.3,1.6v0.1H314.2z M312.9,11339.6c0.2,0,0.4-0.1,0.6-0.2c0.2-0.1,0.3-0.2,0.4-0.4
		v-1.2h-0.6c-0.7,0-1.1,0.4-1.1,1.1c0,0.2,0.1,0.4,0.2,0.5C312.6,11339.5,312.8,11339.6,312.9,11339.6L312.9,11339.6z"/>
	<path id="Trazado_102783" class="st2" d="M282.5,11251v-9.9h3.2c0.9-0.1,1.8,0.2,2.6,0.7c0.6,0.5,0.9,1.2,0.9,2
		c0,0.5-0.1,0.9-0.3,1.3c-0.2,0.4-0.6,0.7-0.9,0.8c0.4,0.1,0.8,0.4,1.1,0.8c0.3,0.4,0.4,0.9,0.4,1.4c0.1,0.8-0.3,1.7-0.8,2.2
		c-0.7,0.5-1.6,0.8-2.5,0.7H282.5z M284.7,11246.7v2.4h1.4c0.3,0,0.6-0.1,0.9-0.3c0.2-0.2,0.3-0.5,0.3-0.8c0.1-0.6-0.3-1.2-0.8-1.2
		c-0.1,0-0.2,0-0.3,0H284.7z M284.7,11245.2h1.1c0.4,0,0.7-0.1,1-0.3c0.2-0.2,0.3-0.5,0.3-0.8c0-0.3-0.1-0.7-0.3-0.9
		c-0.3-0.2-0.7-0.3-1-0.3h-1.1V11245.2z M294.3,11251c-0.1-0.2-0.2-0.4-0.2-0.7c-0.4,0.5-1,0.8-1.6,0.8c-0.6,0-1.2-0.2-1.6-0.6
		c-0.4-0.4-0.7-1-0.7-1.6c0-0.7,0.3-1.4,0.8-1.8c0.7-0.5,1.5-0.7,2.3-0.6h0.6v-0.4c0-0.7-0.3-1-0.8-1c-0.4-0.1-0.7,0.2-0.7,0.6
		c0,0.1,0,0.1,0,0.2h-2.1c0-0.7,0.3-1.4,0.8-1.7c0.6-0.5,1.3-0.7,2.1-0.7c0.7,0,1.4,0.2,2,0.7c0.5,0.5,0.8,1.2,0.8,1.9v3.3
		c0,0.5,0.1,1.1,0.3,1.6v0.1H294.3z M293,11249.5c0.2,0,0.4-0.1,0.6-0.2c0.2-0.1,0.3-0.2,0.4-0.4v-1.2h-0.6c-0.7,0-1.1,0.4-1.1,1.1
		c0,0.2,0.1,0.4,0.2,0.5C292.6,11249.4,292.8,11249.5,293,11249.5L293,11249.5z M299.1,11243.6l0.1,0.9c0.4-0.7,1.2-1,1.9-1
		c0.6,0,1.2,0.2,1.5,0.7c0.4,0.6,0.6,1.3,0.5,2.1v4.8h-2.1v-4.7c0-0.3,0-0.6-0.2-0.8c-0.2-0.2-0.5-0.3-0.7-0.3
		c-0.4,0-0.7,0.2-0.9,0.5v5.2h-2.1v-7.4H299.1z M307.1,11249.3c0.2,0,0.5-0.1,0.7-0.3c0.2-0.2,0.3-0.5,0.2-0.7h1.9
		c0,0.8-0.3,1.5-0.8,2c-0.6,0.5-1.3,0.8-2,0.8c-0.9,0-1.7-0.3-2.3-1c-0.6-0.8-0.9-1.8-0.8-2.8v-0.1c0-0.7,0.1-1.4,0.4-2
		c0.2-0.6,0.6-1,1.1-1.3c0.5-0.3,1.1-0.5,1.7-0.5c0.8,0,1.5,0.2,2.1,0.8c0.5,0.6,0.8,1.4,0.8,2.2H308c0-0.3-0.1-0.6-0.3-0.9
		c-0.2-0.2-0.4-0.3-0.7-0.3c-0.5,0-0.8,0.4-0.9,1.1c0,0.3,0,0.7,0,1c0,0.5,0,1.1,0.2,1.5C306.5,11249.2,306.8,11249.3,307.1,11249.3
		L307.1,11249.3z M310.6,11247.2c0-0.7,0.1-1.4,0.4-2c0.2-0.6,0.6-1,1.1-1.3c0.5-0.3,1.1-0.5,1.7-0.5c0.9-0.1,1.7,0.3,2.3,1
		c0.6,0.8,0.9,1.8,0.9,2.8v0.1c0,1-0.3,2-0.9,2.7c-0.6,0.7-1.5,1.1-2.3,1c-0.8,0-1.7-0.3-2.3-0.9c-0.6-0.7-0.9-1.6-0.9-2.6
		L310.6,11247.2z M312.6,11247.3c0,0.5,0.1,1,0.3,1.5c0.2,0.3,0.5,0.5,0.9,0.5c0.7,0,1.1-0.6,1.1-1.9v-0.2c0-1.3-0.4-2-1.1-2
		c-0.7,0-1.1,0.6-1.1,1.7L312.6,11247.3z M321.4,11248.9c0-0.2-0.1-0.4-0.3-0.5c-0.3-0.2-0.7-0.3-1-0.4c-0.4-0.1-0.9-0.3-1.3-0.5
		c-0.3-0.2-0.6-0.4-0.8-0.8c-0.2-0.3-0.3-0.7-0.3-1c0-0.7,0.3-1.3,0.8-1.7c0.6-0.5,1.3-0.7,2-0.7c0.7,0,1.5,0.2,2.1,0.7
		c0.5,0.4,0.8,1,0.8,1.7h-2.1c0-0.6-0.3-0.9-0.8-0.9c-0.2,0-0.4,0.1-0.5,0.2c-0.1,0.1-0.2,0.3-0.2,0.5c0,0.2,0.1,0.4,0.3,0.5
		c0.3,0.2,0.6,0.3,0.9,0.3c0.4,0.1,0.7,0.2,1,0.3c0.9,0.2,1.5,1.1,1.5,2.1c0,0.7-0.3,1.3-0.8,1.6c-0.6,0.5-1.4,0.7-2.1,0.6
		c-0.5,0-1-0.1-1.5-0.3c-0.4-0.2-0.8-0.5-1-0.9c-0.2-0.4-0.4-0.8-0.4-1.2h1.9c0,0.3,0.1,0.6,0.3,0.7c0.2,0.2,0.5,0.2,0.8,0.2
		c0.2,0,0.4,0,0.6-0.2C321.3,11249.3,321.4,11249.1,321.4,11248.9L321.4,11248.9z"/>
	<path id="Trazado_102784" class="st2" d="M439.4,11251h-1v-7.5l-2,0.8v-1l2.9-1.2h0.2V11251z M447.3,11247.2c0.1,1-0.1,2-0.6,2.9
		c-0.4,0.7-1.2,1-1.9,1c-0.7,0.1-1.4-0.3-1.9-0.9c-0.5-0.8-0.7-1.8-0.6-2.8v-1.5c-0.1-1,0.1-2,0.6-2.9c0.4-0.7,1.2-1,1.9-0.9
		c0.7-0.1,1.4,0.3,1.9,0.9c0.5,0.8,0.7,1.8,0.6,2.8L447.3,11247.2z M446.3,11245.6c0-0.7-0.1-1.4-0.4-2.1c-0.2-0.4-0.7-0.7-1.1-0.7
		c-0.5,0-0.9,0.2-1.1,0.6c-0.3,0.6-0.4,1.3-0.4,2v1.8c0,0.7,0.1,1.5,0.4,2.1c0.2,0.4,0.7,0.7,1.1,0.7c0.4,0,0.9-0.2,1.1-0.6
		c0.3-0.6,0.4-1.3,0.4-2L446.3,11245.6z M448.7,11250.4c0-0.2,0.1-0.4,0.2-0.5c0.1-0.1,0.3-0.2,0.5-0.2c0.2,0,0.3,0.1,0.5,0.2
		c0.1,0.1,0.2,0.3,0.2,0.5c0,0.2-0.1,0.3-0.2,0.5c-0.1,0.1-0.3,0.2-0.5,0.2c-0.3,0-0.6-0.2-0.6-0.5
		C448.7,11250.4,448.7,11250.4,448.7,11250.4L448.7,11250.4z M455.4,11247.1c-0.2,0.3-0.5,0.5-0.8,0.7c-0.3,0.2-0.6,0.3-1,0.3
		c-0.4,0-0.8-0.1-1.2-0.4c-0.3-0.3-0.6-0.6-0.8-1.1c-0.2-0.5-0.3-1-0.3-1.5c0-0.6,0.1-1.1,0.3-1.6c0.2-0.4,0.5-0.8,0.9-1.1
		c0.4-0.3,0.8-0.4,1.3-0.4c0.7,0,1.4,0.3,1.9,1c0.5,0.8,0.7,1.7,0.7,2.7v0.3c0,1.7-0.3,3-0.9,3.8c-0.7,0.8-1.7,1.3-2.8,1.2h-0.2v-1
		h0.2c0.7,0,1.4-0.2,1.9-0.7C455.2,11248.7,455.4,11247.9,455.4,11247.1z M453.9,11247.1c0.3,0,0.7-0.1,0.9-0.3
		c0.3-0.2,0.5-0.5,0.6-0.9v-0.5c0-0.6-0.1-1.3-0.4-1.8c-0.4-0.7-1.2-0.9-1.8-0.5c-0.1,0.1-0.2,0.2-0.3,0.3c-0.3,0.4-0.4,1-0.4,1.5
		c0,0.5,0.1,1.1,0.4,1.5C453.1,11246.9,453.5,11247.1,453.9,11247.1L453.9,11247.1z M463,11251h-5.2v-0.8l2.7-3.4
		c0.3-0.4,0.6-0.8,0.8-1.3c0.2-0.3,0.2-0.6,0.2-1c0-0.4-0.1-0.8-0.4-1.1c-0.3-0.3-0.6-0.5-1-0.4c-0.4,0-0.9,0.1-1.2,0.5
		c-0.3,0.4-0.4,0.8-0.4,1.3h-1c0-0.7,0.2-1.5,0.7-2c0.5-0.5,1.2-0.8,1.9-0.8c0.6,0,1.3,0.2,1.8,0.6c0.4,0.4,0.7,1.1,0.6,1.7
		c0,0.9-0.5,1.9-1.5,3.1l-2.1,2.6h4L463,11251z M469.1,11247.2c0.1,1-0.1,2-0.6,2.9c-0.4,0.7-1.2,1-1.9,1c-0.7,0.1-1.4-0.3-1.9-0.9
		c-0.5-0.8-0.7-1.8-0.6-2.8v-1.5c-0.1-1,0.1-2,0.6-2.9c0.4-0.7,1.2-1,1.9-0.9c0.7-0.1,1.4,0.3,1.9,0.9c0.5,0.8,0.7,1.8,0.6,2.8
		L469.1,11247.2z M468.1,11245.6c0-0.7-0.1-1.4-0.4-2.1c-0.2-0.4-0.7-0.7-1.1-0.7c-0.5,0-0.9,0.2-1.1,0.6c-0.3,0.6-0.4,1.3-0.4,2
		v1.8c0,0.7,0.1,1.5,0.4,2.1c0.2,0.4,0.7,0.7,1.1,0.7c0.4,0,0.9-0.2,1.1-0.6c0.3-0.6,0.4-1.3,0.4-2L468.1,11245.6z M470.4,11252.7
		l-0.6-0.4c0.3-0.5,0.5-1,0.5-1.6v-1h1v0.9c0,0.4-0.1,0.8-0.3,1.2C471,11252.1,470.7,11252.4,470.4,11252.7L470.4,11252.7z
		 M477.5,11247.2c0.1,1-0.1,2-0.6,2.9c-0.9,1.2-2.5,1.3-3.5,0.3c-0.1-0.1-0.2-0.2-0.2-0.3c-0.5-0.8-0.7-1.8-0.6-2.8v-1.5
		c-0.1-1,0.1-2,0.6-2.9c0.9-1.2,2.6-1.3,3.6-0.2c0.1,0.1,0.1,0.1,0.2,0.2c0.5,0.8,0.7,1.8,0.6,2.8L477.5,11247.2z M476.5,11245.6
		c0-0.7-0.1-1.4-0.4-2.1c-0.2-0.4-0.7-0.7-1.1-0.7c-0.5,0-0.9,0.2-1.1,0.6c-0.3,0.6-0.4,1.3-0.4,2v1.8c0,0.7,0.1,1.5,0.4,2.1
		c0.2,0.4,0.7,0.7,1.1,0.7c0.4,0,0.9-0.2,1.1-0.6c0.3-0.6,0.4-1.3,0.4-2L476.5,11245.6z M483.8,11247.2c0.1,1-0.1,2-0.6,2.9
		c-0.9,1.2-2.5,1.3-3.5,0.3c-0.1-0.1-0.2-0.2-0.2-0.3c-0.5-0.8-0.7-1.8-0.6-2.8v-1.5c-0.1-1,0.1-2,0.6-2.9c0.9-1.2,2.6-1.3,3.6-0.2
		c0.1,0.1,0.1,0.1,0.2,0.2c0.5,0.8,0.7,1.8,0.6,2.8L483.8,11247.2z M482.8,11245.6c0-0.7-0.1-1.4-0.4-2.1c-0.2-0.4-0.7-0.7-1.1-0.7
		c-0.5,0-0.9,0.2-1.1,0.6c-0.3,0.6-0.4,1.3-0.4,2v1.8c0,0.7,0.1,1.5,0.4,2.1c0.2,0.4,0.7,0.7,1.1,0.7c0.4,0,0.9-0.2,1.1-0.6
		c0.3-0.6,0.4-1.3,0.4-2L482.8,11245.6z"/>
	<path id="Trazado_102786" class="st2" d="M571.4,11323.8h-1v-7.5l-2,0.8v-1l2.9-1.2h0.2V11323.8z M579.3,11320c0.1,1-0.1,2-0.6,2.9
		c-0.4,0.7-1.2,1-1.9,1c-0.7,0.1-1.4-0.3-1.9-0.9c-0.5-0.8-0.7-1.8-0.6-2.8v-1.5c-0.1-1,0.1-2,0.6-2.9c0.4-0.7,1.2-1,1.9-0.9
		c0.7-0.1,1.4,0.3,1.9,0.9c0.5,0.8,0.7,1.8,0.6,2.8L579.3,11320z M578.3,11318.5c0-0.7-0.1-1.4-0.4-2.1c-0.2-0.4-0.7-0.7-1.1-0.7
		c-0.5,0-0.9,0.2-1.1,0.6c-0.3,0.6-0.4,1.3-0.4,2v1.8c0,0.7,0.1,1.5,0.4,2.1c0.2,0.4,0.7,0.7,1.1,0.7c0.4,0,0.9-0.2,1.1-0.6
		c0.3-0.6,0.4-1.3,0.4-2L578.3,11318.5z M580.7,11323.2c0-0.2,0.1-0.4,0.2-0.5c0.1-0.1,0.3-0.2,0.5-0.2c0.2,0,0.3,0.1,0.5,0.2
		c0.1,0.1,0.2,0.3,0.2,0.5c0,0.2-0.1,0.3-0.2,0.5c-0.1,0.1-0.3,0.2-0.5,0.2c-0.3,0-0.6-0.2-0.6-0.5
		C580.7,11323.2,580.7,11323.2,580.7,11323.2L580.7,11323.2z M587.4,11319.9c-0.2,0.3-0.5,0.5-0.8,0.7c-0.3,0.2-0.6,0.3-1,0.3
		c-0.4,0-0.8-0.1-1.2-0.4c-0.3-0.3-0.6-0.6-0.8-1.1c-0.2-0.5-0.3-1-0.3-1.5c0-0.5,0.1-1.1,0.3-1.6c0.2-0.5,0.5-0.8,0.9-1.1
		c0.4-0.3,0.8-0.4,1.3-0.4c0.7,0,1.4,0.3,1.9,1c0.5,0.8,0.7,1.7,0.7,2.7v0.3c0,1.7-0.3,3-0.9,3.8c-0.7,0.8-1.7,1.3-2.8,1.2h-0.2v-1
		h0.2c0.7,0,1.4-0.2,1.9-0.7C587.1,11321.5,587.4,11320.7,587.4,11319.9z M585.8,11319.9c0.3,0,0.7-0.1,0.9-0.3
		c0.3-0.2,0.5-0.5,0.6-0.9v-0.5c0-0.6-0.1-1.3-0.4-1.8c-0.4-0.7-1.2-0.9-1.8-0.5c-0.1,0.1-0.2,0.2-0.3,0.3c-0.3,0.4-0.4,1-0.4,1.5
		c0,0.5,0.1,1.1,0.4,1.5C585,11319.7,585.4,11319.9,585.8,11319.9L585.8,11319.9z M595,11323.8h-5.2v-0.8l2.7-3.4
		c0.3-0.4,0.6-0.8,0.8-1.3c0.2-0.3,0.2-0.6,0.2-1c0-0.4-0.1-0.8-0.4-1.1c-0.3-0.3-0.6-0.5-1-0.4c-0.4,0-0.9,0.1-1.2,0.5
		c-0.3,0.4-0.4,0.8-0.4,1.3h-1c0-0.7,0.2-1.5,0.7-2c0.5-0.5,1.2-0.8,1.9-0.8c0.6,0,1.3,0.2,1.8,0.6c0.4,0.4,0.7,1.1,0.6,1.7
		c0,0.9-0.5,1.9-1.5,3.1l-2.1,2.6h4L595,11323.8z M601,11320c0.1,1-0.1,2-0.6,2.9c-0.4,0.7-1.2,1-1.9,1c-0.7,0.1-1.4-0.3-1.9-0.9
		c-0.5-0.8-0.7-1.8-0.6-2.8v-1.5c-0.1-1,0.1-2,0.6-2.9c0.4-0.7,1.2-1,1.9-0.9c0.7-0.1,1.4,0.3,1.9,0.9c0.5,0.8,0.7,1.8,0.6,2.8
		L601,11320z M600,11318.5c0-0.7-0.1-1.4-0.4-2.1c-0.2-0.4-0.7-0.7-1.1-0.7c-0.5,0-0.9,0.2-1.1,0.6c-0.3,0.6-0.4,1.3-0.4,2v1.8
		c0,0.7,0.1,1.5,0.4,2.1c0.2,0.4,0.7,0.7,1.1,0.7c0.4,0,0.9-0.2,1.1-0.6c0.3-0.6,0.4-1.3,0.4-2L600,11318.5z M602.4,11325.5
		l-0.6-0.4c0.3-0.5,0.5-1,0.5-1.6v-1h1v0.9c0,0.4-0.1,0.8-0.3,1.2C602.9,11324.9,602.7,11325.3,602.4,11325.5L602.4,11325.5z
		 M609.5,11320c0.1,1-0.1,2-0.6,2.9c-0.9,1.2-2.5,1.3-3.5,0.3c-0.1-0.1-0.2-0.2-0.2-0.3c-0.5-0.8-0.7-1.8-0.6-2.8v-1.5
		c-0.1-1,0.1-2,0.6-2.9c0.9-1.2,2.6-1.3,3.6-0.2c0.1,0.1,0.1,0.1,0.2,0.2c0.5,0.8,0.7,1.8,0.6,2.8L609.5,11320z M608.5,11318.5
		c0-0.7-0.1-1.4-0.4-2.1c-0.2-0.4-0.7-0.7-1.1-0.7c-0.5,0-0.9,0.2-1.1,0.6c-0.3,0.6-0.4,1.3-0.4,2v1.8c0,0.7,0.1,1.5,0.4,2.1
		c0.2,0.4,0.7,0.7,1.1,0.7c0.4,0,0.9-0.2,1.1-0.6c0.3-0.6,0.4-1.3,0.4-2L608.5,11318.5z M615.8,11320c0.1,1-0.1,2-0.6,2.9
		c-0.9,1.2-2.5,1.3-3.5,0.3c-0.1-0.1-0.2-0.2-0.2-0.3c-0.5-0.8-0.7-1.8-0.6-2.8v-1.5c-0.1-1,0.1-2,0.6-2.9c0.9-1.2,2.6-1.3,3.6-0.2
		c0.1,0.1,0.1,0.1,0.2,0.2c0.5,0.8,0.7,1.8,0.6,2.8L615.8,11320z M614.8,11318.5c0-0.7-0.1-1.4-0.4-2.1c-0.2-0.4-0.7-0.7-1.1-0.7
		c-0.5,0-0.9,0.2-1.1,0.6c-0.3,0.6-0.4,1.3-0.4,2v1.8c0,0.7,0.1,1.5,0.4,2.1c0.2,0.4,0.7,0.7,1.1,0.7c0.4,0,0.9-0.2,1.1-0.6
		c0.3-0.6,0.4-1.3,0.4-2L614.8,11318.5z"/>
	<line id="Línea_170" class="st3" x1="404" y1="11219.1" x2="404" y2="11362"/>
	<line id="Línea_169" class="st3" x1="531" y1="11195.8" x2="531" y2="11338.6"/>
	<path id="Trazado_99544" class="st4" d="M266.5,11172h400v47.1h-400V11172z"/>
	<path id="Trazado_102780" class="st1" d="M311.9,11196c0,0.9-0.3,1.7-0.7,2.4c-0.4,0.7-1,1.3-1.7,1.6c-0.8,0.4-1.7,0.6-2.5,0.6
		c-1.4,0.1-2.8-0.5-3.7-1.7c-1-1.4-1.4-3.1-1.4-4.8v-0.7c0-1.2,0.2-2.3,0.6-3.4c0.4-0.9,1-1.7,1.8-2.3c0.8-0.5,1.7-0.8,2.7-0.8
		c1.3-0.1,2.5,0.4,3.5,1.3c0.9,0.9,1.4,2.2,1.5,3.5h-2.9c0-0.6-0.2-1.3-0.5-1.7c-0.4-0.4-1-0.6-1.6-0.5c-0.6,0-1.2,0.3-1.6,0.9
		c-0.4,0.9-0.6,1.9-0.5,2.8v0.9c-0.1,1,0.1,2.1,0.5,3c0.4,0.6,1,1,1.6,0.9c0.5,0,1.1-0.1,1.5-0.5c0.4-0.4,0.6-1,0.6-1.6L311.9,11196
		z M322.6,11187.2v8.7c0,0.9-0.2,1.8-0.6,2.6c-0.4,0.7-0.9,1.3-1.6,1.6c-0.8,0.4-1.6,0.6-2.5,0.6c-1.2,0.1-2.5-0.4-3.4-1.3
		c-0.9-0.9-1.3-2.1-1.3-3.4v-8.7h2.9v8.8c0,1.5,0.6,2.2,1.8,2.2c0.5,0,1-0.2,1.4-0.5c0.3-0.5,0.5-1.1,0.5-1.8v-8.7H322.6z
		 M331.8,11194.8h-4.5v3.2h5.3v2.5h-8.2v-13.3h8.2v2.5h-5.4v2.8h4.5L331.8,11194.8z M343.7,11200.5h-2.9l-4.2-8.2v8.2h-2.9v-13.3
		h2.9l4.2,8.2v-8.2h2.9L343.7,11200.5z M354.9,11189.7h-3.6v10.8h-2.9v-10.8h-3.5v-2.5h10L354.9,11189.7z M361.9,11198H358l-0.7,2.5
		h-3.1l4.4-13.3h2.7l4.4,13.3h-3.1L361.9,11198z M358.7,11195.5h2.6l-1.3-4.6L358.7,11195.5z"/>
	<path id="Trazado_102781" class="st1" d="M431.4,11202.1v-13.3h3.8c1,0,2,0.3,2.8,0.8c0.8,0.5,1.5,1.3,2,2.2c0.5,1,0.7,2.1,0.7,3.3
		v0.6c0,1.1-0.2,2.3-0.7,3.3c-0.4,0.9-1.1,1.7-1.9,2.3c-0.9,0.5-1.8,0.8-2.8,0.8H431.4z M434.3,11191.3v8.3h1c0.7,0,1.5-0.3,1.9-1
		c0.5-0.9,0.7-1.9,0.7-2.9v-0.6c0.1-1-0.2-2-0.7-2.9c-0.5-0.7-1.2-1-1.9-1H434.3z M449.6,11196.5h-4.5v3.2h5.3v2.5h-8.2v-13.3h8.2
		v2.5h-5.4v2.8h4.5V11196.5z M447,11185.3h2.9l-2.3,2.9l-2.2,0L447,11185.3z M451.6,11202.1v-13.3h4.3c1.2-0.1,2.4,0.2,3.5,0.9
		c0.8,0.6,1.2,1.6,1.2,2.7c0,0.6-0.1,1.2-0.4,1.8c-0.3,0.5-0.7,0.9-1.3,1.1c0.6,0.1,1.1,0.5,1.4,1c0.3,0.5,0.5,1.2,0.5,1.8
		c0.1,1.1-0.3,2.2-1.1,2.9c-1,0.7-2.1,1.1-3.3,1H451.6z M454.5,11196.5v3.2h1.9c0.4,0,0.9-0.1,1.2-0.4c0.3-0.3,0.4-0.7,0.4-1.1
		c0.1-0.8-0.4-1.5-1.1-1.7c-0.1,0-0.2,0-0.4,0H454.5z M454.5,11194.4h1.5c0.5,0,0.9-0.1,1.3-0.4c0.3-0.3,0.4-0.7,0.4-1.1
		c0-0.5-0.1-0.9-0.4-1.2c-0.4-0.3-0.9-0.4-1.4-0.4h-1.4L454.5,11194.4z M465.5,11202.1h-2.9v-13.3h2.9V11202.1z M476.8,11191.3h-3.6
		v10.8h-2.9v-10.8h-3.5v-2.5h10V11191.3z M487.9,11195.8c0,1.2-0.2,2.4-0.6,3.4c-0.4,1-1,1.8-1.8,2.3c-0.8,0.5-1.8,0.8-2.7,0.8
		c-0.9,0-1.9-0.2-2.7-0.8c-0.8-0.5-1.4-1.3-1.8-2.2c-0.5-1-0.7-2.2-0.7-3.3v-0.7c0-1.2,0.2-2.4,0.6-3.4c0.4-1,1-1.8,1.8-2.3
		c0.8-0.5,1.8-0.8,2.7-0.8c0.9,0,1.9,0.3,2.7,0.8c0.8,0.5,1.4,1.3,1.8,2.3c0.5,1.1,0.7,2.2,0.7,3.4V11195.8z M485,11195.2
		c0.1-1-0.1-2.1-0.6-3c-0.4-0.7-1-1.1-1.7-1c-1.4,0-2.2,1.2-2.3,3.6l0,1c-0.1,1,0.1,2.1,0.6,3c0.4,0.7,1,1.1,1.7,1
		c0.7,0,1.3-0.4,1.7-1c0.4-0.9,0.6-1.9,0.6-3L485,11195.2z M495.5,11198.6c0-0.4-0.1-0.8-0.4-1.1c-0.5-0.4-1-0.6-1.6-0.8
		c-0.6-0.2-1.2-0.5-1.8-0.8c-1.5-0.8-2.3-2-2.3-3.5c0-0.7,0.2-1.4,0.6-1.9c0.4-0.6,1-1,1.6-1.3c0.8-0.3,1.6-0.5,2.4-0.5
		c0.8,0,1.6,0.2,2.3,0.5c0.6,0.3,1.2,0.8,1.6,1.4c0.4,0.6,0.6,1.4,0.6,2.2h-2.9c0-0.5-0.1-0.9-0.4-1.3c-0.3-0.3-0.8-0.5-1.2-0.4
		c-0.4,0-0.9,0.1-1.2,0.4c-0.3,0.2-0.4,0.6-0.4,1c0,0.4,0.2,0.7,0.5,0.9c0.5,0.4,1.1,0.7,1.7,0.9c0.7,0.2,1.4,0.6,2,1
		c1.2,0.6,1.9,2,1.9,3.4c0,1.1-0.4,2.1-1.2,2.7c-1,0.7-2.1,1.1-3.2,1c-0.9,0-1.8-0.2-2.6-0.6c-0.7-0.3-1.3-0.9-1.8-1.6
		c-0.4-0.7-0.6-1.5-0.6-2.3h2.9c0,0.6,0.1,1.1,0.5,1.6c0.5,0.4,1,0.6,1.6,0.5c0.4,0,0.8-0.1,1.1-0.3
		C495.4,11199.3,495.6,11199,495.5,11198.6z"/>
	<path id="Trazado_102782" class="st1" d="M567.4,11196c0,0.9-0.3,1.7-0.7,2.4c-0.4,0.7-1,1.3-1.7,1.6c-0.8,0.4-1.7,0.6-2.5,0.6
		c-1.4,0.1-2.8-0.5-3.7-1.7c-1-1.4-1.4-3.1-1.4-4.8v-0.7c0-1.2,0.2-2.3,0.6-3.4c0.4-0.9,1-1.7,1.8-2.3c0.8-0.5,1.7-0.8,2.7-0.8
		c1.3-0.1,2.5,0.4,3.5,1.3c0.9,0.9,1.4,2.2,1.5,3.5h-2.9c0-0.6-0.2-1.3-0.5-1.7c-0.4-0.4-1-0.6-1.6-0.5c-0.6,0-1.2,0.3-1.6,0.9
		c-0.4,0.9-0.6,1.9-0.5,2.8v0.9c-0.1,1,0.1,2.1,0.5,3c0.4,0.6,1,1,1.6,0.9c0.5,0,1.1-0.1,1.5-0.5c0.4-0.4,0.6-1,0.6-1.6L567.4,11196
		z M573.2,11195.8h-1.6v4.7h-2.9v-13.3h4.7c1.2-0.1,2.3,0.3,3.3,1c0.8,0.7,1.2,1.8,1.2,3c0,0.8-0.1,1.6-0.5,2.3
		c-0.4,0.7-0.9,1.2-1.6,1.5l2.5,5.4v0.1h-3.1L573.2,11195.8z M571.7,11193.3h1.8c0.5,0,0.9-0.1,1.2-0.5c0.3-0.4,0.4-0.8,0.4-1.3
		c0-0.5-0.1-1-0.4-1.3c-0.3-0.3-0.8-0.5-1.2-0.5h-1.8L571.7,11193.3z M587.1,11194.8h-4.5v3.2h5.3v2.5h-8.2v-13.3h8.2v2.5h-5.4v2.8
		h4.5L587.1,11194.8z M584.4,11183.6h2.9l-2.3,2.9l-2.2,0L584.4,11183.6z M589.1,11200.5v-13.3h3.8c1,0,2,0.3,2.8,0.8
		c0.8,0.5,1.5,1.3,2,2.2c0.5,1,0.7,2.1,0.7,3.3v0.6c0,1.1-0.2,2.3-0.7,3.3c-0.4,0.9-1.1,1.7-1.9,2.3c-0.9,0.5-1.8,0.8-2.8,0.8H589.1
		z M592,11189.7v8.3h1c0.7,0,1.5-0.3,1.9-1c0.5-0.9,0.7-1.9,0.7-2.9v-0.6c0.1-1-0.2-2-0.7-2.9c-0.5-0.7-1.2-1-1.9-1H592z
		 M603,11200.5h-2.9v-13.3h2.9V11200.5z M614.3,11189.7h-3.6v10.8h-2.9v-10.8h-3.5v-2.5h10V11189.7z M625.4,11194.1
		c0,1.2-0.2,2.4-0.6,3.4c-0.4,1-1,1.8-1.8,2.3c-0.8,0.5-1.8,0.8-2.7,0.8c-0.9,0-1.9-0.2-2.7-0.8c-0.8-0.5-1.4-1.3-1.8-2.2
		c-0.5-1-0.7-2.2-0.7-3.3v-0.7c0-1.2,0.2-2.4,0.6-3.4c0.4-1,1-1.8,1.8-2.3c0.8-0.5,1.8-0.8,2.7-0.8c0.9,0,1.9,0.3,2.7,0.8
		c0.8,0.5,1.4,1.3,1.8,2.3c0.5,1.1,0.7,2.2,0.7,3.4V11194.1z M622.5,11193.5c0.1-1-0.1-2.1-0.6-3c-0.4-0.7-1-1.1-1.7-1
		c-1.4,0-2.2,1.2-2.3,3.6l0,1c-0.1,1,0.1,2.1,0.6,3c0.4,0.7,1,1.1,1.7,1c0.7,0,1.3-0.4,1.7-1c0.4-0.9,0.6-1.9,0.6-3V11193.5z
		 M633,11196.9c0-0.4-0.1-0.8-0.4-1.1c-0.5-0.4-1-0.6-1.6-0.8c-0.6-0.2-1.2-0.5-1.8-0.8c-1.5-0.8-2.3-2-2.3-3.5
		c0-0.7,0.2-1.4,0.6-1.9c0.4-0.6,1-1.1,1.6-1.3c0.8-0.3,1.6-0.5,2.4-0.5c0.8,0,1.6,0.2,2.3,0.5c0.6,0.3,1.2,0.8,1.6,1.5
		c0.4,0.6,0.6,1.4,0.6,2.2H633c0-0.5-0.1-0.9-0.4-1.3c-0.3-0.3-0.8-0.5-1.2-0.4c-0.4,0-0.9,0.1-1.2,0.4c-0.3,0.2-0.4,0.6-0.4,1
		c0,0.4,0.2,0.7,0.5,0.9c0.5,0.4,1.1,0.7,1.7,0.9c0.7,0.2,1.4,0.6,2,1c1.2,0.6,1.9,2,1.9,3.4c0,1.1-0.4,2.1-1.2,2.7
		c-1,0.7-2.1,1.1-3.2,1c-0.9,0-1.8-0.2-2.6-0.6c-0.7-0.3-1.3-0.9-1.8-1.6c-0.4-0.7-0.6-1.5-0.6-2.3h2.9c0,0.6,0.1,1.1,0.5,1.6
		c0.5,0.4,1,0.6,1.6,0.5c0.4,0,0.8-0.1,1.1-0.3C632.9,11197.7,633,11197.3,633,11196.9z"/>
</g>
</svg>
