<svg xmlns="http://www.w3.org/2000/svg" width="60" height="60" viewBox="0 0 60 60">
  <g id="Grupo_54995" data-name="Grupo 54995" transform="translate(-800 -1388.5)">
    <circle id="Elipse_3995" data-name="Elipse 3995" cx="30" cy="30" r="30" transform="translate(800 1388.5)" fill="#d9a171"/>
    <path id="Trazado_102771" data-name="Trazado 102771" d="M16.1,23.207A9.66,9.66,0,0,1,14.487,29.2a5.4,5.4,0,0,1-4.541,2.095,4.684,4.684,0,0,1-3.9-1.919L5.845,31H1.421V8.5H6.357v7.925a4.519,4.519,0,0,1,3.56-1.567,5.4,5.4,0,0,1,4.57,2.124A9.71,9.71,0,0,1,16.1,22.958Zm-4.951-.315a6.443,6.443,0,0,0-.608-3.254,2.049,2.049,0,0,0-1.868-.973,2.364,2.364,0,0,0-2.314,1.272v6.288A2.377,2.377,0,0,0,8.7,27.484a2.1,2.1,0,0,0,2.212-1.7A12.182,12.182,0,0,0,11.147,22.892Z" transform="translate(821 1398.5)" fill="#fff"/>
  </g>
</svg>
