<svg xmlns="http://www.w3.org/2000/svg" width="500" height="372.561" viewBox="0 0 500 372.561">
  <g id="Grupo_54826" data-name="Grupo 54826" transform="translate(-727 -6570.382)">
    <g id="freepik--background-complete--inject-219">
      <rect id="Rectángulo_6723" data-name="Rectángulo 6723" width="500" height="0.25" transform="translate(727 6897.783)" fill="#ebebeb"/>
      <rect id="Rectángulo_6724" data-name="Rectángulo 6724" width="8.69" height="0.25" transform="translate(1049.53 6916.592)" fill="#ebebeb"/>
      <rect id="Rectángulo_6725" data-name="Rectángulo 6725" width="23.18" height="0.25" transform="translate(877.04 6904.163)" fill="#ebebeb"/>
      <rect id="Rectángulo_6726" data-name="Rectángulo 6726" width="56.67" height="0.25" transform="translate(1129.1 6909.522)" fill="#ebebeb"/>
      <rect id="Rectángulo_6727" data-name="Rectángulo 6727" width="56.67" height="0.25" transform="translate(769.72 6909.522)" fill="#ebebeb"/>
      <path id="Trazado_102477" data-name="Trazado 102477" d="M964,6853.182H770.91a5.709,5.709,0,0,1-5.7-5.71v-271.43a5.711,5.711,0,0,1,5.7-5.66H964a5.71,5.71,0,0,1,5.71,5.71h0v271.38A5.71,5.71,0,0,1,964,6853.182Zm-193.09-282.6a5.46,5.46,0,0,0-5.45,5.46v271.43a5.459,5.459,0,0,0,5.45,5.46H964a5.47,5.47,0,0,0,5.46-5.46v-271.43a5.471,5.471,0,0,0-5.46-5.46Z" fill="#ebebeb"/>
      <path id="Trazado_102478" data-name="Trazado 102478" d="M1180.31,6853.182H987.21a5.719,5.719,0,0,1-5.71-5.71v-271.43a5.721,5.721,0,0,1,5.71-5.66h193.1a5.71,5.71,0,0,1,5.69,5.66v271.43A5.71,5.71,0,0,1,1180.31,6853.182Zm-193.1-282.6a5.47,5.47,0,0,0-5.46,5.46v271.43a5.469,5.469,0,0,0,5.46,5.46h193.1a5.47,5.47,0,0,0,5.46-5.46v-271.43a5.471,5.471,0,0,0-5.46-5.46Z" fill="#ebebeb"/>
      <rect id="Rectángulo_6728" data-name="Rectángulo 6728" width="265.52" height="144.23" transform="translate(840.3 6607.513)" fill="#e6e6e6"/>
      <rect id="Rectángulo_6729" data-name="Rectángulo 6729" width="265.52" height="144.23" transform="translate(837.28 6607.513)" fill="#f5f5f5"/>
      <rect id="Rectángulo_6730" data-name="Rectángulo 6730" width="254.69" height="132.07" transform="translate(842.7 6613.592)" fill="#fff"/>
      <rect id="Rectángulo_6731" data-name="Rectángulo 6731" width="2.28" height="132.07" transform="translate(842.7 6613.603)" fill="#e6e6e6"/>
      <rect id="Rectángulo_6732" data-name="Rectángulo 6732" width="261.04" height="8.16" transform="translate(839.52 6714.382)" fill="#f5f5f5"/>
      <rect id="Rectángulo_6733" data-name="Rectángulo 6733" width="261.04" height="8.16" transform="translate(839.52 6645.042)" fill="#f5f5f5"/>
      <path id="Trazado_102479" data-name="Trazado 102479" d="M831.39,6597.452h280.33a.84.84,0,0,1,.83.84h0a.83.83,0,0,1-.83.83H831.39a.839.839,0,0,1-.84-.83h0A.85.85,0,0,1,831.39,6597.452Z" fill="#e6e6e6"/>
      <path id="Trazado_102480" data-name="Trazado 102480" d="M826.39,6598.292a4.17,4.17,0,1,0,4.17-4.17h-.01a4.158,4.158,0,0,0-4.16,4.159Z" fill="#e6e6e6"/>
      <path id="Trazado_102481" data-name="Trazado 102481" d="M1104.7,6602.952h0a1.119,1.119,0,0,0,1.12-1.12v-2.45a1.12,1.12,0,0,0-1.12-1.12h0a1.131,1.131,0,0,0-1.13,1.12v2.42a1.131,1.131,0,0,0,1.11,1.15Z" fill="#e6e6e6"/>
      <path id="Trazado_102482" data-name="Trazado 102482" d="M844,6602.952h0a1.129,1.129,0,0,0,1.13-1.12v-2.45a1.131,1.131,0,0,0-1.13-1.09h0a1.121,1.121,0,0,0-1.169,1.069v2.441a1.12,1.12,0,0,0,1.088,1.151A.762.762,0,0,0,844,6602.952Z" fill="#e6e6e6"/>
      <rect id="Rectángulo_6734" data-name="Rectángulo 6734" width="268.91" height="30.28" transform="translate(831.66 6598.292)" fill="#e0e0e0" opacity="0.5" style="isolation: isolate"/>
      <circle id="Elipse_4055" data-name="Elipse 4055" cx="4.17" cy="4.17" r="4.17" transform="translate(1087.12 6594.123)" fill="#e6e6e6"/>
      <rect id="Rectángulo_6735" data-name="Rectángulo 6735" width="17.06" height="114.04" transform="translate(1022.89 6783.743)" fill="#e6e6e6"/>
      <path id="Trazado_102483" data-name="Trazado 102483" d="M1027.38,6897.783h-4.49v-15.53h9.19Z" fill="#f0f0f0"/>
      <rect id="Rectángulo_6736" data-name="Rectángulo 6736" width="17.06" height="114.04" transform="translate(1161.43 6783.743)" fill="#e6e6e6"/>
      <rect id="Rectángulo_6737" data-name="Rectángulo 6737" width="142.45" height="104.51" transform="translate(1022.89 6783.743)" fill="#f0f0f0"/>
      <rect id="Rectángulo_6738" data-name="Rectángulo 6738" width="135.49" height="28.66" transform="translate(1026.37 6788.362)" fill="#e6e6e6"/>
      <path id="Trazado_102484" data-name="Trazado 102484" d="M1053.25,6797.273H1132c4.37,0,8.56-3.53,11.57-9.78H1041.68C1044.69,6793.742,1048.87,6797.273,1053.25,6797.273Z" fill="#f0f0f0"/>
      <path id="Trazado_102485" data-name="Trazado 102485" d="M1160.86,6897.783h4.48v-15.53h-9.19Z" fill="#f0f0f0"/>
      <rect id="Rectángulo_6739" data-name="Rectángulo 6739" width="135.49" height="28.66" transform="translate(1026.37 6821.663)" fill="#e6e6e6"/>
      <path id="Trazado_102486" data-name="Trazado 102486" d="M1053.25,6830.572H1132c4.37,0,8.56-3.54,11.57-9.78H1041.68C1044.69,6827.032,1048.87,6830.572,1053.25,6830.572Z" fill="#f0f0f0"/>
      <rect id="Rectángulo_6740" data-name="Rectángulo 6740" width="135.49" height="28.66" transform="translate(1026.37 6854.962)" fill="#e6e6e6"/>
      <path id="Trazado_102487" data-name="Trazado 102487" d="M1053.25,6863.863H1132c4.37,0,8.56-3.541,11.57-9.78H1041.68C1044.69,6860.322,1048.87,6863.863,1053.25,6863.863Z" fill="#f0f0f0"/>
      <path id="Trazado_102488" data-name="Trazado 102488" d="M1126.22,6726.562c-2.7-9.09,30.93-54.57,45.69-53.21s-11.19,56.53-19.16,61.41C1143.76,6740.272,1129.16,6736.453,1126.22,6726.562Z" fill="#f5f5f5"/>
      <path id="Trazado_102489" data-name="Trazado 102489" d="M1124.29,6739.672c-1.3-4.64,22.21-12.19,31.55-6.72s-9.73,19.56-15,18.92C1134.83,6751.152,1125.71,6744.722,1124.29,6739.672Z" fill="#f5f5f5"/>
      <path id="Trazado_102490" data-name="Trazado 102490" d="M1152.85,6735.512c3.25-6.1-20.69-41.729-33.45-42.389s3.63,41,9.92,45.27C1136.43,6743.242,1149.3,6742.142,1152.85,6735.512Z" fill="#f5f5f5"/>
      <path id="Trazado_102491" data-name="Trazado 102491" d="M1140.58,6716.552h-.05a2.512,2.512,0,0,0-2.52,2.13,221.009,221.009,0,0,0-1,56.76,2.5,2.5,0,0,0,2.44,2.21h.05a2.489,2.489,0,0,0,2.526-2.453,2.592,2.592,0,0,0-.016-.317,220.537,220.537,0,0,1,.99-55.5,2.48,2.48,0,0,0-2.1-2.8A2.616,2.616,0,0,0,1140.58,6716.552Z" fill="#ebebeb"/>
      <path id="Trazado_102492" data-name="Trazado 102492" d="M1138.75,6783.733h0c8.84,0,16.29-5.2,18.1-12.25a28.531,28.531,0,0,1,1.89-5.471l.14-.289h-40.26l.14.289a28.531,28.531,0,0,1,1.89,5.471C1122.46,6778.532,1129.92,6783.733,1138.75,6783.733Z" fill="#fafafa"/>
      <path id="Trazado_102493" data-name="Trazado 102493" d="M1118.54,6767.492H1159c1.13,0,2.11-1.1,2.39-2.679h0c.4-2.271-.78-4.47-2.39-4.47h-40.46c-1.61,0-2.79,2.2-2.38,4.47h0C1116.44,6766.382,1117.42,6767.492,1118.54,6767.492Z" fill="#f0f0f0"/>
      <rect id="Rectángulo_6741" data-name="Rectángulo 6741" width="49.81" height="71.84" transform="translate(944.1 6825.942)" fill="#f0f0f0"/>
      <rect id="Rectángulo_6742" data-name="Rectángulo 6742" width="148.14" height="71.84" transform="translate(795.97 6825.942)" fill="#f5f5f5"/>
      <rect id="Rectángulo_6743" data-name="Rectángulo 6743" width="31.32" height="31.89" transform="translate(808.98 6849.982)" fill="#fafafa"/>
      <rect id="Rectángulo_6744" data-name="Rectángulo 6744" width="31.32" height="31.89" transform="translate(851.5 6849.982)" fill="#fafafa"/>
      <rect id="Rectángulo_6745" data-name="Rectángulo 6745" width="198.47" height="4.09" transform="translate(795.44 6833.583)" fill="#e6e6e6" opacity="0.7" style="isolation: isolate"/>
      <rect id="Rectángulo_6746" data-name="Rectángulo 6746" width="52.56" height="11.85" transform="translate(944.1 6823.462)" fill="#f0f0f0"/>
      <rect id="Rectángulo_6747" data-name="Rectángulo 6747" width="150.89" height="11.85" transform="translate(793.22 6823.453)" fill="#f5f5f5"/>
      <path id="Trazado_102494" data-name="Trazado 102494" d="M835.9,6803.292s.95,20.171,37.3,20.171,37.3-20.171,37.3-20.171Z" fill="#f0f0f0"/>
      <path id="Trazado_102495" data-name="Trazado 102495" d="M835.9,6789.932s.95,20.17,37.3,20.17,37.3-20.17,37.3-20.17Z" fill="#f0f0f0"/>
    </g>
    <g id="freepik--Shadow--inject-219">
      <ellipse id="freepik--path--inject-219" cx="193.89" cy="11.32" rx="193.89" ry="11.32" transform="translate(783.11 6920.302)" fill="#f5f5f5"/>
    </g>
    <g id="freepik--Coins--inject-219">
      <rect id="Rectángulo_6748" data-name="Rectángulo 6748" width="98.19" height="18.48" transform="translate(820.15 6909.842)" fill="#d9a171"/>
      <rect id="Rectángulo_6749" data-name="Rectángulo 6749" width="98.19" height="2.1" transform="translate(820.15 6909.842)" opacity="0.2" style="isolation: isolate"/>
      <rect id="Rectángulo_6750" data-name="Rectángulo 6750" width="3.87" height="18.48" transform="translate(827.34 6909.842)" opacity="0.2" style="isolation: isolate"/>
      <rect id="Rectángulo_6751" data-name="Rectángulo 6751" width="3.87" height="18.48" transform="translate(836.22 6909.842)" opacity="0.2" style="isolation: isolate"/>
      <rect id="Rectángulo_6752" data-name="Rectángulo 6752" width="3.87" height="18.48" transform="translate(845.11 6909.842)" opacity="0.2" style="isolation: isolate"/>
      <rect id="Rectángulo_6753" data-name="Rectángulo 6753" width="3.87" height="18.48" transform="translate(853.99 6909.842)" opacity="0.2" style="isolation: isolate"/>
      <rect id="Rectángulo_6754" data-name="Rectángulo 6754" width="3.87" height="18.48" transform="translate(862.87 6909.842)" opacity="0.2" style="isolation: isolate"/>
      <rect id="Rectángulo_6755" data-name="Rectángulo 6755" width="3.87" height="18.48" transform="translate(871.76 6909.842)" opacity="0.2" style="isolation: isolate"/>
      <rect id="Rectángulo_6756" data-name="Rectángulo 6756" width="3.87" height="18.48" transform="translate(880.64 6909.842)" opacity="0.2" style="isolation: isolate"/>
      <rect id="Rectángulo_6757" data-name="Rectángulo 6757" width="3.87" height="18.48" transform="translate(889.52 6909.842)" opacity="0.2" style="isolation: isolate"/>
      <rect id="Rectángulo_6758" data-name="Rectángulo 6758" width="3.87" height="18.48" transform="translate(898.41 6909.842)" opacity="0.2" style="isolation: isolate"/>
      <rect id="Rectángulo_6759" data-name="Rectángulo 6759" width="3.87" height="18.48" transform="translate(907.29 6909.842)" opacity="0.2" style="isolation: isolate"/>
      <rect id="Rectángulo_6760" data-name="Rectángulo 6760" width="98.19" height="18.48" transform="translate(816.16 6891.362)" fill="#d9a171"/>
      <rect id="Rectángulo_6761" data-name="Rectángulo 6761" width="98.19" height="2.1" transform="translate(816.16 6891.362)" opacity="0.2" style="isolation: isolate"/>
      <rect id="Rectángulo_6762" data-name="Rectángulo 6762" width="3.87" height="18.48" transform="translate(823.34 6891.362)" opacity="0.2" style="isolation: isolate"/>
      <rect id="Rectángulo_6763" data-name="Rectángulo 6763" width="3.87" height="18.48" transform="translate(832.23 6891.362)" opacity="0.2" style="isolation: isolate"/>
      <rect id="Rectángulo_6764" data-name="Rectángulo 6764" width="3.87" height="18.48" transform="translate(841.11 6891.362)" opacity="0.2" style="isolation: isolate"/>
      <rect id="Rectángulo_6765" data-name="Rectángulo 6765" width="3.87" height="18.48" transform="translate(849.99 6891.362)" opacity="0.2" style="isolation: isolate"/>
      <rect id="Rectángulo_6766" data-name="Rectángulo 6766" width="3.87" height="18.48" transform="translate(858.88 6891.362)" opacity="0.2" style="isolation: isolate"/>
      <rect id="Rectángulo_6767" data-name="Rectángulo 6767" width="3.87" height="18.48" transform="translate(867.76 6891.362)" opacity="0.2" style="isolation: isolate"/>
      <rect id="Rectángulo_6768" data-name="Rectángulo 6768" width="3.87" height="18.48" transform="translate(876.64 6891.362)" opacity="0.2" style="isolation: isolate"/>
      <rect id="Rectángulo_6769" data-name="Rectángulo 6769" width="3.87" height="18.48" transform="translate(885.53 6891.362)" opacity="0.2" style="isolation: isolate"/>
      <rect id="Rectángulo_6770" data-name="Rectángulo 6770" width="3.87" height="18.48" transform="translate(894.41 6891.362)" opacity="0.2" style="isolation: isolate"/>
      <rect id="Rectángulo_6771" data-name="Rectángulo 6771" width="3.87" height="18.48" transform="translate(903.29 6891.362)" opacity="0.2" style="isolation: isolate"/>
      <rect id="Rectángulo_6772" data-name="Rectángulo 6772" width="98.19" height="18.48" transform="translate(813.33 6872.882)" fill="#d9a171"/>
      <rect id="Rectángulo_6773" data-name="Rectángulo 6773" width="98.19" height="2.1" transform="translate(813.33 6872.882)" opacity="0.2" style="isolation: isolate"/>
      <rect id="Rectángulo_6774" data-name="Rectángulo 6774" width="3.87" height="18.48" transform="translate(820.52 6872.882)" opacity="0.2" style="isolation: isolate"/>
      <rect id="Rectángulo_6775" data-name="Rectángulo 6775" width="3.87" height="18.48" transform="translate(829.4 6872.882)" opacity="0.2" style="isolation: isolate"/>
      <rect id="Rectángulo_6776" data-name="Rectángulo 6776" width="3.87" height="18.48" transform="translate(838.29 6872.882)" opacity="0.2" style="isolation: isolate"/>
      <rect id="Rectángulo_6777" data-name="Rectángulo 6777" width="3.87" height="18.48" transform="translate(847.17 6872.882)" opacity="0.2" style="isolation: isolate"/>
      <rect id="Rectángulo_6778" data-name="Rectángulo 6778" width="3.87" height="18.48" transform="translate(856.05 6872.882)" opacity="0.2" style="isolation: isolate"/>
      <rect id="Rectángulo_6779" data-name="Rectángulo 6779" width="3.87" height="18.48" transform="translate(864.94 6872.882)" opacity="0.2" style="isolation: isolate"/>
      <rect id="Rectángulo_6780" data-name="Rectángulo 6780" width="3.87" height="18.48" transform="translate(873.82 6872.882)" opacity="0.2" style="isolation: isolate"/>
      <rect id="Rectángulo_6781" data-name="Rectángulo 6781" width="3.87" height="18.48" transform="translate(882.7 6872.882)" opacity="0.2" style="isolation: isolate"/>
      <rect id="Rectángulo_6782" data-name="Rectángulo 6782" width="3.87" height="18.48" transform="translate(891.59 6872.882)" opacity="0.2" style="isolation: isolate"/>
      <rect id="Rectángulo_6783" data-name="Rectángulo 6783" width="3.87" height="18.48" transform="translate(900.47 6872.882)" opacity="0.2" style="isolation: isolate"/>
      <rect id="Rectángulo_6784" data-name="Rectángulo 6784" width="98.19" height="18.48" transform="translate(817.78 6854.413)" fill="#d9a171"/>
      <rect id="Rectángulo_6785" data-name="Rectángulo 6785" width="98.19" height="2.1" transform="translate(817.78 6854.413)" opacity="0.2" style="isolation: isolate"/>
      <rect id="Rectángulo_6786" data-name="Rectángulo 6786" width="3.87" height="18.48" transform="translate(824.96 6854.413)" opacity="0.2" style="isolation: isolate"/>
      <rect id="Rectángulo_6787" data-name="Rectángulo 6787" width="3.87" height="18.48" transform="translate(833.85 6854.413)" opacity="0.2" style="isolation: isolate"/>
      <rect id="Rectángulo_6788" data-name="Rectángulo 6788" width="3.87" height="18.48" transform="translate(842.73 6854.413)" opacity="0.2" style="isolation: isolate"/>
      <rect id="Rectángulo_6789" data-name="Rectángulo 6789" width="3.87" height="18.48" transform="translate(851.61 6854.413)" opacity="0.2" style="isolation: isolate"/>
      <rect id="Rectángulo_6790" data-name="Rectángulo 6790" width="3.87" height="18.48" transform="translate(860.5 6854.413)" opacity="0.2" style="isolation: isolate"/>
      <rect id="Rectángulo_6791" data-name="Rectángulo 6791" width="3.87" height="18.48" transform="translate(869.38 6854.413)" opacity="0.2" style="isolation: isolate"/>
      <rect id="Rectángulo_6792" data-name="Rectángulo 6792" width="3.87" height="18.48" transform="translate(878.26 6854.413)" opacity="0.2" style="isolation: isolate"/>
      <rect id="Rectángulo_6793" data-name="Rectángulo 6793" width="3.87" height="18.48" transform="translate(887.15 6854.413)" opacity="0.2" style="isolation: isolate"/>
      <rect id="Rectángulo_6794" data-name="Rectángulo 6794" width="3.87" height="18.48" transform="translate(896.03 6854.413)" opacity="0.2" style="isolation: isolate"/>
      <rect id="Rectángulo_6795" data-name="Rectángulo 6795" width="3.87" height="18.48" transform="translate(904.91 6854.413)" opacity="0.2" style="isolation: isolate"/>
      <rect id="Rectángulo_6796" data-name="Rectángulo 6796" width="98.19" height="18.48" transform="translate(813.47 6835.922)" fill="#d9a171"/>
      <rect id="Rectángulo_6797" data-name="Rectángulo 6797" width="98.19" height="2.1" transform="translate(813.47 6835.922)" opacity="0.2" style="isolation: isolate"/>
      <rect id="Rectángulo_6798" data-name="Rectángulo 6798" width="3.87" height="18.48" transform="translate(900.6 6835.922)" opacity="0.2" style="isolation: isolate"/>
      <rect id="Rectángulo_6799" data-name="Rectángulo 6799" width="3.87" height="18.48" transform="translate(891.71 6835.922)" opacity="0.2" style="isolation: isolate"/>
      <rect id="Rectángulo_6800" data-name="Rectángulo 6800" width="3.87" height="18.48" transform="translate(882.83 6835.922)" opacity="0.2" style="isolation: isolate"/>
      <rect id="Rectángulo_6801" data-name="Rectángulo 6801" width="3.87" height="18.48" transform="translate(873.95 6835.922)" opacity="0.2" style="isolation: isolate"/>
      <rect id="Rectángulo_6802" data-name="Rectángulo 6802" width="3.87" height="18.48" transform="translate(865.06 6835.922)" opacity="0.2" style="isolation: isolate"/>
      <rect id="Rectángulo_6803" data-name="Rectángulo 6803" width="3.87" height="18.48" transform="translate(856.18 6835.922)" opacity="0.2" style="isolation: isolate"/>
      <rect id="Rectángulo_6804" data-name="Rectángulo 6804" width="3.87" height="18.48" transform="translate(847.3 6835.922)" opacity="0.2" style="isolation: isolate"/>
      <rect id="Rectángulo_6805" data-name="Rectángulo 6805" width="3.87" height="18.48" transform="translate(838.41 6835.922)" opacity="0.2" style="isolation: isolate"/>
      <rect id="Rectángulo_6806" data-name="Rectángulo 6806" width="3.87" height="18.48" transform="translate(829.53 6835.922)" opacity="0.2" style="isolation: isolate"/>
      <rect id="Rectángulo_6807" data-name="Rectángulo 6807" width="3.87" height="18.48" transform="translate(820.65 6835.922)" opacity="0.2" style="isolation: isolate"/>
      <rect id="Rectángulo_6808" data-name="Rectángulo 6808" width="98.19" height="18.48" transform="translate(817.46 6817.453)" fill="#d9a171"/>
      <rect id="Rectángulo_6809" data-name="Rectángulo 6809" width="98.19" height="2.1" transform="translate(817.46 6817.453)" opacity="0.2" style="isolation: isolate"/>
      <rect id="Rectángulo_6810" data-name="Rectángulo 6810" width="3.87" height="18.48" transform="translate(904.59 6817.453)" opacity="0.2" style="isolation: isolate"/>
      <rect id="Rectángulo_6811" data-name="Rectángulo 6811" width="3.87" height="18.48" transform="translate(895.72 6817.453)" opacity="0.2" style="isolation: isolate"/>
      <rect id="Rectángulo_6812" data-name="Rectángulo 6812" width="3.87" height="18.48" transform="translate(886.83 6817.453)" opacity="0.2" style="isolation: isolate"/>
      <rect id="Rectángulo_6813" data-name="Rectángulo 6813" width="3.87" height="18.48" transform="translate(877.94 6817.453)" opacity="0.2" style="isolation: isolate"/>
      <rect id="Rectángulo_6814" data-name="Rectángulo 6814" width="3.87" height="18.48" transform="translate(869.07 6817.453)" opacity="0.2" style="isolation: isolate"/>
      <rect id="Rectángulo_6815" data-name="Rectángulo 6815" width="3.87" height="18.48" transform="translate(860.18 6817.453)" opacity="0.2" style="isolation: isolate"/>
      <rect id="Rectángulo_6816" data-name="Rectángulo 6816" width="3.87" height="18.48" transform="translate(851.29 6817.453)" opacity="0.2" style="isolation: isolate"/>
      <rect id="Rectángulo_6817" data-name="Rectángulo 6817" width="3.87" height="18.48" transform="translate(842.42 6817.453)" opacity="0.2" style="isolation: isolate"/>
      <rect id="Rectángulo_6818" data-name="Rectángulo 6818" width="3.87" height="18.48" transform="translate(833.53 6817.453)" opacity="0.2" style="isolation: isolate"/>
      <rect id="Rectángulo_6819" data-name="Rectángulo 6819" width="3.87" height="18.48" transform="translate(824.64 6817.453)" opacity="0.2" style="isolation: isolate"/>
      <rect id="Rectángulo_6820" data-name="Rectángulo 6820" width="98.19" height="18.48" transform="translate(820.29 6798.973)" fill="#d9a171"/>
      <rect id="Rectángulo_6821" data-name="Rectángulo 6821" width="98.19" height="2.1" transform="translate(820.29 6798.973)" opacity="0.2" style="isolation: isolate"/>
      <rect id="Rectángulo_6822" data-name="Rectángulo 6822" width="3.87" height="18.48" transform="translate(907.42 6798.973)" opacity="0.2" style="isolation: isolate"/>
      <rect id="Rectángulo_6823" data-name="Rectángulo 6823" width="3.87" height="18.48" transform="translate(898.53 6798.973)" opacity="0.2" style="isolation: isolate"/>
      <rect id="Rectángulo_6824" data-name="Rectángulo 6824" width="3.87" height="18.48" transform="translate(889.65 6798.973)" opacity="0.2" style="isolation: isolate"/>
      <rect id="Rectángulo_6825" data-name="Rectángulo 6825" width="3.87" height="18.48" transform="translate(880.77 6798.973)" opacity="0.2" style="isolation: isolate"/>
      <rect id="Rectángulo_6826" data-name="Rectángulo 6826" width="3.87" height="18.48" transform="translate(871.88 6798.973)" opacity="0.2" style="isolation: isolate"/>
      <rect id="Rectángulo_6827" data-name="Rectángulo 6827" width="3.87" height="18.48" transform="translate(863 6798.973)" opacity="0.2" style="isolation: isolate"/>
      <rect id="Rectángulo_6828" data-name="Rectángulo 6828" width="3.87" height="18.48" transform="translate(854.12 6798.973)" opacity="0.2" style="isolation: isolate"/>
      <rect id="Rectángulo_6829" data-name="Rectángulo 6829" width="3.87" height="18.48" transform="translate(845.23 6798.973)" opacity="0.2" style="isolation: isolate"/>
      <rect id="Rectángulo_6830" data-name="Rectángulo 6830" width="3.87" height="18.48" transform="translate(836.35 6798.973)" opacity="0.2" style="isolation: isolate"/>
      <rect id="Rectángulo_6831" data-name="Rectángulo 6831" width="3.87" height="18.48" transform="translate(827.47 6798.973)" opacity="0.2" style="isolation: isolate"/>
      <rect id="Rectángulo_6832" data-name="Rectángulo 6832" width="98.19" height="18.48" transform="translate(815.84 6780.493)" fill="#d9a171"/>
      <rect id="Rectángulo_6833" data-name="Rectángulo 6833" width="98.19" height="2.1" transform="translate(815.84 6780.493)" opacity="0.2" style="isolation: isolate"/>
      <rect id="Rectángulo_6834" data-name="Rectángulo 6834" width="3.87" height="18.48" transform="translate(902.97 6780.493)" opacity="0.2" style="isolation: isolate"/>
      <rect id="Rectángulo_6835" data-name="Rectángulo 6835" width="3.87" height="18.48" transform="translate(894.1 6780.493)" opacity="0.2" style="isolation: isolate"/>
      <rect id="Rectángulo_6836" data-name="Rectángulo 6836" width="3.87" height="18.48" transform="translate(885.21 6780.493)" opacity="0.2" style="isolation: isolate"/>
      <rect id="Rectángulo_6837" data-name="Rectángulo 6837" width="3.87" height="18.48" transform="translate(876.32 6780.493)" opacity="0.2" style="isolation: isolate"/>
      <rect id="Rectángulo_6838" data-name="Rectángulo 6838" width="3.87" height="18.48" transform="translate(867.45 6780.493)" opacity="0.2" style="isolation: isolate"/>
      <rect id="Rectángulo_6839" data-name="Rectángulo 6839" width="3.87" height="18.48" transform="translate(858.56 6780.493)" opacity="0.2" style="isolation: isolate"/>
      <rect id="Rectángulo_6840" data-name="Rectángulo 6840" width="3.87" height="18.48" transform="translate(849.67 6780.493)" opacity="0.2" style="isolation: isolate"/>
      <rect id="Rectángulo_6841" data-name="Rectángulo 6841" width="3.87" height="18.48" transform="translate(840.8 6780.493)" opacity="0.2" style="isolation: isolate"/>
      <rect id="Rectángulo_6842" data-name="Rectángulo 6842" width="3.87" height="18.48" transform="translate(831.91 6780.493)" opacity="0.2" style="isolation: isolate"/>
      <rect id="Rectángulo_6843" data-name="Rectángulo 6843" width="3.87" height="18.48" transform="translate(823.02 6780.493)" opacity="0.2" style="isolation: isolate"/>
    </g>
    <g id="freepik--Growth--inject-219">
      <path id="Trazado_102496" data-name="Trazado 102496" d="M1127.66,6707.382l-39.16,6.711a3.849,3.849,0,0,0-1.57,6.949l7.22,5.11-44.27,62.581a3.792,3.792,0,0,1-5.283.905l-.007-.006-65.07-46a3.811,3.811,0,0,0-5.3.91l-131.17,185.4h47.14l93.23-131.789a3.791,3.791,0,0,1,5.283-.906l.007.006,65.07,46a3.8,3.8,0,0,0,5.3-.906l0,0,66.49-94,7.23,5.11a3.86,3.86,0,0,0,6-3.8l-6.72-39.16A3.851,3.851,0,0,0,1127.66,6707.382Z" fill="#6595bf"/>
      <path id="Trazado_102497" data-name="Trazado 102497" d="M887.24,6924.492H854.06a.259.259,0,0,1-.22-.14.249.249,0,0,1,0-.26l121.52-171.8a4.05,4.05,0,0,1,5.638-1.008l.012.008,65.06,46a3.551,3.551,0,0,0,4.958-.79l.042-.06,50.71-71.68-8-5.69a.229.229,0,0,1-.1-.26.25.25,0,0,1,.2-.19l33-5.65a.241.241,0,0,1,.279.194v.006l5.65,33a.27.27,0,0,1-.11.26.259.259,0,0,1-.28,0l-8-5.69-66.35,93.8a4.05,4.05,0,0,1-5.64,1h0l-65.07-46a3.55,3.55,0,0,0-4.948.848l0,0-94.96,133.99A.255.255,0,0,1,887.24,6924.492Zm-32.7-.5h32.57l94.74-133.93a4.061,4.061,0,0,1,5.65-1l65.07,46a3.549,3.549,0,0,0,4.948-.847l0,0,66.49-94a.216.216,0,0,1,.16-.1.226.226,0,0,1,.19,0l7.75,5.48-5.51-32.01-32.11,5.5,7.75,5.48a.276.276,0,0,1,.1.16.25.25,0,0,1,0,.19l-50.85,71.89a4,4,0,0,1-2.62,1.65,4.068,4.068,0,0,1-3-.68l-65.06-46a3.552,3.552,0,0,0-4.958.791l-.042.059Z" fill="#fff" opacity="0.2" style="isolation: isolate"/>
    </g>
    <g id="freepik--Chart--inject-219">
      <rect id="Rectángulo_6844" data-name="Rectángulo 6844" width="4.11" height="61.15" transform="translate(1070.94 6867.172)" fill="#344154"/>
      <rect id="Rectángulo_6845" data-name="Rectángulo 6845" width="4.11" height="94.47" transform="translate(1106.9 6833.853)" fill="#344154"/>
      <rect id="Rectángulo_6846" data-name="Rectángulo 6846" width="4.11" height="71.81" transform="translate(1143.52 6856.513)" fill="#344154"/>
      <rect id="Rectángulo_6847" data-name="Rectángulo 6847" width="28.82" height="61.15" transform="translate(1042.13 6867.172)" fill="#aed3f2"/>
      <path id="Trazado_102498" data-name="Trazado 102498" d="M1042.13,6867.172v36.26l14.4-36.26Z" fill="#fff" opacity="0.2" style="isolation: isolate"/>
      <rect id="Rectángulo_6848" data-name="Rectángulo 6848" width="28.82" height="94.47" transform="translate(1078.08 6833.853)" fill="#6595bf"/>
      <path id="Trazado_102499" data-name="Trazado 102499" d="M1078.08,6833.853v36.26l14.41-36.26Z" fill="#fff" opacity="0.2" style="isolation: isolate"/>
      <rect id="Rectángulo_6849" data-name="Rectángulo 6849" width="28.82" height="71.81" transform="translate(1114.71 6856.513)" fill="#a66d58"/>
      <path id="Trazado_102500" data-name="Trazado 102500" d="M1114.71,6856.513v32.27l14.41-32.27Z" fill="#fff" opacity="0.2" style="isolation: isolate"/>
    </g>
    <g id="freepik--Character--inject-219">
      <path id="Trazado_102501" data-name="Trazado 102501" d="M975.08,6923.322l-7.73-1.45,1.31-18.29,7.73,1.46Z" fill="#7f3e3b"/>
      <path id="Trazado_102502" data-name="Trazado 102502" d="M1027.1,6923.112h-7.87l-1.95-18.21h7.86Z" fill="#7f3e3b"/>
      <path id="Trazado_102503" data-name="Trazado 102503" d="M1018.59,6922.2h9.58a.689.689,0,0,1,.67.54l1.56,7a1.159,1.159,0,0,1-.9,1.374,1.176,1.176,0,0,1-.255.026c-3.09-.05-5.34-.24-9.22-.24-2.39,0-9.6.25-12.9.25s-3.73-3.26-2.38-3.56c6.06-1.32,10.62-3.15,12.56-4.89A1.9,1.9,0,0,1,1018.59,6922.2Z" fill="#344154"/>
      <path id="Trazado_102504" data-name="Trazado 102504" d="M967.51,6920.173l8.47,1.459a.691.691,0,0,1,.57.641l.34,7.15a1.149,1.149,0,0,1-1.091,1.206,1.181,1.181,0,0,1-.259-.016c-3-.58-7.43-1.52-11.26-2.18-4.49-.77-6.68-1.33-11.94-2.24-3.18-.55-2.49-4-1.1-4.09,6.29-.28,8.51.68,14.3-1.65A3.633,3.633,0,0,1,967.51,6920.173Z" fill="#344154"/>
      <path id="Trazado_102505" data-name="Trazado 102505" d="M994.44,6682.472c-.27.8-.48,1.38-.73,2s-.5,1.28-.76,1.91c-.52,1.27-1.07,2.51-1.65,3.75a72.248,72.248,0,0,1-3.89,7.25,47.794,47.794,0,0,1-11.27,13.08,27.577,27.577,0,0,1-4,2.54c-.36.2-.73.37-1.11.54s-.72.33-1.17.5a16.022,16.022,0,0,1-2.73.74,27.89,27.89,0,0,1-4.57.39c-1.44,0-2.82,0-4.18-.13a79.954,79.954,0,0,1-15.67-2.84l.79-5.85c5-.19,10.07-.35,14.83-.77,1.19-.11,2.36-.25,3.47-.42a18.651,18.651,0,0,0,3-.66,4.3,4.3,0,0,0,.92-.38c.33-.2.78-.39,1.15-.65a17.892,17.892,0,0,0,2.31-1.73,29.692,29.692,0,0,0,4.29-4.72,52.927,52.927,0,0,0,3.74-5.73c1.17-2,2.22-4.13,3.25-6.27.5-1.07,1-2.16,1.44-3.25l.67-1.63.61-1.54Z" fill="#7f3e3b"/>
      <path id="Trazado_102506" data-name="Trazado 102506" d="M990.65,6673.252c14.35,0-1.42,31-1.42,31l-18.31-7.41s5-10.78,8.29-16.95A12.193,12.193,0,0,1,990.65,6673.252Z" fill="#d9a171"/>
      <g id="Grupo_54823" data-name="Grupo 54823" opacity="0.3">
        <path id="Trazado_102507" data-name="Trazado 102507" d="M990.65,6673.252c14.35,0-1.42,31-1.42,31l-18.31-7.41s5-10.78,8.29-16.95A12.193,12.193,0,0,1,990.65,6673.252Z" fill="#fff"/>
      </g>
      <path id="Trazado_102508" data-name="Trazado 102508" d="M987.14,6683.272c-5.25,3.69-8.9,10.54-9.94,16.1l10.46,4.24c1.9-2.84,3.75-6.19,5.79-9.13.56-1.53,1.11-3.14,1.59-4.771Z" opacity="0.2" style="isolation: isolate"/>
      <path id="Trazado_102509" data-name="Trazado 102509" d="M948,6707.1l-6.29-3.55-4.82,9a21.885,21.885,0,0,0,8.39-.21Z" fill="#7f3e3b"/>
      <path id="Trazado_102510" data-name="Trazado 102510" d="M935.69,6703.553l-3.5,7.94,4.66,1.09,4.82-9.03Z" fill="#7f3e3b"/>
      <path id="Trazado_102511" data-name="Trazado 102511" d="M968.66,6903.592l-.67,9.42,7.73,1.45.67-9.42Z" opacity="0.2" style="isolation: isolate"/>
      <path id="Trazado_102512" data-name="Trazado 102512" d="M1025.14,6904.913h-7.87l1.02,9.39h7.86Z" opacity="0.2" style="isolation: isolate"/>
      <path id="Trazado_102513" data-name="Trazado 102513" d="M1029.78,6676.682a177.348,177.348,0,0,0-5,25.87c-.75,6.09-1.19,11.9-1.47,17.181-.66,12.36-.38,21.779-.75,25-6.15-.42-29.32-2-42-2.92-5.71-44.73,5.2-67.771,5.2-67.771a82.178,82.178,0,0,1,10-1.25c.71,0,1.44-.07,2.17-.08a154.92,154.92,0,0,1,17.84,1.241c1.12.13,2.26.3,3.36.479A104.2,104.2,0,0,1,1029.78,6676.682Z" fill="#d9a171"/>
      <g id="Grupo_54824" data-name="Grupo 54824" opacity="0.3">
        <path id="Trazado_102514" data-name="Trazado 102514" d="M1029.78,6676.682a177.348,177.348,0,0,0-5,25.87c-.75,6.09-1.19,11.9-1.47,17.181-.66,12.36-.38,21.779-.75,25-6.15-.42-29.32-2-42-2.92-5.71-44.73,5.2-67.771,5.2-67.771a82.178,82.178,0,0,1,10-1.25c.71,0,1.44-.07,2.17-.08a154.92,154.92,0,0,1,17.84,1.241c1.12.13,2.26.3,3.36.479A104.2,104.2,0,0,1,1029.78,6676.682Z" fill="#fff"/>
      </g>
      <path id="Trazado_102515" data-name="Trazado 102515" d="M1019.19,6688a33,33,0,0,0,5.19,18.18c.12-1.2.26-2.41.41-3.63.56-4.58,1.28-9.32,2.23-14.11Z" opacity="0.2" style="isolation: isolate"/>
      <path id="Trazado_102516" data-name="Trazado 102516" d="M1015.49,6653.712c-1.52,5.67-3.38,16.1.37,20.211a17.881,17.881,0,0,1-14.14,4.509c-4.93-.449-4.93-3.92-3.7-5.75,6.51-1.08,6.67-5.839,5.87-10.38Z" fill="#7f3e3b"/>
      <path id="Trazado_102517" data-name="Trazado 102517" d="M998.11,6680.3a12.794,12.794,0,0,0,.62,2.59,1.319,1.319,0,0,0,1.26.92,12.344,12.344,0,0,1,2.45.21,1.278,1.278,0,0,0,1-.179c1-.631,2.28-1.56,1.95-2.72-.39-1.361-2.73-2.59-2.73-2.59S998.64,6679.522,998.11,6680.3Z" fill="#344154"/>
      <path id="Trazado_102518" data-name="Trazado 102518" d="M1000.22,6682.892c-1.61,3.52-5.33,26.06-5.79,29.47s1.11,8.91,3.29,13.28a21.436,21.436,0,0,0,4.1-11.79c.29-4.66.57-30.4.57-30.4Z" fill="#344154"/>
      <path id="Trazado_102519" data-name="Trazado 102519" d="M1002.63,6678.532a14.776,14.776,0,0,1,3.62,4.48c2.53-.2,13.7-5.1,12.11-8.88-1.39-.39-2.61-1.19-3-.78C1014.83,6674.162,1010.09,6677.022,1002.63,6678.532Z" fill="#fff"/>
      <path id="Trazado_102520" data-name="Trazado 102520" d="M1002.63,6678.532s-4.29,1.45-5.29,3.89c-2.59-1.15-4-6.34-1.71-9.75,1.43-.12,2.8-.83,3.06-.36C999.09,6673.2,998,6675.593,1002.63,6678.532Z" fill="#fff"/>
      <path id="Trazado_102521" data-name="Trazado 102521" d="M1010.76,6657.222l-6.87,5.07a17.753,17.753,0,0,1,.33,3.211c2.47-.18,6-2.63,6.46-5.17A8.5,8.5,0,0,0,1010.76,6657.222Z" opacity="0.2" style="isolation: isolate"/>
      <path id="Trazado_102522" data-name="Trazado 102522" d="M998.83,6635.5c-3,1.18-4.11,12.79,2,11.65S1004.87,6633.132,998.83,6635.5Z" fill="#344154"/>
      <path id="Trazado_102523" data-name="Trazado 102523" d="M1018.64,6647.112c-2.45,7.41-3.5,11.87-8.32,14.74-7.26,4.31-15.65-1.59-15.47-9.58.16-7.19,4.13-18.11,12.3-19.16a10.64,10.64,0,0,1,11.49,14Z" fill="#7f3e3b"/>
      <path id="Trazado_102524" data-name="Trazado 102524" d="M1015.86,6652.212c-3.11.06-5.66-9.36.61-12-4.94-.57-20.11.26-22.83-6.519s7.83-7.831,11.42-5.27c-1.14-3.73,3.5-9.23,11.84-4.23s8.24,11.169,7.46,13c3.72,1,4.45,9.28.34,10.39,2.41,3.34.33,10.36-6.17,8.86-.22,4.09-4.78,2.3-4.5-.84S1015.86,6652.212,1015.86,6652.212Z" fill="#344154"/>
      <path id="Trazado_102525" data-name="Trazado 102525" d="M1002,6654.022h0a5.747,5.747,0,0,0,5.17-1,.21.21,0,0,0,0-.289.2.2,0,0,0-.28,0,5.413,5.413,0,0,1-4.8,1,.19.19,0,0,0-.237.127l0,.013A.189.189,0,0,0,1002,6654.022Z" fill="#344154"/>
      <path id="Trazado_102526" data-name="Trazado 102526" d="M1020.19,6654.972a7.449,7.449,0,0,1-5.31,2c-2.6-.11-3.1-2.63-1.71-4.66,1.26-1.83,4.12-4,6.4-2.89a3.33,3.33,0,0,1,.62,5.55Z" fill="#7f3e3b"/>
      <path id="Trazado_102527" data-name="Trazado 102527" d="M965.38,6909.962l13,3.07s4.6-50.65,8.55-78.48c1.05-7.38,2.67-17.76,5.14-28.82,3.11-13.93,7-29,10.22-40.8,3.37-12.43,5.94-21.22,5.94-21.22l-27.58-1.93s-14.93,65.1-16.51,89C962.45,6855.722,965.38,6909.962,965.38,6909.962Z" fill="#344154"/>
      <path id="Trazado_102528" data-name="Trazado 102528" d="M992,6805.733c3.11-13.93,7-29,10.22-40.8l-2.87-6.17C992.54,6766.892,990.7,6792.062,992,6805.733Z" opacity="0.2" style="isolation: isolate"/>
      <path id="Trazado_102529" data-name="Trazado 102529" d="M995.49,6742.822s3,67.321,6.3,90.12c3.63,25,12.86,79.541,12.86,79.541h14.41s-4-51.87-6.71-76.321c-3.09-27.85.21-91.45.21-91.45Z" fill="#344154"/>
      <path id="Trazado_102530" data-name="Trazado 102530" d="M1012.93,6912.792h16.96l.75-5.07-18.72-.33Z" fill="#d9a171"/>
      <path id="Trazado_102531" data-name="Trazado 102531" d="M964.55,6910.833l14.77,2.78,1.67-5.15-16.84-3.19Z" fill="#d9a171"/>
      <path id="Trazado_102532" data-name="Trazado 102532" d="M1007.25,6646.522c-.17.61-.62,1-1,.92s-.6-.69-.44-1.3.62-1,1-.92S1007.41,6645.912,1007.25,6646.522Z" fill="#344154"/>
      <path id="Trazado_102533" data-name="Trazado 102533" d="M1000.31,6644.7c-.16.61-.62,1-1,.91s-.59-.68-.43-1.3.62-1,1-.92S1000.47,6644.082,1000.31,6644.7Z" fill="#344154"/>
      <path id="Trazado_102534" data-name="Trazado 102534" d="M1001.85,6645.272a22.957,22.957,0,0,1-4.31,4.48c.81,1.29,2.9,1.18,2.9,1.18Z" fill="#630f0f"/>
      <path id="Trazado_102535" data-name="Trazado 102535" d="M1009.4,6644.532a.369.369,0,0,1-.32-.23,3,3,0,0,0-2-1.81.372.372,0,1,1,.14-.73h0a3.7,3.7,0,0,1,2.54,2.26.37.37,0,0,1-.192.487l-.008,0A.338.338,0,0,1,1009.4,6644.532Z" fill="#344154"/>
      <path id="Trazado_102536" data-name="Trazado 102536" d="M997.38,6641.222a.393.393,0,0,1-.21-.09.371.371,0,0,1-.007-.523l.007-.007a3.7,3.7,0,0,1,3.12-1.35.391.391,0,0,1,.32.42.38.38,0,0,1-.42.32h0a3,3,0,0,0-2.46,1.1A.379.379,0,0,1,997.38,6641.222Z" fill="#344154"/>
      <path id="Trazado_102537" data-name="Trazado 102537" d="M1016,6923.583a2.4,2.4,0,0,1-1.52-.4,1.121,1.121,0,0,1-.38-1,.557.557,0,0,1,.32-.52c.87-.45,3.4,1.11,3.69,1.29a.17.17,0,0,1,.08.18.181.181,0,0,1-.14.16A9.4,9.4,0,0,1,1016,6923.583Zm-1.17-1.63a.43.43,0,0,0-.24.049c-.05,0-.11.07-.12.22a.753.753,0,0,0,.25.671,3.8,3.8,0,0,0,2.79.14,7.49,7.49,0,0,0-2.69-1.08Z" fill="#d9a171"/>
      <path id="Trazado_102538" data-name="Trazado 102538" d="M1018,6923.3h-.09c-.81-.44-2.39-2.171-2.22-3a.609.609,0,0,1,.59-.49,1,1,0,0,1,.8.24c.91.739,1.1,3,1.11,3.109a.2.2,0,0,1-.09.171A.175.175,0,0,1,1018,6923.3Zm-1.59-3.19h-.08c-.24,0-.26.14-.27.19-.1.51.9,1.82,1.71,2.43a4.411,4.411,0,0,0-.93-2.46A.648.648,0,0,0,1016.41,6920.113Z" fill="#d9a171"/>
      <path id="Trazado_102539" data-name="Trazado 102539" d="M966.57,6921.113h0c-1.29,0-3.56-.05-4.28-.94a1.053,1.053,0,0,1-.19-1,.587.587,0,0,1,.38-.43c1-.35,3.88,1.75,4.2,2a.17.17,0,0,1,.06.2A.191.191,0,0,1,966.57,6921.113Zm-3.94-2h0a.221.221,0,0,0-.15.179.67.67,0,0,0,.12.62c.4.511,1.66.8,3.42.81-1.19-.78-2.79-1.73-3.39-1.6Z" fill="#d9a171"/>
      <path id="Trazado_102540" data-name="Trazado 102540" d="M966.57,6921.113a.2.2,0,0,1-.14,0c-.86-.58-2.42-2.58-2.13-3.43.07-.2.26-.43.77-.4a1.383,1.383,0,0,1,1,.49c.85,1,.7,3.109.69,3.2a.18.18,0,0,1-.1.15Zm-1.74-3.47a.171.171,0,0,0-.18.13c-.17.51.86,2.049,1.71,2.78a4.283,4.283,0,0,0-.61-2.56,1,1,0,0,0-.7-.36A.486.486,0,0,0,964.83,6917.643Z" fill="#d9a171"/>
      <path id="Trazado_102541" data-name="Trazado 102541" d="M994.11,6711.8l-3.19-2.28-52.3,73.211,3.19,2.279a45,45,0,0,0,52.3-73.209Z" fill="#d9a171"/>
      <path id="Trazado_102542" data-name="Trazado 102542" d="M994.11,6711.8l-3.19-2.28-52.3,73.211,3.19,2.279a45,45,0,0,0,52.3-73.209Z" opacity="0.1" style="isolation: isolate"/>
      <path id="Trazado_102543" data-name="Trazado 102543" d="M916.65,6751.852a48.337,48.337,0,0,1,1.35-18.47l1,.26a47.2,47.2,0,0,0-1.32,18.1Z" fill="#d9a171"/>
      <path id="Trazado_102544" data-name="Trazado 102544" d="M919.68,6763.922a48.4,48.4,0,0,1-2.15-7l1-.22a48.145,48.145,0,0,0,2.11,6.84Z" fill="#d9a171"/>
      <circle id="Elipse_4056" data-name="Elipse 4056" cx="44.98" cy="44.98" r="44.98" transform="translate(919.807 6701.134)" fill="#d9a171"/>
      <path id="Trazado_102545" data-name="Trazado 102545" d="M954.15,6757.5l7.06-9.87q-3.68-4.62-3.93-8.84a12.36,12.36,0,0,1,2.49-8,11.316,11.316,0,0,1,7.08-4.75,12.127,12.127,0,0,1,8.66,1.61l1.7-2.38,3.42,2.44-1.71,2.381a12.427,12.427,0,0,1,4.14,6.82,12.181,12.181,0,0,1-1.2,7.67l-6.52-3.48a5.929,5.929,0,0,0-.14-5.8l-6.58,9.22q4.56,5.58,4.87,9.48a11.556,11.556,0,0,1-2.42,7.72,12.875,12.875,0,0,1-7.72,5.35,14.011,14.011,0,0,1-9.74-1.54l-1.7,2.38-3.42-2.44,1.62-2.27a13.382,13.382,0,0,1-4.45-7.77,15.369,15.369,0,0,1,1.88-9.52l6.63,3.74a9.61,9.61,0,0,0-.91,4.26A7.993,7.993,0,0,0,954.15,6757.5Zm17.68-24.75a5.434,5.434,0,0,0-3.36,0,5.088,5.088,0,0,0-2.61,1.91,4.909,4.909,0,0,0-.9,2.86,6.389,6.389,0,0,0,1,3.37Zm-14.5,27.53a5.89,5.89,0,0,0,4,.41,5.668,5.668,0,0,0,3.31-2.28,5.148,5.148,0,0,0,1-3.39,7.36,7.36,0,0,0-1.8-3.94Z" fill="#fff"/>
      <path id="Trazado_102546" data-name="Trazado 102546" d="M1001.21,6742.382a36.64,36.64,0,0,0-72.15,12,36.64,36.64,0,1,1,72.15-12Z" opacity="0.1" style="isolation: isolate"/>
      <path id="Trazado_102547" data-name="Trazado 102547" d="M1030.79,6680.983c1,1.27,1.83,2.41,2.67,3.649s1.66,2.43,2.46,3.67c1.59,2.48,3.1,5,4.5,7.63s2.7,5.321,3.88,8.1l.86,2.11.78,2.17c.26.71.48,1.47.71,2.21l.33,1.12.09.28.15.61a9.382,9.382,0,0,1,.2,1.259,10.632,10.632,0,0,1-.55,4.161,14.885,14.885,0,0,1-1.35,2.88,26.411,26.411,0,0,1-3.16,4.16,55.874,55.874,0,0,1-6.85,6.17,100.745,100.745,0,0,1-14.82,9.39l-3.24-4.94c4.19-3.571,8.38-7.33,12.17-11.14a55.181,55.181,0,0,0,5.12-5.84,16.069,16.069,0,0,0,1.72-2.77,5.047,5.047,0,0,0,.34-1h0a.544.544,0,0,0,0,.22.649.649,0,0,0,0,.09l-.09-.22-.35-.881c-.24-.6-.45-1.19-.73-1.78l-.8-1.77-.85-1.77c-1.19-2.35-2.46-4.69-3.84-7s-2.81-4.61-4.3-6.87c-.73-1.14-1.49-2.27-2.25-3.38l-2.28-3.25Z" fill="#7f3e3b"/>
      <path id="Trazado_102548" data-name="Trazado 102548" d="M1029.78,6676.682c7.37,1.491,13.84,19.51,13.84,19.51l-15.38,12.53s-5-9.16-9.08-18C1014.77,6681.093,1020.85,6674.882,1029.78,6676.682Z" fill="#d9a171"/>
      <g id="Grupo_54825" data-name="Grupo 54825" opacity="0.3">
        <path id="Trazado_102549" data-name="Trazado 102549" d="M1029.78,6676.682c7.37,1.491,13.84,19.51,13.84,19.51l-15.38,12.53s-5-9.16-9.08-18C1014.77,6681.093,1020.85,6674.882,1029.78,6676.682Z" fill="#fff"/>
      </g>
      <path id="Trazado_102550" data-name="Trazado 102550" d="M1019.27,6734.922l-7.94.87,5.15,8.62s6.6-2.24,5.8-5.86Z" fill="#7f3e3b"/>
      <path id="Trazado_102551" data-name="Trazado 102551" d="M1006.6,6740.342l4.59,6.93,5.29-2.86-5.15-8.62Z" fill="#7f3e3b"/>
    </g>
  </g>
</svg>
