<?xml version="1.0" encoding="utf-8"?>
<!-- Generator: Adobe Illustrator 25.2.3, SVG Export Plug-In . SVG Version: 6.00 Build 0)  -->
<svg version="1.1" id="Capa_1" xmlns="http://www.w3.org/2000/svg" xmlns:xlink="http://www.w3.org/1999/xlink" x="0px" y="0px"
	 viewBox="0 0 573 279.4" style="enable-background:new 0 0 573 279.4;" xml:space="preserve">
<style type="text/css">
	.st0{fill:#F6F6F6;}
	.st1{fill:#FFFFFF;}
	.st2{fill:#12263F;}
	.st3{font-family:'Roboto-Bold';}
	.st4{font-size:12.2396px;}
	.st5{font-family:'Roboto-Regular';}
	.st6{font-size:10.8796px;}
	.st7{fill:none;stroke:#AFAFAF;stroke-linecap:round;}
	.st8{fill:#D9A171;}
	.st9{font-size:16.3194px;}
</style>
<g id="Grupo_54968" transform="translate(2406 10111.711)">
	<rect id="Rectángulo_5442" x="-2319.5" y="-10025.7" class="st0" width="400" height="102.3"/>
	<rect id="Rectángulo_5443" x="-2319.5" y="-9924.4" class="st1" width="400" height="47.4"/>
	<text transform="matrix(1.0266 0 0 1 -2304.1426 -9887.7949)" class="st2 st3 st4">Bancos</text>
	<text transform="matrix(1.0266 0 0 1 -2304.1426 -9997.8633)" class="st2 st3 st4">Inversiones </text>
	<text transform="matrix(1.0266 0 0 1 -2304.1426 -9979.5039)" class="st2 st3 st4">financieras a largo </text>
	<text transform="matrix(1.0266 0 0 1 -2304.1426 -9961.1426)" class="st2 st3 st4">plazo en instrumentos </text>
	<text transform="matrix(1.0266 0 0 1 -2304.1426 -9942.7842)" class="st2 st3 st4">de patrimonio</text>
	<text transform="matrix(1.0266 0 0 1 -2145.7021 -9971.6836)" class="st2 st5 st6">130.000.000,00</text>
	<text transform="matrix(1.0266 0 0 1 -2013.0674 -9896.6348)" class="st2 st5 st6">130.000.000,00</text>
	<line id="Línea_184" class="st7" x1="-2162.4" y1="-10025.7" x2="-2162.4" y2="-9880.9"/>
	<line id="Línea_185" class="st7" x1="-2043.1" y1="-10025.7" x2="-2043.1" y2="-9880.9"/>
	<path id="Trazado_99548" class="st8" d="M-2319.5-10067h400v41.3h-400V-10067z"/>
	<text transform="matrix(1.0266 0 0 1 -2284.6133 -10042.0615)" class="st1 st3 st9">CUENTA</text>
	<text transform="matrix(1.0266 0 0 1 -2155.4727 -10040.5928)" class="st1 st3 st9">DÉBITOS</text>
	<text transform="matrix(1.0266 0 0 1 -2029.0947 -10040.7012)" class="st1 st3 st9">CRÉDITOS</text>
</g>
</svg>
