<?xml version="1.0" encoding="utf-8"?>
<!-- Generator: Adobe Illustrator 25.2.3, SVG Export Plug-In . SVG Version: 6.00 Build 0)  -->
<svg version="1.1" id="Capa_1" xmlns="http://www.w3.org/2000/svg" xmlns:xlink="http://www.w3.org/1999/xlink" x="0px" y="0px"
	 viewBox="0 0 573 279.4" style="enable-background:new 0 0 573 279.4;" xml:space="preserve">
<style type="text/css">
	.st0{fill:#F6F6F6;}
	.st1{fill:#FFFFFF;}
	.st2{fill:#12263F;}
	.st3{fill:none;stroke:#AFAFAF;stroke-linecap:round;}
	.st4{fill:#D9A171;}
</style>
<g id="Grupo_54970" transform="translate(2406 10111.711)">
	<rect id="Rectángulo_5442" x="-2319.5" y="-10042.7" class="st0" width="400" height="134.6"/>
	<rect id="Rectángulo_5443" x="-2319.5" y="-9909.4" class="st1" width="400" height="62.4"/>
	<path id="Trazado_102813" class="st2" d="M-2303.5-9861.2v-11.5h3.2c0.9-0.1,1.8,0.2,2.6,0.8c0.6,0.5,0.9,1.4,0.9,2.4
		c0,0.5-0.1,1.1-0.3,1.5c-0.2,0.4-0.6,0.8-0.9,0.9c0.4,0.1,0.8,0.4,1.1,0.9c0.3,0.5,0.4,1,0.4,1.6c0.1,1-0.3,1.9-0.8,2.5
		c-0.7,0.6-1.6,0.9-2.5,0.9H-2303.5z M-2301.3-9866.1v2.7h1.4c0.3,0,0.6-0.1,0.9-0.3c0.2-0.2,0.3-0.6,0.3-1c0.1-0.7-0.3-1.3-0.8-1.4
		c-0.1,0-0.2,0-0.3,0H-2301.3z M-2301.3-9867.9h1.1c0.4,0,0.7-0.1,1-0.3c0.2-0.2,0.3-0.6,0.3-1c0-0.4-0.1-0.8-0.3-1
		c-0.3-0.2-0.7-0.4-1-0.3h-1.1V-9867.9z M-2291.7-9861.2c-0.1-0.2-0.2-0.5-0.2-0.8c-0.4,0.6-1,1-1.6,0.9c-0.6,0-1.2-0.2-1.6-0.7
		c-0.4-0.4-0.7-1.1-0.7-1.8c0-0.8,0.3-1.6,0.8-2.1c0.7-0.5,1.5-0.8,2.3-0.7h0.6v-0.4c0-0.8-0.3-1.2-0.8-1.2
		c-0.4-0.1-0.7,0.2-0.7,0.7c0,0.1,0,0.2,0,0.2h-2.1c0-0.8,0.3-1.6,0.8-2c0.6-0.5,1.3-0.8,2.1-0.8c0.7-0.1,1.4,0.2,2,0.8
		c0.5,0.5,0.8,1.3,0.8,2.2v3.8c0,0.6,0.1,1.2,0.3,1.8v0.1H-2291.7z M-2293-9862.9c0.2,0,0.4-0.1,0.6-0.2c0.2-0.1,0.3-0.3,0.4-0.5
		v-1.4h-0.6c-0.7,0-1.1,0.4-1.1,1.2c0,0.2,0.1,0.4,0.2,0.6C-2293.4-9863-2293.2-9862.9-2293-9862.9L-2293-9862.9z M-2286.9-9869.7
		l0.1,1c0.4-0.8,1.2-1.2,1.9-1.2c0.6-0.1,1.2,0.2,1.5,0.8c0.4,0.7,0.6,1.5,0.5,2.4v5.5h-2.1v-5.4c0-0.3,0-0.7-0.2-0.9
		c-0.2-0.2-0.5-0.3-0.7-0.3c-0.4,0-0.7,0.2-0.9,0.6v6h-2.1v-8.5H-2286.9z M-2278.9-9863.1c0.2,0,0.5-0.1,0.7-0.3
		c0.2-0.2,0.3-0.5,0.2-0.8h1.9c0,0.9-0.3,1.7-0.8,2.3c-0.6,0.6-1.3,0.9-2,0.9c-0.9,0.1-1.7-0.4-2.3-1.2c-0.6-0.9-0.9-2-0.8-3.2v-0.1
		c0-0.8,0.1-1.6,0.4-2.3c0.2-0.6,0.6-1.2,1.1-1.5c0.5-0.4,1.1-0.5,1.7-0.5c0.8-0.1,1.5,0.3,2.1,0.9c0.5,0.7,0.8,1.6,0.8,2.5h-1.9
		c0-0.4-0.1-0.7-0.3-1c-0.2-0.2-0.4-0.4-0.7-0.4c-0.5,0-0.8,0.4-0.9,1.3c0,0.4,0,0.8,0,1.1c0,0.6,0,1.2,0.2,1.8
		C-2279.5-9863.3-2279.2-9863.1-2278.9-9863.1L-2278.9-9863.1z M-2275.4-9865.5c0-0.8,0.1-1.6,0.4-2.3c0.2-0.6,0.6-1.2,1.1-1.5
		c0.5-0.4,1.1-0.6,1.7-0.5c0.9-0.1,1.7,0.4,2.3,1.2c0.6,0.9,0.9,2,0.9,3.2v0.1c0,1.2-0.3,2.3-0.9,3.2c-0.6,0.8-1.5,1.2-2.3,1.2
		c-0.8,0-1.7-0.3-2.3-1.1c-0.6-0.8-0.9-1.9-0.9-3L-2275.4-9865.5z M-2273.4-9865.4c0,0.6,0.1,1.2,0.3,1.7c0.2,0.4,0.5,0.6,0.9,0.6
		c0.7,0,1.1-0.7,1.1-2.2v-0.3c0-1.5-0.4-2.3-1.1-2.3c-0.7,0-1.1,0.7-1.1,2L-2273.4-9865.4z M-2264.6-9863.6c0-0.2-0.1-0.4-0.3-0.5
		c-0.3-0.2-0.7-0.3-1-0.4c-0.4-0.1-0.9-0.3-1.3-0.6c-0.3-0.2-0.6-0.5-0.8-0.9c-0.2-0.3-0.3-0.8-0.3-1.2c0-0.8,0.3-1.5,0.8-1.9
		c0.6-0.5,1.3-0.8,2-0.8c0.7,0,1.5,0.2,2.1,0.8c0.5,0.5,0.8,1.2,0.8,2h-2.1c0-0.7-0.3-1-0.8-1c-0.2,0-0.4,0.1-0.5,0.2
		c-0.1,0.1-0.2,0.4-0.2,0.6c0,0.2,0.1,0.5,0.3,0.6c0.3,0.2,0.6,0.3,0.9,0.4c0.4,0.1,0.7,0.2,1,0.3c0.9,0.2,1.5,1.2,1.5,2.4
		c0,0.8-0.3,1.5-0.8,1.9c-0.6,0.5-1.4,0.8-2.1,0.7c-0.5,0-1-0.1-1.5-0.4c-0.4-0.2-0.8-0.6-1-1.1c-0.2-0.4-0.4-0.9-0.4-1.4h1.9
		c0,0.3,0.1,0.7,0.3,0.9c0.2,0.2,0.5,0.3,0.8,0.3c0.2,0,0.4-0.1,0.6-0.2C-2264.7-9863.2-2264.6-9863.4-2264.6-9863.6L-2264.6-9863.6
		z"/>
	<path id="Trazado_102811" class="st2" d="M-2301.2-10006h-2.1v-11.5h2.1V-10006z M-2297.9-10014.5l0.1,1c0.4-0.8,1.2-1.2,1.9-1.2
		c0.6-0.1,1.2,0.2,1.5,0.8c0.4,0.7,0.6,1.5,0.5,2.4v5.5h-2.1v-5.4c0-0.3-0.1-0.7-0.2-0.9c-0.2-0.2-0.5-0.3-0.7-0.3
		c-0.4,0-0.7,0.2-0.9,0.6v6h-2.1v-8.5H-2297.9z M-2290-10009.2l1-5.4h2.2l-2.2,8.5h-2.1l-2.2-8.5h2.2L-2290-10009.2z M-2283-10005.9
		c-0.9,0.1-1.8-0.4-2.5-1.2c-0.6-0.8-1-1.9-0.9-3v-0.2c0-0.8,0.1-1.6,0.4-2.3c0.2-0.6,0.6-1.2,1.1-1.5c0.5-0.4,1.1-0.6,1.7-0.5
		c0.8-0.1,1.6,0.4,2.2,1.1c0.6,0.9,0.9,2,0.8,3.1v1h-4.1c0.1,0.4,0.2,0.8,0.5,1.1c0.3,0.3,0.6,0.4,1,0.4c0.6,0,1.2-0.3,1.5-0.9
		l0.9,1.4c-0.3,0.5-0.7,0.9-1.1,1.1C-2281.9-10006-2282.5-10005.9-2283-10005.9L-2283-10005.9z M-2283.2-10012.7
		c-0.6,0-1,0.5-1.1,1.5h2.1v-0.2c0-0.4-0.1-0.7-0.3-1C-2282.7-10012.5-2282.9-10012.7-2283.2-10012.7z M-2275.3-10012.1l-0.7-0.1
		c-0.5-0.1-1,0.2-1.3,0.8v5.4h-2.1v-8.5h1.9l0.1,1.1c0.2-0.8,0.8-1.2,1.5-1.3c0.2,0,0.4,0,0.6,0.1L-2275.3-10012.1z
		 M-2271.1-10008.4c0-0.2-0.1-0.4-0.3-0.5c-0.3-0.2-0.7-0.3-1-0.4c-0.4-0.1-0.9-0.3-1.3-0.6c-0.3-0.2-0.6-0.5-0.8-0.9
		c-0.2-0.3-0.3-0.8-0.3-1.2c0-0.8,0.3-1.5,0.8-1.9c0.6-0.5,1.3-0.8,2-0.8c0.7,0,1.5,0.2,2.1,0.8c0.5,0.5,0.8,1.2,0.8,2h-2.1
		c0-0.7-0.3-1-0.8-1c-0.2,0-0.4,0.1-0.5,0.2c-0.1,0.1-0.2,0.4-0.2,0.6c0,0.2,0.1,0.5,0.3,0.6c0.3,0.2,0.6,0.3,0.9,0.4
		c0.4,0.1,0.7,0.2,1,0.3c0.9,0.2,1.5,1.2,1.5,2.4c0,0.8-0.3,1.5-0.8,1.9c-0.6,0.5-1.4,0.8-2.1,0.7c-0.5,0-1-0.1-1.5-0.4
		c-0.4-0.2-0.8-0.6-1-1.1c-0.2-0.4-0.4-0.9-0.4-1.4h1.9c0,0.3,0.1,0.7,0.3,0.9c0.2,0.2,0.5,0.3,0.8,0.3c0.2,0,0.4-0.1,0.6-0.2
		C-2271.2-10008-2271.1-10008.2-2271.1-10008.4L-2271.1-10008.4z M-2266-10006h-2.1v-8.5h2.1V-10006z M-2268.2-10016.7
		c0-0.4,0.1-0.7,0.3-0.9c0.5-0.5,1.2-0.5,1.7,0c0.2,0.2,0.3,0.6,0.3,0.9c0,0.4-0.1,0.7-0.3,0.9c-0.5,0.5-1.2,0.5-1.7,0
		C-2268.1-10016-2268.2-10016.4-2268.2-10016.7z M-2265-10010.4c0-0.8,0.1-1.6,0.4-2.3c0.2-0.6,0.6-1.2,1.1-1.5
		c0.5-0.4,1.1-0.6,1.7-0.5c0.9-0.1,1.7,0.4,2.3,1.2c0.6,0.9,0.9,2,0.9,3.2v0.1c0,1.2-0.3,2.3-0.9,3.2c-0.6,0.8-1.5,1.2-2.3,1.2
		c-0.8,0.1-1.7-0.3-2.3-1.1c-0.6-0.8-0.9-1.9-0.9-3L-2265-10010.4z M-2262.9-10010.2c0,0.6,0.1,1.2,0.3,1.7c0.2,0.4,0.5,0.6,0.9,0.6
		c0.7,0,1.1-0.7,1.1-2.2v-0.3c0-1.5-0.4-2.3-1.1-2.3c-0.7,0-1.1,0.7-1.1,2L-2262.9-10010.2z M-2255.7-10014.5l0.1,1
		c0.4-0.8,1.2-1.2,1.9-1.2c0.6-0.1,1.2,0.2,1.5,0.8c0.4,0.7,0.6,1.5,0.5,2.4v5.5h-2.1v-5.4c0-0.3-0.1-0.7-0.2-0.9
		c-0.2-0.2-0.5-0.3-0.7-0.3c-0.4,0-0.7,0.2-0.9,0.6v6h-2.1v-8.5H-2255.7z M-2247.3-10005.9c-0.9,0.1-1.8-0.4-2.5-1.2
		c-0.6-0.8-1-1.9-0.9-3v-0.2c0-0.8,0.1-1.6,0.4-2.3c0.2-0.6,0.6-1.2,1.1-1.5c0.5-0.4,1.1-0.6,1.7-0.5c0.8-0.1,1.6,0.4,2.2,1.1
		c0.6,0.9,0.9,2,0.8,3.1v1h-4.1c0.1,0.4,0.2,0.8,0.5,1.1c0.3,0.3,0.6,0.4,1,0.4c0.6,0,1.2-0.3,1.5-0.9l0.9,1.4
		c-0.3,0.5-0.7,0.9-1.1,1.1C-2246.3-10006-2246.8-10005.9-2247.3-10005.9z M-2247.6-10012.7c-0.6,0-1,0.5-1.1,1.5h2.1v-0.2
		c0-0.4-0.1-0.7-0.3-1C-2247-10012.5-2247.3-10012.7-2247.6-10012.7z M-2240.2-10008.4c0-0.2-0.1-0.4-0.3-0.5
		c-0.3-0.2-0.7-0.3-1-0.4c-0.4-0.1-0.9-0.3-1.3-0.6c-0.3-0.2-0.6-0.5-0.8-0.9c-0.2-0.3-0.3-0.8-0.3-1.2c0-0.8,0.3-1.5,0.8-1.9
		c0.6-0.5,1.3-0.8,2-0.8c0.7,0,1.5,0.2,2.1,0.8c0.5,0.5,0.8,1.2,0.8,2h-2.1c0-0.7-0.3-1-0.8-1c-0.2,0-0.4,0.1-0.5,0.2
		c-0.1,0.1-0.2,0.4-0.2,0.6c0,0.2,0.1,0.5,0.3,0.6c0.3,0.2,0.6,0.3,0.9,0.4c0.4,0.1,0.7,0.2,1,0.3c0.9,0.2,1.5,1.2,1.5,2.4
		c0,0.8-0.3,1.5-0.8,1.9c-0.6,0.5-1.4,0.8-2.1,0.7c-0.5,0-1-0.1-1.5-0.4c-0.4-0.2-0.8-0.6-1-1.1c-0.2-0.4-0.4-0.9-0.4-1.4h1.9
		c0,0.3,0.1,0.7,0.3,0.9c0.2,0.2,0.5,0.3,0.8,0.3c0.2,0,0.4-0.1,0.6-0.2C-2240.3-10008-2240.2-10008.2-2240.2-10008.4
		L-2240.2-10008.4z M-2303.1-9981.9v-6.7h-1v-1.8h1v-0.3c0-1,0.3-2,0.9-2.6c0.7-0.6,1.5-0.9,2.3-0.8c0.7,0,1.5,0.2,2.2,0.5l-0.3,2.1
		l-0.3-0.1c-0.5-0.2-0.9-0.2-1.4-0.2c-0.8,0-1.2,0.5-1.2,1.4v0.1h1.3v1.8h-1.3v6.7H-2303.1z M-2296.8-9981.9h-2.1v-8.5h2.1
		L-2296.8-9981.9z M-2293.7-9990.4l0.1,1c0.4-0.8,1.2-1.2,1.9-1.2c0.6-0.1,1.2,0.2,1.5,0.8c0.4,0.7,0.6,1.5,0.5,2.4v5.5h-2.1v-5.4
		c0-0.3,0-0.7-0.2-0.9c-0.2-0.2-0.5-0.3-0.7-0.3c-0.4,0-0.7,0.2-0.9,0.6v6h-2.1v-8.5H-2293.7z M-2284.7-9981.9
		c-0.1-0.2-0.2-0.5-0.2-0.8c-0.4,0.6-1,1-1.6,0.9c-0.6,0-1.2-0.2-1.6-0.7c-0.4-0.4-0.7-1.1-0.7-1.8c0-0.8,0.3-1.6,0.8-2.1
		c0.7-0.5,1.5-0.8,2.3-0.7h0.6v-0.4c0-0.8-0.3-1.2-0.8-1.2c-0.4-0.1-0.7,0.2-0.7,0.7c0,0.1,0,0.2,0,0.2h-2.1c0-0.8,0.3-1.6,0.8-2
		c0.6-0.5,1.3-0.8,2.1-0.8c0.7-0.1,1.4,0.2,2,0.8c0.5,0.5,0.8,1.3,0.8,2.2v3.8c0,0.6,0.1,1.2,0.3,1.8v0.1H-2284.7z M-2286-9983.6
		c0.2,0,0.4-0.1,0.6-0.2c0.2-0.1,0.3-0.3,0.4-0.5v-1.4h-0.6c-0.7,0-1.1,0.4-1.1,1.2c0,0.2,0.1,0.4,0.2,0.6
		C-2286.4-9983.7-2286.2-9983.6-2286-9983.6z M-2279.9-9990.4l0.1,1c0.4-0.8,1.2-1.2,1.9-1.2c0.6-0.1,1.2,0.2,1.5,0.8
		c0.4,0.7,0.6,1.5,0.5,2.4v5.5h-2.1v-5.4c0-0.3-0.1-0.7-0.2-0.9c-0.2-0.2-0.5-0.3-0.7-0.3c-0.4,0-0.7,0.2-0.9,0.6v6h-2.1v-8.5
		H-2279.9z M-2271.9-9983.8c0.2,0,0.5-0.1,0.7-0.3c0.2-0.2,0.3-0.5,0.2-0.8h1.9c0,0.9-0.3,1.7-0.8,2.3c-0.6,0.6-1.3,0.9-2,0.9
		c-0.9,0.1-1.7-0.4-2.3-1.2c-0.6-0.9-0.9-2-0.8-3.2v-0.1c0-0.8,0.1-1.6,0.4-2.3c0.2-0.6,0.6-1.2,1.1-1.5c0.5-0.4,1.1-0.5,1.7-0.5
		c0.8-0.1,1.5,0.3,2.1,0.9c0.5,0.7,0.8,1.6,0.8,2.5h-1.9c0-0.4-0.1-0.7-0.3-1c-0.2-0.2-0.4-0.4-0.7-0.4c-0.5,0-0.8,0.4-0.9,1.3
		c0,0.4,0,0.8,0,1.1c0,0.6,0,1.2,0.2,1.8C-2272.5-9983.9-2272.2-9983.7-2271.9-9983.8L-2271.9-9983.8z M-2266-9981.9h-2.1v-8.5h2.1
		L-2266-9981.9z M-2268.2-9992.6c0-0.4,0.1-0.7,0.3-0.9c0.5-0.5,1.2-0.5,1.7,0c0.4,0.5,0.4,1.3,0.1,1.8c0,0,0,0.1-0.1,0.1
		c-0.5,0.5-1.2,0.5-1.7,0C-2268.1-9991.9-2268.2-9992.2-2268.2-9992.6z M-2261.5-9981.7c-0.9,0.1-1.8-0.4-2.5-1.2
		c-0.6-0.8-1-1.9-0.9-3v-0.2c0-0.8,0.1-1.6,0.4-2.3c0.2-0.6,0.6-1.2,1.1-1.5c0.5-0.4,1.1-0.6,1.7-0.5c0.8-0.1,1.6,0.4,2.2,1.1
		c0.6,0.9,0.9,2,0.8,3.1v1h-4.1c0.1,0.4,0.2,0.8,0.5,1.1c0.3,0.3,0.6,0.4,1,0.4c0.6,0,1.2-0.3,1.5-0.9l0.9,1.4
		c-0.3,0.5-0.7,0.9-1.1,1.1C-2260.5-9981.8-2261-9981.7-2261.5-9981.7z M-2261.8-9988.5c-0.6,0-1,0.5-1.1,1.5h2.1v-0.2
		c0-0.4-0.1-0.7-0.3-1C-2261.2-9988.4-2261.5-9988.5-2261.8-9988.5z M-2253.9-9988l-0.7-0.1c-0.5-0.1-1,0.2-1.3,0.8v5.4h-2.1v-8.5
		h1.9l0.1,1.1c0.2-0.8,0.8-1.2,1.5-1.3c0.2,0,0.4,0,0.6,0.1L-2253.9-9988z M-2249.6-9981.9c-0.1-0.2-0.2-0.5-0.2-0.8
		c-0.4,0.6-1,1-1.6,0.9c-0.6,0-1.2-0.2-1.6-0.7c-0.4-0.4-0.7-1.1-0.7-1.8c0-0.8,0.3-1.6,0.8-2.1c0.7-0.5,1.5-0.8,2.3-0.7h0.6v-0.4
		c0-0.8-0.3-1.2-0.8-1.2c-0.4-0.1-0.7,0.2-0.7,0.7c0,0.1,0,0.2,0,0.2h-2.1c0-0.8,0.3-1.6,0.8-2c0.6-0.5,1.3-0.8,2.1-0.8
		c0.7-0.1,1.4,0.2,2,0.8c0.5,0.5,0.8,1.3,0.8,2.2v3.8c0,0.6,0.1,1.2,0.3,1.8v0.1H-2249.6z M-2250.9-9983.6c0.2,0,0.4-0.1,0.6-0.2
		c0.2-0.1,0.3-0.3,0.4-0.5v-1.4h-0.6c-0.7,0-1.1,0.4-1.1,1.2c0,0.2,0.1,0.4,0.2,0.6C-2251.2-9983.7-2251.1-9983.6-2250.9-9983.6
		L-2250.9-9983.6z M-2243.2-9984.3c0-0.2-0.1-0.4-0.3-0.5c-0.3-0.2-0.7-0.3-1-0.4c-0.4-0.1-0.9-0.3-1.3-0.6
		c-0.3-0.2-0.6-0.5-0.8-0.9c-0.2-0.3-0.3-0.8-0.3-1.2c0-0.8,0.3-1.5,0.8-1.9c0.6-0.5,1.3-0.8,2-0.8c0.7,0,1.5,0.2,2.1,0.8
		c0.5,0.5,0.8,1.2,0.8,2h-2.1c0-0.7-0.3-1-0.8-1c-0.2,0-0.4,0.1-0.5,0.2c-0.1,0.1-0.2,0.4-0.2,0.6c0,0.2,0.1,0.5,0.3,0.6
		c0.3,0.2,0.6,0.3,0.9,0.4c0.4,0.1,0.7,0.2,1,0.3c0.9,0.2,1.5,1.2,1.5,2.4c0,0.8-0.3,1.5-0.8,1.9c-0.6,0.5-1.4,0.8-2.1,0.7
		c-0.5,0-1-0.1-1.5-0.4c-0.4-0.2-0.8-0.6-1-1.1c-0.2-0.4-0.4-0.9-0.4-1.4h1.9c0,0.3,0.1,0.7,0.3,0.9c0.2,0.2,0.5,0.3,0.8,0.3
		c0.2,0,0.4-0.1,0.6-0.2C-2243.3-9983.8-2243.2-9984-2243.2-9984.3L-2243.2-9984.3z M-2233.4-9981.9c-0.1-0.2-0.2-0.5-0.2-0.8
		c-0.4,0.6-1,1-1.6,0.9c-0.6,0-1.2-0.2-1.6-0.7c-0.4-0.4-0.7-1.1-0.7-1.8c0-0.8,0.3-1.6,0.8-2.1c0.7-0.5,1.5-0.8,2.3-0.7h0.6v-0.4
		c0-0.8-0.3-1.2-0.8-1.2c-0.4-0.1-0.7,0.2-0.7,0.7c0,0.1,0,0.2,0,0.2h-2.1c0-0.8,0.3-1.6,0.8-2c0.6-0.5,1.3-0.8,2.1-0.8
		c0.7-0.1,1.4,0.2,2,0.8c0.5,0.5,0.8,1.3,0.8,2.2v3.8c0,0.6,0.1,1.2,0.3,1.8v0.1H-2233.4z M-2234.7-9983.6c0.2,0,0.4-0.1,0.6-0.2
		c0.2-0.1,0.3-0.3,0.4-0.5v-1.4h-0.6c-0.7,0-1.1,0.4-1.1,1.2c0,0.2,0.1,0.4,0.2,0.6C-2235-9983.7-2234.8-9983.6-2234.7-9983.6
		L-2234.7-9983.6z M-2225.1-9981.9h-2.1v-12.1h2.1V-9981.9z M-2220.1-9981.9c-0.1-0.2-0.2-0.5-0.2-0.8c-0.4,0.6-1,1-1.6,0.9
		c-0.6,0-1.2-0.2-1.6-0.7c-0.4-0.4-0.7-1.1-0.7-1.8c0-0.8,0.3-1.6,0.8-2.1c0.7-0.5,1.5-0.8,2.3-0.7h0.6v-0.4c0-0.8-0.3-1.2-0.8-1.2
		c-0.4-0.1-0.7,0.2-0.7,0.7c0,0.1,0,0.2,0,0.2h-2.1c0-0.8,0.3-1.6,0.8-2c0.6-0.5,1.3-0.8,2.1-0.8c0.7-0.1,1.4,0.2,2,0.8
		c0.5,0.5,0.8,1.3,0.8,2.2v3.8c0,0.6,0.1,1.2,0.3,1.8v0.1H-2220.1z M-2221.4-9983.6c0.2,0,0.4-0.1,0.6-0.2c0.2-0.1,0.3-0.3,0.4-0.5
		v-1.4h-0.6c-0.7,0-1.1,0.4-1.1,1.2c0,0.2,0.1,0.4,0.2,0.6C-2221.8-9983.7-2221.6-9983.6-2221.4-9983.6L-2221.4-9983.6z
		 M-2213.2-9988l-0.7-0.1c-0.5-0.1-1,0.2-1.3,0.8v5.4h-2.1v-8.5h1.9l0.1,1.1c0.2-0.8,0.8-1.2,1.5-1.3c0.2,0,0.4,0,0.6,0.1
		L-2213.2-9988z M-2212.7-9986.2c0-0.8,0.1-1.6,0.3-2.3c0.2-0.6,0.5-1.1,1-1.5c0.4-0.4,0.9-0.6,1.4-0.5c0.6,0,1.2,0.3,1.6,0.9
		l0.1-0.7h1.9v8.2c0,0.7-0.1,1.4-0.4,2c-0.3,0.6-0.7,1-1.2,1.3c-0.6,0.3-1.2,0.5-1.8,0.4c-0.5,0-1-0.1-1.4-0.4
		c-0.4-0.2-0.8-0.5-1-0.9l0.9-1.6c0.4,0.6,0.9,0.9,1.5,0.9c0.7,0.1,1.3-0.5,1.4-1.4c0-0.1,0-0.3,0-0.4v-0.3
		c-0.4,0.6-0.9,0.9-1.5,0.8c-0.8,0-1.5-0.4-2-1.2c-0.5-0.9-0.8-2-0.7-3.2L-2212.7-9986.2z M-2210.6-9986c0,0.6,0.1,1.2,0.3,1.7
		c0.2,0.4,0.5,0.6,0.9,0.6c0.4,0,0.8-0.2,1-0.6v-3.6c-0.2-0.4-0.6-0.6-1-0.6c-0.4,0-0.7,0.2-0.9,0.6
		C-2210.5-9987.3-2210.6-9986.7-2210.6-9986L-2210.6-9986z M-2205.5-9986.2c0-0.8,0.1-1.6,0.4-2.3c0.2-0.6,0.6-1.2,1.1-1.5
		c0.5-0.4,1.1-0.6,1.7-0.5c0.9-0.1,1.7,0.4,2.3,1.2c0.6,0.9,0.9,2,0.9,3.2v0.1c0,1.2-0.3,2.3-0.9,3.2c-0.6,0.8-1.5,1.2-2.3,1.2
		c-0.8,0-1.7-0.3-2.3-1.1c-0.6-0.8-0.9-1.9-0.9-3L-2205.5-9986.2z M-2203.4-9986c0,0.6,0.1,1.2,0.3,1.7c0.2,0.4,0.5,0.6,0.9,0.5
		c0.7,0,1.1-0.7,1.1-2.2v-0.3c0-1.5-0.4-2.3-1.1-2.3c-0.7,0-1.1,0.7-1.1,2L-2203.4-9986z M-2297.4-9961.9c0,1.1-0.2,2.2-0.7,3.2
		c-0.4,0.8-1.1,1.2-1.9,1.2c-0.6,0-1.1-0.3-1.5-0.9v4h-2.1v-11.8h1.9l0.1,0.8c0.4-0.6,1-1,1.6-0.9c0.7,0,1.5,0.4,1.9,1.2
		c0.5,0.9,0.7,2.1,0.7,3.2V-9961.9z M-2299.5-9962.1c0-1.5-0.3-2.3-1-2.3c-0.4-0.1-0.8,0.2-1,0.7v3.3c0.2,0.5,0.6,0.8,1,0.7
		c0.7,0,1-0.7,1-2.2L-2299.5-9962.1z M-2294.3-9957.7h-2.1v-12.1h2.1V-9957.7z M-2289.3-9957.7c-0.1-0.2-0.2-0.5-0.2-0.8
		c-0.4,0.6-1,1-1.6,0.9c-0.6,0-1.2-0.2-1.6-0.7c-0.4-0.4-0.7-1.1-0.7-1.8c0-0.8,0.3-1.6,0.8-2.1c0.7-0.5,1.5-0.8,2.3-0.7h0.6v-0.4
		c0-0.8-0.3-1.2-0.8-1.2c-0.4-0.1-0.7,0.2-0.7,0.7c0,0.1,0,0.2,0,0.2h-2.1c0-0.8,0.3-1.6,0.8-2c0.6-0.5,1.3-0.8,2.1-0.8
		c0.7-0.1,1.4,0.2,2,0.8c0.5,0.5,0.8,1.3,0.8,2.2v3.8c0,0.6,0.1,1.2,0.3,1.8v0.1H-2289.3z M-2290.6-9959.4c0.2,0,0.4-0.1,0.6-0.2
		c0.2-0.1,0.3-0.3,0.4-0.5v-1.4h-0.6c-0.7,0-1.1,0.4-1.1,1.2c0,0.2,0.1,0.4,0.2,0.6C-2290.9-9959.5-2290.8-9959.4-2290.6-9959.4
		L-2290.6-9959.4z M-2283.9-9959.8h3v2h-5.6v-1.5l2.9-5h-2.8v-2h5.4v1.4L-2283.9-9959.8z M-2280.3-9962c0-0.8,0.1-1.6,0.4-2.3
		c0.2-0.6,0.6-1.2,1.1-1.5c0.5-0.4,1.1-0.6,1.7-0.5c0.9-0.1,1.7,0.4,2.3,1.2c0.6,0.9,0.9,2,0.9,3.2v0.1c0,1.2-0.3,2.3-0.9,3.2
		c-0.6,0.8-1.5,1.2-2.3,1.2c-0.8,0-1.7-0.3-2.3-1.1c-0.6-0.8-0.9-1.9-0.9-3L-2280.3-9962z M-2278.2-9961.9c0,0.6,0.1,1.2,0.3,1.7
		c0.2,0.4,0.5,0.6,0.9,0.5c0.7,0,1.1-0.7,1.1-2.2v-0.3c0-1.5-0.4-2.3-1.1-2.3c-0.7,0-1.1,0.7-1.1,2L-2278.2-9961.9z M-2266.6-9957.6
		c-0.9,0.1-1.8-0.4-2.5-1.2c-0.6-0.8-1-1.9-0.9-3v-0.2c0-0.8,0.1-1.6,0.4-2.3c0.2-0.6,0.6-1.2,1.1-1.5c0.5-0.4,1.1-0.6,1.7-0.5
		c0.8-0.1,1.6,0.4,2.2,1.1c0.6,0.9,0.9,2,0.8,3.1v1h-4.1c0.1,0.4,0.2,0.8,0.5,1.1c0.3,0.3,0.6,0.4,1,0.4c0.6,0,1.2-0.3,1.5-0.9
		l0.9,1.4c-0.3,0.5-0.7,0.9-1.1,1.1C-2265.6-9957.7-2266.1-9957.6-2266.6-9957.6L-2266.6-9957.6z M-2266.8-9964.3
		c-0.6,0-1,0.5-1.1,1.5h2.1v-0.2c0-0.4-0.1-0.7-0.3-1C-2266.3-9964.2-2266.6-9964.4-2266.8-9964.3z M-2261.1-9966.2l0.1,1
		c0.4-0.8,1.2-1.2,1.9-1.2c0.6-0.1,1.2,0.2,1.5,0.8c0.4,0.7,0.6,1.5,0.5,2.4v5.5h-2.1v-5.4c0-0.3-0.1-0.7-0.2-0.9
		c-0.2-0.2-0.5-0.3-0.7-0.3c-0.4,0-0.7,0.2-0.9,0.6v6h-2.1v-8.5H-2261.1z M-2250.6-9957.7h-2.1v-8.5h2.1L-2250.6-9957.7z
		 M-2252.8-9968.4c0-0.4,0.1-0.7,0.3-0.9c0.5-0.5,1.2-0.5,1.7,0c0.4,0.5,0.4,1.3,0.1,1.8c0,0,0,0.1-0.1,0.1c-0.5,0.5-1.2,0.5-1.7,0
		C-2252.7-9967.7-2252.8-9968.1-2252.8-9968.4z M-2247.4-9966.2l0.1,1c0.4-0.8,1.2-1.2,1.9-1.2c0.6-0.1,1.2,0.2,1.5,0.8
		c0.4,0.7,0.6,1.5,0.5,2.4v5.5h-2.1v-5.4c0-0.3-0.1-0.7-0.2-0.9c-0.2-0.2-0.5-0.3-0.7-0.3c-0.4,0-0.7,0.2-0.9,0.6v6h-2.1v-8.5
		H-2247.4z M-2238.7-9960.1c0-0.2-0.1-0.4-0.3-0.5c-0.3-0.2-0.7-0.3-1-0.4c-0.4-0.1-0.9-0.3-1.3-0.6c-0.3-0.2-0.6-0.5-0.8-0.9
		c-0.2-0.3-0.3-0.8-0.3-1.2c0-0.8,0.3-1.5,0.8-1.9c0.6-0.5,1.3-0.8,2-0.8c0.7,0,1.5,0.2,2.1,0.8c0.5,0.5,0.8,1.2,0.8,2h-2.1
		c0-0.7-0.3-1-0.8-1c-0.2,0-0.4,0.1-0.5,0.2c-0.1,0.1-0.2,0.4-0.2,0.6c0,0.2,0.1,0.5,0.3,0.6c0.3,0.2,0.6,0.3,0.9,0.4
		c0.4,0.1,0.7,0.2,1,0.3c0.9,0.2,1.5,1.2,1.5,2.4c0,0.8-0.3,1.5-0.8,1.9c-0.6,0.5-1.4,0.8-2.1,0.7c-0.5,0-1-0.1-1.5-0.4
		c-0.4-0.2-0.8-0.6-1-1.1c-0.2-0.4-0.4-0.9-0.4-1.4h1.9c0,0.3,0.1,0.7,0.3,0.9c0.2,0.2,0.5,0.3,0.8,0.3c0.2,0,0.4-0.1,0.6-0.2
		C-2238.8-9959.7-2238.7-9959.9-2238.7-9960.1z M-2233.4-9968.3v2.1h1.1v1.8h-1.1v3.9c0,0.2,0,0.5,0.1,0.7c0.2,0.2,0.3,0.2,0.5,0.2
		c0.2,0,0.3,0,0.5,0v1.9c-0.4,0.2-0.8,0.2-1.2,0.2c-0.6,0.1-1.1-0.2-1.6-0.6c-0.4-0.5-0.6-1.2-0.5-2v-4.2h-0.8v-1.8h0.8v-2.1
		L-2233.4-9968.3z M-2227.4-9963.8l-0.7-0.1c-0.5-0.1-1,0.2-1.3,0.8v5.4h-2.1v-8.5h1.9l0.1,1.1c0.2-0.8,0.8-1.2,1.5-1.3
		c0.2,0,0.4,0,0.6,0.1L-2227.4-9963.8z M-2222.8-9958.6c-0.4,0.7-1.1,1.1-1.8,1.1c-0.6,0.1-1.2-0.2-1.7-0.8
		c-0.4-0.7-0.6-1.5-0.6-2.3v-5.5h2.1v5.5c-0.1,0.5,0.2,1,0.6,1.1c0.1,0,0.1,0,0.2,0c0.4,0,0.8-0.2,1-0.7v-6h2.1v8.5h-1.9
		L-2222.8-9958.6z M-2217.7-9966.2l0.1,1c0.4-0.8,1.2-1.2,1.9-1.2c0.7-0.1,1.4,0.4,1.7,1.3c0.4-0.8,1.2-1.3,2-1.3c1.3,0,2,1,2.1,3.1
		v5.5h-2.1v-5.4c0-0.3,0-0.7-0.2-1c-0.2-0.2-0.4-0.3-0.6-0.3c-0.4,0-0.7,0.3-0.9,0.7l0,0.1v5.8h-2.1v-5.4c0-0.3,0-0.7-0.2-1
		c-0.2-0.2-0.4-0.3-0.6-0.3c-0.4,0-0.7,0.3-0.9,0.7v5.9h-2.1v-8.5L-2217.7-9966.2z M-2205.6-9957.6c-0.9,0.1-1.8-0.4-2.5-1.2
		c-0.6-0.8-1-1.9-0.9-3v-0.2c0-0.8,0.1-1.6,0.4-2.3c0.2-0.6,0.6-1.2,1.1-1.5c0.5-0.4,1.1-0.6,1.7-0.5c0.8-0.1,1.6,0.4,2.2,1.1
		c0.6,0.9,0.9,2,0.8,3.1v1h-4.1c0.1,0.4,0.2,0.8,0.5,1.1c0.3,0.3,0.6,0.4,1,0.4c0.6,0,1.2-0.3,1.5-0.9l0.9,1.4
		c-0.3,0.5-0.7,0.9-1.1,1.1C-2204.5-9957.7-2205.1-9957.6-2205.6-9957.6L-2205.6-9957.6z M-2205.8-9964.3c-0.6,0-1,0.5-1.1,1.5h2.1
		v-0.2c0-0.4-0.1-0.7-0.3-1C-2205.3-9964.2-2205.5-9964.4-2205.8-9964.3L-2205.8-9964.3z M-2200.1-9966.2l0.1,1
		c0.4-0.8,1.2-1.2,1.9-1.2c0.6-0.1,1.2,0.2,1.5,0.8c0.4,0.7,0.6,1.5,0.5,2.4v5.5h-2.1v-5.4c0-0.3-0.1-0.7-0.2-0.9
		c-0.2-0.2-0.5-0.3-0.7-0.3c-0.4,0-0.7,0.2-0.9,0.6v6h-2.1v-8.5L-2200.1-9966.2z M-2192.5-9968.3v2.1h1.1v1.8h-1.1v3.9
		c0,0.2,0,0.5,0.1,0.7c0.2,0.2,0.3,0.2,0.5,0.2c0.2,0,0.3,0,0.5,0v1.9c-0.4,0.2-0.8,0.2-1.2,0.2c-0.6,0.1-1.1-0.2-1.6-0.6
		c-0.4-0.5-0.6-1.2-0.5-2v-4.2h-0.8v-1.8h0.8v-2.1L-2192.5-9968.3z M-2191-9962c0-0.8,0.1-1.6,0.4-2.3c0.2-0.6,0.6-1.2,1.1-1.5
		c0.5-0.4,1.1-0.6,1.7-0.5c0.9-0.1,1.7,0.4,2.3,1.2c0.6,0.9,0.9,2,0.9,3.2v0.1c0,1.2-0.3,2.3-0.9,3.2c-0.6,0.8-1.5,1.2-2.3,1.2
		c-0.8,0-1.7-0.3-2.3-1.1c-0.6-0.8-0.9-1.9-0.9-3L-2191-9962z M-2188.9-9961.9c0,0.6,0.1,1.2,0.3,1.7c0.2,0.4,0.5,0.6,0.9,0.5
		c0.7,0,1.1-0.7,1.1-2.2v-0.3c0-1.5-0.4-2.3-1.1-2.3c-0.7,0-1.1,0.7-1.1,2L-2188.9-9961.9z M-2180.2-9960.1c0-0.2-0.1-0.4-0.3-0.5
		c-0.3-0.2-0.7-0.3-1-0.4c-0.4-0.1-0.9-0.3-1.3-0.6c-0.3-0.2-0.6-0.5-0.8-0.9c-0.2-0.3-0.3-0.8-0.3-1.2c0-0.8,0.3-1.5,0.8-1.9
		c0.6-0.5,1.3-0.8,2-0.8c0.7,0,1.5,0.2,2.1,0.8c0.5,0.5,0.8,1.2,0.8,2h-2.1c0-0.7-0.3-1-0.8-1c-0.2,0-0.4,0.1-0.5,0.2
		c-0.1,0.1-0.2,0.4-0.2,0.6c0,0.2,0.1,0.5,0.3,0.6c0.3,0.2,0.6,0.3,0.9,0.4c0.4,0.1,0.7,0.2,1,0.3c0.9,0.2,1.5,1.2,1.5,2.4
		c0,0.8-0.3,1.5-0.8,1.9c-0.6,0.5-1.4,0.8-2.1,0.7c-0.5,0-1-0.1-1.5-0.4c-0.4-0.2-0.8-0.6-1-1.1c-0.2-0.4-0.4-0.9-0.4-1.4h1.9
		c0,0.3,0.1,0.7,0.3,0.9c0.2,0.2,0.5,0.3,0.8,0.3c0.2,0,0.4-0.1,0.6-0.2C-2180.3-9959.7-2180.2-9959.9-2180.2-9960.1L-2180.2-9960.1
		z M-2303.8-9937.9c0-1.1,0.2-2.2,0.7-3.2c0.4-0.8,1.2-1.2,1.9-1.2c0.6,0,1.1,0.3,1.5,0.9v-4.3h2.1v12.1h-1.9l-0.1-0.9
		c-0.4,0.7-1,1.1-1.6,1.1c-0.7,0-1.4-0.4-1.9-1.2C-2303.6-9935.5-2303.9-9936.7-2303.8-9937.9z M-2301.8-9937.7c0,1.5,0.3,2.3,1,2.3
		c0.4,0,0.8-0.3,1-0.7v-3.2c-0.2-0.5-0.6-0.8-1-0.8c-0.6,0-1,0.7-1,2L-2301.8-9937.7z M-2293.3-9933.4c-0.9,0.1-1.8-0.4-2.5-1.2
		c-0.6-0.8-1-1.9-0.9-3v-0.2c0-0.8,0.1-1.6,0.4-2.3c0.2-0.6,0.6-1.2,1.1-1.5c0.5-0.4,1.1-0.6,1.7-0.5c0.8-0.1,1.6,0.4,2.2,1.1
		c0.6,0.9,0.9,2,0.8,3.1v1h-4.1c0.1,0.4,0.2,0.8,0.5,1.1c0.3,0.3,0.6,0.4,1,0.4c0.6,0,1.2-0.3,1.5-0.9l0.9,1.4
		c-0.3,0.5-0.7,0.9-1.1,1.1C-2292.2-9933.5-2292.8-9933.4-2293.3-9933.4z M-2293.5-9940.2c-0.6,0-1,0.5-1.1,1.5h2.1v-0.2
		c0-0.4-0.1-0.7-0.3-1C-2293-9940.1-2293.2-9940.2-2293.5-9940.2z M-2280.4-9937.8c0,1.1-0.2,2.2-0.7,3.2c-0.4,0.8-1.1,1.2-1.9,1.2
		c-0.6,0-1.1-0.3-1.5-0.9v4h-2.1v-11.8h1.9l0.1,0.8c0.4-0.6,1-1,1.6-0.9c0.7,0,1.5,0.4,1.9,1.2c0.5,0.9,0.7,2.1,0.7,3.2V-9937.8z
		 M-2282.4-9937.9c0-1.5-0.3-2.3-1-2.3c-0.4-0.1-0.8,0.2-1,0.7v3.4c0.2,0.5,0.6,0.8,1,0.7c0.7,0,1-0.7,1-2.2V-9937.9z
		 M-2275.7-9933.6c-0.1-0.2-0.2-0.5-0.2-0.8c-0.4,0.6-1,1-1.6,0.9c-0.6,0-1.2-0.2-1.6-0.7c-0.4-0.4-0.7-1.1-0.7-1.8
		c0-0.8,0.3-1.6,0.8-2.1c0.7-0.5,1.5-0.8,2.3-0.7h0.6v-0.4c0-0.8-0.3-1.2-0.8-1.2c-0.4-0.1-0.7,0.2-0.7,0.7c0,0.1,0,0.2,0,0.2h-2.1
		c0-0.8,0.3-1.6,0.8-2c0.6-0.5,1.3-0.8,2.1-0.8c0.7-0.1,1.4,0.2,2,0.8c0.5,0.5,0.8,1.3,0.8,2.2v3.8c0,0.6,0.1,1.2,0.3,1.8v0.1
		H-2275.7z M-2277-9935.3c0.2,0,0.4-0.1,0.6-0.2c0.2-0.1,0.3-0.3,0.4-0.5v-1.4h-0.6c-0.7,0-1.1,0.4-1.1,1.2c0,0.2,0.1,0.4,0.2,0.6
		C-2277.4-9935.4-2277.2-9935.3-2277-9935.3L-2277-9935.3z M-2270.4-9944.2v2.1h1.1v1.8h-1.1v3.9c0,0.2,0,0.5,0.1,0.7
		c0.2,0.2,0.3,0.2,0.5,0.2c0.2,0,0.3,0,0.5,0v1.9c-0.4,0.2-0.8,0.2-1.2,0.2c-0.6,0.1-1.1-0.2-1.6-0.6c-0.4-0.5-0.6-1.2-0.5-2v-4.2
		h-0.8v-1.8h0.8v-2.1H-2270.4z M-2264.5-9939.7l-0.7-0.1c-0.5-0.1-1,0.2-1.3,0.8v5.4h-2.1v-8.5h1.9l0.1,1.1c0.2-0.8,0.8-1.2,1.5-1.3
		c0.2,0,0.4,0,0.6,0.1L-2264.5-9939.7z M-2261.5-9933.6h-2.1v-8.5h2.1V-9933.6z M-2263.7-9944.3c0-0.4,0.1-0.7,0.3-0.9
		c0.5-0.5,1.2-0.5,1.7,0c0.4,0.5,0.4,1.3,0.1,1.8c0,0,0,0.1-0.1,0.1c-0.5,0.5-1.2,0.5-1.7,0
		C-2263.6-9943.6-2263.7-9943.9-2263.7-9944.3z M-2258.3-9942.1l0.1,1c0.4-0.8,1.2-1.2,1.9-1.2c0.7-0.1,1.4,0.4,1.7,1.3
		c0.4-0.8,1.2-1.3,2-1.3c1.3,0,2,1,2.1,3.1v5.5h-2.1v-5.4c0-0.3,0-0.7-0.2-1c-0.2-0.2-0.4-0.3-0.6-0.3c-0.4,0-0.7,0.3-0.9,0.7l0,0.1
		v5.8h-2.1v-5.4c0-0.3,0-0.7-0.2-1c-0.2-0.2-0.4-0.3-0.6-0.3c-0.4,0-0.7,0.3-0.9,0.7v5.9h-2.1v-8.5H-2258.3z M-2249.7-9937.9
		c0-0.8,0.1-1.6,0.4-2.3c0.2-0.6,0.6-1.2,1.1-1.5c0.5-0.4,1.1-0.6,1.7-0.5c0.9-0.1,1.7,0.4,2.3,1.2c0.6,0.9,0.9,2,0.9,3.2v0.1
		c0,1.2-0.3,2.3-0.9,3.2c-0.6,0.8-1.5,1.2-2.3,1.2c-0.8,0-1.7-0.3-2.3-1.1c-0.6-0.8-0.9-1.9-0.9-3L-2249.7-9937.9z M-2247.6-9937.7
		c0,0.6,0.1,1.2,0.3,1.7c0.2,0.4,0.5,0.6,0.9,0.5c0.7,0,1.1-0.7,1.1-2.2v-0.3c0-1.5-0.4-2.3-1.1-2.3c-0.7,0-1.1,0.7-1.1,2
		L-2247.6-9937.7z M-2240.5-9942.1l0.1,1c0.4-0.8,1.2-1.2,1.9-1.2c0.6-0.1,1.2,0.2,1.5,0.8c0.4,0.7,0.6,1.5,0.5,2.4v5.5h-2.1v-5.4
		c0-0.3-0.1-0.7-0.2-0.9c-0.2-0.2-0.5-0.3-0.7-0.3c-0.4,0-0.7,0.2-0.9,0.6v6h-2.1v-8.5H-2240.5z M-2233.1-9933.6h-2.1v-8.5h2.1
		V-9933.6z M-2235.3-9944.3c0-0.4,0.1-0.7,0.3-0.9c0.5-0.5,1.2-0.5,1.7,0c0.4,0.5,0.4,1.3,0.1,1.8c0,0,0,0.1-0.1,0.1
		c-0.5,0.5-1.2,0.5-1.7,0C-2235.2-9943.6-2235.3-9943.9-2235.3-9944.3z M-2232.1-9937.9c0-0.8,0.1-1.6,0.4-2.3
		c0.2-0.6,0.6-1.2,1.1-1.5c0.5-0.4,1.1-0.6,1.7-0.5c0.9-0.1,1.7,0.4,2.3,1.2c0.6,0.9,0.9,2,0.9,3.2v0.1c0,1.2-0.3,2.3-0.9,3.2
		c-0.6,0.8-1.5,1.2-2.3,1.2c-0.8,0-1.7-0.3-2.3-1.1c-0.6-0.8-0.9-1.9-0.9-3L-2232.1-9937.9z M-2230-9937.7c0,0.6,0.1,1.2,0.3,1.7
		c0.2,0.4,0.5,0.6,0.9,0.5c0.7,0,1.1-0.7,1.1-2.2v-0.3c0-1.5-0.4-2.3-1.1-2.3c-0.7,0-1.1,0.7-1.1,2L-2230-9937.7z"/>
	<path id="Trazado_102812" class="st2" d="M-2141.7-9971.6h-1v-8.6l-2,1v-1.2l2.9-1.4h0.2V-9971.6z M-2137.3-9977.3h0.8
		c0.4,0,0.8-0.2,1.1-0.5c0.3-0.3,0.4-0.8,0.4-1.3c0.1-0.9-0.4-1.7-1-1.8c-0.1,0-0.2,0-0.3,0c-0.4,0-0.8,0.1-1,0.5
		c-0.3,0.3-0.4,0.8-0.4,1.3h-1c0-0.8,0.2-1.5,0.7-2c0.5-0.5,1.1-0.8,1.8-0.8c0.6,0,1.3,0.2,1.8,0.8c0.4,0.6,0.7,1.3,0.6,2.1
		c0,0.5-0.1,0.9-0.3,1.3c-0.2,0.4-0.5,0.7-0.9,0.9c0.4,0.1,0.8,0.5,1,0.9c0.2,0.4,0.4,1,0.4,1.5c0,0.8-0.2,1.6-0.7,2.2
		c-0.5,0.6-1.2,0.8-1.8,0.8c-0.7,0-1.3-0.2-1.8-0.8c-0.5-0.5-0.7-1.3-0.7-2h1c0,0.5,0.1,1,0.4,1.3c0.3,0.3,0.7,0.5,1.1,0.5
		c0.4,0,0.8-0.1,1.1-0.5c0.3-0.4,0.4-0.9,0.4-1.4c0-0.5-0.1-1-0.4-1.4c-0.4-0.3-0.8-0.5-1.2-0.5h-0.8L-2137.3-9977.3z
		 M-2127.5-9975.9c0.1,1.2-0.1,2.4-0.6,3.4c-0.4,0.8-1.2,1.2-1.9,1.1c-0.7,0.1-1.4-0.3-1.9-1.1c-0.5-1-0.7-2.1-0.6-3.2v-1.7
		c-0.1-1.2,0.1-2.3,0.6-3.3c0.4-0.8,1.2-1.2,1.9-1.1c0.7-0.1,1.4,0.3,1.9,1.1c0.5,1,0.7,2.1,0.6,3.2L-2127.5-9975.9z
		 M-2128.5-9977.7c0-0.8-0.1-1.6-0.4-2.4c-0.2-0.5-0.7-0.8-1.1-0.8c-0.5,0-0.9,0.2-1.1,0.7c-0.3,0.7-0.4,1.5-0.4,2.3v2.1
		c0,0.8,0.1,1.7,0.4,2.4c0.2,0.5,0.7,0.8,1.1,0.8c0.4,0,0.9-0.3,1.1-0.7c0.3-0.7,0.4-1.5,0.4-2.3L-2128.5-9977.7z M-2126.1-9972.3
		c0-0.2,0.1-0.4,0.2-0.6c0.1-0.2,0.3-0.2,0.5-0.2c0.2,0,0.3,0.1,0.5,0.2c0.1,0.2,0.2,0.4,0.2,0.6c0,0.2-0.1,0.4-0.2,0.5
		c-0.1,0.2-0.3,0.2-0.5,0.2c-0.3,0-0.6-0.2-0.6-0.6C-2126.1-9972.2-2126.1-9972.2-2126.1-9972.3L-2126.1-9972.3z M-2118.3-9975.9
		c0.1,1.2-0.1,2.4-0.6,3.4c-0.4,0.8-1.2,1.2-1.9,1.1c-0.7,0.1-1.4-0.3-1.9-1.1c-0.5-1-0.7-2.1-0.6-3.2v-1.7
		c-0.1-1.2,0.1-2.3,0.6-3.3c0.4-0.8,1.2-1.2,1.9-1.1c0.7-0.1,1.4,0.3,1.9,1.1c0.5,1,0.7,2.1,0.6,3.2L-2118.3-9975.9z
		 M-2119.3-9977.7c0-0.8-0.1-1.6-0.4-2.4c-0.2-0.5-0.7-0.8-1.1-0.8c-0.5,0-0.9,0.2-1.1,0.7c-0.3,0.7-0.4,1.5-0.4,2.3v2.1
		c0,0.8,0.1,1.7,0.4,2.4c0.2,0.5,0.7,0.8,1.1,0.8c0.4,0,0.9-0.3,1.1-0.7c0.3-0.7,0.4-1.5,0.4-2.3L-2119.3-9977.7z M-2112-9975.9
		c0.1,1.2-0.1,2.4-0.6,3.4c-0.4,0.8-1.2,1.2-1.9,1.1c-0.7,0.1-1.4-0.3-1.9-1.1c-0.5-1-0.7-2.1-0.6-3.2v-1.7
		c-0.1-1.2,0.1-2.3,0.6-3.3c0.4-0.8,1.2-1.2,1.9-1.1c0.7-0.1,1.4,0.3,1.9,1.1c0.5,1,0.7,2.1,0.6,3.2L-2112-9975.9z M-2113-9977.7
		c0-0.8-0.1-1.6-0.4-2.4c-0.2-0.5-0.7-0.8-1.1-0.8c-0.5,0-0.9,0.2-1.1,0.7c-0.3,0.7-0.4,1.5-0.4,2.3v2.1c0,0.8,0.1,1.7,0.4,2.4
		c0.2,0.5,0.7,0.8,1.1,0.8c0.4,0,0.9-0.3,1.1-0.7c0.3-0.7,0.4-1.5,0.4-2.3L-2113-9977.7z M-2105.8-9975.9c0.1,1.2-0.1,2.4-0.6,3.4
		c-0.9,1.3-2.5,1.5-3.5,0.3c-0.1-0.1-0.2-0.2-0.2-0.3c-0.5-1-0.7-2.1-0.6-3.2v-1.7c-0.1-1.2,0.1-2.3,0.6-3.3
		c0.9-1.3,2.6-1.5,3.6-0.3c0.1,0.1,0.1,0.1,0.2,0.2c0.5,1,0.7,2.1,0.6,3.2L-2105.8-9975.9z M-2106.8-9977.7c0-0.8-0.1-1.6-0.4-2.4
		c-0.2-0.5-0.7-0.8-1.1-0.8c-0.5,0-0.9,0.2-1.1,0.7c-0.3,0.7-0.4,1.5-0.4,2.3v2.1c0,0.8,0.1,1.7,0.4,2.4c0.2,0.5,0.7,0.8,1.1,0.8
		c0.4,0,0.9-0.3,1.1-0.7c0.3-0.7,0.4-1.5,0.4-2.3L-2106.8-9977.7z M-2104.3-9972.3c0-0.2,0.1-0.4,0.2-0.6c0.1-0.2,0.3-0.2,0.5-0.2
		c0.2,0,0.3,0.1,0.5,0.2c0.1,0.2,0.2,0.4,0.2,0.6c0,0.2-0.1,0.4-0.2,0.5c-0.1,0.2-0.3,0.2-0.5,0.2c-0.3,0-0.6-0.2-0.6-0.6
		C-2104.3-9972.2-2104.3-9972.2-2104.3-9972.3L-2104.3-9972.3z M-2096.5-9975.9c0.1,1.2-0.1,2.4-0.6,3.4c-0.9,1.3-2.5,1.5-3.5,0.3
		c-0.1-0.1-0.2-0.2-0.2-0.3c-0.5-1-0.7-2.1-0.6-3.2v-1.7c-0.1-1.2,0.1-2.3,0.6-3.3c0.9-1.3,2.6-1.5,3.6-0.3c0.1,0.1,0.1,0.1,0.2,0.2
		c0.5,1,0.7,2.1,0.6,3.2L-2096.5-9975.9z M-2097.6-9977.7c0-0.8-0.1-1.6-0.4-2.4c-0.2-0.5-0.7-0.8-1.1-0.8c-0.5,0-0.9,0.2-1.1,0.7
		c-0.3,0.7-0.4,1.5-0.4,2.3v2.1c0,0.8,0.1,1.7,0.4,2.4c0.2,0.5,0.7,0.8,1.1,0.8c0.4,0,0.9-0.3,1.1-0.7c0.3-0.7,0.4-1.5,0.4-2.3
		L-2097.6-9977.7z M-2090.3-9975.9c0.1,1.2-0.1,2.4-0.6,3.4c-0.9,1.3-2.5,1.5-3.5,0.3c-0.1-0.1-0.2-0.2-0.2-0.3
		c-0.5-1-0.7-2.1-0.6-3.2v-1.7c-0.1-1.2,0.1-2.3,0.6-3.3c0.9-1.3,2.6-1.5,3.6-0.2c0.1,0.1,0.1,0.1,0.2,0.2c0.5,1,0.7,2.1,0.6,3.2
		L-2090.3-9975.9z M-2091.3-9977.7c0-0.8-0.1-1.6-0.4-2.4c-0.2-0.5-0.7-0.8-1.1-0.8c-0.5,0-0.9,0.2-1.1,0.7
		c-0.3,0.7-0.4,1.5-0.4,2.3v2.1c0,0.8,0.1,1.7,0.4,2.4c0.2,0.5,0.7,0.8,1.1,0.8c0.4,0,0.9-0.3,1.1-0.7c0.3-0.7,0.4-1.5,0.4-2.3
		L-2091.3-9977.7z M-2084-9975.9c0.1,1.2-0.1,2.4-0.6,3.4c-0.9,1.3-2.5,1.5-3.5,0.3c-0.1-0.1-0.2-0.2-0.2-0.3
		c-0.5-1-0.7-2.1-0.6-3.2v-1.7c-0.1-1.2,0.1-2.3,0.6-3.3c0.9-1.3,2.6-1.5,3.6-0.3c0.1,0.1,0.1,0.1,0.2,0.2c0.5,1,0.7,2.1,0.6,3.2
		L-2084-9975.9z M-2085-9977.7c0-0.8-0.1-1.6-0.4-2.4c-0.2-0.5-0.7-0.8-1.1-0.8c-0.5,0-0.9,0.2-1.1,0.7c-0.3,0.7-0.4,1.5-0.4,2.3
		v2.1c0,0.8,0.1,1.7,0.4,2.4c0.2,0.5,0.7,0.8,1.1,0.8c0.4,0,0.9-0.3,1.1-0.7c0.3-0.7,0.4-1.5,0.4-2.3V-9977.7z M-2082.6-9969.6
		l-0.6-0.5c0.3-0.5,0.5-1.2,0.5-1.9v-1.2h1v1c0,0.5-0.1,1-0.3,1.4C-2082.1-9970.3-2082.4-9969.9-2082.6-9969.6L-2082.6-9969.6z
		 M-2075.5-9975.9c0.1,1.2-0.1,2.4-0.6,3.4c-0.9,1.3-2.5,1.5-3.5,0.3c-0.1-0.1-0.2-0.2-0.2-0.3c-0.5-1-0.7-2.1-0.6-3.2v-1.7
		c-0.1-1.2,0.1-2.3,0.6-3.3c0.9-1.3,2.6-1.5,3.6-0.3c0.1,0.1,0.1,0.1,0.2,0.2c0.5,1,0.7,2.1,0.6,3.2L-2075.5-9975.9z
		 M-2076.6-9977.7c0-0.8-0.1-1.6-0.4-2.4c-0.2-0.5-0.7-0.8-1.1-0.8c-0.5,0-0.9,0.2-1.1,0.7c-0.3,0.7-0.4,1.5-0.4,2.3v2.1
		c0,0.8,0.1,1.7,0.4,2.4c0.2,0.5,0.7,0.8,1.1,0.8c0.4,0,0.9-0.2,1.1-0.7c0.3-0.7,0.4-1.5,0.4-2.3L-2076.6-9977.7z M-2069.3-9975.9
		c0.1,1.2-0.1,2.4-0.6,3.4c-0.9,1.3-2.5,1.5-3.5,0.3c-0.1-0.1-0.2-0.2-0.2-0.3c-0.5-1-0.7-2.1-0.6-3.2v-1.7
		c-0.1-1.2,0.1-2.3,0.6-3.3c0.9-1.3,2.6-1.5,3.6-0.3c0.1,0.1,0.1,0.1,0.2,0.2c0.5,1,0.7,2.1,0.6,3.2L-2069.3-9975.9z
		 M-2070.3-9977.7c0-0.8-0.1-1.6-0.4-2.4c-0.2-0.5-0.7-0.8-1.1-0.8c-0.5,0-0.9,0.2-1.1,0.7c-0.3,0.7-0.4,1.5-0.4,2.3v2.1
		c0,0.8,0.1,1.7,0.4,2.4c0.2,0.5,0.7,0.8,1.1,0.8c0.4,0,0.9-0.3,1.1-0.7c0.3-0.7,0.4-1.5,0.4-2.3V-9977.7z"/>
	<path id="Trazado_102814" class="st2" d="M-2009.1-9872.8h-1v-8.6l-2,1v-1.2l2.9-1.4h0.2V-9872.8z M-2004.7-9878.6h0.8
		c0.4,0,0.8-0.2,1.1-0.5c0.3-0.3,0.4-0.8,0.4-1.3c0.1-0.9-0.4-1.7-1-1.8c-0.1,0-0.2,0-0.3,0c-0.4,0-0.8,0.1-1,0.5
		c-0.3,0.3-0.4,0.8-0.4,1.3h-1c0-0.8,0.2-1.5,0.7-2c0.5-0.5,1.1-0.8,1.8-0.8c0.6,0,1.3,0.2,1.8,0.8c0.4,0.6,0.7,1.3,0.6,2.1
		c0,0.5-0.1,0.9-0.3,1.3c-0.2,0.4-0.5,0.7-0.9,0.9c0.4,0.1,0.8,0.5,1,0.9c0.2,0.4,0.4,1,0.4,1.5c0,0.8-0.2,1.6-0.7,2.2
		c-0.5,0.6-1.2,0.8-1.8,0.8c-0.7,0-1.3-0.2-1.8-0.8c-0.5-0.5-0.7-1.3-0.7-2h1c0,0.5,0.1,1,0.4,1.3c0.3,0.3,0.7,0.5,1.1,0.5
		c0.4,0,0.8-0.1,1.1-0.5c0.3-0.4,0.4-0.9,0.4-1.4c0-0.5-0.1-1-0.4-1.4c-0.4-0.3-0.8-0.5-1.2-0.5h-0.8L-2004.7-9878.6z
		 M-1994.9-9877.2c0.1,1.2-0.1,2.4-0.6,3.4c-0.4,0.8-1.2,1.2-1.9,1.1c-0.7,0.1-1.4-0.3-1.9-1.1c-0.5-1-0.7-2.1-0.6-3.2v-1.7
		c-0.1-1.2,0.1-2.3,0.6-3.3c0.4-0.8,1.2-1.2,1.9-1.1c0.7-0.1,1.4,0.3,1.9,1.1c0.5,1,0.7,2.1,0.6,3.2L-1994.9-9877.2z
		 M-1995.9-9878.9c0-0.8-0.1-1.6-0.4-2.4c-0.2-0.5-0.7-0.8-1.1-0.8c-0.5,0-0.9,0.2-1.1,0.7c-0.3,0.7-0.4,1.5-0.4,2.3v2.1
		c0,0.8,0.1,1.7,0.4,2.4c0.2,0.5,0.7,0.8,1.1,0.8c0.4,0,0.9-0.3,1.1-0.7c0.3-0.7,0.4-1.5,0.4-2.3L-1995.9-9878.9z M-1993.5-9873.5
		c0-0.2,0.1-0.4,0.2-0.6c0.1-0.2,0.3-0.2,0.5-0.2c0.2,0,0.3,0.1,0.5,0.2c0.1,0.2,0.2,0.4,0.2,0.6c0,0.2-0.1,0.4-0.2,0.5
		c-0.1,0.2-0.3,0.2-0.5,0.2c-0.3,0-0.6-0.2-0.6-0.6C-1993.5-9873.4-1993.5-9873.5-1993.5-9873.5L-1993.5-9873.5z M-1985.7-9877.2
		c0.1,1.2-0.1,2.4-0.6,3.4c-0.4,0.8-1.2,1.2-1.9,1.1c-0.7,0.1-1.4-0.3-1.9-1.1c-0.5-1-0.7-2.1-0.6-3.2v-1.7
		c-0.1-1.2,0.1-2.3,0.6-3.3c0.4-0.8,1.2-1.2,1.9-1.1c0.7-0.1,1.4,0.3,1.9,1.1c0.5,1,0.7,2.1,0.6,3.2L-1985.7-9877.2z
		 M-1986.7-9878.9c0-0.8-0.1-1.6-0.4-2.4c-0.2-0.5-0.7-0.8-1.1-0.8c-0.5,0-0.9,0.2-1.1,0.7c-0.3,0.7-0.4,1.5-0.4,2.3v2.1
		c0,0.8,0.1,1.7,0.4,2.4c0.2,0.5,0.7,0.8,1.1,0.8c0.4,0,0.9-0.3,1.1-0.7c0.3-0.7,0.4-1.5,0.4-2.3L-1986.7-9878.9z M-1979.4-9877.2
		c0.1,1.2-0.1,2.4-0.6,3.4c-0.4,0.8-1.2,1.2-1.9,1.1c-0.7,0.1-1.4-0.3-1.9-1.1c-0.5-1-0.7-2.1-0.6-3.2v-1.7
		c-0.1-1.2,0.1-2.3,0.6-3.3c0.4-0.8,1.2-1.2,1.9-1.1c0.7-0.1,1.4,0.3,1.9,1.1c0.5,1,0.7,2.1,0.6,3.2L-1979.4-9877.2z
		 M-1980.4-9878.9c0-0.8-0.1-1.6-0.4-2.4c-0.2-0.5-0.7-0.8-1.1-0.8c-0.5,0-0.9,0.2-1.1,0.7c-0.3,0.7-0.4,1.5-0.4,2.3v2.1
		c0,0.8,0.1,1.7,0.4,2.4c0.2,0.5,0.7,0.8,1.1,0.8c0.4,0,0.9-0.3,1.1-0.7c0.3-0.7,0.4-1.5,0.4-2.3L-1980.4-9878.9z M-1973.1-9877.2
		c0.1,1.2-0.1,2.4-0.6,3.4c-0.9,1.3-2.5,1.5-3.5,0.3c-0.1-0.1-0.2-0.2-0.2-0.3c-0.5-1-0.7-2.1-0.6-3.2v-1.7
		c-0.1-1.2,0.1-2.3,0.6-3.3c0.9-1.3,2.6-1.5,3.6-0.3c0.1,0.1,0.1,0.1,0.2,0.2c0.5,1,0.7,2.1,0.6,3.2L-1973.1-9877.2z
		 M-1974.1-9878.9c0-0.8-0.1-1.6-0.4-2.4c-0.2-0.5-0.7-0.8-1.1-0.8c-0.5,0-0.9,0.2-1.1,0.7c-0.3,0.7-0.4,1.5-0.4,2.3v2.1
		c0,0.8,0.1,1.7,0.4,2.4c0.2,0.5,0.7,0.8,1.1,0.8c0.4,0,0.9-0.3,1.1-0.7c0.3-0.7,0.4-1.5,0.4-2.3L-1974.1-9878.9z M-1971.7-9873.5
		c0-0.2,0.1-0.4,0.2-0.6c0.1-0.2,0.3-0.2,0.5-0.2c0.2,0,0.3,0.1,0.5,0.2c0.1,0.2,0.2,0.4,0.2,0.6c0,0.2-0.1,0.4-0.2,0.5
		c-0.1,0.2-0.3,0.2-0.5,0.2c-0.3,0-0.6-0.2-0.6-0.6C-1971.7-9873.4-1971.7-9873.5-1971.7-9873.5L-1971.7-9873.5z M-1963.9-9877.2
		c0.1,1.2-0.1,2.4-0.6,3.4c-0.9,1.3-2.5,1.5-3.5,0.3c-0.1-0.1-0.2-0.2-0.2-0.3c-0.5-1-0.7-2.1-0.6-3.2v-1.7
		c-0.1-1.2,0.1-2.3,0.6-3.3c0.9-1.3,2.6-1.5,3.6-0.3c0.1,0.1,0.1,0.1,0.2,0.2c0.5,1,0.7,2.1,0.6,3.2L-1963.9-9877.2z
		 M-1964.9-9878.9c0-0.8-0.1-1.6-0.4-2.4c-0.2-0.5-0.7-0.8-1.1-0.8c-0.5,0-0.9,0.2-1.1,0.7c-0.3,0.7-0.4,1.5-0.4,2.3v2.1
		c0,0.8,0.1,1.7,0.4,2.4c0.2,0.5,0.7,0.8,1.1,0.8c0.4,0,0.9-0.3,1.1-0.7c0.3-0.7,0.4-1.5,0.4-2.3L-1964.9-9878.9z M-1957.6-9877.2
		c0.1,1.2-0.1,2.4-0.6,3.4c-0.9,1.3-2.5,1.5-3.5,0.3c-0.1-0.1-0.2-0.2-0.2-0.3c-0.5-1-0.7-2.1-0.6-3.2v-1.7
		c-0.1-1.2,0.1-2.3,0.6-3.3c0.9-1.3,2.6-1.5,3.6-0.2c0.1,0.1,0.1,0.1,0.2,0.2c0.5,1,0.7,2.1,0.6,3.2L-1957.6-9877.2z
		 M-1958.7-9878.9c0-0.8-0.1-1.6-0.4-2.4c-0.2-0.5-0.7-0.8-1.1-0.8c-0.5,0-0.9,0.2-1.1,0.7c-0.3,0.7-0.4,1.5-0.4,2.3v2.1
		c0,0.8,0.1,1.7,0.4,2.4c0.2,0.5,0.7,0.8,1.1,0.8c0.4,0,0.9-0.3,1.1-0.7c0.3-0.7,0.4-1.5,0.4-2.3L-1958.7-9878.9z M-1951.4-9877.2
		c0.1,1.2-0.1,2.4-0.6,3.4c-0.9,1.3-2.5,1.5-3.5,0.3c-0.1-0.1-0.2-0.2-0.2-0.3c-0.5-1-0.7-2.1-0.6-3.2v-1.7
		c-0.1-1.2,0.1-2.3,0.6-3.3c0.9-1.3,2.6-1.5,3.6-0.3c0.1,0.1,0.1,0.1,0.2,0.2c0.5,1,0.7,2.1,0.6,3.2L-1951.4-9877.2z
		 M-1952.4-9878.9c0-0.8-0.1-1.6-0.4-2.4c-0.2-0.5-0.7-0.8-1.1-0.8c-0.5,0-0.9,0.2-1.1,0.7c-0.3,0.7-0.4,1.5-0.4,2.3v2.1
		c0,0.8,0.1,1.7,0.4,2.4c0.2,0.5,0.7,0.8,1.1,0.8c0.4,0,0.9-0.3,1.1-0.7c0.3-0.7,0.4-1.5,0.4-2.3V-9878.9z M-1950-9870.8l-0.6-0.5
		c0.3-0.5,0.5-1.2,0.5-1.9v-1.2h1v1c0,0.5-0.1,1-0.3,1.4C-1949.5-9871.5-1949.7-9871.1-1950-9870.8L-1950-9870.8z M-1942.9-9877.2
		c0.1,1.2-0.1,2.4-0.6,3.4c-0.9,1.3-2.5,1.5-3.5,0.3c-0.1-0.1-0.2-0.2-0.2-0.3c-0.5-1-0.7-2.1-0.6-3.2v-1.7
		c-0.1-1.2,0.1-2.3,0.6-3.3c0.9-1.3,2.6-1.5,3.6-0.3c0.1,0.1,0.1,0.1,0.2,0.2c0.5,1,0.7,2.1,0.6,3.2L-1942.9-9877.2z
		 M-1943.9-9878.9c0-0.8-0.1-1.6-0.4-2.4c-0.2-0.5-0.7-0.8-1.1-0.8c-0.5,0-0.9,0.2-1.1,0.7c-0.3,0.7-0.4,1.5-0.4,2.3v2.1
		c0,0.8,0.1,1.7,0.4,2.4c0.2,0.5,0.7,0.8,1.1,0.8c0.4,0,0.9-0.3,1.1-0.7c0.3-0.7,0.4-1.5,0.4-2.3L-1943.9-9878.9z M-1936.6-9877.2
		c0.1,1.2-0.1,2.4-0.6,3.4c-0.9,1.3-2.5,1.5-3.5,0.3c-0.1-0.1-0.2-0.2-0.2-0.3c-0.5-1-0.7-2.1-0.6-3.2v-1.7
		c-0.1-1.2,0.1-2.3,0.6-3.3c0.9-1.3,2.6-1.5,3.6-0.3c0.1,0.1,0.1,0.1,0.2,0.2c0.5,1,0.7,2.1,0.6,3.2L-1936.6-9877.2z
		 M-1937.6-9878.9c0-0.8-0.1-1.7-0.4-2.4c-0.2-0.5-0.7-0.8-1.1-0.8c-0.5,0-0.9,0.2-1.1,0.7c-0.3,0.7-0.4,1.5-0.4,2.3v2.1
		c0,0.8,0.1,1.7,0.4,2.4c0.2,0.5,0.7,0.8,1.1,0.8c0.4,0,0.9-0.2,1.1-0.7c0.3-0.7,0.4-1.5,0.4-2.3V-9878.9z"/>
	<line id="Línea_184" class="st3" x1="-2162.4" y1="-10042.7" x2="-2162.4" y2="-9852.2"/>
	<line id="Línea_185" class="st3" x1="-2043.1" y1="-10042.7" x2="-2043.1" y2="-9852.2"/>
	<path id="Trazado_99548" class="st4" d="M-2319.5-10097h400v54.3h-400V-10097z"/>
	<path id="Trazado_102808" class="st1" d="M-2274.1-10069.4c0,1-0.3,2-0.7,2.8c-0.4,0.8-1,1.5-1.7,1.9c-0.8,0.5-1.7,0.7-2.5,0.7
		c-1.4,0.1-2.8-0.6-3.7-2c-1-1.6-1.4-3.5-1.4-5.5v-0.8c0-1.4,0.2-2.7,0.6-3.9c0.4-1.1,1-2,1.8-2.6c0.8-0.6,1.7-0.9,2.7-0.9
		c1.3-0.1,2.5,0.4,3.5,1.5c0.9,1,1.4,2.5,1.5,4h-2.9c0-0.7-0.2-1.5-0.5-2c-0.4-0.4-1-0.7-1.6-0.6c-0.6-0.1-1.2,0.3-1.6,1
		c-0.4,1-0.6,2.1-0.5,3.3v1.1c-0.1,1.2,0.1,2.4,0.5,3.5c0.4,0.7,1,1.1,1.6,1c0.5,0,1.1-0.2,1.5-0.6c0.4-0.5,0.6-1.2,0.6-1.9
		L-2274.1-10069.4z M-2263.4-10079.5v10c0,1-0.2,2-0.6,2.9c-0.4,0.8-0.9,1.5-1.6,1.9c-0.8,0.5-1.6,0.7-2.5,0.7
		c-1.2,0.1-2.5-0.4-3.4-1.4c-0.9-1-1.3-2.5-1.3-4v-10.1h2.9v10.1c0,1.7,0.6,2.5,1.8,2.5c0.5,0,1-0.2,1.4-0.6c0.3-0.6,0.5-1.3,0.5-2
		v-10H-2263.4z M-2254.2-10070.7h-4.5v3.6h5.3v2.8h-8.2v-15.3h8.2v2.8h-5.4v3.2h4.5L-2254.2-10070.7z M-2242.3-10064.2h-2.9
		l-4.2-9.5v9.5h-2.9v-15.3h2.9l4.2,9.5v-9.5h2.9L-2242.3-10064.2z M-2231.1-10076.6h-3.6v12.4h-2.9v-12.4h-3.5v-2.8h10
		L-2231.1-10076.6z M-2224.1-10067h-3.9l-0.7,2.9h-3.1l4.4-15.3h2.7l4.4,15.3h-3.1L-2224.1-10067z M-2227.3-10069.9h2.6l-1.3-5.3
		L-2227.3-10069.9z"/>
	<path id="Trazado_102809" class="st1" d="M-2154.6-10062.3v-15.3h3.8c1,0,2,0.3,2.8,0.9c0.8,0.6,1.5,1.5,2,2.6
		c0.5,1.2,0.7,2.4,0.7,3.7v0.7c0,1.3-0.2,2.6-0.7,3.8c-0.4,1.1-1.1,2-1.9,2.6c-0.9,0.6-1.8,1-2.8,1H-2154.6z M-2151.7-10074.7v9.6h1
		c0.7,0.1,1.5-0.4,1.9-1.1c0.5-1,0.7-2.2,0.7-3.3v-0.7c0.1-1.2-0.2-2.3-0.7-3.3c-0.5-0.8-1.2-1.2-1.9-1.1H-2151.7z M-2136.4-10068.7
		h-4.5v3.6h5.3v2.8h-8.2v-15.3h8.2v2.8h-5.4v3.2h4.5V-10068.7z M-2139-10081.6h2.9l-2.3,3.3l-2.2,0L-2139-10081.6z M-2134.4-10062.3
		v-15.3h4.3c1.2-0.1,2.4,0.3,3.5,1.1c0.8,0.7,1.2,1.9,1.2,3.1c0,0.7-0.1,1.4-0.4,2c-0.3,0.6-0.7,1-1.3,1.2c0.6,0.2,1.1,0.6,1.4,1.2
		c0.3,0.6,0.5,1.3,0.5,2.1c0.1,1.3-0.3,2.5-1.1,3.4c-1,0.8-2.1,1.2-3.3,1.1H-2134.4z M-2131.5-10068.7v3.7h1.9
		c0.4,0,0.9-0.1,1.2-0.5c0.3-0.3,0.4-0.8,0.4-1.3c0.1-0.9-0.4-1.8-1.1-1.9c-0.1,0-0.2,0-0.4,0H-2131.5z M-2131.5-10071.2h1.5
		c0.5,0,0.9-0.1,1.3-0.4c0.3-0.3,0.4-0.8,0.4-1.3c0-0.5-0.1-1-0.4-1.4c-0.4-0.3-0.9-0.5-1.4-0.4h-1.4L-2131.5-10071.2z
		 M-2120.5-10062.3h-2.9v-15.3h2.9V-10062.3z M-2109.2-10074.7h-3.6v12.4h-2.9v-12.4h-3.5v-2.8h10V-10074.7z M-2098.1-10069.6
		c0,1.4-0.2,2.7-0.6,4c-0.4,1.1-1,2-1.8,2.7c-0.8,0.6-1.8,0.9-2.7,0.9c-0.9,0-1.9-0.3-2.7-0.9c-0.8-0.6-1.4-1.5-1.8-2.6
		c-0.5-1.2-0.7-2.5-0.7-3.8v-0.9c0-1.4,0.2-2.7,0.6-4c0.4-1.1,1-2,1.8-2.6c0.8-0.6,1.8-1,2.7-0.9c0.9,0,1.9,0.3,2.7,0.9
		c0.8,0.6,1.4,1.5,1.8,2.6c0.5,1.2,0.7,2.6,0.7,3.9V-10069.6z M-2101-10070.2c0.1-1.2-0.1-2.4-0.6-3.5c-0.4-0.8-1-1.2-1.7-1.2
		c-1.4,0-2.2,1.4-2.3,4.2l0,1.1c-0.1,1.2,0.1,2.4,0.6,3.4c0.4,0.8,1,1.2,1.7,1.2c0.7,0,1.3-0.4,1.7-1.2c0.4-1,0.6-2.2,0.6-3.4
		L-2101-10070.2z M-2090.5-10066.3c0-0.5-0.1-1-0.4-1.3c-0.5-0.4-1-0.7-1.6-0.9c-0.6-0.3-1.2-0.6-1.8-0.9c-1.5-1-2.3-2.3-2.3-4
		c0-0.8,0.2-1.6,0.6-2.2c0.4-0.7,1-1.2,1.6-1.5c0.8-0.4,1.6-0.6,2.4-0.5c0.8,0,1.6,0.2,2.3,0.6c0.6,0.3,1.2,0.9,1.6,1.7
		c0.4,0.7,0.6,1.6,0.6,2.5h-2.9c0-0.5-0.1-1.1-0.4-1.4c-0.3-0.4-0.8-0.5-1.2-0.5c-0.4,0-0.9,0.1-1.2,0.4c-0.3,0.3-0.4,0.7-0.4,1.1
		c0,0.4,0.2,0.8,0.5,1.1c0.5,0.4,1.1,0.8,1.7,1c0.7,0.3,1.4,0.6,2,1.1c1.2,0.7,1.9,2.3,1.9,3.9c0,1.2-0.4,2.4-1.2,3.1
		c-0.9,0.8-2.1,1.2-3.2,1.1c-0.9,0-1.8-0.2-2.6-0.7c-0.7-0.4-1.3-1-1.8-1.8c-0.4-0.8-0.6-1.7-0.6-2.7h2.9c0,0.7,0.1,1.3,0.5,1.8
		c0.5,0.4,1,0.6,1.6,0.6c0.4,0,0.8-0.1,1.1-0.4C-2090.6-10065.5-2090.4-10065.9-2090.5-10066.3z"/>
	<path id="Trazado_102810" class="st1" d="M-2018.6-10067.6c0,1-0.3,2-0.7,2.8c-0.4,0.8-1,1.5-1.7,1.9c-0.8,0.5-1.7,0.7-2.5,0.7
		c-1.4,0.1-2.8-0.6-3.7-2c-1-1.6-1.4-3.5-1.4-5.5v-0.8c0-1.3,0.2-2.7,0.6-3.9c0.4-1.1,1-2,1.8-2.6c0.8-0.6,1.7-0.9,2.7-0.9
		c1.3-0.1,2.5,0.4,3.5,1.5c0.9,1,1.4,2.5,1.5,4h-2.9c0-0.7-0.2-1.5-0.5-2c-0.4-0.4-1-0.7-1.6-0.6c-0.6-0.1-1.2,0.3-1.6,1
		c-0.4,1-0.6,2.1-0.5,3.3v1.1c-0.1,1.2,0.1,2.4,0.5,3.5c0.4,0.7,1,1.1,1.6,1c0.5,0,1.1-0.2,1.5-0.6c0.4-0.5,0.6-1.2,0.6-1.9
		L-2018.6-10067.6z M-2012.8-10067.8h-1.6v5.4h-2.9v-15.3h4.7c1.2-0.1,2.3,0.3,3.3,1.2c0.8,0.8,1.2,2.1,1.2,3.4
		c0,0.9-0.1,1.8-0.5,2.6c-0.4,0.8-0.9,1.3-1.6,1.7l2.5,6.2v0.2h-3.1L-2012.8-10067.8z M-2014.3-10070.6h1.8c0.5,0,0.9-0.2,1.2-0.6
		c0.3-0.4,0.4-1,0.4-1.5c0-0.6-0.1-1.1-0.4-1.6c-0.3-0.4-0.8-0.6-1.2-0.6h-1.8L-2014.3-10070.6z M-1998.9-10068.9h-4.5v3.6h5.3v2.8
		h-8.2v-15.3h8.2v2.8h-5.4v3.2h4.5L-1998.9-10068.9z M-2001.6-10081.8h2.9l-2.3,3.3l-2.2,0L-2001.6-10081.8z M-1996.9-10062.4v-15.3
		h3.8c1,0,2,0.3,2.8,0.9c0.8,0.6,1.5,1.5,2,2.6c0.5,1.2,0.7,2.4,0.7,3.7v0.7c0,1.3-0.2,2.6-0.7,3.8c-0.4,1.1-1.1,2-1.9,2.6
		c-0.9,0.6-1.8,1-2.8,0.9H-1996.9z M-1994-10074.8v9.6h1c0.7,0.1,1.5-0.4,1.9-1.1c0.5-1,0.7-2.2,0.7-3.4v-0.7
		c0.1-1.2-0.2-2.3-0.7-3.3c-0.5-0.8-1.2-1.2-1.9-1.1H-1994z M-1983-10062.4h-2.9v-15.3h2.9V-10062.4z M-1971.7-10074.8h-3.6v12.4
		h-2.9v-12.4h-3.5v-2.8h10V-10074.8z M-1960.6-10069.7c0,1.4-0.2,2.7-0.6,4c-0.4,1.1-1,2-1.8,2.7c-0.8,0.6-1.8,0.9-2.7,0.9
		c-0.9,0-1.9-0.3-2.7-0.9c-0.8-0.6-1.4-1.5-1.8-2.6c-0.5-1.2-0.7-2.5-0.7-3.8v-0.9c0-1.4,0.2-2.7,0.6-4c0.4-1.1,1-2,1.8-2.6
		c0.8-0.6,1.8-1,2.7-0.9c0.9,0,1.9,0.3,2.7,0.9c0.8,0.6,1.4,1.5,1.8,2.6c0.5,1.2,0.7,2.6,0.7,3.9V-10069.7z M-1963.5-10070.4
		c0.1-1.2-0.1-2.4-0.6-3.5c-0.4-0.8-1-1.2-1.7-1.2c-1.4,0-2.2,1.4-2.3,4.2l0,1.1c-0.1,1.2,0.1,2.4,0.6,3.4c0.4,0.8,1,1.2,1.7,1.2
		c0.7,0,1.3-0.4,1.7-1.2c0.4-1,0.6-2.2,0.6-3.4V-10070.4z M-1953-10066.5c0-0.5-0.1-1-0.4-1.3c-0.5-0.4-1-0.7-1.6-0.9
		c-0.6-0.3-1.2-0.6-1.8-0.9c-1.5-1-2.3-2.3-2.3-4c0-0.8,0.2-1.6,0.6-2.2c0.4-0.7,1-1.2,1.6-1.5c0.8-0.4,1.6-0.6,2.4-0.5
		c0.8,0,1.6,0.2,2.3,0.6c0.6,0.4,1.2,0.9,1.6,1.7c0.4,0.7,0.6,1.6,0.6,2.5h-2.9c0-0.5-0.1-1.1-0.4-1.4c-0.3-0.4-0.8-0.5-1.2-0.5
		c-0.4,0-0.9,0.1-1.2,0.4c-0.3,0.3-0.4,0.7-0.4,1.1c0,0.4,0.2,0.8,0.5,1.1c0.5,0.4,1.1,0.8,1.7,1c0.7,0.3,1.4,0.6,2,1.1
		c1.2,0.7,1.9,2.3,1.9,3.9c0,1.2-0.4,2.4-1.2,3.1c-1,0.8-2.1,1.2-3.2,1.1c-0.9,0-1.8-0.2-2.6-0.7c-0.7-0.4-1.3-1-1.8-1.8
		c-0.4-0.8-0.6-1.7-0.6-2.7h2.9c0,0.7,0.1,1.3,0.5,1.8c0.5,0.4,1,0.6,1.6,0.6c0.4,0,0.8-0.1,1.1-0.4
		C-1953.1-10065.6-1953-10066-1953-10066.5z"/>
</g>
</svg>
