<svg xmlns="http://www.w3.org/2000/svg" width="1227" height="448" viewBox="0 0 1227 448">
  <g id="Grupo_54998" data-name="Grupo 54998" transform="translate(-187 -237.748)">
    <g id="Trazado_102774" data-name="Trazado 102774" transform="translate(187 237.748)" fill="#f3f9ff">
      <path d="M 1226.5 447.5 L 0.5 447.5 L 0.5 0.5 L 1226.5 0.5 L 1226.5 447.5 Z" stroke="none"/>
      <path d="M 1 1 L 1 447 L 1226 447 L 1226 1 L 1 1 M 0 0 L 1227 0 L 1227 448 L 0 448 L 0 0 Z" stroke="none" fill="#e8e8e8"/>
    </g>
    <g id="Grupo_54970" data-name="Grupo 54970" transform="translate(2920 10399.459)">
      <rect id="Rectángulo_5442" data-name="Rectángulo 5442" width="573" height="150.491" transform="translate(-2406 -10051.035)" fill="#f6f6f6"/>
      <rect id="Rectángulo_5443" data-name="Rectángulo 5443" width="573" height="69.745" transform="translate(-2406 -9902.034)" fill="#fff"/>
      <text id="Bancos" transform="translate(-2384 -9867.166)" fill="#12263f" font-size="18" font-family="Roboto-Black, Roboto" font-weight="800"><tspan x="0" y="19">Bancos</tspan></text>
      <text id="Inversiones_financieras_a_largo_plazo_en_instrumentos_de_patrimonio" data-name="Inversiones financieras a largo plazo en instrumentos de patrimonio" transform="translate(-2384 -10029.035)" fill="#12263f" font-size="18" font-family="Roboto-Black, Roboto" font-weight="800"><tspan x="0" y="19">Inversiones </tspan><tspan x="0" y="46">financieras a largo </tspan><tspan x="0" y="73">plazo en instrumentos </tspan><tspan x="0" y="100">de patrimonio</tspan></text>
      <text id="_130.000.000_00" data-name="130.000.000,00" transform="translate(-2157.035 -9988.535)" fill="#12263f" font-size="16" font-family="Roboto-Regular, Roboto"><tspan x="0" y="17">130.000.000,00</tspan></text>
      <text id="_130.000.000_00-2" data-name="130.000.000,00" transform="translate(-1967.035 -9878.166)" fill="#12263f" font-size="16" font-family="Roboto-Regular, Roboto"><tspan x="0" y="17">130.000.000,00</tspan></text>
      <line id="Línea_184" data-name="Línea 184" y2="212.95" transform="translate(-2181 -10051.039)" fill="none" stroke="#afafaf" stroke-linecap="round" stroke-width="1"/>
      <line id="Línea_185" data-name="Línea 185" y2="212.95" transform="translate(-2010 -10051.035)" fill="none" stroke="#afafaf" stroke-linecap="round" stroke-width="1"/>
      <path id="Trazado_99548" data-name="Trazado 99548" d="M0,0H572.931V60.672H0Z" transform="translate(-2406 -10111.711)" fill="#d9a171"/>
      <text id="CUENTA" transform="translate(-2310 -10075.035)" fill="#fff" font-size="24" font-family="Roboto-Black, Roboto" font-weight="800"><tspan x="-46.025" y="0">CUENTA</tspan></text>
      <text id="DÉBITOS" transform="translate(-2122 -10072.875)" fill="#fff" font-size="24" font-family="Roboto-Black, Roboto" font-weight="800"><tspan x="-49.031" y="0">DÉBITOS</tspan></text>
      <text id="CRÉDITOS" transform="translate(-1933 -10073.035)" fill="#fff" font-size="24" font-family="Roboto-Black, Roboto" font-weight="800"><tspan x="-56.994" y="0">CRÉDITOS</tspan></text>
    </g>
  </g>
</svg>
