<?xml version="1.0" encoding="utf-8"?>
<!-- Generator: Adobe Illustrator 25.2.3, SVG Export Plug-In . SVG Version: 6.00 Build 0)  -->
<svg version="1.1" id="Capa_1" xmlns="http://www.w3.org/2000/svg" xmlns:xlink="http://www.w3.org/1999/xlink" x="0px" y="0px"
	 viewBox="0 0 573 319.9" style="enable-background:new 0 0 573 319.9;" xml:space="preserve">
<style type="text/css">
	.st0{fill:#F6F6F6;}
	.st1{fill:#FFFFFF;}
	.st2{fill:#12263F;}
	.st3{fill:none;stroke:#AFAFAF;stroke-linecap:round;}
	.st4{fill:#D9A171;}
</style>
<g id="Grupo_54975" transform="translate(2406 9686.711)">
	<rect id="Rectángulo_5446" x="-2319.5" y="-9604.5" class="st0" width="400" height="95.9"/>
	<rect id="Rectángulo_5447" x="-2319.5" y="-9511.4" class="st1" width="400" height="105.5"/>
	<path id="Trazado_102818" class="st2" d="M-2301.3-9575.8v3.4h-2.2v-10h3.6c0.6,0,1.2,0.1,1.8,0.4c0.5,0.3,0.9,0.7,1.2,1.2
		c0.3,0.5,0.4,1.1,0.4,1.8c0,0.9-0.3,1.8-0.9,2.3c-0.7,0.6-1.6,0.9-2.6,0.9L-2301.3-9575.8z M-2301.3-9577.7h1.4
		c0.3,0,0.7-0.1,1-0.4c0.2-0.3,0.3-0.6,0.3-1c0-0.4-0.1-0.8-0.3-1.1c-0.2-0.3-0.6-0.4-0.9-0.4h-1.4V-9577.7z M-2292.2-9572.3
		c-0.9,0-1.8-0.3-2.5-1c-0.6-0.7-1-1.7-0.9-2.7v-0.2c0-0.7,0.1-1.4,0.4-2c0.2-0.6,0.6-1,1.1-1.4c0.5-0.3,1.1-0.5,1.7-0.5
		c0.8,0,1.6,0.3,2.2,1c0.6,0.8,0.9,1.7,0.8,2.7v0.9h-4.1c0.1,0.4,0.2,0.7,0.5,1c0.3,0.2,0.6,0.4,1,0.4c0.6,0,1.2-0.3,1.5-0.8
		l0.9,1.3c-0.3,0.4-0.7,0.8-1.1,1C-2291.1-9572.4-2291.6-9572.3-2292.2-9572.3L-2292.2-9572.3z M-2292.4-9578.2
		c-0.6,0-1,0.4-1.1,1.3h2.1v-0.2c0-0.3-0.1-0.6-0.3-0.9C-2291.9-9578.1-2292.1-9578.2-2292.4-9578.2z M-2292.4-9583h2.2l-1.7,2.2
		h-1.7L-2292.4-9583z M-2284.5-9577.8l-0.7-0.1c-0.5-0.1-1,0.2-1.3,0.7v4.7h-2.1v-7.4h1.9l0.1,1c0.2-0.7,0.8-1.1,1.5-1.1
		c0.2,0,0.4,0,0.6,0.1L-2284.5-9577.8z M-2284-9576.2c0-1,0.2-2,0.7-2.8c0.4-0.7,1.2-1.1,1.9-1c0.6,0,1.1,0.3,1.5,0.8v-3.8h2.1v10.6
		h-1.9l-0.1-0.8c-0.4,0.6-1,0.9-1.6,0.9c-0.7,0-1.4-0.4-1.9-1C-2283.9-9574.2-2284.1-9575.2-2284-9576.2L-2284-9576.2z
		 M-2282-9576.1c0,1.3,0.3,2,1,2c0.4,0,0.8-0.2,1-0.6v-2.8c-0.2-0.4-0.6-0.7-1-0.7c-0.6,0-1,0.6-1,1.7L-2282-9576.1z
		 M-2274.5-9572.4h-2.1v-7.4h2.1V-9572.4z M-2276.7-9581.8c0-0.3,0.1-0.6,0.3-0.8c0.5-0.4,1.2-0.4,1.7,0c0.2,0.2,0.3,0.5,0.3,0.8
		c0,0.3-0.1,0.6-0.3,0.8c-0.5,0.4-1.2,0.4-1.7,0C-2276.6-9581.2-2276.7-9581.5-2276.7-9581.8z M-2273.5-9576.2c0-1,0.2-2,0.7-2.8
		c0.4-0.7,1.2-1.1,1.9-1c0.6,0,1.1,0.3,1.5,0.8v-3.8h2.1v10.6h-1.9l-0.1-0.8c-0.4,0.6-1,0.9-1.6,0.9c-0.7,0-1.4-0.4-1.9-1
		C-2273.3-9574.2-2273.6-9575.2-2273.5-9576.2L-2273.5-9576.2z M-2271.4-9576.1c0,1.3,0.3,2,1,2c0.4,0,0.8-0.2,1-0.6v-2.8
		c-0.2-0.4-0.6-0.7-1-0.7c-0.6,0-1,0.6-1,1.7L-2271.4-9576.1z M-2262.5-9572.4c-0.1-0.2-0.2-0.4-0.2-0.7c-0.4,0.5-1,0.8-1.6,0.8
		c-0.6,0-1.2-0.2-1.6-0.6c-0.4-0.4-0.7-1-0.7-1.6c0-0.7,0.3-1.4,0.8-1.8c0.7-0.5,1.5-0.7,2.3-0.6h0.6v-0.4c0-0.7-0.3-1-0.8-1
		c-0.4-0.1-0.7,0.2-0.7,0.6c0,0.1,0,0.1,0,0.2h-2.1c0-0.7,0.3-1.4,0.8-1.8c0.6-0.5,1.3-0.7,2.1-0.7c0.7,0,1.4,0.2,2,0.7
		c0.5,0.5,0.8,1.2,0.8,1.9v3.3c0,0.5,0.1,1.1,0.3,1.6v0.1H-2262.5z M-2263.7-9574c0.2,0,0.4-0.1,0.6-0.2c0.2-0.1,0.3-0.2,0.4-0.4
		v-1.2h-0.6c-0.7,0-1.1,0.4-1.1,1.1c0,0.2,0.1,0.4,0.2,0.5C-2264.1-9574-2263.9-9573.9-2263.7-9574L-2263.7-9574z M-2256-9574.5
		c0-0.2-0.1-0.4-0.3-0.5c-0.3-0.2-0.7-0.3-1-0.4c-0.4-0.1-0.9-0.3-1.3-0.5c-0.3-0.2-0.6-0.4-0.8-0.8c-0.2-0.3-0.3-0.7-0.3-1
		c0-0.7,0.3-1.3,0.8-1.7c0.6-0.5,1.3-0.7,2-0.7c0.7,0,1.5,0.2,2.1,0.7c0.5,0.4,0.8,1.1,0.8,1.8h-2.1c0-0.6-0.3-0.9-0.8-0.9
		c-0.2,0-0.4,0.1-0.5,0.2c-0.1,0.1-0.2,0.3-0.2,0.5c0,0.2,0.1,0.4,0.3,0.5c0.3,0.2,0.6,0.3,0.9,0.3c0.4,0.1,0.7,0.2,1,0.3
		c0.9,0.2,1.5,1.1,1.5,2.1c0,0.7-0.3,1.3-0.8,1.7c-0.6,0.5-1.4,0.7-2.1,0.6c-0.5,0-1-0.1-1.5-0.3c-0.4-0.2-0.8-0.5-1-0.9
		c-0.2-0.4-0.4-0.8-0.4-1.2h1.9c0,0.3,0.1,0.6,0.3,0.8c0.2,0.2,0.5,0.2,0.8,0.2c0.2,0,0.4,0,0.6-0.2
		C-2256.1-9574.1-2256-9574.3-2256-9574.5L-2256-9574.5z M-2250.2-9576.2c0-1,0.2-2,0.7-2.8c0.4-0.7,1.2-1.1,1.9-1
		c0.6,0,1.1,0.3,1.5,0.8v-3.8h2.1v10.6h-1.9l-0.1-0.8c-0.4,0.6-1,0.9-1.6,0.9c-0.7,0-1.4-0.4-1.9-1
		C-2250-9574.2-2250.3-9575.2-2250.2-9576.2L-2250.2-9576.2z M-2248.1-9576.1c0,1.3,0.3,2,1,2c0.4,0,0.8-0.2,1-0.6v-2.8
		c-0.2-0.4-0.6-0.7-1-0.7c-0.6,0-1,0.6-1,1.7L-2248.1-9576.1z M-2239.7-9572.3c-0.9,0-1.8-0.3-2.5-1c-0.6-0.7-1-1.7-0.9-2.7v-0.2
		c0-0.7,0.1-1.4,0.4-2c0.2-0.6,0.6-1,1.1-1.4c0.5-0.3,1.1-0.5,1.7-0.5c0.8,0,1.6,0.3,2.2,1c0.6,0.8,0.9,1.7,0.8,2.7v0.9h-4.1
		c0.1,0.4,0.2,0.7,0.5,1c0.3,0.2,0.6,0.4,1,0.4c0.6,0,1.2-0.3,1.5-0.8l0.9,1.3c-0.3,0.4-0.7,0.8-1.1,1
		C-2238.6-9572.4-2239.2-9572.3-2239.7-9572.3L-2239.7-9572.3z M-2239.9-9578.2c-0.6,0-1,0.4-1.1,1.3h2.1v-0.2
		c0-0.3-0.1-0.6-0.3-0.9C-2239.4-9578.1-2239.6-9578.2-2239.9-9578.2z M-2303.8-9555.1c0-1,0.2-2,0.7-2.8c0.4-0.7,1.2-1.1,1.9-1
		c0.6,0,1.1,0.3,1.5,0.8v-3.8h2.1v10.6h-1.9l-0.1-0.8c-0.4,0.6-1,0.9-1.6,0.9c-0.7,0-1.4-0.4-1.9-1
		C-2303.6-9553-2303.9-9554.1-2303.8-9555.1z M-2301.8-9554.9c0,1.3,0.3,2,1,2c0.4,0,0.8-0.2,1-0.6v-2.8c-0.2-0.4-0.6-0.7-1-0.7
		c-0.6,0-1,0.6-1,1.7L-2301.8-9554.9z M-2294.3-9551.3h-2.1v-7.4h2.1V-9551.3z M-2296.5-9560.7c0-0.3,0.1-0.6,0.3-0.8
		c0.2-0.2,0.5-0.3,0.8-0.3c0.3,0,0.6,0.1,0.8,0.3c0.4,0.4,0.4,1.1,0.1,1.6c0,0,0,0-0.1,0.1c-0.2,0.2-0.5,0.3-0.8,0.3
		c-0.3,0-0.6-0.1-0.8-0.3C-2296.4-9560.1-2296.5-9560.4-2296.5-9560.7z M-2289.6-9553.4c0-0.2-0.1-0.4-0.3-0.5
		c-0.3-0.2-0.7-0.3-1-0.4c-0.4-0.1-0.9-0.3-1.3-0.5c-0.3-0.2-0.6-0.4-0.8-0.8c-0.2-0.3-0.3-0.7-0.3-1c0-0.7,0.3-1.3,0.8-1.7
		c0.6-0.5,1.3-0.7,2-0.7c0.7,0,1.5,0.2,2.1,0.7c0.5,0.4,0.8,1.1,0.8,1.8h-2.1c0-0.6-0.3-0.9-0.8-0.9c-0.2,0-0.4,0.1-0.5,0.2
		c-0.1,0.1-0.2,0.3-0.2,0.5c0,0.2,0.1,0.4,0.3,0.5c0.3,0.2,0.6,0.3,0.9,0.3c0.4,0.1,0.7,0.2,1,0.3c0.9,0.2,1.5,1.1,1.5,2.1
		c0,0.7-0.3,1.3-0.8,1.7c-0.6,0.5-1.4,0.7-2.1,0.6c-0.5,0-1-0.1-1.5-0.3c-0.4-0.2-0.8-0.5-1-0.9c-0.2-0.4-0.4-0.8-0.4-1.2h1.9
		c0,0.3,0.1,0.6,0.3,0.8c0.2,0.2,0.5,0.2,0.8,0.2c0.2,0,0.4,0,0.6-0.2C-2289.6-9553-2289.6-9553.2-2289.6-9553.4z M-2280.4-9555
		c0,1-0.2,2-0.7,2.8c-0.4,0.7-1.1,1.1-1.9,1c-0.6,0-1.1-0.3-1.5-0.8v3.5h-2.1v-10.3h1.9l0.1,0.7c0.4-0.5,1-0.8,1.6-0.8
		c0.7,0,1.5,0.3,1.9,1c0.5,0.8,0.7,1.8,0.7,2.8L-2280.4-9555z M-2282.5-9555.1c0-1.3-0.3-2-1-2c-0.4-0.1-0.8,0.2-1,0.6v2.9
		c0.2,0.4,0.6,0.7,1,0.6c0.7,0,1-0.6,1-1.9V-9555.1z M-2279.8-9555.1c0-0.7,0.1-1.4,0.4-2c0.2-0.6,0.6-1,1.1-1.3
		c0.5-0.3,1.1-0.5,1.7-0.5c0.9-0.1,1.7,0.3,2.3,1c0.6,0.8,0.9,1.8,0.9,2.8v0.1c0,1-0.3,2-0.9,2.8c-0.6,0.7-1.5,1.1-2.3,1
		c-0.8,0-1.7-0.3-2.3-1c-0.6-0.7-0.9-1.6-0.9-2.6L-2279.8-9555.1z M-2277.7-9554.9c0,0.5,0.1,1,0.3,1.5c0.2,0.3,0.5,0.5,0.9,0.5
		c0.7,0,1.1-0.6,1.1-1.9v-0.2c0-1.3-0.4-2-1.1-2c-0.7,0-1.1,0.6-1.1,1.7L-2277.7-9554.9z M-2270.6-9558.7l0.1,0.9
		c0.4-0.7,1.2-1,1.9-1c0.6,0,1.2,0.2,1.5,0.7c0.4,0.6,0.6,1.3,0.5,2.1v4.8h-2.1v-4.7c0-0.3,0-0.6-0.2-0.8c-0.2-0.2-0.5-0.3-0.7-0.3
		c-0.4,0-0.7,0.2-0.9,0.5v5.3h-2.1v-7.4H-2270.6z M-2263.2-9551.3h-2.1v-7.4h2.1V-9551.3z M-2265.4-9560.7c0-0.3,0.1-0.6,0.3-0.8
		c0.5-0.4,1.2-0.4,1.7,0c0.4,0.4,0.4,1.1,0.1,1.6c0,0,0,0-0.1,0.1c-0.5,0.4-1.2,0.4-1.7,0
		C-2265.3-9560.1-2265.4-9560.4-2265.4-9560.7z M-2255.8-9555c0.1,1-0.2,2-0.7,2.8c-0.5,0.7-1.2,1-1.9,1c-0.6,0-1.3-0.3-1.6-0.9
		l-0.1,0.8h-1.9v-10.6h2.1v3.7c0.4-0.5,0.9-0.8,1.5-0.7c0.7,0,1.5,0.3,1.9,1c0.5,0.8,0.7,1.8,0.7,2.8L-2255.8-9555z M-2257.8-9555.1
		c0-0.5-0.1-1.1-0.3-1.5c-0.2-0.3-0.5-0.5-0.8-0.5c-0.4,0-0.8,0.2-1,0.6v3c0.2,0.4,0.6,0.6,1,0.6c0.4,0,0.8-0.3,0.9-0.8
		C-2257.9-9554.2-2257.8-9554.7-2257.8-9555.1L-2257.8-9555.1z M-2252.7-9551.3h-2.1v-10.6h2.1V-9551.3z M-2248.2-9551.2
		c-0.9,0-1.8-0.3-2.5-1c-0.6-0.7-1-1.7-0.9-2.7v-0.2c0-0.7,0.1-1.4,0.4-2c0.2-0.6,0.6-1,1.1-1.4c0.5-0.3,1.1-0.5,1.7-0.5
		c0.8,0,1.6,0.3,2.2,1c0.6,0.8,0.9,1.7,0.8,2.7v0.9h-4.1c0.1,0.4,0.2,0.7,0.5,1c0.3,0.2,0.6,0.4,1,0.4c0.6,0,1.2-0.3,1.5-0.8
		l0.9,1.3c-0.3,0.4-0.7,0.8-1.1,1C-2247.1-9551.3-2247.7-9551.2-2248.2-9551.2L-2248.2-9551.2z M-2248.4-9557.1
		c-0.6,0-1,0.4-1.1,1.3h2.1v-0.2c0-0.3-0.1-0.6-0.3-0.9C-2247.9-9557-2248.1-9557.1-2248.4-9557.1z M-2241.1-9553.4
		c0-0.2-0.1-0.4-0.3-0.5c-0.3-0.2-0.7-0.3-1-0.4c-0.4-0.1-0.9-0.3-1.3-0.5c-0.3-0.2-0.6-0.4-0.8-0.8c-0.2-0.3-0.3-0.7-0.3-1
		c0-0.7,0.3-1.3,0.8-1.7c0.6-0.5,1.3-0.7,2-0.7c0.7,0,1.5,0.2,2.1,0.7c0.5,0.4,0.8,1.1,0.8,1.8h-2.1c0-0.6-0.3-0.9-0.8-0.9
		c-0.2,0-0.4,0.1-0.5,0.2c-0.1,0.1-0.2,0.3-0.2,0.5c0,0.2,0.1,0.4,0.3,0.5c0.3,0.2,0.6,0.3,0.9,0.3c0.4,0.1,0.7,0.2,1,0.3
		c0.9,0.2,1.5,1.1,1.5,2.1c0,0.7-0.3,1.3-0.8,1.7c-0.6,0.5-1.4,0.7-2.1,0.6c-0.5,0-1-0.1-1.5-0.3c-0.4-0.2-0.8-0.5-1-0.9
		c-0.2-0.4-0.4-0.8-0.4-1.2h1.9c0,0.3,0.1,0.6,0.3,0.8c0.2,0.2,0.5,0.2,0.8,0.2c0.2,0,0.4,0,0.6-0.2
		C-2241.2-9553-2241.1-9553.2-2241.1-9553.4L-2241.1-9553.4z M-2228.8-9555c0,1-0.2,2-0.7,2.8c-0.4,0.7-1.1,1.1-1.9,1
		c-0.6,0-1.1-0.3-1.5-0.8v3.5h-2.1v-10.3h1.9l0.1,0.7c0.4-0.5,1-0.8,1.6-0.8c0.7,0,1.5,0.3,1.9,1c0.5,0.8,0.7,1.8,0.7,2.8V-9555z
		 M-2230.9-9555.1c0-1.3-0.3-2-1-2c-0.4-0.1-0.8,0.2-1,0.6v2.9c0.2,0.4,0.6,0.7,1,0.6c0.7,0,1-0.6,1-1.9V-9555.1z M-2224.2-9551.3
		c-0.1-0.2-0.2-0.4-0.2-0.7c-0.4,0.5-1,0.8-1.6,0.8c-0.6,0-1.2-0.2-1.6-0.6c-0.4-0.4-0.7-1-0.7-1.6c0-0.7,0.3-1.4,0.8-1.8
		c0.7-0.5,1.5-0.7,2.3-0.6h0.6v-0.4c0-0.7-0.3-1-0.8-1c-0.4-0.1-0.7,0.2-0.7,0.6c0,0.1,0,0.1,0,0.2h-2.1c0-0.7,0.3-1.4,0.8-1.8
		c0.6-0.5,1.3-0.7,2.1-0.7c0.7,0,1.4,0.2,2,0.7c0.5,0.5,0.8,1.2,0.8,1.9v3.3c0,0.5,0.1,1.1,0.3,1.6v0.1H-2224.2z M-2225.5-9552.8
		c0.2,0,0.4-0.1,0.6-0.2c0.2-0.1,0.3-0.2,0.4-0.4v-1.2h-0.6c-0.7,0-1.1,0.4-1.1,1.1c0,0.2,0.1,0.4,0.2,0.5
		C-2225.8-9552.9-2225.7-9552.8-2225.5-9552.8z M-2217.2-9556.7l-0.7-0.1c-0.5-0.1-1,0.2-1.3,0.7v4.7h-2.1v-7.4h1.9l0.1,1
		c0.2-0.7,0.8-1.1,1.5-1.1c0.2,0,0.4,0,0.6,0.1L-2217.2-9556.7z M-2212.9-9551.3c-0.1-0.2-0.2-0.4-0.2-0.7c-0.4,0.5-1,0.8-1.6,0.8
		c-0.6,0-1.2-0.2-1.6-0.6c-0.4-0.4-0.7-1-0.7-1.6c0-0.7,0.3-1.4,0.8-1.8c0.7-0.5,1.5-0.7,2.3-0.6h0.6v-0.4c0-0.7-0.3-1-0.8-1
		c-0.4-0.1-0.7,0.2-0.7,0.6c0,0.1,0,0.1,0,0.2h-2.1c0-0.7,0.3-1.4,0.8-1.8c0.6-0.5,1.3-0.7,2.1-0.7c0.7,0,1.4,0.2,2,0.7
		c0.5,0.5,0.8,1.2,0.8,1.9v3.3c0,0.5,0.1,1.1,0.3,1.6v0.1H-2212.9z M-2214.2-9552.8c0.2,0,0.4-0.1,0.6-0.2c0.2-0.1,0.3-0.2,0.4-0.4
		v-1.2h-0.6c-0.7,0-1.1,0.4-1.1,1.1c0,0.2,0.1,0.4,0.2,0.5C-2214.6-9552.9-2214.4-9552.8-2214.2-9552.8z M-2204.7-9551.3h-2.1v-10.6
		h2.1V-9551.3z M-2199.7-9551.3c-0.1-0.2-0.2-0.4-0.2-0.7c-0.4,0.5-1,0.8-1.6,0.8c-0.6,0-1.2-0.2-1.6-0.6c-0.4-0.4-0.7-1-0.7-1.6
		c0-0.7,0.3-1.4,0.8-1.8c0.7-0.5,1.5-0.7,2.3-0.6h0.6v-0.4c0-0.7-0.3-1-0.8-1c-0.4-0.1-0.7,0.2-0.7,0.6c0,0.1,0,0.1,0,0.2h-2.1
		c0-0.7,0.3-1.4,0.8-1.8c0.6-0.5,1.3-0.7,2.1-0.7c0.7,0,1.4,0.2,2,0.7c0.5,0.5,0.8,1.2,0.8,1.9v3.3c0,0.5,0.1,1.1,0.3,1.6v0.1
		H-2199.7z M-2201-9552.8c0.2,0,0.4-0.1,0.6-0.2c0.2-0.1,0.3-0.2,0.4-0.4v-1.2h-0.6c-0.7,0-1.1,0.4-1.1,1.1c0,0.2,0.1,0.4,0.2,0.5
		C-2201.3-9552.9-2201.2-9552.8-2201-9552.8L-2201-9552.8z M-2300.9-9532.9l1-4.7h2.2l-2.2,7.4h-2.1l-2.2-7.4h2.2L-2300.9-9532.9z
		 M-2293.9-9530c-0.9,0-1.8-0.3-2.5-1c-0.6-0.7-1-1.7-0.9-2.7v-0.2c0-0.7,0.1-1.4,0.4-2c0.2-0.6,0.6-1,1.1-1.4
		c0.5-0.3,1.1-0.5,1.7-0.5c0.8,0,1.6,0.3,2.2,1c0.6,0.8,0.9,1.7,0.8,2.7v0.9h-4.1c0.1,0.4,0.2,0.7,0.5,1c0.3,0.2,0.6,0.4,1,0.4
		c0.6,0,1.2-0.3,1.5-0.8l0.9,1.3c-0.3,0.4-0.7,0.8-1.1,1C-2292.8-9530.1-2293.3-9530-2293.9-9530z M-2294.1-9536
		c-0.6,0-1,0.5-1.1,1.3h2.1v-0.2c0-0.3-0.1-0.6-0.3-0.9C-2293.5-9535.9-2293.8-9536-2294.1-9536z M-2288.3-9537.6l0.1,0.9
		c0.4-0.7,1.2-1,1.9-1c0.6,0,1.2,0.2,1.5,0.7c0.4,0.6,0.6,1.3,0.5,2.1v4.8h-2.1v-4.7c0-0.3-0.1-0.6-0.2-0.8
		c-0.2-0.2-0.5-0.3-0.7-0.3c-0.4,0-0.7,0.2-0.9,0.5v5.3h-2.1v-7.4L-2288.3-9537.6z M-2280.7-9539.5v1.9h1.1v1.6h-1.1v3.4
		c0,0.2,0,0.4,0.1,0.6c0.2,0.1,0.3,0.2,0.5,0.2c0.2,0,0.3,0,0.5,0v1.7c-0.4,0.1-0.8,0.2-1.2,0.2c-0.6,0.1-1.1-0.1-1.6-0.6
		c-0.4-0.5-0.6-1.1-0.5-1.7v-3.7h-0.8v-1.6h0.8v-1.9H-2280.7z M-2275.1-9530.2c-0.1-0.2-0.2-0.4-0.2-0.7c-0.4,0.5-1,0.8-1.6,0.8
		c-0.6,0-1.2-0.2-1.6-0.6c-0.4-0.4-0.7-1-0.7-1.6c0-0.7,0.3-1.4,0.8-1.8c0.7-0.5,1.5-0.7,2.3-0.6h0.6v-0.4c0-0.7-0.3-1-0.8-1
		c-0.4-0.1-0.7,0.2-0.7,0.6c0,0.1,0,0.1,0,0.2h-2.1c0-0.7,0.3-1.4,0.8-1.8c0.6-0.5,1.3-0.7,2.1-0.7c0.7,0,1.4,0.2,2,0.7
		c0.5,0.5,0.8,1.2,0.8,1.9v3.3c0,0.5,0.1,1.1,0.3,1.6v0.1H-2275.1z M-2276.4-9531.7c0.2,0,0.4-0.1,0.6-0.2c0.2-0.1,0.3-0.2,0.4-0.4
		v-1.2h-0.6c-0.7,0-1.1,0.4-1.1,1.1c0,0.2,0.1,0.4,0.2,0.5C-2276.7-9531.7-2276.6-9531.7-2276.4-9531.7z"/>
	<path id="Trazado_102820" class="st2" d="M-2301.2-9487.1h-2.1v-10h2.1V-9487.1z M-2297.9-9494.6l0.1,0.9c0.4-0.7,1.2-1,1.9-1
		c0.6,0,1.2,0.2,1.5,0.7c0.4,0.6,0.6,1.3,0.5,2.1v4.8h-2.1v-4.7c0-0.3-0.1-0.6-0.2-0.8c-0.2-0.2-0.5-0.3-0.7-0.3
		c-0.4,0-0.7,0.2-0.9,0.5v5.3h-2.1v-7.4H-2297.9z M-2290-9489.9l1-4.7h2.2l-2.2,7.4h-2.1l-2.2-7.4h2.2L-2290-9489.9z M-2283-9487
		c-0.9,0-1.8-0.3-2.5-1c-0.6-0.7-1-1.7-0.9-2.7v-0.2c0-0.7,0.1-1.4,0.4-2c0.2-0.6,0.6-1,1.1-1.4c0.5-0.3,1.1-0.5,1.7-0.5
		c0.8,0,1.6,0.3,2.2,1c0.6,0.8,0.9,1.7,0.8,2.7v0.9h-4.1c0.1,0.4,0.2,0.7,0.5,1c0.3,0.2,0.6,0.4,1,0.4c0.6,0,1.2-0.3,1.5-0.8
		l0.9,1.3c-0.3,0.4-0.7,0.8-1.1,1C-2281.9-9487.1-2282.5-9487-2283-9487L-2283-9487z M-2283.2-9492.9c-0.6,0-1,0.4-1.1,1.3h2.1v-0.2
		c0-0.3-0.1-0.6-0.3-0.9C-2282.7-9492.8-2282.9-9492.9-2283.2-9492.9z M-2275.3-9492.5l-0.7-0.1c-0.5-0.1-1,0.2-1.3,0.7v4.7h-2.1
		v-7.4h1.9l0.1,1c0.2-0.7,0.8-1.1,1.5-1.1c0.2,0,0.4,0,0.6,0.1L-2275.3-9492.5z M-2271.1-9489.2c0-0.2-0.1-0.4-0.3-0.5
		c-0.3-0.2-0.7-0.3-1-0.4c-0.4-0.1-0.9-0.3-1.3-0.5c-0.3-0.2-0.6-0.4-0.8-0.8c-0.2-0.3-0.3-0.7-0.3-1c0-0.7,0.3-1.3,0.8-1.7
		c0.6-0.5,1.3-0.7,2-0.7c0.7,0,1.5,0.2,2.1,0.7c0.5,0.4,0.8,1.1,0.8,1.8h-2.1c0-0.6-0.3-0.9-0.8-0.9c-0.2,0-0.4,0.1-0.5,0.2
		c-0.1,0.1-0.2,0.3-0.2,0.5c0,0.2,0.1,0.4,0.3,0.5c0.3,0.2,0.6,0.3,0.9,0.3c0.4,0.1,0.7,0.2,1,0.3c0.9,0.2,1.5,1.1,1.5,2.1
		c0,0.7-0.3,1.3-0.8,1.7c-0.6,0.5-1.4,0.7-2.1,0.6c-0.5,0-1-0.1-1.5-0.3c-0.4-0.2-0.8-0.5-1-0.9c-0.2-0.4-0.4-0.8-0.4-1.2h1.9
		c0,0.3,0.1,0.6,0.3,0.8c0.2,0.2,0.5,0.2,0.8,0.2c0.2,0,0.4,0,0.6-0.2C-2271.2-9488.8-2271.1-9489-2271.1-9489.2L-2271.1-9489.2z
		 M-2266-9487.1h-2.1v-7.4h2.1V-9487.1z M-2268.2-9496.5c0-0.3,0.1-0.6,0.3-0.8c0.5-0.4,1.2-0.4,1.7,0c0.2,0.2,0.3,0.5,0.3,0.8
		c0,0.3-0.1,0.6-0.3,0.8c-0.5,0.4-1.2,0.4-1.7,0C-2268.1-9495.9-2268.2-9496.2-2268.2-9496.5z M-2265-9490.9c0-0.7,0.1-1.4,0.4-2
		c0.2-0.6,0.6-1,1.1-1.3c0.5-0.3,1.1-0.5,1.7-0.5c0.9-0.1,1.7,0.3,2.3,1c0.6,0.8,0.9,1.8,0.9,2.8v0.1c0,1-0.3,2-0.9,2.8
		c-0.6,0.7-1.5,1.1-2.3,1c-0.8,0-1.7-0.3-2.3-1c-0.6-0.7-0.9-1.6-0.9-2.6L-2265-9490.9z M-2262.9-9490.8c0,0.5,0.1,1,0.3,1.5
		c0.2,0.3,0.5,0.5,0.9,0.5c0.7,0,1.1-0.6,1.1-1.9v-0.2c0-1.3-0.4-2-1.1-2c-0.7,0-1.1,0.6-1.1,1.7L-2262.9-9490.8z M-2255.7-9494.6
		l0.1,0.9c0.4-0.7,1.2-1,1.9-1c0.6,0,1.2,0.2,1.5,0.7c0.4,0.6,0.6,1.3,0.5,2.1v4.8h-2.1v-4.7c0-0.3-0.1-0.6-0.2-0.8
		c-0.2-0.2-0.5-0.3-0.7-0.3c-0.4,0-0.7,0.2-0.9,0.5v5.3h-2.1v-7.4H-2255.7z M-2247.3-9487c-0.9,0-1.8-0.3-2.5-1
		c-0.6-0.7-1-1.7-0.9-2.7v-0.2c0-0.7,0.1-1.4,0.4-2c0.2-0.6,0.6-1,1.1-1.4c0.5-0.3,1.1-0.5,1.7-0.5c0.8,0,1.6,0.3,2.2,1
		c0.6,0.8,0.9,1.7,0.8,2.7v0.9h-4.1c0.1,0.4,0.2,0.7,0.5,1c0.3,0.2,0.6,0.4,1,0.4c0.6,0,1.2-0.3,1.5-0.8l0.9,1.3
		c-0.3,0.4-0.7,0.8-1.1,1C-2246.3-9487.1-2246.8-9487-2247.3-9487z M-2247.6-9492.9c-0.6,0-1,0.4-1.1,1.3h2.1v-0.2
		c0-0.3-0.1-0.6-0.3-0.9C-2247-9492.8-2247.3-9492.9-2247.6-9492.9z M-2240.2-9489.2c0-0.2-0.1-0.4-0.3-0.5c-0.3-0.2-0.7-0.3-1-0.4
		c-0.4-0.1-0.9-0.3-1.3-0.5c-0.3-0.2-0.6-0.4-0.8-0.8c-0.2-0.3-0.3-0.7-0.3-1c0-0.7,0.3-1.3,0.8-1.7c0.6-0.5,1.3-0.7,2-0.7
		c0.7,0,1.5,0.2,2.1,0.7c0.5,0.4,0.8,1.1,0.8,1.8h-2.1c0-0.6-0.3-0.9-0.8-0.9c-0.2,0-0.4,0.1-0.5,0.2c-0.1,0.1-0.2,0.3-0.2,0.5
		c0,0.2,0.1,0.4,0.3,0.5c0.3,0.2,0.6,0.3,0.9,0.3c0.4,0.1,0.7,0.2,1,0.3c0.9,0.2,1.5,1.1,1.5,2.1c0,0.7-0.3,1.3-0.8,1.7
		c-0.6,0.5-1.4,0.7-2.1,0.6c-0.5,0-1-0.1-1.5-0.3c-0.4-0.2-0.8-0.5-1-0.9c-0.2-0.4-0.4-0.8-0.4-1.2h1.9c0,0.3,0.1,0.6,0.3,0.8
		c0.2,0.2,0.5,0.2,0.8,0.2c0.2,0,0.4,0,0.6-0.2C-2240.3-9488.8-2240.2-9489-2240.2-9489.2L-2240.2-9489.2z M-2303.1-9466v-5.8h-1
		v-1.6h1v-0.2c0-0.9,0.3-1.7,0.9-2.3c0.7-0.5,1.5-0.8,2.3-0.7c0.7,0,1.5,0.2,2.2,0.4l-0.3,1.8l-0.3-0.1c-0.5-0.1-0.9-0.2-1.4-0.2
		c-0.8,0-1.2,0.4-1.2,1.2v0.1h1.3v1.6h-1.3v5.8H-2303.1z M-2296.8-9466h-2.1v-7.4h2.1L-2296.8-9466z M-2293.7-9473.4l0.1,0.9
		c0.4-0.7,1.2-1,1.9-1c0.6,0,1.2,0.2,1.5,0.7c0.4,0.6,0.6,1.3,0.5,2.1v4.8h-2.1v-4.7c0-0.3,0-0.6-0.2-0.8c-0.2-0.2-0.5-0.3-0.7-0.3
		c-0.4,0-0.7,0.2-0.9,0.5v5.3h-2.1v-7.4H-2293.7z M-2284.7-9466c-0.1-0.2-0.2-0.4-0.2-0.7c-0.4,0.5-1,0.8-1.6,0.8
		c-0.6,0-1.2-0.2-1.6-0.6c-0.4-0.4-0.7-1-0.7-1.6c0-0.7,0.3-1.4,0.8-1.8c0.7-0.5,1.5-0.7,2.3-0.6h0.6v-0.4c0-0.7-0.3-1-0.8-1
		c-0.4-0.1-0.7,0.2-0.7,0.6c0,0.1,0,0.1,0,0.2h-2.1c0-0.7,0.3-1.4,0.8-1.8c0.6-0.5,1.3-0.7,2.1-0.7c0.7,0,1.4,0.2,2,0.7
		c0.5,0.5,0.8,1.2,0.8,1.9v3.3c0,0.5,0.1,1.1,0.3,1.6v0.1H-2284.7z M-2286-9467.5c0.2,0,0.4-0.1,0.6-0.2c0.2-0.1,0.3-0.2,0.4-0.4
		v-1.2h-0.6c-0.7,0-1.1,0.4-1.1,1.1c0,0.2,0.1,0.4,0.2,0.5C-2286.4-9467.6-2286.2-9467.5-2286-9467.5z M-2279.9-9473.4l0.1,0.9
		c0.4-0.7,1.2-1,1.9-1c0.6,0,1.2,0.2,1.5,0.7c0.4,0.6,0.6,1.3,0.5,2.1v4.8h-2.1v-4.7c0-0.3-0.1-0.6-0.2-0.8
		c-0.2-0.2-0.5-0.3-0.7-0.3c-0.4,0-0.7,0.2-0.9,0.5v5.3h-2.1v-7.4H-2279.9z M-2271.9-9467.6c0.2,0,0.5-0.1,0.7-0.3
		c0.2-0.2,0.3-0.5,0.2-0.7h1.9c0,0.8-0.3,1.5-0.8,2c-0.6,0.5-1.3,0.8-2,0.8c-0.9,0-1.7-0.3-2.3-1c-0.6-0.8-0.9-1.8-0.8-2.8v-0.1
		c0-0.7,0.1-1.4,0.4-2c0.2-0.6,0.6-1,1.1-1.3c0.5-0.3,1.1-0.5,1.7-0.5c0.8,0,1.5,0.2,2.1,0.8c0.5,0.6,0.8,1.4,0.8,2.2h-1.9
		c0-0.3-0.1-0.6-0.3-0.9c-0.2-0.2-0.4-0.3-0.7-0.3c-0.5,0-0.8,0.4-0.9,1.1c0,0.3,0,0.7,0,1c0,0.5,0,1.1,0.2,1.6
		C-2272.5-9467.8-2272.2-9467.6-2271.9-9467.6L-2271.9-9467.6z M-2266-9466h-2.1v-7.4h2.1L-2266-9466z M-2268.2-9475.3
		c0-0.3,0.1-0.6,0.3-0.8c0.5-0.4,1.2-0.4,1.7,0c0.4,0.4,0.4,1.1,0.1,1.6c0,0,0,0-0.1,0.1c-0.5,0.4-1.2,0.4-1.7,0
		C-2268.1-9474.7-2268.2-9475-2268.2-9475.3z M-2261.5-9465.8c-0.9,0-1.8-0.3-2.5-1c-0.6-0.7-1-1.7-0.9-2.7v-0.2
		c0-0.7,0.1-1.4,0.4-2c0.2-0.6,0.6-1,1.1-1.4c0.5-0.3,1.1-0.5,1.7-0.5c0.8,0,1.6,0.3,2.2,1c0.6,0.8,0.9,1.7,0.8,2.7v0.9h-4.1
		c0.1,0.4,0.2,0.7,0.5,1c0.3,0.2,0.6,0.4,1,0.4c0.6,0,1.2-0.3,1.5-0.8l0.9,1.3c-0.3,0.4-0.7,0.8-1.1,1
		C-2260.5-9466-2261-9465.8-2261.5-9465.8z M-2261.8-9471.8c-0.6,0-1,0.4-1.1,1.3h2.1v-0.2c0-0.3-0.1-0.6-0.3-0.9
		C-2261.2-9471.7-2261.5-9471.8-2261.8-9471.8z M-2253.9-9471.3l-0.7-0.1c-0.5-0.1-1,0.2-1.3,0.7v4.7h-2.1v-7.4h1.9l0.1,1
		c0.2-0.7,0.8-1.1,1.5-1.1c0.2,0,0.4,0,0.6,0.1L-2253.9-9471.3z M-2249.6-9466c-0.1-0.2-0.2-0.4-0.2-0.7c-0.4,0.5-1,0.8-1.6,0.8
		c-0.6,0-1.2-0.2-1.6-0.6c-0.4-0.4-0.7-1-0.7-1.6c0-0.7,0.3-1.4,0.8-1.8c0.7-0.5,1.5-0.7,2.3-0.6h0.6v-0.4c0-0.7-0.3-1-0.8-1
		c-0.4-0.1-0.7,0.2-0.7,0.6c0,0.1,0,0.1,0,0.2h-2.1c0-0.7,0.3-1.4,0.8-1.8c0.6-0.5,1.3-0.7,2.1-0.7c0.7,0,1.4,0.2,2,0.7
		c0.5,0.5,0.8,1.2,0.8,1.9v3.3c0,0.5,0.1,1.1,0.3,1.6v0.1H-2249.6z M-2250.9-9467.5c0.2,0,0.4-0.1,0.6-0.2c0.2-0.1,0.3-0.2,0.4-0.4
		v-1.2h-0.6c-0.7,0-1.1,0.4-1.1,1.1c0,0.2,0.1,0.4,0.2,0.5C-2251.2-9467.6-2251.1-9467.5-2250.9-9467.5L-2250.9-9467.5z
		 M-2243.2-9468.1c0-0.2-0.1-0.4-0.3-0.5c-0.3-0.2-0.7-0.3-1-0.4c-0.4-0.1-0.9-0.3-1.3-0.5c-0.3-0.2-0.6-0.4-0.8-0.8
		c-0.2-0.3-0.3-0.7-0.3-1c0-0.7,0.3-1.3,0.8-1.7c0.6-0.5,1.3-0.7,2-0.7c0.7,0,1.5,0.2,2.1,0.7c0.5,0.4,0.8,1.1,0.8,1.8h-2.1
		c0-0.6-0.3-0.9-0.8-0.9c-0.2,0-0.4,0.1-0.5,0.2c-0.1,0.1-0.2,0.3-0.2,0.5c0,0.2,0.1,0.4,0.3,0.5c0.3,0.2,0.6,0.3,0.9,0.3
		c0.4,0.1,0.7,0.2,1,0.3c0.9,0.2,1.5,1.1,1.5,2.1c0,0.7-0.3,1.3-0.8,1.7c-0.6,0.5-1.4,0.7-2.1,0.6c-0.5,0-1-0.1-1.5-0.3
		c-0.4-0.2-0.8-0.5-1-0.9c-0.2-0.4-0.4-0.8-0.4-1.2h1.9c0,0.3,0.1,0.6,0.3,0.8c0.2,0.2,0.5,0.2,0.8,0.2c0.2,0,0.4,0,0.6-0.2
		C-2243.3-9467.7-2243.2-9467.9-2243.2-9468.1L-2243.2-9468.1z M-2233.4-9466c-0.1-0.2-0.2-0.4-0.2-0.7c-0.4,0.5-1,0.8-1.6,0.8
		c-0.6,0-1.2-0.2-1.6-0.6c-0.4-0.4-0.7-1-0.7-1.6c0-0.7,0.3-1.4,0.8-1.8c0.7-0.5,1.5-0.7,2.3-0.6h0.6v-0.4c0-0.7-0.3-1-0.8-1
		c-0.4-0.1-0.7,0.2-0.7,0.6c0,0.1,0,0.1,0,0.2h-2.1c0-0.7,0.3-1.4,0.8-1.8c0.6-0.5,1.3-0.7,2.1-0.7c0.7,0,1.4,0.2,2,0.7
		c0.5,0.5,0.8,1.2,0.8,1.9v3.3c0,0.5,0.1,1.1,0.3,1.6v0.1H-2233.4z M-2234.7-9467.5c0.2,0,0.4-0.1,0.6-0.2c0.2-0.1,0.3-0.2,0.4-0.4
		v-1.2h-0.6c-0.7,0-1.1,0.4-1.1,1.1c0,0.2,0.1,0.4,0.2,0.5C-2235-9467.6-2234.8-9467.5-2234.7-9467.5L-2234.7-9467.5z M-2225.1-9466
		h-2.1v-10.6h2.1V-9466z M-2220.1-9466c-0.1-0.2-0.2-0.4-0.2-0.7c-0.4,0.5-1,0.8-1.6,0.8c-0.6,0-1.2-0.2-1.6-0.6
		c-0.4-0.4-0.7-1-0.7-1.6c0-0.7,0.3-1.4,0.8-1.8c0.7-0.5,1.5-0.7,2.3-0.6h0.6v-0.4c0-0.7-0.3-1-0.8-1c-0.4-0.1-0.7,0.2-0.7,0.6
		c0,0.1,0,0.1,0,0.2h-2.1c0-0.7,0.3-1.4,0.8-1.8c0.6-0.5,1.3-0.7,2.1-0.7c0.7,0,1.4,0.2,2,0.7c0.5,0.5,0.8,1.2,0.8,1.9v3.3
		c0,0.5,0.1,1.1,0.3,1.6v0.1H-2220.1z M-2221.4-9467.5c0.2,0,0.4-0.1,0.6-0.2c0.2-0.1,0.3-0.2,0.4-0.4v-1.2h-0.6
		c-0.7,0-1.1,0.4-1.1,1.1c0,0.2,0.1,0.4,0.2,0.5C-2221.8-9467.6-2221.6-9467.5-2221.4-9467.5L-2221.4-9467.5z M-2213.2-9471.3
		l-0.7-0.1c-0.5-0.1-1,0.2-1.3,0.7v4.7h-2.1v-7.4h1.9l0.1,1c0.2-0.7,0.8-1.1,1.5-1.1c0.2,0,0.4,0,0.6,0.1L-2213.2-9471.3z
		 M-2212.7-9469.8c0-0.7,0.1-1.4,0.3-2c0.2-0.5,0.5-1,1-1.3c0.4-0.3,0.9-0.5,1.4-0.5c0.6,0,1.2,0.3,1.6,0.8l0.1-0.6h1.9v7.2
		c0,0.6-0.1,1.2-0.4,1.7c-0.3,0.5-0.7,0.9-1.2,1.1c-0.6,0.3-1.2,0.4-1.8,0.4c-0.5,0-1-0.1-1.4-0.3c-0.4-0.2-0.8-0.4-1-0.8l0.9-1.4
		c0.4,0.5,0.9,0.8,1.5,0.8c0.7,0.1,1.3-0.4,1.4-1.2c0-0.1,0-0.3,0-0.4v-0.2c-0.4,0.5-0.9,0.8-1.5,0.7c-0.8,0-1.5-0.4-2-1
		C-2212.4-9467.7-2212.7-9468.7-2212.7-9469.8L-2212.7-9469.8z M-2210.6-9469.6c0,0.5,0.1,1,0.3,1.4c0.2,0.3,0.5,0.5,0.9,0.5
		c0.4,0,0.8-0.2,1-0.5v-3.1c-0.2-0.3-0.6-0.5-1-0.5c-0.4,0-0.7,0.2-0.9,0.6C-2210.5-9470.7-2210.6-9470.2-2210.6-9469.6
		L-2210.6-9469.6z M-2205.5-9469.8c0-0.7,0.1-1.4,0.4-2c0.2-0.6,0.6-1,1.1-1.3c0.5-0.3,1.1-0.5,1.7-0.5c0.9-0.1,1.7,0.3,2.3,1
		c0.6,0.8,0.9,1.8,0.9,2.8v0.1c0,1-0.3,2-0.9,2.8c-0.6,0.7-1.5,1.1-2.3,1c-0.8,0-1.7-0.3-2.3-1c-0.6-0.7-0.9-1.6-0.9-2.6
		L-2205.5-9469.8z M-2203.4-9469.6c0,0.5,0.1,1,0.3,1.5c0.2,0.3,0.5,0.5,0.9,0.5c0.7,0,1.1-0.6,1.1-1.9v-0.2c0-1.3-0.4-2-1.1-2
		c-0.7,0-1.1,0.6-1.1,1.7L-2203.4-9469.6z M-2294.3-9448.5c0,1-0.2,2-0.7,2.8c-0.4,0.7-1.1,1.1-1.9,1c-0.6,0-1.1-0.3-1.5-0.7v3.5
		h-2.1v-10.3h1.9l0.1,0.7c0.4-0.5,1-0.8,1.6-0.8c0.7,0,1.5,0.3,1.9,1c0.5,0.8,0.7,1.8,0.7,2.8L-2294.3-9448.5z M-2296.3-9448.7
		c0-1.3-0.3-2-1-2c-0.4-0.1-0.8,0.2-1,0.6v2.9c0.2,0.4,0.6,0.7,1,0.6c0.7,0,1-0.6,1-1.9L-2296.3-9448.7z M-2291.2-9444.8h-2.1v-10.6
		h2.1V-9444.8z M-2286.2-9444.8c-0.1-0.2-0.2-0.4-0.2-0.7c-0.4,0.5-1,0.8-1.6,0.8c-0.6,0-1.2-0.2-1.6-0.6c-0.4-0.4-0.7-1-0.7-1.6
		c0-0.7,0.3-1.4,0.8-1.8c0.7-0.5,1.5-0.7,2.3-0.6h0.6v-0.4c0-0.7-0.3-1-0.8-1c-0.4-0.1-0.7,0.2-0.7,0.6c0,0.1,0,0.1,0,0.2h-2.1
		c0-0.7,0.3-1.4,0.8-1.8c0.6-0.5,1.3-0.7,2.1-0.7c0.7,0,1.4,0.2,2,0.7c0.5,0.5,0.8,1.2,0.8,1.9v3.3c0,0.5,0.1,1.1,0.3,1.6v0.1
		H-2286.2z M-2287.5-9446.4c0.2,0,0.4-0.1,0.6-0.2c0.2-0.1,0.3-0.2,0.4-0.4v-1.2h-0.6c-0.7,0-1.1,0.4-1.1,1.1c0,0.2,0.1,0.4,0.2,0.5
		C-2287.8-9446.4-2287.6-9446.3-2287.5-9446.4z M-2280.8-9446.6h3v1.8h-5.6v-1.3l2.9-4.4h-2.8v-1.8h5.4v1.3L-2280.8-9446.6z
		 M-2277.1-9448.6c0-0.7,0.1-1.4,0.4-2c0.2-0.6,0.6-1,1.1-1.3c0.5-0.3,1.1-0.5,1.7-0.5c0.9-0.1,1.7,0.3,2.3,1
		c0.6,0.8,0.9,1.8,0.9,2.8v0.1c0,1-0.3,2-0.9,2.8c-0.6,0.7-1.5,1.1-2.3,1c-0.8,0-1.7-0.3-2.3-1c-0.6-0.7-0.9-1.6-0.9-2.6
		L-2277.1-9448.6z M-2275.1-9448.5c0,0.5,0.1,1,0.3,1.5c0.2,0.3,0.5,0.5,0.9,0.5c0.7,0,1.1-0.6,1.1-1.9v-0.2c0-1.3-0.4-2-1.1-2
		c-0.7,0-1.1,0.6-1.1,1.7L-2275.1-9448.5z M-2263.5-9444.7c-0.9,0-1.8-0.3-2.5-1c-0.6-0.7-1-1.7-0.9-2.7v-0.2c0-0.7,0.1-1.4,0.4-2
		c0.2-0.6,0.6-1,1.1-1.4c0.5-0.3,1.1-0.5,1.7-0.5c0.8,0,1.6,0.3,2.2,1c0.6,0.8,0.9,1.7,0.8,2.7v0.9h-4.1c0.1,0.4,0.2,0.7,0.5,1
		c0.3,0.2,0.6,0.4,1,0.4c0.6,0,1.2-0.3,1.5-0.8l0.9,1.3c-0.3,0.4-0.7,0.8-1.1,1C-2262.4-9444.8-2262.9-9444.7-2263.5-9444.7
		L-2263.5-9444.7z M-2263.7-9450.6c-0.6,0-1,0.4-1.1,1.3h2.1v-0.2c0-0.3-0.1-0.6-0.3-0.9
		C-2263.2-9450.5-2263.4-9450.7-2263.7-9450.6z M-2257.9-9452.3l0.1,0.9c0.4-0.7,1.2-1,1.9-1c0.6,0,1.2,0.2,1.5,0.7
		c0.4,0.6,0.6,1.3,0.5,2.1v4.8h-2.1v-4.7c0-0.3-0.1-0.6-0.2-0.8c-0.2-0.2-0.5-0.3-0.7-0.3c-0.4,0-0.7,0.2-0.9,0.5v5.3h-2.1v-7.4
		L-2257.9-9452.3z M-2247.4-9444.8h-2.1v-7.4h2.1V-9444.8z M-2249.6-9454.2c0-0.3,0.1-0.6,0.3-0.8c0.5-0.4,1.2-0.4,1.7,0
		c0.4,0.4,0.4,1.1,0.1,1.6c0,0,0,0-0.1,0.1c-0.5,0.4-1.2,0.4-1.7,0C-2249.5-9453.6-2249.6-9453.9-2249.6-9454.2z M-2244.3-9452.3
		l0.1,0.9c0.4-0.7,1.2-1,1.9-1c0.6,0,1.2,0.2,1.6,0.7c0.4,0.6,0.6,1.3,0.5,2.1v4.8h-2.1v-4.7c0-0.3-0.1-0.6-0.2-0.8
		c-0.2-0.2-0.5-0.3-0.7-0.3c-0.4,0-0.7,0.2-0.9,0.5v5.3h-2.1v-7.4H-2244.3z M-2235.6-9446.9c0-0.2-0.1-0.4-0.3-0.5
		c-0.3-0.2-0.7-0.3-1-0.4c-0.4-0.1-0.9-0.3-1.3-0.5c-0.3-0.2-0.6-0.4-0.8-0.8c-0.2-0.3-0.3-0.7-0.3-1c0-0.7,0.3-1.3,0.8-1.7
		c0.6-0.5,1.3-0.7,2-0.7c0.7,0,1.5,0.2,2.1,0.7c0.5,0.4,0.8,1.1,0.8,1.8h-2.1c0-0.6-0.3-0.9-0.8-0.9c-0.2,0-0.4,0.1-0.5,0.2
		c-0.1,0.1-0.2,0.3-0.2,0.5c0,0.2,0.1,0.4,0.3,0.5c0.3,0.2,0.6,0.3,0.9,0.3c0.4,0.1,0.7,0.2,1,0.3c0.9,0.2,1.5,1.1,1.5,2.1
		c0,0.7-0.3,1.3-0.8,1.7c-0.6,0.5-1.4,0.7-2.1,0.6c-0.5,0-1-0.1-1.5-0.3c-0.4-0.2-0.8-0.5-1-0.9c-0.2-0.4-0.4-0.8-0.4-1.2h1.9
		c0,0.3,0.1,0.6,0.3,0.8c0.2,0.2,0.5,0.2,0.8,0.2c0.2,0,0.4,0,0.6-0.2C-2235.7-9446.6-2235.6-9446.7-2235.6-9446.9L-2235.6-9446.9z
		 M-2230.2-9454.1v1.8h1.1v1.6h-1.1v3.4c0,0.2,0,0.4,0.1,0.6c0.2,0.1,0.3,0.2,0.5,0.2c0.2,0,0.3,0,0.5,0v1.7
		c-0.4,0.1-0.8,0.2-1.2,0.2c-0.6,0.1-1.1-0.1-1.6-0.6c-0.4-0.5-0.6-1.1-0.5-1.7v-3.7h-0.8v-1.6h0.8v-1.9L-2230.2-9454.1z
		 M-2224.3-9450.2l-0.7-0.1c-0.5-0.1-1,0.2-1.3,0.7v4.7h-2.1v-7.4h1.9l0.1,1c0.2-0.7,0.8-1.1,1.5-1.1c0.2,0,0.4,0,0.6,0.1
		L-2224.3-9450.2z M-2219.6-9445.6c-0.4,0.6-1.1,1-1.8,0.9c-0.6,0-1.2-0.2-1.7-0.7c-0.4-0.6-0.6-1.3-0.6-2v-4.8h2.1v4.8
		c-0.1,0.5,0.2,0.9,0.6,1c0.1,0,0.1,0,0.2,0c0.4,0,0.8-0.2,1-0.6v-5.2h2.1v7.4h-1.9L-2219.6-9445.6z M-2214.5-9452.3l0.1,0.9
		c0.4-0.7,1.2-1,1.9-1c0.7-0.1,1.4,0.4,1.7,1.1c0.4-0.7,1.2-1.2,2-1.1c1.3,0,2,0.9,2.1,2.7v4.8h-2.1v-4.7c0-0.3,0-0.6-0.2-0.8
		c-0.2-0.2-0.4-0.3-0.6-0.3c-0.4,0-0.7,0.2-0.9,0.6l0,0.1v5.1h-2.1v-4.7c0-0.3,0-0.6-0.2-0.8c-0.2-0.2-0.4-0.3-0.6-0.3
		c-0.4,0-0.7,0.2-0.9,0.6v5.2h-2.1v-7.4L-2214.5-9452.3z M-2202.5-9444.7c-0.9,0-1.8-0.3-2.5-1c-0.6-0.7-1-1.7-0.9-2.7v-0.2
		c0-0.7,0.1-1.4,0.4-2c0.2-0.6,0.6-1,1.1-1.4c0.5-0.3,1.1-0.5,1.7-0.5c0.8,0,1.6,0.3,2.2,1c0.6,0.8,0.9,1.7,0.8,2.7v0.9h-4.1
		c0.1,0.4,0.2,0.7,0.5,1c0.3,0.2,0.6,0.4,1,0.4c0.6,0,1.2-0.3,1.5-0.8l0.9,1.3c-0.3,0.4-0.7,0.8-1.1,1
		C-2201.4-9444.8-2201.9-9444.7-2202.5-9444.7L-2202.5-9444.7z M-2202.7-9450.6c-0.6,0-1,0.5-1.1,1.3h2.1v-0.2
		c0-0.3-0.1-0.6-0.3-0.9C-2202.1-9450.5-2202.4-9450.7-2202.7-9450.6L-2202.7-9450.6z M-2196.9-9452.3l0.1,0.9c0.4-0.7,1.2-1,1.9-1
		c0.6,0,1.2,0.2,1.5,0.7c0.4,0.6,0.6,1.3,0.5,2.1v4.8h-2.1v-4.7c0-0.3,0-0.6-0.2-0.8c-0.2-0.2-0.5-0.3-0.7-0.3
		c-0.4,0-0.7,0.2-0.9,0.5v5.3h-2.1v-7.4L-2196.9-9452.3z M-2189.3-9454.1v1.8h1.1v1.6h-1.1v3.4c0,0.2,0,0.4,0.1,0.6
		c0.2,0.1,0.3,0.2,0.5,0.2c0.2,0,0.3,0,0.5,0v1.7c-0.4,0.1-0.8,0.2-1.2,0.2c-0.6,0.1-1.1-0.1-1.6-0.6c-0.4-0.5-0.6-1.1-0.5-1.7v-3.7
		h-0.8v-1.6h0.8v-1.9L-2189.3-9454.1z M-2187.9-9448.6c0-0.7,0.1-1.4,0.4-2c0.2-0.6,0.6-1,1.1-1.3c0.5-0.3,1.1-0.5,1.7-0.5
		c0.9-0.1,1.7,0.3,2.3,1c0.6,0.8,0.9,1.8,0.9,2.8v0.1c0,1-0.3,2-0.9,2.8c-0.6,0.7-1.5,1.1-2.3,1c-0.8,0-1.7-0.3-2.3-1
		c-0.6-0.7-0.9-1.6-0.9-2.6L-2187.9-9448.6z M-2185.8-9448.5c0,0.5,0.1,1,0.3,1.5c0.2,0.3,0.5,0.5,0.9,0.5c0.7,0,1.1-0.6,1.1-1.9
		v-0.2c0-1.3-0.4-2-1.1-2c-0.7,0-1.1,0.6-1.1,1.7L-2185.8-9448.5z M-2177.1-9446.9c0-0.2-0.1-0.4-0.3-0.5c-0.3-0.2-0.7-0.3-1-0.4
		c-0.4-0.1-0.9-0.3-1.3-0.5c-0.3-0.2-0.6-0.4-0.8-0.8c-0.2-0.3-0.3-0.7-0.3-1c0-0.7,0.3-1.3,0.8-1.7c0.6-0.5,1.3-0.7,2-0.7
		c0.7,0,1.5,0.2,2.1,0.7c0.5,0.4,0.8,1.1,0.8,1.8h-2.1c0-0.6-0.3-0.9-0.8-0.9c-0.2,0-0.4,0.1-0.5,0.2c-0.1,0.1-0.2,0.3-0.2,0.5
		c0,0.2,0.1,0.4,0.3,0.5c0.3,0.2,0.6,0.3,0.9,0.3c0.4,0.1,0.7,0.2,1,0.3c0.9,0.2,1.5,1.1,1.5,2.1c0,0.7-0.3,1.3-0.8,1.7
		c-0.6,0.5-1.4,0.7-2.1,0.6c-0.5,0-1-0.1-1.5-0.3c-0.4-0.2-0.8-0.5-1-0.9c-0.2-0.4-0.4-0.8-0.4-1.2h1.9c0,0.3,0.1,0.6,0.3,0.8
		c0.2,0.2,0.5,0.2,0.8,0.2c0.2,0,0.4,0,0.6-0.2C-2177.2-9446.6-2177.1-9446.7-2177.1-9446.9L-2177.1-9446.9z M-2303.8-9427.5
		c0-1,0.2-2,0.7-2.8c0.4-0.7,1.2-1.1,1.9-1c0.6,0,1.1,0.3,1.5,0.8v-3.8h2.1v10.6h-1.9l-0.1-0.8c-0.4,0.6-1,0.9-1.6,0.9
		c-0.7,0-1.4-0.4-1.9-1C-2303.6-9425.4-2303.9-9426.5-2303.8-9427.5z M-2301.8-9427.3c0,1.3,0.3,2,1,2c0.4,0,0.8-0.2,1-0.6v-2.8
		c-0.2-0.4-0.6-0.7-1-0.7c-0.6,0-1,0.6-1,1.7L-2301.8-9427.3z M-2293.3-9423.6c-0.9,0-1.8-0.3-2.5-1c-0.6-0.7-1-1.7-0.9-2.7v-0.2
		c0-0.7,0.1-1.4,0.4-2c0.2-0.6,0.6-1,1.1-1.4c0.5-0.3,1.1-0.5,1.7-0.5c0.8,0,1.6,0.3,2.2,1c0.6,0.8,0.9,1.7,0.8,2.7v0.9h-4.1
		c0.1,0.4,0.2,0.7,0.5,1c0.3,0.2,0.6,0.4,1,0.4c0.6,0,1.2-0.3,1.5-0.8l0.9,1.3c-0.3,0.4-0.7,0.8-1.1,1
		C-2292.2-9423.7-2292.8-9423.6-2293.3-9423.6z M-2293.5-9429.5c-0.6,0-1,0.4-1.1,1.3h2.1v-0.2c0-0.3-0.1-0.6-0.3-0.9
		C-2293-9429.4-2293.2-9429.5-2293.5-9429.5z M-2280.4-9427.4c0,1-0.2,2-0.7,2.8c-0.4,0.7-1.1,1.1-1.9,1c-0.6,0-1.1-0.3-1.5-0.8v3.5
		h-2.1v-10.3h1.9l0.1,0.7c0.4-0.5,1-0.8,1.6-0.8c0.7,0,1.5,0.3,1.9,1c0.5,0.8,0.7,1.8,0.7,2.8V-9427.4z M-2282.4-9427.5
		c0-1.3-0.3-2-1-2c-0.4-0.1-0.8,0.2-1,0.6v2.9c0.2,0.4,0.6,0.7,1,0.6c0.7,0,1-0.6,1-1.9V-9427.5z M-2275.7-9423.7
		c-0.1-0.2-0.2-0.4-0.2-0.7c-0.4,0.5-1,0.8-1.6,0.8c-0.6,0-1.2-0.2-1.6-0.6c-0.4-0.4-0.7-1-0.7-1.6c0-0.7,0.3-1.4,0.8-1.8
		c0.7-0.5,1.5-0.7,2.3-0.6h0.6v-0.4c0-0.7-0.3-1-0.8-1c-0.4-0.1-0.7,0.2-0.7,0.6c0,0.1,0,0.1,0,0.2h-2.1c0-0.7,0.3-1.4,0.8-1.8
		c0.6-0.5,1.3-0.7,2.1-0.7c0.7,0,1.4,0.2,2,0.7c0.5,0.5,0.8,1.2,0.8,1.9v3.3c0,0.5,0.1,1.1,0.3,1.6v0.1H-2275.7z M-2277-9425.2
		c0.2,0,0.4-0.1,0.6-0.2c0.2-0.1,0.3-0.2,0.4-0.4v-1.2h-0.6c-0.7,0-1.1,0.4-1.1,1.1c0,0.2,0.1,0.4,0.2,0.5
		C-2277.4-9425.3-2277.2-9425.2-2277-9425.2L-2277-9425.2z M-2270.4-9433v1.9h1.1v1.6h-1.1v3.4c0,0.2,0,0.4,0.1,0.6
		c0.2,0.1,0.3,0.2,0.5,0.2c0.2,0,0.3,0,0.5,0v1.7c-0.4,0.1-0.8,0.2-1.2,0.2c-0.6,0.1-1.1-0.1-1.6-0.6c-0.4-0.5-0.6-1.1-0.5-1.7v-3.7
		h-0.8v-1.6h0.8v-1.9H-2270.4z M-2264.5-9429l-0.7-0.1c-0.5-0.1-1,0.2-1.3,0.7v4.7h-2.1v-7.4h1.9l0.1,1c0.2-0.7,0.8-1.1,1.5-1.1
		c0.2,0,0.4,0,0.6,0.1L-2264.5-9429z M-2261.5-9423.7h-2.1v-7.4h2.1V-9423.7z M-2263.7-9433.1c0-0.3,0.1-0.6,0.3-0.8
		c0.5-0.4,1.2-0.4,1.7,0c0.4,0.4,0.4,1.1,0.1,1.6c0,0,0,0-0.1,0.1c-0.5,0.4-1.2,0.4-1.7,0
		C-2263.6-9432.5-2263.7-9432.8-2263.7-9433.1z M-2258.3-9431.1l0.1,0.9c0.4-0.7,1.2-1,1.9-1c0.7-0.1,1.4,0.4,1.7,1.1
		c0.4-0.7,1.2-1.2,2-1.1c1.3,0,2,0.9,2.1,2.7v4.8h-2.1v-4.7c0-0.3,0-0.6-0.2-0.8c-0.2-0.2-0.4-0.3-0.6-0.3c-0.4,0-0.7,0.2-0.9,0.6
		l0,0.1v5.1h-2.1v-4.7c0-0.3,0-0.6-0.2-0.8c-0.2-0.2-0.4-0.3-0.6-0.3c-0.4,0-0.7,0.2-0.9,0.6v5.2h-2.1v-7.4H-2258.3z
		 M-2249.7-9427.5c0-0.7,0.1-1.4,0.4-2c0.2-0.6,0.6-1,1.1-1.3c0.5-0.3,1.1-0.5,1.7-0.5c0.9-0.1,1.7,0.3,2.3,1
		c0.6,0.8,0.9,1.8,0.9,2.8v0.1c0,1-0.3,2-0.9,2.8c-0.6,0.7-1.5,1.1-2.3,1c-0.8,0-1.7-0.3-2.3-1c-0.6-0.7-0.9-1.6-0.9-2.6
		L-2249.7-9427.5z M-2247.6-9427.4c0,0.5,0.1,1.1,0.3,1.5c0.2,0.3,0.5,0.5,0.9,0.5c0.7,0,1.1-0.6,1.1-1.9v-0.2c0-1.3-0.4-2-1.1-2
		c-0.7,0-1.1,0.6-1.1,1.7L-2247.6-9427.4z M-2240.5-9431.1l0.1,0.9c0.4-0.7,1.2-1,1.9-1c0.6,0,1.2,0.2,1.5,0.7
		c0.4,0.6,0.6,1.3,0.5,2.1v4.8h-2.1v-4.7c0-0.3-0.1-0.6-0.2-0.8c-0.2-0.2-0.5-0.3-0.7-0.3c-0.4,0-0.7,0.2-0.9,0.5v5.3h-2.1v-7.4
		H-2240.5z M-2233.1-9423.7h-2.1v-7.4h2.1V-9423.7z M-2235.3-9433.1c0-0.3,0.1-0.6,0.3-0.8c0.5-0.4,1.2-0.4,1.7,0
		c0.4,0.4,0.4,1.1,0.1,1.6c0,0,0,0-0.1,0.1c-0.5,0.4-1.2,0.4-1.7,0C-2235.2-9432.5-2235.3-9432.8-2235.3-9433.1z M-2232.1-9427.5
		c0-0.7,0.1-1.4,0.4-2c0.2-0.6,0.6-1,1.1-1.3c0.5-0.3,1.1-0.5,1.7-0.5c0.9-0.1,1.7,0.3,2.3,1c0.6,0.8,0.9,1.8,0.9,2.8v0.1
		c0,1-0.3,2-0.9,2.8c-0.6,0.7-1.5,1.1-2.3,1c-0.8,0-1.7-0.3-2.3-1c-0.6-0.7-0.9-1.6-0.9-2.6L-2232.1-9427.5z M-2230-9427.4
		c0,0.5,0.1,1.1,0.3,1.5c0.2,0.3,0.5,0.5,0.9,0.5c0.7,0,1.1-0.6,1.1-1.9v-0.2c0-1.3-0.4-2-1.1-2c-0.7,0-1.1,0.6-1.1,1.7
		L-2230-9427.4z M-2223.5-9426c0.3,0,0.6,0.1,0.8,0.3c0.4,0.4,0.4,1.2,0.1,1.6c0,0,0,0-0.1,0.1c-0.5,0.4-1.2,0.4-1.6,0
		c-0.4-0.4-0.4-1.2,0-1.6c0,0,0,0,0-0.1C-2224.1-9425.8-2223.8-9426-2223.5-9426L-2223.5-9426z"/>
	<path id="Trazado_102819" class="st2" d="M-2144.6-9557.6l0.4-4.4h4.1v1h-3.2l-0.2,2.4c0.4-0.3,0.9-0.4,1.3-0.4
		c0.7,0,1.3,0.3,1.7,0.8c0.4,0.6,0.7,1.4,0.6,2.2c0,0.8-0.2,1.6-0.7,2.2c-0.5,0.5-1.2,0.8-1.9,0.8c-0.6,0-1.2-0.2-1.7-0.7
		c-0.5-0.5-0.7-1.1-0.8-1.8h1c0,0.4,0.2,0.8,0.5,1.2c0.3,0.3,0.7,0.4,1,0.4c0.4,0,0.8-0.2,1.1-0.5c0.3-0.4,0.4-1,0.4-1.5
		c0-0.5-0.1-1-0.4-1.4c-0.3-0.4-0.7-0.6-1.2-0.5c-0.4,0-0.7,0.1-1,0.3l-0.3,0.2L-2144.6-9557.6z M-2138.6-9553.7
		c0-0.2,0.1-0.4,0.2-0.5c0.1-0.1,0.3-0.2,0.5-0.2c0.2,0,0.3,0.1,0.5,0.2c0.1,0.1,0.2,0.3,0.2,0.5c0,0.2-0.1,0.3-0.2,0.5
		c-0.1,0.1-0.3,0.2-0.5,0.2c-0.3,0-0.6-0.2-0.6-0.5C-2138.6-9553.7-2138.6-9553.7-2138.6-9553.7L-2138.6-9553.7z M-2130.9-9556.9
		c0.1,1-0.1,2.1-0.6,3c-0.4,0.7-1.2,1-1.9,1c-0.7,0.1-1.4-0.3-1.9-0.9c-0.5-0.8-0.7-1.8-0.6-2.8v-1.5c-0.1-1,0.1-2,0.6-2.9
		c0.4-0.7,1.2-1,1.9-1c0.7-0.1,1.4,0.3,1.9,0.9c0.5,0.9,0.7,1.8,0.6,2.8L-2130.9-9556.9z M-2131.9-9558.5c0-0.7-0.1-1.4-0.4-2.1
		c-0.2-0.4-0.7-0.7-1.1-0.7c-0.5,0-0.9,0.2-1.1,0.7c-0.3,0.6-0.4,1.3-0.4,2v1.8c0,0.7,0.1,1.5,0.4,2.1c0.2,0.4,0.7,0.7,1.1,0.7
		c0.4,0,0.9-0.2,1.1-0.6c0.3-0.6,0.4-1.3,0.4-2L-2131.9-9558.5z M-2124.6-9556.9c0.1,1-0.1,2.1-0.6,3c-0.4,0.7-1.2,1-1.9,1
		c-0.7,0.1-1.4-0.3-1.9-0.9c-0.5-0.8-0.7-1.8-0.6-2.8v-1.5c-0.1-1,0.1-2,0.6-2.9c0.4-0.7,1.2-1,1.9-1c0.7-0.1,1.4,0.3,1.9,0.9
		c0.5,0.9,0.7,1.8,0.6,2.8L-2124.6-9556.9z M-2125.6-9558.5c0-0.7-0.1-1.4-0.4-2.1c-0.2-0.4-0.7-0.7-1.1-0.7c-0.5,0-0.9,0.2-1.1,0.7
		c-0.3,0.6-0.4,1.3-0.4,2v1.8c0,0.7,0.1,1.5,0.4,2.1c0.2,0.4,0.7,0.7,1.1,0.7c0.4,0,0.9-0.2,1.1-0.6c0.3-0.6,0.4-1.3,0.4-2
		L-2125.6-9558.5z M-2118.3-9556.9c0.1,1-0.1,2.1-0.6,3c-0.4,0.7-1.2,1-1.9,1c-0.7,0.1-1.4-0.3-1.9-0.9c-0.5-0.8-0.7-1.8-0.6-2.8
		v-1.5c-0.1-1,0.1-2,0.6-2.9c0.4-0.7,1.2-1,1.9-1c0.7-0.1,1.4,0.3,1.9,0.9c0.5,0.9,0.7,1.8,0.6,2.8L-2118.3-9556.9z M-2119.3-9558.5
		c0-0.7-0.1-1.4-0.4-2.1c-0.2-0.4-0.7-0.7-1.1-0.7c-0.5,0-0.9,0.2-1.1,0.7c-0.3,0.6-0.4,1.3-0.4,2v1.8c0,0.7,0.1,1.5,0.4,2.1
		c0.2,0.4,0.7,0.7,1.1,0.7c0.4,0,0.9-0.2,1.1-0.6c0.3-0.6,0.4-1.3,0.4-2L-2119.3-9558.5z M-2116.9-9553.7c0-0.2,0.1-0.4,0.2-0.5
		c0.1-0.1,0.3-0.2,0.5-0.2c0.2,0,0.3,0.1,0.5,0.2c0.1,0.1,0.2,0.3,0.2,0.5c0,0.2-0.1,0.3-0.2,0.5c-0.1,0.1-0.3,0.2-0.5,0.2
		c-0.3,0-0.6-0.2-0.6-0.5C-2116.9-9553.7-2116.9-9553.7-2116.9-9553.7L-2116.9-9553.7z M-2109.1-9556.9c0.1,1-0.1,2.1-0.6,3
		c-0.9,1.2-2.5,1.3-3.5,0.3c-0.1-0.1-0.2-0.2-0.2-0.3c-0.5-0.8-0.7-1.8-0.6-2.8v-1.5c-0.1-1,0.1-2,0.6-2.9c0.4-0.7,1.2-1,1.9-1
		c0.7-0.1,1.4,0.3,1.9,0.9c0.5,0.9,0.7,1.8,0.6,2.8L-2109.1-9556.9z M-2110.1-9558.5c0-0.7-0.1-1.4-0.4-2.1
		c-0.2-0.4-0.7-0.7-1.1-0.7c-0.5,0-0.9,0.2-1.1,0.7c-0.3,0.6-0.4,1.3-0.4,2v1.8c0,0.7,0.1,1.5,0.4,2.1c0.2,0.4,0.7,0.7,1.1,0.7
		c0.4,0,0.9-0.2,1.1-0.6c0.3-0.6,0.4-1.3,0.4-2L-2110.1-9558.5z M-2102.8-9556.9c0.1,1-0.1,2.1-0.6,3c-0.9,1.2-2.5,1.3-3.5,0.3
		c-0.1-0.1-0.2-0.2-0.2-0.3c-0.5-0.8-0.7-1.8-0.6-2.8v-1.5c-0.1-1,0.1-2,0.6-2.9c0.9-1.2,2.6-1.3,3.6-0.2c0.1,0.1,0.1,0.1,0.2,0.2
		c0.5,0.9,0.7,1.8,0.6,2.8L-2102.8-9556.9z M-2103.8-9558.5c0-0.7-0.1-1.4-0.4-2.1c-0.2-0.4-0.7-0.7-1.1-0.7c-0.5,0-0.9,0.2-1.1,0.7
		c-0.3,0.6-0.4,1.3-0.4,2v1.8c0,0.7,0.1,1.5,0.4,2.1c0.2,0.4,0.7,0.7,1.1,0.7c0.4,0,0.9-0.2,1.1-0.6c0.3-0.6,0.4-1.3,0.4-2
		L-2103.8-9558.5z M-2096.5-9556.9c0.1,1-0.1,2.1-0.6,3c-0.9,1.2-2.5,1.3-3.5,0.3c-0.1-0.1-0.2-0.2-0.2-0.3
		c-0.5-0.8-0.7-1.8-0.6-2.8v-1.5c-0.1-1,0.1-2,0.6-2.9c0.9-1.2,2.6-1.3,3.6-0.2c0.1,0.1,0.1,0.1,0.2,0.2c0.5,0.9,0.7,1.8,0.6,2.8
		L-2096.5-9556.9z M-2097.6-9558.5c0-0.7-0.1-1.4-0.4-2.1c-0.2-0.4-0.7-0.7-1.1-0.7c-0.5,0-0.9,0.2-1.1,0.7c-0.3,0.6-0.4,1.3-0.4,2
		v1.8c0,0.7,0.1,1.5,0.4,2.1c0.2,0.4,0.7,0.7,1.1,0.7c0.4,0,0.9-0.2,1.1-0.6c0.3-0.6,0.4-1.3,0.4-2L-2097.6-9558.5z M-2095.2-9551.4
		l-0.6-0.4c0.3-0.5,0.5-1.1,0.5-1.7v-1h1v0.9c0,0.4-0.1,0.9-0.3,1.2C-2094.7-9552-2094.9-9551.6-2095.2-9551.4L-2095.2-9551.4z
		 M-2088.1-9556.9c0.1,1-0.1,2.1-0.6,3c-0.9,1.2-2.5,1.3-3.5,0.3c-0.1-0.1-0.2-0.2-0.2-0.3c-0.5-0.8-0.7-1.8-0.6-2.8v-1.5
		c-0.1-1,0.1-2,0.6-2.9c0.9-1.2,2.6-1.3,3.6-0.2c0.1,0.1,0.1,0.1,0.2,0.2c0.5,0.9,0.7,1.8,0.6,2.8L-2088.1-9556.9z M-2089.1-9558.5
		c0-0.7-0.1-1.4-0.4-2.1c-0.2-0.4-0.7-0.7-1.1-0.7c-0.5,0-0.9,0.2-1.1,0.7c-0.3,0.6-0.4,1.3-0.4,2v1.8c0,0.7,0.1,1.5,0.4,2.1
		c0.2,0.4,0.7,0.7,1.1,0.7c0.4,0,0.9-0.2,1.1-0.6c0.3-0.6,0.4-1.3,0.4-2L-2089.1-9558.5z M-2081.8-9556.9c0.1,1-0.1,2.1-0.6,3
		c-0.9,1.2-2.5,1.3-3.5,0.3c-0.1-0.1-0.2-0.2-0.2-0.3c-0.5-0.8-0.7-1.8-0.6-2.8v-1.5c-0.1-1,0.1-2,0.6-2.9c0.9-1.2,2.6-1.3,3.6-0.2
		c0.1,0.1,0.1,0.1,0.2,0.2c0.5,0.9,0.7,1.8,0.6,2.8L-2081.8-9556.9z M-2082.8-9558.5c0-0.7-0.1-1.4-0.4-2.1
		c-0.2-0.4-0.7-0.7-1.1-0.7c-0.5,0-0.9,0.2-1.1,0.7c-0.3,0.6-0.4,1.3-0.4,2v1.8c0,0.7,0.1,1.5,0.4,2.1c0.2,0.4,0.7,0.7,1.1,0.7
		c0.4,0,0.9-0.2,1.1-0.6c0.3-0.6,0.4-1.3,0.4-2L-2082.8-9558.5z"/>
	<line id="Línea_188" class="st3" x1="-2162.4" y1="-9604.5" x2="-2162.4" y2="-9402"/>
	<line id="Línea_189" class="st3" x1="-2043.1" y1="-9604.5" x2="-2043.1" y2="-9402"/>
	<path id="Trazado_99550" class="st4" d="M-2319.5-9652h400v47.5h-400V-9652z"/>
	<path id="Trazado_102815" class="st1" d="M-2274.1-9627.8c0,0.9-0.3,1.7-0.7,2.5c-0.4,0.7-1,1.3-1.7,1.7c-0.8,0.4-1.7,0.6-2.5,0.6
		c-1.4,0.1-2.8-0.6-3.7-1.7c-1-1.4-1.4-3.1-1.4-4.8v-0.7c0-1.2,0.2-2.4,0.6-3.4c0.4-0.9,1-1.7,1.8-2.3c0.8-0.5,1.7-0.8,2.7-0.8
		c1.3-0.1,2.5,0.4,3.5,1.3c0.9,0.9,1.4,2.2,1.5,3.5h-2.9c0-0.6-0.2-1.3-0.5-1.8c-0.4-0.4-1-0.6-1.6-0.5c-0.6,0-1.2,0.3-1.6,0.9
		c-0.4,0.9-0.6,1.9-0.5,2.9v0.9c-0.1,1,0.1,2.1,0.5,3.1c0.4,0.6,1,1,1.6,0.9c0.5,0,1.1-0.1,1.5-0.5c0.4-0.4,0.6-1,0.6-1.7
		L-2274.1-9627.8z M-2263.4-9636.7v8.7c0,0.9-0.2,1.8-0.6,2.6c-0.4,0.7-0.9,1.3-1.6,1.7c-0.8,0.4-1.6,0.6-2.5,0.6
		c-1.2,0.1-2.5-0.4-3.4-1.3c-0.9-0.9-1.3-2.2-1.3-3.5v-8.8h2.9v8.9c0,1.5,0.6,2.2,1.8,2.2c0.5,0,1-0.2,1.4-0.5
		c0.3-0.5,0.5-1.1,0.5-1.8v-8.7H-2263.4z M-2254.2-9629h-4.5v3.2h5.3v2.5h-8.2v-13.4h8.2v2.5h-5.4v2.8h4.5L-2254.2-9629z
		 M-2242.3-9623.3h-2.9l-4.2-8.3v8.3h-2.9v-13.4h2.9l4.2,8.3v-8.3h2.9L-2242.3-9623.3z M-2231.1-9634.2h-3.6v10.9h-2.9v-10.9h-3.5
		v-2.5h10L-2231.1-9634.2z M-2224.1-9625.8h-3.9l-0.7,2.5h-3.1l4.4-13.4h2.7l4.4,13.4h-3.1L-2224.1-9625.8z M-2227.3-9628.3h2.6
		l-1.3-4.6L-2227.3-9628.3z"/>
	<path id="Trazado_102816" class="st1" d="M-2154.6-9621.6v-13.4h3.8c1,0,2,0.3,2.8,0.8c0.8,0.5,1.5,1.3,2,2.3
		c0.5,1,0.7,2.1,0.7,3.3v0.6c0,1.1-0.2,2.3-0.7,3.3c-0.4,0.9-1.1,1.7-1.9,2.3c-0.9,0.6-1.8,0.8-2.8,0.8H-2154.6z M-2151.7-9632.5
		v8.4h1c0.7,0,1.5-0.3,1.9-1c0.5-0.9,0.7-1.9,0.7-2.9v-0.6c0.1-1-0.2-2-0.7-2.9c-0.5-0.7-1.2-1-1.9-1H-2151.7z M-2136.4-9627.3h-4.5
		v3.2h5.3v2.5h-8.2v-13.4h8.2v2.5h-5.4v2.8h4.5V-9627.3z M-2139-9638.6h2.9l-2.3,2.9l-2.2,0L-2139-9638.6z M-2134.4-9621.6v-13.4
		h4.3c1.2-0.1,2.4,0.2,3.5,0.9c0.8,0.6,1.2,1.7,1.2,2.7c0,0.6-0.1,1.2-0.4,1.8c-0.3,0.5-0.7,0.9-1.3,1.1c0.6,0.1,1.1,0.5,1.4,1
		c0.3,0.5,0.5,1.2,0.5,1.8c0.1,1.1-0.3,2.2-1.1,2.9c-1,0.7-2.1,1.1-3.3,1H-2134.4z M-2131.5-9627.3v3.2h1.9c0.4,0,0.9-0.1,1.2-0.4
		c0.3-0.3,0.4-0.7,0.4-1.1c0.1-0.8-0.4-1.6-1.1-1.7c-0.1,0-0.2,0-0.4,0H-2131.5z M-2131.5-9629.4h1.5c0.5,0,0.9-0.1,1.3-0.4
		c0.3-0.3,0.4-0.7,0.4-1.1c0-0.5-0.1-0.9-0.4-1.2c-0.4-0.3-0.9-0.4-1.4-0.4h-1.4L-2131.5-9629.4z M-2120.5-9621.6h-2.9v-13.4h2.9
		V-9621.6z M-2109.2-9632.5h-3.6v10.9h-2.9v-10.9h-3.5v-2.5h10V-9632.5z M-2098.1-9628c0,1.2-0.2,2.4-0.6,3.5c-0.4,1-1,1.8-1.8,2.3
		c-0.8,0.5-1.8,0.8-2.7,0.8c-0.9,0-1.9-0.2-2.7-0.8c-0.8-0.5-1.4-1.3-1.8-2.2c-0.5-1-0.7-2.2-0.7-3.3v-0.8c0-1.2,0.2-2.4,0.6-3.5
		c0.4-1,1-1.8,1.8-2.3c0.8-0.6,1.8-0.8,2.7-0.8c0.9,0,1.9,0.3,2.7,0.8c0.8,0.5,1.4,1.3,1.8,2.3c0.5,1.1,0.7,2.2,0.7,3.4V-9628z
		 M-2101-9628.6c0.1-1-0.1-2.1-0.6-3c-0.4-0.7-1-1.1-1.7-1c-1.4,0-2.2,1.2-2.3,3.6l0,1c-0.1,1,0.1,2.1,0.6,3c0.4,0.7,1,1.1,1.7,1.1
		c0.7,0,1.3-0.4,1.7-1c0.4-0.9,0.6-1.9,0.6-3L-2101-9628.6z M-2090.5-9625.2c0-0.4-0.1-0.8-0.4-1.1c-0.5-0.4-1-0.6-1.6-0.8
		c-0.6-0.2-1.2-0.5-1.8-0.8c-1.5-0.8-2.3-2-2.3-3.5c0-0.7,0.2-1.4,0.6-2c0.4-0.6,1-1.1,1.6-1.3c0.8-0.3,1.6-0.5,2.4-0.5
		c0.8,0,1.6,0.2,2.3,0.5c0.6,0.3,1.2,0.8,1.6,1.5c0.4,0.6,0.6,1.4,0.6,2.2h-2.9c0-0.5-0.1-0.9-0.4-1.3c-0.3-0.3-0.8-0.5-1.2-0.4
		c-0.4,0-0.9,0.1-1.2,0.4c-0.3,0.2-0.4,0.6-0.4,1c0,0.4,0.2,0.7,0.5,0.9c0.5,0.4,1.1,0.7,1.7,0.9c0.7,0.2,1.4,0.6,2,1
		c1.2,0.6,1.9,2,1.9,3.4c0,1.1-0.4,2.1-1.2,2.8c-0.9,0.7-2.1,1.1-3.2,1c-0.9,0-1.8-0.2-2.6-0.6c-0.7-0.3-1.3-0.9-1.8-1.6
		c-0.4-0.7-0.6-1.5-0.6-2.3h2.9c0,0.6,0.1,1.2,0.5,1.6c0.5,0.4,1,0.6,1.6,0.5c0.4,0,0.8-0.1,1.1-0.3
		C-2090.6-9624.4-2090.4-9624.8-2090.5-9625.2z"/>
	<path id="Trazado_102817" class="st1" d="M-2018.6-9626.3c0,0.9-0.3,1.7-0.7,2.5c-0.4,0.7-1,1.3-1.7,1.7c-0.8,0.4-1.7,0.6-2.5,0.6
		c-1.4,0.1-2.8-0.6-3.7-1.7c-1-1.4-1.4-3.1-1.4-4.8v-0.7c0-1.2,0.2-2.4,0.6-3.4c0.4-0.9,1-1.7,1.8-2.3c0.8-0.5,1.7-0.8,2.7-0.8
		c1.3-0.1,2.5,0.4,3.5,1.3c0.9,0.9,1.4,2.2,1.5,3.5h-2.9c0-0.6-0.2-1.3-0.5-1.8c-0.4-0.4-1-0.6-1.6-0.5c-0.6,0-1.2,0.3-1.6,0.9
		c-0.4,0.9-0.6,1.9-0.5,2.9v0.9c-0.1,1,0.1,2.1,0.5,3.1c0.4,0.6,1,1,1.6,0.9c0.5,0,1.1-0.1,1.5-0.5c0.4-0.4,0.6-1,0.6-1.7
		L-2018.6-9626.3z M-2012.8-9626.5h-1.6v4.7h-2.9v-13.4h4.7c1.2-0.1,2.3,0.3,3.3,1.1c0.8,0.7,1.2,1.8,1.2,3c0,0.8-0.1,1.6-0.5,2.3
		c-0.4,0.7-0.9,1.2-1.6,1.5l2.5,5.4v0.1h-3.1L-2012.8-9626.5z M-2014.3-9629h1.8c0.5,0,0.9-0.1,1.2-0.5c0.3-0.4,0.4-0.9,0.4-1.3
		c0-0.5-0.1-1-0.4-1.4c-0.3-0.3-0.8-0.5-1.2-0.5h-1.8L-2014.3-9629z M-1998.9-9627.4h-4.5v3.2h5.3v2.5h-8.2v-13.4h8.2v2.5h-5.4v2.8
		h4.5L-1998.9-9627.4z M-2001.6-9638.7h2.9l-2.3,2.9l-2.2,0L-2001.6-9638.7z M-1996.9-9621.8v-13.4h3.8c1,0,2,0.3,2.8,0.8
		c0.8,0.5,1.5,1.3,2,2.3c0.5,1,0.7,2.1,0.7,3.3v0.6c0,1.1-0.2,2.3-0.7,3.3c-0.4,0.9-1.1,1.7-1.9,2.3c-0.9,0.6-1.8,0.8-2.8,0.8
		H-1996.9z M-1994-9632.6v8.4h1c0.7,0,1.5-0.3,1.9-1c0.5-0.9,0.7-1.9,0.7-2.9v-0.6c0.1-1-0.2-2-0.7-2.9c-0.5-0.7-1.2-1-1.9-1H-1994z
		 M-1983-9621.8h-2.9v-13.4h2.9V-9621.8z M-1971.7-9632.6h-3.6v10.9h-2.9v-10.9h-3.5v-2.5h10V-9632.6z M-1960.6-9628.2
		c0,1.2-0.2,2.4-0.6,3.5c-0.4,1-1,1.8-1.8,2.3c-0.8,0.5-1.8,0.8-2.7,0.8c-0.9,0-1.9-0.3-2.7-0.8c-0.8-0.5-1.4-1.3-1.8-2.2
		c-0.5-1-0.7-2.2-0.7-3.3v-0.8c0-1.2,0.2-2.4,0.6-3.5c0.4-1,1-1.8,1.8-2.3c0.8-0.6,1.8-0.8,2.7-0.8c0.9,0,1.9,0.3,2.7,0.8
		c0.8,0.5,1.4,1.3,1.8,2.3c0.5,1.1,0.7,2.2,0.7,3.4V-9628.2z M-1963.5-9628.7c0.1-1-0.1-2.1-0.6-3c-0.4-0.7-1-1.1-1.7-1
		c-1.4,0-2.2,1.2-2.3,3.6l0,1c-0.1,1,0.1,2.1,0.6,3c0.4,0.7,1,1.1,1.7,1.1c0.7,0,1.3-0.4,1.7-1c0.4-0.9,0.6-1.9,0.6-3V-9628.7z
		 M-1953-9625.3c0-0.4-0.1-0.8-0.4-1.1c-0.5-0.4-1-0.6-1.6-0.8c-0.6-0.2-1.2-0.5-1.8-0.8c-1.5-0.9-2.3-2-2.3-3.5
		c0-0.7,0.2-1.4,0.6-2c0.4-0.6,1-1.1,1.6-1.3c0.8-0.3,1.6-0.5,2.4-0.5c0.8,0,1.6,0.2,2.3,0.5c0.6,0.3,1.2,0.8,1.6,1.5
		c0.4,0.6,0.6,1.4,0.6,2.2h-2.9c0-0.5-0.1-0.9-0.4-1.3c-0.3-0.3-0.8-0.5-1.2-0.4c-0.4,0-0.9,0.1-1.2,0.4c-0.3,0.2-0.4,0.6-0.4,1
		c0,0.4,0.2,0.7,0.5,0.9c0.5,0.4,1.1,0.7,1.7,0.9c0.7,0.2,1.4,0.6,2,1c1.2,0.6,1.9,2,1.9,3.4c0,1.1-0.4,2.1-1.2,2.8
		c-1,0.7-2.1,1.1-3.2,1c-0.9,0-1.8-0.2-2.6-0.6c-0.7-0.3-1.3-0.9-1.8-1.6c-0.4-0.7-0.6-1.5-0.6-2.3h2.9c0,0.6,0.1,1.2,0.5,1.6
		c0.5,0.4,1,0.6,1.6,0.5c0.4,0,0.8-0.1,1.1-0.3C-1953.1-9624.6-1953-9624.9-1953-9625.3z"/>
</g>
</svg>
