<?xml version="1.0" encoding="utf-8"?>
<!-- Generator: Adobe Illustrator 25.2.3, SVG Export Plug-In . SVG Version: 6.00 Build 0)  -->
<svg version="1.1" id="Capa_1" xmlns="http://www.w3.org/2000/svg" xmlns:xlink="http://www.w3.org/1999/xlink" x="0px" y="0px"
	 viewBox="0 0 573 319.9" style="enable-background:new 0 0 573 319.9;" xml:space="preserve">
<style type="text/css">
	.st0{fill:#F6F6F6;}
	.st1{fill:#FFFFFF;}
	.st2{fill:#12263F;}
	.st3{font-family:'Roboto-Bold';}
	.st4{font-size:11.2723px;}
	.st5{font-family:'Roboto-Regular';}
	.st6{font-size:10.0199px;}
	.st7{fill:none;stroke:#AFAFAF;stroke-linecap:round;}
	.st8{fill:#D9A171;}
	.st9{font-size:15.0298px;}
</style>
<g id="Grupo_54975" transform="translate(2406 9686.711)">
	<rect id="Rectángulo_5446" x="-2319.5" y="-9589" class="st0" width="400" height="76.7"/>
	<rect id="Rectángulo_5447" x="-2319.5" y="-9514.5" class="st1" width="400" height="84.4"/>
	<text transform="matrix(1.1147 0 0 1 -2304.1426 -9563.3545)" class="st2 st3 st4">Pérdidas de </text>
	<text transform="matrix(1.1147 0 0 1 -2304.1426 -9546.4463)" class="st2 st3 st4">disponibles para la</text>
	<text transform="matrix(1.1147 0 0 1 -2304.1426 -9529.5371)" class="st2 st3 st4">venta</text>
	<text transform="matrix(1.1147 0 0 1 -2304.1426 -9495.0947)" class="st2 st3 st4">Inversiones </text>
	<text transform="matrix(1.1147 0 0 1 -2304.1426 -9478.1855)" class="st2 st3 st4">financieras a largo</text>
	<text transform="matrix(1.1147 0 0 1 -2304.1426 -9461.2773)" class="st2 st3 st4"> plazo en instrumentos </text>
	<text transform="matrix(1.1147 0 0 1 -2304.1426 -9444.3691)" class="st2 st3 st4">de patrimonio.</text>
	<text transform="matrix(1.1147 0 0 1 -2145.7021 -9547.9111)" class="st2 st5 st6">5.000.000,00</text>
	<line id="Línea_188" class="st7" x1="-2162.4" y1="-9589" x2="-2162.4" y2="-9427"/>
	<line id="Línea_189" class="st7" x1="-2043.1" y1="-9589" x2="-2043.1" y2="-9427"/>
	<path id="Trazado_99550" class="st8" d="M-2319.5-9627h400v38h-400V-9627z"/>
	<text transform="matrix(1.1147 0 0 1 -2284.6133 -9604.0605)" class="st1 st3 st9">CUENTA</text>
	<text transform="matrix(1.1147 0 0 1 -2155.4727 -9602.708)" class="st1 st3 st9">DÉBITOS</text>
	<text transform="matrix(1.1147 0 0 1 -2029.0947 -9602.8076)" class="st1 st3 st9">CRÉDITOS</text>
</g>
</svg>
