<?xml version="1.0" encoding="utf-8"?>
<!-- Generator: Adobe Illustrator 25.2.3, SVG Export Plug-In . SVG Version: 6.00 Build 0)  -->
<svg version="1.1" id="Capa_1" xmlns="http://www.w3.org/2000/svg" xmlns:xlink="http://www.w3.org/1999/xlink" x="0px" y="0px"
	 viewBox="0 0 573 341.4" style="enable-background:new 0 0 573 341.4;" xml:space="preserve">
<style type="text/css">
	.st0{fill:#F6F6F6;}
	.st1{fill:#FFFFFF;}
	.st2{fill:#12263F;}
	.st3{fill:none;stroke:#AFAFAF;stroke-linecap:round;}
	.st4{fill:#D9A171;}
</style>
<g id="Grupo_54976" transform="translate(1782 9686.711)">
	<rect id="Rectángulo_5449" x="-1695.5" y="-9596.6" class="st0" width="400" height="106.9"/>
	<rect id="Rectángulo_5448" x="-1695.5" y="-9489.7" class="st1" width="400" height="98.7"/>
	<path id="Trazado_102824" class="st2" d="M-1674.4-9568.3h-3l-0.5,1.8h-2.3l3.3-9.4h2l3.3,9.4h-2.3L-1674.4-9568.3z M-1676.8-9570
		h1.9l-1-3.2L-1676.8-9570z M-1668.2-9568.1c0.2,0,0.5-0.1,0.7-0.2c0.2-0.2,0.3-0.4,0.2-0.7h1.9c0,0.7-0.3,1.4-0.8,1.9
		c-0.6,0.5-1.3,0.8-2,0.7c-0.9,0-1.7-0.3-2.3-1c-0.6-0.7-0.9-1.7-0.8-2.6v-0.1c0-0.6,0.1-1.3,0.4-1.9c0.2-0.5,0.6-1,1.1-1.2
		c0.5-0.3,1.1-0.5,1.7-0.4c0.8,0,1.5,0.2,2.1,0.8c0.5,0.5,0.8,1.3,0.8,2h-1.9c0-0.3-0.1-0.6-0.3-0.8c-0.2-0.2-0.4-0.3-0.7-0.3
		c-0.5,0-0.8,0.4-0.9,1.1c0,0.3,0,0.6,0,0.9c0,0.5,0,1,0.2,1.5C-1668.8-9568.2-1668.5-9568.1-1668.2-9568.1z M-1662.1-9575.2v1.7
		h1.1v1.5h-1.1v3.2c0,0.2,0,0.4,0.1,0.5c0.2,0.1,0.3,0.2,0.5,0.2c0.2,0,0.3,0,0.5,0v1.6c-0.4,0.1-0.8,0.2-1.2,0.2
		c-0.6,0.1-1.1-0.1-1.6-0.5c-0.4-0.4-0.6-1-0.5-1.6v-3.5h-0.8v-1.5h0.8v-1.7H-1662.1z M-1658-9566.5h-2.1v-7h2.1V-9566.5z
		 M-1660.2-9575.3c0-0.3,0.1-0.6,0.3-0.8c0.5-0.4,1.2-0.4,1.7,0c0.2,0.2,0.3,0.5,0.3,0.8c0,0.3-0.1,0.6-0.3,0.8
		c-0.5,0.4-1.2,0.4-1.7,0C-1660.1-9574.7-1660.2-9575-1660.2-9575.3z M-1654.1-9569.1l1-4.4h2.2l-2.2,7h-2.1l-2.2-7h2.2
		L-1654.1-9569.1z M-1650.6-9570.1c0-0.6,0.1-1.3,0.4-1.9c0.2-0.5,0.6-1,1.1-1.3c0.5-0.3,1.1-0.5,1.7-0.4c0.9,0,1.7,0.3,2.3,1
		c0.6,0.7,0.9,1.7,0.9,2.6v0.1c0,0.9-0.3,1.9-0.9,2.6c-0.6,0.7-1.5,1-2.3,1c-0.8,0-1.7-0.3-2.3-0.9c-0.6-0.7-0.9-1.5-0.9-2.4
		L-1650.6-9570.1z M-1648.5-9570c0,0.5,0.1,1,0.3,1.4c0.2,0.3,0.5,0.5,0.9,0.5c0.7,0,1.1-0.6,1.1-1.8v-0.2c0-1.2-0.4-1.9-1.1-1.9
		c-0.7,0-1.1,0.5-1.1,1.6L-1648.5-9570z M-1639.8-9568.5c0-0.2-0.1-0.4-0.3-0.4c-0.3-0.2-0.7-0.3-1-0.3c-0.4-0.1-0.9-0.3-1.3-0.5
		c-0.3-0.2-0.6-0.4-0.8-0.7c-0.2-0.3-0.3-0.6-0.3-1c0-0.6,0.3-1.2,0.8-1.6c0.6-0.4,1.3-0.7,2-0.6c0.7,0,1.5,0.2,2.1,0.6
		c0.5,0.4,0.8,1,0.8,1.6h-2.1c0-0.6-0.3-0.8-0.8-0.8c-0.2,0-0.4,0.1-0.5,0.2c-0.1,0.1-0.2,0.3-0.2,0.5c0,0.2,0.1,0.4,0.3,0.5
		c0.3,0.2,0.6,0.2,0.9,0.3c0.4,0.1,0.7,0.2,1,0.3c0.9,0.2,1.5,1,1.5,1.9c0,0.6-0.3,1.2-0.8,1.6c-0.6,0.4-1.4,0.6-2.1,0.6
		c-0.5,0-1-0.1-1.5-0.3c-0.4-0.2-0.8-0.5-1-0.9c-0.2-0.3-0.4-0.7-0.4-1.2h1.9c0,0.3,0.1,0.5,0.3,0.7c0.2,0.2,0.5,0.2,0.8,0.2
		c0.2,0,0.4,0,0.6-0.2C-1639.9-9568.2-1639.8-9568.3-1639.8-9568.5L-1639.8-9568.5z M-1627.5-9570c0,0.9-0.2,1.8-0.7,2.6
		c-0.4,0.6-1.1,1-1.9,1c-0.6,0-1.1-0.2-1.5-0.7v3.2h-2.1v-9.6h1.9l0.1,0.6c0.4-0.5,1-0.8,1.6-0.8c0.7,0,1.5,0.3,1.9,1
		c0.5,0.8,0.7,1.7,0.7,2.6L-1627.5-9570z M-1629.6-9570.1c0-1.2-0.3-1.9-1-1.9c-0.4,0-0.8,0.2-1,0.6v2.7c0.2,0.4,0.6,0.6,1,0.6
		c0.7,0,1-0.6,1-1.8V-9570.1z M-1626.9-9570.1c0-0.6,0.1-1.3,0.4-1.9c0.2-0.5,0.6-1,1.1-1.3c0.5-0.3,1.1-0.5,1.7-0.4
		c0.9,0,1.7,0.3,2.3,1c0.6,0.7,0.9,1.7,0.9,2.6v0.1c0,0.9-0.3,1.9-0.9,2.6c-0.6,0.7-1.5,1-2.3,1c-0.8,0-1.7-0.3-2.3-0.9
		c-0.6-0.6-0.9-1.5-0.9-2.4L-1626.9-9570.1z M-1624.8-9570c0,0.5,0.1,1,0.3,1.4c0.2,0.3,0.5,0.5,0.9,0.5c0.7,0,1.1-0.6,1.1-1.8v-0.2
		c0-1.2-0.4-1.9-1.1-1.9c-0.7,0-1.1,0.5-1.1,1.6L-1624.8-9570z M-1615.5-9571.5l-0.7-0.1c-0.5-0.1-1,0.2-1.3,0.6v4.4h-2.1v-7h1.9
		l0.1,0.9c0.2-0.6,0.8-1,1.5-1c0.2,0,0.4,0,0.6,0.1L-1615.5-9571.5z M-1611.9-9570.1c0-0.9,0.2-1.8,0.7-2.6c0.4-0.6,1.2-1,1.9-1
		c0.6,0,1.1,0.3,1.5,0.7v-3.5h2.1v9.9h-1.9l-0.1-0.7c-0.4,0.6-1,0.9-1.6,0.9c-0.7,0-1.4-0.3-1.9-1
		C-1611.7-9568.2-1612-9569.1-1611.9-9570.1L-1611.9-9570.1z M-1609.9-9570c0,1.2,0.3,1.9,1,1.9c0.4,0,0.8-0.2,1-0.6v-2.6
		c-0.2-0.4-0.6-0.6-1-0.6c-0.6,0-1,0.5-1,1.6L-1609.9-9570z M-1601.4-9566.4c-0.9,0-1.8-0.3-2.5-1c-0.6-0.7-1-1.6-0.9-2.5v-0.2
		c0-0.7,0.1-1.3,0.4-1.9c0.2-0.5,0.6-1,1.1-1.3c0.5-0.3,1.1-0.5,1.7-0.4c0.8,0,1.6,0.3,2.2,0.9c0.6,0.7,0.9,1.6,0.8,2.5v0.8h-4.1
		c0.1,0.4,0.2,0.7,0.5,0.9c0.3,0.2,0.6,0.4,1,0.3c0.6,0,1.2-0.2,1.5-0.7l0.9,1.2c-0.3,0.4-0.7,0.7-1.1,0.9
		C-1600.3-9566.5-1600.9-9566.4-1601.4-9566.4L-1601.4-9566.4z M-1601.6-9572c-0.6,0-1,0.4-1.1,1.3h2.1v-0.2c0-0.3-0.1-0.6-0.3-0.8
		C-1601.1-9571.9-1601.3-9572-1601.6-9572L-1601.6-9572z M-1593.7-9571.6l-0.7-0.1c-0.5-0.1-1,0.2-1.3,0.6v4.4h-2.1v-7h1.9l0.1,0.9
		c0.2-0.6,0.8-1,1.5-1c0.2,0,0.4,0,0.6,0.1L-1593.7-9571.6z M-1590.8-9566.5h-2.1v-7h2.1V-9566.5z M-1593-9575.3
		c0-0.3,0.1-0.6,0.3-0.8c0.5-0.4,1.2-0.4,1.7,0c0.2,0.2,0.3,0.5,0.3,0.8c0,0.3-0.1,0.6-0.3,0.8c-0.5,0.4-1.2,0.4-1.7,0
		C-1592.9-9574.7-1593-9575-1593-9575.3z M-1586.9-9569.1l1-4.4h2.2l-2.2,7h-2.1l-2.2-7h2.2L-1586.9-9569.1z M-1579.4-9566.5
		c-0.1-0.2-0.2-0.4-0.2-0.6c-0.4,0.5-1,0.8-1.6,0.8c-0.6,0-1.2-0.2-1.6-0.6c-0.4-0.4-0.7-0.9-0.7-1.5c0-0.7,0.3-1.3,0.8-1.7
		c0.7-0.4,1.5-0.6,2.3-0.6h0.6v-0.4c0-0.6-0.3-1-0.8-1c-0.4-0.1-0.7,0.2-0.7,0.6c0,0.1,0,0.1,0,0.2h-2.1c0-0.7,0.3-1.3,0.8-1.6
		c0.6-0.4,1.3-0.7,2.1-0.6c0.7,0,1.4,0.2,2,0.6c0.5,0.4,0.8,1.1,0.8,1.8v3.1c0,0.5,0.1,1,0.3,1.5v0.1H-1579.4z M-1580.7-9568
		c0.2,0,0.4-0.1,0.6-0.2c0.2-0.1,0.3-0.2,0.4-0.4v-1.1h-0.6c-0.7,0-1.1,0.3-1.1,1c0,0.2,0.1,0.4,0.2,0.5
		C-1581.1-9568-1580.9-9568-1580.7-9568L-1580.7-9568z M-1576.7-9570.1c0-0.9,0.2-1.8,0.7-2.6c0.4-0.6,1.2-1,1.9-1
		c0.6,0,1.1,0.3,1.5,0.7v-3.5h2.1v9.9h-1.9l-0.1-0.7c-0.4,0.6-1,0.9-1.6,0.9c-0.7,0-1.4-0.3-1.9-1
		C-1576.5-9568.2-1576.8-9569.1-1576.7-9570.1L-1576.7-9570.1z M-1574.7-9569.9c0,1.2,0.3,1.9,1,1.9c0.4,0,0.8-0.2,1-0.6v-2.7
		c-0.2-0.4-0.6-0.6-1-0.6c-0.6,0-1,0.5-1,1.6L-1574.7-9569.9z M-1569.7-9570.1c0-0.6,0.1-1.3,0.4-1.9c0.2-0.5,0.6-1,1.1-1.3
		c0.5-0.3,1.1-0.5,1.7-0.4c0.9,0,1.7,0.3,2.3,1c0.6,0.7,0.9,1.7,0.9,2.6v0.1c0,0.9-0.3,1.9-0.9,2.6c-0.6,0.7-1.5,1-2.3,1
		c-0.8,0-1.7-0.3-2.3-0.9c-0.6-0.6-0.9-1.5-0.9-2.4L-1569.7-9570.1z M-1567.6-9570c0,0.5,0.1,1,0.3,1.4c0.2,0.3,0.5,0.5,0.9,0.5
		c0.7,0,1.1-0.6,1.1-1.8v-0.2c0-1.2-0.4-1.9-1.1-1.9c-0.7,0-1.1,0.5-1.1,1.6L-1567.6-9570z M-1558.9-9568.5c0-0.2-0.1-0.4-0.3-0.4
		c-0.3-0.2-0.7-0.3-1-0.3c-0.4-0.1-0.9-0.3-1.3-0.5c-0.3-0.2-0.6-0.4-0.8-0.7c-0.2-0.3-0.3-0.6-0.3-1c0-0.6,0.3-1.2,0.8-1.6
		c0.6-0.4,1.3-0.7,2-0.6c0.7,0,1.5,0.2,2.1,0.6c0.5,0.4,0.8,1,0.8,1.6h-2.1c0-0.6-0.3-0.8-0.8-0.8c-0.2,0-0.4,0.1-0.5,0.2
		c-0.1,0.1-0.2,0.3-0.2,0.5c0,0.2,0.1,0.4,0.3,0.5c0.3,0.2,0.6,0.2,0.9,0.3c0.4,0.1,0.7,0.2,1,0.3c0.9,0.2,1.5,1,1.5,1.9
		c0,0.6-0.3,1.2-0.8,1.6c-0.6,0.4-1.4,0.6-2.1,0.6c-0.5,0-1-0.1-1.5-0.3c-0.4-0.2-0.8-0.5-1-0.9c-0.2-0.3-0.4-0.7-0.4-1.2h1.9
		c0,0.3,0.1,0.5,0.3,0.7c0.2,0.2,0.5,0.2,0.8,0.2c0.2,0,0.4,0,0.6-0.2C-1558.9-9568.2-1558.9-9568.3-1558.9-9568.5L-1558.9-9568.5z
		 M-1679.1-9546.8v-5.5h-1v-1.5h1v-0.2c0-0.8,0.3-1.6,0.9-2.1c0.7-0.5,1.5-0.7,2.3-0.7c0.7,0,1.5,0.1,2.2,0.4l-0.3,1.7l-0.3-0.1
		c-0.5-0.1-0.9-0.2-1.4-0.2c-0.8,0-1.2,0.4-1.2,1.1v0.1h1.3v1.5h-1.3v5.5H-1679.1z M-1672.8-9546.8h-2.1v-7h2.1L-1672.8-9546.8z
		 M-1669.7-9553.7l0.1,0.8c0.4-0.6,1.2-1,1.9-0.9c0.6,0,1.2,0.2,1.5,0.7c0.4,0.6,0.6,1.3,0.5,2v4.5h-2.1v-4.4c0-0.3,0-0.5-0.2-0.8
		c-0.2-0.2-0.5-0.3-0.7-0.2c-0.4,0-0.7,0.2-0.9,0.5v4.9h-2.1v-7H-1669.7z M-1660.7-9546.8c-0.1-0.2-0.2-0.4-0.2-0.6
		c-0.4,0.5-1,0.8-1.6,0.8c-0.6,0-1.2-0.2-1.6-0.6c-0.4-0.4-0.7-0.9-0.7-1.5c0-0.7,0.3-1.3,0.8-1.7c0.7-0.4,1.5-0.6,2.3-0.6h0.6v-0.4
		c0-0.6-0.3-1-0.8-1c-0.4-0.1-0.7,0.2-0.7,0.6c0,0.1,0,0.1,0,0.2h-2.1c0-0.7,0.3-1.3,0.8-1.6c0.6-0.4,1.3-0.7,2.1-0.6
		c0.7,0,1.4,0.2,2,0.7c0.5,0.4,0.8,1.1,0.8,1.8v3.1c0,0.5,0.1,1,0.3,1.5v0.1H-1660.7z M-1662-9548.2c0.2,0,0.4-0.1,0.6-0.2
		c0.2-0.1,0.3-0.2,0.4-0.4v-1.1h-0.6c-0.7,0-1.1,0.3-1.1,1c0,0.2,0.1,0.4,0.2,0.5C-1662.4-9548.3-1662.2-9548.2-1662-9548.2z
		 M-1655.9-9553.7l0.1,0.8c0.4-0.6,1.2-1,1.9-0.9c0.6,0,1.2,0.2,1.5,0.7c0.4,0.6,0.6,1.3,0.5,2v4.5h-2.1v-4.4c0-0.3,0-0.5-0.2-0.8
		c-0.2-0.2-0.5-0.3-0.7-0.2c-0.4,0-0.7,0.2-0.9,0.5v4.9h-2.1v-7H-1655.9z M-1647.9-9548.3c0.2,0,0.5-0.1,0.7-0.2
		c0.2-0.2,0.3-0.4,0.2-0.7h1.9c0,0.7-0.3,1.4-0.8,1.9c-0.6,0.5-1.3,0.8-2,0.7c-0.9,0-1.7-0.3-2.3-1c-0.6-0.7-0.9-1.7-0.8-2.6v-0.1
		c0-0.6,0.1-1.3,0.4-1.9c0.2-0.5,0.6-1,1.1-1.2c0.5-0.3,1.1-0.5,1.7-0.4c0.8,0,1.5,0.2,2.1,0.8c0.5,0.5,0.8,1.3,0.8,2h-1.9
		c0-0.3-0.1-0.6-0.3-0.8c-0.2-0.2-0.4-0.3-0.7-0.3c-0.5,0-0.8,0.4-0.9,1.1c0,0.3,0,0.6,0,0.9c0,0.5,0,1,0.2,1.5
		C-1648.5-9548.5-1648.2-9548.3-1647.9-9548.3L-1647.9-9548.3z M-1642-9546.8h-2.1v-7h2.1L-1642-9546.8z M-1644.2-9555.5
		c0-0.3,0.1-0.6,0.3-0.8c0.5-0.4,1.2-0.4,1.7,0c0.4,0.4,0.4,1,0.1,1.5c0,0,0,0-0.1,0.1c-0.5,0.4-1.2,0.4-1.7,0
		C-1644.1-9555-1644.2-9555.2-1644.2-9555.5z M-1637.5-9546.7c-0.9,0-1.8-0.3-2.5-1c-0.6-0.7-1-1.6-0.9-2.5v-0.2
		c0-0.7,0.1-1.3,0.4-1.9c0.2-0.5,0.6-1,1.1-1.3c0.5-0.3,1.1-0.5,1.7-0.4c0.8,0,1.6,0.3,2.2,0.9c0.6,0.7,0.9,1.6,0.8,2.5v0.8h-4.1
		c0.1,0.4,0.2,0.7,0.5,0.9c0.3,0.2,0.6,0.4,1,0.3c0.6,0,1.2-0.2,1.5-0.7l0.9,1.2c-0.3,0.4-0.7,0.7-1.1,0.9
		C-1636.5-9546.8-1637-9546.6-1637.5-9546.7z M-1637.8-9552.2c-0.6,0-1,0.4-1.1,1.3h2.1v-0.2c0-0.3-0.1-0.6-0.3-0.8
		C-1637.2-9552.1-1637.5-9552.2-1637.8-9552.2z M-1629.9-9551.8l-0.7-0.1c-0.5-0.1-1,0.2-1.3,0.6v4.4h-2.1v-7h1.9l0.1,0.9
		c0.2-0.6,0.8-1,1.5-1c0.2,0,0.4,0,0.6,0.1L-1629.9-9551.8z M-1629.6-9550.3c0-0.6,0.1-1.3,0.4-1.9c0.2-0.5,0.6-1,1.1-1.3
		c0.5-0.3,1.1-0.5,1.7-0.4c0.9,0,1.7,0.3,2.3,1c0.6,0.7,0.9,1.7,0.9,2.6v0.1c0,0.9-0.3,1.9-0.9,2.6c-0.6,0.7-1.5,1-2.3,1
		c-0.8,0-1.7-0.3-2.3-0.9c-0.6-0.6-0.9-1.5-0.9-2.4L-1629.6-9550.3z M-1627.6-9550.2c0,0.5,0.1,1,0.3,1.4c0.2,0.3,0.5,0.5,0.9,0.5
		c0.7,0,1.1-0.6,1.1-1.8v-0.2c0-1.2-0.4-1.9-1.1-1.9c-0.7,0-1.1,0.5-1.1,1.6L-1627.6-9550.2z M-1618.8-9548.7c0-0.2-0.1-0.4-0.3-0.4
		c-0.3-0.2-0.7-0.3-1-0.3c-0.4-0.1-0.9-0.3-1.3-0.5c-0.3-0.2-0.6-0.4-0.8-0.7c-0.2-0.3-0.3-0.6-0.3-1c0-0.6,0.3-1.2,0.8-1.6
		c0.6-0.4,1.3-0.7,2-0.6c0.7,0,1.5,0.2,2.1,0.6c0.5,0.4,0.8,1,0.8,1.6h-2.1c0-0.6-0.3-0.8-0.8-0.8c-0.2,0-0.4,0.1-0.5,0.2
		c-0.1,0.1-0.2,0.3-0.2,0.5c0,0.2,0.1,0.4,0.3,0.5c0.3,0.2,0.6,0.2,0.9,0.3c0.4,0.1,0.7,0.2,1,0.3c0.9,0.2,1.5,1,1.5,1.9
		c0,0.6-0.3,1.2-0.8,1.6c-0.6,0.4-1.4,0.6-2.1,0.6c-0.5,0-1-0.1-1.5-0.3c-0.4-0.2-0.8-0.5-1-0.9c-0.2-0.3-0.4-0.7-0.4-1.2h1.9
		c0,0.3,0.1,0.5,0.3,0.7c0.2,0.2,0.5,0.2,0.8,0.2c0.2,0,0.4,0,0.6-0.2C-1618.9-9548.4-1618.8-9548.6-1618.8-9548.7L-1618.8-9548.7z
		 M-1609-9546.8c-0.1-0.2-0.2-0.4-0.2-0.6c-0.4,0.5-1,0.8-1.6,0.8c-0.6,0-1.2-0.2-1.6-0.6c-0.4-0.4-0.7-0.9-0.7-1.5
		c0-0.7,0.3-1.3,0.8-1.7c0.7-0.4,1.5-0.6,2.3-0.6h0.6v-0.4c0-0.6-0.3-1-0.8-1c-0.4-0.1-0.7,0.2-0.7,0.6c0,0.1,0,0.1,0,0.2h-2.1
		c0-0.7,0.3-1.3,0.8-1.6c0.6-0.4,1.3-0.7,2.1-0.6c0.7,0,1.4,0.2,2,0.7c0.5,0.4,0.8,1.1,0.8,1.8v3.1c0,0.5,0.1,1,0.3,1.5v0.1H-1609z
		 M-1610.3-9548.2c0.2,0,0.4-0.1,0.6-0.2c0.2-0.1,0.3-0.2,0.4-0.4v-1.1h-0.6c-0.7,0-1.1,0.3-1.1,1c0,0.2,0.1,0.4,0.2,0.5
		C-1610.7-9548.3-1610.5-9548.2-1610.3-9548.2z M-1600.8-9546.8h-2.1v-9.9h2.1V-9546.8z M-1595.8-9546.8c-0.1-0.2-0.2-0.4-0.2-0.6
		c-0.4,0.5-1,0.8-1.6,0.8c-0.6,0-1.2-0.2-1.6-0.6c-0.4-0.4-0.7-0.9-0.7-1.5c0-0.7,0.3-1.3,0.8-1.7c0.7-0.4,1.5-0.6,2.3-0.6h0.6v-0.4
		c0-0.6-0.3-1-0.8-1c-0.4-0.1-0.7,0.2-0.7,0.6c0,0.1,0,0.1,0,0.2h-2.1c0-0.7,0.3-1.3,0.8-1.6c0.6-0.4,1.3-0.7,2.1-0.6
		c0.7,0,1.4,0.2,2,0.7c0.5,0.4,0.8,1.1,0.8,1.8v3.1c0,0.5,0.1,1,0.3,1.5v0.1H-1595.8z M-1597.1-9548.2c0.2,0,0.4-0.1,0.6-0.2
		c0.2-0.1,0.3-0.2,0.4-0.4v-1.1h-0.6c-0.7,0-1.1,0.3-1.1,1c0,0.2,0.1,0.4,0.2,0.5C-1597.4-9548.3-1597.2-9548.2-1597.1-9548.2
		L-1597.1-9548.2z M-1588.8-9551.8l-0.7-0.1c-0.5-0.1-1,0.2-1.3,0.6v4.4h-2.1v-7h1.9l0.1,0.9c0.2-0.6,0.8-1,1.5-1
		c0.2,0,0.4,0,0.6,0.1L-1588.8-9551.8z M-1588.3-9550.3c0-0.6,0.1-1.3,0.3-1.9c0.2-0.5,0.5-0.9,1-1.3c0.4-0.3,0.9-0.5,1.4-0.4
		c0.6,0,1.2,0.2,1.6,0.7l0.1-0.6h1.9v6.7c0,0.6-0.1,1.1-0.4,1.6c-0.3,0.5-0.7,0.8-1.2,1c-0.6,0.3-1.2,0.4-1.8,0.4
		c-0.5,0-1-0.1-1.4-0.3c-0.4-0.2-0.8-0.4-1-0.8l0.9-1.3c0.4,0.5,0.9,0.7,1.5,0.7c0.7,0.1,1.3-0.4,1.4-1.1c0-0.1,0-0.2,0-0.4v-0.2
		c-0.4,0.5-0.9,0.7-1.5,0.7c-0.8,0-1.5-0.3-2-1C-1588.1-9548.4-1588.4-9549.3-1588.3-9550.3L-1588.3-9550.3z M-1586.2-9550.2
		c0,0.5,0.1,0.9,0.3,1.4c0.2,0.3,0.5,0.5,0.9,0.5c0.4,0,0.8-0.1,1-0.5v-2.9c-0.2-0.3-0.6-0.5-1-0.5c-0.4,0-0.7,0.2-0.9,0.5
		C-1586.2-9551.2-1586.3-9550.7-1586.2-9550.2L-1586.2-9550.2z M-1581.1-9550.3c0-0.6,0.1-1.3,0.4-1.9c0.2-0.5,0.6-1,1.1-1.3
		c0.5-0.3,1.1-0.5,1.7-0.4c0.9,0,1.7,0.3,2.3,1c0.6,0.7,0.9,1.7,0.9,2.6v0.1c0,0.9-0.3,1.9-0.9,2.6c-0.6,0.7-1.5,1-2.3,1
		c-0.8,0-1.7-0.3-2.3-0.9c-0.6-0.6-0.9-1.5-0.9-2.4L-1581.1-9550.3z M-1579-9550.2c0,0.5,0.1,1,0.3,1.4c0.2,0.3,0.5,0.5,0.9,0.5
		c0.7,0,1.1-0.6,1.1-1.8v-0.2c0-1.2-0.4-1.9-1.1-1.9c-0.7,0-1.1,0.5-1.1,1.6L-1579-9550.2z M-1673.4-9530.4c0,0.9-0.2,1.8-0.7,2.6
		c-0.4,0.6-1.1,1-1.9,1c-0.6,0-1.1-0.2-1.5-0.7v3.2h-2.1v-9.6h1.9l0.1,0.6c0.4-0.5,1-0.8,1.6-0.8c0.7,0,1.5,0.3,1.9,1
		c0.5,0.8,0.7,1.7,0.7,2.6V-9530.4z M-1675.5-9530.6c0-1.2-0.3-1.9-1-1.9c-0.4,0-0.8,0.2-1,0.6v2.7c0.2,0.4,0.6,0.6,1,0.6
		c0.7,0,1-0.6,1-1.8L-1675.5-9530.6z M-1670.3-9527h-2.1v-9.9h2.1V-9527z M-1665.3-9527c-0.1-0.2-0.2-0.4-0.2-0.6
		c-0.4,0.5-1,0.8-1.6,0.8c-0.6,0-1.2-0.2-1.6-0.6c-0.4-0.4-0.7-0.9-0.7-1.5c0-0.7,0.3-1.3,0.8-1.7c0.7-0.4,1.5-0.6,2.3-0.6h0.6v-0.4
		c0-0.6-0.3-1-0.8-1c-0.4-0.1-0.7,0.2-0.7,0.6c0,0.1,0,0.1,0,0.2h-2.1c0-0.7,0.3-1.3,0.8-1.6c0.6-0.4,1.3-0.7,2.1-0.6
		c0.7,0,1.4,0.2,2,0.7c0.5,0.4,0.8,1.1,0.8,1.8v3.1c0,0.5,0.1,1,0.3,1.5v0.1H-1665.3z M-1666.6-9528.4c0.2,0,0.4-0.1,0.6-0.2
		c0.2-0.1,0.3-0.2,0.4-0.4v-1.1h-0.6c-0.7,0-1.1,0.3-1.1,1c0,0.2,0.1,0.4,0.2,0.5C-1666.9-9528.5-1666.8-9528.4-1666.6-9528.4
		L-1666.6-9528.4z M-1659.9-9528.7h3v1.7h-5.6v-1.2l2.9-4.1h-2.8v-1.7h5.4v1.2L-1659.9-9528.7z M-1656.3-9530.6
		c0-0.6,0.1-1.3,0.4-1.9c0.2-0.5,0.6-1,1.1-1.3c0.5-0.3,1.1-0.5,1.7-0.4c0.9,0,1.7,0.3,2.3,1c0.6,0.7,0.9,1.7,0.9,2.6v0.1
		c0,0.9-0.3,1.9-0.9,2.6c-0.6,0.7-1.5,1-2.3,1c-0.8,0-1.7-0.3-2.3-0.9c-0.6-0.7-0.9-1.5-0.9-2.4L-1656.3-9530.6z M-1654.2-9530.4
		c0,0.5,0.1,1,0.3,1.4c0.2,0.3,0.5,0.5,0.9,0.5c0.7,0,1.1-0.6,1.1-1.8v-0.2c0-1.2-0.4-1.9-1.1-1.9c-0.7,0-1.1,0.5-1.1,1.6
		L-1654.2-9530.4z M-1648.2-9524.5l-1-0.5l0.2-0.4c0.3-0.5,0.4-1,0.4-1.6v-1.6h1.7l0,1.4c0,0.5-0.1,1-0.4,1.5
		C-1647.5-9525.3-1647.8-9524.8-1648.2-9524.5L-1648.2-9524.5z M-1640.2-9527h-2.1v-7h2.1L-1640.2-9527z M-1642.4-9535.8
		c0-0.3,0.1-0.6,0.3-0.8c0.5-0.4,1.2-0.4,1.7,0c0.4,0.4,0.4,1,0.1,1.5c0,0,0,0-0.1,0.1c-0.5,0.4-1.2,0.4-1.7,0
		C-1642.3-9535.2-1642.4-9535.5-1642.4-9535.8z M-1637.1-9534l0.1,0.8c0.4-0.6,1.2-1,1.9-0.9c0.6,0,1.2,0.2,1.5,0.7
		c0.4,0.6,0.6,1.3,0.5,2v4.5h-2.1v-4.4c0-0.3,0-0.6-0.2-0.8c-0.2-0.2-0.5-0.3-0.7-0.2c-0.4,0-0.7,0.2-0.9,0.5v4.9h-2.1v-7H-1637.1z
		 M-1628.4-9529c0-0.2-0.1-0.4-0.3-0.4c-0.3-0.2-0.7-0.3-1-0.3c-0.4-0.1-0.9-0.3-1.3-0.5c-0.3-0.2-0.6-0.4-0.8-0.7
		c-0.2-0.3-0.3-0.6-0.3-1c0-0.6,0.3-1.2,0.8-1.6c0.6-0.4,1.3-0.7,2-0.6c0.7,0,1.5,0.2,2.1,0.6c0.5,0.4,0.8,1,0.8,1.6h-2.1
		c0-0.6-0.3-0.8-0.8-0.8c-0.2,0-0.4,0.1-0.5,0.2c-0.1,0.1-0.2,0.3-0.2,0.5c0,0.2,0.1,0.4,0.3,0.5c0.3,0.2,0.6,0.2,0.9,0.3
		c0.4,0.1,0.7,0.2,1,0.3c0.9,0.2,1.5,1,1.5,1.9c0,0.6-0.3,1.2-0.8,1.6c-0.6,0.4-1.4,0.6-2.1,0.6c-0.5,0-1-0.1-1.5-0.3
		c-0.4-0.2-0.8-0.5-1-0.9c-0.2-0.3-0.4-0.7-0.4-1.2h1.9c0,0.3,0.1,0.5,0.3,0.7c0.2,0.2,0.5,0.2,0.8,0.2c0.2,0,0.4,0,0.6-0.2
		C-1628.5-9528.6-1628.4-9528.8-1628.4-9529L-1628.4-9529z M-1623-9535.7v1.7h1.1v1.5h-1.1v3.2c0,0.2,0,0.4,0.1,0.5
		c0.2,0.1,0.3,0.2,0.5,0.2c0.2,0,0.3,0,0.5,0v1.6c-0.4,0.1-0.8,0.2-1.2,0.2c-0.6,0.1-1.1-0.1-1.6-0.5c-0.4-0.4-0.6-1-0.5-1.6v-3.5
		h-0.8v-1.5h0.8v-1.7L-1623-9535.7z M-1617.1-9532l-0.7-0.1c-0.5-0.1-1,0.2-1.3,0.6v4.4h-2.1v-7h1.9l0.1,0.9c0.2-0.6,0.8-1,1.5-1
		c0.2,0,0.4,0,0.6,0.1L-1617.1-9532z M-1612.4-9527.8c-0.4,0.6-1.1,0.9-1.8,0.9c-0.6,0-1.2-0.2-1.7-0.7c-0.4-0.5-0.6-1.2-0.6-1.9
		v-4.5h2.1v4.5c-0.1,0.4,0.2,0.8,0.6,0.9c0.1,0,0.1,0,0.2,0c0.4,0,0.8-0.2,1-0.5v-4.9h2.1v7h-1.9L-1612.4-9527.8z M-1607.3-9534
		l0.1,0.8c0.4-0.6,1.2-1,1.9-0.9c0.7-0.1,1.4,0.4,1.7,1c0.4-0.7,1.2-1.1,2-1c1.3,0,2,0.9,2.1,2.6v4.5h-2.1v-4.4c0-0.3,0-0.5-0.2-0.8
		c-0.2-0.2-0.4-0.3-0.6-0.2c-0.4,0-0.7,0.2-0.9,0.6l0,0.1v4.8h-2.1v-4.4c0-0.3,0-0.6-0.2-0.8c-0.2-0.2-0.4-0.3-0.6-0.2
		c-0.4,0-0.7,0.2-0.9,0.6v4.8h-2.1v-7H-1607.3z M-1595.3-9526.9c-0.9,0-1.8-0.3-2.5-1c-0.6-0.7-1-1.6-0.9-2.5v-0.2
		c0-0.7,0.1-1.3,0.4-1.9c0.2-0.5,0.6-1,1.1-1.3c0.5-0.3,1.1-0.5,1.7-0.4c0.8,0,1.6,0.3,2.2,0.9c0.6,0.7,0.9,1.6,0.8,2.5v0.8h-4.1
		c0.1,0.4,0.2,0.7,0.5,0.9c0.3,0.2,0.6,0.4,1,0.3c0.6,0,1.2-0.2,1.5-0.7l0.9,1.2c-0.3,0.4-0.7,0.7-1.1,0.9
		C-1594.2-9527-1594.7-9526.9-1595.3-9526.9L-1595.3-9526.9z M-1595.5-9532.4c-0.6,0-1,0.4-1.1,1.3h2.1v-0.2c0-0.3-0.1-0.6-0.3-0.8
		C-1594.9-9532.3-1595.2-9532.4-1595.5-9532.4L-1595.5-9532.4z M-1589.7-9534l0.1,0.8c0.4-0.6,1.2-1,1.9-0.9c0.6,0,1.2,0.2,1.5,0.6
		c0.4,0.6,0.6,1.3,0.5,2v4.5h-2.1v-4.4c0-0.3,0-0.6-0.2-0.8c-0.2-0.2-0.5-0.3-0.7-0.2c-0.4,0-0.7,0.2-0.9,0.5v4.9h-2.1v-7
		L-1589.7-9534z M-1582.1-9535.7v1.7h1.1v1.5h-1.1v3.2c0,0.2,0,0.4,0.1,0.5c0.2,0.1,0.3,0.2,0.5,0.2c0.2,0,0.3,0,0.5,0v1.6
		c-0.4,0.1-0.8,0.2-1.2,0.2c-0.6,0-1.1-0.1-1.6-0.5c-0.4-0.4-0.6-1-0.5-1.6v-3.5h-0.8v-1.5h0.8v-1.7L-1582.1-9535.7z
		 M-1580.7-9530.6c0-0.6,0.1-1.3,0.4-1.9c0.2-0.5,0.6-1,1.1-1.3c0.5-0.3,1.1-0.5,1.7-0.4c0.9,0,1.7,0.3,2.3,1
		c0.6,0.7,0.9,1.7,0.9,2.6v0.1c0,0.9-0.3,1.9-0.9,2.6c-0.6,0.7-1.5,1-2.3,1c-0.8,0-1.7-0.3-2.3-0.9c-0.6-0.6-0.9-1.5-0.9-2.4
		L-1580.7-9530.6z M-1578.6-9530.4c0,0.5,0.1,1,0.3,1.4c0.2,0.3,0.5,0.5,0.9,0.5c0.7,0,1.1-0.6,1.1-1.8v-0.2c0-1.2-0.4-1.9-1.1-1.9
		c-0.7,0-1.1,0.5-1.1,1.6L-1578.6-9530.4z M-1569.9-9529c0-0.2-0.1-0.4-0.3-0.4c-0.3-0.2-0.7-0.3-1-0.3c-0.4-0.1-0.9-0.3-1.3-0.5
		c-0.3-0.2-0.6-0.4-0.8-0.7c-0.2-0.3-0.3-0.6-0.3-1c0-0.6,0.3-1.2,0.8-1.6c0.6-0.4,1.3-0.7,2-0.6c0.7,0,1.5,0.2,2.1,0.6
		c0.5,0.4,0.8,1,0.8,1.6h-2.1c0-0.6-0.3-0.8-0.8-0.8c-0.2,0-0.4,0.1-0.5,0.2c-0.1,0.1-0.2,0.3-0.2,0.5c0,0.2,0.1,0.4,0.3,0.5
		c0.3,0.2,0.6,0.3,0.9,0.3c0.4,0.1,0.7,0.2,1,0.3c0.9,0.2,1.5,1,1.5,1.9c0,0.6-0.3,1.2-0.8,1.6c-0.6,0.4-1.4,0.6-2.1,0.6
		c-0.5,0-1-0.1-1.5-0.3c-0.4-0.2-0.8-0.5-1-0.9c-0.2-0.3-0.4-0.7-0.4-1.2h1.9c0,0.3,0.1,0.5,0.3,0.7c0.2,0.2,0.5,0.2,0.8,0.2
		c0.2,0,0.4,0,0.6-0.2C-1569.9-9528.6-1569.9-9528.8-1569.9-9529L-1569.9-9529z M-1564-9530.5c0-0.9,0.2-1.8,0.7-2.6
		c0.4-0.6,1.2-1,1.9-1c0.6,0,1.1,0.3,1.5,0.7v-3.5h2.1v9.9h-1.9l-0.1-0.7c-0.4,0.6-1,0.9-1.6,0.9c-0.7,0-1.4-0.3-1.9-1
		C-1563.9-9528.6-1564.1-9529.6-1564-9530.5L-1564-9530.5z M-1562-9530.4c0,1.2,0.3,1.9,1,1.9c0.4,0,0.8-0.2,1-0.6v-2.7
		c-0.2-0.4-0.6-0.6-1-0.6c-0.6,0-1,0.5-1,1.6L-1562-9530.4z M-1553.5-9526.9c-0.9,0-1.8-0.3-2.5-1c-0.6-0.7-1-1.6-0.9-2.5v-0.2
		c0-0.7,0.1-1.3,0.4-1.9c0.2-0.5,0.6-1,1.1-1.3c0.5-0.3,1.1-0.5,1.7-0.4c0.8,0,1.6,0.3,2.2,0.9c0.6,0.7,0.9,1.6,0.8,2.5v0.8h-4.1
		c0.1,0.4,0.2,0.7,0.5,0.9c0.3,0.2,0.6,0.4,1,0.3c0.6,0,1.2-0.2,1.5-0.7l0.9,1.2c-0.3,0.4-0.7,0.7-1.1,0.9
		C-1552.5-9527-1553-9526.9-1553.5-9526.9L-1553.5-9526.9z M-1553.7-9532.4c-0.6,0-1,0.4-1.1,1.3h2.1v-0.2c0-0.3-0.1-0.6-0.3-0.8
		C-1553.2-9532.3-1553.5-9532.4-1553.7-9532.4L-1553.7-9532.4z M-1676.8-9508.8c0.2,0,0.5-0.1,0.7-0.2c0.2-0.2,0.3-0.4,0.2-0.7h1.9
		c0,0.7-0.3,1.4-0.8,1.9c-0.6,0.5-1.3,0.8-2,0.7c-0.9,0-1.7-0.3-2.3-1c-0.6-0.7-0.9-1.7-0.8-2.6v-0.1c0-0.6,0.1-1.3,0.4-1.9
		c0.2-0.5,0.6-1,1.1-1.2c0.5-0.3,1.1-0.4,1.7-0.4c0.8,0,1.5,0.2,2.1,0.8c0.5,0.5,0.8,1.3,0.8,2h-1.9c0-0.3-0.1-0.6-0.3-0.8
		c-0.2-0.2-0.4-0.3-0.7-0.3c-0.5,0-0.8,0.4-0.9,1.1c0,0.3,0,0.6,0,0.9c0,0.5,0,1,0.2,1.5
		C-1677.4-9508.9-1677.1-9508.8-1676.8-9508.8z M-1673.3-9510.8c0-0.6,0.1-1.3,0.4-1.9c0.2-0.5,0.6-1,1.1-1.3
		c0.5-0.3,1.1-0.5,1.7-0.4c0.9,0,1.7,0.3,2.3,1c0.6,0.7,0.9,1.7,0.9,2.6v0.1c0,0.9-0.3,1.9-0.9,2.6c-0.6,0.7-1.5,1-2.3,1
		c-0.8,0-1.7-0.3-2.3-0.9c-0.6-0.6-0.9-1.5-0.9-2.4L-1673.3-9510.8z M-1671.2-9510.6c0,0.5,0.1,1,0.3,1.4c0.2,0.3,0.5,0.5,0.9,0.5
		c0.7,0,1.1-0.6,1.1-1.8v-0.2c0-1.2-0.4-1.9-1.1-1.9c-0.7,0-1.1,0.5-1.1,1.6L-1671.2-9510.6z M-1659.8-9510.7
		c0.1,0.9-0.2,1.9-0.7,2.6c-0.5,0.6-1.2,1-1.9,0.9c-0.6,0-1.3-0.3-1.6-0.8l-0.1,0.7h-1.9v-9.9h2.1v3.5c0.4-0.5,0.9-0.7,1.5-0.7
		c0.7,0,1.5,0.3,1.9,0.9c0.5,0.8,0.7,1.7,0.7,2.6V-9510.7z M-1661.9-9510.8c0-0.5-0.1-1-0.3-1.4c-0.2-0.3-0.5-0.4-0.8-0.4
		c-0.4,0-0.8,0.2-1,0.6v2.8c0.2,0.4,0.6,0.6,1,0.6c0.4,0,0.8-0.3,0.9-0.7C-1661.9-9509.9-1661.9-9510.4-1661.9-9510.8
		L-1661.9-9510.8z M-1655.7-9507.1c-0.9,0-1.8-0.3-2.5-1c-0.6-0.7-1-1.6-0.9-2.5v-0.2c0-0.7,0.1-1.3,0.4-1.9c0.2-0.5,0.6-1,1.1-1.3
		c0.5-0.3,1.1-0.5,1.7-0.4c0.8,0,1.6,0.3,2.2,0.9c0.6,0.7,0.9,1.6,0.8,2.5v0.8h-4.1c0.1,0.4,0.2,0.7,0.5,0.9c0.3,0.2,0.6,0.4,1,0.3
		c0.6,0,1.2-0.2,1.5-0.7l0.9,1.2c-0.3,0.4-0.7,0.7-1.1,0.9C-1654.6-9507.2-1655.2-9507.1-1655.7-9507.1L-1655.7-9507.1z
		 M-1655.9-9512.7c-0.6,0-1,0.4-1.1,1.3h2.1v-0.2c0-0.3-0.1-0.6-0.3-0.8C-1655.4-9512.6-1655.6-9512.7-1655.9-9512.7z M-1648-9512.2
		l-0.7-0.1c-0.5-0.1-1,0.2-1.3,0.6v4.4h-2.1v-7h1.9l0.1,0.9c0.2-0.6,0.8-1,1.5-1c0.2,0,0.4,0,0.6,0.1L-1648-9512.2z M-1644.6-9515.9
		v1.7h1.1v1.5h-1.1v3.2c0,0.2,0,0.4,0.1,0.5c0.2,0.1,0.3,0.2,0.5,0.2c0.2,0,0.3,0,0.5,0v1.6c-0.4,0.1-0.8,0.2-1.2,0.2
		c-0.6,0-1.1-0.1-1.6-0.5c-0.4-0.4-0.6-1-0.5-1.6v-3.5h-0.8v-1.5h0.8v-1.7H-1644.6z M-1638.7-9508c-0.4,0.6-1.1,0.9-1.8,0.9
		c-0.6,0-1.2-0.2-1.7-0.7c-0.4-0.5-0.6-1.2-0.6-1.9v-4.5h2.1v4.5c-0.1,0.4,0.2,0.8,0.6,0.9c0.1,0,0.1,0,0.2,0c0.4,0,0.8-0.2,1-0.5
		v-4.9h2.1v7h-1.9L-1638.7-9508z M-1631.6-9512.2l-0.7-0.1c-0.5-0.1-1,0.2-1.3,0.6v4.4h-2.1v-7h1.9l0.1,0.9c0.2-0.6,0.8-1,1.5-1
		c0.2,0,0.4,0,0.6,0.1L-1631.6-9512.2z M-1627.3-9507.2c-0.1-0.2-0.2-0.4-0.2-0.6c-0.4,0.5-1,0.8-1.6,0.8c-0.6,0-1.2-0.2-1.6-0.6
		c-0.4-0.4-0.7-0.9-0.7-1.5c0-0.7,0.3-1.3,0.8-1.7c0.7-0.4,1.5-0.6,2.3-0.6h0.6v-0.4c0-0.6-0.3-1-0.8-1c-0.4-0.1-0.7,0.2-0.7,0.6
		c0,0.1,0,0.1,0,0.2h-2.1c0-0.7,0.3-1.3,0.8-1.6c0.6-0.4,1.3-0.7,2.1-0.6c0.7,0,1.4,0.2,2,0.6c0.5,0.4,0.8,1.1,0.8,1.8v3.1
		c0,0.5,0.1,1,0.3,1.5v0.1H-1627.3z M-1628.6-9508.7c0.2,0,0.4-0.1,0.6-0.2c0.2-0.1,0.3-0.2,0.4-0.4v-1.1h-0.6c-0.7,0-1.1,0.3-1.1,1
		c0,0.2,0.1,0.4,0.2,0.5C-1628.9-9508.7-1628.8-9508.6-1628.6-9508.7L-1628.6-9508.7z M-1623.1-9509.3c0.3,0,0.6,0.1,0.8,0.3
		c0.4,0.4,0.4,1.1,0.1,1.5c0,0,0,0-0.1,0.1c-0.5,0.4-1.2,0.4-1.6,0c-0.4-0.4-0.4-1.1,0-1.5c0,0,0,0,0-0.1
		C-1623.7-9509.2-1623.4-9509.4-1623.1-9509.3L-1623.1-9509.3z"/>
	<path id="Trazado_102826" class="st2" d="M-1677.2-9468.7h-2.1v-9.4h2.1V-9468.7z M-1673.9-9475.6l0.1,0.8c0.4-0.6,1.2-1,1.9-0.9
		c0.6,0,1.2,0.2,1.5,0.7c0.4,0.6,0.6,1.3,0.5,2v4.5h-2.1v-4.4c0-0.3,0-0.6-0.2-0.8c-0.2-0.2-0.5-0.3-0.7-0.2c-0.4,0-0.7,0.2-0.9,0.5
		v4.9h-2.1v-7H-1673.9z M-1666-9471.2l1-4.4h2.2l-2.2,7h-2.1l-2.2-7h2.2L-1666-9471.2z M-1659-9468.5c-0.9,0-1.8-0.3-2.5-1
		c-0.6-0.7-1-1.6-0.9-2.5v-0.2c0-0.7,0.1-1.3,0.4-1.9c0.2-0.5,0.6-1,1.1-1.3c0.5-0.3,1.1-0.5,1.7-0.4c0.8,0,1.6,0.3,2.2,0.9
		c0.6,0.7,0.9,1.6,0.8,2.5v0.8h-4.1c0.1,0.4,0.2,0.7,0.5,0.9c0.3,0.2,0.6,0.4,1,0.3c0.6,0,1.2-0.2,1.5-0.7l0.9,1.2
		c-0.3,0.4-0.7,0.7-1.1,0.9C-1657.9-9468.6-1658.5-9468.5-1659-9468.5L-1659-9468.5z M-1659.2-9474.1c-0.6,0-1,0.4-1.1,1.3h2.1v-0.2
		c0-0.3-0.1-0.6-0.3-0.8C-1658.7-9474-1658.9-9474.1-1659.2-9474.1z M-1651.3-9473.7l-0.7-0.1c-0.5-0.1-1,0.2-1.3,0.6v4.4h-2.1v-7
		h1.9l0.1,0.9c0.2-0.6,0.8-1,1.5-1c0.2,0,0.4,0,0.6,0.1L-1651.3-9473.7z M-1647.1-9470.6c0-0.2-0.1-0.4-0.3-0.4
		c-0.3-0.2-0.7-0.3-1-0.3c-0.4-0.1-0.9-0.3-1.3-0.5c-0.3-0.2-0.6-0.4-0.8-0.7c-0.2-0.3-0.3-0.6-0.3-1c0-0.6,0.3-1.2,0.8-1.6
		c0.6-0.4,1.3-0.7,2-0.6c0.7,0,1.5,0.2,2.1,0.6c0.5,0.4,0.8,1,0.8,1.6h-2.1c0-0.6-0.3-0.8-0.8-0.8c-0.2,0-0.4,0.1-0.5,0.2
		c-0.1,0.1-0.2,0.3-0.2,0.5c0,0.2,0.1,0.4,0.3,0.5c0.3,0.2,0.6,0.2,0.9,0.3c0.4,0.1,0.7,0.2,1,0.3c0.9,0.2,1.5,1,1.5,1.9
		c0,0.6-0.3,1.2-0.8,1.6c-0.6,0.4-1.4,0.6-2.1,0.6c-0.5,0-1-0.1-1.5-0.3c-0.4-0.2-0.8-0.5-1-0.9c-0.2-0.3-0.4-0.7-0.4-1.2h1.9
		c0,0.3,0.1,0.5,0.3,0.7c0.2,0.2,0.5,0.2,0.8,0.2c0.2,0,0.4,0,0.6-0.2C-1647.2-9470.3-1647.1-9470.4-1647.1-9470.6L-1647.1-9470.6z
		 M-1642-9468.7h-2.1v-7h2.1V-9468.7z M-1644.2-9477.4c0-0.3,0.1-0.6,0.3-0.8c0.5-0.4,1.2-0.4,1.7,0c0.2,0.2,0.3,0.5,0.3,0.8
		c0,0.3-0.1,0.6-0.3,0.8c-0.5,0.4-1.2,0.4-1.7,0C-1644.1-9476.8-1644.2-9477.1-1644.2-9477.4z M-1641-9472.2c0-0.6,0.1-1.3,0.4-1.9
		c0.2-0.5,0.6-1,1.1-1.3c0.5-0.3,1.1-0.5,1.7-0.4c0.9,0,1.7,0.3,2.3,1c0.6,0.7,0.9,1.7,0.9,2.6v0.1c0,0.9-0.3,1.9-0.9,2.6
		c-0.6,0.7-1.5,1-2.3,1c-0.8,0-1.7-0.3-2.3-0.9c-0.6-0.7-0.9-1.5-0.9-2.4L-1641-9472.2z M-1638.9-9472.1c0,0.5,0.1,1,0.3,1.4
		c0.2,0.3,0.5,0.5,0.9,0.5c0.7,0,1.1-0.6,1.1-1.8v-0.2c0-1.2-0.4-1.9-1.1-1.9c-0.7,0-1.1,0.5-1.1,1.6L-1638.9-9472.1z
		 M-1631.7-9475.6l0.1,0.8c0.4-0.6,1.2-1,1.9-0.9c0.6,0,1.2,0.2,1.5,0.7c0.4,0.6,0.6,1.3,0.5,2v4.5h-2.1v-4.4c0-0.3,0-0.6-0.2-0.8
		c-0.2-0.2-0.5-0.3-0.7-0.2c-0.4,0-0.7,0.2-0.9,0.5v4.9h-2.1v-7H-1631.7z M-1623.3-9468.5c-0.9,0-1.8-0.3-2.5-1
		c-0.6-0.7-1-1.6-0.9-2.5v-0.2c0-0.7,0.1-1.3,0.4-1.9c0.2-0.5,0.6-1,1.1-1.3c0.5-0.3,1.1-0.5,1.7-0.4c0.8,0,1.6,0.3,2.2,0.9
		c0.6,0.7,0.9,1.6,0.8,2.5v0.8h-4.1c0.1,0.4,0.2,0.7,0.5,0.9c0.3,0.2,0.6,0.4,1,0.3c0.6,0,1.2-0.2,1.5-0.7l0.9,1.2
		c-0.3,0.4-0.7,0.7-1.1,0.9C-1622.3-9468.6-1622.8-9468.5-1623.3-9468.5z M-1623.6-9474.1c-0.6,0-1,0.4-1.1,1.3h2.1v-0.2
		c0-0.3-0.1-0.6-0.3-0.8C-1623-9474-1623.3-9474.1-1623.6-9474.1z M-1616.2-9470.6c0-0.2-0.1-0.4-0.3-0.4c-0.3-0.2-0.7-0.3-1-0.3
		c-0.4-0.1-0.9-0.3-1.3-0.5c-0.3-0.2-0.6-0.4-0.8-0.7c-0.2-0.3-0.3-0.6-0.3-1c0-0.6,0.3-1.2,0.8-1.6c0.6-0.4,1.3-0.7,2-0.6
		c0.7,0,1.5,0.2,2.1,0.6c0.5,0.4,0.8,1,0.8,1.6h-2.1c0-0.6-0.3-0.8-0.8-0.8c-0.2,0-0.4,0.1-0.5,0.2c-0.1,0.1-0.2,0.3-0.2,0.5
		c0,0.2,0.1,0.4,0.3,0.5c0.3,0.2,0.6,0.2,0.9,0.3c0.4,0.1,0.7,0.2,1,0.3c0.9,0.2,1.5,1,1.5,1.9c0,0.6-0.3,1.2-0.8,1.6
		c-0.6,0.4-1.4,0.6-2.1,0.6c-0.5,0-1-0.1-1.5-0.3c-0.4-0.2-0.8-0.5-1-0.9c-0.2-0.3-0.4-0.7-0.4-1.2h1.9c0,0.3,0.1,0.5,0.3,0.7
		c0.2,0.2,0.5,0.2,0.8,0.2c0.2,0,0.4,0,0.6-0.2C-1616.3-9470.3-1616.2-9470.4-1616.2-9470.6L-1616.2-9470.6z M-1679.1-9448.9v-5.5
		h-1v-1.5h1v-0.2c0-0.8,0.3-1.6,0.9-2.1c0.7-0.5,1.5-0.7,2.3-0.7c0.7,0,1.5,0.1,2.2,0.4l-0.3,1.7l-0.3-0.1c-0.5-0.1-0.9-0.2-1.4-0.2
		c-0.8,0-1.2,0.4-1.2,1.1v0.1h1.3v1.5h-1.3v5.5H-1679.1z M-1672.8-9448.9h-2.1v-7h2.1L-1672.8-9448.9z M-1669.7-9455.8l0.1,0.8
		c0.4-0.6,1.2-1,1.9-0.9c0.6,0,1.2,0.2,1.5,0.7c0.4,0.6,0.6,1.3,0.5,2v4.5h-2.1v-4.4c0-0.3,0-0.6-0.2-0.8c-0.2-0.2-0.5-0.3-0.7-0.2
		c-0.4,0-0.7,0.2-0.9,0.5v4.9h-2.1v-7H-1669.7z M-1660.7-9448.9c-0.1-0.2-0.2-0.4-0.2-0.6c-0.4,0.5-1,0.8-1.6,0.8
		c-0.6,0-1.2-0.2-1.6-0.6c-0.4-0.4-0.7-0.9-0.7-1.5c0-0.7,0.3-1.3,0.8-1.7c0.7-0.4,1.5-0.6,2.3-0.6h0.6v-0.4c0-0.6-0.3-1-0.8-1
		c-0.4-0.1-0.7,0.2-0.7,0.6c0,0.1,0,0.1,0,0.2h-2.1c0-0.7,0.3-1.3,0.8-1.6c0.6-0.4,1.3-0.7,2.1-0.6c0.7,0,1.4,0.2,2,0.7
		c0.5,0.4,0.8,1.1,0.8,1.8v3.1c0,0.5,0.1,1,0.3,1.5v0.1H-1660.7z M-1662-9450.3c0.2,0,0.4-0.1,0.6-0.2c0.2-0.1,0.3-0.2,0.4-0.4v-1.1
		h-0.6c-0.7,0-1.1,0.3-1.1,1c0,0.2,0.1,0.4,0.2,0.5C-1662.4-9450.4-1662.2-9450.3-1662-9450.3z M-1655.9-9455.8l0.1,0.8
		c0.4-0.6,1.2-1,1.9-0.9c0.6,0,1.2,0.2,1.5,0.7c0.4,0.6,0.6,1.3,0.5,2v4.5h-2.1v-4.4c0-0.3,0-0.6-0.2-0.8c-0.2-0.2-0.5-0.3-0.7-0.2
		c-0.4,0-0.7,0.2-0.9,0.5v4.9h-2.1v-7H-1655.9z M-1647.9-9450.4c0.2,0,0.5-0.1,0.7-0.2c0.2-0.2,0.3-0.4,0.2-0.7h1.9
		c0,0.7-0.3,1.4-0.8,1.9c-0.6,0.5-1.3,0.8-2,0.7c-0.9,0-1.7-0.3-2.3-1c-0.6-0.7-0.9-1.7-0.8-2.6v-0.1c0-0.6,0.1-1.3,0.4-1.9
		c0.2-0.5,0.6-1,1.1-1.2c0.5-0.3,1.1-0.5,1.7-0.4c0.8,0,1.5,0.2,2.1,0.8c0.5,0.5,0.8,1.3,0.8,2h-1.9c0-0.3-0.1-0.6-0.3-0.8
		c-0.2-0.2-0.4-0.3-0.7-0.3c-0.5,0-0.8,0.4-0.9,1.1c0,0.3,0,0.6,0,0.9c0,0.5,0,1,0.2,1.5
		C-1648.5-9450.6-1648.2-9450.4-1647.9-9450.4L-1647.9-9450.4z M-1642-9448.9h-2.1v-7h2.1L-1642-9448.9z M-1644.2-9457.6
		c0-0.3,0.1-0.6,0.3-0.8c0.5-0.4,1.2-0.4,1.7,0c0.4,0.4,0.4,1,0.1,1.5c0,0,0,0-0.1,0.1c-0.5,0.4-1.2,0.4-1.7,0
		C-1644.1-9457.1-1644.2-9457.4-1644.2-9457.6z M-1637.5-9448.8c-0.9,0-1.8-0.3-2.5-1c-0.6-0.7-1-1.6-0.9-2.5v-0.2
		c0-0.7,0.1-1.3,0.4-1.9c0.2-0.5,0.6-1,1.1-1.3c0.5-0.3,1.1-0.5,1.7-0.4c0.8,0,1.6,0.3,2.2,0.9c0.6,0.7,0.9,1.6,0.8,2.5v0.8h-4.1
		c0.1,0.4,0.2,0.7,0.5,0.9c0.3,0.2,0.6,0.4,1,0.3c0.6,0,1.2-0.2,1.5-0.7l0.9,1.2c-0.3,0.4-0.7,0.7-1.1,0.9
		C-1636.5-9448.9-1637-9448.8-1637.5-9448.8z M-1637.8-9454.3c-0.6,0-1,0.4-1.1,1.3h2.1v-0.2c0-0.3-0.1-0.6-0.3-0.8
		C-1637.2-9454.2-1637.5-9454.3-1637.8-9454.3z M-1629.9-9453.9l-0.7-0.1c-0.5-0.1-1,0.2-1.3,0.6v4.4h-2.1v-7h1.9l0.1,0.9
		c0.2-0.6,0.8-1,1.5-1c0.2,0,0.4,0,0.6,0.1L-1629.9-9453.9z M-1625.6-9448.9c-0.1-0.2-0.2-0.4-0.2-0.6c-0.4,0.5-1,0.8-1.6,0.8
		c-0.6,0-1.2-0.2-1.6-0.6c-0.4-0.4-0.7-0.9-0.7-1.5c0-0.7,0.3-1.3,0.8-1.7c0.7-0.4,1.5-0.6,2.3-0.6h0.6v-0.4c0-0.6-0.3-1-0.8-1
		c-0.4-0.1-0.7,0.2-0.7,0.6c0,0.1,0,0.1,0,0.2h-2.1c0-0.7,0.3-1.3,0.8-1.6c0.6-0.4,1.3-0.7,2.1-0.6c0.7,0,1.4,0.2,2,0.7
		c0.5,0.4,0.8,1.1,0.8,1.8v3.1c0,0.5,0.1,1,0.3,1.5v0.1H-1625.6z M-1626.9-9450.3c0.2,0,0.4-0.1,0.6-0.2c0.2-0.1,0.3-0.2,0.4-0.4
		v-1.1h-0.6c-0.7,0-1.1,0.3-1.1,1c0,0.2,0.1,0.4,0.2,0.5C-1627.2-9450.4-1627.1-9450.3-1626.9-9450.3L-1626.9-9450.3z
		 M-1619.2-9450.8c0-0.2-0.1-0.4-0.3-0.4c-0.3-0.2-0.7-0.3-1-0.3c-0.4-0.1-0.9-0.3-1.3-0.5c-0.3-0.2-0.6-0.4-0.8-0.7
		c-0.2-0.3-0.3-0.6-0.3-1c0-0.6,0.3-1.2,0.8-1.6c0.6-0.4,1.3-0.7,2-0.6c0.7,0,1.5,0.2,2.1,0.6c0.5,0.4,0.8,1,0.8,1.6h-2.1
		c0-0.6-0.3-0.8-0.8-0.8c-0.2,0-0.4,0.1-0.5,0.2c-0.1,0.1-0.2,0.3-0.2,0.5c0,0.2,0.1,0.4,0.3,0.5c0.3,0.2,0.6,0.2,0.9,0.3
		c0.4,0.1,0.7,0.2,1,0.3c0.9,0.2,1.5,1,1.5,1.9c0,0.6-0.3,1.2-0.8,1.6c-0.6,0.4-1.4,0.6-2.1,0.6c-0.5,0-1-0.1-1.5-0.3
		c-0.4-0.2-0.8-0.5-1-0.9c-0.2-0.3-0.4-0.7-0.4-1.2h1.9c0,0.3,0.1,0.5,0.3,0.7c0.2,0.2,0.5,0.2,0.8,0.2c0.2,0,0.4,0,0.6-0.2
		C-1619.3-9450.5-1619.2-9450.7-1619.2-9450.8L-1619.2-9450.8z M-1609.4-9448.9c-0.1-0.2-0.2-0.4-0.2-0.6c-0.4,0.5-1,0.8-1.6,0.8
		c-0.6,0-1.2-0.2-1.6-0.6c-0.4-0.4-0.7-0.9-0.7-1.5c0-0.7,0.3-1.3,0.8-1.7c0.7-0.4,1.5-0.6,2.3-0.6h0.6v-0.4c0-0.6-0.3-1-0.8-1
		c-0.4-0.1-0.7,0.2-0.7,0.6c0,0.1,0,0.1,0,0.2h-2.1c0-0.7,0.3-1.3,0.8-1.6c0.6-0.4,1.3-0.7,2.1-0.6c0.7,0,1.4,0.2,2,0.7
		c0.5,0.4,0.8,1.1,0.8,1.8v3.1c0,0.5,0.1,1,0.3,1.5v0.1H-1609.4z M-1610.7-9450.3c0.2,0,0.4-0.1,0.6-0.2c0.2-0.1,0.3-0.2,0.4-0.4
		v-1.1h-0.6c-0.7,0-1.1,0.3-1.1,1c0,0.2,0.1,0.4,0.2,0.5C-1611-9450.4-1610.8-9450.3-1610.7-9450.3L-1610.7-9450.3z M-1601.1-9448.9
		h-2.1v-9.9h2.1V-9448.9z M-1596.1-9448.9c-0.1-0.2-0.2-0.4-0.2-0.6c-0.4,0.5-1,0.8-1.6,0.8c-0.6,0-1.2-0.2-1.6-0.6
		c-0.4-0.4-0.7-0.9-0.7-1.5c0-0.7,0.3-1.3,0.8-1.7c0.7-0.4,1.5-0.6,2.3-0.6h0.6v-0.4c0-0.6-0.3-1-0.8-1c-0.4-0.1-0.7,0.2-0.7,0.6
		c0,0.1,0,0.1,0,0.2h-2.1c0-0.7,0.3-1.3,0.8-1.6c0.6-0.4,1.3-0.7,2.1-0.6c0.7,0,1.4,0.2,2,0.7c0.5,0.4,0.8,1.1,0.8,1.8v3.1
		c0,0.5,0.1,1,0.3,1.5v0.1H-1596.1z M-1597.4-9450.3c0.2,0,0.4-0.1,0.6-0.2c0.2-0.1,0.3-0.2,0.4-0.4v-1.1h-0.6c-0.7,0-1.1,0.3-1.1,1
		c0,0.2,0.1,0.4,0.2,0.5C-1597.8-9450.4-1597.6-9450.3-1597.4-9450.3L-1597.4-9450.3z M-1589.2-9453.9l-0.7-0.1
		c-0.5-0.1-1,0.2-1.3,0.6v4.4h-2.1v-7h1.9l0.1,0.9c0.2-0.6,0.8-1,1.5-1c0.2,0,0.4,0,0.6,0.1L-1589.2-9453.9z M-1588.7-9452.4
		c0-0.6,0.1-1.3,0.3-1.9c0.2-0.5,0.5-0.9,1-1.3c0.4-0.3,0.9-0.5,1.4-0.4c0.6,0,1.2,0.2,1.6,0.7l0.1-0.6h1.9v6.7
		c0,0.6-0.1,1.1-0.4,1.6c-0.3,0.5-0.7,0.8-1.2,1c-0.6,0.3-1.2,0.4-1.8,0.4c-0.5,0-1-0.1-1.4-0.3c-0.4-0.2-0.8-0.4-1-0.8l0.9-1.3
		c0.4,0.5,0.9,0.7,1.5,0.7c0.7,0.1,1.3-0.4,1.4-1.1c0-0.1,0-0.2,0-0.4v-0.2c-0.4,0.5-0.9,0.7-1.5,0.7c-0.8,0-1.5-0.3-2-1
		C-1588.4-9450.5-1588.7-9451.4-1588.7-9452.4L-1588.7-9452.4z M-1586.6-9452.3c0,0.5,0.1,0.9,0.3,1.4c0.2,0.3,0.5,0.5,0.9,0.5
		c0.4,0,0.8-0.1,1-0.5v-2.9c-0.2-0.3-0.6-0.5-1-0.5c-0.4,0-0.7,0.2-0.9,0.5C-1586.5-9453.3-1586.6-9452.8-1586.6-9452.3
		L-1586.6-9452.3z M-1581.5-9452.4c0-0.6,0.1-1.3,0.4-1.9c0.2-0.5,0.6-1,1.1-1.3c0.5-0.3,1.1-0.5,1.7-0.4c0.9,0,1.7,0.3,2.3,1
		c0.6,0.7,0.9,1.7,0.9,2.6v0.1c0,0.9-0.3,1.9-0.9,2.6c-0.6,0.7-1.5,1-2.3,1c-0.8,0-1.7-0.3-2.3-0.9c-0.6-0.6-0.9-1.5-0.9-2.4
		L-1581.5-9452.4z M-1579.4-9452.3c0,0.5,0.1,1,0.3,1.4c0.2,0.3,0.5,0.5,0.9,0.5c0.7,0,1.1-0.6,1.1-1.8v-0.2c0-1.2-0.4-1.9-1.1-1.9
		c-0.7,0-1.1,0.5-1.1,1.6L-1579.4-9452.3z M-1670.3-9432.5c0,0.9-0.2,1.8-0.7,2.6c-0.4,0.6-1.1,1-1.9,1c-0.6,0-1.1-0.2-1.5-0.7v3.2
		h-2.1v-9.6h1.9l0.1,0.6c0.4-0.5,1-0.8,1.6-0.8c0.7,0,1.5,0.3,1.9,1C-1670.5-9434.5-1670.2-9433.6-1670.3-9432.5L-1670.3-9432.5z
		 M-1672.3-9432.7c0-1.2-0.3-1.9-1-1.9c-0.4,0-0.8,0.2-1,0.6v2.7c0.2,0.4,0.6,0.6,1,0.6c0.7,0,1-0.6,1-1.8L-1672.3-9432.7z
		 M-1667.2-9429.1h-2.1v-9.9h2.1V-9429.1z M-1662.2-9429.1c-0.1-0.2-0.2-0.4-0.2-0.6c-0.4,0.5-1,0.8-1.6,0.8c-0.6,0-1.2-0.2-1.6-0.6
		c-0.4-0.4-0.7-0.9-0.7-1.5c0-0.7,0.3-1.3,0.8-1.7c0.7-0.4,1.5-0.6,2.3-0.6h0.6v-0.4c0-0.6-0.3-1-0.8-1c-0.4-0.1-0.7,0.2-0.7,0.6
		c0,0.1,0,0.1,0,0.2h-2.1c0-0.7,0.3-1.3,0.8-1.6c0.6-0.4,1.3-0.7,2.1-0.6c0.7,0,1.4,0.2,2,0.7c0.5,0.4,0.8,1.1,0.8,1.8v3.1
		c0,0.5,0.1,1,0.3,1.5v0.1H-1662.2z M-1663.5-9430.5c0.2,0,0.4-0.1,0.6-0.2c0.2-0.1,0.3-0.2,0.4-0.4v-1.1h-0.6c-0.7,0-1.1,0.3-1.1,1
		c0,0.2,0.1,0.4,0.2,0.5C-1663.8-9430.6-1663.6-9430.5-1663.5-9430.5z M-1656.8-9430.8h3v1.7h-5.6v-1.2l2.9-4.1h-2.8v-1.7h5.4v1.2
		L-1656.8-9430.8z M-1653.1-9432.7c0-0.6,0.1-1.3,0.4-1.9c0.2-0.5,0.6-1,1.1-1.3c0.5-0.3,1.1-0.5,1.7-0.4c0.9,0,1.7,0.3,2.3,1
		c0.6,0.7,0.9,1.7,0.9,2.6v0.1c0,0.9-0.3,1.9-0.9,2.6c-0.6,0.7-1.5,1-2.3,1c-0.8,0-1.7-0.3-2.3-0.9c-0.6-0.6-0.9-1.5-0.9-2.4
		L-1653.1-9432.7z M-1651.1-9432.5c0,0.5,0.1,1,0.3,1.4c0.2,0.3,0.5,0.5,0.9,0.5c0.7,0,1.1-0.6,1.1-1.8v-0.2c0-1.2-0.4-1.9-1.1-1.9
		c-0.7,0-1.1,0.5-1.1,1.6L-1651.1-9432.5z M-1639.5-9429c-0.9,0-1.8-0.3-2.5-1c-0.6-0.7-1-1.6-0.9-2.5v-0.2c0-0.7,0.1-1.3,0.4-1.9
		c0.2-0.5,0.6-1,1.1-1.3c0.5-0.3,1.1-0.5,1.7-0.4c0.8,0,1.6,0.3,2.2,0.9c0.6,0.7,0.9,1.6,0.8,2.5v0.8h-4.1c0.1,0.4,0.2,0.7,0.5,0.9
		c0.3,0.2,0.6,0.4,1,0.3c0.6,0,1.2-0.2,1.5-0.7l0.9,1.2c-0.3,0.4-0.7,0.7-1.1,0.9C-1638.4-9429.1-1638.9-9429-1639.5-9429
		L-1639.5-9429z M-1639.7-9434.5c-0.6,0-1,0.4-1.1,1.3h2.1v-0.2c0-0.3-0.1-0.6-0.3-0.8C-1639.2-9434.4-1639.4-9434.6-1639.7-9434.5z
		 M-1633.9-9436.1l0.1,0.8c0.4-0.6,1.2-1,1.9-0.9c0.6,0,1.2,0.2,1.5,0.7c0.4,0.6,0.6,1.3,0.5,2v4.5h-2.1v-4.4c0-0.3,0-0.5-0.2-0.8
		c-0.2-0.2-0.5-0.3-0.7-0.2c-0.4,0-0.7,0.2-0.9,0.5v4.9h-2.1v-7L-1633.9-9436.1z M-1623.4-9429.1h-2.1v-7h2.1V-9429.1z
		 M-1625.6-9437.9c0-0.3,0.1-0.6,0.3-0.8c0.5-0.4,1.2-0.4,1.7,0c0.4,0.4,0.4,1,0.1,1.5c0,0,0,0-0.1,0.1c-0.5,0.4-1.2,0.4-1.7,0
		C-1625.5-9437.3-1625.6-9437.6-1625.6-9437.9z M-1620.3-9436.1l0.1,0.8c0.4-0.6,1.2-1,1.9-0.9c0.6,0,1.2,0.2,1.6,0.6
		c0.4,0.6,0.6,1.3,0.5,2v4.5h-2.1v-4.4c0-0.3,0-0.5-0.2-0.8c-0.2-0.2-0.5-0.3-0.7-0.2c-0.4,0-0.7,0.2-0.9,0.5v4.9h-2.1v-7H-1620.3z
		 M-1611.6-9431.1c0-0.2-0.1-0.4-0.3-0.4c-0.3-0.2-0.7-0.3-1-0.3c-0.4-0.1-0.9-0.3-1.3-0.5c-0.3-0.2-0.6-0.4-0.8-0.7
		c-0.2-0.3-0.3-0.6-0.3-1c0-0.6,0.3-1.2,0.8-1.6c0.6-0.4,1.3-0.7,2-0.6c0.7,0,1.5,0.2,2.1,0.6c0.5,0.4,0.8,1,0.8,1.6h-2.1
		c0-0.6-0.3-0.8-0.8-0.8c-0.2,0-0.4,0.1-0.5,0.2c-0.1,0.1-0.2,0.3-0.2,0.5c0,0.2,0.1,0.4,0.3,0.5c0.3,0.2,0.6,0.2,0.9,0.3
		c0.4,0.1,0.7,0.2,1,0.3c0.9,0.2,1.5,1,1.5,1.9c0,0.6-0.3,1.2-0.8,1.6c-0.6,0.4-1.4,0.6-2.1,0.6c-0.5,0-1-0.1-1.5-0.3
		c-0.4-0.2-0.8-0.5-1-0.9c-0.2-0.3-0.4-0.7-0.4-1.2h1.9c0,0.3,0.1,0.5,0.3,0.7c0.2,0.2,0.5,0.2,0.8,0.2c0.2,0,0.4,0,0.6-0.2
		C-1611.7-9430.7-1611.6-9430.9-1611.6-9431.1L-1611.6-9431.1z M-1606.2-9437.8v1.7h1.1v1.5h-1.1v3.2c0,0.2,0,0.4,0.1,0.5
		c0.2,0.1,0.3,0.2,0.5,0.2c0.2,0,0.3,0,0.5,0v1.6c-0.4,0.1-0.8,0.2-1.2,0.2c-0.6,0-1.1-0.1-1.6-0.5c-0.4-0.4-0.6-1-0.5-1.6v-3.5
		h-0.8v-1.5h0.8v-1.7L-1606.2-9437.8z M-1600.3-9434.1l-0.7-0.1c-0.5-0.1-1,0.2-1.3,0.6v4.4h-2.1v-7h1.9l0.1,0.9
		c0.2-0.6,0.8-1,1.5-1c0.2,0,0.4,0,0.6,0.1L-1600.3-9434.1z M-1595.6-9429.9c-0.4,0.6-1.1,0.9-1.8,0.9c-0.6,0-1.2-0.2-1.7-0.7
		c-0.4-0.5-0.6-1.2-0.6-1.9v-4.5h2.1v4.5c-0.1,0.4,0.2,0.8,0.6,0.9c0.1,0,0.1,0,0.2,0c0.4,0,0.8-0.2,1-0.5v-4.9h2.1v7h-1.9
		L-1595.6-9429.9z M-1590.5-9436.1l0.1,0.8c0.4-0.6,1.2-1,1.9-0.9c0.7-0.1,1.4,0.4,1.7,1c0.4-0.7,1.2-1.1,2-1c1.3,0,2,0.9,2.1,2.6
		v4.5h-2.1v-4.4c0-0.3,0-0.5-0.2-0.8c-0.2-0.2-0.4-0.3-0.6-0.2c-0.4,0-0.7,0.2-0.9,0.6l0,0.1v4.8h-2.1v-4.4c0-0.3,0-0.6-0.2-0.8
		c-0.2-0.2-0.4-0.3-0.6-0.2c-0.4,0-0.7,0.2-0.9,0.6v4.8h-2.1v-7L-1590.5-9436.1z M-1578.5-9429c-0.9,0-1.8-0.3-2.5-1
		c-0.6-0.7-1-1.6-0.9-2.5v-0.2c0-0.7,0.1-1.3,0.4-1.9c0.2-0.5,0.6-1,1.1-1.3c0.5-0.3,1.1-0.5,1.7-0.4c0.8,0,1.6,0.3,2.2,0.9
		c0.6,0.7,0.9,1.6,0.8,2.5v0.8h-4.1c0.1,0.4,0.2,0.7,0.5,0.9c0.3,0.2,0.6,0.4,1,0.3c0.6,0,1.2-0.2,1.5-0.7l0.9,1.2
		c-0.3,0.4-0.7,0.7-1.1,0.9C-1577.4-9429.1-1577.9-9429-1578.5-9429L-1578.5-9429z M-1578.7-9434.5c-0.6,0-1,0.4-1.1,1.3h2.1v-0.2
		c0-0.3-0.1-0.6-0.3-0.8C-1578.1-9434.4-1578.4-9434.6-1578.7-9434.5L-1578.7-9434.5z M-1572.9-9436.1l0.1,0.8
		c0.4-0.6,1.2-1,1.9-0.9c0.6,0,1.2,0.2,1.5,0.7c0.4,0.6,0.6,1.3,0.5,2v4.5h-2.1v-4.4c0-0.3,0-0.5-0.2-0.8c-0.2-0.2-0.5-0.3-0.7-0.2
		c-0.4,0-0.7,0.2-0.9,0.5v4.9h-2.1v-7L-1572.9-9436.1z M-1565.3-9437.8v1.7h1.1v1.5h-1.1v3.2c0,0.2,0,0.4,0.1,0.5
		c0.2,0.1,0.3,0.2,0.5,0.2c0.2,0,0.3,0,0.5,0v1.6c-0.4,0.1-0.8,0.2-1.2,0.2c-0.6,0-1.1-0.1-1.6-0.5c-0.4-0.4-0.6-1-0.5-1.6v-3.5
		h-0.8v-1.5h0.8v-1.7L-1565.3-9437.8z M-1563.9-9432.7c0-0.6,0.1-1.3,0.4-1.9c0.2-0.5,0.6-1,1.1-1.3c0.5-0.3,1.1-0.5,1.7-0.4
		c0.9,0,1.7,0.3,2.3,1c0.6,0.7,0.9,1.7,0.9,2.6v0.1c0,0.9-0.3,1.9-0.9,2.6c-0.6,0.7-1.5,1-2.3,1c-0.8,0-1.7-0.3-2.3-0.9
		c-0.6-0.6-0.9-1.5-0.9-2.4L-1563.9-9432.7z M-1561.8-9432.5c0,0.5,0.1,1,0.3,1.4c0.2,0.3,0.5,0.5,0.9,0.5c0.7,0,1.1-0.6,1.1-1.8
		v-0.2c0-1.2-0.4-1.9-1.1-1.9c-0.7,0-1.1,0.5-1.1,1.6L-1561.8-9432.5z M-1553.1-9431.1c0-0.2-0.1-0.4-0.3-0.4
		c-0.3-0.2-0.7-0.3-1-0.3c-0.4-0.1-0.9-0.3-1.3-0.5c-0.3-0.2-0.6-0.4-0.8-0.7c-0.2-0.3-0.3-0.6-0.3-1c0-0.6,0.3-1.2,0.8-1.6
		c0.6-0.4,1.3-0.7,2-0.6c0.7,0,1.5,0.2,2.1,0.6c0.5,0.4,0.8,1,0.8,1.6h-2.1c0-0.6-0.3-0.8-0.8-0.8c-0.2,0-0.4,0.1-0.5,0.2
		c-0.1,0.1-0.2,0.3-0.2,0.5c0,0.2,0.1,0.4,0.3,0.5c0.3,0.2,0.6,0.2,0.9,0.3c0.4,0.1,0.7,0.2,1,0.3c0.9,0.2,1.5,1,1.5,1.9
		c0,0.6-0.3,1.2-0.8,1.6c-0.6,0.4-1.4,0.6-2.1,0.6c-0.5,0-1-0.1-1.5-0.3c-0.4-0.2-0.8-0.5-1-0.9c-0.2-0.3-0.4-0.7-0.4-1.2h1.9
		c0,0.3,0.1,0.5,0.3,0.7c0.2,0.2,0.5,0.2,0.8,0.2c0.2,0,0.4,0,0.6-0.2C-1553.2-9430.7-1553.1-9430.9-1553.1-9431.1L-1553.1-9431.1z
		 M-1679.8-9412.9c0-0.9,0.2-1.8,0.7-2.6c0.4-0.6,1.2-1,1.9-1c0.6,0,1.1,0.3,1.5,0.7v-3.5h2.1v9.9h-1.9l-0.1-0.7
		c-0.4,0.6-1,0.9-1.6,0.9c-0.7,0-1.4-0.3-1.9-1C-1679.6-9411-1679.9-9411.9-1679.8-9412.9z M-1677.8-9412.7c0,1.2,0.3,1.9,1,1.9
		c0.4,0,0.8-0.2,1-0.6v-2.7c-0.2-0.4-0.6-0.6-1-0.6c-0.6,0-1,0.5-1,1.6L-1677.8-9412.7z M-1669.3-9409.2c-0.9,0-1.8-0.3-2.5-1
		c-0.6-0.7-1-1.6-0.9-2.5v-0.2c0-0.7,0.1-1.3,0.4-1.9c0.2-0.5,0.6-1,1.1-1.3c0.5-0.3,1.1-0.5,1.7-0.4c0.8,0,1.6,0.3,2.2,0.9
		c0.6,0.7,0.9,1.6,0.8,2.5v0.8h-4.1c0.1,0.4,0.2,0.7,0.5,0.9c0.3,0.2,0.6,0.4,1,0.3c0.6,0,1.2-0.2,1.5-0.7l0.9,1.2
		c-0.3,0.4-0.7,0.7-1.1,0.9C-1668.2-9409.3-1668.8-9409.2-1669.3-9409.2z M-1669.5-9414.8c-0.6,0-1,0.4-1.1,1.3h2.1v-0.2
		c0-0.3-0.1-0.6-0.3-0.8C-1669-9414.7-1669.2-9414.8-1669.5-9414.8z M-1656.4-9412.8c0,0.9-0.2,1.8-0.7,2.6c-0.4,0.6-1.1,1-1.9,1
		c-0.6,0-1.1-0.2-1.5-0.7v3.2h-2.1v-9.6h1.9l0.1,0.6c0.4-0.5,1-0.8,1.6-0.8c0.7,0,1.5,0.3,1.9,1c0.5,0.8,0.7,1.7,0.7,2.6V-9412.8z
		 M-1658.4-9412.9c0-1.2-0.3-1.9-1-1.9c-0.4,0-0.8,0.2-1,0.6v2.7c0.2,0.4,0.6,0.6,1,0.6c0.7,0,1-0.6,1-1.8V-9412.9z M-1651.7-9409.3
		c-0.1-0.2-0.2-0.4-0.2-0.6c-0.4,0.5-1,0.8-1.6,0.8c-0.6,0-1.2-0.2-1.6-0.6c-0.4-0.4-0.7-0.9-0.7-1.5c0-0.7,0.3-1.3,0.8-1.7
		c0.7-0.4,1.5-0.6,2.3-0.6h0.6v-0.4c0-0.6-0.3-1-0.8-1c-0.4-0.1-0.7,0.2-0.7,0.6c0,0.1,0,0.1,0,0.2h-2.1c0-0.7,0.3-1.3,0.8-1.6
		c0.6-0.4,1.3-0.7,2.1-0.6c0.7,0,1.4,0.2,2,0.6c0.5,0.4,0.8,1.1,0.8,1.8v3.1c0,0.5,0.1,1,0.3,1.5v0.1H-1651.7z M-1653-9410.8
		c0.2,0,0.4-0.1,0.6-0.2c0.2-0.1,0.3-0.2,0.4-0.4v-1.1h-0.6c-0.7,0-1.1,0.3-1.1,1c0,0.2,0.1,0.4,0.2,0.5
		C-1653.4-9410.8-1653.2-9410.8-1653-9410.8L-1653-9410.8z M-1646.4-9418v1.7h1.1v1.5h-1.1v3.2c0,0.2,0,0.4,0.1,0.5
		c0.2,0.1,0.3,0.2,0.5,0.2c0.2,0,0.3,0,0.5,0v1.6c-0.4,0.1-0.8,0.2-1.2,0.2c-0.6,0.1-1.1-0.1-1.6-0.5c-0.4-0.4-0.6-1-0.5-1.6v-3.5
		h-0.8v-1.5h0.8v-1.7H-1646.4z M-1640.5-9414.3l-0.7-0.1c-0.5-0.1-1,0.2-1.3,0.6v4.4h-2.1v-7h1.9l0.1,0.9c0.2-0.6,0.8-1,1.5-1
		c0.2,0,0.4,0,0.6,0.1L-1640.5-9414.3z M-1637.5-9409.3h-2.1v-7h2.1V-9409.3z M-1639.7-9418.1c0-0.3,0.1-0.6,0.3-0.8
		c0.5-0.4,1.2-0.4,1.7,0c0.4,0.4,0.4,1,0.1,1.5c0,0,0,0-0.1,0.1c-0.5,0.4-1.2,0.4-1.7,0C-1639.6-9417.5-1639.7-9417.8-1639.7-9418.1
		z M-1634.3-9416.3l0.1,0.8c0.4-0.6,1.2-1,1.9-0.9c0.7-0.1,1.4,0.4,1.7,1c0.4-0.7,1.2-1.1,2-1c1.3,0,2,0.9,2.1,2.6v4.5h-2.1v-4.4
		c0-0.3,0-0.5-0.2-0.8c-0.2-0.2-0.4-0.3-0.6-0.2c-0.4,0-0.7,0.2-0.9,0.6l0,0.1v4.8h-2.1v-4.4c0-0.3,0-0.6-0.2-0.8
		c-0.2-0.2-0.4-0.3-0.6-0.2c-0.4,0-0.7,0.2-0.9,0.6v4.8h-2.1v-7H-1634.3z M-1625.7-9412.9c0-0.6,0.1-1.3,0.4-1.9
		c0.2-0.5,0.6-1,1.1-1.3c0.5-0.3,1.1-0.5,1.7-0.4c0.9,0,1.7,0.3,2.3,1c0.6,0.7,0.9,1.7,0.9,2.6v0.1c0,0.9-0.3,1.9-0.9,2.6
		c-0.6,0.7-1.5,1-2.3,1c-0.8,0-1.7-0.3-2.3-0.9c-0.6-0.6-0.9-1.5-0.9-2.4L-1625.7-9412.9z M-1623.6-9412.8c0,0.5,0.1,1,0.3,1.4
		c0.2,0.3,0.5,0.5,0.9,0.5c0.7,0,1.1-0.6,1.1-1.8v-0.2c0-1.2-0.4-1.9-1.1-1.9c-0.7,0-1.1,0.5-1.1,1.6L-1623.6-9412.8z
		 M-1616.5-9416.3l0.1,0.8c0.4-0.6,1.2-1,1.9-0.9c0.6,0,1.2,0.2,1.5,0.7c0.4,0.6,0.6,1.3,0.5,2v4.5h-2.1v-4.4c0-0.3,0-0.5-0.2-0.8
		c-0.2-0.2-0.5-0.3-0.7-0.2c-0.4,0-0.7,0.2-0.9,0.5v4.9h-2.1v-7H-1616.5z M-1609.1-9409.3h-2.1v-7h2.1V-9409.3z M-1611.3-9418.1
		c0-0.3,0.1-0.6,0.3-0.8c0.5-0.4,1.2-0.4,1.7,0c0.4,0.4,0.4,1,0.1,1.5c0,0,0,0-0.1,0.1c-0.5,0.4-1.2,0.4-1.7,0
		C-1611.2-9417.5-1611.3-9417.8-1611.3-9418.1z M-1608.1-9412.9c0-0.6,0.1-1.3,0.4-1.9c0.2-0.5,0.6-1,1.1-1.3
		c0.5-0.3,1.1-0.5,1.7-0.4c0.9,0,1.7,0.3,2.3,1c0.6,0.7,0.9,1.7,0.9,2.6v0.1c0,0.9-0.3,1.9-0.9,2.6c-0.6,0.7-1.5,1-2.3,1
		c-0.8,0-1.7-0.3-2.3-0.9c-0.6-0.6-0.9-1.5-0.9-2.4L-1608.1-9412.9z M-1606-9412.8c0,0.5,0.1,1,0.3,1.4c0.2,0.3,0.5,0.5,0.9,0.5
		c0.7,0,1.1-0.6,1.1-1.8v-0.2c0-1.2-0.4-1.9-1.1-1.9c-0.7,0-1.1,0.5-1.1,1.6L-1606-9412.8z M-1599.5-9411.5c0.3,0,0.6,0.1,0.8,0.3
		c0.4,0.4,0.4,1.1,0.1,1.5c0,0,0,0-0.1,0.1c-0.5,0.4-1.2,0.4-1.6,0c-0.4-0.4-0.4-1.1,0-1.5c0,0,0,0,0-0.1
		C-1600.1-9411.3-1599.8-9411.5-1599.5-9411.5L-1599.5-9411.5z"/>
	<path id="Trazado_102825" class="st2" d="M-1519.6-9553.2h0.8c0.4,0,0.8-0.1,1.1-0.4c0.3-0.3,0.4-0.6,0.4-1c0.1-0.7-0.4-1.4-1-1.5
		c-0.1,0-0.2,0-0.3,0c-0.4,0-0.8,0.1-1,0.4c-0.3,0.3-0.4,0.6-0.4,1h-1c0-0.6,0.2-1.2,0.7-1.6c0.5-0.4,1.1-0.7,1.8-0.7
		c0.6,0,1.3,0.2,1.8,0.6c0.4,0.5,0.7,1.1,0.6,1.7c0,0.4-0.1,0.7-0.3,1.1c-0.2,0.3-0.5,0.6-0.9,0.8c0.4,0.1,0.8,0.4,1,0.7
		c0.2,0.4,0.4,0.8,0.4,1.2c0,0.7-0.2,1.3-0.7,1.8c-0.5,0.5-1.2,0.7-1.8,0.7c-0.7,0-1.3-0.2-1.8-0.6c-0.5-0.4-0.7-1-0.7-1.7h1
		c0,0.4,0.1,0.8,0.4,1.1c0.3,0.3,0.7,0.4,1.1,0.4c0.4,0,0.8-0.1,1.1-0.4c0.3-0.3,0.4-0.7,0.4-1.1c0-0.4-0.1-0.8-0.4-1.1
		c-0.4-0.3-0.8-0.4-1.2-0.4h-0.8V-9553.2z M-1509.8-9552c0.1,1-0.1,1.9-0.6,2.8c-0.4,0.6-1.2,1-1.9,0.9c-0.7,0.1-1.4-0.3-1.9-0.9
		c-0.5-0.8-0.7-1.7-0.6-2.6v-1.4c-0.1-1,0.1-1.9,0.6-2.7c0.4-0.6,1.2-1,1.9-0.9c0.7-0.1,1.4,0.3,1.9,0.9c0.5,0.8,0.7,1.7,0.6,2.7
		L-1509.8-9552z M-1510.8-9553.5c0-0.7-0.1-1.3-0.4-2c-0.2-0.4-0.7-0.6-1.1-0.6c-0.5,0-0.9,0.2-1.1,0.6c-0.3,0.6-0.4,1.2-0.4,1.9
		v1.7c0,0.7,0.1,1.4,0.4,2c0.2,0.4,0.7,0.7,1.1,0.6c0.4,0,0.9-0.2,1.1-0.6c0.3-0.6,0.4-1.2,0.4-1.9L-1510.8-9553.5z M-1503.5-9552
		c0.1,1-0.1,1.9-0.6,2.8c-0.4,0.6-1.2,1-1.9,0.9c-0.7,0.1-1.4-0.3-1.9-0.9c-0.5-0.8-0.7-1.7-0.6-2.6v-1.4c-0.1-1,0.1-1.9,0.6-2.7
		c0.4-0.6,1.2-1,1.9-0.9c0.7-0.1,1.4,0.3,1.9,0.9c0.5,0.8,0.7,1.7,0.6,2.7L-1503.5-9552z M-1504.5-9553.5c0-0.7-0.1-1.3-0.4-2
		c-0.2-0.4-0.7-0.6-1.1-0.6c-0.5,0-0.9,0.2-1.1,0.6c-0.3,0.6-0.4,1.2-0.4,1.9v1.7c0,0.7,0.1,1.4,0.4,2c0.2,0.4,0.7,0.7,1.1,0.6
		c0.4,0,0.9-0.2,1.1-0.6c0.3-0.6,0.4-1.2,0.4-1.9L-1504.5-9553.5z M-1502.1-9549c0-0.2,0.1-0.3,0.2-0.5c0.1-0.1,0.3-0.2,0.5-0.2
		c0.2,0,0.3,0.1,0.5,0.2c0.1,0.1,0.2,0.3,0.2,0.5c0,0.2-0.1,0.3-0.2,0.4c-0.1,0.1-0.3,0.2-0.5,0.2c-0.3,0-0.6-0.2-0.6-0.5
		C-1502.1-9549-1502.1-9549-1502.1-9549L-1502.1-9549z M-1494.3-9552c0.1,1-0.1,1.9-0.6,2.8c-0.4,0.6-1.2,1-1.9,0.9
		c-0.7,0.1-1.4-0.3-1.9-0.9c-0.5-0.8-0.7-1.7-0.6-2.6v-1.4c-0.1-1,0.1-1.9,0.6-2.7c0.4-0.6,1.2-1,1.9-0.9c0.7-0.1,1.4,0.3,1.9,0.9
		c0.5,0.8,0.7,1.7,0.6,2.7L-1494.3-9552z M-1495.3-9553.5c0-0.7-0.1-1.3-0.4-2c-0.2-0.4-0.7-0.6-1.1-0.6c-0.5,0-0.9,0.2-1.1,0.6
		c-0.3,0.6-0.4,1.2-0.4,1.9v1.7c0,0.7,0.1,1.4,0.4,2c0.2,0.4,0.7,0.7,1.1,0.6c0.4,0,0.9-0.2,1.1-0.6c0.3-0.6,0.4-1.2,0.4-1.9
		L-1495.3-9553.5z M-1488-9552c0.1,1-0.1,1.9-0.6,2.8c-0.4,0.6-1.2,1-1.9,0.9c-0.7,0.1-1.4-0.3-1.9-0.9c-0.5-0.8-0.7-1.7-0.6-2.6
		v-1.4c-0.1-1,0.1-1.9,0.6-2.7c0.4-0.6,1.2-1,1.9-0.9c0.7-0.1,1.4,0.3,1.9,0.9c0.5,0.8,0.7,1.7,0.6,2.7L-1488-9552z M-1489-9553.5
		c0-0.7-0.1-1.3-0.4-2c-0.2-0.4-0.7-0.6-1.1-0.6c-0.5,0-0.9,0.2-1.1,0.6c-0.3,0.6-0.4,1.2-0.4,1.9v1.7c0,0.7,0.1,1.4,0.4,2
		c0.2,0.4,0.7,0.7,1.1,0.6c0.4,0,0.9-0.2,1.1-0.6c0.3-0.6,0.4-1.2,0.4-1.9L-1489-9553.5z M-1481.8-9552c0.1,1-0.1,1.9-0.6,2.8
		c-0.9,1.1-2.5,1.2-3.5,0.3c-0.1-0.1-0.2-0.2-0.2-0.2c-0.5-0.8-0.7-1.7-0.6-2.6v-1.4c-0.1-1,0.1-1.9,0.6-2.7
		c0.9-1.1,2.6-1.2,3.6-0.2c0.1,0.1,0.1,0.1,0.2,0.2c0.5,0.8,0.7,1.7,0.6,2.7L-1481.8-9552z M-1482.8-9553.5c0-0.7-0.1-1.3-0.4-2
		c-0.2-0.4-0.7-0.6-1.1-0.6c-0.5,0-0.9,0.2-1.1,0.6c-0.3,0.6-0.4,1.2-0.4,1.9v1.7c0,0.7,0.1,1.4,0.4,2c0.2,0.4,0.7,0.7,1.1,0.6
		c0.4,0,0.9-0.2,1.1-0.6c0.3-0.6,0.4-1.2,0.4-1.9L-1482.8-9553.5z M-1480.4-9546.8l-0.6-0.4c0.3-0.4,0.5-1,0.5-1.5v-1h1v0.8
		c0,0.4-0.1,0.8-0.3,1.2C-1479.9-9547.4-1480.1-9547.1-1480.4-9546.8L-1480.4-9546.8z M-1473.3-9552c0.1,1-0.1,1.9-0.6,2.8
		c-0.9,1.1-2.5,1.2-3.5,0.3c-0.1-0.1-0.2-0.2-0.2-0.2c-0.5-0.8-0.7-1.7-0.6-2.6v-1.4c-0.1-1,0.1-1.9,0.6-2.7
		c0.9-1.1,2.6-1.2,3.6-0.2c0.1,0.1,0.1,0.1,0.2,0.2c0.5,0.8,0.7,1.7,0.6,2.7L-1473.3-9552z M-1474.3-9553.5c0-0.7-0.1-1.3-0.4-2
		c-0.2-0.4-0.7-0.6-1.1-0.6c-0.5,0-0.9,0.2-1.1,0.6c-0.3,0.6-0.4,1.2-0.4,1.9v1.7c0,0.7,0.1,1.4,0.4,2c0.2,0.4,0.7,0.7,1.1,0.6
		c0.4,0,0.9-0.2,1.1-0.6c0.3-0.6,0.4-1.2,0.4-1.9L-1474.3-9553.5z M-1467-9552c0.1,1-0.1,1.9-0.6,2.8c-0.9,1.1-2.5,1.2-3.5,0.3
		c-0.1-0.1-0.2-0.2-0.2-0.2c-0.5-0.8-0.7-1.7-0.6-2.6v-1.4c-0.1-1,0.1-1.9,0.6-2.7c0.9-1.1,2.6-1.2,3.6-0.2c0.1,0.1,0.1,0.1,0.2,0.2
		c0.5,0.8,0.7,1.7,0.6,2.7L-1467-9552z M-1468-9553.5c0-0.7-0.1-1.3-0.4-2c-0.2-0.4-0.7-0.6-1.1-0.6c-0.5,0-0.9,0.2-1.1,0.6
		c-0.3,0.6-0.4,1.2-0.4,1.9v1.7c0,0.7,0.1,1.4,0.4,2c0.2,0.4,0.7,0.7,1.1,0.6c0.4,0,0.9-0.2,1.1-0.6c0.3-0.6,0.4-1.2,0.4-1.9
		L-1468-9553.5z"/>
	<path id="Trazado_102827" class="st2" d="M-1386.9-9462.2h0.8c0.4,0,0.8-0.1,1.1-0.4c0.3-0.3,0.4-0.6,0.4-1c0.1-0.7-0.4-1.4-1-1.5
		c-0.1,0-0.2,0-0.3,0c-0.4,0-0.8,0.1-1,0.4c-0.3,0.3-0.4,0.7-0.4,1h-1c0-0.6,0.2-1.2,0.7-1.6c0.5-0.4,1.1-0.7,1.8-0.7
		c0.6,0,1.3,0.2,1.8,0.6c0.4,0.5,0.7,1.1,0.6,1.7c0,0.4-0.1,0.7-0.3,1.1c-0.2,0.3-0.5,0.6-0.9,0.8c0.4,0.1,0.8,0.4,1,0.7
		c0.2,0.4,0.4,0.8,0.4,1.2c0,0.7-0.2,1.3-0.7,1.8c-0.5,0.5-1.2,0.7-1.8,0.7c-0.7,0-1.3-0.2-1.8-0.6c-0.5-0.4-0.7-1-0.7-1.7h1
		c0,0.4,0.1,0.8,0.4,1.1c0.3,0.3,0.7,0.4,1.1,0.4c0.4,0,0.8-0.1,1.1-0.4c0.3-0.3,0.4-0.7,0.4-1.1c0-0.4-0.1-0.8-0.4-1.1
		c-0.4-0.3-0.8-0.4-1.2-0.4h-0.8V-9462.2z M-1377.2-9461.1c0.1,1-0.1,1.9-0.6,2.8c-0.4,0.6-1.2,1-1.9,0.9c-0.7,0.1-1.4-0.3-1.9-0.9
		c-0.5-0.8-0.7-1.7-0.6-2.6v-1.4c-0.1-1,0.1-1.9,0.6-2.7c0.4-0.6,1.2-1,1.9-0.9c0.7-0.1,1.4,0.3,1.9,0.9c0.5,0.8,0.7,1.7,0.6,2.7
		L-1377.2-9461.1z M-1378.2-9462.5c0-0.7-0.1-1.3-0.4-2c-0.2-0.4-0.7-0.6-1.1-0.6c-0.5,0-0.9,0.2-1.1,0.6c-0.3,0.6-0.4,1.2-0.4,1.9
		v1.7c0,0.7,0.1,1.4,0.4,2c0.2,0.4,0.7,0.7,1.1,0.6c0.4,0,0.9-0.2,1.1-0.6c0.3-0.6,0.4-1.2,0.4-1.9L-1378.2-9462.5z M-1370.9-9461.1
		c0.1,1-0.1,1.9-0.6,2.8c-0.4,0.6-1.2,1-1.9,0.9c-0.7,0.1-1.4-0.3-1.9-0.9c-0.5-0.8-0.7-1.7-0.6-2.6v-1.4c-0.1-1,0.1-1.9,0.6-2.7
		c0.4-0.6,1.2-1,1.9-0.9c0.7-0.1,1.4,0.3,1.9,0.9c0.5,0.8,0.7,1.7,0.6,2.7L-1370.9-9461.1z M-1371.9-9462.5c0-0.7-0.1-1.3-0.4-2
		c-0.2-0.4-0.7-0.6-1.1-0.6c-0.5,0-0.9,0.2-1.1,0.6c-0.3,0.6-0.4,1.2-0.4,1.9v1.7c0,0.7,0.1,1.4,0.4,2c0.2,0.4,0.7,0.7,1.1,0.6
		c0.4,0,0.9-0.2,1.1-0.6c0.3-0.6,0.4-1.2,0.4-1.9L-1371.9-9462.5z M-1369.5-9458.1c0-0.2,0.1-0.3,0.2-0.5c0.1-0.1,0.3-0.2,0.5-0.2
		c0.2,0,0.3,0.1,0.5,0.2c0.1,0.1,0.2,0.3,0.2,0.5c0,0.2-0.1,0.3-0.2,0.4c-0.1,0.1-0.3,0.2-0.5,0.2c-0.3,0-0.6-0.2-0.6-0.5
		C-1369.5-9458-1369.5-9458.1-1369.5-9458.1L-1369.5-9458.1z M-1361.7-9461.1c0.1,1-0.1,1.9-0.6,2.8c-0.4,0.6-1.2,1-1.9,0.9
		c-0.7,0.1-1.4-0.3-1.9-0.9c-0.5-0.8-0.7-1.7-0.6-2.6v-1.4c-0.1-1,0.1-1.9,0.6-2.7c0.4-0.6,1.2-1,1.9-0.9c0.7-0.1,1.4,0.3,1.9,0.9
		c0.5,0.8,0.7,1.7,0.6,2.7L-1361.7-9461.1z M-1362.7-9462.5c0-0.7-0.1-1.3-0.4-2c-0.2-0.4-0.7-0.6-1.1-0.6c-0.5,0-0.9,0.2-1.1,0.6
		c-0.3,0.6-0.4,1.2-0.4,1.9v1.7c0,0.7,0.1,1.4,0.4,2c0.2,0.4,0.7,0.7,1.1,0.6c0.4,0,0.9-0.2,1.1-0.6c0.3-0.6,0.4-1.2,0.4-1.9
		L-1362.7-9462.5z M-1355.4-9461.1c0.1,1-0.1,1.9-0.6,2.8c-0.4,0.6-1.2,1-1.9,0.9c-0.7,0.1-1.4-0.3-1.9-0.9
		c-0.5-0.8-0.7-1.7-0.6-2.6v-1.4c-0.1-1,0.1-1.9,0.6-2.7c0.4-0.6,1.2-1,1.9-0.9c0.7-0.1,1.4,0.3,1.9,0.9c0.5,0.8,0.7,1.7,0.6,2.7
		L-1355.4-9461.1z M-1356.4-9462.5c0-0.7-0.1-1.3-0.4-2c-0.2-0.4-0.7-0.6-1.1-0.6c-0.5,0-0.9,0.2-1.1,0.6c-0.3,0.6-0.4,1.2-0.4,1.9
		v1.7c0,0.7,0.1,1.4,0.4,2c0.2,0.4,0.7,0.7,1.1,0.6c0.4,0,0.9-0.2,1.1-0.6c0.3-0.6,0.4-1.2,0.4-1.9L-1356.4-9462.5z M-1349.1-9461.1
		c0.1,1-0.1,1.9-0.6,2.8c-0.9,1.1-2.5,1.2-3.5,0.3c-0.1-0.1-0.2-0.2-0.2-0.2c-0.5-0.8-0.7-1.7-0.6-2.6v-1.4c-0.1-1,0.1-1.9,0.6-2.7
		c0.9-1.1,2.6-1.2,3.6-0.2c0.1,0.1,0.1,0.1,0.2,0.2c0.5,0.8,0.7,1.7,0.6,2.7L-1349.1-9461.1z M-1350.1-9462.5c0-0.7-0.1-1.3-0.4-2
		c-0.2-0.4-0.7-0.6-1.1-0.6c-0.5,0-0.9,0.2-1.1,0.6c-0.3,0.6-0.4,1.2-0.4,1.9v1.7c0,0.7,0.1,1.4,0.4,2c0.2,0.4,0.7,0.7,1.1,0.6
		c0.4,0,0.9-0.2,1.1-0.6c0.3-0.6,0.4-1.2,0.4-1.9L-1350.1-9462.5z M-1347.8-9455.9l-0.6-0.4c0.3-0.4,0.5-1,0.5-1.5v-1h1v0.8
		c0,0.4-0.1,0.8-0.3,1.2C-1347.2-9456.5-1347.5-9456.1-1347.8-9455.9L-1347.8-9455.9z M-1340.7-9461.1c0.1,1-0.1,1.9-0.6,2.8
		c-0.9,1.1-2.5,1.2-3.5,0.3c-0.1-0.1-0.2-0.2-0.2-0.2c-0.5-0.8-0.7-1.7-0.6-2.6v-1.4c-0.1-1,0.1-1.9,0.6-2.7
		c0.9-1.1,2.6-1.2,3.6-0.2c0.1,0.1,0.1,0.1,0.2,0.2c0.5,0.8,0.7,1.7,0.6,2.7L-1340.7-9461.1z M-1341.7-9462.5c0-0.7-0.1-1.3-0.4-2
		c-0.2-0.4-0.7-0.6-1.1-0.6c-0.5,0-0.9,0.2-1.1,0.6c-0.3,0.6-0.4,1.2-0.4,1.9v1.7c0,0.7,0.1,1.4,0.4,2c0.2,0.4,0.7,0.7,1.1,0.6
		c0.4,0,0.9-0.2,1.1-0.6c0.3-0.6,0.4-1.2,0.4-1.9L-1341.7-9462.5z M-1334.4-9461.1c0.1,1-0.1,1.9-0.6,2.8c-0.9,1.1-2.5,1.2-3.5,0.3
		c-0.1-0.1-0.2-0.2-0.2-0.2c-0.5-0.8-0.7-1.7-0.6-2.6v-1.4c-0.1-1,0.1-1.9,0.6-2.7c0.9-1.1,2.6-1.2,3.6-0.2c0.1,0.1,0.1,0.1,0.2,0.2
		c0.5,0.8,0.7,1.7,0.6,2.7L-1334.4-9461.1z M-1335.4-9462.5c0-0.7-0.1-1.3-0.4-2c-0.2-0.4-0.7-0.6-1.1-0.6c-0.5,0-0.9,0.2-1.1,0.6
		c-0.3,0.6-0.4,1.2-0.4,1.9v1.7c0,0.7,0.1,1.4,0.4,2c0.2,0.4,0.7,0.7,1.1,0.6c0.4,0,0.9-0.2,1.1-0.6c0.3-0.6,0.4-1.2,0.4-1.9
		L-1335.4-9462.5z"/>
	<line id="Línea_191" class="st3" x1="-1538.4" y1="-9596.6" x2="-1538.4" y2="-9407.2"/>
	<line id="Línea_190" class="st3" x1="-1419.1" y1="-9596.6" x2="-1419.1" y2="-9407.2"/>
	<path id="Trazado_99551" class="st4" d="M-1695.5-9641h400v44.4h-400V-9641z"/>
	<path id="Trazado_102821" class="st1" d="M-1650.1-9618.4c0,0.8-0.3,1.6-0.7,2.3c-0.4,0.7-1,1.2-1.7,1.5c-0.8,0.4-1.7,0.6-2.5,0.5
		c-1.4,0.1-2.8-0.5-3.7-1.6c-1-1.3-1.4-2.9-1.4-4.5v-0.6c0-1.1,0.2-2.2,0.6-3.2c0.4-0.9,1-1.6,1.8-2.1c0.8-0.5,1.7-0.8,2.7-0.8
		c1.3-0.1,2.5,0.4,3.5,1.2c0.9,0.8,1.4,2,1.5,3.3h-2.9c0-0.6-0.2-1.2-0.5-1.6c-0.4-0.4-1-0.5-1.6-0.5c-0.6,0-1.2,0.3-1.6,0.8
		c-0.4,0.8-0.6,1.8-0.5,2.7v0.9c-0.1,1,0.1,2,0.5,2.9c0.4,0.6,1,0.9,1.6,0.9c0.5,0,1.1-0.1,1.5-0.5c0.4-0.4,0.6-1,0.6-1.6
		L-1650.1-9618.4z M-1639.4-9626.6v8.2c0,0.8-0.2,1.7-0.6,2.4c-0.4,0.7-0.9,1.2-1.6,1.5c-0.8,0.4-1.6,0.6-2.5,0.5
		c-1.2,0.1-2.5-0.3-3.4-1.2c-0.9-0.8-1.3-2-1.3-3.2v-8.2h2.9v8.3c0,1.4,0.6,2.1,1.8,2.1c0.5,0,1-0.1,1.4-0.5
		c0.3-0.5,0.5-1.1,0.5-1.7v-8.2H-1639.4z M-1630.2-9619.4h-4.5v3h5.3v2.3h-8.2v-12.5h8.2v2.3h-5.4v2.6h4.5L-1630.2-9619.4z
		 M-1618.3-9614.1h-2.9l-4.2-7.8v7.8h-2.9v-12.5h2.9l4.2,7.8v-7.8h2.9L-1618.3-9614.1z M-1607.1-9624.3h-3.6v10.2h-2.9v-10.2h-3.5
		v-2.3h10L-1607.1-9624.3z M-1600.1-9616.5h-3.9l-0.7,2.3h-3.1l4.4-12.5h2.7l4.4,12.5h-3.1L-1600.1-9616.5z M-1603.3-9618.8h2.6
		l-1.3-4.3L-1603.3-9618.8z"/>
	<path id="Trazado_102822" class="st1" d="M-1530.6-9612.6v-12.5h3.8c1,0,2,0.2,2.8,0.8c0.8,0.5,1.5,1.2,2,2.1
		c0.5,0.9,0.7,2,0.7,3.1v0.6c0,1.1-0.2,2.1-0.7,3.1c-0.4,0.9-1.1,1.6-1.9,2.1c-0.9,0.5-1.8,0.8-2.8,0.8H-1530.6z M-1527.7-9622.7
		v7.9h1c0.7,0,1.5-0.3,1.9-0.9c0.5-0.8,0.7-1.8,0.7-2.7v-0.5c0.1-1-0.2-1.9-0.7-2.7c-0.5-0.6-1.2-1-1.9-0.9H-1527.7z
		 M-1512.4-9617.9h-4.5v3h5.3v2.3h-8.2v-12.5h8.2v2.3h-5.3v2.6h4.5V-9617.9z M-1515-9628.4h2.9l-2.3,2.7l-2.2,0L-1515-9628.4z
		 M-1510.4-9612.6v-12.5h4.3c1.2-0.1,2.4,0.2,3.5,0.9c0.8,0.6,1.2,1.5,1.2,2.6c0,0.6-0.1,1.2-0.4,1.7c-0.3,0.5-0.7,0.8-1.3,1
		c0.6,0.1,1.1,0.5,1.4,1c0.3,0.5,0.5,1.1,0.5,1.7c0.1,1.1-0.3,2.1-1.1,2.8c-1,0.7-2.1,1-3.3,0.9H-1510.4z M-1507.5-9617.9v3h1.9
		c0.4,0,0.9-0.1,1.2-0.4c0.3-0.3,0.4-0.7,0.4-1.1c0.1-0.8-0.4-1.5-1.1-1.6c-0.1,0-0.2,0-0.4,0H-1507.5z M-1507.5-9619.9h1.5
		c0.5,0,0.9-0.1,1.3-0.4c0.3-0.3,0.4-0.6,0.4-1c0-0.4-0.1-0.9-0.4-1.1c-0.4-0.3-0.9-0.4-1.4-0.3h-1.4L-1507.5-9619.9z
		 M-1496.5-9612.6h-2.9v-12.5h2.9V-9612.6z M-1485.2-9622.7h-3.6v10.2h-2.9v-10.2h-3.5v-2.3h10V-9622.7z M-1474.1-9618.6
		c0,1.1-0.2,2.2-0.6,3.2c-0.4,0.9-1,1.7-1.8,2.2c-0.8,0.5-1.8,0.8-2.7,0.8c-0.9,0-1.9-0.2-2.7-0.7c-0.8-0.5-1.4-1.2-1.8-2.1
		c-0.5-1-0.7-2-0.7-3.1v-0.7c0-1.1,0.2-2.2,0.6-3.2c0.4-0.9,1-1.7,1.8-2.2c0.8-0.5,1.8-0.8,2.7-0.8c0.9,0,1.9,0.2,2.7,0.8
		c0.8,0.5,1.4,1.3,1.8,2.1c0.5,1,0.7,2.1,0.7,3.2V-9618.6z M-1477-9619.1c0.1-1-0.1-2-0.6-2.8c-0.4-0.6-1-1-1.7-1
		c-1.4,0-2.2,1.1-2.3,3.4l0,0.9c-0.1,1,0.1,2,0.6,2.8c0.4,0.6,1,1,1.7,1c0.7,0,1.3-0.3,1.7-1c0.4-0.9,0.6-1.8,0.6-2.8L-1477-9619.1z
		 M-1466.5-9615.9c0-0.4-0.1-0.8-0.4-1c-0.5-0.3-1-0.6-1.6-0.8c-0.6-0.2-1.2-0.5-1.8-0.8c-1.5-0.8-2.3-1.9-2.3-3.3
		c0-0.7,0.2-1.3,0.6-1.8c0.4-0.6,1-1,1.6-1.2c0.8-0.3,1.6-0.5,2.4-0.4c0.8,0,1.6,0.2,2.3,0.5c0.6,0.3,1.2,0.8,1.6,1.4
		c0.4,0.6,0.6,1.3,0.6,2h-2.9c0-0.4-0.1-0.9-0.4-1.2c-0.3-0.3-0.8-0.4-1.2-0.4c-0.4,0-0.9,0.1-1.2,0.4c-0.3,0.2-0.4,0.5-0.4,0.9
		c0,0.4,0.2,0.7,0.5,0.9c0.5,0.4,1.1,0.6,1.7,0.8c0.7,0.2,1.4,0.5,2,0.9c1.2,0.6,1.9,1.8,1.9,3.2c0,1-0.4,2-1.2,2.6
		c-0.9,0.7-2.1,1-3.2,0.9c-0.9,0-1.8-0.2-2.6-0.5c-0.7-0.3-1.3-0.8-1.8-1.5c-0.4-0.6-0.6-1.4-0.6-2.2h2.9c0,0.5,0.1,1.1,0.5,1.5
		c0.5,0.4,1,0.5,1.6,0.5c0.4,0,0.8-0.1,1.1-0.3C-1466.6-9615.2-1466.4-9615.5-1466.5-9615.9z"/>
	<path id="Trazado_102823" class="st1" d="M-1394.6-9616.9c0,0.8-0.3,1.6-0.7,2.3c-0.4,0.7-1,1.2-1.7,1.5c-0.8,0.4-1.7,0.6-2.5,0.5
		c-1.4,0.1-2.8-0.5-3.7-1.6c-1-1.3-1.4-2.9-1.4-4.5v-0.6c0-1.1,0.2-2.2,0.6-3.2c0.4-0.9,1-1.6,1.8-2.1c0.8-0.5,1.7-0.8,2.7-0.8
		c1.3-0.1,2.5,0.4,3.5,1.2c0.9,0.8,1.4,2,1.5,3.3h-2.9c0-0.6-0.2-1.2-0.5-1.6c-0.4-0.4-1-0.5-1.6-0.5c-0.6,0-1.2,0.3-1.6,0.8
		c-0.4,0.8-0.6,1.8-0.5,2.7v0.9c-0.1,1,0.1,2,0.5,2.9c0.4,0.6,1,0.9,1.6,0.9c0.5,0,1.1-0.1,1.5-0.5c0.4-0.4,0.6-1,0.6-1.6
		L-1394.6-9616.9z M-1388.8-9617.1h-1.6v4.4h-2.9v-12.5h4.7c1.2-0.1,2.3,0.3,3.3,1c0.8,0.7,1.2,1.7,1.2,2.8c0,0.8-0.1,1.5-0.5,2.2
		c-0.4,0.6-0.9,1.1-1.6,1.4l2.5,5v0.1h-3.1L-1388.8-9617.1z M-1390.3-9619.4h1.8c0.5,0,0.9-0.1,1.2-0.5c0.3-0.3,0.4-0.8,0.4-1.3
		c0-0.5-0.1-0.9-0.4-1.3c-0.3-0.3-0.8-0.5-1.2-0.5h-1.8L-1390.3-9619.4z M-1374.9-9618h-4.5v3h5.3v2.3h-8.2v-12.5h8.2v2.3h-5.4v2.6
		h4.5L-1374.9-9618z M-1377.6-9628.5h2.9l-2.3,2.7l-2.2,0L-1377.6-9628.5z M-1372.9-9612.7v-12.5h3.8c1,0,2,0.2,2.8,0.8
		c0.8,0.5,1.5,1.2,2,2.1c0.5,0.9,0.7,2,0.7,3.1v0.6c0,1.1-0.2,2.1-0.7,3.1c-0.4,0.9-1.1,1.6-1.9,2.1c-0.9,0.5-1.8,0.8-2.8,0.8
		H-1372.9z M-1370-9622.8v7.9h1c0.7,0,1.5-0.3,1.9-0.9c0.5-0.8,0.7-1.8,0.7-2.7v-0.5c0.1-1-0.2-1.9-0.7-2.7c-0.5-0.6-1.2-1-1.9-0.9
		H-1370z M-1359-9612.7h-2.9v-12.5h2.9V-9612.7z M-1347.7-9622.8h-3.6v10.2h-2.9v-10.2h-3.5v-2.3h10V-9622.8z M-1336.6-9618.7
		c0,1.1-0.2,2.2-0.6,3.2c-0.4,0.9-1,1.7-1.8,2.2c-0.8,0.5-1.8,0.8-2.7,0.8c-0.9,0-1.9-0.2-2.7-0.7c-0.8-0.5-1.4-1.2-1.8-2.1
		c-0.5-1-0.7-2-0.7-3.1v-0.7c0-1.1,0.2-2.2,0.6-3.2c0.4-0.9,1-1.7,1.8-2.2c0.8-0.5,1.8-0.8,2.7-0.8c0.9,0,1.9,0.2,2.7,0.8
		c0.8,0.5,1.4,1.3,1.8,2.1c0.5,1,0.7,2.1,0.7,3.2V-9618.7z M-1339.5-9619.2c0.1-1-0.1-2-0.6-2.8c-0.4-0.6-1-1-1.7-1
		c-1.4,0-2.2,1.1-2.3,3.4l0,0.9c-0.1,1,0.1,2,0.6,2.8c0.4,0.6,1,1,1.7,1c0.7,0,1.3-0.3,1.7-1c0.4-0.9,0.6-1.8,0.6-2.8V-9619.2z
		 M-1329-9616c0-0.4-0.1-0.8-0.4-1c-0.5-0.3-1-0.6-1.6-0.8c-0.6-0.2-1.2-0.5-1.8-0.8c-1.5-0.8-2.3-1.9-2.3-3.3
		c0-0.7,0.2-1.3,0.6-1.8c0.4-0.6,1-1,1.6-1.2c0.8-0.3,1.6-0.5,2.4-0.4c0.8,0,1.6,0.1,2.3,0.5c0.6,0.3,1.2,0.8,1.6,1.4
		c0.4,0.6,0.6,1.3,0.6,2h-2.9c0-0.4-0.1-0.9-0.4-1.2c-0.3-0.3-0.8-0.4-1.2-0.4c-0.4,0-0.9,0.1-1.2,0.4c-0.3,0.2-0.4,0.5-0.4,0.9
		c0,0.4,0.2,0.7,0.5,0.9c0.5,0.4,1.1,0.6,1.7,0.8c0.7,0.2,1.4,0.5,2,0.9c1.2,0.6,1.9,1.8,1.9,3.2c0,1-0.4,2-1.2,2.6
		c-1,0.7-2.1,1-3.2,0.9c-0.9,0-1.8-0.2-2.6-0.5c-0.7-0.3-1.3-0.8-1.8-1.5c-0.4-0.6-0.6-1.4-0.6-2.2h2.9c0,0.5,0.1,1.1,0.5,1.5
		c0.5,0.4,1,0.5,1.6,0.5c0.4,0,0.8-0.1,1.1-0.3C-1329.1-9615.3-1329-9615.6-1329-9616z"/>
</g>
</svg>
