<?xml version="1.0" encoding="utf-8"?>
<!-- Generator: Adobe Illustrator 25.2.3, SVG Export Plug-In . SVG Version: 6.00 Build 0)  -->
<svg version="1.1" id="Capa_1" xmlns="http://www.w3.org/2000/svg" xmlns:xlink="http://www.w3.org/1999/xlink" x="0px" y="0px"
	 viewBox="0 0 573 341.4" style="enable-background:new 0 0 573 341.4;" xml:space="preserve">
<style type="text/css">
	.st0{fill:#F6F6F6;}
	.st1{fill:#FFFFFF;}
	.st2{fill:#12263F;}
	.st3{font-family:'Roboto-Bold';}
	.st4{font-size:11.5986px;}
	.st5{font-family:'Roboto-Regular';}
	.st6{font-size:10.3098px;}
	.st7{fill:none;stroke:#AFAFAF;stroke-linecap:round;}
	.st8{fill:#D9A171;}
	.st9{font-size:15.4647px;}
</style>
<g id="Grupo_54976" transform="translate(1782 9686.711)">
	<rect id="Rectángulo_5449" x="-1695.5" y="-9586.9" class="st0" width="400" height="94.1"/>
	<rect id="Rectángulo_5448" x="-1695.5" y="-9492.8" class="st1" width="400" height="86.8"/>
	<text transform="matrix(1.0834 0 0 1 -1680.1426 -9560.4834)" class="st2 st3 st4">Activos por derivados </text>
	<text transform="matrix(1.0834 0 0 1 -1680.1426 -9543.0859)" class="st2 st3 st4">financieros a largo </text>
	<text transform="matrix(1.0834 0 0 1 -1680.1426 -9525.6875)" class="st2 st3 st4">plazo, instrumentos de </text>
	<text transform="matrix(1.0834 0 0 1 -1680.1426 -9508.29)" class="st2 st3 st4">cobertura.</text>
	<text transform="matrix(1.0834 0 0 1 -1680.1426 -9474.3379)" class="st2 st3 st4">Inversiones </text>
	<text transform="matrix(1.0834 0 0 1 -1680.1426 -9456.9395)" class="st2 st3 st4">financieras a largo</text>
	<text transform="matrix(1.0834 0 0 1 -1680.1426 -9439.542)" class="st2 st3 st4"> plazo en instrumentos </text>
	<text transform="matrix(1.0834 0 0 1 -1680.1426 -9422.1445)" class="st2 st3 st4">de patrimonio.</text>
	<text transform="matrix(1.0834 0 0 1 -1521.7026 -9544.5938)" class="st2 st5 st6">300.000,00</text>
	<text transform="matrix(1.0834 0 0 1 -1389.0674 -9464.5576)" class="st2 st5 st6">300.000,00</text>
	<line id="Línea_191" class="st7" x1="-1538.4" y1="-9586.9" x2="-1538.4" y2="-9420.2"/>
	<line id="Línea_190" class="st7" x1="-1419.1" y1="-9586.9" x2="-1419.1" y2="-9420.2"/>
	<path id="Trazado_99551" class="st8" d="M-1695.5-9626h400v39.1h-400V-9626z"/>
	<text transform="matrix(1.0834 0 0 1 -1660.6133 -9602.3672)" class="st1 st3 st9">CUENTA</text>
	<text transform="matrix(1.0834 0 0 1 -1531.4727 -9600.9756)" class="st1 st3 st9">DÉBITOS</text>
	<text transform="matrix(1.0834 0 0 1 -1405.0947 -9601.0781)" class="st1 st3 st9">CRÉDITOS</text>
</g>
</svg>
