<svg xmlns="http://www.w3.org/2000/svg" width="60" height="60" viewBox="0 0 60 60">
  <g id="Grupo_54996" data-name="Grupo 54996" transform="translate(-800 -1587.5)">
    <circle id="Elipse_3996" data-name="Elipse 3996" cx="30" cy="30" r="30" transform="translate(800 1587.5)" fill="#d9a171"/>
    <path id="Trazado_102772" data-name="Trazado 102772" d="M8.086,27.484A2.2,2.2,0,0,0,9.7,26.92a2.068,2.068,0,0,0,.557-1.575h4.629a5.48,5.48,0,0,1-1.868,4.277A6.947,6.947,0,0,1,8.2,31.293a7.034,7.034,0,0,1-5.449-2.168A8.542,8.542,0,0,1,.762,23.119v-.205a9.654,9.654,0,0,1,.886-4.241A6.453,6.453,0,0,1,4.2,15.846a7.622,7.622,0,0,1,3.955-.989,6.86,6.86,0,0,1,4.907,1.714,6.079,6.079,0,0,1,1.816,4.644H10.254a2.71,2.71,0,0,0-.6-1.89,2.073,2.073,0,0,0-1.611-.659q-1.919,0-2.241,2.446a17.261,17.261,0,0,0-.1,2.139,6.78,6.78,0,0,0,.571,3.311A1.978,1.978,0,0,0,8.086,27.484Z" transform="translate(821 1597.5)" fill="#fff"/>
  </g>
</svg>
