<svg xmlns="http://www.w3.org/2000/svg" width="60" height="60" viewBox="0 0 60 60">
  <g id="Grupo_54994" data-name="Grupo 54994" transform="translate(-800 -1205.5)">
    <circle id="Elipse_3994" data-name="Elipse 3994" cx="30" cy="30" r="30" transform="translate(800 1205.5)" fill="#d9a171"/>
    <path id="Trazado_102770" data-name="Trazado 102770" d="M10.313,31a5.574,5.574,0,0,1-.469-1.421,4.59,4.59,0,0,1-3.809,1.714,5.623,5.623,0,0,1-3.809-1.355A4.313,4.313,0,0,1,.659,26.532a4.433,4.433,0,0,1,1.9-3.9A9.7,9.7,0,0,1,8.1,21.317H9.624v-.839q0-2.193-1.89-2.193a1.545,1.545,0,0,0-1.758,1.737H1.04A4.425,4.425,0,0,1,3,16.291a8.218,8.218,0,0,1,4.988-1.434,7.205,7.205,0,0,1,4.79,1.479,5.144,5.144,0,0,1,1.8,4.058v7.017a7.186,7.186,0,0,0,.674,3.34V31ZM7.222,27.777a2.754,2.754,0,0,0,1.531-.4,2.479,2.479,0,0,0,.872-.894V23.954H8.188q-2.578,0-2.578,2.314a1.413,1.413,0,0,0,.454,1.091A1.643,1.643,0,0,0,7.222,27.777Z" transform="translate(821 1215.5)" fill="#fff"/>
  </g>
</svg>
