<svg xmlns="http://www.w3.org/2000/svg" width="120" height="120" viewBox="0 0 120 120">
  <g id="Grupo_54897" data-name="Grupo 54897" transform="translate(-467.727 -7748.623)">
    <rect id="Rectángulo_6860" data-name="Rectángulo 6860" width="120" height="120" transform="translate(467.727 7748.623)" fill="#aed3f2" opacity="0"/>
    <g id="Grupo_54896" data-name="Grupo 54896">
      <g id="Grupo_54887" data-name="Grupo 54887">
        <g id="Grupo_54886" data-name="Grupo 54886">
          <g id="Grupo_54885" data-name="Grupo 54885">
            <g id="Grupo_54884" data-name="Grupo 54884">
              <g id="Grupo_54883" data-name="Grupo 54883">
                <g id="Grupo_54882" data-name="Grupo 54882">
                  <g id="Grupo_54881" data-name="Grupo 54881">
                    <g id="Grupo_54880" data-name="Grupo 54880">
                      <g id="Grupo_54879" data-name="Grupo 54879">
                        <circle id="Elipse_4067" data-name="Elipse 4067" cx="50" cy="50" r="50" transform="translate(477.727 7758.623)" fill="#aed3f2"/>
                      </g>
                    </g>
                  </g>
                </g>
              </g>
            </g>
          </g>
        </g>
      </g>
      <path id="Trazado_102618" data-name="Trazado 102618" d="M577.727,7808.623a50.307,50.307,0,0,0-.52-7.234l-13.083-13.083-16.481,24.865-15.857-15.857-2.532,4.663-24.9-24.9-5.859,58.671,22.417,22.418a50.507,50.507,0,0,0,6.819.461,50,50,0,0,0,50-50Z" fill="#6595bf"/>
      <g id="Grupo_54888" data-name="Grupo 54888">
        <path id="Trazado_102619" data-name="Trazado 102619" d="M542.846,7823.545l-15.056-18.081L515.6,7820.487l-4.549-3.693,16.684-20.557,14.571,17.5,15.454-23.4,4.889,3.229Z" fill="#fff"/>
      </g>
      <g id="Grupo_54889" data-name="Grupo 54889">
        <path id="Trazado_102620" data-name="Trazado 102620" d="M557.757,7790.341l-15.454,23.4-14.553-17.477v9.254l.04-.049,15.056,18.081,19.8-29.975Z" fill="#e9edf5"/>
      </g>
      <g id="Grupo_54890" data-name="Grupo 54890">
        <path id="Trazado_102621" data-name="Trazado 102621" d="M560.6,7835.744H498.491v-58.671h5.859v52.812H560.6Z" fill="#fff"/>
      </g>
      <g id="Grupo_54891" data-name="Grupo 54891">
        <path id="Trazado_102622" data-name="Trazado 102622" d="M527.75,7829.885H560.6v5.859H527.75Z" fill="#e9edf5"/>
      </g>
      <g id="Grupo_54892" data-name="Grupo 54892">
        <circle id="Elipse_4068" data-name="Elipse 4068" cx="5.358" cy="5.358" r="5.358" transform="translate(507.964 7813.282)" fill="#f2e9e4"/>
      </g>
      <g id="Grupo_54893" data-name="Grupo 54893">
        <circle id="Elipse_4069" data-name="Elipse 4069" cx="5.358" cy="5.358" r="5.358" transform="translate(537.216 7813.282)" fill="#f2e9e4"/>
      </g>
      <g id="Grupo_54894" data-name="Grupo 54894">
        <circle id="Elipse_4070" data-name="Elipse 4070" cx="5.358" cy="5.358" r="5.358" transform="translate(522.403 7795.492)" fill="#f2e9e4"/>
      </g>
      <g id="Grupo_54895" data-name="Grupo 54895">
        <circle id="Elipse_4071" data-name="Elipse 4071" cx="5.358" cy="5.358" r="5.358" transform="translate(554.844 7786.597)" fill="#a66d58"/>
      </g>
    </g>
  </g>
</svg>
