<?xml version="1.0" encoding="utf-8"?>
<!-- Generator: Adobe Illustrator 25.3.1, SVG Export Plug-In . SVG Version: 6.00 Build 0)  -->
<svg version="1.1" id="Capa_1" xmlns="http://www.w3.org/2000/svg" xmlns:xlink="http://www.w3.org/1999/xlink" x="0px" y="0px"
	 viewBox="0 0 120 120" style="enable-background:new 0 0 120 120;" xml:space="preserve">
<style type="text/css">
	.st0{fill:#AED3F2;fill-opacity:0;}
	.st1{fill:#5E6178;}
	.st2{fill:#6595BF;}
	.st3{fill:#4C7FA5;}
	.st4{fill:#F5EDE9;}
	.st5{fill:#A9DCFF;}
	.st6{fill:#E2D1C9;}
	.st7{fill:#90D5FC;}
</style>
<g id="Grupo_54849" transform="translate(-323.278 -7479.34)">
	<rect id="Rectángulo_6856" x="323.3" y="7479.3" class="st0" width="120" height="120"/>
	<g id="Grupo_54848">
		<circle id="Elipse_4058" class="st1" cx="383.3" cy="7539.3" r="50"/>
		<g id="Grupo_54847">
			<path id="Trazado_102592" class="st2" d="M410.6,7503.6c-0.6-0.9-1.6-1.4-2.7-1.4h-34.8c-5.4,0-9.7,4.3-9.7,9.7v2.5l0.4,0.3
				l12.9,12.9c3.8,3.8,3.8,9.9,0,13.7l0,0l-12.9,12.9l-0.4,0.3v5.7c0,5.4,4.3,9.7,9.7,9.7h11.3c1.3,0,2.5-0.8,3-2.1l23.4-61.4
				C411.4,7505.6,411.2,7504.5,410.6,7503.6z"/>
			<path id="Trazado_102593" class="st3" d="M400.3,7534.5h-20.6c0,2.6-1,5-2.8,6.9l-12.9,12.9l-0.4,0.3v5.7c0,5.4,4.3,9.7,9.7,9.7
				h11.3c1.3,0,2.5-0.8,3-2.1L400.3,7534.5z"/>
			<path id="Trazado_102594" class="st4" d="M355.8,7550.5c-1.2-0.5-2-1.7-2-3v-9.7h-12.9c-1.8,0-3.2-1.4-3.2-3.2
				c0-1.8,1.4-3.2,3.2-3.2h12.9v-9.7c0-1.8,1.4-3.2,3.2-3.2c0.9,0,1.7,0.3,2.3,0.9l12.9,12.9c1.3,1.3,1.3,3.3,0,4.6l0,0l-12.9,12.9
				C358.4,7550.7,357,7550.9,355.8,7550.5L355.8,7550.5z"/>
			<path id="Trazado_102595" class="st5" d="M406.7,7502.5l-19.4,6.5c-2.6,0.9-4.4,3.4-4.4,6.1v58.2c0,3.6,2.9,6.5,6.5,6.5
				c0.7,0,1.4-0.1,2.1-0.3l19.4-6.5c2.6-0.9,4.4-3.4,4.4-6.1v-58.2c0-3.6-3-6.5-6.6-6.5C408,7502.2,407.4,7502.3,406.7,7502.5
				L406.7,7502.5z"/>
			<path id="Trazado_102596" class="st6" d="M373.2,7534.5h-35.5c0,1.8,1.5,3.2,3.2,3.2h12.9v9.7c0,1.8,1.4,3.2,3.2,3.2
				c0.9,0,1.7-0.3,2.3-0.9l12.9-12.9C372.9,7536.2,373.2,7535.4,373.2,7534.5z"/>
			<path id="Trazado_102597" class="st7" d="M382.9,7541h32.3v25.9c0,2.8-1.8,5.2-4.4,6.1l-19.4,6.5c-0.7,0.2-1.4,0.3-2.1,0.3
				c-3.6,0-6.5-2.9-6.5-6.5L382.9,7541L382.9,7541z"/>
		</g>
	</g>
</g>
</svg>
