<svg xmlns="http://www.w3.org/2000/svg" width="120" height="120" viewBox="0 0 120 120">
  <g id="Grupo_54878" data-name="Grupo 54878" transform="translate(-143.958 -7748.623)">
    <rect id="Rectángulo_6859" data-name="Rectángulo 6859" width="120" height="120" transform="translate(143.958 7748.623)" fill="#aed3f2" opacity="0"/>
    <g id="Grupo_54877" data-name="Grupo 54877">
      <g id="Grupo_54868" data-name="Grupo 54868">
        <g id="Grupo_54867" data-name="Grupo 54867">
          <g id="Grupo_54866" data-name="Grupo 54866">
            <g id="Grupo_54865" data-name="Grupo 54865">
              <g id="Grupo_54864" data-name="Grupo 54864">
                <g id="Grupo_54863" data-name="Grupo 54863">
                  <g id="Grupo_54862" data-name="Grupo 54862">
                    <g id="Grupo_54861" data-name="Grupo 54861">
                      <g id="Grupo_54860" data-name="Grupo 54860">
                        <circle id="Elipse_4062" data-name="Elipse 4062" cx="50" cy="50" r="50" transform="translate(153.958 7758.623)" fill="#aed3f2"/>
                      </g>
                    </g>
                  </g>
                </g>
              </g>
            </g>
          </g>
        </g>
      </g>
      <path id="Trazado_102613" data-name="Trazado 102613" d="M253.958,7808.623a50.454,50.454,0,0,0-.52-7.234l-13.083-13.083-16.482,24.865-15.856-15.857-2.532,4.663-24.9-24.9-5.86,58.671,22.418,22.418a50.508,50.508,0,0,0,6.819.461,50,50,0,0,0,50-50Z" fill="#6595bf"/>
      <g id="Grupo_54869" data-name="Grupo 54869">
        <path id="Trazado_102614" data-name="Trazado 102614" d="M219.077,7823.545l-15.056-18.081-12.193,15.023-4.549-3.693,16.684-20.557,14.571,17.5,15.454-23.4,4.889,3.229Z" fill="#fff"/>
      </g>
      <g id="Grupo_54870" data-name="Grupo 54870">
        <path id="Trazado_102615" data-name="Trazado 102615" d="M233.988,7790.341l-15.454,23.4-14.553-17.477v9.254l.04-.049,15.056,18.081,19.8-29.975Z" fill="#e9edf5"/>
      </g>
      <g id="Grupo_54871" data-name="Grupo 54871">
        <path id="Trazado_102616" data-name="Trazado 102616" d="M236.828,7835.744H174.721v-58.671h5.86v52.812h56.247Z" fill="#fff"/>
      </g>
      <g id="Grupo_54872" data-name="Grupo 54872">
        <path id="Trazado_102617" data-name="Trazado 102617" d="M203.981,7829.885h32.847v5.859H203.981Z" fill="#e9edf5"/>
      </g>
      <g id="Grupo_54873" data-name="Grupo 54873">
        <circle id="Elipse_4063" data-name="Elipse 4063" cx="5.358" cy="5.358" r="5.358" transform="translate(184.195 7813.282)" fill="#d9a171"/>
      </g>
      <g id="Grupo_54874" data-name="Grupo 54874">
        <circle id="Elipse_4064" data-name="Elipse 4064" cx="5.358" cy="5.358" r="5.358" transform="translate(213.447 7813.282)" fill="#f2e9e4"/>
      </g>
      <g id="Grupo_54875" data-name="Grupo 54875">
        <circle id="Elipse_4065" data-name="Elipse 4065" cx="5.358" cy="5.358" r="5.358" transform="translate(198.634 7795.492)" fill="#f2e9e4"/>
      </g>
      <g id="Grupo_54876" data-name="Grupo 54876">
        <circle id="Elipse_4066" data-name="Elipse 4066" cx="5.358" cy="5.358" r="5.358" transform="translate(231.074 7786.597)" fill="#f2e9e4"/>
      </g>
    </g>
  </g>
</svg>
