<svg xmlns="http://www.w3.org/2000/svg" width="399.814" height="427.559" viewBox="0 0 399.814 427.559">
  <g id="Grupo_53662" data-name="Grupo 53662" transform="translate(-317.835 -2224.008)">
    <g id="Grupo_53661" data-name="Grupo 53661" transform="translate(317.835 2224.008)">
      <g id="Grupo_53660" data-name="Grupo 53660">
        <rect id="Rectángulo_5470" data-name="Rectángulo 5470" width="38.118" height="0.288" transform="translate(359.337 395.095)" fill="#ebebeb"/>
        <rect id="Rectángulo_5471" data-name="Rectángulo 5471" width="10.001" height="0.288" transform="translate(250.864 398.226)" fill="#ebebeb"/>
        <rect id="Rectángulo_5472" data-name="Rectángulo 5472" width="22.086" height="0.288" transform="translate(336.1 384.415)" fill="#ebebeb"/>
        <rect id="Rectángulo_5473" data-name="Rectángulo 5473" width="7.285" height="0.288" transform="translate(0 386.349)" fill="#ebebeb"/>
        <rect id="Rectángulo_5474" data-name="Rectángulo 5474" width="107.817" height="0.288" transform="translate(30.971 391.205)" fill="#ebebeb"/>
        <rect id="Rectángulo_5475" data-name="Rectángulo 5475" width="16.642" height="23.202" transform="translate(103.708 135.876)" fill="#ebebeb"/>
        <rect id="Rectángulo_5476" data-name="Rectángulo 5476" width="16.642" height="23.202" transform="translate(125.852 135.876)" fill="#ebebeb"/>
        <rect id="Rectángulo_5477" data-name="Rectángulo 5477" width="16.642" height="23.202" transform="translate(147.995 135.876)" fill="#ebebeb"/>
        <rect id="Rectángulo_5478" data-name="Rectángulo 5478" width="16.642" height="23.202" transform="translate(80.897 177.539)" fill="#ebebeb"/>
        <rect id="Rectángulo_5479" data-name="Rectángulo 5479" width="16.642" height="23.202" transform="translate(103.041 177.539)" fill="#ebebeb"/>
        <rect id="Rectángulo_5480" data-name="Rectángulo 5480" width="16.642" height="23.202" transform="translate(125.173 177.539)" fill="#ebebeb"/>
        <rect id="Rectángulo_5481" data-name="Rectángulo 5481" width="16.642" height="23.202" transform="translate(147.316 177.539)" fill="#ebebeb"/>
        <rect id="Rectángulo_5482" data-name="Rectángulo 5482" width="16.642" height="23.202" transform="translate(80.218 219.202)" fill="#ebebeb"/>
        <rect id="Rectángulo_5483" data-name="Rectángulo 5483" width="16.642" height="23.202" transform="translate(102.362 219.202)" fill="#ebebeb"/>
        <rect id="Rectángulo_5484" data-name="Rectángulo 5484" width="16.642" height="23.202" transform="translate(79.551 260.865)" fill="#ebebeb"/>
        <rect id="Rectángulo_5485" data-name="Rectángulo 5485" width="16.642" height="23.202" transform="translate(101.683 260.865)" fill="#ebebeb"/>
        <rect id="Rectángulo_5486" data-name="Rectángulo 5486" width="16.642" height="23.202" transform="translate(56.728 302.528)" fill="#ebebeb"/>
        <rect id="Rectángulo_5487" data-name="Rectángulo 5487" width="16.642" height="23.202" transform="translate(101.015 302.528)" fill="#ebebeb"/>
        <rect id="Rectángulo_5488" data-name="Rectángulo 5488" width="16.642" height="23.202" transform="translate(100.336 344.191)" fill="#ebebeb"/>
        <rect id="Rectángulo_5489" data-name="Rectángulo 5489" width="4.35" height="32.099" transform="translate(101.015)" fill="#aed3f2"/>
        <rect id="Rectángulo_5490" data-name="Rectángulo 5490" width="4.35" height="32.099" transform="translate(210.352)" fill="#aed3f2"/>
        <rect id="Rectángulo_5491" data-name="Rectángulo 5491" width="146.488" height="46.646" transform="translate(83.073 25.918)" fill="#f2e9e4"/>
        <rect id="Rectángulo_5492" data-name="Rectángulo 5492" width="6.1" height="46.646" transform="translate(223.449 25.918)" fill="#e6e6e6"/>
        <g id="freepik--Plant--inject-48" transform="translate(0 284.153)">
          <path id="Trazado_100032" data-name="Trazado 100032" d="M347.042,2570.323s-6.5-14.19.932-28.174,9.576-17.264,4.845-20.141-6.905,11.187-6.905,11.187-3.982-9.668-.691-19.784,5.363-26.6.863-28.37-.863,20.555-4.765,28.176a65.569,65.569,0,0,1-3.821-16.608c-.541-8.125.3-21.1-3.257-24.422s-5.824-1.026-2.3,16.907a187.619,187.619,0,0,1,3.453,32.513s-7.723-23.524-12.9-24.169-5.168,6.906-.737,13.535,12.982,18.415,14.386,24.537c0,0-8.471-17.7-16.113-12.269s6.629,16.113,12.982,19.98,10.761,28.082,10.761,28.082Z" transform="translate(-317.835 -2470.902)" fill="#d9a171"/>
          <path id="Trazado_100033" data-name="Trazado 100033" d="M347.042,2570.323s-6.5-14.19.932-28.174,9.576-17.264,4.845-20.141-6.905,11.187-6.905,11.187-3.982-9.668-.691-19.784,5.363-26.6.863-28.37-.863,20.555-4.765,28.176a65.569,65.569,0,0,1-3.821-16.608c-.541-8.125.3-21.1-3.257-24.422s-5.824-1.026-2.3,16.907a187.619,187.619,0,0,1,3.453,32.513s-7.723-23.524-12.9-24.169-5.168,6.906-.737,13.535,12.982,18.415,14.386,24.537c0,0-8.471-17.7-16.113-12.269s6.629,16.113,12.982,19.98,10.761,28.082,10.761,28.082Z" transform="translate(-317.835 -2470.902)" fill="#47495a" opacity="0.6" style="isolation: isolate"/>
          <path id="Trazado_100034" data-name="Trazado 100034" d="M339.888,2575.4s6.33-14.283-1.266-28.151-9.783-17.137-5.087-20.072,7.044,11.083,7.044,11.083,3.879-9.725.46-19.8-5.685-26.471-1.151-28.347,1.151,20.544,5.11,28.094a65.558,65.558,0,0,0,3.614-16.653c.449-8.137-.552-21.1,2.958-24.48s5.824-1.151,2.544,16.872a187.166,187.166,0,0,0-3.073,32.561s7.435-23.628,12.66-24.4,5.248,6.906.9,13.536-12.752,18.633-14.087,24.745c0,0,8.252-17.828,15.94-12.523s-6.434,16.216-12.741,20.175-10.427,28.245-10.427,28.245Z" transform="translate(-315.838 -2470.169)" fill="#d9a171"/>
          <path id="Trazado_100035" data-name="Trazado 100035" d="M339.888,2575.4s6.33-14.283-1.266-28.151-9.783-17.137-5.087-20.072,7.044,11.083,7.044,11.083,3.879-9.725.46-19.8-5.685-26.471-1.151-28.347,1.151,20.544,5.11,28.094a65.558,65.558,0,0,0,3.614-16.653c.449-8.137-.552-21.1,2.958-24.48s5.824-1.151,2.544,16.872a187.166,187.166,0,0,0-3.073,32.561s7.435-23.628,12.66-24.4,5.248,6.906.9,13.536-12.752,18.633-14.087,24.745c0,0,8.252-17.828,15.94-12.523s-6.434,16.216-12.741,20.175-10.427,28.245-10.427,28.245Z" transform="translate(-315.838 -2470.169)" fill="#5e6178" opacity="0.7" style="isolation: isolate"/>
          <path id="Trazado_100036" data-name="Trazado 100036" d="M370.979,2553.488h-52.3l4.235,37.427h43.838Z" transform="translate(-317.707 -2458.439)" fill="#d9a171"/>
        </g>
        <g id="freepik--trash-bin--inject-48" transform="translate(339.046 352.673)">
          <path id="Trazado_100037" data-name="Trazado 100037" d="M661.712,2562.977a3.451,3.451,0,0,0-1.638-4.6,3.41,3.41,0,0,0-1.113-.314,7.319,7.319,0,0,0-2.3-8.056,1.692,1.692,0,0,0-1-.451,2.037,2.037,0,0,0-1.093.473l-6.411,4.6a3.817,3.817,0,0,0-1.278,1.254c-1.312,2.544,3.453,5.755,1.473,7.9-.552.6-1.45.725-2.152,1.151-1.531.956-1.715,3.05-2.417,4.708s-3.2,2.935-4.143,1.4c.7-1.588-1.427-2.947-3.142-3.154s-3.522-.3-4.477-1.911c-2.451,2.129-7.918-3.821-7.792-6.227-2.014.15-3.384,2.037-3.821,3.913a28.126,28.126,0,0,0-.207,5.985c-.057,3.9-1.312,7.711-1.243,11.6,0,3.027,1.22,6.388,3.994,7.608a10.325,10.325,0,0,0,4.293.575l31.569-.2a4.969,4.969,0,0,0,2.221-.368c1.427-.749,1.726-2.625,1.865-4.224l1.692-20.567Z" transform="translate(-611.44 -2527.552)" fill="#d9a171"/>
          <path id="Trazado_100038" data-name="Trazado 100038" d="M661.712,2562.977a3.451,3.451,0,0,0-1.638-4.6,3.41,3.41,0,0,0-1.113-.314,7.319,7.319,0,0,0-2.3-8.056,1.692,1.692,0,0,0-1-.451,2.037,2.037,0,0,0-1.093.473l-6.411,4.6a3.817,3.817,0,0,0-1.278,1.254c-1.312,2.544,3.453,5.755,1.473,7.9-.552.6-1.45.725-2.152,1.151-1.531.956-1.715,3.05-2.417,4.708s-3.2,2.935-4.143,1.4c.7-1.588-1.427-2.947-3.142-3.154s-3.522-.3-4.477-1.911c-2.451,2.129-7.918-3.821-7.792-6.227-2.014.15-3.384,2.037-3.821,3.913a28.126,28.126,0,0,0-.207,5.985c-.057,3.9-1.312,7.711-1.243,11.6,0,3.027,1.22,6.388,3.994,7.608a10.325,10.325,0,0,0,4.293.575l31.569-.2a4.969,4.969,0,0,0,2.221-.368c1.427-.749,1.726-2.625,1.865-4.224l1.692-20.567Z" transform="translate(-611.44 -2527.552)" fill="#ffbf9d" opacity="0.3" style="isolation: isolate"/>
          <path id="Trazado_100039" data-name="Trazado 100039" d="M664.128,2532.228H615.145l.4,4.948.288,3.532.748,9.208.426,5.283.564,7.032.242,3.015.081.9.288,3.545.391,4.856.242,3.015.253,3.062.288,3.545.219,2.682.242,3.015.1,1.312h44.955l.1-1.312.242-3,.219-2.7.288-3.544.253-3.05.242-3.015.391-4.868.288-3.533.069-.9.242-3.015.575-7.032.426-5.271.737-9.208.288-3.533.4-4.949Zm2.946,3.246h0l-.944-.944h1.024Zm-.242,3-.092,1.151-4.385,4.385-5.029-5.03,4.5-4.5h1.059Zm-1.266,15.676-3.211,3.211-5.029-5.028,5.029-5.019,3.453,3.453Zm-46.612-3.361h0l3.453-3.453,5.029,5.018-5.029,5.03-3.2-3.211Zm41.778-5.11-5.029,5.029-5.029-5.029,5.029-5.03Zm-7.907-11.152h5.755l-2.877,2.877Zm1.243,17.8-5.018,5.029-4.983-5.028,5.029-5.019Zm-16.7,6.652,5.029-5.018,5.018,5.018-5.018,4.983Zm3.4,6.653-5.029,5.029-5.018-5.018,5.029-5.03Zm8.287-5.019,5.018,5.03-5.018,5.018-4.983-5.029Zm-6.652-9.909-5.029-5.028,5.029-5.029,5.018,5.029Zm-1.634,1.624-5.018,5.028-5.029-5.028,5.029-5.019Zm-11.659-1.624-5.018-5.028,5.018-5.029,5.029,5.029Zm0,3.257,5.029,5.018-5.029,4.983-5.018-5.029Zm5.029,18.334-5.029,5.018-5.018-5.017,5.018-5.03Zm1.623,1.623,5.029,5.029-5.018,5.03-5.052-5.053Zm1.634-1.623,5.029-5.03,5.018,5.03-5.018,5.018Zm11.682,1.623,5.018,5.029-5.018,5.03-5.007-5.053Zm6.652,6.652,5.029,5.029-3.257,3.257h-3.545l-3.257-3.257ZM650.7,2572.3l5.029-5.03,5.029,5.03-5.029,5.018Zm0-13.316,5.029-5.018,5.029,5.018-5.053,4.983Zm3.4-19.957-5.018,5.03-5.007-5.03,4.5-4.5h1.059Zm-11.67-1.622-2.877-2.877H645.3Zm-1.634,1.622-5.018,5.03-5.029-5.03,4.5-4.5H636.3Zm-8.8-4.5-2.877,2.877-2.866-2.877Zm-9,0,4.5,4.5-5.029,5.03-4.373-4.385-.092-1.151,3.936-3.947Zm-4.3,0-.932.932h0l-.081-.932Zm-.311,8.689,2.463,2.463-2.083,2.095Zm1.37,16.86-.2-2.382h0l1.289,1.289-1.151,1.093Zm.242,3.027,2.474-2.486,5.029,5.03-5.029,5.018-2.026-2.025Zm.748,9.3v-.219l.115.115-.1.1Zm.875,10.715-.633-7.711,1.485-1.485,5.029,5.029-5.029,5.018-.852-.852Zm.46,5.755-.092-1.151.483-.483,1.634,1.635Zm2.026-3.257,5.018-5.03,5.029,5.03-3.257,3.257h-3.545Zm10.047,3.257,1.634-1.635,1.634,1.635Zm6.514,0-3.257-3.257,5.029-5.03,5.018,5.03-3.246,3.257Zm6.79,0,1.634-1.635,1.634,1.635Zm15.33,0h-2.026l1.634-1.635.483.483Zm.472-5.755-.863.852-5.052-5.041,5.029-5.03,1.485,1.486Zm.886-10.945v.23l-.1-.1.127-.127Zm.288-3.533-2.037,2.025-5.029-5.018,5.029-5.03,2.486,2.486Zm.69-8.551-1.151-1.151,1.3-1.289Zm1.346-16.838-.368,4.6-2.106-2.1,2.474-2.475Z" transform="translate(-612.015 -2530.167)" fill="#d9a171"/>
          <g id="Grupo_53658" data-name="Grupo 53658" transform="translate(3.13 2.061)" opacity="0.6">
            <path id="Trazado_100040" data-name="Trazado 100040" d="M664.128,2532.228H615.145l.4,4.948.288,3.532.748,9.208.426,5.283.564,7.032.242,3.015.081.9.288,3.545.391,4.856.242,3.015.253,3.062.288,3.545.219,2.682.242,3.015.1,1.312h44.955l.1-1.312.242-3,.219-2.7.288-3.544.253-3.05.242-3.015.391-4.868.288-3.533.069-.9.242-3.015.575-7.032.426-5.271.737-9.208.288-3.533.4-4.949Zm2.946,3.246h0l-.944-.944h1.024Zm-.242,3-.092,1.151-4.385,4.385-5.029-5.03,4.5-4.5h1.059Zm-1.266,15.676-3.211,3.211-5.029-5.028,5.029-5.019,3.453,3.453Zm-46.612-3.361h0l3.453-3.453,5.029,5.018-5.029,5.03-3.2-3.211Zm41.778-5.11-5.029,5.029-5.029-5.029,5.029-5.03Zm-7.907-11.152h5.755l-2.877,2.877Zm1.243,17.8-5.018,5.029-4.983-5.028,5.029-5.019Zm-16.7,6.652,5.029-5.018,5.018,5.018-5.018,4.983Zm3.4,6.653-5.029,5.029-5.018-5.018,5.029-5.03Zm8.287-5.019,5.018,5.03-5.018,5.018-4.983-5.029Zm-6.652-9.909-5.029-5.028,5.029-5.029,5.018,5.029Zm-1.634,1.624-5.018,5.028-5.029-5.028,5.029-5.019Zm-11.659-1.624-5.018-5.028,5.018-5.029,5.029,5.029Zm0,3.257,5.029,5.018-5.029,4.983-5.018-5.029Zm5.029,18.334-5.029,5.018-5.018-5.017,5.018-5.03Zm1.623,1.623,5.029,5.029-5.018,5.03-5.052-5.053Zm1.634-1.623,5.029-5.03,5.018,5.03-5.018,5.018Zm11.682,1.623,5.018,5.029-5.018,5.03-5.007-5.053Zm6.652,6.652,5.029,5.029-3.257,3.257h-3.545l-3.257-3.257ZM650.7,2572.3l5.029-5.03,5.029,5.03-5.029,5.018Zm0-13.316,5.029-5.018,5.029,5.018-5.053,4.983Zm3.4-19.957-5.018,5.03-5.007-5.03,4.5-4.5h1.059Zm-11.67-1.622-2.877-2.877H645.3Zm-1.634,1.622-5.018,5.03-5.029-5.03,4.5-4.5H636.3Zm-8.8-4.5-2.877,2.877-2.866-2.877Zm-9,0,4.5,4.5-5.029,5.03-4.373-4.385-.092-1.151,3.936-3.947Zm-4.3,0-.932.932h0l-.081-.932Zm-.311,8.689,2.463,2.463-2.083,2.095Zm1.37,16.86-.2-2.382h0l1.289,1.289-1.151,1.093Zm.242,3.027,2.474-2.486,5.029,5.03-5.029,5.018-2.026-2.025Zm.748,9.3v-.219l.115.115-.1.1Zm.875,10.715-.633-7.711,1.485-1.485,5.029,5.029-5.029,5.018-.852-.852Zm.46,5.755-.092-1.151.483-.483,1.634,1.635Zm2.026-3.257,5.018-5.03,5.029,5.03-3.257,3.257h-3.545Zm10.047,3.257,1.634-1.635,1.634,1.635Zm6.514,0-3.257-3.257,5.029-5.03,5.018,5.03-3.246,3.257Zm6.79,0,1.634-1.635,1.634,1.635Zm15.33,0h-2.026l1.634-1.635.483.483Zm.472-5.755-.863.852-5.052-5.041,5.029-5.03,1.485,1.486Zm.886-10.945v.23l-.1-.1.127-.127Zm.288-3.533-2.037,2.025-5.029-5.018,5.029-5.03,2.486,2.486Zm.69-8.551-1.151-1.151,1.3-1.289Zm1.346-16.838-.368,4.6-2.106-2.1,2.474-2.475Z" transform="translate(-615.145 -2532.228)" fill="#ffbf9d"/>
          </g>
          <rect id="Rectángulo_5493" data-name="Rectángulo 5493" width="60.768" height="6.411" rx="1.64" fill="#d9a171"/>
          <rect id="Rectángulo_5494" data-name="Rectángulo 5494" width="52.01" height="6.411" rx="1.64" transform="translate(4.373 57.557)" fill="#d9a171"/>
        </g>
        <g id="freepik--character-2--inject-48" transform="translate(85.616 62.378)">
          <g id="freepik--group--inject-321" transform="translate(77.491)">
            <path id="Trazado_100041" data-name="Trazado 100041" d="M496.741,2400.578l54.188-9.655c-7.89-39.088-24.162-78.5-24.162-78.5-27.348,1.395-50.1,23.9-50.1,23.9C489.247,2360.02,496.741,2400.578,496.741,2400.578Z" transform="translate(-456.973 -2273.043)" fill="#407bff"/>
            <path id="Trazado_100042" data-name="Trazado 100042" d="M526.718,2312.382s2.05,4.963,5.049,13.111c2.334,6.359,5.248,14.643,8.211,24.039a405.623,405.623,0,0,1,10.9,41.348l-54.188,9.656s-7.445-40.509-20.026-64.2C476.666,2336.334,499.42,2313.826,526.718,2312.382Z" transform="translate(-456.973 -2273.05)" fill="#ffbf9d" opacity="0.6" style="isolation: isolate"/>
            <path id="Trazado_100043" data-name="Trazado 100043" d="M492.2,2298.887c.679,1.765,1.568,3.889,2.63,6.062.617,1.3,1.283,2.531,2,3.766,2.827,4.876,6.42,9.284,10.382,10.1-1.309,6.26-11.617,11.766-11.617,11.766s-7.013,2.643-7.112-.073a8.927,8.927,0,0,0,3.074-6.4,7.3,7.3,0,0,0-.345-2.062,12.478,12.478,0,0,0-2.47-4.185l-.272-.321c-.506-.58-1.061-1.136-1.617-1.667Z" transform="translate(-455.435 -2275.086)" fill="#e4897b"/>
            <path id="Trazado_100044" data-name="Trazado 100044" d="M494.621,2304.243l.345-.679a17.925,17.925,0,0,1,1.655,4.445c1.6,7.086-2.248,12.519-5.272,15.4a7.306,7.306,0,0,0-.345-2.062,12.477,12.477,0,0,0-2.47-4.185l-.272-.321Z" transform="translate(-455.223 -2274.38)" opacity="0.2" style="isolation: isolate"/>
            <path id="Trazado_100045" data-name="Trazado 100045" d="M475.58,2288.588s9.136,24.051.407,21.643-11.679-15.988-11.679-15.988Z" transform="translate(-458.838 -2276.64)" fill="#344154"/>
            <path id="Trazado_100046" data-name="Trazado 100046" d="M493.385,2292.735a13.581,13.581,0,0,0-23.014-2.186c-6.358,8.347-.037,21.718,6.322,28.31a14.294,14.294,0,0,0,10.84,4.223,12.494,12.494,0,0,0,11.7-9.655C500.953,2306.527,497.916,2301.552,493.385,2292.735Z" transform="translate(-458.321 -2277.157)" fill="#e4897b"/>
            <path id="Trazado_100047" data-name="Trazado 100047" d="M478.665,2299.8c-.444.259-.481,1.049-.074,1.74s1.1,1.049,1.568.778l.009-.009a1.234,1.234,0,0,0,.064-1.745C479.813,2299.837,479.109,2299.54,478.665,2299.8Z" transform="translate(-456.725 -2274.962)" fill="#344154"/>
            <path id="Trazado_100048" data-name="Trazado 100048" d="M471.843,2303.823c-.457.271-.494,1.048-.086,1.74s1.112,1.05,1.569.778a1.235,1.235,0,0,0,.086-1.741C473.017,2303.946,472.3,2303.551,471.843,2303.823Z" transform="translate(-457.756 -2274.354)" fill="#344154"/>
            <path id="Trazado_100049" data-name="Trazado 100049" d="M479.4,2310.067a4.651,4.651,0,0,1-3.7,1.346,28.812,28.812,0,0,0-.2-7.915Z" transform="translate(-457.15 -2274.39)" fill="#de5753"/>
            <path id="Trazado_100050" data-name="Trazado 100050" d="M468.726,2303.416h0a.468.468,0,0,1-.171-.641,4.669,4.669,0,0,1,3.469-2.568h.006a.468.468,0,0,1,.513.42.48.48,0,0,1-.433.518,3.827,3.827,0,0,0-2.728,2.062.482.482,0,0,1-.42.259A.716.716,0,0,1,468.726,2303.416Z" transform="translate(-458.207 -2274.887)" fill="#344154"/>
            <path id="Trazado_100051" data-name="Trazado 100051" d="M479.941,2297.269a3.841,3.841,0,0,0-3.309.9h0a.48.48,0,0,1-.666,0h0l-.021-.021a.456.456,0,0,1,.021-.646,4.7,4.7,0,0,1,4.148-1.235h0a.483.483,0,0,1,.383.556.432.432,0,0,1-.185.209A.467.467,0,0,1,479.941,2297.269Z" transform="translate(-457.1 -2275.494)" fill="#344154"/>
            <path id="Trazado_100052" data-name="Trazado 100052" d="M489.754,2282.152c2.913,1.987,5.814,8.037,7.741,16.124,2.087,8.754.246,13.766.246,13.766.506-4.729-3.074-12.235-4.432-11.939s-.7,1.741-.7,1.741c-3.581-.654-8.051-4.729-8.519-8.642a3.272,3.272,0,0,0-3.371-2.865l-1.6-4.111Z" transform="translate(-456.604 -2277.612)" fill="#344154"/>
            <path id="Trazado_100053" data-name="Trazado 100053" d="M491.99,2292.679c-2.926,1.382-3.037,5.975-2.234,8.642.925,3,3.839,4.469,6,2a9.455,9.455,0,0,0,2.235-6.865C497.694,2293.407,494.917,2291.3,491.99,2292.679Z" transform="translate(-455.062 -2276.088)" fill="#e4897b"/>
            <path id="Trazado_100054" data-name="Trazado 100054" d="M481.308,2310.886a14.251,14.251,0,0,0,3.951-4.544,3.589,3.589,0,0,1,.7.778,3.785,3.785,0,0,1,.691,1.692c.161,1.259-.345,2.9-2.728,4.728l-.532.4a26.121,26.121,0,0,0-2.889-2.407S480.8,2311.293,481.308,2310.886Z" transform="translate(-456.393 -2273.961)" fill="#344154"/>
            <path id="Trazado_100055" data-name="Trazado 100055" d="M485.133,2306.342a3.555,3.555,0,0,1,.7.778c-.185,1.222-1.543,2.729-3.79,4.458l-.864-.692A14.265,14.265,0,0,0,485.133,2306.342Z" transform="translate(-456.291 -2273.961)" fill="#ffbf9d"/>
            <path id="Trazado_100056" data-name="Trazado 100056" d="M483.941,2311.043a9.639,9.639,0,0,1,2.247-2.555c.16,1.259-.345,2.9-2.729,4.728A3.524,3.524,0,0,1,483.941,2311.043Z" transform="translate(-455.951 -2273.637)" fill="#de5753"/>
            <path id="Trazado_100057" data-name="Trazado 100057" d="M494.793,2286.834s-3.087-10.284-13.421-8.4-18.877,12.643-18.877,12.643c2.938,14.667,20.729-.149,20.729-.149Z" transform="translate(-459.111 -2278.207)" fill="#344154"/>
            <path id="Trazado_100058" data-name="Trazado 100058" d="M536.939,2583.861c-2.542,2.283-8.518,4.678-16.457,6.407-1.766.395-1.222,4.667,3.111,4.667s13.779-.321,16.915-.321c5.074,0,8.025.247,12.074.308h.334l.028,0a1.532,1.532,0,0,0,1.207-1.8l-2.026-9.173a.926.926,0,0,0-.888-.717H538.73A2.467,2.467,0,0,0,536.939,2583.861Z" transform="translate(-450.503 -2232.177)"/>
            <path id="Trazado_100059" data-name="Trazado 100059" d="M490.89,2583.6c-2.542,2.285-8.519,4.68-16.457,6.408-1.828.395-1.211,4.667,3.111,4.667s13.779-.334,16.9-.334c5.087,0,8.037.247,12.087.321a1.643,1.643,0,0,0,.288-.029,1.544,1.544,0,0,0,1.219-1.812L506,2583.655a.9.9,0,0,0-.877-.7H492.618A2.466,2.466,0,0,0,490.89,2583.6Z" transform="translate(-457.456 -2232.218)"/>
            <path id="Trazado_100060" data-name="Trazado 100060" d="M552.562,2390.077c2.79,21.483-.247,81.795,1.234,111.118,2.828,55.521,5.643,114.291,5.643,114.291H540.609s-19.112-156.292-20.988-179.751c-16.346,43.916-14.63,179.85-14.63,179.85h-18.52c-10.247-78.56,2.494-177.812,8.926-219.9,0,0-1.531-7.149-.888-10.618l55.473-8.3Z" transform="translate(-456.074 -2263.333)" fill="#344154"/>
            <path id="Trazado_100061" data-name="Trazado 100061" d="M514.083,2411.1s-6.111,22.186-4.581,43.114a146.872,146.872,0,0,1,6.075-23.655Z" transform="translate(-452.055 -2258.153)" opacity="0.2" style="isolation: isolate"/>
            <path id="Trazado_100062" data-name="Trazado 100062" d="M531.265,2380.4l-31.224,4.655.79,6.223,31.347-4.716Z" transform="translate(-453.445 -2262.784)"/>
            <path id="Trazado_100063" data-name="Trazado 100063" d="M530.317,2386.5l14.593-2.186-1.173-6.111-14.26,2.124Z" transform="translate(-449.003 -2263.116)"/>
            <path id="Trazado_100064" data-name="Trazado 100064" d="M492.95,2385.623l.766,6.223,6.087-.914-1.148-6.161Z" transform="translate(-454.515 -2262.125)"/>
            <path id="Trazado_100065" data-name="Trazado 100065" d="M507.519,2385.549l.358,3.2a2.086,2.086,0,0,0,2.47,1.9l4.938-.852h.209a3.037,3.037,0,0,0,2.173-3.149l-.358-3.209a2.087,2.087,0,0,0-2.47-1.9l-4.939.864a3.021,3.021,0,0,0-2.382,3.149Zm2.634,3.868a1.023,1.023,0,0,1-1.078-.966l-.124-1.05h.075l1.382-.26a1.036,1.036,0,0,0,.815-1.024.65.65,0,0,0-.013-.124.74.74,0,0,0-.863-.592l-1.383.259a.9.9,0,0,0-.185.074l-.061-.481a1.417,1.417,0,0,1,.283-1,1.5,1.5,0,0,1,.765-.531h.148l4.939-.864a1.188,1.188,0,0,1,.152-.023,1.013,1.013,0,0,1,1.083.937l.358,3.21a1.436,1.436,0,0,1-.3,1,1.235,1.235,0,0,1-.863.543l-4.938.865A.99.99,0,0,1,510.154,2389.417Z" transform="translate(-452.318 -2262.619)" fill="#ffbf9d"/>
            <path id="Trazado_100066" data-name="Trazado 100066" d="M493.125,2327.929l4.939,6.741c1.939,20.766-6.358,41.645-6.358,41.645l2.926,4.247,5.359-3.136c5.555-21.347,1.309-44.447,1.309-44.447l1.889-9.161Z" transform="translate(-454.703 -2271.324)" fill="#344154"/>
            <path id="Trazado_100067" data-name="Trazado 100067" d="M510.807,2317.156c.753,2.753-2.47,13.445-2.47,13.445l-10.345-1.234-6.79,6.828a13,13,0,0,1-4.581-9.261l4.6-7.222,6.556,6.926,5.26-12.347S510.055,2314.4,510.807,2317.156Z" transform="translate(-455.471 -2272.761)" fill="#407bff"/>
            <path id="Trazado_100068" data-name="Trazado 100068" d="M521.625,2322.487l3.432,1.531c2.334,6.359,5.248,14.643,8.211,24.039C517.452,2335.822,521.625,2322.487,521.625,2322.487Z" transform="translate(-450.263 -2271.525)" opacity="0.2" style="isolation: isolate"/>
            <path id="Trazado_100069" data-name="Trazado 100069" d="M510.807,2317.156c.753,2.753-2.47,13.445-2.47,13.445l-10.345-1.234-6.79,6.828a13,13,0,0,1-4.581-9.261l4.6-7.222,6.556,6.926,5.26-12.347S510.055,2314.4,510.807,2317.156Z" transform="translate(-455.471 -2272.761)" fill="#ffbf9d" opacity="0.4" style="isolation: isolate"/>
            <path id="Trazado_100070" data-name="Trazado 100070" d="M520.316,2320.673a30.418,30.418,0,0,0,5.84,8.987s9.062,13.285,22.94,14.815,23.754-12.543,23.754-12.543c-2-3.173-6.642-2.247-6.642-2.247-6.05,5.531-16.322,6-20.063,2.9s-18.519-20.52-25.829-20.162C520.316,2312.426,518.292,2315.648,520.316,2320.673Z" transform="translate(-450.522 -2273.044)" fill="#407bff"/>
            <path id="Trazado_100071" data-name="Trazado 100071" d="M520.316,2320.673a30.418,30.418,0,0,0,5.84,8.987s9.062,13.285,22.94,14.815,23.754-12.543,23.754-12.543c-2-3.173-6.642-2.247-6.642-2.247-6.05,5.531-16.322,6-20.063,2.9s-18.519-20.52-25.829-20.162C520.316,2312.426,518.292,2315.648,520.316,2320.673Z" transform="translate(-450.522 -2273.044)" fill="#ffbf9d" opacity="0.6" style="isolation: isolate"/>
            <rect id="Rectángulo_5495" data-name="Rectángulo 5495" width="5.025" height="26.174" transform="matrix(0.695, -0.719, 0.719, 0.695, 41.841, 93.3)" fill="#407bff"/>
            <rect id="Rectángulo_5496" data-name="Rectángulo 5496" width="5.025" height="26.174" transform="matrix(0.695, -0.719, 0.719, 0.695, 41.841, 93.3)" opacity="0.2" style="isolation: isolate"/>
            <path id="Trazado_100072" data-name="Trazado 100072" d="M462.237,2385.466l1.235,1.728a20.5,20.5,0,0,0-2.2,4.457c-.161,1.172.826,4.605,1.345,4.531,1.667-.222,8.1-4.493,8.543-5.926.211-.617.334-5.555.334-5.555a5.611,5.611,0,0,0-4.457-.791l-1.444-1.938Z" transform="translate(-459.298 -2262.548)" fill="#e4897b"/>
            <path id="Trazado_100073" data-name="Trazado 100073" d="M565.123,2331.3l-.1-2.925s2.419-6.753,1.938-8.495-2.617-5.493-3.531-4.7a55.92,55.92,0,0,0-5.531,6.173c-.63,1.086.272,5.531.716,7.333s1.494,1.543,1.494,1.543l.2,1.556A5.493,5.493,0,0,0,565.123,2331.3Z" transform="translate(-444.746 -2272.645)" fill="#e4897b"/>
            <path id="Trazado_100074" data-name="Trazado 100074" d="M484.155,2341.7a29.633,29.633,0,0,1,2.2,7.988s-15.014,11.47-16.928,17.582-.518,23.309-.518,23.309l-7.408,4.938s-4.271-22.593,0-33.829c3.063-8.013,14.2-24.446,17.742-28.5A33.874,33.874,0,0,1,484.155,2341.7Z" transform="translate(-459.548 -2269.909)" fill="#407bff"/>
            <path id="Trazado_100075" data-name="Trazado 100075" d="M461.383,2361.764c3.061-8.013,14.2-24.446,17.741-28.5a33.858,33.858,0,0,1,4.939,8.445l.235.556a29.112,29.112,0,0,1,2.013,7.407s-2.828,2.161-6.174,5.1c-4.383,3.841-9.679,9.026-10.766,12.483-1.914,6.112-.519,23.31-.519,23.31l-7.407,4.938S457.235,2372.912,461.383,2361.764Z" transform="translate(-459.555 -2269.898)" fill="#ffbf9d" opacity="0.6" style="isolation: isolate"/>
            <path id="Trazado_100076" data-name="Trazado 100076" d="M481.7,2341.046a29.127,29.127,0,0,1,2.012,7.407s-2.827,2.16-6.172,5.1A24.351,24.351,0,0,1,481.7,2341.046Z" transform="translate(-456.842 -2268.724)" opacity="0.2" style="isolation: isolate"/>
          </g>
          <path id="Trazado_100077" data-name="Trazado 100077" d="M422.475,2380.3H457l23.375,9.484H445.85Z" transform="translate(-387.66 -2262.8)" fill="#ffbf9d" opacity="0.3" style="isolation: isolate"/>
          <rect id="Rectángulo_5497" data-name="Rectángulo 5497" width="263.466" height="197.945" transform="translate(2.774 156.306)" fill="#f5ede9"/>
          <rect id="Rectángulo_5498" data-name="Rectángulo 5498" width="195.102" height="197.945" transform="translate(2.774 156.306)" fill="#344154" opacity="0.4" style="isolation: isolate"/>
          <rect id="Rectángulo_5499" data-name="Rectángulo 5499" width="270.049" height="11.452" rx="1.56" transform="translate(0 149.021)" fill="#d9a171"/>
          <rect id="Rectángulo_5500" data-name="Rectángulo 5500" width="200.995" height="11.452" rx="1.56" transform="translate(0 149.021)" fill="#344154" opacity="0.2" style="isolation: isolate"/>
          <rect id="Rectángulo_5501" data-name="Rectángulo 5501" width="56.878" height="95.33" transform="translate(0 55.486)" fill="#ffbf9d" opacity="0.56"/>
          <rect id="Rectángulo_5502" data-name="Rectángulo 5502" width="126.568" height="95.33" transform="translate(143.85 55.486)" fill="#ffbf9d" opacity="0.56"/>
          <rect id="Rectángulo_5503" data-name="Rectángulo 5503" width="86.972" height="62.099" transform="translate(56.878 55.486)" fill="#ffbf9d" opacity="0.56"/>
        </g>
        <g id="Grupo_53659" data-name="Grupo 53659" transform="translate(116.9 36.104)">
          <path id="Trazado_100078" data-name="Trazado 100078" d="M435.416,2269.155a6.949,6.949,0,0,1-2.341,4.99,8.222,8.222,0,0,1-5.564,1.821,7.39,7.39,0,0,1-5.941-2.542,10.426,10.426,0,0,1-2.164-6.981v-1.2a11.761,11.761,0,0,1,1-4.99,7.475,7.475,0,0,1,2.852-3.31,8.914,8.914,0,0,1,9.785.667,7.464,7.464,0,0,1,2.4,5.111H431.4a4.1,4.1,0,0,0-1.058-2.758,3.919,3.919,0,0,0-2.773-.858,3.439,3.439,0,0,0-3.028,1.45,8.133,8.133,0,0,0-1.031,4.5v1.483a8.689,8.689,0,0,0,.964,4.653,3.372,3.372,0,0,0,3.041,1.471,4,4,0,0,0,2.8-.856,3.87,3.87,0,0,0,1.059-2.651Z" transform="translate(-419.407 -2255.316)" fill="#6595bf"/>
          <path id="Trazado_100079" data-name="Trazado 100079" d="M443.935,2275.034a4.348,4.348,0,0,1-.391-1.308,4.714,4.714,0,0,1-3.682,1.578,5.186,5.186,0,0,1-3.554-1.241,3.991,3.991,0,0,1-1.409-3.129,4.125,4.125,0,0,1,1.719-3.561,8.479,8.479,0,0,1,4.97-1.254h1.794v-.836a2.409,2.409,0,0,0-.519-1.618,2.044,2.044,0,0,0-1.639-.607,2.323,2.323,0,0,0-1.545.472,1.605,1.605,0,0,0-.559,1.294h-3.9a3.918,3.918,0,0,1,.783-2.347,5.161,5.161,0,0,1,2.212-1.692,8.056,8.056,0,0,1,3.21-.615,6.367,6.367,0,0,1,4.281,1.356,4.741,4.741,0,0,1,1.585,3.81v6.325a6.978,6.978,0,0,0,.58,3.142v.229Zm-3.224-2.71a3.352,3.352,0,0,0,1.592-.385,2.525,2.525,0,0,0,1.08-1.031V2268.4h-1.457q-2.926,0-3.116,2.023l-.014.229a1.561,1.561,0,0,0,.513,1.2A1.991,1.991,0,0,0,440.711,2272.324Z" transform="translate(-417.069 -2254.655)" fill="#6595bf"/>
          <path id="Trazado_100080" data-name="Trazado 100080" d="M452.761,2261.165v15.389a5.219,5.219,0,0,1-1.282,3.756,4.868,4.868,0,0,1-3.694,1.342,7.926,7.926,0,0,1-1.929-.23v-3.088a7.34,7.34,0,0,0,1.227.121q1.768,0,1.767-1.875v-15.415Zm-4.221-3.776a1.917,1.917,0,0,1,.587-1.443,2.532,2.532,0,0,1,3.2,0,2.066,2.066,0,0,1-.014,2.9,2.5,2.5,0,0,1-3.17,0A1.916,1.916,0,0,1,448.54,2257.389Z" transform="translate(-415.416 -2255.378)" fill="#6595bf"/>
          <path id="Trazado_100081" data-name="Trazado 100081" d="M463.037,2275.034a4.286,4.286,0,0,1-.391-1.308,4.715,4.715,0,0,1-3.682,1.578,5.184,5.184,0,0,1-3.554-1.241,3.988,3.988,0,0,1-1.41-3.129,4.125,4.125,0,0,1,1.719-3.561,8.483,8.483,0,0,1,4.971-1.254h1.793v-.836a2.4,2.4,0,0,0-.519-1.618,2.042,2.042,0,0,0-1.639-.607,2.321,2.321,0,0,0-1.543.472,1.6,1.6,0,0,0-.56,1.294h-3.9a3.916,3.916,0,0,1,.781-2.347,5.167,5.167,0,0,1,2.212-1.692,8.06,8.06,0,0,1,3.21-.615,6.368,6.368,0,0,1,4.283,1.356,4.741,4.741,0,0,1,1.585,3.81v6.325a6.963,6.963,0,0,0,.58,3.142v.229Zm-3.224-2.71a3.352,3.352,0,0,0,1.592-.385,2.523,2.523,0,0,0,1.078-1.031V2268.4h-1.456q-2.928,0-3.116,2.023l-.014.229a1.56,1.56,0,0,0,.512,1.2A1.992,1.992,0,0,0,459.813,2272.324Z" transform="translate(-414.187 -2254.655)" fill="#6595bf"/>
          <path id="Trazado_100082" data-name="Trazado 100082" d="M482.555,2275.664h-3.9v-15.024L474,2262.083v-3.169l8.133-2.913h.418Z" transform="translate(-411.168 -2255.284)" fill="#6595bf"/>
        </g>
      </g>
    </g>
    <g id="freepik--character-2--inject-358" transform="translate(350.068 2321.145)">
      <ellipse id="Elipse_3998" data-name="Elipse 3998" cx="48.672" cy="10.991" rx="48.672" ry="10.991" transform="translate(0 308.44)" fill="#6595bf"/>
      <ellipse id="Elipse_3999" data-name="Elipse 3999" cx="48.672" cy="10.991" rx="48.672" ry="10.991" transform="translate(0 308.44)" fill="#ffbf9d" opacity="0.5" style="isolation: isolate"/>
      <path id="Trazado_100083" data-name="Trazado 100083" d="M423.229,2416.713a7.089,7.089,0,0,0-.676.65,6.768,6.768,0,0,0,.48,9.559c3,2.6,9.6,2.8,27.012,1s19.612-.149,25.216-2,10.266-5.651,10.013-8.057-5.6-4.811-10.611-4a47.206,47.206,0,0,0-9,2.405,58.91,58.91,0,0,1-16.619-.207,59.707,59.707,0,0,1-14.962-3.993S426.486,2414.055,423.229,2416.713Z" transform="translate(-334.529 -2292.765)" fill="#ffbf9d"/>
      <path id="Trazado_100084" data-name="Trazado 100084" d="M397.064,2361.6l10.6,18.415s1.6,3.257,4.2,8.056,5.006,22.005,8.206,38.417,5.2,39.028,5.2,39.028l7.8-4.408-4.8-32.617a20.046,20.046,0,0,0,5.006-3c2.394-1.991,6.411-5.594,7.608-6.595s-1.611-4.811-2.808-7.412-2.405-.6-2.405-.6-3.994-16.608-4.4-18.208-.99-15.412-3.2-20.613-3.614-4.592-14.617-7.4-15.2-4.408-15.2-4.408C396.454,2359.85,397.064,2361.6,397.064,2361.6Z" transform="translate(-338.126 -2300.593)" fill="#6595bf"/>
      <path id="Trazado_100085" data-name="Trazado 100085" d="M419.3,2381.1a76.907,76.907,0,0,1,3.81,23.019,170.253,170.253,0,0,0,1.8,21.211" transform="translate(-334.756 -2297.437)" fill="none"/>
      <path id="Trazado_100086" data-name="Trazado 100086" d="M391.887,2328.292c-.806,5.8-2.2,16.62-1,27.219s3.361,18.242-2.8,31.811-12.418,17.356-23.421,14.962-14.007-13.6-14.007-24.813,9.461-13.408,11.613-18.61-3.856-7.55-3.453-19.208,10.209-30.834,18.61-31.224,11.21,5.214,11.21,5.214C391.841,2317.6,392.692,2322.492,391.887,2328.292Z" transform="translate(-345.114 -2308.408)" fill="#344154"/>
      <path id="Trazado_100087" data-name="Trazado 100087" d="M405.781,2372.567s3.453,4.81,5.006,5.408,1.749,1.6,1.151-1.6a50.71,50.71,0,0,1-.6-7.607C408.313,2368.343,405.781,2372.567,405.781,2372.567Z" transform="translate(-336.796 -2299.304)" fill="#4c708f"/>
      <path id="Trazado_100088" data-name="Trazado 100088" d="M401.707,2368.677c1.393,3.407,6,12,6,12l5.007-10a52.592,52.592,0,0,1-6.606-5.6c-3.407-3.4-9.4-9-9.4-9S400.315,2365.271,401.707,2368.677Z" transform="translate(-338.166 -2301.215)" fill="#aed3f2"/>
      <path id="Trazado_100089" data-name="Trazado 100089" d="M396.46,2576a19.776,19.776,0,0,0-.76,5.456c-.242,4.247-.092,5.973,3.533,7.182s9-.518,12.108-.518,10.2,1.542,14.7,1.208,7.619-1.554,8.31-3.453-.84-2.774-6.744-4.328-12.66-6.054-12.66-6.054Z" transform="translate(-338.328 -2268.102)" fill="#ffbf9d"/>
      <path id="Trazado_100090" data-name="Trazado 100090" d="M390.775,2427.184c-2.877,1.151-4.6,2.59-4.6,10.358s7.193,20.141,7.481,31.075-.288,50.64,0,58.408.288,15.825.288,27.909,2.59,25.32,2.014,33.664a54.523,54.523,0,0,0,1.151,15.249s8.344-1.151,12.372-2.014a87.3,87.3,0,0,0,8.919-2.59s-.288-3.74-.288-4.891-2.014-.863-2.014-.863a13.68,13.68,0,0,1-.863-4.316,156.972,156.972,0,0,1-.288-25.608c.863-13.523,6.042-34.239,6.618-42.3s3.165-13.523,5.467-22.73,3.74-30.211,2.014-44.022-3.453-25.9-3.453-25.9S393.652,2426.033,390.775,2427.184Z" transform="translate(-339.755 -2290.528)" fill="#344154"/>
      <path id="Trazado_100091" data-name="Trazado 100091" d="M391.938,2578.023c-4.005,1.554-17.287,3.981-17.816,6.57s-.219,4.006,1.554,4.329,9.852,3.269,14.87,4.649,17.989,1.024,21.971-1.911,0-4.314-5.363-7.607-9.852-6.227-9.852-6.227S395.943,2576.468,391.938,2578.023Z" transform="translate(-341.609 -2267.833)" fill="#ffbf9d"/>
      <path id="Trazado_100092" data-name="Trazado 100092" d="M418,2429.437s-1.726-.287-14.386,2.014-26.183-.863-26.183-.863-3.74,7.193-4.028,23.306,6.618,48.051,6.618,50.64a36.812,36.812,0,0,1-1.439,11.221c-1.439,4.891-6.905,21.579-6.905,33.952s1.726,36.829,1.726,38.268-.576,7.481-.863,10.934.288,8.919,1.151,9.495,11.221-1.727,14.674-3.453a107.218,107.218,0,0,1,10.358-4.029,17.491,17.491,0,0,1-.863-4.316c-.288-2.877-2.877-2.877-2.877-4.6s1.151-12.947,1.151-20.428,6.33-33.089,6.905-35.966a188.782,188.782,0,0,0,2.877-31.362c0-14.386,1.151-43.16,1.151-43.16l9.495-10.358" transform="translate(-341.943 -2290.146)" fill="#344154"/>
      <path id="Trazado_100093" data-name="Trazado 100093" d="M415.368,2453.245l-10.922,8s-.725,36.392-1.462,45.853c-.46,6.053-3.614,24.366-5.824,36.738" transform="translate(-338.097 -2286.551)" fill="none"/>
      <path id="Trazado_100094" data-name="Trazado 100094" d="M396.272,2537.645c-.61,3.361-1,5.467-1,5.467" transform="translate(-338.382 -2273.814)" fill="none"/>
      <path id="Trazado_100095" data-name="Trazado 100095" d="M374.884,2336.334c1.807,7.4,7.412,11.208,9.207,11.808s1.991,5.813,2.2,10.612,2,30.211,2,30.211a22.271,22.271,0,0,0,7.009,1.4c4.2.2,15.8-1.808,15.8-1.808s-3.349-7.8-6-13.006-3.453-17.206-3.453-17.206a14.616,14.616,0,0,0,8.4.4c4.408-1.151,6.215-13.374,7.009-17.782s-2.2-7-2.6-10,1.8-13.811-8.8-18.414a26.1,26.1,0,0,0-19.416-.806C377.439,2314.56,373.077,2328.934,374.884,2336.334Z" transform="translate(-341.519 -2308.129)" fill="#ffbf9d"/>
      <path id="Trazado_100096" data-name="Trazado 100096" d="M406.94,2374.327c2.3,4.028,9.541,7.872,14.72,35.782s5.179,32.513,5.179,32.513c-5.755,4.028-8.92,6.042-26.471,5.467s-16.688-4.028-16.688-4.028-.288-11.221,0-17.839-2.877-54.38-1.726-58.7,5.467-6.905,12.948-6.33,7.619,2.648,7.619,2.648Z" transform="translate(-340.43 -2300.454)" fill="#f2e9e4"/>
      <path id="Trazado_100097" data-name="Trazado 100097" d="M403.419,2340.564a8.3,8.3,0,0,0,2.394-1.4c1.6-1.2-.2-1.014-2.6-2.406s-1.4-3.2-1.4-3.2" transform="translate(-337.427 -2304.613)" fill="none" stroke="#8a503f" stroke-miterlimit="10" stroke-width="1"/>
      <path id="Trazado_100098" data-name="Trazado 100098" d="M397.741,2342.035c4.6,3.994,8.206,1,8.206,1" transform="translate(-338.009 -2303.333)" fill="none" stroke="#8a503f" stroke-miterlimit="10" stroke-width="1"/>
      <path id="Trazado_100099" data-name="Trazado 100099" d="M397.332,2332.645c.621,0,1.151.771,1.151,1.7s-.529,1.693-1.151,1.693-1.151-.76-1.151-1.693S396.71,2332.645,397.332,2332.645Z" transform="translate(-338.245 -2304.75)" fill="#344154"/>
      <path id="Trazado_100100" data-name="Trazado 100100" d="M405.332,2331.255c.61,0,1.151.748,1.151,1.692s-.529,1.7-1.151,1.7-1.151-.76-1.151-1.7S404.722,2331.255,405.332,2331.255Z" transform="translate(-337.037 -2304.96)" fill="#344154"/>
      <path id="Trazado_100101" data-name="Trazado 100101" d="M393.051,2330.486c2.6-3.8,4.995-1.392,4.995-1.392" transform="translate(-338.717 -2305.4)" fill="none" stroke="#8a503f" stroke-miterlimit="10" stroke-width="1"/>
      <path id="Trazado_100102" data-name="Trazado 100102" d="M402.261,2328.894c1.6-4.155,5.6-1.151,5.6-1.151" transform="translate(-337.327 -2305.649)" fill="none" stroke="#8a503f" stroke-miterlimit="10" stroke-width="1"/>
      <path id="Trazado_100103" data-name="Trazado 100103" d="M399.159,2332.645a9.921,9.921,0,0,0-2.808.6" transform="translate(-338.219 -2304.75)" fill="none"/>
      <path id="Trazado_100104" data-name="Trazado 100104" d="M407.148,2331.255a9.937,9.937,0,0,0-2.8.6" transform="translate(-337.012 -2304.96)" fill="none"/>
      <path id="Trazado_100105" data-name="Trazado 100105" d="M374.843,2336.442c1.807,7.4,7.4,11.21,9.207,11.808h.069c-.253-1.3-.737-2.693-1.07-4.04-1-4-1.554-4.592.6-5.4s1.3-2.6,1.151-4.6,3.246-2.8,3.453-6.2,1.865-8.114,5.962-10.416c8.252-4.661,15.583-1.968,16.849-1.082a22.843,22.843,0,0,0-24.814-4.719C377.445,2314.6,373.036,2329.041,374.843,2336.442Z" transform="translate(-341.525 -2308.167)" fill="#344154"/>
      <path id="Trazado_100106" data-name="Trazado 100106" d="M386.878,2341.975c-.391,2.2.011,3.6-4.4,1.6s-5.8-9.611-3.2-10.612,5.6,3.8,5.6,3.8" transform="translate(-340.992 -2304.723)" fill="#ffbf9d"/>
      <path id="Trazado_100107" data-name="Trazado 100107" d="M391.091,2348.425a44.907,44.907,0,0,0,8.056,4.2" transform="translate(-339.013 -2302.369)" fill="none"/>
      <path id="Trazado_100108" data-name="Trazado 100108" d="M365.79,2421.329l-12.211-1.4c-3.8,8.8-2.405,35.022-2.405,37.416a112.019,112.019,0,0,0,.4,11.809c.4,2,3.81,4.994,4.408,6.2s4.4-.794,4.4-.794,3.994-2.048,4.2-3.452.6-4.8-1-6.2-4.6-3-4.6-4.6,3.211-14.409,5.214-22a53.018,53.018,0,0,0,1.6-14.617Z" transform="translate(-345.074 -2291.579)" fill="#ffbf9d"/>
      <path id="Trazado_100109" data-name="Trazado 100109" d="M395.825,2371.123c-2.808-1.346-9.4-10.358-9.4-10.358-1.4.4-14.409,5.41-21.418,7.608s-4.408,4.592-6.606,11.6-7.6,20.221-7.6,29.624,1.8,14.6,1.8,14.6a32.522,32.522,0,0,0,8.8,2.6,22.873,22.873,0,0,0,8.8-.2l4.2-25.815s2.405,21.407,2.405,30.211-8.4,36.622-8.4,36.622,10.6,3,19,3a87.743,87.743,0,0,0,16.009-1.6,216.684,216.684,0,0,1-2.394-25.62c-.6-15.2-3.2-51.824-2.6-58.431a108.64,108.64,0,0,1,2.6-14.409A5,5,0,0,1,395.825,2371.123Z" transform="translate(-345.093 -2300.507)" fill="#6595bf"/>
      <path id="Trazado_100110" data-name="Trazado 100110" d="M377.756,2391.572l-6.445,5.352,3.867-10.519" transform="translate(-341.998 -2296.638)" fill="none"/>
      <path id="Trazado_100111" data-name="Trazado 100111" d="M373.513,2384.407c-2.3-8.056-12.062-14.962-12.062-14.962" transform="translate(-343.486 -2299.197)" fill="none"/>
      <path id="Trazado_100112" data-name="Trazado 100112" d="M384.4,2354.725l-5.6,6.2s11.014,23.869,10.807,23.213,7.2-12.66,7.2-12.66Z" transform="translate(-340.869 -2301.418)" fill="#aed3f2"/>
      <path id="Trazado_100113" data-name="Trazado 100113" d="M431.781,2404.321l-9,4.8a106,106,0,0,0,1.611,12.82,20.023,20.023,0,0,0,4.995-3c2.394-1.991,6.411-5.594,7.607-6.595s-1.657-4.812-2.808-7.412C432.99,2402.33,431.781,2404.321,431.781,2404.321Z" transform="translate(-334.23 -2294.044)" fill="#a3bfd9"/>
      <path id="Trazado_100114" data-name="Trazado 100114" d="M351.985,2413.472c-.6,1.013-1.208,7.2-.4,9.207s12.867,2,14.214,2,4.247,0,4.8-1,.944-6.008,1.151-7.2-1.8-1-1.8-1S352.583,2412.459,351.985,2413.472Z" transform="translate(-345.033 -2292.584)" fill="#a3bfd9"/>
      <line id="Línea_214" data-name="Línea 214" x2="1.6" y2="1.197" transform="translate(14.513 180.735)" fill="none"/>
      <path id="Trazado_100115" data-name="Trazado 100115" d="M357.231,2467.048a7.435,7.435,0,0,1,3.4-3" transform="translate(-344.122 -2284.921)" fill="none"/>
      <path id="Trazado_100116" data-name="Trazado 100116" d="M492.141,2404.762l-24.618,11.221a1.474,1.474,0,0,0-.725,1.945l3.786,8.333a1.474,1.474,0,0,0,1.945.725l25.067-11.509c.025-.01.05-.023.074-.036a1.473,1.473,0,0,0,.617-1.99l-4.235-8.056A1.474,1.474,0,0,0,492.141,2404.762Z" transform="translate(-327.608 -2293.888)" fill="#344154"/>
      <path id="Trazado_100117" data-name="Trazado 100117" d="M465.229,2421.9c3.752,0,5.755-6.8,5.755-6.8s3.418.391,5.812.391,2.992-1.013,3.994-2,1-1.394-1.6-1.394a16.845,16.845,0,0,1-7.4-2.406c-1.2-.794-4.6-.61-6.2.2s-5.6,8.207-5.6,8.207" transform="translate(-328.617 -2293.201)" fill="#ffbf9d"/>
      <path id="Trazado_100118" data-name="Trazado 100118" d="M472.834,2403.169l3.775,6.734,3.959-6.906a16.427,16.427,0,1,0-7.734.171Z" transform="translate(-328.626 -2299.051)" fill="#344154"/>
      <path id="Trazado_100119" data-name="Trazado 100119" d="M476.508,2394.951v2.739h-2.44v-2.636a11.629,11.629,0,0,1-6.077-1.957l1.346-2.969a9.922,9.922,0,0,0,4.73,1.726v-4.074c-2.7-.656-5.755-1.565-5.755-5.052,0-2.578,1.876-4.8,5.755-5.237v-2.716h2.44v2.659a11.1,11.1,0,0,1,4.949,1.5l-1.22,2.993a10.076,10.076,0,0,0-3.729-1.267v4.155c2.7.633,5.686,1.531,5.686,4.972C482.2,2392.292,480.34,2394.489,476.508,2394.951Zm-2.44-10.773v-3.452c-1.289.287-1.807,1-1.807,1.8s.737,1.312,1.807,1.657Zm4.189,5.87c0-.851-.7-1.312-1.749-1.68v3.371c1.22-.276,1.749-.908,1.749-1.692Z" transform="translate(-327.408 -2298.393)" fill="#6595bf"/>
    </g>
  </g>
</svg>
