<svg xmlns="http://www.w3.org/2000/svg" width="405.329" height="454.27" viewBox="0 0 405.329 454.27">
  <g id="Grupo_54846" data-name="Grupo 54846" transform="translate(-765.451 -7199.856)">
    <g id="Grupo_54845" data-name="Grupo 54845" transform="translate(765.451 7199.856)">
      <path id="Trazado_102552" data-name="Trazado 102552" d="M874.781,7377.23c90.509,55.248,14.669,194.6,159.128,160.589,154.009-36.263,77.866-190.233-4.78-268.012C879.073,7128.587,682.372,7259.78,874.781,7377.23Z" transform="translate(-742.655 -7193.178)" fill="#ebf3ff"/>
      <path id="Trazado_102553" data-name="Trazado 102553" d="M991.332,7209.7s-91.1,33.367-72.173,139.988C919.16,7349.693,1015.141,7309.143,991.332,7209.7Z" transform="translate(-648.461 -7192.231)" fill="#344154"/>
      <path id="Trazado_102554" data-name="Trazado 102554" d="M1016.51,7237.816s-76.4-2.979-94.552,80.407C921.958,7318.223,1004.07,7317.429,1016.51,7237.816Z" transform="translate(-644.291 -7170.48)" fill="#6595bf"/>
      <path id="Trazado_102555" data-name="Trazado 102555" d="M795.4,7355.78s71.41,25.692,58.93,102.935C854.33,7458.715,778.985,7427.725,795.4,7355.78Z" transform="translate(-744.078 -7079.148)" fill="#344154"/>
      <path id="Trazado_102556" data-name="Trazado 102556" d="M782.123,7375.96s59.243-.969,75.065,59.957C857.188,7435.917,793.435,7434.055,782.123,7375.96Z" transform="translate(-752.545 -7063.525)" fill="#6595bf"/>
      <path id="Trazado_102557" data-name="Trazado 102557" d="M876.1,7209.7s-22.292,46.891,24.9,80.521C901,7290.226,922.464,7238.763,876.1,7209.7Z" transform="translate(-683.865 -7192.231)" fill="#6595bf"/>
      <ellipse id="Elipse_4057" data-name="Elipse 4057" cx="202.665" cy="13.65" rx="202.665" ry="13.65" transform="translate(0 426.97)" fill="#ebf3ff"/>
      <g id="Grupo_54834" data-name="Grupo 54834" transform="translate(72.033 59.381)">
        <g id="Grupo_54829" data-name="Grupo 54829" transform="translate(25.346 0.042)">
          <g id="Grupo_54828" data-name="Grupo 54828">
            <path id="Trazado_102558" data-name="Trazado 102558" d="M882.433,7446.01h1.938C883.725,7446.018,883.079,7446.022,882.433,7446.01Z" transform="translate(-772.268 -7068.718)" fill="#ff9d08"/>
            <path id="Trazado_102559" data-name="Trazado 102559" d="M1054.5,7425.6c-.06,8.3-.465,16.582-1.153,24.817-.2,2.237-.4,4.477-.648,6.713-.869,8.124-2.042,16.179-3.52,24.079q-.636,3.391-1.334,6.713c-1.639,7.72-3.561,15.285-5.787,22.646-.687,2.26-1.395,4.5-2.143,6.713-2.367,7.072-5,13.92-7.952,20.5-.99,2.283-2.042,4.52-3.115,6.713-1.9,3.895-3.925,7.7-6.029,11.368-1.8,3.111-3.641,6.109-5.521,8.952-1.538,2.327-3.115,4.564-4.694,6.713a122.35,122.35,0,0,1-14.768,16.694,91.126,91.126,0,0,1-7.89,6.713,84.754,84.754,0,0,1-11.552,7.452,74.612,74.612,0,0,1-11.41,4.9,58.216,58.216,0,0,1-6.534,1.813,63.381,63.381,0,0,1-13.068,1.543h-43.11l-.83-1.543-.99-1.813-2.67-4.9-.041-.09a87.414,87.414,0,0,1-11.41-7.362,99.1,99.1,0,0,1-7.931-6.713,123.869,123.869,0,0,1-14.809-16.694c-1.618-2.148-3.176-4.386-4.714-6.713-2.083-3.111-4.107-6.4-6.069-9.824q-2.911-5.1-5.562-10.5-1.639-3.29-3.156-6.713a214.011,214.011,0,0,1-7.991-20.5c-.789-2.214-1.5-4.453-2.164-6.713-2.287-7.361-4.249-14.927-5.908-22.646-.484-2.216-.93-4.452-1.355-6.713-.91-4.677-1.7-9.42-2.367-14.187l-5.381-9.892-.587-1.1v-68.074l.325-.6,5.422-9.981c.648-4.743,1.416-9.465,2.285-14.12q.607-3.39,1.336-6.713,2.4-11.615,5.745-22.691c.667-2.26,1.4-4.5,2.124-6.714q3.521-10.639,7.93-20.563c.992-2.284,2.023-4.521,3.137-6.714q2.882-6.044,6.169-11.728c1.762-3.065,3.561-5.974,5.4-8.771,1.538-2.328,3.1-4.565,4.693-6.714a121.606,121.606,0,0,1,14.688-16.672,96,96,0,0,1,7.868-6.714,82.665,82.665,0,0,1,11.592-7.519c.323-.2.648-.358.971-.538l2.429-4.5,1.82-3.357h42.848a63.948,63.948,0,0,1,13.29,1.678,57.06,57.06,0,0,1,5.927,1.68,70.7,70.7,0,0,1,11.633,5.034,86.185,86.185,0,0,1,11.612,7.519,103.342,103.342,0,0,1,7.87,6.714,124.366,124.366,0,0,1,14.706,16.672q2.4,3.223,4.714,6.714c2.044,3.065,4.026,6.266,5.947,9.645q3,5.271,5.746,10.854c1.093,2.214,2.124,4.453,3.135,6.714,2.954,6.6,5.624,13.494,7.991,20.563.749,2.216,1.478,4.454,2.164,6.714,2.246,7.386,4.189,14.972,5.826,22.691.506,2.216.951,4.453,1.355,6.713q2.278,11.883,3.582,24.1.362,3.357.667,6.714,1.062,12.352,1.194,24.816C1054.522,7421.124,1054.522,7423.361,1054.5,7425.6Z" transform="translate(-820.339 -7233.35)" fill="#a66d58"/>
            <g id="Grupo_54827" data-name="Grupo 54827">
              <path id="Trazado_102560" data-name="Trazado 102560" d="M931.992,7236.708a57.06,57.06,0,0,0-5.927-1.68,63.948,63.948,0,0,0-13.29-1.678H869.927l-.91,1.678-.91,1.68-2.429,4.5c-.323.18-.648.336-.971.538h78.918A70.7,70.7,0,0,0,931.992,7236.708Z" transform="translate(-785.991 -7233.35)" fill="#53372c"/>
              <path id="Trazado_102561" data-name="Trazado 102561" d="M963.729,7242.318H861.606a96,96,0,0,0-7.868,6.714H971.6A103.342,103.342,0,0,0,963.729,7242.318Z" transform="translate(-794.483 -7226.408)" fill="#53372c"/>
              <path id="Trazado_102562" data-name="Trazado 102562" d="M994.762,7255.5H847.507c-1.6,2.148-3.154,4.386-4.693,6.714H999.476Q997.168,7258.721,994.762,7255.5Z" transform="translate(-802.94 -7216.203)" fill="#53372c"/>
              <path id="Trazado_102563" data-name="Trazado 102563" d="M1017.587,7270.837H837.661c-1.114,2.193-2.145,4.43-3.137,6.714h186.2C1019.711,7275.29,1018.68,7273.051,1017.587,7270.837Z" transform="translate(-809.358 -7204.33)" fill="#53372c"/>
              <path id="Trazado_102564" data-name="Trazado 102564" d="M1033.1,7286.212H830.981c-.727,2.216-1.457,4.454-2.124,6.714h206.407C1034.578,7290.666,1033.849,7288.428,1033.1,7286.212Z" transform="translate(-813.745 -7192.427)" fill="#53372c"/>
              <path id="Trazado_102565" data-name="Trazado 102565" d="M1044.18,7302.786H826.2q-.729,3.324-1.336,6.713h220.67C1045.131,7307.239,1044.686,7305,1044.18,7302.786Z" transform="translate(-816.834 -7179.596)" fill="#53372c"/>
              <path id="Trazado_102566" data-name="Trazado 102566" d="M1052.622,7320.154H820.664l-.325.6v6.109h232.95Q1052.986,7323.509,1052.622,7320.154Z" transform="translate(-820.339 -7166.149)" fill="#53372c"/>
              <path id="Trazado_102567" data-name="Trazado 102567" d="M1054.483,7337.926H820.339v6.714H1054.5C1054.522,7342.4,1054.522,7340.165,1054.483,7337.926Z" transform="translate(-820.339 -7152.391)" fill="#53372c"/>
              <path id="Trazado_102568" data-name="Trazado 102568" d="M820.339,7361.316l.587,1.1H1052.7c.243-2.236.445-4.476.648-6.713H820.339Z" transform="translate(-820.339 -7138.632)" fill="#53372c"/>
              <path id="Trazado_102569" data-name="Trazado 102569" d="M826.392,7379.768h217.819q.7-3.324,1.334-6.713H825.037C825.463,7375.315,825.908,7377.552,826.392,7379.768Z" transform="translate(-816.702 -7125.196)" fill="#53372c"/>
              <path id="Trazado_102570" data-name="Trazado 102570" d="M831.3,7396.316h201.816c.749-2.214,1.457-4.453,2.143-6.713H829.131C829.8,7391.863,830.506,7394.1,831.3,7396.316Z" transform="translate(-813.533 -7112.386)" fill="#53372c"/>
              <path id="Trazado_102571" data-name="Trazado 102571" d="M838.011,7411.654h179.6c1.073-2.193,2.125-4.43,3.115-6.713H834.855Q836.372,7408.366,838.011,7411.654Z" transform="translate(-809.101 -7100.512)" fill="#53372c"/>
              <path id="Trazado_102572" data-name="Trazado 102572" d="M847.9,7426.892H994.916c1.579-2.148,3.156-4.386,4.694-6.713H843.19C844.728,7422.506,846.286,7424.743,847.9,7426.892Z" transform="translate(-802.649 -7088.716)" fill="#53372c"/>
              <path id="Trazado_102573" data-name="Trazado 102573" d="M862.125,7440.084H963.739a91.126,91.126,0,0,0,7.89-6.713H854.194A99.1,99.1,0,0,0,862.125,7440.084Z" transform="translate(-794.13 -7078.501)" fill="#53372c"/>
              <path id="Trazado_102574" data-name="Trazado 102574" d="M867.788,7446.256l.99,1.813.83,1.543h43.11a63.381,63.381,0,0,0,13.068-1.543,58.216,58.216,0,0,0,6.534-1.813,74.612,74.612,0,0,0,11.41-4.9H865.118Z" transform="translate(-785.673 -7072.321)" fill="#53372c"/>
            </g>
          </g>
        </g>
        <g id="Grupo_54831" data-name="Grupo 54831">
          <g id="Grupo_54830" data-name="Grupo 54830">
            <path id="Trazado_102575" data-name="Trazado 102575" d="M837.761,7555c-42.278-73.94-42.278-193.387,0-266.847,42.266-73.431,110.8-73.07,153.083.87,42.262,73.914,42.26,193.413,0,266.846-42.28,73.459-110.817,73.043-153.081-.869" transform="translate(-806.052 -7233.326)" fill="#e8c7aa"/>
            <path id="Trazado_102576" data-name="Trazado 102576" d="M813.181,7415.827c0-48.177,10.652-93.216,30-126.827,18.013-31.295,41.214-48.513,65.326-48.478,24.313.036,47.707,17.549,65.871,49.314,19.345,33.834,30,79.013,30,127.218v.013c0,48.183-10.65,93.217-29.987,126.817-18.013,31.294-41.21,48.512-65.323,48.477-24.313-.036-47.709-17.549-65.873-49.314C823.84,7509.2,813.181,7464.016,813.181,7415.827Z" transform="translate(-800.534 -7227.754)" fill="#a66d58"/>
            <path id="Trazado_102577" data-name="Trazado 102577" d="M820.084,7419.826c0-48.177,10.2-93.217,28.725-126.826,17.25-31.3,39.466-48.515,62.559-48.479,23.282.035,45.685,17.548,63.078,49.315,18.524,33.832,28.727,79.013,28.731,127.217v.012c0,48.183-10.2,93.216-28.716,126.816-17.249,31.295-39.464,48.514-62.553,48.478-23.282-.035-45.686-17.548-63.08-49.314C830.293,7513.2,820.084,7468.014,820.084,7419.826Z" transform="translate(-795.19 -7224.66)" fill="#d9a171"/>
          </g>
        </g>
        <g id="Grupo_54833" data-name="Grupo 54833" transform="translate(46.324 88.428)">
          <g id="Grupo_54832" data-name="Grupo 54832">
            <path id="Trazado_102578" data-name="Trazado 102578" d="M932.508,7482.806l7.742-13.538a10.76,10.76,0,0,0,0-9.642l-6.2-10.771q9.059-22.386,7.975-43.779-1.112-21.415-9.967-36.8-9.41-16.345-19.021-16.2t-20.795,9.937c-.772.538-2.752,2.273-5.938,5.107q-10.347,9.19-15.877,11.784-5.543,2.544-9.139-3.7-8.274-14.373,2.677-33.5a72.3,72.3,0,0,1,15.354-18.987,49.246,49.246,0,0,1,8.991-6.24,5.961,5.961,0,0,0,2.3-2.389,14.813,14.813,0,0,0,0-13.354l-8.775-15.245c-1.238-2.15-3.115-2.925-4.772-1.8-7.963,5.5-15.7,14.067-23.227,25.8l-7.262-12.619c-1.515-2.629-4-2.639-5.53.034L833.3,7310.44a10.75,10.75,0,0,0,0,9.64l7.609,13.224a97.431,97.431,0,0,0-7.175,41.924q1.112,21.415,10.537,37.787,6.765,11.76,13.854,14.33a17.183,17.183,0,0,0,14.321-1.095c4.817-2.437,10.317-6.68,16.544-12.651,5.269-4.9,9.169-8.374,11.7-10.316a11.835,11.835,0,0,1,7.553-2.908c2.517.061,4.8,1.849,6.827,5.365,2.546,4.423,3.477,9.645,2.792,15.609a47.063,47.063,0,0,1-6.17,17.9,45.752,45.752,0,0,1-13.751,15.474,54.311,54.311,0,0,1-7.029,4.126,6.026,6.026,0,0,0-2.457,2.5,14.767,14.767,0,0,0-.03,13.367l8.876,15.426c1.251,2.172,3.115,2.925,4.772,1.8a64.863,64.863,0,0,0,8.807-7.025,81.886,81.886,0,0,0,10.23-12.259l5.864,10.188c1.513,2.629,4,2.641,5.53-.032" transform="translate(-832.163 -7283.168)" fill="#f2e9e4"/>
          </g>
        </g>
      </g>
      <path id="Trazado_102579" data-name="Trazado 102579" d="M914.141,7264.676a1.6,1.6,0,0,0-1.872,1.273l-3.468,18.238H874.147l3.355-17.641a1.6,1.6,0,1,0-3.144-.6l-60.9,320.166a1.6,1.6,0,0,0,1.274,1.87,1.571,1.571,0,0,0,.3.028,1.6,1.6,0,0,0,1.57-1.3l3.47-18.241h34.656l-3.355,17.643a1.6,1.6,0,0,0,1.274,1.87,1.557,1.557,0,0,0,.3.028,1.6,1.6,0,0,0,1.57-1.3l60.9-320.167A1.6,1.6,0,0,0,914.141,7264.676Zm-5.949,22.714-6.075,31.933H867.462l6.075-31.933Zm-12.758,67.068H860.778l6.075-31.933h34.656Zm-6.683,35.138H854.1l6.075-31.935h34.656Zm-6.685,35.137H847.412l6.075-31.937h34.655Zm-6.683,35.136H840.727l6.076-31.937h34.655ZM868.7,7495H834.043l6.075-31.937h34.656Zm-6.683,35.136H827.36l6.075-31.937h34.656Zm-41.34,35.136,6.075-31.937h34.656l-6.075,31.937Z" transform="translate(-728.312 -7149.698)" fill="#344154"/>
      <g id="Grupo_54835" data-name="Grupo 54835" transform="translate(120.5 78.221)">
        <path id="Trazado_102580" data-name="Trazado 102580" d="M868.177,7266.342c1.469.614,5.149,1.315,4.882-.586-.209-1.5-3.342-1.59-4.471-1.486S868.177,7266.342,868.177,7266.342Z" transform="translate(-806.599 -7228.234)" fill="#7bb7ff"/>
        <path id="Trazado_102581" data-name="Trazado 102581" d="M855.612,7245.993c-4.554-2.285-8.548.858-8.846,7.239a13.176,13.176,0,0,0,.912,5.652l-.864,4.93a3.532,3.532,0,0,0,2.587,3.983,3.016,3.016,0,0,0,3.722-2.439l.08-.432.3-1.742c3.337-.017,5.09-3.346,5.876-7.651C860.245,7250.8,859.267,7247.828,855.612,7245.993Z" transform="translate(-823.014 -7242.936)" fill="#7bb7ff"/>
        <path id="Trazado_102582" data-name="Trazado 102582" d="M872.482,7281.965l-17.5-1.105c-.053.531-.1,1.1-.144,1.7l-10.565-1.7c-1.192,8.215-1.586,25.239-1.764,31.53-.078,2.715-.06,5.1.032,7.216-.011.037-.032.065-.043.1-1.167,4.132-4.1,14.625-5.778,24.038s-4.748,29.979-.527,29.681c3.4-.24,14.367-32.159,19.127-45.523.119,5.218.4,12.228,1.084,18.639,1.027,9.541,3.83,30.252,7.8,28.965,3.766-1.219,5.324-47.605,6.011-54.14a3.914,3.914,0,0,0-.023-.6C872.321,7307.964,871.716,7281.953,872.482,7281.965Z" transform="translate(-832.832 -7215.369)" fill="#6595bf"/>
        <path id="Trazado_102583" data-name="Trazado 102583" d="M894.577,7272.109l-.122-.04c-.7-.229-.86.186-1.251.33l-1.045.569c-.7.365-1.416.705-2.134,1.01a21.062,21.062,0,0,1-4.3,1.36,9.906,9.906,0,0,1-3.822.163,4.188,4.188,0,0,1-1.4-.476,3.138,3.138,0,0,1-.552-.369l-.694-.563a44.356,44.356,0,0,1-6.35-6.22c-.954-1.148-1.891-2.319-2.764-3.536-.687-.9-1.352-1.926-1.932-2.834a8,8,0,0,0-.443-1.034,7.54,7.54,0,0,0-3.539-3.069,18.884,18.884,0,0,0-12.815-.734,9.489,9.489,0,0,0-1.27.546,3.759,3.759,0,0,0-1.4.762,40.9,40.9,0,0,0-4.49,4.691,41.813,41.813,0,0,0-3.7,5.234,31.192,31.192,0,0,0-4.462,12.463,17.236,17.236,0,0,0,.486,7.128,9.515,9.515,0,0,0,2.051,3.806,7.461,7.461,0,0,0,3.383,2.06,46.259,46.259,0,0,0,.445,8.4c.431,2.1,29.082,3.548,28.887-.625-.27-5.705-.424-16-1.029-24.936a38.257,38.257,0,0,0,4.95,3.678l.569.36.789.411a9.863,9.863,0,0,0,1.682.632,10.784,10.784,0,0,0,3.4.4,14.363,14.363,0,0,0,5.754-1.645,25.255,25.255,0,0,0,4.439-3.046q1-.841,1.918-1.747l.9-.92c.25-.363.718-.469.633-1.24A1.152,1.152,0,0,0,894.577,7272.109Z" transform="translate(-831.387 -7234.709)" fill="#fff"/>
        <path id="Trazado_102584" data-name="Trazado 102584" d="M834.739,7330.729c-.688.461-.823,2.322-1.309,4.1-.468,1.723,1.976,1.347,3.783,1.976,4.2,1.468,10.122,2.471,7.288.614-3.807-2.492-4.389-4.953-5.264-5.6A38.292,38.292,0,0,0,834.739,7330.729Z" transform="translate(-833.371 -7176.762)" fill="#344154"/>
        <path id="Trazado_102585" data-name="Trazado 102585" d="M849.451,7332.264c-.53.611-.14,2.452-.108,4.295.032,1.787,2.276.845,4.189,1.031,4.45.433,10.418.01,7.177-1.125-4.359-1.523-5.6-3.778-6.628-4.2A38.528,38.528,0,0,0,849.451,7332.264Z" transform="translate(-821.137 -7175.629)" fill="#344154"/>
        <path id="Trazado_102586" data-name="Trazado 102586" d="M860.64,7252.468c.073-.249.094-.465.144-.7l2.37.44c-.428-10.738-15.375-8.979-17.174-5.949l.147.061c-4.18,1.81-3.593,6.467-2.612,15.753,3.885,4.106,18.256,1.092,18.256,1.092S858.389,7260.066,860.64,7252.468Z" transform="translate(-826.066 -7243.946)" fill="#344154"/>
        <path id="Trazado_102587" data-name="Trazado 102587" d="M854.417,7250.953c.241,1.28.188,2.449-.573,2.849s-1.455-.39-1.813-1.6c-.476-1.6-.041-2.945.942-3.04C853.76,7249.086,854.175,7249.673,854.417,7250.953Z" transform="translate(-819.075 -7239.912)" fill="#7bb7ff"/>
      </g>
      <g id="Grupo_54839" data-name="Grupo 54839" transform="translate(214.469 292.473)">
        <g id="Grupo_54836" data-name="Grupo 54836" transform="translate(0 56.282)">
          <rect id="Rectángulo_6850" data-name="Rectángulo 6850" width="19.013" height="94.632" fill="#4b80f7"/>
          <rect id="Rectángulo_6851" data-name="Rectángulo 6851" width="19.013" height="94.632" transform="translate(19.013)" fill="#6595bf"/>
        </g>
        <g id="Grupo_54837" data-name="Grupo 54837" transform="translate(49.26 27.655)">
          <rect id="Rectángulo_6852" data-name="Rectángulo 6852" width="19.013" height="123.259" fill="#4198ef"/>
          <rect id="Rectángulo_6853" data-name="Rectángulo 6853" width="19.013" height="123.259" transform="translate(19.013)" fill="#167af2"/>
        </g>
        <g id="Grupo_54838" data-name="Grupo 54838" transform="translate(98.52)">
          <rect id="Rectángulo_6854" data-name="Rectángulo 6854" width="19.013" height="150.914" fill="#4dc5f4"/>
          <rect id="Rectángulo_6855" data-name="Rectángulo 6855" width="19.013" height="150.914" transform="translate(19.013)" fill="#16a9f2"/>
        </g>
      </g>
      <g id="Grupo_54844" data-name="Grupo 54844" transform="translate(80.35)">
        <path id="Trazado_102588" data-name="Trazado 102588" d="M881.377,7199.856H810.74v41.284h49.892l10.34,16.449,2.584-16.449h7.821Z" transform="translate(-810.74 -7199.856)" fill="#6595bf"/>
        <g id="Grupo_54843" data-name="Grupo 54843" transform="translate(9.521 7.624)">
          <g id="Grupo_54840" data-name="Grupo 54840">
            <path id="Trazado_102589" data-name="Trazado 102589" d="M829.048,7224.555a6.389,6.389,0,0,1-3.958,2.142v1.927a.7.7,0,0,1-.7.7h-1.964a.7.7,0,0,1-.7-.7v-1.838a14.03,14.03,0,0,1-4.817-1.081.806.806,0,0,1-.472-.74v-2.225a.974.974,0,0,1,1.439-.854,10.731,10.731,0,0,0,4.914,1.265q2.776,0,2.776-2.1a1.59,1.59,0,0,0-.887-1.432,16.158,16.158,0,0,0-2.865-1.168q-.915-.294-1.123-.385a8.514,8.514,0,0,1-3.353-1.92,4.859,4.859,0,0,1-1.226-3.605,5.975,5.975,0,0,1,1.419-3.943,6.693,6.693,0,0,1,4.194-2.171v-1.572a.7.7,0,0,1,.7-.7h1.964a.7.7,0,0,1,.7.7v1.485a11.925,11.925,0,0,1,2.186.413,13.081,13.081,0,0,1,1.625.606.81.81,0,0,1,.472.74v2.249a.976.976,0,0,1-1.469.84,12.56,12.56,0,0,0-1.19-.6,7.06,7.06,0,0,0-2.865-.62,3.732,3.732,0,0,0-2.083.517,1.682,1.682,0,0,0-.782,1.492,1.733,1.733,0,0,0,.472,1.256,3.208,3.208,0,0,0,1.167.753q.695.265,2.23.739a15.03,15.03,0,0,1,3.014,1.182,5.21,5.21,0,0,1,1.891,1.742,5.08,5.08,0,0,1,.708,2.807A6.18,6.18,0,0,1,829.048,7224.555Z" transform="translate(-816.107 -7204.154)" fill="#aed3f2"/>
          </g>
          <g id="Grupo_54841" data-name="Grupo 54841" transform="translate(18.618)">
            <path id="Trazado_102590" data-name="Trazado 102590" d="M839.542,7224.555a6.389,6.389,0,0,1-3.96,2.142v1.927a.7.7,0,0,1-.7.7h-1.966a.7.7,0,0,1-.7-.7v-1.838a14.031,14.031,0,0,1-4.817-1.081.8.8,0,0,1-.472-.74v-2.225a.974.974,0,0,1,1.439-.854,10.215,10.215,0,0,0,1.59.69,10.341,10.341,0,0,0,3.323.574q2.778,0,2.778-2.1a1.59,1.59,0,0,0-.887-1.432,16.162,16.162,0,0,0-2.865-1.168q-.915-.294-1.123-.385a8.514,8.514,0,0,1-3.353-1.92,4.851,4.851,0,0,1-1.226-3.605,5.973,5.973,0,0,1,1.418-3.943,6.7,6.7,0,0,1,4.2-2.171v-1.572a.7.7,0,0,1,.7-.7h1.966a.7.7,0,0,1,.7.7v1.485a11.87,11.87,0,0,1,2.186.413,13.015,13.015,0,0,1,1.627.606.81.81,0,0,1,.472.74v2.249a.976.976,0,0,1-1.469.84,12.8,12.8,0,0,0-1.19-.6,7.066,7.066,0,0,0-2.865-.62,3.733,3.733,0,0,0-2.083.517,1.682,1.682,0,0,0-.782,1.492,1.725,1.725,0,0,0,.472,1.256,3.208,3.208,0,0,0,1.167.753q.695.265,2.23.739a15.119,15.119,0,0,1,3.014,1.182,5.2,5.2,0,0,1,1.89,1.742,5.066,5.066,0,0,1,.71,2.807A6.191,6.191,0,0,1,839.542,7224.555Z" transform="translate(-826.601 -7204.154)" fill="#aed3f2"/>
          </g>
          <g id="Grupo_54842" data-name="Grupo 54842" transform="translate(37.236)">
            <path id="Trazado_102591" data-name="Trazado 102591" d="M850.034,7224.555a6.384,6.384,0,0,1-3.958,2.142v1.927a.7.7,0,0,1-.7.7h-1.966a.7.7,0,0,1-.7-.7v-1.838a14.03,14.03,0,0,1-4.817-1.081.8.8,0,0,1-.472-.74v-2.225a.973.973,0,0,1,1.437-.854,10.752,10.752,0,0,0,4.914,1.265q2.776,0,2.776-2.1a1.588,1.588,0,0,0-.885-1.432,16.222,16.222,0,0,0-2.865-1.168q-.918-.294-1.123-.385a8.5,8.5,0,0,1-3.353-1.92,4.851,4.851,0,0,1-1.226-3.605,5.973,5.973,0,0,1,1.418-3.943,6.7,6.7,0,0,1,4.2-2.171v-1.572a.7.7,0,0,1,.7-.7h1.966a.7.7,0,0,1,.7.7v1.485a11.866,11.866,0,0,1,2.186.413,13.11,13.11,0,0,1,1.627.606.81.81,0,0,1,.472.74v2.249a.977.977,0,0,1-1.471.84,12.558,12.558,0,0,0-1.189-.6,7.073,7.073,0,0,0-2.865-.62,3.733,3.733,0,0,0-2.083.517,1.68,1.68,0,0,0-.784,1.492,1.726,1.726,0,0,0,.474,1.256,3.192,3.192,0,0,0,1.167.753q.692.265,2.23.739a15.055,15.055,0,0,1,3.013,1.182,5.2,5.2,0,0,1,1.891,1.742,5.081,5.081,0,0,1,.71,2.807A6.182,6.182,0,0,1,850.034,7224.555Z" transform="translate(-837.095 -7204.154)" fill="#aed3f2"/>
          </g>
        </g>
      </g>
    </g>
  </g>
</svg>
