<svg xmlns="http://www.w3.org/2000/svg" width="471.78" height="428.983" viewBox="0 0 471.78 428.983">
  <g id="Grupo_54101" data-name="Grupo 54101" transform="translate(-510.185 -6008.715)">
    <g id="freepik--background-complete--inject-40" transform="translate(535.978 6393.084)">
      <rect id="Rectángulo_6646" data-name="Rectángulo 6646" width="10.572" height="0.304" transform="translate(427.349 0.62)" fill="#ebebeb"/>
      <rect id="Rectángulo_6647" data-name="Rectángulo 6647" width="23.347" height="0.304" transform="translate(342.32 9.246)" fill="#ebebeb"/>
      <rect id="Rectángulo_6648" data-name="Rectángulo 6648" width="52.546" height="0.304" transform="translate(157.552 5.134)" fill="#ebebeb"/>
      <rect id="Rectángulo_6649" data-name="Rectángulo 6649" width="7.701" height="0.304" transform="translate(139.011 5.134)" fill="#ebebeb"/>
      <rect id="Rectángulo_6650" data-name="Rectángulo 6650" width="113.973" height="0.304" fill="#ebebeb"/>
    </g>
    <g id="freepik--Shadow--inject-40" transform="translate(510.185 6410.153)">
      <ellipse id="freepik--path--inject-40" cx="235.89" cy="13.772" rx="235.89" ry="13.772" fill="#f5f5f5"/>
    </g>
    <g id="freepik--Pyramid--inject-40" transform="translate(557.5 6159.566)">
      <path id="Trazado_102189" data-name="Trazado 102189" d="M549.076,6359.107H926.227l-37.715-65.32H586.791Z" transform="translate(-549.076 -6097.815)" fill="#d9a171"/>
      <path id="Trazado_102190" data-name="Trazado 102190" d="M549.076,6359.107H926.227l-37.715-65.32H586.791Z" transform="translate(-549.076 -6097.815)" fill="#fff" opacity="0.4" style="isolation: isolate"/>
      <path id="Trazado_102191" data-name="Trazado 102191" d="M580.076,6305.42H881.8l-37.715-65.332H617.791Z" transform="translate(-542.36 -6109.447)" fill="#d9a171"/>
      <path id="Trazado_102192" data-name="Trazado 102192" d="M580.076,6305.42H881.8l-37.715-65.332H617.791Z" transform="translate(-542.36 -6109.447)" fill="#fff" opacity="0.3" style="isolation: isolate"/>
      <path id="Trazado_102193" data-name="Trazado 102193" d="M648.791,6186.4l-37.715,65.32H837.366l-37.715-65.32Z" transform="translate(-535.645 -6121.077)" fill="#d9a171"/>
      <path id="Trazado_102194" data-name="Trazado 102194" d="M648.791,6186.4l-37.715,65.32H837.366l-37.715-65.32Z" transform="translate(-535.645 -6121.077)" fill="#fff" opacity="0.2" style="isolation: isolate"/>
      <path id="Trazado_102195" data-name="Trazado 102195" d="M755.221,6132.707h-75.43l-37.715,65.321H792.936Z" transform="translate(-528.93 -6132.707)" fill="#d9a171"/>
      <path id="Trazado_102196" data-name="Trazado 102196" d="M755.221,6132.707h-75.43l-37.715,65.321H792.936Z" transform="translate(-528.93 -6132.707)" opacity="0.1" style="isolation: isolate"/>
    </g>
    <g id="freepik--character-2--inject-40" transform="translate(577.817 6008.715)">
      <path id="Trazado_102197" data-name="Trazado 102197" d="M639.107,6057.074c-.62.462-1.46,1.119-2.2,1.728s-1.5,1.217-2.239,1.935c-1.46,1.337-2.908,2.7-4.27,4.136a59.506,59.506,0,0,0-7.178,9.294c-.45.743-1.217,2-1.083,1.825a2.767,2.767,0,0,0-.134,1.338,16.458,16.458,0,0,0,1.545,4.867,74.6,74.6,0,0,0,6.217,10.39l-3.419,3.285a47.872,47.872,0,0,1-9.21-10.037,21.94,21.94,0,0,1-3.212-7,10.97,10.97,0,0,1-.073-5.013,8.3,8.3,0,0,1,.438-1.412,9.184,9.184,0,0,1,.45-.973l.766-1.569a55.2,55.2,0,0,1,7.872-11.412,65.169,65.169,0,0,1,4.806-4.867c.852-.766,1.728-1.521,2.616-2.25s1.764-1.387,2.9-2.166Z" transform="translate(-555.416 -5999.95)" fill="#b55b52"/>
      <path id="Trazado_102198" data-name="Trazado 102198" d="M637.906,6044.08c-5.986.268-15,12.313-15,12.313l9.623,11.411s12.166-6.558,13.5-15.231C646.678,6048.241,643.794,6043.813,637.906,6044.08Z" transform="translate(-553.4 -6001.056)" fill="#d9a171"/>
      <path id="Trazado_102199" data-name="Trazado 102199" d="M626.131,6083.688l7.129,6.083-6.691,1.691s-4.161-2.434-2.944-5.828Z" transform="translate(-553.292 -5992.474)" fill="#b55b52"/>
      <path id="Trazado_102200" data-name="Trazado 102200" d="M632.746,6092.242l-3.479,3.37-3.261-5.182,6.691-1.691Z" transform="translate(-552.728 -5991.38)" fill="#b55b52"/>
      <path id="Trazado_102201" data-name="Trazado 102201" d="M672.165,6031.585c-.292.621-.195,1.3.219,1.509s.973-.146,1.217-.767.195-1.3-.207-1.509S672.457,6030.952,672.165,6031.585Z" transform="translate(-542.766 -6003.94)" fill="#344154"/>
      <path id="Trazado_102202" data-name="Trazado 102202" d="M673.015,6030.758l1.715.317S673.4,6031.865,673.015,6030.758Z" transform="translate(-542.545 -6003.94)" fill="#344154"/>
      <path id="Trazado_102203" data-name="Trazado 102203" d="M672.7,6032.158a19.2,19.2,0,0,0,.365,5.122,3.035,3.035,0,0,1-2.433-.694Z" transform="translate(-543.061 -6003.637)" fill="#a02724"/>
      <path id="Trazado_102204" data-name="Trazado 102204" d="M675.06,6028.681a.364.364,0,0,1-.17-.1,3.4,3.4,0,0,0-2.847-.985.4.4,0,0,1-.482-.3l0-.018a.414.414,0,0,1,.316-.486,4.215,4.215,0,0,1,3.577,1.217.4.4,0,0,1,0,.566l0,0A.413.413,0,0,1,675.06,6028.681Z" transform="translate(-542.863 -6004.806)" fill="#344154"/>
      <path id="Trazado_102205" data-name="Trazado 102205" d="M653.8,6031.908c.17,5.22-2.068,13.639-6.156,16.3,0,0,2.64,5.646,12.032,7.457,10.329,2.008,5.779-4.136,5.779-4.136-5.414-2.434-4.587-6.569-2.956-10.281Z" transform="translate(-548.041 -6003.691)" fill="#b55b52"/>
      <path id="Trazado_102206" data-name="Trazado 102206" d="M676.369,6055.818c.474,2.652.973,5.475,1.557,8.2s1.119,5.511,1.764,8.236,1.314,5.438,2.032,8.126c.353,1.351.754,2.677,1.144,4l1.034,3.225a5.481,5.481,0,0,0,1.667,1.679,20.6,20.6,0,0,0,3.09,1.739,56.026,56.026,0,0,0,7.506,2.835c2.616.839,5.329,1.558,8.066,2.2s5.511,1.217,8.236,1.813l-.438,4.732a102.727,102.727,0,0,1-17.617-1.788,55.374,55.374,0,0,1-8.869-2.434,26.63,26.63,0,0,1-4.526-2.178,13.075,13.075,0,0,1-4.489-4.222c-.172-.271-.33-.552-.474-.839l-.207-.462-.158-.389-.4-1.046-.791-2.081c-.5-1.4-1.01-2.786-1.472-4.2-.937-2.8-1.788-5.621-2.518-8.517a154.044,154.044,0,0,1-3.65-17.276Z" transform="translate(-543.879 -5998.512)" fill="#b55b52"/>
      <path id="Trazado_102207" data-name="Trazado 102207" d="M738.86,6065.038l-48.044,58.154,74.384,12.531Z" transform="translate(-538.689 -5996.514)" fill="#6595bf"/>
      <path id="Trazado_102208" data-name="Trazado 102208" d="M703.235,6091.171l6.825-2.323.791,6.375s-6.229,3.334-8.516-1.216Z" transform="translate(-536.194 -5991.356)" fill="#b55b52"/>
      <path id="Trazado_102209" data-name="Trazado 102209" d="M712.222,6090.914l2.263,6-5.049-1.679-.791-6.375Z" transform="translate(-534.827 -5991.354)" fill="#b55b52"/>
      <path id="Trazado_102210" data-name="Trazado 102210" d="M632.706,6254.574l8.626.633L643.9,6235.4l-8.626-.633Z" transform="translate(-551.277 -5959.748)" fill="#b55b52"/>
      <path id="Trazado_102211" data-name="Trazado 102211" d="M587.826,6234.4l7.932,3.686,10.621-16.813-7.932-3.686Z" transform="translate(-560.999 -5963.469)" fill="#b55b52"/>
      <path id="Trazado_102212" data-name="Trazado 102212" d="M598.669,6233.977l-7.8-6a.681.681,0,0,0-.912,0l-5.487,5.316a1.387,1.387,0,0,0,.068,1.96c.036.034.075.065.114.1,2.762,2.044,4.2,2.9,7.628,5.523,2.1,1.619,5.037,4.209,7.944,6.449s5.219-.45,4.21-1.631c-4.575-5.316-4.234-7.542-4.867-10.45A2.425,2.425,0,0,0,598.669,6233.977Z" transform="translate(-561.806 -5961.257)" fill="#344154"/>
      <path id="Trazado_102213" data-name="Trazado 102213" d="M642.338,6250.558H632.6a.705.705,0,0,0-.706.6l-1.3,7.677a1.339,1.339,0,0,0,1.13,1.519,1.568,1.568,0,0,0,.208.015c3.382-.061,5.012-.255,9.283-.255,2.628,0,8.042.268,11.667.268s3.905-3.577,2.433-3.905c-6.728-1.46-9.344-3.468-11.57-5.377A2.217,2.217,0,0,0,642.338,6250.558Z" transform="translate(-551.736 -5956.328)" fill="#344154"/>
      <path id="Trazado_102214" data-name="Trazado 102214" d="M643.677,6235.413l-1.423,11-8.529-1.424,1.314-10.22Z" transform="translate(-551.056 -5959.748)" opacity="0.2" style="isolation: isolate"/>
      <path id="Trazado_102215" data-name="Trazado 102215" d="M597.363,6217.6l7.932,3.687-4.708,7.445-7.762-3.966Z" transform="translate(-559.915 -5963.467)" opacity="0.2" style="isolation: isolate"/>
      <path id="Trazado_102216" data-name="Trazado 102216" d="M633.235,6096.634l34.613,6.679c16.351-48.142,12.434-49.7,12.434-49.7a71.33,71.33,0,0,0-7.847-3.65l-.462-.183c-2.214-.8-2.677-.925-5.645-1.788-5.1-1.217-9.842-2.19-15.707-3.029a11.09,11.09,0,0,1-1.119-.158c-1.071-.134-2.129-.244-3.139-.341-.693-.085-1.375-.121-2.032-.17l-2.239-.122c-3.784-.183-6.485-.134-6.485-.134C637.578,6074.113,636.131,6082.752,633.235,6096.634Z" transform="translate(-551.162 -6001.064)" fill="#d9a171"/>
      <path id="Trazado_102217" data-name="Trazado 102217" d="M666.253,6064.908a29.293,29.293,0,0,0,1.01,15.1c2.871-9.417,4.514-15.816,5.39-20.257C670,6059.409,667.178,6060.261,666.253,6064.908Z" transform="translate(-544.129 -5997.674)" opacity="0.2" style="isolation: isolate"/>
      <path id="Trazado_102218" data-name="Trazado 102218" d="M673.146,6051.856c5.767,3.759,9.453,12.166,10.426,16.947l-13.383,10.949s-7.3-16.29-4.866-20.45C667.769,6054.923,670.969,6050.421,673.146,6051.856Z" transform="translate(-544.319 -5999.429)" fill="#d9a171"/>
      <path id="Trazado_102219" data-name="Trazado 102219" d="M656.2,6022.711c-3.115,7.944-4.611,11.241-2.567,17.142,3.066,8.869,13.468,11.278,18.882,4.489,4.866-6.083,9.173-18.067,3.066-24.892a11.412,11.412,0,0,0-19.381,3.261Z" transform="translate(-546.947 -6007.269)" fill="#b55b52"/>
      <path id="Trazado_102220" data-name="Trazado 102220" d="M667.706,6028.83a7.668,7.668,0,0,0,.292,4.647c.791,2.093,2.433,2.044,3.224.56s1.217-4.039-.085-5.693S668.2,6027.126,667.706,6028.83Z" transform="translate(-543.745 -6004.688)" fill="#b55b52"/>
      <path id="Trazado_102221" data-name="Trazado 102221" d="M660.973,6010.592a10.682,10.682,0,0,0-11.229,6.253c-2.932,5.9-5.742,13.687-9.94,12.069.791,1.216,3.285,2.567,4.137,2.007-2.835,2.834-3.394,5.134-4,10.949-.754,7.19-4.733,5.609-4.733,5.609s4.647,7.531,19.867,10.195c13.529,2.434,19.794-.657,21.619-3.187-1.874-.608-4.794-7.3-2.226-11.1s7.008-14.3,6.278-18.5c1.642,2.6,1.728,6.74,3.1,2.58s2-8.517-3.1-13.687C676.205,6009.12,662.956,6006.845,660.973,6010.592Z" transform="translate(-550.735 -6008.715)" fill="#344154"/>
      <path id="Trazado_102222" data-name="Trazado 102222" d="M667.41,6092.214s-16.862,56.487-25.1,88.972c-8.687,34.3-38.287,74.578-38.287,74.578l-10.95-6.083s17.957-38.481,26.376-70.491c17.033-64.979,8.869-78.751,22.5-91.952Z" transform="translate(-559.861 -5991.705)" fill="#344154"/>
      <path id="Trazado_102223" data-name="Trazado 102223" d="M605.337,6228.7l-13.6-7.591,1.983-4.016,16.047,7.385Z" transform="translate(-560.152 -5963.576)" fill="#d9a171"/>
      <path id="Trazado_102224" data-name="Trazado 102224" d="M649.727,6101.457c-11.059,8.517-11.8,41.037-11.546,55.721,5.621-20.523,12.276-43.359,16.169-56.584C653.292,6099.693,651.759,6099.888,649.727,6101.457Z" transform="translate(-550.099 -5988.929)" opacity="0.2" style="isolation: isolate"/>
      <path id="Trazado_102225" data-name="Trazado 102225" d="M599.455,6236.28a1.288,1.288,0,0,1-.3.073c-1.095.1-2.518-1.4-3.26-2.312a.207.207,0,0,1,0-.218.183.183,0,0,1,.231-.062c.365,0,3.5.329,4.015,1.3a.681.681,0,0,1,0,.693A1.225,1.225,0,0,1,599.455,6236.28Zm-2.92-2.1c1.034,1.217,1.983,1.825,2.579,1.776a.74.74,0,0,0,.584-.438.3.3,0,0,0,0-.3c-.255-.512-1.91-.876-3.163-1.035Z" transform="translate(-559.258 -5959.969)" fill="#d9a171"/>
      <path id="Trazado_102226" data-name="Trazado 102226" d="M667.561,6093.633s2.153,68.313-2.677,94.033c-5.012,26.766-20.305,87.6-20.305,87.6l-12.434-1.569s7.859-61.5,11.2-88.083c3.65-28.992-1.131-96.892-1.131-96.892Z" transform="translate(-551.398 -5991.385)" fill="#344154"/>
      <path id="Trazado_102227" data-name="Trazado 102227" d="M647.7,6243.844l-17.738-2.287.219-4.209,19.3.839Z" transform="translate(-551.87 -5959.189)" fill="#d9a171"/>
      <path id="Trazado_102228" data-name="Trazado 102228" d="M598.706,6234.04a6.085,6.085,0,0,1-2.689.438.21.21,0,0,1-.158-.121.247.247,0,0,1,0-.207c.073-.073,1.557-2,2.8-2.08a1.077,1.077,0,0,1,.888.316.7.7,0,0,1,.195.876A1.959,1.959,0,0,1,598.706,6234.04Zm-2.251.061c1.059,0,2.689-.486,2.944-1.021a.378.378,0,0,0-.122-.4.687.687,0,0,0-.56-.207c-.742.049-1.728,1.021-2.263,1.654Z" transform="translate(-559.263 -5960.334)" fill="#d9a171"/>
      <path id="Trazado_102229" data-name="Trazado 102229" d="M643.386,6252.146a14.568,14.568,0,0,1-2.713-.3.2.2,0,0,1-.158-.17.206.206,0,0,1,.109-.207c.4-.208,3.893-1.971,4.927-1.375a.593.593,0,0,1,.328.535,1.119,1.119,0,0,1-.389,1A3.264,3.264,0,0,1,643.386,6252.146Zm-2.02-.6c1.9.316,3.321.231,3.857-.231a.8.8,0,0,0,.255-.657.262.262,0,0,0-.122-.219c-.511-.268-2.555.486-3.99,1.156Z" transform="translate(-549.585 -5956.456)" fill="#d9a171"/>
      <path id="Trazado_102230" data-name="Trazado 102230" d="M640.722,6252.23a.215.215,0,0,1-.122,0,.187.187,0,0,1-.085-.183c0-.158.414-3.65,2.348-3.65h.17c.56.062.718.342.754.572.158.974-1.934,2.835-2.981,3.309Zm2.153-3.491c-1.217,0-1.74,2.043-1.9,2.919,1.083-.632,2.494-2.1,2.433-2.688,0,0,0-.194-.4-.23Z" transform="translate(-549.585 -5956.795)" fill="#d9a171"/>
      <path id="Trazado_102231" data-name="Trazado 102231" d="M633.452,6085.558l-2.068,2.786c-.158.207.085.511.487.584l36.292,7.032c.316.061.6,0,.645-.231l.827-3.017c.061-.219-.182-.451-.523-.512l-35.051-6.788A.642.642,0,0,0,633.452,6085.558Z" transform="translate(-551.574 -5992.106)" fill="#d9a171"/>
      <path id="Trazado_102232" data-name="Trazado 102232" d="M633.452,6085.558l-2.068,2.786c-.158.207.085.511.487.584l36.292,7.032c.316.061.6,0,.645-.231l.827-3.017c.061-.219-.182-.451-.523-.512l-35.051-6.788A.642.642,0,0,0,633.452,6085.558Z" transform="translate(-551.574 -5992.106)" opacity="0.3" style="isolation: isolate"/>
      <path id="Trazado_102233" data-name="Trazado 102233" d="M636.643,6090.283l-.937-.17c-.183,0-.316-.17-.28-.28l1.107-3.917c0-.11.207-.183.389-.146l.949.183a.266.266,0,0,1,.28.28l-1.107,3.918C637.008,6090.259,636.837,6090.32,636.643,6090.283Z" transform="translate(-550.689 -5992.025)" fill="#344154"/>
      <path id="Trazado_102234" data-name="Trazado 102234" d="M656.122,6094.1l-.937-.183c-.183,0-.3-.158-.28-.267l1.107-3.918c0-.109.207-.182.389-.146l.949.183a.266.266,0,0,1,.28.28l-1.107,3.917C656.5,6094.079,656.329,6094.14,656.122,6094.1Z" transform="translate(-546.468 -5991.198)" fill="#344154"/>
      <path id="Trazado_102235" data-name="Trazado 102235" d="M613.295,6366.9h3.017l8.614-42.436,1.509-7.433,9.392-46.231h36.012l19.466,96.113h3.017l-19.892-97.877a1.458,1.458,0,0,0-1.448-1.216h-38.36a1.459,1.459,0,0,0-1.448,1.216l-8.249,40.611-1.509,7.421Z" transform="translate(-555.481 -5952.589)" fill="#344154"/>
      <path id="Trazado_102236" data-name="Trazado 102236" d="M565.775,6366.9h3.017l19.466-96.113h36l9.392,46.231,1.509,7.41,8.614,42.436h3.017l-10.122-49.882-1.509-7.4-8.188-40.562a1.46,1.46,0,0,0-1.448-1.217H587.114a1.461,1.461,0,0,0-1.448,1.217Z" transform="translate(-565.775 -5952.59)" fill="#344154"/>
      <path id="Trazado_102237" data-name="Trazado 102237" d="M686.155,6258.628H581.429a9.052,9.052,0,0,0-9.064,9.04V6268a3.3,3.3,0,0,0,3.285,3.309H691.922a3.3,3.3,0,0,0,3.3-3.3v-.316a9.051,9.051,0,0,0-9.039-9.064Z" transform="translate(-564.348 -5954.579)" fill="#d9a171"/>
    </g>
    <g id="freepik--character-1--inject-40" transform="translate(783.207 6114.865)">
      <path id="Trazado_102238" data-name="Trazado 102238" d="M830.207,6146.108c2.567,4.733,4.939,9.466,7.215,14.308s4.4,9.733,6.387,14.782l.73,1.9.365.961.207.56.3.961a14.166,14.166,0,0,1,.219,6.412,30.093,30.093,0,0,1-3.248,8.93,56.49,56.49,0,0,1-4.55,7.2,63.246,63.246,0,0,1-5.365,6.412l-5.45-3.905a124.785,124.785,0,0,0,5.73-13.857,23.909,23.909,0,0,0,1.278-6.181c0-.8-.134-1.448-.231-1.423h0l-.158-.34-.426-.864-.839-1.728c-2.287-4.624-4.66-9.259-7.044-13.894l-7.093-13.93Z" transform="translate(-716.478 -6085.103)" fill="#ff8b7b"/>
      <path id="Trazado_102239" data-name="Trazado 102239" d="M827.185,6193.237l-5.11,2.823,7.677,6.569s3.188-3.15,2.64-6.946Z" transform="translate(-715.646 -6074.894)" fill="#ff8b7b"/>
      <path id="Trazado_102240" data-name="Trazado 102240" d="M818.026,6200.534l6.606,5.122,5.974-3.541-7.677-6.558Z" transform="translate(-716.523 -6074.391)" fill="#ff8b7b"/>
      <path id="Trazado_102241" data-name="Trazado 102241" d="M795.855,6118.416c-.11.632-.523,1.095-.925,1.021s-.669-.62-.572-1.217.511-1.095.925-1.021S795.952,6117.783,795.855,6118.416Z" transform="translate(-721.654 -6091.366)" fill="#344154"/>
      <path id="Trazado_102242" data-name="Trazado 102242" d="M795.892,6119.1a22.575,22.575,0,0,1-3.857,4.866,3.654,3.654,0,0,0,2.932,1.034Z" transform="translate(-722.153 -6090.954)" fill="#ff5652"/>
      <path id="Trazado_102243" data-name="Trazado 102243" d="M798.5,6115.935a.381.381,0,0,1-.268-.11,2.967,2.967,0,0,0-2.555-.888.378.378,0,0,1-.438-.292.365.365,0,0,1,.275-.437h0a3.644,3.644,0,0,1,3.248,1.095.364.364,0,0,1,.007.516l-.007.007A.377.377,0,0,1,798.5,6115.935Z" transform="translate(-721.461 -6092.024)" fill="#344154"/>
      <path id="Trazado_102244" data-name="Trazado 102244" d="M816.036,6123.908c-1.131,5.791-2.263,16.387,1.789,20.244,0,0-1.582,5.876-12.337,5.876-11.826,0-5.645-5.876-5.645-5.876,6.448-1.533,6.278-6.326,5.158-10.815Z" transform="translate(-720.812 -6089.912)" fill="#ff8b7b"/>
      <path id="Trazado_102245" data-name="Trazado 102245" d="M824.761,6147.4a3.7,3.7,0,0,1-.341-1.034c-1.046-5.633-5.45-10.062-11.156-10.28-6.083-.219-12.811.8-16.838,5.535-1.764,2.068.195,5.1.195,5.1Z" transform="translate(-721.361 -6087.28)" fill="#d9a171"/>
      <path id="Trazado_102246" data-name="Trazado 102246" d="M835.066,6339.781h-.073a.756.756,0,0,1-.365-.815.853.853,0,0,1,.353-.645c.937-.718,3.542-.28,3.65-.255a.217.217,0,0,1,.159.133.2.2,0,0,1-.073.195C838.083,6338.856,835.991,6340.158,835.066,6339.781Zm3.054-1.448a5.032,5.032,0,0,0-2.908.255.49.49,0,0,0-.219.377c0,.341.122.426.17.45C835.662,6339.684,837.134,6339,838.12,6338.333Z" transform="translate(-712.93 -6043.556)" fill="#d9a171"/>
      <path id="Trazado_102247" data-name="Trazado 102247" d="M837.163,6338.446c-.9-.353-1.861-.937-2-1.5a.609.609,0,0,1,.341-.693,1.008,1.008,0,0,1,.815-.122c1.144.292,2.275,2.3,2.324,2.433a.166.166,0,0,1,0,.183.206.206,0,0,1-.17.1A5.125,5.125,0,0,1,837.163,6338.446Zm-.8-1.91h-.122a.668.668,0,0,0-.535.073c-.207.122-.182.231-.17.28.122.523,1.582,1.29,2.579,1.508a5.016,5.016,0,0,0-1.752-1.861Z" transform="translate(-712.813 -6043.948)" fill="#d9a171"/>
      <path id="Trazado_102248" data-name="Trazado 102248" d="M786.231,6344.026c-1.01,0-2-.134-2.324-.6a.719.719,0,0,1,0-.816.938.938,0,0,1,.6-.437c1.314-.353,4.088,1.216,4.2,1.29a.167.167,0,0,1,.1.182.182.182,0,0,1-.158.158A14.076,14.076,0,0,1,786.231,6344.026Zm-1.217-1.533a1.2,1.2,0,0,0-.365,0,.6.6,0,0,0-.365.255c-.133.231-.085.353,0,.414.365.511,2.374.523,3.846.316a8.49,8.49,0,0,0-3.152-.985Z" transform="translate(-723.941 -6042.642)" fill="#d9a171"/>
      <path id="Trazado_102249" data-name="Trazado 102249" d="M788.25,6344.142h-.073c-.949-.425-2.847-2.141-2.7-3.028,0-.22.182-.475.693-.523a1.357,1.357,0,0,1,1.046.316,5.339,5.339,0,0,1,1.217,3.054.177.177,0,0,1-.085.157A.137.137,0,0,1,788.25,6344.142Zm-1.922-3.2h-.122c-.341,0-.365.171-.365.219-.1.536,1.217,1.874,2.166,2.434a4.282,4.282,0,0,0-1.046-2.434A.953.953,0,0,0,786.328,6340.942Z" transform="translate(-723.576 -6042.977)" fill="#d9a171"/>
      <path id="Trazado_102250" data-name="Trazado 102250" d="M796.452,6346.62h-7.908l-.779-18.322h7.908Z" transform="translate(-723.078 -6045.638)" fill="#ff8b7b"/>
      <path id="Trazado_102251" data-name="Trazado 102251" d="M847.845,6339.706l-7.409,1.691-8.65-17.556,7.409-1.7Z" transform="translate(-713.542 -6046.972)" fill="#ff8b7b"/>
      <path id="Trazado_102252" data-name="Trazado 102252" d="M840.114,6337.939l8.078-3.65a.693.693,0,0,1,.839.208l4.356,5.742a1.216,1.216,0,0,1-.339,1.687,1.077,1.077,0,0,1-.135.078c-2.835,1.217-4.282,1.7-7.835,3.333-2.178,1-9.9,6.448-13.152,7.142s-4.355-2.433-3.09-2.993a22.694,22.694,0,0,0,10.317-10.512A1.924,1.924,0,0,1,840.114,6337.939Z" transform="translate(-714.292 -6044.354)" fill="#344154"/>
      <path id="Trazado_102253" data-name="Trazado 102253" d="M791.857,6342.608h8.638a.692.692,0,0,1,.669.535l1.557,7.032a1.144,1.144,0,0,1-.843,1.379,1.22,1.22,0,0,1-.288.032c-3.115-.061-7.616-.243-11.534-.243-4.587,0-8.516.255-13.906.255-3.248,0-4.149-3.285-2.786-3.577,6.18-1.363,11.229-1.509,16.583-4.806A3.651,3.651,0,0,1,791.857,6342.608Z" transform="translate(-726.33 -6042.538)" fill="#344154"/>
      <path id="Trazado_102254" data-name="Trazado 102254" d="M816.552,6155.533c.827,2.129,1.728,4.2,2.652,6.083,1.569,3.357,3.139,6.29,4.283,8.321,1.022,1.825,1.691,2.908,1.691,2.908l17.276-8.516s-6.959-20.014-14.234-22.24S812.817,6145.994,816.552,6155.533Z" transform="translate(-717.046 -6086.072)" fill="#344154"/>
      <path id="Trazado_102255" data-name="Trazado 102255" d="M823.271,6154.688c-1.5,1.107-2.579,4.087-3.346,7.579.985,1.922,1.9,3.65,2.628,4.867,1.022,1.825,1.679,2.908,1.679,2.908l1.983-.985A38.14,38.14,0,0,0,823.271,6154.688Z" transform="translate(-716.112 -6083.245)" opacity="0.2" style="isolation: isolate"/>
      <path id="Trazado_102256" data-name="Trazado 102256" d="M786.355,6168.576c0,2.688.061,5.658.219,8.918.389,8.869,1.35,19.928,3.212,33.664h42.3c.292-6.484-3.8-38.177,2.433-68.775a111.9,111.9,0,0,0-14.161-1.789,157.793,157.793,0,0,0-17.982,0,80.457,80.457,0,0,0-12.166,2.2S786.343,6147.2,786.355,6168.576Z" transform="translate(-723.383 -6086.353)" fill="#344154"/>
      <path id="Trazado_102257" data-name="Trazado 102257" d="M787.592,6159.375c-.389.852-.8,1.716-1.217,2.64v4.368c5.256-3.2,8.7-9.916,8.7-9.916Z" transform="translate(-723.379 -6082.859)" opacity="0.2" style="isolation: isolate"/>
      <path id="Trazado_102258" data-name="Trazado 102258" d="M808.647,6156.132l-1.217.754-1.071.62c-.718.427-1.387.73-2.068,1.107-1.363.669-2.7,1.3-4.051,1.91-2.689,1.217-5.438,2.239-8.2,3.212A75.75,75.75,0,0,1,774.4,6167.7c-.815,0-1.569.158-2.433.146h-2.628a18.537,18.537,0,0,1-5.767-1.387,43.046,43.046,0,0,1-8.237-4.575,82.026,82.026,0,0,1-13.139-11.4l4.235-5.207c4.695,2.6,9.488,5.329,14.174,7.5a42.335,42.335,0,0,0,6.751,2.578,7.657,7.657,0,0,0,2.337.3l1.533-.146a14.865,14.865,0,0,0,1.715-.244,77.892,77.892,0,0,0,14.514-4.221c2.433-.913,4.866-1.936,7.227-2.97,1.217-.535,2.348-1.07,3.467-1.63l1.606-.839.742-.39.584-.341Z" transform="translate(-732.949 -6085.37)" fill="#ff8b7b"/>
      <path id="Trazado_102259" data-name="Trazado 102259" d="M748.657,6147.693l-4.94-6.375-5.012,8.432s4.611,3.431,8.3,2.81Z" transform="translate(-733.705 -6086.141)" fill="#ff8b7b"/>
      <path id="Trazado_102260" data-name="Trazado 102260" d="M737.223,6139.188l-2.628,6.959,5,4.063,5.012-8.431Z" transform="translate(-734.595 -6086.602)" fill="#ff8b7b"/>
      <path id="Trazado_102261" data-name="Trazado 102261" d="M808.915,6155.1c-4.1,6.351-26.4,13.3-26.4,13.3l-8.589-17.666a88.307,88.307,0,0,1,18.931-8.272C807.09,6138.563,813.842,6147.469,808.915,6155.1Z" transform="translate(-726.076 -6086.099)" fill="#344154"/>
      <path id="Trazado_102262" data-name="Trazado 102262" d="M787.766,6328.308l.4,9.441h7.908l-.4-9.441Z" transform="translate(-723.078 -6045.635)" opacity="0.2" style="isolation: isolate"/>
      <path id="Trazado_102263" data-name="Trazado 102263" d="M839.195,6322.148l-7.409,1.7,4.465,9.052,7.409-1.7Z" transform="translate(-713.542 -6046.97)" opacity="0.2" style="isolation: isolate"/>
      <path id="Trazado_102264" data-name="Trazado 102264" d="M817.231,6122.147c-1.691,7.664-2.287,12.239-6.825,15.6-6.813,5.062-15.816,0-16.449-7.993-.572-7.227,2.288-18.542,10.341-20.439a10.706,10.706,0,0,1,12.933,12.836Z" transform="translate(-721.752 -6093.139)" fill="#ff8b7b"/>
      <path id="Trazado_102265" data-name="Trazado 102265" d="M824.26,6106.188c6.728.183,9.173,11.363,7.166,14.7,0,0-2.152,1.217-4.769,5.316-3.966,6.253-9.027,13.018-14.964,12.616-7.373-.511-8.516-9.027-8.261-16.948-3.893-3.65-6.022-3.941-7.932-9.234C789.6,6096.321,800.938,6088.146,824.26,6106.188Z" transform="translate(-721.737 -6095.965)" fill="#344154"/>
      <path id="Trazado_102266" data-name="Trazado 102266" d="M805.483,6119.814a9.049,9.049,0,0,1-2.433,5.28c-1.837,1.886-3.65.621-3.869-1.764-.207-2.141.5-5.693,2.689-6.691S805.7,6117.417,805.483,6119.814Z" transform="translate(-720.613 -6091.547)" fill="#ff8b7b"/>
      <path id="Trazado_102267" data-name="Trazado 102267" d="M801.512,6198.548s-.912,56.293,6.156,78.363c11.205,34.953,30.415,81.976,30.415,81.976l14.453-3.65s-15.926-47.667-21.1-77.109c-4.647-26.449-2.677-57.936-2.677-79.542Z" transform="translate(-720.108 -6073.744)" fill="#d9a171"/>
      <path id="Trazado_102268" data-name="Trazado 102268" d="M809.405,6207.107c1.5,10.146-3.8,38.385-5.621,47.631-1.921-17.288-2.275-37.8-2.3-48.993C805.354,6203.117,808.712,6202.437,809.405,6207.107Z" transform="translate(-720.106 -6072.631)" opacity="0.2" style="isolation: isolate"/>
      <path id="Trazado_102269" data-name="Trazado 102269" d="M828.425,6327.7c-.061,0,3.54,4.575,3.54,4.575l15.816-4.027-1.752-5.366Z" transform="translate(-714.271 -6046.812)" fill="#d9a171"/>
      <path id="Trazado_102270" data-name="Trazado 102270" d="M828.425,6327.7c-.061,0,3.54,4.575,3.54,4.575l15.816-4.027-1.752-5.366Z" transform="translate(-714.271 -6046.812)" fill="#fff" opacity="0.2" style="isolation: isolate"/>
      <path id="Trazado_102271" data-name="Trazado 102271" d="M791.447,6198.548s-11.911,50.5-12.75,74.628c-.937,27.045,8.516,90.856,8.516,90.856H800.6s1.691-64.25,2.251-88.947c.657-26.863,16.473-76.538,16.473-76.538Z" transform="translate(-725.057 -6073.744)" fill="#d9a171"/>
      <path id="Trazado_102272" data-name="Trazado 102272" d="M783.556,6330.178c-.061,0,.754,5.56.754,5.56h16.3l.438-4.964Z" transform="translate(-723.991 -6045.23)" fill="#d9a171"/>
      <path id="Trazado_102273" data-name="Trazado 102273" d="M783.556,6330.178c-.061,0,.754,5.56.754,5.56h16.3l.438-4.964Z" transform="translate(-723.991 -6045.23)" fill="#fff" opacity="0.2" style="isolation: isolate"/>
    </g>
  </g>
</svg>
